<?xml version="1.0" encoding="UTF-8"?>
<svg xmlns="http://www.w3.org/2000/svg" version="1.1" viewBox="0 0 64 64">
  <!-- Generator: Adobe Illustrator 28.7.1, SVG Export Plug-In . SVG Version: 1.2.0 Build 142)  -->
  <g>
    <g id="Glyph">
      <g>
        <path d="M54,45c1.6543,0,3-1.3457,3-3v-8c0-1.6543-1.3457-3-3-3h-3v-1c0-1.6543-1.3457-3-3-3h-15v-2h5c1.6543,0,3-1.3457,3-3v-12c0-1.6543-1.3457-3-3-3h-12c-1.6543,0-3,1.3457-3,3v12c0,1.6543,1.3457,3,3,3h5v2h-15c-1.6543,0-3,1.3457-3,3v1h-3c-1.65002,0-3,1.34998-3,3v8c0,1.64996,1.34998,3,3,3h3v4h-3c-1.6543,0-3,1.3457-3,3v2c0,1.6543,1.3457,3,3,3h8c1.6543,0,3-1.3457,3-3v-2c0-1.6543-1.3457-3-3-3h-3v-4h3c1.65002,0,3-1.35004,3-3v-8c0-1.65002-1.34998-3-3-3h-3v-1c0-.55127.44873-1,1-1h15v2h-4c-1.65002,0-3,1.34998-3,3v8c0,1.64996,1.34998,3,3,3h4v4h-3c-1.6543,0-3,1.3457-3,3v2c0,1.6543,1.3457,3,3,3h8c1.6543,0,3-1.3457,3-3v-2c0-1.6543-1.3457-3-3-3h-3v-4h4c1.65002,0,3-1.35004,3-3v-8c0-1.65002-1.34998-3-3-3h-4v-2h15c.55127,0,1,.44873,1,1v1h-3c-1.6543,0-3,1.3457-3,3v8c0,1.6543,1.3457,3,3,3h3v4h-3c-1.6543,0-3,1.3457-3,3v2c0,1.6543,1.3457,3,3,3h8c1.6543,0,3-1.3457,3-3v-2c0-1.6543-1.3457-3-3-3h-3v-4h3ZM35,12c0-.55225.44775-1,1-1s1,.44775,1,1v8c0,.55225-.44775,1-1,1s-1-.44775-1-1v-8ZM29,20c0,.55225-.44775,1-1,1s-1-.44775-1-1v-6c0-1.6543,1.3457-3,3-3s3,1.3457,3,3v6c0,.55225-.44775,1-1,1s-1-.44775-1-1v-2h-2v2ZM16.62,35.21997c.44.34003.51001.97003.16003,1.40002l-1.5,1.88,1.5,1.88c.34996.42997.27998,1.05993-.15996,1.39991-.41812.32312-1.04421.28492-1.4001-.15992l-1.21997-1.52002-1.21997,1.52001c-.33898.42236-.97841.5114-1.40003.15998-.44-.33997-.51001-.96997-.16003-1.39996l1.5-1.88-1.5-1.88c-.34998-.42999-.27997-1.06.16003-1.40002.42999-.34998,1.06-.27997,1.40002.16003l1.21997,1.52997,1.21997-1.52997c.34003-.44.97003-.51001,1.40002-.16003ZM35.71002,35.28998c.38995.39001.38995,1.03003,0,1.41998l-4,4c-.20001.19-.45001.29004-.71002.29004s-.51001-.10004-.71002-.29004l-2-2c-.38995-.38995-.38995-1.02997,0-1.41998.39001-.39001,1.03003-.39001,1.42004,0l1.28998,1.29999,3.28998-3.29999c.39001-.39001,1.03003-.39001,1.42004,0ZM47.99946,41.99782c-.82485.00173-1.29606-.97809-.78023-1.62233l1.50037-1.87549-1.50037-1.87549c-.34521-.43115-.27539-1.06055.15625-1.40527.43018-.34521,1.06055-.27539,1.40527.15625l1.21924,1.52405,1.21924-1.52405c.34473-.43164.97559-.50098,1.40527-.15625.43164.34473.50146.97412.15625,1.40527l-1.50037,1.87549,1.50037,1.87549c.34516.43108.27541,1.06034-.15604,1.4051-.40377.32264-1.062.27412-1.40549-.15608l-1.21924-1.52405-1.21924,1.52405c-.19561.24451-.48715.37261-.7813.37331Z"/>
        <path d="M31,14c0-.55127-.44873-1-1-1s-1,.44873-1,1v2h2v-2Z"/>
      </g>
    </g>
  </g>
</svg>