<svg id="Solid" xmlns="http://www.w3.org/2000/svg" viewBox="0 0 64 64"><title>Arab, male,  people, beard, Islam, avatar, man</title><path d="M20.862,23.709a.494.494,0,0,1-.312-.109,1.758,1.758,0,0,0-2.2,0,.5.5,0,0,1-.624-.782,2.762,2.762,0,0,1,3.446,0,.5.5,0,0,1-.313.89Z"/><path d="M32.242,23.45a.5.5,0,0,1-.312-.11,1.766,1.766,0,0,0-2.2,0,.5.5,0,0,1-.625-.781,2.76,2.76,0,0,1,3.446,0,.5.5,0,0,1-.313.891Z"/><path d="M25.49,33.18h-.012a3.212,3.212,0,0,1-2.333-.774.5.5,0,0,1,.774-.634,2.44,2.44,0,0,0,1.56.408h.01a2.316,2.316,0,0,0,1.717-.549.5.5,0,0,1,.772.637A3.194,3.194,0,0,1,25.49,33.18Z"/><path d="M33.561,22.189a.5.5,0,0,1-.306-.105c-1.361-1.056-4.912-.523-5.345-.19a.5.5,0,0,1-.7-.077.493.493,0,0,1,.064-.693c.792-.658,4.868-1.17,6.6.17a.5.5,0,0,1-.307.895Z"/><path d="M17.322,22.379a.5.5,0,0,1-.3-.9c1.111-.853,4.37-.851,5.212-.185a.5.5,0,1,1-.619.785,5.818,5.818,0,0,0-3.986.194A.494.494,0,0,1,17.322,22.379Z"/><path d="M32.582,23.889v.99a.928.928,0,0,1-.93.93h-.4a.935.935,0,0,1-.93-.93v-.99a.935.935,0,0,1,.93-.93h.4A.928.928,0,0,1,32.582,23.889Z"/><path d="M25.53,28.083a.872.872,0,0,1-.834-.112.75.75,0,0,1-.324-.422.5.5,0,0,0-.957-.292,1.356,1.356,0,0,0,.481,1.349,1.975,1.975,0,0,0,1.327.538,1.841,1.841,0,0,0,.671-.129.5.5,0,1,0-.364-.932Z"/><path d="M49.434,39.232c-.24-1.184-.478-2.368-.691-3.514C47.4,28.54,45.58,20.938,44.716,17.926a.29.29,0,0,0,.029-.019,1.454,1.454,0,0,0,.337-1.091c.011-.791,0-4.785-1.2-5.741a4.985,4.985,0,0,0-.478-.355C42.551,7.419,37.5,3,29.872,3c-6.911,0-11.024,3.69-12.492,6.91a2.194,2.194,0,0,0-.841.739,8.907,8.907,0,0,0-1.157,4.611c0,1.427.215,1.928.457,2.155-.795,2.857-3.635,24.92-3.915,26.771-.787,5.19-1.356,8.94-.152,10.34a1.657,1.657,0,0,0,.632.457,2.847,2.847,0,0,0,.9,3.828c1.9,1.32,5.995,2.869,11.759,3.258.87.061,1.791.092,2.736.092,12.627,0,18.675-3.7,19.323-4.122,1.788-1.168,3.349-2.347,2.812-3.913-.2-.632-.375-1.095-.572-1.554a1.828,1.828,0,0,0,.786-.562C51.638,50.178,50.566,44.861,49.434,39.232ZM29.872,4c6.276,0,10.773,3.245,12.2,6.007-5.513-2.3-18.186-2.187-23.228-.7C20.528,6.653,24.166,4,29.872,4ZM24.628,61.022c-5.3-.433-9.092-1.884-10.751-3.034-.648-.448-1.284-1.178-.458-2.856a16.015,16.015,0,0,1,1.833-2.707c2.961-3.451,7.309-5.295,9.907-6.4.547-.232,1-.425,1.358-.6a1.722,1.722,0,0,0,.487.616,3.782,3.782,0,0,0,1.777.7C27.768,48.052,24.98,52.405,24.628,61.022ZM19.4,31.983a2.788,2.788,0,0,0,1.556-.527l.154-.1a5.054,5.054,0,0,1,3.659-1.034,7.846,7.846,0,0,1,4.067,1.074l.133.069c1.295.679,3.635.257,5.148-.537.153-.078.272-.167.405-.251.05,1.827.03,3.851-.07,6.17A11.1,11.1,0,0,1,30,39.142a15.725,15.725,0,0,1-2.08.322,10.251,10.251,0,0,1-2.282-.06,8.57,8.57,0,0,1-5.2-2.67,11.722,11.722,0,0,1-2.483-5.2A2.828,2.828,0,0,0,19.4,31.983Zm-1.758-1.965L17.2,26.732a28.66,28.66,0,0,1,.092-4.281,6.671,6.671,0,0,1,.645-2.265,1.837,1.837,0,0,1,1.206-.947c1.935-.107,2.427.393,2.949.915a2.871,2.871,0,0,0,2.308,1.015,5.8,5.8,0,0,0,3.805-1.31,4.374,4.374,0,0,1,2.165-.972c1.8-.186,2.65.861,3.368,4.168a38.531,38.531,0,0,1,.738,6.394,3.076,3.076,0,0,1-.822.588c-1.4.733-3.373.985-4.225.539l-.132-.069a8.837,8.837,0,0,0-4.531-1.188,5.935,5.935,0,0,0-4.213,1.2l-.153.1C19.561,31.183,18.15,30.477,17.644,30.018ZM29.671,41.13a9.252,9.252,0,0,1-1.949-.09c-.028-.181-.059-.364-.1-.552a14.963,14.963,0,0,0,2.6-.373,10.926,10.926,0,0,0,4.154-1.972c-.031.513-.064,1.016-.1,1.512A8.781,8.781,0,0,1,29.671,41.13Zm4.521-.176c-.132,1.675-.283,3.163-.4,4.263a10.849,10.849,0,0,1-3.871.628c-.024-.3-.049-.708-.056-1.211A11.611,11.611,0,0,1,30.1,42.1,12.45,12.45,0,0,0,34.192,40.954Zm-5.284,4.808a2.834,2.834,0,0,1-1.27-.491.622.622,0,0,1-.261-.541,6.384,6.384,0,0,0,.439-2.676,10.819,10.819,0,0,0,1.255.083,12.974,12.974,0,0,0-.209,2.509C28.868,45.084,28.887,45.463,28.908,45.762ZM46.579,57.2c-2.26,1.47-8.756,3.959-18.777,3.959-.749,0-1.473-.025-2.176-.065.4-9.928,3.952-13.886,4.33-14.238a16.02,16.02,0,0,0,3.71-.54c-.113.979-.339,2.765-.338,2.775a18.929,18.929,0,0,0-.17,4.225,5.144,5.144,0,0,0,1.361,3.127,4.565,4.565,0,0,0,3.342,1.183,9.627,9.627,0,0,0,1.605-.145,11.629,11.629,0,0,0,5.92-3.052,5.84,5.84,0,0,1,2.958-1.694,15.781,15.781,0,0,1,.645,1.705C49.23,55.147,48.577,55.9,46.579,57.2Zm2.8-5.822a.921.921,0,0,1-.728.33,6.932,6.932,0,0,0-.889.111,7.61,7.61,0,0,0-3.017,1.845A10.635,10.635,0,0,1,39.3,56.5c-1.866.318-3.242.06-4.076-.764a4.608,4.608,0,0,1-1.167-3.005,24.5,24.5,0,0,1,.258-3.471c.04-.471.284-2.242.436-3.612.147-1.349.52-6.143.692-8.512a62.023,62.023,0,0,0,.051-7.5,39.873,39.873,0,0,0-.771-6.787c-.557-2.565-1.41-5.278-4.452-4.952a5.309,5.309,0,0,0-2.631,1.147,4.977,4.977,0,0,1-3.22,1.13,1.913,1.913,0,0,1-1.613-.721c-.592-.593-1.33-1.334-3.754-1.2a2.833,2.833,0,0,0-1.988,1.466,7.858,7.858,0,0,0-.755,2.595,24.484,24.484,0,0,0-.095,4.58,23.981,23.981,0,0,0,.62,4.228A13.381,13.381,0,0,0,19.7,37.405a9.558,9.558,0,0,0,5.805,2.988,9.727,9.727,0,0,0,1.084.1c.081.364.212,1.164.222,1.286a5.448,5.448,0,0,1-.344,2.549,17.163,17.163,0,0,1-1.7.779c-2.679,1.137-7.162,3.037-10.274,6.664a14.286,14.286,0,0,0-1.626,2.3.669.669,0,0,1-.338-.2c-.905-1.051-.308-4.984.381-9.538.282-1.859,3.173-24.606,3.954-26.876,1.748-.73,5.249-1.077,10.441-1.04a86.28,86.28,0,0,1,16.412,1.657c.855,2.946,2.733,10.835,4.042,17.825.213,1.15.453,2.34.692,3.529C49.442,44.344,50.563,49.914,49.375,51.379Z"/><rect x="18.942" y="23.179" width="2.26" height="2.85" rx="0.93" ry="0.93"/></svg>