<svg id="Solid" xmlns="http://www.w3.org/2000/svg" viewBox="0 0 64 64"><title>boy, people, avatar, man, male, hat, student</title><path d="M33.2,25.2a.5.5,0,0,1-.374-.169,2.874,2.874,0,0,0-2.815-.109.5.5,0,0,1-.562-.826c1.11-.757,3.347-.609,4.126.273a.5.5,0,0,1-.375.831Z"/><path d="M25.5,34.832c-1.11,0-1.917-.343-2.167-.926a.5.5,0,1,1,.919-.393c.05.114.492.322,1.327.318,1.08-.019,2.047-.424,2.248-.942a.5.5,0,1,1,.932.361c-.439,1.134-1.978,1.56-3.162,1.581Z"/><path d="M34.691,23.769a.5.5,0,0,1-.29-.093c-.806-.576-4.549-1.046-5.728-.2a.5.5,0,0,1-.583-.812c1.572-1.13,5.82-.566,6.892.2a.5.5,0,0,1-.291.906Z"/><path d="M21.8,25.2a.5.5,0,0,1-.375-.169,2.869,2.869,0,0,0-2.814-.109.5.5,0,1,1-.562-.826c1.11-.757,3.348-.609,4.125.273a.5.5,0,0,1-.374.831Z"/><path d="M16.7,23.769a.5.5,0,0,1-.333-.872c1.126-1.008,5-1.156,6.369-.244a.5.5,0,0,1-.552.833c-.962-.639-4.378-.535-5.15.156A.5.5,0,0,1,16.7,23.769Z"/><path d="M41.732,29.649a.511.511,0,0,1-.1-.01.5.5,0,0,1-.387-.592,2.173,2.173,0,0,1,2.347-1.583.5.5,0,0,1-.136.991,1.17,1.17,0,0,0-1.233.8A.5.5,0,0,1,41.732,29.649Z"/><path d="M25.623,30.783a1.983,1.983,0,0,1-1.351-.545,1.4,1.4,0,0,1-.507-1.387.5.5,0,0,1,.958.287.767.767,0,0,0,.334.453.916.916,0,0,0,.884.133.5.5,0,1,1,.362.931A1.872,1.872,0,0,1,25.623,30.783Zm-.9-1.636Zm0-.013Z"/><path d="M42.382,32.819a1.38,1.38,0,1,1,1.38-1.38A1.381,1.381,0,0,1,42.382,32.819Zm0-1.76a.38.38,0,1,0,.38.38A.376.376,0,0,0,42.382,31.059Z"/><path d="M33.042,25.459v.66a.935.935,0,0,1-.93.93h-.24a.928.928,0,0,1-.93-.93v-.66a.922.922,0,0,1,.93-.93h.24A.928.928,0,0,1,33.042,25.459Z"/><path d="M21.632,25.459v.66a.928.928,0,0,1-.93.93h-.23a.937.937,0,0,1-.94-.93v-.66a.93.93,0,0,1,.94-.93h.23A.922.922,0,0,1,21.632,25.459Z"/><path d="M29.912,51.559a.958.958,0,1,1-1.11.76A.95.95,0,0,1,29.912,51.559Z"/><path d="M28.512,58.559a.958.958,0,1,1-1.11.76A.95.95,0,0,1,28.512,58.559Z"/><path d="M50.726,54.74a13.017,13.017,0,0,0-4.441-6.122,24.92,24.92,0,0,0-6.043-3.507,2.987,2.987,0,0,1-.88-.578c-.064-.649-.281-2.012-1-2.469a.986.986,0,0,0-.648-.143,13.077,13.077,0,0,1-.829-3.411,13.717,13.717,0,0,0,3.69-5,2.952,2.952,0,0,0,.981.412c2.322.526,4.243-1.538,4.767-3.83a5,5,0,0,0-1.129-4.643c.237-.779.44-1.645.571-2.274.183-.882.552-2.88.608-3.476.152-1.7.329-6.019-1.3-9.352-1.4-2.888-5.112-6.205-11.37-7.02a2.333,2.333,0,0,0-.983-1.974,1.871,1.871,0,0,0-1.955-.011,2.238,2.238,0,0,0-1.027,1.8C17.9,3.443,15.69,11.121,14.983,14.15c-4.582.6-5.188,1.642-5.386,1.99a1.3,1.3,0,0,0-.055,1.206,3.426,3.426,0,0,0,.562.888,7.429,7.429,0,0,0,5.3,2.3c.063,0,.392-.033.5-.049.025.918.61,5.014.657,6.242.2,5.837,1.315,9.681,3.5,12.1a9.988,9.988,0,0,0,7.571,2.994c.127,0,.3-.013.5-.033a10.991,10.991,0,0,1,.393,2.156,1.768,1.768,0,0,0-1.125-.166.951.951,0,0,0-.625.352,3.791,3.791,0,0,0-.4,2.36l-.426.165a30.6,30.6,0,0,0-7.513,3.835,14.238,14.238,0,0,0-4.359,5.046c-1.076,2.138-.185,3.359.754,4.007a10.041,10.041,0,0,0,1.4.808,26.69,26.69,0,0,0,9.934,2.338c.228.021,2.015.1,2.706.1A49.031,49.031,0,0,0,41.4,61.283h0A22.3,22.3,0,0,0,47.585,58.8C49.377,57.629,51.245,56.254,50.726,54.74Zm-5.7-33.07c-.054.313-.55,2.645-.7,3.191a3.5,3.5,0,0,0-.6-.2,4.018,4.018,0,0,0-3.177.843,5.445,5.445,0,0,0-.819.889c-1.019-.521-2.062-1.858-2.206-6.184A64.241,64.241,0,0,1,45.028,21.67ZM31.276,2.2a.872.872,0,0,1,.913,0,1.293,1.293,0,0,1,.524,1.018c-.654-.047-1.454-.074-1.986-.086A1.235,1.235,0,0,1,31.276,2.2ZM16.27,19.292a.72.72,0,0,0-.282.163,6.162,6.162,0,0,1-5.119-1.864,2.452,2.452,0,0,1-.409-.642.308.308,0,0,1,0-.313c.135-.236.892-1.045,4.987-1.54,0,0,.4-.044.551-.069,5-.518,11.456-.208,14.09.677a8.077,8.077,0,0,1,3.8,2.3,3.059,3.059,0,0,1,.469.792C28.549,18.13,20.951,17.727,16.27,19.292ZM28.435,40.744a6.932,6.932,0,0,1-.813.075,9.01,9.01,0,0,1-6.829-2.665c-1.99-2.2-3.05-5.95-3.242-11.464-.049-1.277-.649-6.066-.671-6.535,4.982-1.533,13.4-.848,18.042-.289h0c.545.063,1.074.135,1.6.205.12,4.3,1.1,6.6,3.151,7.384.071.025.091.031.131.042a.466.466,0,0,0,.552-.245,4.145,4.145,0,0,1,.825-.976,3.03,3.03,0,0,1,2.32-.639,2.246,2.246,0,0,1,.829.366,3.843,3.843,0,0,1,1.017,3.865c-.406,1.772-1.886,3.449-3.576,3.073a2.656,2.656,0,0,1-1.12-.616.5.5,0,0,0-.782.238,12.775,12.775,0,0,1-3.819,5.347,9.867,9.867,0,0,1-.942.666.5.5,0,0,0-.157.69.478.478,0,0,0,.424.233,1.269,1.269,0,0,0,.586-.29,13.858,13.858,0,0,0,.8,3.036c-1.473.608-4.707,1.984-5.72,2.536a2.4,2.4,0,0,0-1.092,1.344,4.778,4.778,0,0,0-.47-1.368,8.417,8.417,0,0,0-.359-3.112,14,14,0,0,0,2.26-.515.5.5,0,0,0-.341-.941A15.388,15.388,0,0,1,28.435,40.744Zm-2.7,20.9a25.875,25.875,0,0,1-8.786-2.067c.012-2.046.7-6.3,2.145-8.333a29.991,29.991,0,0,1,7.211-3.659l.325-.126a3.392,3.392,0,0,0,2.547,1.553,15.356,15.356,0,0,0-1.9,4.142l-.074.227A43.994,43.994,0,0,0,25.736,61.645ZM40.7,60.424a49.185,49.185,0,0,1-11.831,1.365c-.669,0-1.488-.041-2.139-.07A43.248,43.248,0,0,1,28.157,53.7l.076-.236a12.774,12.774,0,0,1,2.11-4.3c.088,0,.173.012.264.012a13.142,13.142,0,0,0,8.331-3.677,3.972,3.972,0,0,0,.9.531,26.2,26.2,0,0,1,5.362,3C42.553,51.645,40.408,57.63,40.7,60.424Z"/></svg>