<svg id="Solid" xmlns="http://www.w3.org/2000/svg" viewBox="0 0 64 64"><title>boy, people, avatar, man, male, teenager, handsome, user</title><path d="M29.622,24.8a.5.5,0,0,1-.263-.926,4.786,4.786,0,0,1,3.465-.516.5.5,0,0,1-.263.965,3.756,3.756,0,0,0-2.676.4A.5.5,0,0,1,29.622,24.8Z"/><path d="M21.362,24.8a.5.5,0,0,1-.285-.089,4.164,4.164,0,0,0-2.945-.385.5.5,0,1,1-.24-.971,5.143,5.143,0,0,1,3.755.534.5.5,0,0,1-.285.911Z"/><path d="M25.559,33.958a2.581,2.581,0,0,1-1.893-.66.5.5,0,0,1,.771-.637,1.672,1.672,0,0,0,1.121.3h0a2.355,2.355,0,0,0,1.753-.626.5.5,0,0,1,.774.635,3.267,3.267,0,0,1-2.525.991Z"/><path d="M25.242,30.614a1.355,1.355,0,0,1-.925-.373,1.006,1.006,0,0,1-.341-1.012.5.5,0,0,1,.971.219.4.4,0,0,0,.159.134.3.3,0,0,0,.246.011.5.5,0,0,1,.361.933A1.31,1.31,0,0,1,25.242,30.614Zm-.312-1.086h0Z"/><path d="M28.444,22.416a.5.5,0,0,1-.323-.879c.121-.1.489-.412,2.227-.6a.5.5,0,0,1,.109.994,4.154,4.154,0,0,0-1.693.375A.5.5,0,0,1,28.444,22.416Z"/><path d="M21.362,22.62a.5.5,0,0,1-.3-.105,6.779,6.779,0,0,0-2.186-.366.5.5,0,0,1,.022-1,6.741,6.741,0,0,1,2.775.575.5.5,0,0,1-.306.9Z"/><path d="M32.762,25.429v-.66a.919.919,0,0,0-.49-.82c-.03-.02-.07-.03-.1-.05a1.336,1.336,0,0,0-.4-.06.917.917,0,0,0-.87.93v.66a.93.93,0,1,0,1.86,0Z"/><path d="M20.562,23.939c-.03-.02-.07-.03-.1-.05a1.336,1.336,0,0,0-.4-.06.917.917,0,0,0-.87.93v.66a.93.93,0,0,0,1.86,0v-.66A.919.919,0,0,0,20.562,23.939Z"/><path d="M41.631,28.779a.5.5,0,0,0,.591-.387,1.189,1.189,0,0,1,1.24-.806.5.5,0,1,0,.119-.993,2.173,2.173,0,0,0-2.338,1.594A.5.5,0,0,0,41.631,28.779Z"/><path d="M49.131,54.326a10.413,10.413,0,0,0-.776-2.278,12.945,12.945,0,0,0-3-4.123,23.154,23.154,0,0,0-4.4-3.218c-.2-.129-1.471-.759-1.726-.872-1.4-.948-2.278-4.025-2.636-6.561a35.352,35.352,0,0,0,3.876-4.7,3.037,3.037,0,0,0,1.089.484c2.187.494,3.914-1.305,4.579-3.184a5.989,5.989,0,0,0,.188-.653,5.313,5.313,0,0,0-.7-4.319,5.265,5.265,0,0,0,1.509-.586c1.224-.689,1.867-2.749,1.723-5.51C48.51,11.924,43.462,1.76,30.823,1.979c-3.347.057-9.581.161-14.016,4.649-3.827,3.865-6.288,11.645-4.968,15.7a3.845,3.845,0,0,0,3.081,2.83,7.161,7.161,0,0,0,1.531.029c.061.337.223,2.542.314,3.4.466,4.43,1.51,7.408,3.286,9.373a9.94,9.94,0,0,0,7.428,2.988c.551,2.057.5,3.265.289,3.45a27.546,27.546,0,0,1-3.832,1.825c-1.473.706-3.916,2.2-3.922,2.206a19.038,19.038,0,0,0-4.207,3.727l-.01.012,0,0a14.11,14.11,0,0,0-1.789,2.749c-1.173,2.328-.208,3.669.811,4.385,2.606,1.8,7.172,2.719,13.575,2.719,9.079,0,15.473-2.422,17.821-3.853l.25-.152C47.69,57.283,49.545,56.163,49.131,54.326ZM28.4,45.178c.829-.717.484-2.8.1-4.295a11.356,11.356,0,0,0,2.763-.69.485.485,0,0,0,.244-.664.5.5,0,0,0-.664-.243,11.778,11.778,0,0,1-2.494.609c-.192.024-.67.063-.726.064a9.006,9.006,0,0,1-6.829-2.665c-1.627-1.8-2.591-4.6-3.034-8.807-.089-.841-.267-3.177-.342-3.573a3.045,3.045,0,0,0,.978-.754,5.019,5.019,0,0,0,.98-2.426A23.353,23.353,0,0,0,19.6,18.26a16.291,16.291,0,0,1,.268-3.409,1.994,1.994,0,0,1,1.2-1.588,2.507,2.507,0,0,1,2.182.578.987.987,0,0,0,1.319-.052,3.425,3.425,0,0,1,2.336-.735,1.492,1.492,0,0,1,1.136.552,8.523,8.523,0,0,1,.758,3.222c.362,2.835.812,6.364,3.944,6.843a6.648,6.648,0,0,0,.8.058,5.842,5.842,0,0,0,3.312-.985,3.452,3.452,0,0,0,2.892,3.141,5.248,5.248,0,0,0,.712.05,4.419,4.419,0,0,0,3.066-1.2,3.4,3.4,0,0,1,.511.173c1.41.574,1.668,2.524,1.315,4.081a4.93,4.93,0,0,1-.157.544c-.541,1.528-1.889,2.9-3.421,2.547a2.642,2.642,0,0,1-1.12-.615.5.5,0,0,0-.726.121A34.567,34.567,0,0,1,35.544,36.9c-.3.29-.609.56-.917.812a.5.5,0,0,0-.072.7.512.512,0,0,0,.387.185c.26.007.615-.379.766-.511.3,1.734,1.031,4.84,2.566,6.263-1.347,1.775-5.134,3.547-7.906,3.627a4.783,4.783,0,0,1-3.535-1,1.332,1.332,0,0,1-.373-.81A10.649,10.649,0,0,0,28.4,45.178Zm-2.87,1.407a2.355,2.355,0,0,0,.574,1.073,5.5,5.5,0,0,0,4.013,1.325c.092,0,.186,0,.28,0,3.1-.09,7.211-2.056,8.722-4.09.171.081.81.4.834.409A13.8,13.8,0,0,1,30.6,50.03c-2.294.091-4.259-.447-5.243-1.447a2.374,2.374,0,0,1-.7-1.6ZM19.958,49.7A6.515,6.515,0,0,0,22.88,53.6,11.307,11.307,0,0,0,28.8,55.121a13.373,13.373,0,0,0,3.977-.595,40.919,40.919,0,0,0,7.4-3.675c1.751-1.015,3.917-2.268,4.489-2.2a13.51,13.51,0,0,1,2.4,3.091c-2.377.114-5.267,1.519-8.081,2.892a35.724,35.724,0,0,1-4.874,2.112c-1.8.537-8.086,2.086-13.387-.529a11.043,11.043,0,0,1-3.907-3.688A17.826,17.826,0,0,1,19.958,49.7Z"/></svg>