<svg id="Solid" xmlns="http://www.w3.org/2000/svg" viewBox="0 0 64 64"><title>boy, people, avatar, man, male, teenager, handsome</title><path d="M32.352,24.559a.5.5,0,0,1-.458-.3c-.049-.112-.365-.313-1-.375a2.538,2.538,0,0,0-1.974.46.5.5,0,1,1-.817-.577,3.366,3.366,0,0,1,2.889-.879,2.072,2.072,0,0,1,1.817.964.5.5,0,0,1-.457.7Z"/><path d="M24.86,34.112h-.091a2.628,2.628,0,0,1-2.087-.852.5.5,0,1,1,.8-.6,1.774,1.774,0,0,0,1.31.452,2.507,2.507,0,0,0,1.953-.7.5.5,0,0,1,.774.635A3.5,3.5,0,0,1,24.86,34.112Z"/><path d="M24.472,30.614a1.351,1.351,0,0,1-.923-.372,1.007,1.007,0,0,1-.345-1.011.5.5,0,0,1,.973.216.39.39,0,0,0,.159.135.3.3,0,0,0,.245.011.5.5,0,0,1,.361.933A1.3,1.3,0,0,1,24.472,30.614Zm-.313-1.087h0Z"/><path d="M33.4,22.47a.5.5,0,0,1-.308-.107c-.45-.352-4.192-1.437-6.283-.47a.5.5,0,1,1-.419-.908c2.412-1.114,6.545-.013,7.319.591a.5.5,0,0,1-.309.894Z"/><path d="M21.132,24.6a.5.5,0,0,1-.458-.3c-.047-.106-.352-.3-.973-.363a2.552,2.552,0,0,0-2,.453.5.5,0,0,1-.814-.581,3.394,3.394,0,0,1,2.919-.867,2.042,2.042,0,0,1,1.786.956.5.5,0,0,1-.257.66A.51.51,0,0,1,21.132,24.6Z"/><path d="M48.74,54.3c-.994-4.438-5.362-8.118-9.211-10.142a6.26,6.26,0,0,0-2.591-4.891,5.464,5.464,0,0,0-.467-.294c-.121-.566-.2-1.1-.275-1.593.054-.049.215-.2.238-.223a13.818,13.818,0,0,0,3.138-4.512,2.943,2.943,0,0,0,.981.412c2.317.522,4.244-1.542,4.767-3.839a4.521,4.521,0,0,0-.746-3.9,3.514,3.514,0,0,0,2.049-.9C47.9,23.232,48.359,21,47.989,17.792a17.618,17.618,0,0,0-14.9-15.509,21.168,21.168,0,0,0-16.5,4.738,16.382,16.382,0,0,0-5.948,12.068,4.656,4.656,0,0,0,1.839,4.078,2.882,2.882,0,0,0,2.809.257A4.3,4.3,0,0,0,15.8,23.2a24.285,24.285,0,0,1,.35,2.673c.308,6.024,1.386,9.752,3.5,12.09a9.967,9.967,0,0,0,7.4,2.984.018.018,0,0,1,.009.034,10.82,10.82,0,0,0-3.976,4.907l-.224.441c-4.45,2.194-7.483,5-9.256,8.576-1.16,2.338-.193,3.673.823,4.382,2.184,1.527,5.8,2.422,10.733,2.66.877.04,1.825.06,2.833.06h.384c10.93-.081,16.81-3.467,17.448-3.854l.271-.165C47.312,57.25,49.152,56.133,48.74,54.3ZM36.832,40.475a5.378,5.378,0,0,1,1.72,3.978c0,.643-.9,6.193-1.3,6.738a8.339,8.339,0,0,1-2.776.347c-.69.025-1.387.053-2.028.123q.685-.708,1.316-1.461a19.352,19.352,0,0,0,1.241-1.672,11.519,11.519,0,0,0,2.215-6.847C37.219,41.623,36.94,40.844,36.832,40.475ZM20.393,37.294c-1.947-2.154-2.947-5.692-3.242-11.471a24.549,24.549,0,0,0-.46-3.258,3.094,3.094,0,0,0,.556-.73c.789.8,2.448,1.747,5.563.855,2.964-.847,4.176-5.412,4.061-8.233a1.6,1.6,0,0,1,.906-1.7,1.933,1.933,0,0,1,2.134.729,1.027,1.027,0,0,0,1.413.128,2,2,0,0,1,2.031-.229,1.47,1.47,0,0,1,.927,1.325,22.6,22.6,0,0,1-.109,2.338c-.268,3.485-.634,8.258,3.059,9.266a6.275,6.275,0,0,0,1.635.231,4.125,4.125,0,0,0,3.1-1.277.486.486,0,0,1,.474-.143h0l.218.055c1.643.493,2.03,2.275,1.687,3.819-.406,1.778-1.891,3.465-3.576,3.082a2.642,2.642,0,0,1-1.12-.615.5.5,0,0,0-.783.239,12.167,12.167,0,0,1-3.154,4.759,13.326,13.326,0,0,1-1.618,1.261.462.462,0,0,0-.1.664.44.44,0,0,0,.42.208,2.924,2.924,0,0,0,.879-.488c.062.4.135.818.238,1.272a14.958,14.958,0,0,0,.694,2.423,10.561,10.561,0,0,1-2.014,6.114l-.008.006a7.724,7.724,0,0,1-4.4,2.086c-1.3.031-2.87-.267-3.063-1.741a5.679,5.679,0,0,1,1.4-3.233c.966-.747.049-3.836-.049-4.15a17.306,17.306,0,0,0,2.787-.7.475.475,0,0,0,.223-.651.52.52,0,0,0-.657-.249,15.583,15.583,0,0,1-2.417.6c-.224.035-.823.074-.8.074A9.008,9.008,0,0,1,20.393,37.294Zm3.284,9.635.3-.59a10.121,10.121,0,0,1,3.389-4.367c.25.9.5,2.014.139,2.291a6.877,6.877,0,0,0-1.768,3.955,6.62,6.62,0,0,0-.033,1.3,9.357,9.357,0,0,0,.329,1.874,8.237,8.237,0,0,0-1.932-.17c-.631,0-1.585-.014-1.655-.264C22.362,50.65,22.316,49.635,23.677,46.929ZM25.5,54.091a.791.791,0,0,1-.33.51A.719.719,0,0,1,24.16,54.4a.8.8,0,0,1,.219-1.086.728.728,0,0,1,.548-.114A.757.757,0,0,1,25.5,54.091Zm2.438,6.918c-.777,0-1.507-.017-2.2-.041a50.013,50.013,0,0,1,1.246-6.235c.421-1.688.5-2.042.4-2.312A14.752,14.752,0,0,1,26.8,50.24a5.123,5.123,0,0,0,3.022.769,6.273,6.273,0,0,0,2.436-.622,20.946,20.946,0,0,0-2.092,2.192C29.214,54.3,28.591,56.636,27.941,61.009Z"/><path d="M40.631,28.779a.5.5,0,0,0,.591-.387,1.188,1.188,0,0,1,1.24-.806.5.5,0,1,0,.119-.993,2.169,2.169,0,0,0-2.338,1.594A.5.5,0,0,0,40.631,28.779Z"/><rect x="29.942" y="23.799" width="2.19" height="3.24" rx="0.93" ry="0.93"/><path d="M20.912,24.779v1.38a.928.928,0,0,1-.93.93h-.32a.937.937,0,0,1-.94-.93v-1.38a.93.93,0,0,1,.94-.93h.32A.922.922,0,0,1,20.912,24.779Z"/></svg>