<svg id="Solid" xmlns="http://www.w3.org/2000/svg" viewBox="0 0 64 64"><title>business, female, nurse, people, woman, doctor, avatar</title><path d="M32.1,25.429a.935.935,0,0,1-.93.93h-.28a.935.935,0,0,1-.93-.93V24.6a.928.928,0,0,1,.93-.93h.28a.928.928,0,0,1,.93.93Z"/><path d="M21.162,25.439a.935.935,0,0,1-.93.93h-.28a.935.935,0,0,1-.93-.93v-.83a.928.928,0,0,1,.93-.93h.28a.928.928,0,0,1,.93.93Z"/><rect x="29.963" y="23.669" width="2.14" height="2.69" rx="0.93" ry="0.93"/><rect x="19.018" y="23.679" width="2.14" height="2.69" rx="0.93" ry="0.93"/><path d="M29.192,24.183a.521.521,0,0,1-.489-.534,1.006,1.006,0,0,1,.684-.912,3.439,3.439,0,0,1,3.228.549.5.5,0,0,1-.685.727,2.351,2.351,0,0,0-1.617-.46,1.079,1.079,0,0,0-.63.162A.466.466,0,0,1,29.192,24.183Z"/><path d="M25.476,33.958a2.578,2.578,0,0,1-1.891-.66.5.5,0,0,1,.771-.637,1.666,1.666,0,0,0,1.12.3h0a2.35,2.35,0,0,0,1.755-.626.5.5,0,0,1,.774.635,3.268,3.268,0,0,1-2.529.991Z"/><path d="M25.16,30.614a1.355,1.355,0,0,1-.923-.372,1.007,1.007,0,0,1-.344-1.011.5.5,0,0,1,.972.216.4.4,0,0,0,.16.136.3.3,0,0,0,.244.011.5.5,0,1,1,.362.931A1.29,1.29,0,0,1,25.16,30.614Zm-.312-1.086Z"/><path d="M33.062,21.526a.5.5,0,0,1-.243-.063,5.494,5.494,0,0,0-4.93-.015.5.5,0,1,1-.537-.844,6.513,6.513,0,0,1,5.954-.014.5.5,0,0,1-.244.936Z"/><path d="M21.867,21.547a.493.493,0,0,1-.234-.059c-1.073-.568-3.166-.345-3.852-.271a.5.5,0,1,1-.107-.994,8.489,8.489,0,0,1,4.428.382.5.5,0,0,1-.235.942Z"/><path d="M18.077,24.192a.521.521,0,0,1-.489-.533,1,1,0,0,1,.683-.912,3.446,3.446,0,0,1,3.23.548.5.5,0,0,1-.686.728,2.43,2.43,0,0,0-1.617-.461,1.1,1.1,0,0,0-.631.163A.465.465,0,0,1,18.077,24.192Z"/><path d="M38.81,41.5a11.634,11.634,0,0,0-2.317-2.231C42.537,38.514,48,36.2,49.715,34.386c4.506-4.764.966-9.628-1.377-12.847a34.245,34.245,0,0,1-2.4-4.507A45.3,45.3,0,0,0,42.418,9.58C38.758,4,32.261,2.977,27.767,3.806c-6.417-.89-12.812,5.487-14.26,14.281-.775,4.757-1.4,6.314-2.612,8.2a9.222,9.222,0,0,0,.038,9.049c1.759,2.655,5.5,4.179,11.107,4.534a10.27,10.27,0,0,0,4.139.8c.444,0,.875-.023,1.288-.058.026.107.051.213.072.317-2.838,1.176-6.6,3.391-7.313,5.444-2.818,1.916-6.485,4.955-8.284,8.731-1.238,2.6-.209,4.083.874,4.874,2.182,1.579,5.667,2.6,10.343,2.916a59.719,59.719,0,0,0,6.684.115c8.708-.432,14.825-2.819,17.181-4.318l.3-.193c1.309-.826,3.285-2.076,2.849-4.1C49.161,49.657,43.511,44.044,38.81,41.5Zm-.743.671a.4.4,0,0,0,.032.04,9.254,9.254,0,0,1,2.026,3.662c.005.4-.152,1-1.569,1.6-1.308.554-3.31,1.182-3.33,1.188a.5.5,0,0,0,.114.976,4.049,4.049,0,0,1,1.478.375.42.42,0,0,1,.194.471c-.753,2.915-5.44,8.813-7.238,11.076l-.368.466c-.2.007-.4.006-.6.011,1.012-2.245,4.158-9.223,5.567-12.32,1.891-4.157,2.589-6.991,2.247-9.078A12.528,12.528,0,0,1,38.067,42.175ZM30.951,39.44a.5.5,0,0,0-.615-.349c-1.292.356-5.081,1.346-7.9-.132a7.651,7.651,0,0,1-2.2-1.646c-1.82-2.228-2.354-4.178-2.6-9.481a44.828,44.828,0,0,1,.285-7.113c.875-5.121,2.495-7.562,4.737-7.256a5.561,5.561,0,0,0,2.65.236c2.154-.791,5.1-.575,6.317,2.625.376.987.678,1.832.946,2.576a22.25,22.25,0,0,0,2.091,4.727c3.545,5.6,2.337,11.122-.284,13.883a.5.5,0,0,0,.686.716,13.621,13.621,0,0,0,.479,2.138c.243.9.367,2.423-.735,5.6a.4.4,0,0,0-.054.047A5.932,5.932,0,0,1,28.4,47.742c-.872-.3-1.393-.781-1.434-1.3.06-.143,1.767-4.2,1.668-4.906-.047-.33-.116-.8-.171-1.043a18.327,18.327,0,0,0,2.137-.44A.5.5,0,0,0,30.951,39.44Zm-3.359,2.551c-.172.773-1.52,4.007-1.6,4.193l0,.009A26.588,26.588,0,0,0,24.616,50c-.627,2.849-.938,5.876-.565,11.952-.187-.011-.378-.021-.561-.034-.876-1.668-2.766-7.951-2.616-11.086.016-.325,1.312-.893,2.617-1.145a.5.5,0,0,0,.089-.956,6.048,6.048,0,0,1-2.456-1.481C20.755,46.069,23.827,43.609,27.592,41.991ZM12.845,55.534c1.583-3.323,4.737-6.068,7.354-7.922a3.688,3.688,0,0,0,1.715,1.455c-.959.328-2,.876-2.038,1.714-.144,2.976,1.391,8.593,2.458,11.036-4.026-.394-7.032-1.275-8.93-2.648C12.674,58.637,11.822,57.681,12.845,55.534Zm33.948,2.119-.308.2c-2.184,1.389-7.755,3.628-15.751,4.114,2.159-2.718,6.772-8.583,7.321-11.559a1.055,1.055,0,0,0-.215-.855,1.773,1.773,0,0,0-.648-.484c.578-.2,1.215-.438,1.752-.665,1.482-.626,2.2-1.455,2.181-2.535a5.8,5.8,0,0,0-.9-2.32c4.03,2.755,8.177,7.33,8.975,11.06C49.487,55.95,47.993,56.894,46.793,57.653Z"/></svg>