<svg id="Solid" xmlns="http://www.w3.org/2000/svg" viewBox="0 0 64 64"><title>businessman, people, avatar, man, male, employee, tie</title><path d="M28.932,23.5a.519.519,0,0,1-.49-.532,1,1,0,0,1,.684-.912,3.438,3.438,0,0,1,3.229.548.5.5,0,0,1-.687.727,2.4,2.4,0,0,0-1.617-.461,1.084,1.084,0,0,0-.63.163A.464.464,0,0,1,28.932,23.5Z"/><path d="M24.849,33.288a2.578,2.578,0,0,1-1.892-.66.5.5,0,1,1,.77-.637,1.672,1.672,0,0,0,1.121.3h.005a2.356,2.356,0,0,0,1.753-.626.5.5,0,1,1,.772.635,3.267,3.267,0,0,1-2.524.991Z"/><path d="M24.532,29.944a1.354,1.354,0,0,1-.924-.373,1,1,0,0,1-.343-1.011.5.5,0,0,1,.627-.328.5.5,0,0,1,.346.545.384.384,0,0,0,.159.136.305.305,0,0,0,.244.011.5.5,0,1,1,.361.931A1.281,1.281,0,0,1,24.532,29.944Z"/><path d="M33.441,20.729a.494.494,0,0,1-.242-.063c-1.589-.883-5.357-.775-5.913-.184a.5.5,0,1,1-.728-.685c1.058-1.124,5.393-.97,7.127,0a.5.5,0,0,1-.244.936Z"/><path d="M21.321,20.729a.5.5,0,0,1-.266-.077,5.875,5.875,0,0,0-4.45-.2.5.5,0,0,1-.447-.895,6.808,6.808,0,0,1,5.431.245.5.5,0,0,1-.268.922Z"/><path d="M17.751,23.513a.521.521,0,0,1-.489-.534,1.006,1.006,0,0,1,.684-.912,3.441,3.441,0,0,1,3.229.549.5.5,0,1,1-.686.727,2.391,2.391,0,0,0-1.616-.46,1.091,1.091,0,0,0-.632.162A.465.465,0,0,1,17.751,23.513Z"/><path d="M48.711,53.934C47.779,49.6,42.66,44.279,38.39,41.941a18.4,18.4,0,0,0-1.711-3.216s-.348-1.463-.43-1.99a13.684,13.684,0,0,0,3.324-4.679,2.976,2.976,0,0,0,.978.411c2.317.527,4.243-1.53,4.769-3.828a5.632,5.632,0,0,0-.3-3.459c1.3-1.911,1.57-5.064,1.652-7.939C46.811,11.55,43.231,5.018,36.123,3.55a32.822,32.822,0,0,0-8.5-.564l-.1,0a13.074,13.074,0,0,1-5.315-.477,7.2,7.2,0,0,0-5.853.124,7.224,7.224,0,0,0-3.567,4.277,6.152,6.152,0,0,0,.31,4.467A6.466,6.466,0,0,0,16.632,14.8c-1,2.587-.8,5.595-.6,8.275.054.742.107,1.461.131,2.139.207,6,1.245,9.718,3.366,12.065a9.918,9.918,0,0,0,7.356,2.984c.061.231.281,1.122.322,1.281a7.537,7.537,0,0,0-1.317,2.311.418.418,0,0,0-.079.021c-1.545.737-9.395,4.719-12.237,10.7-1.143,2.411-.186,3.788.819,4.519a16.44,16.44,0,0,0,7.7,2.521,46.7,46.7,0,0,0,6.073.315c11.051-.03,16.994-3.6,17.64-4.012l.3-.193C47.3,56.962,49.115,55.809,48.711,53.934ZM37.458,42.286c-.62,1.611-2.222,5.146-3.464,6.355-.044.04-.149.076-.189-.031-.138-.362-1.116-2.948-1.543-3.738a5.4,5.4,0,0,0-.768-1.117,1.823,1.823,0,0,0-.333-.286,8.493,8.493,0,0,0,5.053-3.6A15.929,15.929,0,0,1,37.458,42.286ZM27.1,39.274a9.008,9.008,0,0,1-6.829-2.664c-1.951-2.159-2.91-5.684-3.109-11.429-.024-.69-.077-1.421-.133-2.177-.19-2.618-.391-5.562.588-7.966a19.913,19.913,0,0,0,9.508-.6,30.161,30.161,0,0,1,3.061-.653c.02,0,.129-.011.149-.014a5,5,0,0,1,4.138,1.095,6.826,6.826,0,0,1,1.783,5.345c-.128,4.389,2.426,5.8,2.427,5.8a.493.493,0,0,0,.675-.209,5.376,5.376,0,0,1,.825-.976,3.046,3.046,0,0,1,2.325-.639,2.211,2.211,0,0,1,1.518,1.181,4.522,4.522,0,0,1,.323,3.05c-.408,1.777-1.89,3.462-3.576,3.073a2.655,2.655,0,0,1-1.12-.616.5.5,0,0,0-.453-.084.5.5,0,0,0-.33.323,12.591,12.591,0,0,1-3.5,5.073,9.058,9.058,0,0,1-1.262.939.5.5,0,0,0-.158.689.482.482,0,0,0,.425.235,3.385,3.385,0,0,0,.992-.572c.073.355.314,1.365.314,1.365-.42.7-2.352,3.614-5.6,3.767-.46.008-1.56-.042-1.845-1.073-.052-.189-.287-1.144-.335-1.33a12.424,12.424,0,0,0,2.837-.7.5.5,0,0,0-.42-.909,11.565,11.565,0,0,1-2.407.6A6.888,6.888,0,0,1,27.1,39.274Zm.553,3.31a2.454,2.454,0,0,0,1.21.854,1.708,1.708,0,0,0-.322.271c-.29.33-.584.7-.9,1.14-.478.666-.941,1.387-1.356,2.035-.186.291-.39.609-.582.9C25.9,46.955,26.743,43.626,27.649,42.584ZM21.8,60.563a15.49,15.49,0,0,1-6.827-2.278c-.658-.478-1.424-1.339-.5-3.281,2.361-4.97,8.465-8.53,10.947-9.816-.362,1.039-1.148,3.474-.8,4.13a.749.749,0,0,0,.39.316c.6.158,2.513-2.832,2.724-3.154.079.423.166.823.228,1.084C25.486,50.778,23.572,54.819,21.8,60.563Zm23.764-3.681-.3.194c-2.189,1.384-8.1,3.707-16.546,3.842.446-4.015,2.183-12.381,2.327-13.074.13-.258.694-1.257.812-1.482.2.474.871,2.26,1.022,2.629a1.109,1.109,0,0,0,.8.667,1.04,1.04,0,0,0,.222.023,1.13,1.13,0,0,0,.788-.324c1.451-1.41,3-4.985,3.554-6.35,4,2.313,8.638,7.177,9.489,11.137C47.972,55.251,46.94,56.008,45.568,56.882Z"/><path d="M40.628,28.188a.541.541,0,0,0,.1.011.5.5,0,0,0,.489-.4,1.182,1.182,0,0,1,1.233-.8.505.505,0,0,0,.563-.427.5.5,0,0,0-.427-.563A2.178,2.178,0,0,0,40.243,27.6.5.5,0,0,0,40.628,28.188Z"/><path d="M29.992,24.749v-.83a.928.928,0,0,1,.93-.93h.28a.928.928,0,0,1,.93.93v.83a.935.935,0,0,1-.93.93h-.28A.935.935,0,0,1,29.992,24.749Z"/><path d="M20.952,23.929v.83a.935.935,0,0,1-.93.93h-.28a.935.935,0,0,1-.93-.93v-.83a.928.928,0,0,1,.93-.93h.28A.928.928,0,0,1,20.952,23.929Z"/></svg>