<svg id="Solid" xmlns="http://www.w3.org/2000/svg" viewBox="0 0 64 64"><title>girl, blonde, curl, people, woman, teenager, avatar</title><path d="M17,21.34a.5.5,0,0,1-.352-.851c.11-.1,1.13-.99,3.678-.183a.5.5,0,1,1-.3.953c-1.964-.621-2.689-.044-2.7-.037A.513.513,0,0,1,17,21.34Z"/><path d="M32.445,21.35a.5.5,0,0,1-.187-.037c-1.023-.414-3.8-.673-4.283-.312a.5.5,0,1,1-.6-.8c1.009-.748,4.367-.172,5.256.188a.5.5,0,0,1-.188.964Z"/><path d="M20.176,24.229a.5.5,0,0,1-.312-.109,1.72,1.72,0,0,0-2.145,0,.5.5,0,0,1-.627-.779,2.718,2.718,0,0,1,3.395,0,.5.5,0,0,1-.311.89Z"/><path d="M31.325,24.26a.5.5,0,0,1-.312-.11,1.738,1.738,0,0,0-2.157,0,.5.5,0,1,1-.623-.781,2.733,2.733,0,0,1,3.405,0,.5.5,0,0,1-.313.891Z"/><path d="M24.69,33.6c-.038,0-.076,0-.114,0a2.292,2.292,0,0,1-1.762-.816.5.5,0,1,1,.793-.609,1.329,1.329,0,0,0,1.006.426,2.1,2.1,0,0,0,1.584-.645.5.5,0,0,1,.746.666A3.037,3.037,0,0,1,24.69,33.6Z"/><path d="M23.635,30.532a1.192,1.192,0,0,1-.766-.289,1.162,1.162,0,0,1-.442-1.132.5.5,0,0,1,.975.216.381.381,0,0,0,.16.185.14.14,0,0,0,.137,0,.5.5,0,1,1,.422.906A1.15,1.15,0,0,1,23.635,30.532Z"/><path d="M55.017,42.487A5.126,5.126,0,0,0,51.4,38.212c-1.942-.6-2.895-1.64-3-3.272-.018-.312-.028-.628-.038-.943-.047-1.538-.1-3.13-1.172-4.115a3.965,3.965,0,0,0-2.69-.867,6.294,6.294,0,0,0,.035-2.317c2.815-6.254,1.532-14.934-2.9-19.425a15.431,15.431,0,0,0-11.795-4.3A13.294,13.294,0,0,0,18.851,5.187c-4.981,3.687-7.293,10.512-7.633,14.2-.424,4.709-.3,9.783,4.154,10.608a2.6,2.6,0,0,0,.763-.017c.095.992.252,2,.54,3.487.647,3.257,4.887,6.67,8.56,6.891.245.015.493.023.742.023a13.409,13.409,0,0,0,1.525-.1c.647,1.71.641,3.883-.071,4.411a9.644,9.644,0,0,1-1.369.69l-.244.108c-2.964,1.317-8.481,3.766-11,8.846-1.073,2.163-.178,3.4.763,4.063,1.808,1.255,4.655,2.027,8.453,2.342a50.264,50.264,0,0,0,5.527.107A48.727,48.727,0,0,0,41.2,58.642a19.645,19.645,0,0,0,3.419-1.434c1.149-.631,2.813-1.71,2.429-3.421-.039-.169-.1-.318-.142-.479a4.623,4.623,0,0,0,2.669-1.332,2.544,2.544,0,0,0,.683-2.007c-.081-.789,1.042-1.437,1.944-1.957.247-.143.479-.277.675-.406A5.22,5.22,0,0,0,55.017,42.487Zm-39.5-13.476c-2.9-.632-3.86-3.394-3.307-9.532.31-3.375,2.549-10.021,7.232-13.488A12.357,12.357,0,0,1,29.719,3.963a.522.522,0,0,0,.153.008A14.609,14.609,0,0,1,40.93,7.976c3.925,3.98,5.215,11.485,3.119,17.281a3.249,3.249,0,0,0-2.185-1.728,3.992,3.992,0,0,0-3.226.868,3.653,3.653,0,0,0-.727.855,2.239,2.239,0,0,1-.431-.019c-2.267-.228-3.107-3.275-4.073-6.742-.758-2.717-1.541-5.526-3.152-7.427a2.4,2.4,0,0,0-2.42-.777A16.072,16.072,0,0,0,16.068,21.7a14.453,14.453,0,0,0,.078,5.979c.083.463.311,1.076.165,1.257S15.792,29.026,15.521,29.011Zm12.512,16.48c1.22-.9,1.1-3.521.48-5.355l.028,0a16.836,16.836,0,0,0,3.01-.835.5.5,0,0,0-.352-.936,15.824,15.824,0,0,1-2.838.787,12.231,12.231,0,0,1-3.065.212c-3.224-.194-7.08-3.267-7.64-6.086a32.4,32.4,0,0,1-.551-3.683c.322-.4.2-1.138.026-2.09a13.572,13.572,0,0,1-.088-5.58A15.054,15.054,0,0,1,28.084,11.256a1.418,1.418,0,0,1,1.409.457c1.469,1.731,2.222,4.433,2.95,7.047,1.039,3.726,2.023,7.255,5.033,7.48.1.007.314.01.486.012a.737.737,0,0,0,.663-.274,3.576,3.576,0,0,1,.655-.815,2.987,2.987,0,0,1,2.364-.659c1.753.4,2.271,2.561,1.869,4.4a4.622,4.622,0,0,1-1.855,2.863,2.274,2.274,0,0,1-1.78.336,2.867,2.867,0,0,1-1.147-.643.506.506,0,0,0-.5-.067.5.5,0,0,0-.3.4,8.019,8.019,0,0,1-3.5,5.107.5.5,0,0,0,.283.912.464.464,0,0,0,.106-.033c-.027,1.5.122,4.312,1.431,6.121a7.319,7.319,0,0,1-4.593,2.844c-.287.072-.7,1.011-1.155,2.361a7.25,7.25,0,0,1-3.173-.028c.132-.35.252-.648.349-.888.339-.837.525-1.3.068-1.595a6.067,6.067,0,0,1-.723-.549A5.8,5.8,0,0,0,28.033,45.491ZM24.913,59.8A47.849,47.849,0,0,1,26.994,50a4.885,4.885,0,0,0,1.725.269,11.45,11.45,0,0,0,1.438-.1c-1.05,3.405-2.2,8.311-2.531,9.733A23.313,23.313,0,0,1,24.913,59.8ZM52.321,46.771c-.18.119-.395.243-.624.374-1.091.63-2.586,1.493-2.438,2.925a1.56,1.56,0,0,1-.431,1.237,3.671,3.671,0,0,1-2.246,1.033c-1.286-3.325-4.538-6.082-8.655-8.183a2.293,2.293,0,0,1-.7-.611c-1.577-1.858-1.439-5.583-1.381-6.475a9.142,9.142,0,0,0,2.9-4.372,2.991,2.991,0,0,0,.91.377,3.288,3.288,0,0,0,2.538-.467,5.405,5.405,0,0,0,2.019-2.6,3.267,3.267,0,0,1,2.307.608c.765.7.8,2.017.848,3.409.01.324.02.65.039.973.132,2.076,1.343,3.438,3.7,4.166a4.146,4.146,0,0,1,2.92,3.462A4.215,4.215,0,0,1,52.321,46.771Z"/><path d="M39.645,29.044a.553.553,0,0,0,.106.011.5.5,0,0,0,.488-.4,1.228,1.228,0,0,1,1.272-.849.5.5,0,0,0,.127-.992,2.21,2.21,0,0,0-2.377,1.632A.5.5,0,0,0,39.645,29.044Z"/><rect x="29.402" y="23.759" width="1.97" height="2.78" rx="0.78" ry="0.78"/><path d="M20.442,24.569v1.22a.773.773,0,0,1-.78.77h-.42a.773.773,0,0,1-.78-.77v-1.22a.781.781,0,0,1,.78-.78h.42A.781.781,0,0,1,20.442,24.569Z"/></svg>