<svg id="Solid" xmlns="http://www.w3.org/2000/svg" viewBox="0 0 64 64"><title>girl, blonde, pony tail people, woman, teenager, avatar</title><path d="M17.645,24.265a.5.5,0,0,1-.312-.11,1.721,1.721,0,0,0-2.144,0,.5.5,0,1,1-.627-.779,2.719,2.719,0,0,1,3.4,0,.5.5,0,0,1-.313.891Z"/><path d="M28.336,24.294a.494.494,0,0,1-.312-.109,1.734,1.734,0,0,0-2.156,0,.5.5,0,0,1-.625-.781,2.735,2.735,0,0,1,3.4,0,.5.5,0,0,1-.311.89Z"/><path d="M21.545,33.638c-.038,0-.077,0-.115,0a2.293,2.293,0,0,1-1.761-.816.5.5,0,0,1,.793-.611,1.323,1.323,0,0,0,1,.428,2.055,2.055,0,0,0,1.585-.646.5.5,0,0,1,.747.667A3.042,3.042,0,0,1,21.545,33.638Z"/><path d="M20.49,30.568a1.188,1.188,0,0,1-.766-.289,1.162,1.162,0,0,1-.442-1.132.5.5,0,0,1,.975.215.375.375,0,0,0,.16.185.135.135,0,0,0,.137,0,.5.5,0,0,1,.422.907A1.143,1.143,0,0,1,20.49,30.568Z"/><path d="M36.476,29.084a.533.533,0,0,1-.1-.01.5.5,0,0,1-.385-.594,2.215,2.215,0,0,1,2.369-1.632.5.5,0,0,1-.119.993,1.237,1.237,0,0,0-1.271.847A.5.5,0,0,1,36.476,29.084Z"/><rect x="26.415" y="23.795" width="1.97" height="2.03" rx="0.78" ry="0.78"/><rect x="15.935" y="23.815" width="1.98" height="2.03" rx="0.78" ry="0.78"/><path d="M52.2,36.995c-3.7-2.781-5.043-6.147-4.1-10.29A14.09,14.09,0,0,0,46,15.961a7.081,7.081,0,0,0-5.021-3.01A16.375,16.375,0,0,0,24.224,3.086C14.164,3.908,9.4,12.612,8.769,17.906c-.257,2.145.053,3.78.894,4.727a2.859,2.859,0,0,0,2.242.942,5.1,5.1,0,0,0,.848-.072c.134,1.027.2,2.2.266,3.438a27.358,27.358,0,0,0,.911,6.822c.988,2.948,4.756,6.41,8.32,6.63.25.018.5.026.764.026a13.372,13.372,0,0,0,2.133-.193c.7,1.76.982,3.992.3,4.5a13.267,13.267,0,0,1-1.628.8c-.827.38-2.852,1.341-3.278,1.585-3.769,2.01-6.291,4.385-7.713,7.26-1.073,2.162-.178,3.4.763,4.062,2.384,1.659,6.572,2.5,12.445,2.5A39.133,39.133,0,0,0,39.67,58.666a20.785,20.785,0,0,0,2.955-1.423c1.134-.656,2.811-1.709,2.428-3.416a9.611,9.611,0,0,0-.385-1.271c.256.019.509.03.758.03a10.139,10.139,0,0,0,9.191-6.192A7.591,7.591,0,0,0,52.2,36.995ZM23.972,46.556l.255-.115a11.587,11.587,0,0,0,1.816-.915c1.274-.944.794-3.658.1-5.492A21.411,21.411,0,0,0,28.4,39.3a.5.5,0,1,0-.35-.937,16.442,16.442,0,0,1-2.678.824,12,12,0,0,1-3.056.212c-2.858-.177-6.473-3.069-7.436-5.95a26.639,26.639,0,0,1-.862-6.557c-.07-1.327-.141-2.58-.3-3.687a3.509,3.509,0,0,0,1.855-1.818,3.242,3.242,0,0,0,3.055,1.43,5.054,5.054,0,0,0,3.722-2.046,3.07,3.07,0,0,0,.63,1.173,2.886,2.886,0,0,0,2.322.954,5.39,5.39,0,0,0,1.816-.344,5.584,5.584,0,0,0,2.805-2.361,19.748,19.748,0,0,0,3.051,4.7,6.085,6.085,0,0,0,1.7,1.338.5.5,0,0,0,.666-.215,2.692,2.692,0,0,1,.66-.82,2.979,2.979,0,0,1,2.36-.654,2.388,2.388,0,0,1,1.676,1.491h0a4.337,4.337,0,0,1,.3,1.293,5.388,5.388,0,0,1-.11,1.609A4.63,4.63,0,0,1,38.38,31.8a2.276,2.276,0,0,1-1.78.336,2.848,2.848,0,0,1-1.146-.646.5.5,0,0,0-.807.353,7.642,7.642,0,0,1-2.034,4.3,3.764,3.764,0,0,1-.5.393l-.231.167a.5.5,0,1,0,.6.8l.1-.075c.262,1.935,1.021,6.225,2.711,7.5-1.217,2.741-6.859,6.362-9.93,6.255a1.3,1.3,0,0,1-1.061-.624A5.36,5.36,0,0,1,23.972,46.556Z"/></svg>