<svg id="Solid" xmlns="http://www.w3.org/2000/svg" viewBox="0 0 64 64"><title>girl, bobtay, people, woman, teenager, avatar, user</title><path d="M31.862,21.13a.513.513,0,0,1-.187-.036c-.926-.375-2.883-.488-3.415-.093a.5.5,0,0,1-.6-.8c.975-.724,3.395-.433,4.386-.032a.5.5,0,0,1-.188.964Z"/><path d="M20.922,24.229a.5.5,0,0,1-.309-.106,1.843,1.843,0,0,0-.64-.34.5.5,0,0,1-.355-.612.494.494,0,0,1,.612-.355,2.818,2.818,0,0,1,1,.52.5.5,0,0,1-.308.893Z"/><path d="M28.832,24.26a.5.5,0,0,1-.313-.891,2.736,2.736,0,0,1,3.405,0,.5.5,0,1,1-.623.781,1.735,1.735,0,0,0-2.157,0A.5.5,0,0,1,28.832,24.26Z"/><path d="M25.132,33.6c-.038,0-.076,0-.114,0a2.293,2.293,0,0,1-1.762-.816.5.5,0,1,1,.793-.609,1.325,1.325,0,0,0,1,.426,2.061,2.061,0,0,0,1.586-.645.5.5,0,0,1,.746.666A3.042,3.042,0,0,1,25.132,33.6Z"/><path d="M24.077,30.532a1.19,1.19,0,0,1-.766-.289,1.162,1.162,0,0,1-.442-1.132.5.5,0,0,1,.976.216.367.367,0,0,0,.159.185.145.145,0,0,0,.138,0,.5.5,0,1,1,.421.906A1.153,1.153,0,0,1,24.077,30.532Z"/><path d="M48.33,53.792a16.359,16.359,0,0,0-7.421-9.886V43.9a5.582,5.582,0,0,0-3.958-5.076,12.728,12.728,0,0,1-.2-1.26c2.083-1.241,5.918-5.773,7.707-9.329,1.621-3.223,4.2-7.718,1.592-14.6A16.1,16.1,0,0,0,32.5,3.111c-6.018-.486-10.925,1.077-14.591,4.641a20.4,20.4,0,0,0-5.828,14.5c.167,3.254,1.492,3.738,2.268,3.75a3.822,3.822,0,0,0,1.886-.754,54.646,54.646,0,0,0,1.075,8.241c.914,3.068,4.509,6.644,8.209,6.866.244.015.489.022.737.022a13.69,13.69,0,0,0,2.165-.192c.026.068.052.142.078.217a11.014,11.014,0,0,0-5.428,5.948c-3.118,1.829-5.7,5.422-6.97,7.984-1.073,2.163-.177,3.4.764,4.063,1.89,1.31,4.914,2.114,8.99,2.388,1.036.1,2.754.1,4.217.092a43.127,43.127,0,0,0,8.394-1.133A30.382,30.382,0,0,0,45.9,57.21C47.062,56.6,48.714,55.5,48.33,53.792ZM25.582,39.36c-3.194-.192-6.494-3.407-7.311-6.153a54.385,54.385,0,0,1-1.039-8.072c1.047-.173,6.374-3.7,9.166-6.748a23.589,23.589,0,0,0,2.488-3.533.492.492,0,0,1,.486-.233.484.484,0,0,1,.405.335,19.907,19.907,0,0,0,8.157,10.227.6.6,0,0,0,.691-.2,4.088,4.088,0,0,1,.655-.815,2.986,2.986,0,0,1,2.364-.659c1.753.4,2.271,2.561,1.869,4.4a4.622,4.622,0,0,1-1.855,2.863,2.278,2.278,0,0,1-1.78.336,2.867,2.867,0,0,1-1.147-.643.494.494,0,0,0-.506-.064.5.5,0,0,0-.3.415,7.659,7.659,0,0,1-2.639,4.841.5.5,0,0,0-.085.7.466.466,0,0,0,.485.16,13.011,13.011,0,0,0,.221,2.244,7.952,7.952,0,0,0,.258.9,7.558,7.558,0,0,1,.5,3.516c-.232,1.846-2.536,4.351-4.387,6.365l-.091.1a5.106,5.106,0,0,1-1.951.288,4.267,4.267,0,0,1-2.156-.552,6,6,0,0,1,1.427-4.05c1.2-1.448-.054-5.226-.1-5.363.481-.165,2.282-.881,2.584-.994a.5.5,0,0,0-.351-.936c-.307.116-2.522,1.016-2.99,1.123A10.655,10.655,0,0,1,25.582,39.36Zm-.159,20.387c-3.632-.291-6.324-1.016-7.984-2.167-.582-.408-1.261-1.144-.439-2.8a20.093,20.093,0,0,1,5.53-6.86,6.559,6.559,0,0,0-.3,2.941c.074.265.212.532.465.589a4.772,4.772,0,0,0,2.215-.307c.783-.277,1.73-.61,2.107-.356A53.3,53.3,0,0,0,25.423,59.747Zm19.956-3.392a29.206,29.206,0,0,1-7.054,2.39,43.762,43.762,0,0,1-7.743,1.112,42.713,42.713,0,0,1,2.26-9.452,5.551,5.551,0,0,1,2.056.57c1.3.515,2.538,1,3.314.452a10.715,10.715,0,0,0,2.7-6.337,15.543,15.543,0,0,1,6.437,8.919C47.563,54.941,46.631,55.707,45.379,56.355Z"/><path d="M39.645,28.044a.553.553,0,0,0,.106.011.5.5,0,0,0,.488-.4,1.226,1.226,0,0,1,1.272-.849.5.5,0,0,0,.127-.992,2.211,2.211,0,0,0-2.377,1.632A.5.5,0,0,0,39.645,28.044Z"/><rect x="29.692" y="23.759" width="1.97" height="2.78" rx="0.78" ry="0.78"/><path d="M21.192,24.569v1.22a.773.773,0,0,1-.78.77h-.42a.773.773,0,0,1-.78-.77v-1.22a.781.781,0,0,1,.78-.78h.42A.781.781,0,0,1,21.192,24.569Z"/></svg>