<svg id="Solid" xmlns="http://www.w3.org/2000/svg" viewBox="0 0 64 64"><title>girl, ginger, curly , people, woman, teenager, avatar</title><path d="M21.192,24.569v1.22a.773.773,0,0,1-.78.77h-.42a.773.773,0,0,1-.78-.77v-1.22a.781.781,0,0,1,.78-.78h.42A.781.781,0,0,1,21.192,24.569Z"/><path d="M17.285,21.348a.5.5,0,0,1-.253-.931,5.376,5.376,0,0,1,4.161-.124.5.5,0,1,1-.3.953,4.464,4.464,0,0,0-3.363.038A.5.5,0,0,1,17.285,21.348Z"/><path d="M31.862,21.13a.518.518,0,0,1-.188-.036c-.924-.375-2.882-.488-3.414-.093a.5.5,0,0,1-.6-.8c.978-.724,3.394-.433,4.385-.032a.5.5,0,0,1-.187.964Z"/><path d="M20.921,24.229a.5.5,0,0,1-.311-.109,1.714,1.714,0,0,0-2.147,0,.5.5,0,0,1-.625-.781,2.721,2.721,0,0,1,3.4,0,.5.5,0,0,1-.313.89Z"/><path d="M31.611,24.26a.5.5,0,0,1-.311-.11,1.731,1.731,0,0,0-2.158,0,.5.5,0,0,1-.622-.783,2.731,2.731,0,0,1,3.4,0,.5.5,0,0,1-.313.891Z"/><path d="M24.821,33.6c-.038,0-.076,0-.114,0a2.288,2.288,0,0,1-1.761-.816.5.5,0,1,1,.792-.609,1.329,1.329,0,0,0,1.006.426,2.075,2.075,0,0,0,1.586-.645.5.5,0,1,1,.745.666A3.041,3.041,0,0,1,24.821,33.6Z"/><path d="M23.767,30.532A1.191,1.191,0,0,1,23,30.243a1.164,1.164,0,0,1-.441-1.132.5.5,0,0,1,.975.216.373.373,0,0,0,.159.185.144.144,0,0,0,.139,0,.5.5,0,1,1,.42.906A1.149,1.149,0,0,1,23.767,30.532Z"/><rect x="29.692" y="23.759" width="1.97" height="2.78" rx="0.78" ry="0.78"/><path d="M60.677,42.079a7,7,0,0,0-2.784-5.04,29.952,29.952,0,0,1-2.422-2.476c-.669-.779-.8-2.248-.964-4.106a24.32,24.32,0,0,0-1.2-6.4,10.684,10.684,0,0,0-3.262-4.625,19.332,19.332,0,0,1-4.416-5.758c-3.589-6.8-9.851-10.43-17.15-9.946-5.008.281-8.624,1.937-11.057,5.063a12.287,12.287,0,0,0-2.693,5.955,12.465,12.465,0,0,1-.331,1.448,13.981,13.981,0,0,1-2.606,4.24c-1.945,2.363-4.148,5.04-3.279,10.65l.065.423c1.017,6.55,1.017,6.55-2.312,9.338C3.8,42.91,2.686,45.655,3.283,48.188a5.772,5.772,0,0,0,4.433,4.278,7.662,7.662,0,0,1,2.762,1.309,7,7,0,0,0,5.307,1.353A2.712,2.712,0,0,0,16.867,58.4c2.386,1.66,6.573,2.5,12.445,2.5,6.852,0,14.652-2.507,16.332-3.534l.3-.181c1.091-.658,2.7-1.648,2.41-3.221a13.636,13.636,0,0,0,1.7-1.086,17.811,17.811,0,0,1,5.584-2.8C59.329,49.027,61.06,44.71,60.677,42.079ZM45.424,56.328l-.3.185C43.428,57.547,35.7,59.9,29.312,59.9c-5.664,0-9.659-.781-11.873-2.319-.553-.388-1.178-1.082-.534-2.57,3.716-.557,4.89-2.639,5.922-4.486.275-.491,1.228-1.929,1.424-2.188a6.745,6.745,0,0,0,2.689.779l.183,3.822a.5.5,0,0,0,.4.468.507.507,0,0,0,.094.009.5.5,0,0,0,.456-.294l1.661-3.672a22.711,22.711,0,0,0,4.877-1.261c.017.05.026.1.044.147A9.828,9.828,0,0,0,36.1,50.945c2.093,2.846,4.723,4.314,7.559,4.314a9.434,9.434,0,0,0,3.722-.827C47.287,55.136,46.441,55.714,45.424,56.328ZM28.2,40.237c.208-.03,1.558-.292,2.033-.421.529-.144,1.064-.318,1.6-.519a.5.5,0,0,0-.352-.936,15.946,15.946,0,0,1-2.838.787c-.212.041-.949.153-1.689.2a12.025,12.025,0,0,1-1.377.008c-3.224-.194-7.079-3.267-7.639-6.087a39.875,39.875,0,0,1-.532-5.378c-.079-1.457-.162-2.963-.361-4.34a22.93,22.93,0,0,1,1.206-6.919c.949-2.875,2.2-4.707,3.529-5.157a2.743,2.743,0,0,1,2.5.534.505.505,0,0,0,.478.046c1.8-.767,3.056-.964,3.859-.612.959.425,1.4,1.7,1.96,3.319a16.33,16.33,0,0,0,3.05,5.818c1.7,1.932,1.129,4.766-.343,8.716-1.349,3.615-.068,5.8.962,7.548a7.658,7.658,0,0,1,.836,1.7,7.448,7.448,0,0,1-.264,4.959,6.968,6.968,0,0,0-.451,3.7,20.483,20.483,0,0,1-5.006,1.278.5.5,0,0,0-.415.292l-.924,2.042-.1-2.193a.5.5,0,0,0-.484-.477,6.288,6.288,0,0,1-2.533-.591A3.535,3.535,0,0,1,25.8,46.8C26.17,46.6,29.3,44.813,28.2,40.237Z"/></svg>