<svg id="Solid" xmlns="http://www.w3.org/2000/svg" viewBox="0 0 64 64"><title>girl, ginger, glasses, people, woman, teenager, avatar</title><path d="M20.921,24.229a.494.494,0,0,1-.311-.109,1.715,1.715,0,0,0-2.147,0,.5.5,0,0,1-.7-.082.5.5,0,0,1,.076-.7,2.719,2.719,0,0,1,3.4,0,.5.5,0,0,1-.313.89Z"/><path d="M31.611,24.259a.494.494,0,0,1-.311-.109,1.727,1.727,0,0,0-2.158,0,.5.5,0,0,1-.622-.783,2.732,2.732,0,0,1,3.4,0,.5.5,0,0,1-.313.89Z"/><path d="M26.33,31.956a2.085,2.085,0,0,1-1.585.645,1.327,1.327,0,0,1-1.007-.427.5.5,0,1,0-.792.611,2.291,2.291,0,0,0,1.761.816l.115,0a3.04,3.04,0,0,0,2.253-.98.5.5,0,0,0-.745-.667Z"/><path d="M23.766,30.533a1.151,1.151,0,0,0,.486-.11.5.5,0,1,0-.42-.907.144.144,0,0,1-.139,0,.373.373,0,0,1-.159-.185.5.5,0,0,0-.975-.215A1.164,1.164,0,0,0,23,30.244,1.2,1.2,0,0,0,23.766,30.533Z"/><path d="M39.648,28.038a.466.466,0,0,0,.1.011.5.5,0,0,0,.489-.4,1.239,1.239,0,0,1,1.272-.847.5.5,0,0,0,.118-.993,2.219,2.219,0,0,0-2.368,1.632A.5.5,0,0,0,39.648,28.038Z"/><rect x="29.692" y="23.759" width="1.97" height="2.78" rx="0.78" ry="0.78"/><path d="M21.192,24.569v1.22a.773.773,0,0,1-.78.77h-.42a.773.773,0,0,1-.78-.77v-1.22a.781.781,0,0,1,.78-.78h.42A.781.781,0,0,1,21.192,24.569Z"/><path d="M47.912,15.015A25.7,25.7,0,0,1,45.761,12.4C42.29,7.048,37.671,2.212,27.5,3.051c-10.06.822-14.819,9.526-15.456,14.82a6.648,6.648,0,0,0,.591,4.25c-.435.8-.987,1.641-1.527,2.459-1.223,1.851-2.488,3.765-2.645,5.575a6.8,6.8,0,0,0,3.012,6.521c3.306,2.188,6.192,2.716,11.808,3.13a7.546,7.546,0,0,0,2.243.552,13.525,13.525,0,0,0,2.9-.156,10.224,10.224,0,0,1,.637,2.457c.122,1.025,0,1.782-.34,2.028-.259.192-4.132,1.916-5.6,2.759A16.713,16.713,0,0,0,16.1,54.337c-1.073,2.163-.179,3.4.762,4.063,2.386,1.659,6.573,2.5,12.446,2.5a46.277,46.277,0,0,0,14.594-2.752,14.593,14.593,0,0,0,2-.94c1.138-.648,2.811-1.709,2.428-3.416a12.875,12.875,0,0,0-5.358-7.454c-.475-.324-1.028-.691-1.473-.979a18.131,18.131,0,0,0-2.286-1.2c-.873-.506-1.565-1.855-2-3.9-.053-.268-.092-.535-.136-.8,10.817-.728,15.831-5.529,16.9-9.838C55.479,23.549,50.925,18.413,47.912,15.015ZM16.079,23.8c.11,1.2.278,4.172.406,5.839a3.646,3.646,0,0,1-.406-5.839Zm6.078,2.76a3.68,3.68,0,0,1-3.676,3.676,3.64,3.64,0,0,1-.956-.142c-.141-1.583-.373-5.921-.511-6.9a3.667,3.667,0,0,1,5.143,3.366ZM18.7,21.9a5.024,5.024,0,0,0,.525-.775,3.255,3.255,0,0,0,1.01,1.1A4.6,4.6,0,0,0,18.7,21.9Zm14.888,4.655a3.676,3.676,0,1,1-3.676-3.676A3.68,3.68,0,0,1,33.588,26.559Zm-2.265-4.44a4.744,4.744,0,0,0,1.91-1.966c.2.387.455.855.754,1.35a9.407,9.407,0,0,0,3.1,3.385l-2.569.974A4.675,4.675,0,0,0,31.323,22.119Zm-6.036,3.94h-2.18a4.7,4.7,0,0,0-2.19-3.481,3.721,3.721,0,0,0,1.491.2,4.294,4.294,0,0,0,3.463-2.1,3.434,3.434,0,0,0,1.908,1.743A4.68,4.68,0,0,0,25.287,26.059Zm3.335,13.1a9.7,9.7,0,0,1-3.026.206,6.259,6.259,0,0,1-2.061-.522,10.118,10.118,0,0,1-5.379-5.428,12.738,12.738,0,0,1-.5-2.259,4.6,4.6,0,0,0,5.456-4.092h2.18a4.651,4.651,0,0,0,9.265-.14l3.807-1.444a.493.493,0,0,0,.306-.552,3.128,3.128,0,0,1,.62-.762,2.99,2.99,0,0,1,2.358-.654c1.756.395,2.275,2.559,1.871,4.395a4.623,4.623,0,0,1-1.858,2.865,2.281,2.281,0,0,1-1.78.335,2.826,2.826,0,0,1-1.145-.646.5.5,0,0,0-.807.351,7.717,7.717,0,0,1-2.046,4.3c-.127.127-.611.553-.611.553a.5.5,0,0,0,.5.848c.046,1.005.345,3.278.413,3.638a9.6,9.6,0,0,1-6.19,1.967,11.52,11.52,0,0,0-.578-2.142,24.184,24.184,0,0,0,2.292-.932.5.5,0,0,0-.4-.917A18.862,18.862,0,0,1,28.622,39.154Zm12.612,7.215c.282.173.584.373.92.611a.969.969,0,0,1-.1.736c-.371.612-1.442,1.125-3.035,1.465a3.757,3.757,0,0,1,.4-.991A4.037,4.037,0,0,1,41.234,46.369Zm-2.475-1.323c.53.236,1.005.479,1.458.728a5.886,5.886,0,0,0-1.675,1.933,4.4,4.4,0,0,0-.556,1.657c-4.661.705-11.071,0-13.658-1.437,1.157-.621,4.644-2.179,4.989-2.434a2.7,2.7,0,0,0,.77-2.379c.049,0,.1.005.146.005a10.563,10.563,0,0,0,6.187-1.881C36.933,43.163,37.707,44.439,38.759,45.046Z"/></svg>