<svg id="Solid" xmlns="http://www.w3.org/2000/svg" viewBox="0 0 64 64"><title>girl, long hair, female, people, woman, user, avatar</title><rect x="29.692" y="23.759" width="1.97" height="2.78" rx="0.78" ry="0.78"/><path d="M21.192,24.569v1.22a.773.773,0,0,1-.78.77h-.42a.773.773,0,0,1-.78-.77v-1.22a.781.781,0,0,1,.78-.78h.42A.781.781,0,0,1,21.192,24.569Z"/><path d="M16.692,21.749a.5.5,0,0,1-.294-.9,5.008,5.008,0,0,1,5.126.031.5.5,0,0,1-.665.747,4.1,4.1,0,0,0-3.873.031A.5.5,0,0,1,16.692,21.749Z"/><path d="M20.921,24.229a.494.494,0,0,1-.311-.109,1.716,1.716,0,0,0-2.147,0,.5.5,0,0,1-.7-.082.5.5,0,0,1,.076-.7,2.72,2.72,0,0,1,3.4,0,.5.5,0,0,1-.313.89Z"/><path d="M31.611,24.259a.494.494,0,0,1-.311-.109,1.727,1.727,0,0,0-2.158,0,.5.5,0,0,1-.622-.783,2.732,2.732,0,0,1,3.4,0,.5.5,0,0,1-.313.89Z"/><path d="M24.822,33.6l-.115,0a2.291,2.291,0,0,1-1.761-.816.5.5,0,1,1,.792-.611,1.327,1.327,0,0,0,1.007.427,2.09,2.09,0,0,0,1.585-.645.5.5,0,0,1,.745.667A3.04,3.04,0,0,1,24.822,33.6Z"/><path d="M23.766,30.533A1.2,1.2,0,0,1,23,30.244a1.164,1.164,0,0,1-.441-1.132.5.5,0,0,1,.975.215.373.373,0,0,0,.159.185.144.144,0,0,0,.139,0,.5.5,0,1,1,.42.907A1.151,1.151,0,0,1,23.766,30.533Z"/><path d="M54.03,39.368c-2-2.955-5.015-7.419-6.955-18.971C45.615,11.684,42.8,7.022,37.669,4.81a17.64,17.64,0,0,0-16.7.934c-6.3,3.9-7.11,11.32-6.767,17.345a56.413,56.413,0,0,1,.054,6.486,40.659,40.659,0,0,1-3.969,13.063c-1.2,2.593-2.151,4.641-1.779,7.038a5.243,5.243,0,0,0,2.174,3.684,6.259,6.259,0,0,0,3.571.964,11.959,11.959,0,0,0,1.961-.2c-.035.063-.071.132-.11.21-1.073,2.163-.179,3.4.763,4.063a13.562,13.562,0,0,0,2.592,1.262A32.014,32.014,0,0,0,29.312,60.9a45.464,45.464,0,0,0,11.272-1.687,29.015,29.015,0,0,0,5.061-1.847c1.091-.573,3.068-1.867,2.685-3.575a9.433,9.433,0,0,0-.325-1.109,7.192,7.192,0,0,0,3.851-.84,7.791,7.791,0,0,0,4.316-7.059C56.226,42.614,55.305,41.252,54.03,39.368ZM17,54.783c.028-.056.05-.091.076-.138a5.909,5.909,0,0,0,2.513,2.561c.059.03.122.052.181.079-.208.535-.359.952-.46,1.248a8.76,8.76,0,0,1-1.87-.953C16.857,57.172,16.178,56.437,17,54.783Zm3.254,4.078c.1-.287.248-.7.459-1.241a5.048,5.048,0,0,0,1.311.21,3.255,3.255,0,0,0,2.614-1.168,2.555,2.555,0,0,0,.129-3.043,8.168,8.168,0,0,0-1.185-1.294c-.066-.062-.134-.13-.2-.194a19.039,19.039,0,0,1,3.377-3.9,4.228,4.228,0,0,0,.556.244,17.743,17.743,0,0,0-1.431,2.692.5.5,0,1,0,.917.4,13.528,13.528,0,0,1,1.575-2.84c.281.045.566.08.86.1a25.914,25.914,0,0,0-.677,2.8.5.5,0,0,0,.418.571.647.647,0,0,0,.076.005.5.5,0,0,0,.494-.423,25.972,25.972,0,0,1,.727-2.936q.56-.012,1.1-.06V51.9a.5.5,0,0,0,1,0V48.672c.341-.051.654-.107.941-.167.442,4.117,2.341,6.919,5.415,7.89a6.351,6.351,0,0,0,.629.171c-.194.912-.291,1.616-.336,2.015A42.441,42.441,0,0,1,29.312,59.9,32.048,32.048,0,0,1,20.253,58.861ZM29.423,40a17.269,17.269,0,0,0,2.414-.7.5.5,0,0,0-.35-.937,15.941,15.941,0,0,1-2.839.787,12.415,12.415,0,0,1-3.067.212,9.582,9.582,0,0,1-5.81-2.969,6.566,6.566,0,0,1-1.828-3.118c-.333-1.7-.694-8.342-.893-9.718a38.555,38.555,0,0,1,1.92-8.589.687.687,0,0,1,.617-.409h0a.633.633,0,0,1,.567.481c1.458,3.819,4.535,4.959,8.1,6.28,1.135.421,2.309.857,3.545,1.409a6.8,6.8,0,0,1,3.791,5.523,27.524,27.524,0,0,1-1.313,11.475A22.388,22.388,0,0,0,33.234,47.5c-1.851.4-4.89.646-6.3-.292a1.556,1.556,0,0,1-.429-.4c.346-.151,2.475-1.05,2.818-1.312C30.629,44.521,30.043,41.672,29.423,40Zm-3.846,7.225a2.409,2.409,0,0,0,.336.432A20.061,20.061,0,0,0,22.67,51.4a6.583,6.583,0,0,1-1.121-1.84A24.117,24.117,0,0,1,25.577,47.222ZM44.521,56.8a30.375,30.375,0,0,1-4.458,1.514c.056-.406.149-.968.294-1.635a4.1,4.1,0,0,0,3.465-2.17,3.655,3.655,0,0,0-1.187-4.245,8.021,8.021,0,0,1-3.416-5.012,17.22,17.22,0,0,1,6.969,5.968,18.146,18.146,0,0,1,1.166,2.788C47.563,54.941,45.861,56.183,44.521,56.8Z"/></svg>