<svg id="Solid" xmlns="http://www.w3.org/2000/svg" viewBox="0 0 64 64"><title>girl, ponytail, people, woman, teenager, avatar, cute</title><path d="M37.633,40.1a4.96,4.96,0,0,0,2.034,1.8,4.466,4.466,0,0,1,1.252.943A3.313,3.313,0,0,0,43.224,44a4.941,4.941,0,0,0,.587.035,6.62,6.62,0,0,0,4.414-1.874,5.772,5.772,0,0,0,2.01-5.193,5.079,5.079,0,0,0-2.864-3.9A15.9,15.9,0,0,0,43.227,32c-.459-.074-.9-.151-1.34-.236a3.432,3.432,0,0,0,.307-.158,5.645,5.645,0,0,0,2.295-3.492,6.111,6.111,0,0,0-.119-3.1A5.868,5.868,0,0,0,47.906,20.9c.838-3.65-1.566-8.226-2.976-9.754a25.49,25.49,0,0,1-2.09-2.732C41.567,6.58,40.364,4.853,38.521,4.1a7.3,7.3,0,0,0-4.983-.166l-.467.111a2.824,2.824,0,0,1-1.677-.179A11.893,11.893,0,0,0,17.755,7.175a12.413,12.413,0,0,0-1.919,5c-.274,1.248-.532,2.428-1.052,2.774a6.592,6.592,0,0,1-1.469.558c-1.5.459-3.565,1.087-4.439,3.023a4.251,4.251,0,0,0,.785,4.431,5.385,5.385,0,0,0,5.714,1.488c.26-.066.506-.132.742-.2.145,1.2.5,7.451.845,9.222.646,3.257,4.887,6.67,8.56,6.891q.367.023.741.023a13.609,13.609,0,0,0,2.174-.193A7.064,7.064,0,0,1,28.9,41.6a8.323,8.323,0,0,0-4.549,4.414A19.694,19.694,0,0,0,16.1,54.337c-1.073,2.162-.179,3.4.763,4.062,2.386,1.66,6.573,2.5,12.445,2.5a44.99,44.99,0,0,0,11.742-1.821A25.946,25.946,0,0,0,45.9,57.209c1.139-.65,2.814-1.71,2.431-3.418-.891-4.03-4.324-8.079-8.576-10.149a5.116,5.116,0,0,0-2.566-3.392,21.292,21.292,0,0,1-.449-4.193,10.288,10.288,0,0,1,.416,1.985A7.068,7.068,0,0,0,37.633,40.1ZM29.442,52.2a.98.98,0,1,1,.97-.97A.971.971,0,0,1,29.442,52.2ZM37.3,41.487A4.511,4.511,0,0,1,38.845,44.1a5.01,5.01,0,0,1-.038,2.534c-.766,2.337-2.887,3.756-3.618,3.756h-.011c-1.627,0-3.754-1.811-4.378-2.81a1.134,1.134,0,0,0-1.809-.119c-.2.235-.41.51-.63.8-.727.951-1.63,2.132-2.46,2.132H25.87a.844.844,0,0,1-.677-.43,4.072,4.072,0,0,1-.026-3.327,7.075,7.075,0,0,1,3.855-3.989,3.026,3.026,0,0,1-.215,1.014,3.332,3.332,0,0,0-.245,1.077,1.936,1.936,0,0,0,1.222,1.9,3.478,3.478,0,0,0,1.35.24,6.8,6.8,0,0,0,4.426-1.77A6.033,6.033,0,0,0,37.3,41.487Zm-2.1-5.135a.5.5,0,0,0,.394.192.506.506,0,0,0,.15-.052,21.156,21.156,0,0,0,.519,4.212,4.554,4.554,0,0,1-1.4,3.688c-1.171,1.146-3.535,1.818-4.686,1.325a.941.941,0,0,1-.614-.971,2.528,2.528,0,0,1,.189-.757,3.436,3.436,0,0,0,.28-1.515,10.551,10.551,0,0,0-.592-2.49,17.876,17.876,0,0,0,2.113-.806l.361-.156a.5.5,0,0,0-.39-.92l-.369.159a12.7,12.7,0,0,1-2.506.887,12.417,12.417,0,0,1-3.066.212c-3.224-.194-7.079-3.267-7.639-6.087-.333-1.7-.689-8.034-.851-9.315a25.681,25.681,0,0,1,5.6-1.139c2.069,0,4.363-2.232,4.51-7.133.073-2.262.448-3.719,1.114-4.33a1.771,1.771,0,0,1,1.436-.344l.134.006c.821.043,3.238,1.076,3.561,5.172.208,2.734.522,6.864,4.5,9a.533.533,0,0,0,.657-.221,5.411,5.411,0,0,1,.678-.8,2.98,2.98,0,0,1,2.364-.659c1.754.4,2.272,2.561,1.869,4.4a4.621,4.621,0,0,1-1.854,2.863,2.291,2.291,0,0,1-1.781.336,7.13,7.13,0,0,1-1.147-.643.5.5,0,0,0-.8.351,7.659,7.659,0,0,1-2.639,4.841A.5.5,0,0,0,35.2,36.352Z"/><rect x="29.692" y="23.759" width="1.97" height="2.78" rx="0.78" ry="0.78"/><path d="M21.192,24.569v1.22a.773.773,0,0,1-.78.77h-.42a.773.773,0,0,1-.78-.77v-1.22a.781.781,0,0,1,.78-.78h.42A.781.781,0,0,1,21.192,24.569Z"/><path d="M31.862,21.13a.518.518,0,0,1-.188-.036c-.924-.375-2.882-.488-3.414-.093a.5.5,0,0,1-.6-.8c.978-.725,3.394-.433,4.385-.032a.5.5,0,0,1-.187.964Z"/><path d="M20.921,24.229a.5.5,0,0,1-.311-.109,1.714,1.714,0,0,0-2.147,0,.5.5,0,0,1-.625-.781,2.721,2.721,0,0,1,3.4,0,.5.5,0,0,1-.313.89Z"/><path d="M31.611,24.26a.5.5,0,0,1-.311-.11,1.731,1.731,0,0,0-2.158,0,.5.5,0,0,1-.622-.783,2.732,2.732,0,0,1,3.4,0,.5.5,0,0,1-.313.891Z"/><path d="M24.821,33.6c-.038,0-.076,0-.114,0a2.288,2.288,0,0,1-1.761-.816.5.5,0,1,1,.792-.609,1.329,1.329,0,0,0,1.006.426,2.064,2.064,0,0,0,1.586-.645.5.5,0,1,1,.745.666A3.041,3.041,0,0,1,24.821,33.6Z"/><path d="M23.767,30.532A1.191,1.191,0,0,1,23,30.243a1.164,1.164,0,0,1-.441-1.132.5.5,0,0,1,.975.216.373.373,0,0,0,.159.185.144.144,0,0,0,.139,0,.5.5,0,1,1,.42.906A1.149,1.149,0,0,1,23.767,30.532Z"/><path d="M39.645,28.044a.551.551,0,0,0,.1.011.5.5,0,0,0,.489-.4,1.23,1.23,0,0,1,1.273-.849.5.5,0,1,0,.126-.992,2.215,2.215,0,0,0-2.377,1.632A.5.5,0,0,0,39.645,28.044Z"/></svg>