<svg id="Solid" xmlns="http://www.w3.org/2000/svg" viewBox="0 0 64 64"><title>girl, ponytail, people, woman, teenager, avatar, portrait</title><rect x="33.45" y="23.739" width="1.97" height="2.78" rx="0.78" ry="0.78"/><rect x="22.97" y="23.769" width="1.98" height="2.77" rx="0.78" ry="0.78"/><path d="M24.681,24.209a.5.5,0,0,1-.313-.109,1.717,1.717,0,0,0-2.144,0,.5.5,0,1,1-.627-.779,2.719,2.719,0,0,1,3.4,0,.5.5,0,0,1-.312.89Z"/><path d="M35.37,24.239a.5.5,0,0,1-.312-.109,1.738,1.738,0,0,0-2.155,0,.5.5,0,0,1-.625-.781,2.733,2.733,0,0,1,3.405,0,.5.5,0,0,1-.313.89Z"/><path d="M28.58,33.583l-.114,0a2.3,2.3,0,0,1-1.762-.816.5.5,0,0,1,.793-.611,1.323,1.323,0,0,0,1.006.427,2.1,2.1,0,0,0,1.585-.645.5.5,0,0,1,.746.667A3.042,3.042,0,0,1,28.58,33.583Z"/><path d="M27.524,30.513a1.19,1.19,0,0,1-.764-.289,1.163,1.163,0,0,1-.443-1.132.5.5,0,0,1,.976.216.375.375,0,0,0,.159.184.139.139,0,0,0,.138,0,.5.5,0,0,1,.422.907A1.167,1.167,0,0,1,27.524,30.513Zm-.24-1.166h0Z"/><path d="M52.09,53.771a11.836,11.836,0,0,0-3.408-5.83,18.538,18.538,0,0,0-4.656-3.3c-.261-.131-.946-.462-1.052-.505-1.9-1.11-2.435-5.748-2.46-8.466.109-.111.212-.22.311-.33.623,2.1,1.454,3.489,2.474,4.123a4.44,4.44,0,0,0,2.341.713,3.327,3.327,0,0,0,2.308-.879,2.8,2.8,0,0,0,.39-3.525A8.03,8.03,0,0,0,46.912,34a6.726,6.726,0,0,1-1.543-2.088,5.1,5.1,0,0,0,2.88-3.81,6.122,6.122,0,0,0,.019-2.622c1.578-3.778.659-9.528-.364-12.512-2.2-6.375-7.487-9.886-14.892-9.886-14.318,0-16.79,11.305-17.206,14.77-.251,2.094.038,3.706.837,4.661a2.7,2.7,0,0,0,1.622.933,77.779,77.779,0,0,1-.122,8.489,5.326,5.326,0,0,1-1.456,3.242,4.776,4.776,0,0,0-1.365,3.094A3.131,3.131,0,0,0,17.33,41.2a3.7,3.7,0,0,0,1.436.3,2.618,2.618,0,0,0,1.84-.674,7.083,7.083,0,0,0,2.253-3.707,10.655,10.655,0,0,0,6.418,3.224,9.272,9.272,0,0,0,1.288-.006,2.59,2.59,0,0,1-1.071,1.287c-2.043,1.4-6.057,1.779-7.4,1.263a7.783,7.783,0,0,0-7.8,1.08A6.475,6.475,0,0,0,11.959,50.1a5.794,5.794,0,0,0,2.929,4.232,7.763,7.763,0,0,0,3.756.969,6.323,6.323,0,0,0,.871-.061,2.7,2.7,0,0,0,1.113,3.14,9.052,9.052,0,0,0,1.5.835c2.467,1.108,6.15,1.663,10.944,1.663a42.291,42.291,0,0,0,9.776-1.093,20.646,20.646,0,0,0,6.813-2.6C50.79,56.523,52.473,55.479,52.09,53.771Zm-4.817-25.89a4.239,4.239,0,0,1-2.251,3.083,17.394,17.394,0,0,1-.639-3.8,1.32,1.32,0,0,1,.89-.377.5.5,0,0,0,.556-.438.5.5,0,0,0-.438-.555,1.983,1.983,0,0,0-1.084.22c-.034-.746-.049-1.586-.045-2.535a3.172,3.172,0,0,1,1.138.009,2.6,2.6,0,0,1,1.867,2.074A5.217,5.217,0,0,1,47.273,27.881ZM29.341,39.34a9.8,9.8,0,0,1-6.4-3.633,5.818,5.818,0,0,1-1.24-2.454,46.769,46.769,0,0,1-.581-5.835c-.09-1.512-.179-2.942-.345-4.235a3.511,3.511,0,0,0,1.946-1.724,4.118,4.118,0,0,0,3.446,1.3,4.272,4.272,0,0,0,3.39-1.985,3.113,3.113,0,0,0,.592.9,3.28,3.28,0,0,0,2.433.953,3.127,3.127,0,0,0,3.345-2.263,9.6,9.6,0,0,0,2.362,2.1c1.217.746,1.312,2.572,1.312,3.115a41.979,41.979,0,0,0,.912,8.57,8.552,8.552,0,0,1-1.669,1.7.5.5,0,0,0,.307.894.7.7,0,0,0,.387-.172c.1,2.19.55,6.472,2.541,8.134-2.739,3.677-7.932,4.072-9.859,3-.914-.51-.8-1.119-.679-1.445a6.737,6.737,0,0,0,1.714-.95c1.157-.949.5-3.476.184-4.458-.148-.462-.3-.865-.311-.9a15.9,15.9,0,0,0,2.326-.944.5.5,0,0,0-.486-.874,12.814,12.814,0,0,1-2.55.991A13.273,13.273,0,0,1,29.341,39.34ZM20.76,54.761A13.173,13.173,0,0,1,24,50.67a14.919,14.919,0,0,0-2.153,7.289,7.088,7.088,0,0,1-.65-.4C20.617,57.152,19.937,56.417,20.76,54.761Zm28.382,1.572a19.053,19.053,0,0,1-2.206,1.107,28.578,28.578,0,0,1-3.742,1.225,17.272,17.272,0,0,1,2.655-8.17,3.893,3.893,0,0,1,2.317-1.646,10.722,10.722,0,0,1,2.947,5.14C51.323,54.921,50.358,55.626,49.142,56.333Z"/></svg>