<svg id="Solid" xmlns="http://www.w3.org/2000/svg" viewBox="0 0 64 64"><title>girl, young, female, people, woman, teen, avatar</title><rect x="29.848" y="23.759" width="1.97" height="2.78" rx="0.78" ry="0.78"/><path d="M21.348,24.569v1.22a.773.773,0,0,1-.78.77h-.42a.773.773,0,0,1-.78-.77v-1.22a.781.781,0,0,1,.78-.78h.42A.781.781,0,0,1,21.348,24.569Z"/><path d="M25.558,33.958a2.58,2.58,0,0,1-1.892-.66.5.5,0,0,1,.771-.637,1.672,1.672,0,0,0,1.121.3h0a2.348,2.348,0,0,0,1.754-.626.5.5,0,0,1,.774.635,3.268,3.268,0,0,1-2.527.991Z"/><path d="M25.242,30.614a1.355,1.355,0,0,1-.925-.373,1.006,1.006,0,0,1-.341-1.012.5.5,0,0,1,.971.219.413.413,0,0,0,.159.135.306.306,0,0,0,.246.011.5.5,0,0,1,.361.931A1.29,1.29,0,0,1,25.242,30.614Zm-.312-1.085h0Z"/><path d="M17.684,21.335a.5.5,0,0,1-.316-.886c.126-.1,1.306-.952,3.824-.156a.5.5,0,1,1-.3.953c-2.01-.636-2.9-.015-2.911-.007A.5.5,0,0,1,17.684,21.335Z"/><path d="M27.962,21.1a.5.5,0,0,1-.3-.9A3.221,3.221,0,0,1,29.8,19.79a.5.5,0,0,1,.473.524.472.472,0,0,1-.524.474A2.482,2.482,0,0,0,28.261,21,.506.506,0,0,1,27.962,21.1Z"/><path d="M20.922,24.229a.505.505,0,0,1-.313-.109,1.72,1.72,0,0,0-2.143,0,.5.5,0,1,1-.627-.779,2.718,2.718,0,0,1,3.4,0,.5.5,0,0,1-.312.89Z"/><path d="M28.832,24.26a.5.5,0,0,1-.313-.891,2.736,2.736,0,0,1,3.405,0,.5.5,0,1,1-.623.781,1.734,1.734,0,0,0-2.157,0A.5.5,0,0,1,28.832,24.26Z"/><path d="M50.315,54.119c-1.541-4.56-3.978-7.134-9.193-9.667a8.983,8.983,0,0,0,.834-6.335,11.523,11.523,0,0,0,.8-1.31A13.366,13.366,0,0,0,43.969,30.4c4.643-6.274,3.214-18.671-2.886-24.04C38.615,4.17,28.232-.411,22.936,5.066a5.928,5.928,0,0,0-4.339,1.4c-4.07,3.1-7.068,10.44-7.426,14.336-.336,3.732.365,6.642,1.973,8.192A4.947,4.947,0,0,0,17.1,30.278c.117,1.229.264,2.42.46,3.415.647,3.257,4.886,6.67,8.56,6.892.61,0,1.489,0,1.871-.034.554,2.281.547,3.95-.046,4.385a20.148,20.148,0,0,1-1.867.8c-3.257,1.246-9.319,3.566-12,8.934-1.077,2.137-.184,3.358.75,4,2.13,1.494,7.087,3.241,14.047,3.251,9.272,0,15.874-2.15,18.713-3.992C49.324,56.8,50.842,55.656,50.315,54.119Zm-23.463-7.6a8.377,8.377,0,0,0,1.687-.773c.977-.719,1.119-2.517.449-5.321a29.912,29.912,0,0,0,3.448-.9.5.5,0,1,0-.351-.935,15.97,15.97,0,0,1-2.838.786,12.689,12.689,0,0,1-3.066.213c-3.224-.2-7.079-3.268-7.64-6.087a71.658,71.658,0,0,1-.8-8.6c-.033-.63-.061-1.168-.09-1.486.007-.074.753-7.287,6.494-10.734.444.655.93,1.438,1.479,2.321C28.2,19.146,31.732,24.826,36.89,27.05a1.734,1.734,0,0,0,1.709-.1,2.168,2.168,0,0,0,.837-1.692,2.712,2.712,0,0,1,2.072-.485,2.2,2.2,0,0,1,1.419,1.012,4.421,4.421,0,0,1,.413,3.215c-.4,1.775-1.865,3.463-3.571,3.078a2.778,2.778,0,0,1-1.127-.621.5.5,0,0,0-.453-.08.532.532,0,0,0-.327.322,14,14,0,0,1-3.6,5.172.608.608,0,0,0-.194.378,3.026,3.026,0,0,0,.135.973,8.469,8.469,0,0,0-1.1,5.515,3.1,3.1,0,0,0-.244,2.614,11.071,11.071,0,0,0-2.239,2.15,10.252,10.252,0,0,0-1.31.1,3.68,3.68,0,0,1-1.716,0C27.046,48.338,26.594,47.879,26.852,46.515Zm11.8.041a1.4,1.4,0,0,1-.126.188,2.425,2.425,0,0,1-2.466.618,2.877,2.877,0,0,1-2.231-1.251,1.675,1.675,0,0,1-.15-.819,4.273,4.273,0,0,0,2.677,1.4A3.718,3.718,0,0,0,38.651,46.556ZM47.039,57.1c-2.191,1.422-8.485,3.83-18.166,3.83-6.727-.009-11.462-1.66-13.477-3.072-.575-.4-1.245-1.112-.427-2.735,2.347-4.695,7.592-6.948,10.824-8.2a2.421,2.421,0,0,0,1.351,2.583,2.331,2.331,0,0,0,1.053.207c.4,0,1.532-.148,1.677-.165-1.42,2.252-1.978,4.805-1.11,6.414.985,1.824,5,2.719,7.6,2.719a7.641,7.641,0,0,0,1.287-.095,3.364,3.364,0,0,0,2.5-1.79c1.027-1.957.617-5.372-1.071-9.183a2.615,2.615,0,0,0,.309-.345,2.139,2.139,0,0,0,.441-1.336,3.651,3.651,0,0,0,.684-.666c5.123,2.455,7.38,4.8,8.859,9.175C49.6,55.119,48.97,55.841,47.039,57.1Z"/><path d="M39.645,29.044a.553.553,0,0,0,.106.011.5.5,0,0,0,.488-.4,1.221,1.221,0,0,1,1.272-.849.5.5,0,0,0,.127-.992,2.211,2.211,0,0,0-2.377,1.632A.5.5,0,0,0,39.645,29.044Z"/></svg>