<svg id="Solid" xmlns="http://www.w3.org/2000/svg" viewBox="0 0 64 64"><title>girl, young, female, people, woman, teenager, avatar</title><path d="M27.582,21.97a.5.5,0,0,1-.3-.9c.865-.638,2.808-.468,3.715-.288a.5.5,0,1,1-.2.981,5.125,5.125,0,0,0-2.926.112A.5.5,0,0,1,27.582,21.97Z"/><path d="M31.232,24.259a.494.494,0,0,1-.311-.109,1.734,1.734,0,0,0-2.156,0,.5.5,0,1,1-.625-.781,2.733,2.733,0,0,1,3.4,0,.5.5,0,0,1-.312.89Z"/><path d="M16.832,22.089a.5.5,0,0,1-.3-.9c.868-.638,2.81-.467,3.715-.288a.5.5,0,0,1-.2.981,5.108,5.108,0,0,0-2.926.112A.5.5,0,0,1,16.832,22.089Z"/><path d="M20.482,24.379a.494.494,0,0,1-.311-.109,1.734,1.734,0,0,0-2.156,0,.5.5,0,1,1-.625-.781,2.732,2.732,0,0,1,3.4,0,.5.5,0,0,1-.312.89Z"/><path d="M24.441,33.6l-.114,0a2.3,2.3,0,0,1-1.762-.816.5.5,0,0,1,.793-.611,1.326,1.326,0,0,0,1.006.427,2.057,2.057,0,0,0,1.585-.645.5.5,0,0,1,.746.667A3.039,3.039,0,0,1,24.441,33.6Z"/><path d="M23.387,30.533a1.193,1.193,0,0,1-.766-.289,1.162,1.162,0,0,1-.442-1.132.5.5,0,0,1,.975.215.373.373,0,0,0,.159.185.137.137,0,0,0,.138,0,.5.5,0,0,1,.422.907A1.158,1.158,0,0,1,23.387,30.533Z"/><path d="M50.745,46.835a13.159,13.159,0,0,0-1.34-3.129,25.375,25.375,0,0,1-2.987-8.211c-.393-3.02-.633-6.217-.865-9.309-.445-5.923-.866-11.518-2.3-14.5-2.7-5.609-7.348-8.454-13.82-8.454-13.3,0-15.589,9.718-15.976,12.7a4.323,4.323,0,0,0,1.158,4.008c-.07,1.348,0,3.094.087,5.115.244,5.69.579,13.482-2.065,19.336s-.825,7.995.493,8.743a4.611,4.611,0,0,0,2.263.551,5.439,5.439,0,0,0,1.16-.129c-.154.261-.315.519-.449.788-1.073,2.163-.177,3.4.755,4.057a10.593,10.593,0,0,0,1.091.638c2.51,1.183,6.3,1.867,11.362,1.867a42.494,42.494,0,0,0,9.107-.941h0a31.54,31.54,0,0,0,4.965-1.5,19.844,19.844,0,0,0,2.468-1.22c1.114-.648,2.761-1.688,2.483-3.415a7.631,7.631,0,0,0-.787-2.273,2.98,2.98,0,0,0,2.035-.645A4.133,4.133,0,0,0,50.745,46.835ZM30.294,45.269A1.3,1.3,0,0,1,30,44.374a22.424,22.424,0,0,0-.114-2.489,9.534,9.534,0,0,0-.511-1.917,17.169,17.169,0,0,0,2.149-.629.5.5,0,1,0-.345-.939,18.8,18.8,0,0,1-2.566.719,13.347,13.347,0,0,1-3.17.241c-2.859-.176-6.473-3.068-7.436-5.949a27.616,27.616,0,0,1-.864-6.749,34.8,34.8,0,0,0-.411-4.509s-.184-1-.226-1.444a4.128,4.128,0,0,0,1.2,0,3.029,3.029,0,0,0,2.2-1.6,3.939,3.939,0,0,0,3.191,1.1,4.033,4.033,0,0,0,3.131-1.681,2.74,2.74,0,0,0,.464.668,3.161,3.161,0,0,0,2.344.9,2.9,2.9,0,0,0,2.977-1.644,18.541,18.541,0,0,0,1.905,3.212c.917,1.169.35,5.756.164,7.263-.035.284-.887,6.894-1.271,8.977-.179.956-1.222,6.224-1.407,7.772A1.7,1.7,0,0,1,30.294,45.269Zm1.006,1.4c-.027.328-.038,1.336-.039,1.508-.183-.2-.584-.746-.645-.807a1.106,1.106,0,0,0-1.255-.2,4.53,4.53,0,0,0-1,1.087c-.726.951-1.628,2.133-2.459,2.133h-.031a.8.8,0,0,1-.609-.341,3.421,3.421,0,0,1-.32-2.637c.066-.283.206-.678.27-.864a7.094,7.094,0,0,1,3.749-3.873c.042.433.041.981.044,1.575a2.367,2.367,0,0,0,.571,1.712A2.644,2.644,0,0,0,31.3,46.666ZM17.261,57.442c-.526-.432-1-1.173-.261-2.661a12.2,12.2,0,0,1,1.34-2.1A13.159,13.159,0,0,0,17.261,57.442Zm28.07-1.058a18.946,18.946,0,0,1-6.543,2.465c.065-1.71,1.055-6.889,2.7-8.94a3.259,3.259,0,0,1,1.9-1.111c1.342,0,2.4,1.759,2.753,2.3a7.622,7.622,0,0,1,1.207,2.878C47.508,54.967,46.58,55.639,45.331,56.384Z"/><rect x="29.312" y="23.759" width="1.97" height="2.78" rx="0.78" ry="0.78"/><rect x="18.562" y="23.879" width="1.97" height="2.78" rx="0.78" ry="0.78"/></svg>