<svg id="Solid" xmlns="http://www.w3.org/2000/svg" viewBox="0 0 64 64"><title>male, glasses, hacker, people, man, programmer, avatar</title><path d="M20.9,41.959a29.351,29.351,0,0,0,3,2.9,2.59,2.59,0,0,1,.38-.51.495.495,0,0,1,.7.7,2.042,2.042,0,0,0-.26.39,6.423,6.423,0,0,0,2.18.99,8.952,8.952,0,0,0,2.36-.74,8.087,8.087,0,0,1,.09-1.07.5.5,0,1,1,.98.16c-.02.14-.03.29-.05.46a63.739,63.739,0,0,0,9.87-5.91,22.784,22.784,0,0,0,5.74-11.88c1.62-8.24.37-15.44-3.45-19.75-2.85-3.22-7.04-4.84-12.47-4.84-.71,0-1.43.02-2.18.08-4.75.35-8.36,2.06-10.74,5.09-4.45,5.68-3.51,14.62-2.9,18.21C15.412,33.649,17.359,37.609,20.9,41.959Zm6.73-.6a9.54,9.54,0,0,1-2.73-2.78,9.07,9.07,0,0,0,3.25.55c.37,0,.75-.01,1.14-.04a10.038,10.038,0,0,0,2.06-.54A11.172,11.172,0,0,1,27.632,41.359Zm9.83-20.82a21.3,21.3,0,0,1,.16,2.7c-.03-.01-2.7.28-2.7.28v-.69a1.417,1.417,0,0,0-.56-1.15A5.117,5.117,0,0,0,37.462,20.539Zm-7.34-1.79a5.888,5.888,0,0,0,2.73,2.61h-3.89A4.834,4.834,0,0,0,30.122,18.749Zm-2.21,4.08a.446.446,0,0,1,.47-.47h5.07a.463.463,0,0,1,.47.47v2.75a.463.463,0,0,1-.47.47h-5.07a.463.463,0,0,1-.47-.47Zm-.91-.51a1.44,1.44,0,0,0-.09.51v1.22h-2.58v-1.22a1.51,1.51,0,0,0-.08-.48A8.167,8.167,0,0,0,27,22.319Zm-2.67,3.26v-.53h2.58v.53a1.472,1.472,0,0,0,1.47,1.47h5.07a1.46,1.46,0,0,0,1.47-1.47v-1.05l2.67-.3a30.2,30.2,0,0,1-.78,5.34,12.915,12.915,0,0,1-3.831,6.66,6.993,6.993,0,0,1-3.769,1.86,9.006,9.006,0,0,1-5.33-1.12,14.607,14.607,0,0,1-1.46-1.27c-2.06-2.15-2.83-4.91-3.32-8.65h3.76A1.453,1.453,0,0,0,24.332,25.579Zm-1-2.75v2.75a.457.457,0,0,1-.47.47h-3.88c-.08-.51-.25-2.96-.32-3.69h4.2A.457.457,0,0,1,23.332,22.829Zm-4.78-1.49a3.512,3.512,0,0,0,2.34-2.01,5,5,0,0,0,1.32,1.96.55.55,0,0,0,.09.07h-3.75Zm-1.23,1.49a.476.476,0,0,1,.14-.34.352.352,0,0,1,.19-.1c.08.74.25,3.16.31,3.66h-.17a.469.469,0,0,1-.47-.47Z"/><path d="M50.9,52.789c-.81-3.79-5.88-9.25-10.42-12.47a62.351,62.351,0,0,1-10.24,6.03,64.593,64.593,0,0,0,.86,8.52c.18,1.2.28,1.84.28,2.13a.5.5,0,0,1-.49.51h-.01a.5.5,0,0,1-.5-.49c0-.24-.12-1.06-.27-2a68.819,68.819,0,0,1-.87-8.25,7.675,7.675,0,0,1-2.44.65,7.176,7.176,0,0,1-2.53-1.07,50.476,50.476,0,0,0-2.83,9.64.5.5,0,0,1-1,0c0-1.26,1.78-7.48,3-10.22a19.682,19.682,0,0,1-2.62-2.42,28.144,28.144,0,0,0-9.06,10.43c-.85,1.78-.65,3.03.62,3.96,2.84,2.07,7.98,3.12,15.27,3.12A49.267,49.267,0,0,0,42.58,58.672a28.732,28.732,0,0,0,5.7-2.553C49.617,55.341,51.222,54.269,50.9,52.789Z"/><path d="M25.8,28.936a1.2,1.2,0,0,0,.506-.114.5.5,0,0,0-.424-.906.177.177,0,0,1-.185-.01.438.438,0,0,1-.192-.236.5.5,0,0,0-.977-.209A1.323,1.323,0,0,0,25.8,28.936Z"/><path d="M24.792,32.069h3.49a.5.5,0,0,0,0-1h-3.49a.5.5,0,0,0,0,1Z"/></svg>