<svg id="Solid" xmlns="http://www.w3.org/2000/svg" viewBox="0 0 64 64"><title>male, leader, manager, people, man, boss, avatar</title><path d="M17.464,22.71a.518.518,0,0,1-.5-.526c0-.453.389-.9,1.069-1.226a3.352,3.352,0,0,1,3.453.206.5.5,0,0,1-.625.779,2.186,2.186,0,0,0-1.835-.283,1.889,1.889,0,0,0-1.07.575A.475.475,0,0,1,17.464,22.71Z"/><path d="M25.362,32.8c-.182,0-.368-.009-.556-.027A3.262,3.262,0,0,1,22.414,31.7a.5.5,0,1,1,.826-.564,2.446,2.446,0,0,0,1.658.641,3.4,3.4,0,0,0,2.6-.673.5.5,0,0,1,.707.708A4.019,4.019,0,0,1,25.362,32.8Z"/><path d="M24.55,28.457a2.227,2.227,0,0,1-1.564-.634A1.264,1.264,0,0,1,22.7,26.4a.5.5,0,1,1,.912.409c-.02.045-.067.152.095.322a1.234,1.234,0,0,0,1.255.248.5.5,0,0,1,.369.93A2.129,2.129,0,0,1,24.55,28.457Z"/><path d="M16.957,19.124a.515.515,0,0,1-.258-.071.5.5,0,0,1-.171-.687,2.359,2.359,0,0,1,1.521-.937,4.611,4.611,0,0,1,3.393.481.5.5,0,1,1-.529.848,3.624,3.624,0,0,0-2.631-.357,1.451,1.451,0,0,0-.9.481A.5.5,0,0,1,16.957,19.124Z"/><path d="M28.653,22.7a.519.519,0,0,1-.5-.525c0-.454.39-.9,1.071-1.228a3.311,3.311,0,0,1,3.442.208.5.5,0,0,1-.625.78,2.173,2.173,0,0,0-1.83-.284,1.869,1.869,0,0,0-1.066.575A.475.475,0,0,1,28.653,22.7Z"/><path d="M32.567,18.914a.5.5,0,0,1-.411-.216,2.232,2.232,0,0,0-1.228-.394,4.8,4.8,0,0,0-2.949.362.5.5,0,0,1-.644-.764c.761-.643,2.467-.756,3.724-.59a2.906,2.906,0,0,1,1.919.818.5.5,0,0,1-.126.7A.492.492,0,0,1,32.567,18.914Z"/><path d="M42.327,27.494a.5.5,0,0,1-.488-.607,2.192,2.192,0,0,1,2.348-1.6.5.5,0,0,1,.437.556.49.49,0,0,1-.556.436,1.232,1.232,0,0,0-1.253.821A.5.5,0,0,1,42.327,27.494Z"/><path d="M32.357,22.654v.61a1.1,1.1,0,1,1-2.19,0v-.61a1.1,1.1,0,1,1,2.19,0Z"/><path d="M21.177,22.664v.61a1.1,1.1,0,1,1-2.19,0v-.61a1.1,1.1,0,1,1,2.19,0Z"/><path d="M43.837,39.872c-.235-.311-.465-.6-.668-.84a9.58,9.58,0,0,0-3.42-2.879c-.023-.745-.02-1.533.027-2.393a10.162,10.162,0,0,0,1.427-2.4,3,3,0,0,0,.968.406c2.323.512,4.243-1.567,4.755-3.86a5.959,5.959,0,0,0,.023-2.462,9.246,9.246,0,0,0,.314-7.371A2.676,2.676,0,0,0,48.5,17.017c.436-.67,1.277-2.6-.3-5.974a13.181,13.181,0,0,0-4.838-5.429c.028-.019.058-.033.085-.055A1.437,1.437,0,0,0,43.9,4.23a1.371,1.371,0,0,0-.623-1.076,3.36,3.36,0,0,0-2.4-.126c-.187-.664-.584-1.683-1.318-1.982a1.271,1.271,0,0,0-1.257.2,1.258,1.258,0,0,0-.527.834,1.664,1.664,0,0,0,.029.632A23.314,23.314,0,0,0,30.061.874c-5.537-.037-8.672.576-9.371,1.818a1.754,1.754,0,0,0-.266,1.158,9.119,9.119,0,0,0-5.377,2.238,2.75,2.75,0,0,0-.978,2.372,2.01,2.01,0,0,0,.578,1.049,5,5,0,0,0-1.958,4.032c.038,1.036.517,2.91,3.185,4.124a18.085,18.085,0,0,0,.1,4.269,25,25,0,0,1,.194,2.621c.01,5.645,1.188,9.928,3.409,12.386A8.177,8.177,0,0,0,24,39.335a23.931,23.931,0,0,0-3.891,3.606,8.23,8.23,0,0,0-.644.908c-4.576,2.366-8.38,6.612-9.651,9.44-1,2.222-.679,4.3.839,5.428,1.8,1.328,5.118,3.124,10.705,3.912a54.189,54.189,0,0,0,6.97.456c1.178,0,4.541-.176,4.55-.177,9.213-.605,21.893-3.772,21.893-8.465C54.758,49.029,49.277,43.033,43.837,39.872Zm-23.519-3.6c-2.051-2.27-3.14-6.322-3.15-11.717a25.875,25.875,0,0,0-.2-2.726,15.933,15.933,0,0,1-.067-4.4,8.276,8.276,0,0,1,1.742-4.29,2.533,2.533,0,0,0,1.262.694c1.716.4,3.944-.407,6.073-2.174a2.031,2.031,0,0,0,.793.888c1.366.863,3.841.664,6.034-.422-.057,1.834.037,4.388,4.458,5.028-.283,1.431-.849,5.255.679,7.13a2.96,2.96,0,0,0,2.416,1.083l.169,0a.52.52,0,0,0,.423-.267,4.209,4.209,0,0,1,.828-.98,2.935,2.935,0,0,1,2.325-.643,2.541,2.541,0,0,1,1.839,2.009,4.9,4.9,0,0,1,.007,2.2c-.395,1.779-1.875,3.468-3.563,3.1a2.738,2.738,0,0,1-1.121-.616.5.5,0,0,0-.79.262A9.1,9.1,0,0,1,37.29,34.79a10.567,10.567,0,0,1-1.315.809.5.5,0,0,0,.49.871,11.178,11.178,0,0,0,1.43-.884,9.773,9.773,0,0,0,.845-.711c-.006.529.014,1.653.028,1.713a14.876,14.876,0,0,0,.618,3.828,4.836,4.836,0,0,1-.045,3.171c-.343.916-.727,1.888-1.135,2.889-1.862,2.785-8.912,3.8-12.485,2.415-1.235-.479-1.8-1.156-1.706-2.009a6.763,6.763,0,0,1,.737-1.137c.916-1.12,1.341-4.5,1.239-6.13a15.429,15.429,0,0,0,2.183-.055A14.613,14.613,0,0,0,31.125,39a.5.5,0,1,0-.3-.953,15.444,15.444,0,0,1-4.413.6c-.223-.01-.434-.03-.65-.049A8.022,8.022,0,0,1,20.318,36.269ZM11.245,57.913c-1.683-1.249-.825-3.541-.521-4.214,1.076-2.4,4.1-5.884,7.871-8.209a6.431,6.431,0,0,0-.563,2.08c-.165,2.884.656,9.832,2.509,13.9A22.026,22.026,0,0,1,11.245,57.913Zm10.508,3.758c-1.947-3.707-2.893-11.127-2.724-14.042a9.614,9.614,0,0,1,1.839-4.04,21.347,21.347,0,0,1,4.151-3.739c.029,1.325-.32,4.38-1.041,5.262a11.765,11.765,0,0,0-1.3,2.3c-1.247,3.28-1.4,8.222-.354,14.336C22.135,61.72,21.94,61.7,21.753,61.671Zm10.863.255c-.143.011-.287.02-.43.03a193.612,193.612,0,0,0,8.091-18.018,5.838,5.838,0,0,0,.06-3.831,12.658,12.658,0,0,1-.536-2.813,9.644,9.644,0,0,1,2.6,2.384c1.5,1.769,2.353,3.423,2.228,4.319C44.25,46.8,39.337,54.643,32.616,61.926Zm1.461-.123c6.01-6.681,11.1-14.436,11.546-17.669a4.123,4.123,0,0,0-.538-2.28c4.555,3.168,8.675,8.122,8.683,12.59C53.768,57.471,44.647,60.8,34.077,61.8Z"/></svg>