<svg id="Solid" xmlns="http://www.w3.org/2000/svg" viewBox="0 0 64 64"><title>man, user, mustache, people, woman, male, avatar</title><path d="M32.732,24.519a.5.5,0,0,1-.375-.169,2.874,2.874,0,0,0-2.814-.108.5.5,0,0,1-.563-.826c1.112-.758,3.348-.609,4.127.272a.5.5,0,0,1-.044.706A.494.494,0,0,1,32.732,24.519Z"/><path d="M34.222,23.09A.505.505,0,0,1,33.938,23c-.84-.578-4.77-1.048-6.015-.2a.5.5,0,1,1-.563-.827c1.641-1.117,6.042-.557,7.145.2a.5.5,0,0,1-.283.912Z"/><path d="M21.712,24.519a.5.5,0,0,1-.375-.169,2.872,2.872,0,0,0-2.814-.108.5.5,0,0,1-.562-.826c1.111-.756,3.348-.608,4.126.272a.5.5,0,0,1-.375.831Z"/><path d="M16.692,23.09a.5.5,0,0,1-.343-.864c1.073-1.013,4.625-1.157,5.94-.236a.5.5,0,0,1-.574.819c-.9-.629-3.96-.535-4.679.144A.5.5,0,0,1,16.692,23.09Z"/><path d="M32.572,24.779v.66a.928.928,0,0,1-.93.93H31.4a.922.922,0,0,1-.93-.93v-.66a.928.928,0,0,1,.93-.93h.24A.935.935,0,0,1,32.572,24.779Z"/><path d="M21.542,24.779v.66a.922.922,0,0,1-.93.93h-.23a.93.93,0,0,1-.94-.93v-.66a.937.937,0,0,1,.94-.93h.23A.928.928,0,0,1,21.542,24.779Z"/><path d="M41.619,27.778a.454.454,0,0,0,.1.011.5.5,0,0,0,.488-.4,1.194,1.194,0,0,1,1.24-.806.492.492,0,0,0,.557-.436.5.5,0,0,0-.436-.556,2.165,2.165,0,0,0-2.34,1.592A.5.5,0,0,0,41.619,27.778Z"/><path d="M25.2,30.783a1.877,1.877,0,0,0,.681-.128.5.5,0,1,0-.364-.931.912.912,0,0,1-.883-.133.77.77,0,0,1-.334-.453.5.5,0,0,0-.958-.287,1.4,1.4,0,0,0,.509,1.388A1.977,1.977,0,0,0,25.2,30.783Z"/><path d="M30.628,33.328a1.618,1.618,0,0,0-.865-1.8c-1.587-.782-4.8-.907-7.819-.3-1.371.27-1.772,1.106-1.7,1.741a1.891,1.891,0,0,0,2.033,1.48h.1a3.352,3.352,0,0,0,1.329-.369.5.5,0,0,0,.034.13c.294.6,1.206.677,1.676.677h.1a2.712,2.712,0,0,0,2.109-.845l.063.023a4.46,4.46,0,0,0,1.394.385A1.476,1.476,0,0,0,30.628,33.328Zm-4.557.492a2.391,2.391,0,0,1-1.444-.078.479.479,0,0,0-.068-.08,1.839,1.839,0,0,1,.743-.2h.01a4.858,4.858,0,0,1,1.221.207A1.993,1.993,0,0,1,26.071,33.82Z"/><path d="M50.314,54.146c-.885-3.22-4.33-8.994-8.908-11.159a.461.461,0,0,0-.114-.027c-.447-1-1.688-3.211-2.463-3.683a.722.722,0,0,0-.484-.074,1.058,1.058,0,0,0-.564.487,11.481,11.481,0,0,1-.448-3.459,13.882,13.882,0,0,0,3.228-4.587,2.971,2.971,0,0,0,.982.414c2.319.517,4.244-1.543,4.768-3.839a5.267,5.267,0,0,0-.7-4.168c.64-1.291.8-4.064.843-5.484a.712.712,0,0,0,.23-.048c.6-.231.762-1.1.571-3.087-.4-4.182-3.376-6.772-5.337-8.043a1.724,1.724,0,0,0,.994-.5,1.053,1.053,0,0,0,.184-1.027,1.987,1.987,0,0,0-1.027-1.241,4.114,4.114,0,0,0-2.653-.115A2.832,2.832,0,0,0,38.3,2.424a1.959,1.959,0,0,0-1.91-.216,1.038,1.038,0,0,0-.637.716,1.545,1.545,0,0,0,.091.889A24.643,24.643,0,0,0,24.582,3.68c-5.746,1.17-9.9,4.959-11.281,7.22a3,3,0,0,0-.6,2.244,1.769,1.769,0,0,0,.9,1.121,2.608,2.608,0,0,0,1.111.254,7.629,7.629,0,0,0-1.716,2.661,2.968,2.968,0,0,0,.317,2.955,2.224,2.224,0,0,0,1.729.662,4.721,4.721,0,0,0,.773-.08c.345,1.7.71,4.681.736,5.158.307,6.023,1.386,9.753,3.5,12.091a9.993,9.993,0,0,0,7.571,2.994c.126,0,.3-.013.5-.033.038.165.078.348.116.544a10.529,10.529,0,0,0-3.546,1.51,5.247,5.247,0,0,0-2.481,3.45l-.007.01a20.945,20.945,0,0,0-8.129,8.234c-1.073,2.131-.184,3.353.749,4a18.069,18.069,0,0,0,6.534,2.5,36.718,36.718,0,0,0,7.514.751c.558,0,1.369,0,1.975-.038,8.225-.247,14.658-2.106,17.169-3.744C49.958,56.873,50.713,55.563,50.314,54.146ZM20.785,37.3c-1.946-2.155-2.946-5.693-3.241-11.473-.028-.513-.4-3.592-.764-5.355a9.2,9.2,0,0,0,4.066-3.142,2.14,2.14,0,0,0,.29.631c.579.841,1.721,1.263,3.452,1.233,1.472-.017,3.469-1.026,5.938-3a3.191,3.191,0,0,1,2.578-.653A3.086,3.086,0,0,1,35.221,17a8.658,8.658,0,0,1,1.191,4.236A4.419,4.419,0,0,0,39.8,25.649a.5.5,0,0,0,.541-.257,4.153,4.153,0,0,1,.823-.976,3.061,3.061,0,0,1,2.323-.64,2.2,2.2,0,0,1,1.153.661A4.093,4.093,0,0,1,45.335,28c-.405,1.778-1.883,3.461-3.576,3.083a2.658,2.658,0,0,1-1.119-.616.5.5,0,0,0-.783.238,12.85,12.85,0,0,1-3.379,4.963c-.116.116-1.126.9-1.528,1.153a.463.463,0,0,0-.109.665.539.539,0,0,0,.729.127c.246-.166.524-.355.769-.537a11.987,11.987,0,0,0,.787,3.777c-.684,1.286-1.7,3.184-3.021,3.792a.44.44,0,0,0-.211.182,19.613,19.613,0,0,0-1.448,4.342,8.979,8.979,0,0,1-5.552-.15c.248-.347,1.392-1.736,1.985-2.46a2.463,2.463,0,0,0,.517-1.029,10.913,10.913,0,0,0-.09-3.718c-.063-.384-.136-.738-.206-1.044a14.356,14.356,0,0,0,2.315-.778A.5.5,0,0,0,31,39.08a12.292,12.292,0,0,1-2.567.8,6.946,6.946,0,0,1-.814.075A9.008,9.008,0,0,1,20.785,37.3Zm.3,22.8a17.5,17.5,0,0,1-5.695-2.231c-.575-.4-1.244-1.118-.43-2.735a20.293,20.293,0,0,1,6.488-7.066c-.538,1.18-.686,1.709-.518,2.07a.6.6,0,0,0,.567.357c.537-.03,1.171-.678,2.971-2.823.452-.539.918-1.095,1.362-1.6a3.677,3.677,0,0,1,1.094,1.252c-.464.589-.864,1.124-1.213,1.64A32.455,32.455,0,0,0,21.083,60.09Zm26.376-2.78c-1.7,1.107-7.25,3.239-16.253,3.566a92.408,92.408,0,0,1,2.13-11.161,35.017,35.017,0,0,1,1.139-3.805A13.231,13.231,0,0,1,35.5,47.866,11.652,11.652,0,0,0,36.849,50.3a1.284,1.284,0,0,0,.9.535h.008A.818.818,0,0,0,38.4,50.5a.463.463,0,0,0,.076-.133c1.154-3,2.857-6.22,2.88-6.276,3.935,2.086,7.15,7.255,7.993,10.322C49.52,55.017,49.509,55.973,47.459,57.31Z"/></svg>