<svg id="Solid" xmlns="http://www.w3.org/2000/svg" viewBox="0 0 128 128"><title>ADHD, mental health, disorder, mental illness, depression, stressed, trauma</title><path d="M91.535,121.467a2.162,2.162,0,0,1-2.08,2.76h-35.2a2.157,2.157,0,0,1-2.13-1.79c-.65-3.73-2.32-12.15-4.4-14.09-3.26-3.02-10.86-1.21-15.54-1.02-11.72.61-8.11-9.2-10.62-17.8-1.99-6.78-7.61-5.28-7.36-10.07.15-2.92,8.08-6.68,8.1-15.85.01-2.58-.46-6.52-.54-9.21-.53-17.2,13.47-30.4,31.7-33.32a31.744,31.744,0,0,0,49.86,34.98c1.44,12.55-2.84,22.96-12.04,34.9-2.4,3.12-3.59,8.54-3.34,12.47C88.345,109.737,90.365,117.437,91.535,121.467Z"/><path d="M83.555,1.645A29.249,29.249,0,1,0,112.8,30.894,29.249,29.249,0,0,0,83.555,1.645Zm0,50.264a20.682,20.682,0,1,1,20.682-20.682A20.682,20.682,0,0,1,83.555,51.909Z"/><path d="M83.555,18.315A12.912,12.912,0,1,0,96.467,31.227,12.912,12.912,0,0,0,83.555,18.315Zm0,17.341a4.429,4.429,0,1,1,4.429-4.429A4.429,4.429,0,0,1,83.555,35.656Z"/></svg>