<svg id="Solid" xmlns="http://www.w3.org/2000/svg" viewBox="0 0 128 128"><title>Alcoholism, mental health, disorder, mental illness, smoking, drugs, alcohol</title><path d="M92.55,103.136c-.25-3.93.94-9.35,3.34-12.47,9.58-12.43,13.83-23.21,11.83-36.47-1.77-11.64-7.03-20.32-14.83-25.99-2.39-4.37-3.74-8.09-3.74-12.66V3.936A3.256,3.256,0,0,0,85.9.686H80.77a3.25,3.25,0,0,0-3.25,3.25v11.61a20.89,20.89,0,0,1-.79,5.77,54.873,54.873,0,0,0-8.42-1.06c-22.94-1.19-42.57,13.54-41.94,33.85.08,2.69.55,6.63.54,9.21-.02,9.17-7.95,12.93-8.1,15.85-.25,4.79,5.37,3.29,7.36,10.07,2.51,8.6-1.1,18.41,10.62,17.8,4.68-.19,12.28-2,15.54,1.02,2.08,1.94,3.75,10.36,4.4,14.09a2.157,2.157,0,0,0,2.13,1.79h35.2a2.162,2.162,0,0,0,2.08-2.76C94.97,117.146,92.95,109.446,92.55,103.136ZM46.314,65.074c2.122-2.054,1.652-2.576.4-3.97-1.2-1.335-3.015-3.353-.9-6.723a1.25,1.25,0,0,1,2.118,1.33c-1.114,1.772-.492,2.465.638,3.721,1.328,1.476,3.334,3.708-.518,7.437a1.25,1.25,0,1,1-1.739-1.8Zm4.126,4.942v5.27H47.38a1,1,0,0,1-1-1v-3.27a1,1,0,0,1,1-1ZM52,66.14a1.252,1.252,0,0,1,.029-1.768c3.849-3.726,2.717-4.984.664-7.268-1.853-2.062-4.392-4.886-1.34-9.743a1.25,1.25,0,0,1,2.117,1.33c-2.048,3.259-.735,4.72,1.083,6.741,2.023,2.251,4.8,5.334-.785,10.736A1.251,1.251,0,0,1,52,66.14Zm.94,9.146v-5.27H70.09v5.04c0,.077.009.153.012.23Zm23.3,3.42a3.643,3.643,0,0,1-.721-.073c-.1-.02-.189-.058-.285-.085a3.8,3.8,0,0,1-.384-.12,3.573,3.573,0,0,1-.331-.172c-.092-.05-.188-.093-.275-.15a3.7,3.7,0,0,1-.321-.252c-.07-.058-.145-.111-.21-.174a3.618,3.618,0,0,1-.278-.315c-.055-.068-.115-.131-.166-.2a3.718,3.718,0,0,1-.215-.36c-.043-.079-.09-.155-.128-.237a3.929,3.929,0,0,1-.141-.385c-.03-.092-.063-.183-.086-.278a7.029,7.029,0,0,1-.109-.847V39.146a19.139,19.139,0,0,1,2.03-7.37,39.592,39.592,0,0,0,4.55-9.9,23.342,23.342,0,0,0,.76-4.33h6.81a25.352,25.352,0,0,0,2.08,8.09,52.74,52.74,0,0,0,3.22,6.14,19.138,19.138,0,0,1,2.04,7.37v2.946a1.99,1.99,0,0,0-.75-.148H82.038a2,2,0,0,0-2,2V67.352a2,2,0,0,0,2,2H93.33a1.99,1.99,0,0,0,.75-.148v5.852a3.658,3.658,0,0,1-3.65,3.65Z"/></svg>