<svg id="Solid" xmlns="http://www.w3.org/2000/svg" viewBox="0 0 128 128"><title>Anorexia, eat, mental health, disorder, mental illness, skinny, nevosa</title><path d="M64.838,15.4C63.077,11.88,72.194,2.95,75.687,6.688,80.972,12.344,65.5,17.465,64.838,15.4Z"/><path d="M96.282,48.4a1.252,1.252,0,0,1-1.133-1.777A18.709,18.709,0,0,0,91.992,26.13c-5.751-6.149-15.029-7.371-25.46-3.36a17.634,17.634,0,0,1-12.687,0c-10.429-4.012-19.71-2.789-25.46,3.36a18.709,18.709,0,0,0-3.157,20.488A1.25,1.25,0,0,1,22.96,47.67a21.229,21.229,0,0,1,3.6-23.248c6.48-6.93,16.752-8.383,28.183-3.985a15.145,15.145,0,0,0,10.891,0c11.429-4.4,21.7-2.946,28.183,3.985a21.229,21.229,0,0,1,3.6,23.248A1.25,1.25,0,0,1,96.282,48.4Z"/><path d="M84.708,104.277c-.236-3.712.888-8.837,3.159-11.783C96.925,80.742,100.94,70.56,99.044,58.028A45.664,45.664,0,0,0,97.6,51.574a3,3,0,0,0-2.874-2.117H25.572a3.024,3.024,0,0,0-2.961,2.5,28.024,28.024,0,0,0-.449,5.986c.078,2.534.522,6.266.512,8.7-.021,8.66-7.515,12.218-7.659,14.975-.236,4.526,5.08,3.112,6.955,9.515,2.381,8.128-1.031,17.4,10.046,16.826,1.744-.07,3.918-.378,6.1-.551a1.1,1.1,0,0,1,.151-.11c3.566-1.651,13.331-6.478,15.655-8.958,2.635-2.813,6.513-13.761,7.784-17.742a1.25,1.25,0,0,1,2.382.761c-.194.607-4.785,14.893-8.341,18.69-2.018,2.153-8.03,5.377-12.2,7.466a6.184,6.184,0,0,1,3.148,1.413c1.963,1.825,3.543,9.79,4.16,13.315a2.043,2.043,0,0,0,2.016,1.689H86.137a2.044,2.044,0,0,0,1.969-2.612A88.233,88.233,0,0,1,84.708,104.277ZM52.089,75.236,48.1,77.712a28.627,28.627,0,0,0-10.629,11.77c-3.078,6.307-3.78,7.975-3.924,8.408a1.252,1.252,0,0,1-1.186.856A1.253,1.253,0,0,1,31.178,97.1c.109-.326.439-1.317,4.05-8.715a31.117,31.117,0,0,1,11.556-12.8l3.986-2.476a1.25,1.25,0,1,1,1.319,2.124Z"/><path d="M59.812,23.811A1.25,1.25,0,0,1,58.8,21.826h0c.234-.324,5.645-8.06-1.248-18.187A1.25,1.25,0,0,1,59.62,2.233c7.915,11.628,1.27,20.973,1.2,21.066A1.245,1.245,0,0,1,59.812,23.811Z"/></svg>