<svg id="Solid" xmlns="http://www.w3.org/2000/svg" viewBox="0 0 128 128"><title>apartment, building, construction, institution, department, university, museum</title><path d="M4.43,84.551H39.71v-6.1H8.38a1.875,1.875,0,0,0-1.44.79l-3.11,4.21A.713.713,0,0,0,4.43,84.551Z"/><path d="M124.17,83.451l-3.11-4.21a1.875,1.875,0,0,0-1.44-.79H88.3v6.1h35.27A.71.71,0,0,0,124.17,83.451Z"/><path d="M122.38,87.051H88.3v16.89h34.08ZM96.89,98.4h-5.1v-4.13a2.522,2.522,0,0,1,2.52-2.52h.06a2.522,2.522,0,0,1,2.52,2.52Zm9.95,0h-5.1v-4.13a2.522,2.522,0,0,1,2.52-2.52h.06a2.522,2.522,0,0,1,2.52,2.52Zm9.95,0h-5.1v-4.13a2.522,2.522,0,0,1,2.52-2.52h.06a2.522,2.522,0,0,1,2.52,2.52Z"/><path d="M39.71,103.941V87.051H5.63v16.89Zm-8.6-9.67a2.522,2.522,0,0,1,2.52-2.52h.06a2.522,2.522,0,0,1,2.52,2.52V98.4h-5.1Zm-9.95,0a2.522,2.522,0,0,1,2.52-2.52h.06a2.522,2.522,0,0,1,2.52,2.52V98.4h-5.1Zm-9.95,0a2.522,2.522,0,0,1,2.52-2.52h.06a2.522,2.522,0,0,1,2.52,2.52V98.4h-5.1Z"/><path d="M41.446,66.425h45.11a.711.711,0,0,0,.288-1.369L65.25,53.908V45.586c1.273,1,3.36,2.129,5.506,1.168a7.141,7.141,0,0,1,4.343-.735.671.671,0,0,0,.8-.664V39.8a.668.668,0,0,0-.46-.643,6.657,6.657,0,0,0-4.686.647c-2.146.961-4.233-.172-5.506-1.168V36.469a1.25,1.25,0,1,0-2.5,0v17.44L41.159,65.056A.711.711,0,0,0,41.446,66.425ZM64,57.052a3.138,3.138,0,1,1-3.138,3.138A3.138,3.138,0,0,1,64,57.052Z"/><path d="M126.687,124.611H122.38v-18.17H88.3v18.17H85.8V68.921H42.21v55.69h-2.5v-18.17H5.63v18.17h-4.3a1.25,1.25,0,1,0,0,2.5H126.687a1.25,1.25,0,0,0,0-2.5Zm-15.437-14.5a3.15,3.15,0,0,1,3.15,3.15v11.35h-6.3v-11.35A3.15,3.15,0,0,1,111.25,110.111Zm-16.48,3.15a3.155,3.155,0,0,1,6.31,0v11.35H94.77Zm-13.33,11.35H74.69v-14.66a3.375,3.375,0,0,1,6.75,0Zm-.13-23.7H74.55V88.681a3.38,3.38,0,1,1,6.76,0Zm-7.23-25.85a3.155,3.155,0,1,1,6.31,0v5.07H74.08Zm-4.59,49.55H58.56v-12.57a5.465,5.465,0,0,1,10.93,0Zm-8.61-49.55a3.155,3.155,0,1,1,6.31,0v5.07H60.88Zm-2.46,15.71a5.47,5.47,0,0,1,10.94,0v10.14H58.42ZM47.68,75.061a3.15,3.15,0,1,1,6.3,0v5.07h-6.3Zm-.99,13.62a3.38,3.38,0,0,1,6.76,0v12.23H46.69Zm.14,21.27a3.38,3.38,0,0,1,6.76,0v14.66H46.83Zm-16.75.16a3.15,3.15,0,0,1,3.15,3.15v11.35H26.92v-11.35A3.152,3.152,0,0,1,30.08,110.111Zm-16.48,3.15a3.15,3.15,0,0,1,6.3,0v11.35H13.6Z"/></svg>