<svg id="Solid" xmlns="http://www.w3.org/2000/svg" viewBox="0 0 128 128"><title>avatar-02_24</title><rect x="73.092" y="51.158" width="4.761" height="5.712" rx="2.38" ry="2.38"/><rect x="50.069" y="51.158" width="4.761" height="5.712" rx="2.38" ry="2.38" transform="translate(104.899 108.028) rotate(180)"/><path d="M72.154,55.313a1,1,0,0,1-1-.921,3.307,3.307,0,0,1,.83-2.405,5.626,5.626,0,0,1,7.425-.593,3.3,3.3,0,0,1,1.2,2.239,1,1,0,1,1-1.994.159,1.322,1.322,0,0,0-.5-.874,3.653,3.653,0,0,0-4.609.368,1.335,1.335,0,0,0-.357.948,1,1,0,0,1-.918,1.076Z"/><path d="M55.766,55.313c-.027,0-.054,0-.08,0a1,1,0,0,1-.918-1.076,1.33,1.33,0,0,0-.358-.948,3.289,3.289,0,0,0-2.233-1.006c-1.47-.125-2.794.573-2.876,1.518a1,1,0,1,1-1.992-.171c.18-2.092,2.389-3.551,5.028-3.341a5.245,5.245,0,0,1,3.594,1.7,3.3,3.3,0,0,1,.831,2.405A1,1,0,0,1,55.766,55.313Z"/><path d="M72.444,46.853a18.938,18.938,0,0,1,6.209.183c1.444.394,2.047.069,2.291-.343a.906.906,0,0,0-.356-1.2,11.2,11.2,0,0,0-8.671-1.1,1.266,1.266,0,0,0,.527,2.46Z"/><path d="M56.005,44.393a11.2,11.2,0,0,0-8.671,1.1.906.906,0,0,0-.356,1.2c.244.412.847.737,2.291.343a18.938,18.938,0,0,1,6.209-.183,1.266,1.266,0,0,0,.527-2.46Z"/><path d="M102.422,109.29A43.613,43.613,0,0,0,86.9,95.888a31.344,31.344,0,0,0-6.862-2.937l-.3-.1c-3.884-1.261-6.73-2.2-7.542-7.653,5.734-2.286,12.867-7.744,15.659-16.257a6.968,6.968,0,0,0,1.362.137,11.1,11.1,0,0,0,9.529-6.687c1.32-3.537.669-6.824-1.646-8.818a55.691,55.691,0,0,0,1.8-7.608,5.365,5.365,0,0,0,2.951-1.742,9,9,0,0,0,1.9-6.592C102.6,21.215,85,2.132,64.045,2.132c-.024,0-.047,0-.07,0-20.948,0-38.551,19.083-39.718,35.5a9,9,0,0,0,1.9,6.593,5.348,5.348,0,0,0,2.951,1.738,57.4,57.4,0,0,0,1.807,7.592c-2.343,1.988-3,5.285-1.669,8.84a11.093,11.093,0,0,0,5.763,5.8,9.271,9.271,0,0,0,3.791.876,7.041,7.041,0,0,0,1.334-.137C42.925,77.448,50.057,82.909,55.8,85.2c-.81,5.443-3.607,6.373-7.756,7.73a40.231,40.231,0,0,0-4.836,1.833h0l-.029.013a19.613,19.613,0,0,0-2.039,1.09,43.518,43.518,0,0,0-15.572,13.428,6.08,6.08,0,0,0-1.483,4.955c.524,2.372,2.969,3.919,4.763,4.878,6.412,3.415,21.3,6.947,35.12,6.947,13.855,0,28.767-3.532,35.181-6.948,1.793-.958,4.237-2.506,4.762-4.877A6.081,6.081,0,0,0,102.422,109.29Zm-5.552-47.6c-1.143,3.017-5.217,5.83-8.454,5.316.485-1.872.912-3.908,1.269-6.086A5.22,5.22,0,0,1,92.917,58.9a1,1,0,1,0-.2-1.99,6.854,6.854,0,0,0-2.588.955q.242-1.92.417-3.959a7.9,7.9,0,0,1,4.779.8l.062.038C97.418,56.134,97.974,58.728,96.87,61.689ZM35.836,66.373a9.163,9.163,0,0,1-4.714-4.682c-1.124-3-.547-5.606,1.547-6.986a7.9,7.9,0,0,1,4.769-.8q.175,2.04.421,3.956a6.87,6.87,0,0,0-2.581-.951,1,1,0,1,0-.206,1.99,5.339,5.339,0,0,1,3.229,2.01c.343,2.133.772,4.175,1.273,6.1A6.7,6.7,0,0,1,35.836,66.373Zm5.922,1.081a62.492,62.492,0,0,1-1.518-7.073c0-.019-.005-.04-.009-.059-.371-2.277-.664-4.76-.869-7.376a84.115,84.115,0,0,1-.191-10.707c1.079,1.394,3.232,2.547,7.575,1.727a9.028,9.028,0,0,0,6.819-4.91c2.119,2.731,6.807,4.2,10.4,4.2,3.621,0,8.344-1.468,10.478-4.208a9.146,9.146,0,0,0,6.817,4.92c4.3.809,6.467-.307,7.556-1.676a85.634,85.634,0,0,1-.2,10.656c-.2,2.606-.494,5.093-.861,7.39a64.716,64.716,0,0,1-1.525,7.117c-2.455,8.718-9.87,14.153-15.467,16.157a21.471,21.471,0,0,1-6.8,1.3,21,21,0,0,1-6.733-1.3C51.628,81.605,44.212,76.17,41.758,67.454ZM48.665,94.83c4.266-1.4,7.98-2.618,9.056-8.972a21.977,21.977,0,0,0,6.244,1.055,22.513,22.513,0,0,0,6.3-1.058c.962,5.676,4.069,7.274,7.556,8.47-6.673,9.133-18.988,9.635-25.9,7.627-4.15-1.206-6.851-3.33-7.267-5.646C46.037,95.7,47.371,95.253,48.665,94.83Z"/><path d="M65.415,62.973a1,1,0,0,1-.876-.516,1.234,1.234,0,0,0-1.159,0,1,1,0,0,1-1.875-.485c0-1.266,1.8-1.66,2.46-1.66s2.45.394,2.45,1.66A1,1,0,0,1,65.415,62.973Z"/><path d="M63.979,69.075a7.914,7.914,0,0,1-3.653-.944,1,1,0,0,1,.917-1.777,5.5,5.5,0,0,0,5.424,0,1,1,0,1,1,.935,1.768A7.7,7.7,0,0,1,63.979,69.075Z"/></svg>