<svg id="Solid" xmlns="http://www.w3.org/2000/svg" viewBox="0 0 128 128"><title>avatar-03</title><rect x="73.332" y="48.859" width="4.698" height="5.047" rx="2.229" ry="2.229" transform="translate(151.363 102.766) rotate(180)"/><rect x="49.88" y="48.859" width="4.698" height="5.047" rx="2.229" ry="2.229"/><path d="M64.059,67.846c-.232,0-.452,0-.657-.008-4.676-.109-5.163-1.25-5.322-1.625a1,1,0,0,1,1.772-.916c1.1.743,7.167.741,8.2-.008a1,1,0,0,1,1.747.966C69.153,67.6,66.166,67.846,64.059,67.846ZM59.92,65.428v0ZM68,65.386h0Z"/><path d="M64.04,60.7c-.027,0-2.75-.044-2.75-1.62a1,1,0,0,1,1.833-.554,2.451,2.451,0,0,0,1.814,0,1,1,0,0,1,1.833.554C66.77,60.657,64.067,60.7,64.04,60.7Z"/><path d="M80.919,51.071a1.006,1.006,0,0,1-.524-.148,8.839,8.839,0,0,0-4.286-1.532,4.1,4.1,0,0,0-3.3,1.267,1,1,0,0,1-1.62-1.173,5.925,5.925,0,0,1,4.856-2.094h.084a10.68,10.68,0,0,1,5.314,1.829,1,1,0,0,1-.525,1.851Z"/><path d="M83.489,49.6a.994.994,0,0,1-.628-.223c-3.921-3.172-9.822-3.347-12.329-2.075a1,1,0,1,1-.9-1.784c3-1.522,9.707-1.566,14.491,2.3a1,1,0,0,1-.63,1.777Z"/><path d="M46.991,51.071a1,1,0,0,1-.525-1.851,10.68,10.68,0,0,1,5.313-1.829,6.106,6.106,0,0,1,4.941,2.094A1,1,0,0,1,55.1,50.658a4.04,4.04,0,0,0-3.3-1.267,8.839,8.839,0,0,0-4.285,1.532A1,1,0,0,1,46.991,51.071Z"/><path d="M44.421,49.6a1,1,0,0,1-.63-1.777c4.785-3.871,11.489-3.827,14.491-2.3a1,1,0,1,1-.9,1.784c-2.5-1.269-8.406-1.1-12.329,2.075A.994.994,0,0,1,44.421,49.6Z"/><path d="M104.76,108.713c-1.153-1.838-7.6-11.334-21.482-17.769-.44-.2-.882-.4-1.319-.6-3.278-1.474-6.043-2.725-7.358-5.66l0-.006a9.77,9.77,0,0,1-.761-3.189C82.857,77.01,86.83,67.7,88.441,62.2a7.041,7.041,0,0,0,1.357.143,7.511,7.511,0,0,0,3.327-.792,9.445,9.445,0,0,0,4.671-5.5c1.51-4.635.177-8.7-3.3-10.109a5.934,5.934,0,0,0-1.426-.366,39.376,39.376,0,0,0-.3-6.526,4.011,4.011,0,0,0,.718-1.975l0-.012a127.172,127.172,0,0,0-.14-17.327c-.013-.13-.041-.256-.062-.384l3.988-1.092a54.263,54.263,0,0,1,1.313,11.046,3.241,3.241,0,0,0-2.214,3.085,3.194,3.194,0,0,0,.488,1.688c-.479,1.3-1.589,4.668-1.251,7.2a2.163,2.163,0,0,0,1.617,1.939,10.418,10.418,0,0,0,2.448.3,9.806,9.806,0,0,0,2.541-.334,2.154,2.154,0,0,0,1.563-1.974c.219-2.386-.911-5.851-1.38-7.162a3.268,3.268,0,0,0,.474-1.707,3.211,3.211,0,0,0-2.285-3.061A55.4,55.4,0,0,0,99.2,17.733l1.377-.378a3.35,3.35,0,0,0,2.736-3.108,3.352,3.352,0,0,0-2.782-3.074L87.37,7.769c-7.709-1.992-16.082-4.156-21.3-5.507a8.126,8.126,0,0,0-4.112.035c-4.366,1.195-10.953,3-17.5,4.8-6.32,1.736-12.6,3.462-16.819,4.617a3.355,3.355,0,0,0-2.743,3.12A3.345,3.345,0,0,0,27.685,17.9l7.192,1.861a126.129,126.129,0,0,0-.137,17.3A3.992,3.992,0,0,0,35.4,38.97a41.08,41.08,0,0,0-.306,6.583,6.419,6.419,0,0,0-1.577.381c-3.493,1.417-4.825,5.483-3.315,10.115a9.443,9.443,0,0,0,4.671,5.5,7.514,7.514,0,0,0,3.327.792,7.088,7.088,0,0,0,1.369-.146c2.755,9.268,7.778,15.91,14.591,19.294a9.9,9.9,0,0,1-.7,3.04.26.26,0,0,0-.01.025c-1.29,3.016-4.08,4.277-7.391,5.773-.447.2-.9.405-1.346.615-13.908,6.49-20.332,15.94-21.479,17.768a6.432,6.432,0,0,0-1.149,5.114c.619,2.391,3,3.979,5.241,5.217a38.2,38.2,0,0,0,5.31,2.283,1.018,1.018,0,0,0,.166.058c5.821,2.063,16.194,4.7,31.188,4.7H64c14.993,0,25.366-2.641,31.188-4.7a1.018,1.018,0,0,0,.166-.058,38.239,38.239,0,0,0,5.311-2.283c2.243-1.238,4.621-2.826,5.24-5.217A6.439,6.439,0,0,0,104.76,108.713ZM56.086,82.341a24.992,24.992,0,0,0,8,1.78,24.2,24.2,0,0,0,7.829-1.775,11.454,11.454,0,0,0,.675,2.68c-1.776,2.112-4.857,3.325-8.584,3.325s-6.728-1.236-8.544-3.468A11.535,11.535,0,0,0,56.086,82.341ZM38.45,45.7a6.906,6.906,0,0,0-1.354-.216,38.365,38.365,0,0,1,.176-5.237,7.19,7.19,0,0,0,2.063.048c.825-.066,1.512-.1,2.174-.1.531-.007,1.084,0,1.65.022A26.9,26.9,0,0,0,38.45,45.7ZM87.327,40.21c.519.02,1.046.049,1.564.088a7.334,7.334,0,0,0,2.006-.041,36.906,36.906,0,0,1,.178,5.223,7.119,7.119,0,0,0-1.531.222,27.086,27.086,0,0,0-4.7-5.476C85.693,40.194,86.524,40.187,87.327,40.21Zm8.567,15.224a7.408,7.408,0,0,1-3.654,4.324,5.382,5.382,0,0,1-3.291.509,42.5,42.5,0,0,0,.826-5.552A5.555,5.555,0,0,1,93.4,52.94a1,1,0,0,0-.067-2,7.862,7.862,0,0,0-3.355,1.018c.088-1.508.141-2.981.17-4.341a6.551,6.551,0,0,1,1.868-.138,5.188,5.188,0,0,1,1.712.308C96.569,48.94,96.863,52.457,95.894,55.434ZM35.76,59.758a7.406,7.406,0,0,1-3.654-4.326c-.969-2.975-.675-6.492,2.171-7.647a5.82,5.82,0,0,1,1.876-.314,5.973,5.973,0,0,1,1.7.145c0,.239.007.485.017.725v.17c.03.978.081,2.136.15,3.33,0,.033.005.077.009.12a7.859,7.859,0,0,0-3.358-1.02,1.017,1.017,0,0,0-1.028.964A1,1,0,0,0,34.6,52.94a5.561,5.561,0,0,1,3.621,1.769,42.716,42.716,0,0,0,.82,5.559A5.37,5.37,0,0,1,35.76,59.758Zm5.512,1.158-.048-.172a.338.338,0,0,0-.008-.034.357.357,0,0,0-.01-.035,36.27,36.27,0,0,1-1.025-6.47c-.069-.789-.118-1.567-.157-2.326a.822.822,0,0,0-.012-.11c-.069-1.225-.118-2.359-.147-3.288V48.3c-.012-.333-.017-.646-.021-.93l0-.157a21.6,21.6,0,0,1,6.4-6.783c2.335.236,4.7.613,6.983.982A68.979,68.979,0,0,0,64.115,42.6,69.834,69.834,0,0,0,74.98,41.417c2.23-.359,4.531-.727,6.81-.963a21.612,21.612,0,0,1,6.367,6.769c-.116,5.994-.6,10.768-1.364,13.454l-.008.03-.011.041-.141.521c-1.477,5.225-5.291,14.6-14.237,18.714l-.05.022a23.81,23.81,0,0,1-8.261,2.116A24.344,24.344,0,0,1,55.642,80l-.017-.007C48.859,76.881,43.9,70.286,41.272,60.916ZM54.49,86.808a13.128,13.128,0,0,0,9.515,3.543c4.038,0,7.373-1.21,9.574-3.426a10.57,10.57,0,0,0,2.8,2.751c-.225,4.247-3.158,12.249-6.984,17.7a76.713,76.713,0,0,0-1.958-7.94,9.751,9.751,0,0,0,1.777-2.161,6.938,6.938,0,0,0,3.409.887c.263,0,.529-.013.8-.04a1,1,0,0,0-.2-1.99,5.135,5.135,0,0,1-3.756-1.059,14.451,14.451,0,0,1-1.775-1.649C66.645,92.333,65.558,91.2,64,91.2s-2.64,1.132-3.69,2.227a14.451,14.451,0,0,1-1.775,1.649,5.135,5.135,0,0,1-3.756,1.059,1,1,0,0,0-.2,1.99,7.063,7.063,0,0,0,4.208-.848,9.874,9.874,0,0,0,1.775,2.166A75.7,75.7,0,0,0,58.6,107.4c-3.945-5.638-6.753-13.625-6.995-17.725A10.563,10.563,0,0,0,54.49,86.808ZM24.028,113.326a4.594,4.594,0,0,1,.908-3.551A44.8,44.8,0,0,1,36.468,98.086a54.525,54.525,0,0,0-2.021,5.818,15.6,15.6,0,0,0-6.312,4.846,1,1,0,1,0,1.64,1.142,13.263,13.263,0,0,1,4-3.432c-.4,1.684-.7,3.293-.939,4.806A8.638,8.638,0,0,0,29.175,115a1,1,0,0,0,1.76.951,7.812,7.812,0,0,1,1.539-2.026c-.225,2-.328,3.724-.366,5.08a32.8,32.8,0,0,1-3.809-1.708C25.646,115.83,24.369,114.643,24.028,113.326Zm79.944,0c-.341,1.317-1.618,2.5-4.27,3.966A32.585,32.585,0,0,1,95.892,119c-.038-1.356-.141-3.082-.366-5.08a7.846,7.846,0,0,1,1.539,2.026,1,1,0,0,0,1.76-.951,8.639,8.639,0,0,0-3.656-3.73c-.235-1.513-.538-3.122-.939-4.807a13.28,13.28,0,0,1,3.995,3.433,1,1,0,1,0,1.64-1.142,15.6,15.6,0,0,0-6.312-4.846,54.393,54.393,0,0,0-2.029-5.838,44.847,44.847,0,0,1,11.541,11.709A4.6,4.6,0,0,1,103.972,113.326Z"/></svg>