<svg id="Solid" xmlns="http://www.w3.org/2000/svg" viewBox="0 0 128 128"><title>avatar-03_7</title><rect x="73.082" y="47.067" width="4.749" height="5.671" rx="2.374" ry="2.374"/><rect x="50.14" y="47.067" width="4.749" height="5.671" rx="2.374" ry="2.374" transform="translate(105.028 99.805) rotate(180)"/><path d="M46.009,41.6c2.958-1.622,7.858-2,11.978-1.064a1.373,1.373,0,0,1,1,1.688c-.156.858-.639,1.513-1.566,1.446-2.164-.158-6.053-.675-8.731-.047-2,.469-2.912.135-3.232-.343C44.926,42.487,45.455,41.907,46.009,41.6Z"/><path d="M81.991,41.6c-2.958-1.622-7.858-2-11.978-1.064a1.373,1.373,0,0,0-1,1.688c.156.858.639,1.513,1.566,1.446,2.164-.158,6.053-.675,8.731-.047,2,.469,2.912.135,3.232-.343C83.074,42.487,82.545,41.907,81.991,41.6Z"/><path d="M79.471,49.608a1,1,0,0,1-.827-.436c-.446-.653-1.923-1.081-3.485-1.008a3.461,3.461,0,0,0-2.327.693,1,1,0,1,1-1.744-.978c.8-1.424,3.052-1.673,3.984-1.713,1.846-.075,4.2.37,5.224,1.879a1,1,0,0,1-.825,1.563Z"/><path d="M48.469,49.608a1,1,0,0,1-.825-1.563c1.029-1.509,3.382-1.953,5.223-1.879.933.04,3.187.289,3.986,1.713a1,1,0,0,1-1.745.978,3.462,3.462,0,0,0-2.328-.693c-1.58-.066-3.04.356-3.484,1.008A1,1,0,0,1,48.469,49.608Z"/><path d="M63.97,66.509a8.455,8.455,0,0,1-4.907-1.463A1,1,0,0,1,60.3,63.472a7.027,7.027,0,0,0,7.348,0,1,1,0,0,1,1.232,1.574A8.454,8.454,0,0,1,63.97,66.509Z"/><path d="M63.96,58.868c-.032,0-3.25-.077-3.25-1.8a1,1,0,0,1,1.877-.481,4.382,4.382,0,0,0,1.373.281,4.335,4.335,0,0,0,1.363-.281,1,1,0,0,1,1.877.481C67.2,58.791,63.992,58.868,63.96,58.868Z"/><path d="M94.1,97.246a1.024,1.024,0,0,0-.37-.349A51.055,51.055,0,0,0,80.6,88.2c-.421-.2-.845-.386-1.269-.575-3.534-1.579-6.6-2.962-6.823-8.1a30.655,30.655,0,0,0,5.318-3.182,21.212,21.212,0,0,0,8.313-12.691,6.881,6.881,0,0,0,1.248.121,7.293,7.293,0,0,0,3.217-.765A9.068,9.068,0,0,0,95.1,57.749c1.33-4.083.346-7.7-2.415-9.309.465-2.026,1.276-6.025,1.534-7.688a91.675,91.675,0,0,1,4.423-9.8c2.158-4.288,3.863-7.676,3.5-10.533-.931-7.263-18.4-18.393-38.173-18.393-19.739,0-37.182,11.13-38.113,18.393-.364,2.857,1.341,6.245,3.5,10.533a91.743,91.743,0,0,1,4.423,9.8c.25,1.621,1.021,5.65,1.477,7.691-2.767,1.618-3.747,5.23-2.417,9.305a9.065,9.065,0,0,0,4.5,5.268,7.3,7.3,0,0,0,3.214.763,6.761,6.761,0,0,0,1.245-.122A21.268,21.268,0,0,0,50.11,76.349a30.544,30.544,0,0,0,5.327,3.19c-.23,5.131-3.3,6.513-6.835,8.091-.422.187-.845.377-1.265.572l0,0-.008,0a50.883,50.883,0,0,0-13.26,8.822,30.247,30.247,0,0,0-5.053,5.9,5.639,5.639,0,0,0-1,4.495c.544,2.1,2.6,3.473,4.544,4.542,1.336.737,8.523,4.359,22.128,5.62a19.163,19.163,0,0,0-1.438,5.347,2.722,2.722,0,0,0,2.7,3.04,2.768,2.768,0,0,0,.68-.086,10.736,10.736,0,0,0,7.344-6.45,10.759,10.759,0,0,0,7.359,6.451,2.724,2.724,0,0,0,3.374-2.955,18.879,18.879,0,0,0-1.442-5.357c13.6-1.25,20.786-4.873,22.122-5.61,1.941-1.069,4-2.445,4.547-4.542a5.652,5.652,0,0,0-.994-4.5A30.95,30.95,0,0,0,94.1,97.246ZM47.583,90.308c.728.686,2.236,2.152,4.227,4.342a116.333,116.333,0,0,1,9.464,11.959c-3.976-1.682-8.573-3.489-13.717-5.389-4.7-1.737-8.729-3.132-10.862-3.86A49.322,49.322,0,0,1,47.583,90.308ZM64,107.078a119.325,119.325,0,0,0-9.226-12.1H73.229A119.564,119.564,0,0,0,64,107.078ZM80.5,101.2a.963.963,0,0,0-.206.076c-5.109,1.891-9.651,3.679-13.55,5.333A117.014,117.014,0,0,1,76.1,94.72a.881.881,0,0,0,.108-.12c1.949-2.15,3.429-3.6,4.15-4.288a49.875,49.875,0,0,1,10.905,7.064C89.127,98.1,85.164,99.477,80.5,101.2ZM93.2,57.13a7.016,7.016,0,0,1-3.473,4.088,5.152,5.152,0,0,1-3.115.491c.314-1.5.592-3.2.841-5.181a4.01,4.01,0,0,1,2.937-1.491,1,1,0,0,0,.07-2,5.7,5.7,0,0,0-2.691.685c.125-1.232.245-2.563.359-4.014a5.6,5.6,0,0,1,3.028.2C93.84,50.992,94.117,54.316,93.2,57.13ZM27.842,20.675c.729-5.7,16.487-16.647,36.128-16.647,19.675,0,35.459,10.949,36.188,16.647.287,2.251-1.3,5.4-3.3,9.38a98.111,98.111,0,0,0-4.235,9.258c-1.222-.283-3.651-.822-6.748-1.4a127.441,127.441,0,0,0-21.9-2.387,127.207,127.207,0,0,0-21.914,2.4c-3.063.573-5.465,1.107-6.678,1.387a98.111,98.111,0,0,0-4.235-9.258C29.138,26.071,27.555,22.926,27.842,20.675ZM38.22,61.219a7.021,7.021,0,0,1-3.479-4.091c-.918-2.812-.641-6.136,2.067-7.232a5.588,5.588,0,0,1,3-.189c.116,1.46.235,2.793.36,4.02a5.78,5.78,0,0,0-2.692-.688,1,1,0,0,0-.956,1.028,1.02,1.02,0,0,0,1.026.971,3.912,3.912,0,0,1,2.939,1.49c.242,1.926.521,3.632.843,5.18A5.138,5.138,0,0,1,38.22,61.219Zm5.264,1a61.056,61.056,0,0,1-1.051-6.238c-.245-1.985-.465-4.286-.676-7.035,0-.013-.009-.024-.011-.037a40.785,40.785,0,0,1,1.294-9.127,123.511,123.511,0,0,1,20.93-2.25,123.592,123.592,0,0,1,20.921,2.241,40.633,40.633,0,0,1,1.292,9.169v0h0c-.208,2.722-.429,5.023-.675,7.036a58.733,58.733,0,0,1-1.053,6.236c-1.334,5.8-3.527,9.311-7.823,12.533a28.523,28.523,0,0,1-5.545,3.246,18.093,18.093,0,0,1-7.117,1.686A17.992,17.992,0,0,1,56.859,78a28.285,28.285,0,0,1-5.549-3.253C47.024,71.534,44.83,68.02,43.484,62.215Zm13.9,18.152a18.891,18.891,0,0,0,6.585,1.312,18.827,18.827,0,0,0,6.594-1.317c.551,5.718,4.39,7.5,7.851,9.044-.789.771-1.968,1.967-3.434,3.573H52.988c-1.475-1.609-2.661-2.8-3.456-3.575C53,87.86,56.832,86.078,57.385,80.367ZM29.948,106.92a3.818,3.818,0,0,1,.762-2.936,28.761,28.761,0,0,1,4.3-5.084c1.543.52,6.049,2.057,11.515,4.071,2.77,5.044,7.059,8.23,12.049,9.019a17.171,17.171,0,0,0-2.893,3.678c-10.659-.9-18.579-3.483-22.155-5.456C31.328,109,30.226,107.988,29.948,106.92Zm68.046,0c-.278,1.069-1.382,2.086-3.577,3.294-3.577,1.975-11.5,4.557-22.148,5.446a16.987,16.987,0,0,0-2.888-3.67c4.973-.791,9.252-3.965,12.019-8.988,5.5-2.029,9.976-3.556,11.549-4.082a28.461,28.461,0,0,1,4.292,5.069A3.811,3.811,0,0,1,97.994,106.918Z"/></svg>