<svg id="Solid" xmlns="http://www.w3.org/2000/svg" viewBox="0 0 128 128"><title>avatar-01_2</title><path d="M68.92,42.022a1,1,0,0,1-.313-1.95,49.547,49.547,0,0,1,11.262-1.283,8.38,8.38,0,0,1,3.792,1.441,1,1,0,0,1-1.222,1.583,6.482,6.482,0,0,0-2.816-1.04,48.32,48.32,0,0,0-10.389,1.2A1.011,1.011,0,0,1,68.92,42.022Z"/><path d="M42.957,42.186a1,1,0,0,1-.684-1.731,4.853,4.853,0,0,1,.459-.36,7.711,7.711,0,0,1,3.359-1.3,49.84,49.84,0,0,1,11.291,1.281,1,1,0,0,1-.624,1.9,48.519,48.519,0,0,0-10.418-1.2,5.657,5.657,0,0,0-2.457.957,3.241,3.241,0,0,0-.262.2A.991.991,0,0,1,42.957,42.186Z"/><path d="M62.99,56.331a4.013,4.013,0,0,0,2.843-1.1,1.009,1.009,0,0,0-.178-1.41.992.992,0,0,0-1.4.177,2.656,2.656,0,0,1-1.269.334A2.685,2.685,0,0,1,61.725,54a1,1,0,0,0-1.578,1.229A4.013,4.013,0,0,0,62.99,56.331Z"/><path d="M58.786,63.964a13.58,13.58,0,0,0,4.2.527,13.629,13.629,0,0,0,4.231-.537,4.948,4.948,0,0,0,.751-.4,1,1,0,1,0-1.14-1.642c-.092.058-.26.144-.3.164a12.013,12.013,0,0,1-3.54.413,11.358,11.358,0,0,1-3.48-.39c-.087-.039-.314-.159-.341-.17a1,1,0,0,0-1.3,1.521A4.964,4.964,0,0,0,58.786,63.964Z"/><path d="M102.677,109.12c-1.119-1.782-7.383-10.994-20.913-17.294-.528-.248-1.058-.484-1.583-.718a21.028,21.028,0,0,1-4.837-2.66,7.076,7.076,0,0,1-2.182-2.99,9.351,9.351,0,0,1-.574-2.694A43.475,43.475,0,0,0,79.51,77c.86-.83,1.6-1.547,2.095-1.93,5.392-4.208,6.055-10.165,6.289-14.9a6.316,6.316,0,0,0,.867.074c3.564,0,6.4-3.129,7.7-6.544a8.559,8.559,0,0,0-.105-6.665,7.053,7.053,0,0,0-2.107-2.612,5.987,5.987,0,0,0,1.605-1.577c1.939-2.76,2.339-7.447,1.1-12.857l-.095-.43C92.862,11.378,82.275,5.861,74.033,4.45,67.186,1.07,57.607,1.583,48.368,5.834c-9,4.14-15.4,10.783-17.119,17.768-.321,1.3-.645,2.529-.952,3.694-1.3,4.944-2.332,8.849-1.552,12.19A9.5,9.5,0,0,0,31.7,44.575a6.427,6.427,0,0,0-2.187,2.579,8.458,8.458,0,0,0,.009,6.552c1.3,3.412,4.129,6.541,7.693,6.54a6.317,6.317,0,0,0,.868-.074c.23,4.7.884,10.68,6.29,14.9.491.382,1.234,1.1,2.094,1.929a43.472,43.472,0,0,0,6.919,5.763,9.3,9.3,0,0,1-.6,2.757,6.953,6.953,0,0,1-2.154,2.93A21.014,21.014,0,0,1,45.8,91.108c-.525.234-1.055.47-1.581.717-13.532,6.3-19.8,15.513-20.915,17.3a6.281,6.281,0,0,0-1.119,5c.605,2.337,2.925,3.885,5.111,5.089,1.547.859,10.1,5.209,26.545,6.5l.065,0c.009,0,.016,0,.025,0h.009c.871.076,1.759.136,2.666.185,2.082.114,4.23.171,6.385.171s4.3-.057,6.384-.171c.912-.049,1.8-.109,2.667-.185h.009a.185.185,0,0,0,.023,0l.056,0c16.456-1.294,25.009-5.644,26.553-6.5,2.189-1.2,4.509-2.753,5.114-5.09A6.285,6.285,0,0,0,102.677,109.12ZM71.232,123.944a.474.474,0,0,1-.931-.112,110.937,110.937,0,0,0-3.949-24.249,9.784,9.784,0,0,0,1.722-2.129,6.7,6.7,0,0,0,4.078.832,1,1,0,1,0-.2-1.989,4.8,4.8,0,0,1-3.619-1.056,13.8,13.8,0,0,1-1.724-1.628C65.58,92.526,64.52,91.4,62.99,91.4a4.3,4.3,0,0,0-3,1.573c-.2.2-.409.42-.619.642a14.179,14.179,0,0,1-1.729,1.629A4.8,4.8,0,0,1,54.032,96.3a1,1,0,1,0-.2,1.989,7.351,7.351,0,0,0,.778.041,6.635,6.635,0,0,0,3.3-.867,9.913,9.913,0,0,0,1.722,2.109,111.348,111.348,0,0,0-3.944,24.263.475.475,0,0,1-.932.112c-1.929-6.8-4.432-24.156-2.536-34.233a9.018,9.018,0,0,0,1.676-1.972c2.253,2.354,6.13,3.232,9.1,3.232,2.948,0,6.808-.892,9.072-3.284A9.1,9.1,0,0,0,73.756,89.7C75.652,99.751,73.157,117.129,71.232,123.944Zm-.543-40.173a11.11,11.11,0,0,0,.428,1.876C69.583,87.93,66,88.971,62.99,88.971c-3.031,0-6.642-1.005-8.163-3.232a10.939,10.939,0,0,0,.46-1.969,18.376,18.376,0,0,0,15.4,0Zm-30.9-28.982c-.038-.616-.082-1.267-.127-1.935l-.544-7.986A18.906,18.906,0,0,0,43.6,41.953a.861.861,0,0,1,.333-.259c2.814-2.235,6.086-2.845,9.549-3.491,5.88-1.1,12.543-2.339,16.793-12.56a2.481,2.481,0,0,1,1.985-1.555,2.831,2.831,0,0,1,2.625,1.092c1.225,1.556,2.041,4,2.9,6.595,1.349,4.046,2.878,8.633,6.488,11.713a7.426,7.426,0,0,0,2.577,1.437c-.061.87-.142,2.088-.234,3.454l-.187,2.8c-.089,1.248-.168,2.495-.237,3.626-.2,1.708-1.917,4.634-4.351,6.4a4.543,4.543,0,0,1-5.277-.05c-2.458-1.779-7.316-3.68-13.577-3.68a29,29,0,0,0-7.927,1.09,18.584,18.584,0,0,0-5.652,2.592,4.54,4.54,0,0,1-5.277.047C41.768,59.5,39.977,56.511,39.785,54.789ZM94.585,53c-1.124,2.961-3.616,5.682-6.591,5.169.045-.767.112-1.89.194-3.187a1.422,1.422,0,0,0,.012-.147l0-.011c.062-1.005.132-2.1.209-3.209a3.971,3.971,0,0,1,2.535-1.78,1,1,0,0,0-.064-2,4.824,4.824,0,0,0-2.274.845l.011-.165c.081-1.222.155-2.323.214-3.185A13.994,13.994,0,0,0,91.7,45.28a5.061,5.061,0,0,1,2.838,2.6A6.579,6.579,0,0,1,94.585,53ZM30.694,39.034c-.669-2.861.3-6.553,1.537-11.228.309-1.175.636-2.414.96-3.725,1.553-6.3,7.689-12.6,16.013-16.43A35.359,35.359,0,0,1,63.753,4.268,21.189,21.189,0,0,1,73.267,6.3a1.034,1.034,0,0,0,.291.095C84.689,8.243,91.868,16.181,94.9,29.989l.1.446c1.1,4.79.807,9-.783,11.264a3.463,3.463,0,0,1-2.463,1.57A10.866,10.866,0,0,1,88.12,43.2a5.559,5.559,0,0,1-2.541-1.233c-3.192-2.723-4.627-7.029-5.893-10.829-.921-2.761-1.79-5.369-3.231-7.2a4.881,4.881,0,0,0-4.471-1.835,4.494,4.494,0,0,0-3.558,2.771C64.593,34.1,59.018,35.136,53.115,36.237c-3.552.662-7.224,1.347-10.427,3.891a1.047,1.047,0,0,0-.157.155,1.03,1.03,0,0,0-.23.147,16.015,16.015,0,0,1-4.595,2.876,5.619,5.619,0,0,1-3.57.34C32.248,43.061,31.12,40.881,30.694,39.034ZM31.4,53a6.488,6.488,0,0,1-.069-5,4.709,4.709,0,0,1,2.617-2.354,5.872,5.872,0,0,0,1.335.165,7.931,7.931,0,0,0,1.876-.25l.212,3.11a4.816,4.816,0,0,0-2.266-.84.982.982,0,0,0-1.021.948,1.01,1.01,0,0,0,.938,1.05,3.926,3.926,0,0,1,2.55,1.785l.094,1.373c.042.63.083,1.244.12,1.829l0,.014a1.116,1.116,0,0,0,.012.122h0c.081,1.3.149,2.425.194,3.211C35.007,58.679,32.519,55.957,31.4,53ZM45.605,73.493c-4.751-3.708-5.311-9.007-5.529-13.557a13.983,13.983,0,0,0,2.889,2.886,6.412,6.412,0,0,0,3.757,1.195,6.572,6.572,0,0,0,3.863-1.244,16.8,16.8,0,0,1,5.032-2.29,26.96,26.96,0,0,1,7.373-1.012c5.784,0,10.2,1.705,12.4,3.3a6.562,6.562,0,0,0,7.624.051A14.172,14.172,0,0,0,85.9,59.955c-.215,4.506-.765,9.821-5.527,13.537-.576.448-1.317,1.163-2.255,2.069a38.57,38.57,0,0,1-7.082,5.8,9.856,9.856,0,0,1-1.014.517,16.461,16.461,0,0,1-14.068,0,9.968,9.968,0,0,1-1.029-.525,38.562,38.562,0,0,1-7.069-5.8C46.921,74.655,46.18,73.94,45.605,73.493Z"/><path d="M84.857,45.668c0-.021,0-.041,0-.061a3.738,3.738,0,0,0-3.473-3.321,93.421,93.421,0,0,0-13.035.161,3.28,3.28,0,0,0-2.267,1.28H59.919a3.3,3.3,0,0,0-2.276-1.28,93.564,93.564,0,0,0-13.034-.161,3.739,3.739,0,0,0-3.474,3.321c0,.02,0,.04,0,.061a32.608,32.608,0,0,0,.95,8.412,4.312,4.312,0,0,0,3.778,2.935,37.1,37.1,0,0,0,3.8.166,65.51,65.51,0,0,0,6.954-.369,3.72,3.72,0,0,0,3.237-3.087,45.865,45.865,0,0,0,.7-8H65.42a47.114,47.114,0,0,0,.718,8,3.722,3.722,0,0,0,3.238,3.086,65.49,65.49,0,0,0,6.953.369,37.1,37.1,0,0,0,3.8-.166,4.312,4.312,0,0,0,3.778-2.935A32.606,32.606,0,0,0,84.857,45.668ZM57.875,53.405a1.692,1.692,0,0,1-1.493,1.42,57.071,57.071,0,0,1-10.308.2,2.383,2.383,0,0,1-2.084-1.542,30.647,30.647,0,0,1-.863-7.7,1.725,1.725,0,0,1,1.631-1.5,92.972,92.972,0,0,1,12.68.156,1.334,1.334,0,0,1,1.043.679C58.809,45.9,58.422,50.026,57.875,53.405ZM82,53.484a2.383,2.383,0,0,1-2.084,1.542,57.165,57.165,0,0,1-10.308-.2,1.694,1.694,0,0,1-1.493-1.419c-.549-3.394-.923-7.535-.644-8.212a1.357,1.357,0,0,1,1.081-.758c2.017-.207,4.926-.3,7.6-.3,1.968,0,3.81.051,5.077.146a1.725,1.725,0,0,1,1.631,1.5A30.6,30.6,0,0,1,82,53.484Z"/><path d="M48.834,46.189V47.3a2.416,2.416,0,0,0,4.831,0V46.189a2.419,2.419,0,0,0-4.126-1.711A2.457,2.457,0,0,0,48.834,46.189Z"/><path d="M72.008,46.189V47.3a2.409,2.409,0,1,0,4.818,0V46.189a2.409,2.409,0,1,0-4.818,0Z"/></svg>