<svg id="Solid" xmlns="http://www.w3.org/2000/svg" viewBox="0 0 128 128"><title>avatar-02_14</title><path d="M78.75,48.245v1.1a2.312,2.312,0,1,1-4.62,0v-1.1a2.355,2.355,0,0,1,2.31-2.4,2.257,2.257,0,0,1,1.636.7A2.489,2.489,0,0,1,78.75,48.245Z"/><path d="M49.257,48.245v1.1a2.312,2.312,0,1,0,4.621,0v-1.1a2.356,2.356,0,0,0-2.31-2.4,2.259,2.259,0,0,0-1.637.7A2.489,2.489,0,0,0,49.257,48.245Z"/><path d="M64,57.952c-.03,0-3.03-.047-3.03-1.71a1,1,0,0,1,1.853-.522,3.1,3.1,0,0,0,2.355,0,1,1,0,0,1,1.852.523C67.03,57.878,64.03,57.952,64,57.952Z"/><path d="M83.831,44.752a1,1,0,0,1-.814-.419c-.369-.514-2.517-1.478-5.959-1.911-3.35-.42-6.308-.1-7.364.785a1,1,0,0,1-1.289-1.53c2.2-1.851,6.956-1.483,8.9-1.239,2.86.359,6.289,1.266,7.337,2.733a1,1,0,0,1-.813,1.581Z"/><path d="M80.611,48.362a1,1,0,0,1-.855-.48,3.609,3.609,0,0,0-2.481-1.32,4.951,4.951,0,0,0-3.89.834A1,1,0,1,1,72.1,45.868a6.87,6.87,0,0,1,5.5-1.279,5.434,5.434,0,0,1,3.867,2.253,1,1,0,0,1-.854,1.52Z"/><path d="M44.169,44.752a1,1,0,0,1-.813-1.581C44.4,41.7,47.834,40.8,50.7,40.438c1.946-.245,6.711-.614,8.909,1.239a1,1,0,1,1-1.289,1.53c-1.056-.891-4.02-1.207-7.37-.785-3.445.433-5.593,1.4-5.962,1.911A1,1,0,0,1,44.169,44.752Z"/><path d="M47.389,48.362a1,1,0,0,1-.852-1.522,5.464,5.464,0,0,1,3.888-2.254,6.889,6.889,0,0,1,5.49,1.282A1,1,0,1,1,54.624,47.4a4.949,4.949,0,0,0-3.881-.835,3.64,3.64,0,0,0-2.5,1.323A1,1,0,0,1,47.389,48.362Z"/><path d="M64.032,103.375a2.026,2.026,0,1,0,2.026,2.025A2.026,2.026,0,0,0,64.032,103.375Z"/><path d="M64.032,113.937a2.026,2.026,0,1,0,2.026,2.026A2.026,2.026,0,0,0,64.032,113.937Z"/><path d="M103.69,108.992a51.651,51.651,0,0,0-21.1-18.04l-.37-.17a14.819,14.819,0,0,1-4.826-3,.247.247,0,0,1,.1-.432c9.772-3.842,11.229-20.042,11.448-25.575.18.01.37.04.55.04a5.716,5.716,0,0,0,.92-.08,2.879,2.879,0,0,0,1.1.22,2.948,2.948,0,0,0,2.868-2.35.206.206,0,0,1,.054-.1,10.738,10.738,0,0,0,2.618-4.477c.81-2.844.693-7.764-2.708-9.707a.231.231,0,0,1-.12-.22c1-12.213.915-26.042-7.406-28.766a.233.233,0,0,1-.16-.2,9.44,9.44,0,0,0-1.8-4.669A21.13,21.13,0,0,0,75.947,4.3a.249.249,0,0,0-.3.376A11.442,11.442,0,0,1,77.31,7.7a8.345,8.345,0,0,1-.11,6.16,1,1,0,0,1-.91.65.907.907,0,0,1-.42-.11,1.2,1.2,0,0,1-.48-1.51,5.858,5.858,0,0,0,.07-4.34c-.941-2.621-2.026-4.4-3.853-5.562a1.158,1.158,0,0,0-.493-.171c-1.312-.146-7.188-.791-8.89-.76a.271.271,0,0,0-.153.489c4.95,4.04,4.959,11.938,4.959,12.044a1.079,1.079,0,0,1-1,1.12h-.01a1.064,1.064,0,0,1-.99-1.14c0-.411.237-7.495-5.846-11.845a1.086,1.086,0,0,0-.777-.184,23.235,23.235,0,0,0-7.526,2.279.563.563,0,0,0,0,1c2.978,1.668,4.3,5.671,4.611,8.028a1.116,1.116,0,0,1-.84,1.28.772.772,0,0,1-.15.02,1.051,1.051,0,0,1-.99-.97c-.04-.28-1.08-7.256-5.76-7.256a.985.985,0,0,0-.49.206,23.188,23.188,0,0,0-4.13,4.33,9.44,9.44,0,0,0-1.8,4.669.233.233,0,0,1-.16.2c-8.321,2.724-8.408,16.554-7.406,28.767a.233.233,0,0,1-.118.219c-3.383,1.952-3.51,6.853-2.71,9.707a10.373,10.373,0,0,0,2.624,4.414.2.2,0,0,1,.057.111,2.925,2.925,0,0,0,2.869,2.405,3.008,3.008,0,0,0,1.16-.24,5.594,5.594,0,0,0,.91.08,5.481,5.481,0,0,0,.57-.05c.22,5.55,1.69,21.91,11.59,25.67.05.02.1.04.16.06-1.46,1.61-2.96,2.31-5.21,3.36l-.26.12a51.651,51.651,0,0,0-21.1,18.04,6.312,6.312,0,0,0-1.12,5c.61,2.33,2.93,3.88,5.12,5.09,1.12.61,11.53,6.07,31.4,6.78,1.46.05,2.91.08,4.29.08s2.83-.03,4.29-.08c19.87-.71,30.28-6.17,31.4-6.78,2.19-1.21,4.51-2.76,5.12-5.09A6.312,6.312,0,0,0,103.69,108.992ZM91.51,59.952a.935.935,0,1,1,.93-.94A.939.939,0,0,1,91.51,59.952Zm-2.35-3.32c.049-.913.108-1.924.167-2.945a.278.278,0,0,1,.028-.106,3.851,3.851,0,0,1,2.625-2.089,1,1,0,1,0-.3-1.98,5.667,5.667,0,0,0-1.792.677.247.247,0,0,1-.364-.232c.07-1.424.12-2.493.149-3.271a.237.237,0,0,1,.21-.233,6.9,6.9,0,0,1,2.917.339c3.07,1.15,2.9,5.68,2.33,7.69a8.317,8.317,0,0,1-1.181,2.442.251.251,0,0,1-.385.021,2.9,2.9,0,0,0-4.444.377C89.13,57.092,89.15,56.872,89.16,56.632Zm-52.67,3.32a.935.935,0,1,1,.94-.94A.937.937,0,0,1,36.49,59.952Zm0-3.87a2.891,2.891,0,0,0-2.046.855.25.25,0,0,1-.383-.02,8.171,8.171,0,0,1-1.2-2.435c-.56-2.01-.73-6.54,2.34-7.7a7.353,7.353,0,0,1,2.987-.329.236.236,0,0,1,.21.232c.029.845.085,2.009.15,3.324a.246.246,0,0,1-.366.227,6.433,6.433,0,0,0-1.851-.724,1,1,0,0,0-.34,1.97,4.092,4.092,0,0,1,2.715,2.139.278.278,0,0,1,.028.106l.067,1.135c.04.61.07,1.2.1,1.77.02.27.03.53.05.78A2.945,2.945,0,0,0,36.49,56.082Zm13.893,6.651a4.523,4.523,0,0,1-5.226.049,12.09,12.09,0,0,1-4.263-6.375c-.03-.536-.066-1.085-.094-1.665l-.08-1.29c0-.01.01-.02.01-.03,0-.04-.01-.08-.01-.12-.17-3.08-.34-6.45-.35-7.63-.01-5.77-.03-19.29,5.04-22.99a5.272,5.272,0,0,1,4.31-.82,12.065,12.065,0,0,1,3.12,1.24A22.025,22.025,0,0,0,64,25.752a22.111,22.111,0,0,0,11.2-2.66,12.654,12.654,0,0,1,3.14-1.23,5.257,5.257,0,0,1,4.07.66.994.994,0,0,0,.38.26c4.93,3.85,4.91,17.16,4.9,22.95,0,.91-.11,3.39-.35,7.59-.058,1.061-.116,2.119-.174,3.09a12.129,12.129,0,0,1-4.248,6.366,4.548,4.548,0,0,1-5.241-.045C74.6,60.5,69.235,59.062,64,59.062,58.8,59.062,53.455,60.5,50.383,62.733ZM69.068,65.04c-1.091.881-3.643,1.012-5.068,1.012-1.75,0-4.051-.176-5.075-1.017a1,1,0,1,1,1.269-1.546c.178.146,1.259.563,3.806.563s3.616-.41,3.812-.568a1,1,0,1,1,1.256,1.556ZM67.25,122.732v1.16c-2.19.06-4.31.06-6.5,0v-1.16c-.01-6.536-.01-15.444.376-23.867a.231.231,0,0,1,.066-.157c.752-.779,2.069-2.066,2.808-2.066.711,0,1.983,1.225,2.8,2.055a.242.242,0,0,1,.068.159C67.26,107.3,67.26,116.2,67.25,122.732Zm1.9-24.46-.55-.59c-1.54-1.6-3.06-3.04-4.6-3.04-1.44,0-2.82,1.16-4.57,3.02l-.67.7c-.95,1.02-2.4,2.57-2.98,2.61a1.236,1.236,0,0,1-1.15-.66l-.12-.2A13.682,13.682,0,0,1,52.9,89.3a.249.249,0,0,1,.417-.127c1.984,2.021,5.388,5.15,10.528,5.15h.36c5.122,0,8.507-3.086,10.5-5.1a.249.249,0,0,1,.417.127A13.556,13.556,0,0,1,73.5,100.092l-.13.22a1.261,1.261,0,0,1-1.15.66C71.62,100.922,70.14,99.332,69.15,98.272Zm20,17.117a55.093,55.093,0,0,1-14.67,2.247c-.168,0-.334,0-.5,0A1,1,0,0,1,73,116.615a.988.988,0,0,1,1.018-.983A53.008,53.008,0,0,0,88.51,113.5a1,1,0,0,1,.64,1.894Z"/></svg>