<svg id="Solid" xmlns="http://www.w3.org/2000/svg" viewBox="0 0 128 128"><title>avatar-03_2</title><path d="M43.3,48.629a6.056,6.056,0,0,0,2.925.734,1.972,1.972,0,0,0,.605-.094l.413-.126c.164-.046.328-.108.493-.139a9.82,9.82,0,0,1,1.99-.266,12.079,12.079,0,0,1,3.892.513,8.411,8.411,0,0,1,3.55,1.962A1,1,0,0,1,55.9,52.745L55.83,52.7a9.346,9.346,0,0,0-2.845-1.238,13.446,13.446,0,0,0-3.225-.465,10.954,10.954,0,0,0-1.588.112c-.133.011-.254.05-.382.073l-.46.1a3.926,3.926,0,0,1-1.181.079,4.069,4.069,0,0,1-2.038-.754,3.011,3.011,0,0,1-1.248-1.691.274.274,0,0,1,.4-.306Z"/><rect x="48.979" y="49.379" width="5.788" height="5.788" rx="2.663" ry="2.663"/><path d="M85.137,48.912A3.011,3.011,0,0,1,83.889,50.6a4.069,4.069,0,0,1-2.038.754,3.926,3.926,0,0,1-1.181-.079l-.46-.1c-.128-.023-.249-.062-.382-.073a10.954,10.954,0,0,0-1.588-.112,13.446,13.446,0,0,0-3.225.465A9.346,9.346,0,0,0,72.17,52.7l-.066.047a1,1,0,0,1-1.274-1.531,8.411,8.411,0,0,1,3.55-1.962,12.079,12.079,0,0,1,3.892-.513,9.82,9.82,0,0,1,1.99.266c.165.031.329.093.493.139l.413.126a1.972,1.972,0,0,0,.6.094,6.056,6.056,0,0,0,2.925-.734l.044-.023a.274.274,0,0,1,.395.306Z"/><rect x="73.233" y="49.379" width="5.788" height="5.788" rx="2.663" ry="2.663" transform="translate(152.253 104.546) rotate(180)"/><path d="M71.4,45.8l.011-.007a11.8,11.8,0,0,1,3.394-1.1,17.163,17.163,0,0,1,3.719-.27h0a.464.464,0,0,0,.1-.92,18.332,18.332,0,0,0-3.984-.265,13.391,13.391,0,0,0-4.071.744,1.046,1.046,0,0,0-.133.06A1,1,0,0,0,71.4,45.8Z"/><path d="M49.464,44.418a17.168,17.168,0,0,1,3.719.27,11.779,11.779,0,0,1,3.393,1.1l.016.009a.939.939,0,0,0,.129.058,1,1,0,1,0,.693-1.882,13.386,13.386,0,0,0-4.071-.744,18.34,18.34,0,0,0-3.984.265.464.464,0,0,0,.1.92Z"/><path d="M63.99,63.4c.024,0,2.36-.041,2.36-1.49a1,1,0,0,0-1.788-.616,2.267,2.267,0,0,1-.572.106,2.317,2.317,0,0,1-.584-.108,1,1,0,0,0-1.786.618C61.62,63.359,63.967,63.4,63.99,63.4Z"/><path d="M100.186,109.812A41.554,41.554,0,0,0,86.912,96.04a2.994,2.994,0,0,0-3.059-.1c-.741-.372-1.5-.723-2.3-1.085-.389-.175-.781-.352-1.175-.534a22.5,22.5,0,0,1-4.039-2.279A9.529,9.529,0,0,0,81.208,87.2c.943-2.342.718-5.15-.637-8.346a20.763,20.763,0,0,0,5.755-8.192,9.169,9.169,0,0,0,5.1,1.5,12.317,12.317,0,0,0,6.909-2.278c6.124-4.2,9.535-19.628,7.155-32.376C103.6,27.363,98.513,20.716,91.154,18.678a8.942,8.942,0,0,0-2.016-4.522,7.909,7.909,0,0,0-6.946-2.873C77.851,5.962,70.142,2,64,2S50.144,5.962,45.814,11.284a7.8,7.8,0,0,0-6.952,2.872,8.919,8.919,0,0,0-2.015,4.522C29.487,20.715,24.4,27.363,22.51,37.509c-2.38,12.748,1.031,28.179,7.155,32.376a12.317,12.317,0,0,0,6.909,2.278,9.169,9.169,0,0,0,5.1-1.5,20.766,20.766,0,0,0,5.756,8.191c-1.356,3.2-1.581,6-.638,8.347a9.529,9.529,0,0,0,4.868,4.839,22.531,22.531,0,0,1-4.04,2.28q-.609.281-1.213.551c-.757.34-1.526.7-2.267,1.066a2.984,2.984,0,0,0-3.055.1,41.559,41.559,0,0,0-13.271,13.771l-.338.532a5.733,5.733,0,0,0-1.041,4.594c.56,2.159,2.714,3.578,4.75,4.682,1.5.81,9.73,4.91,24.766,6.075h0l.022,0c2.623.2,5.323.3,8.026.3,19.987,0,30.842-5.314,32.816-6.381,2.035-1.1,4.189-2.522,4.749-4.681a5.736,5.736,0,0,0-1.043-4.6ZM54.213,92.5a12.9,12.9,0,0,0,3.763-7.923A19.7,19.7,0,0,0,64,86.02a19.828,19.828,0,0,0,6.081-1.465,12.853,12.853,0,0,0,3.7,7.943,16.909,16.909,0,0,0,4,2.776A91.983,91.983,0,0,0,64,105.311,92.1,92.1,0,0,0,50.211,95.274,16.923,16.923,0,0,0,54.213,92.5ZM87.642,15.483a7.268,7.268,0,0,1,1.645,4.1c.437,3.77-1.17,8.322-3.584,10.149a3.9,3.9,0,0,1-2.514.726c-1.282-.025-2.648-.574-2.992-1.451.215-.155.436-.3.649-.469C86.035,24.372,87,18.756,83.6,13.253A6.04,6.04,0,0,1,87.642,15.483Zm-47.284,0a6.027,6.027,0,0,1,4.048-2.233c-3.4,5.5-2.442,11.121,2.748,15.289.215.172.433.315.649.469-.345.877-1.711,1.426-3,1.451a3.982,3.982,0,0,1-2.509-.728c-2.411-1.825-4.018-6.377-3.58-10.149A7.253,7.253,0,0,1,40.358,15.484Zm2.7,53.24,0-.007a51.293,51.293,0,0,1-2.406-11.166C39.779,50.279,40.5,43.8,42.8,38.3c.226-.542.435-1.063.639-1.569a31.916,31.916,0,0,1,2-4.319A5.07,5.07,0,0,0,49.5,30.1c3.754,2.139,8.615,3.233,14.5,3.233s10.755-1.1,14.5-3.232a5.063,5.063,0,0,0,4.06,2.309,31.916,31.916,0,0,1,2,4.319c.2.506.413,1.027.639,1.569,2.3,5.506,3.024,11.984,2.15,19.255A51.262,51.262,0,0,1,84.94,68.718l0,0h0a18.942,18.942,0,0,1-6.178,9.048,38.881,38.881,0,0,1-8.24,4.464A20.243,20.243,0,0,1,64,84.02a20.259,20.259,0,0,1-6.525-1.787,38.827,38.827,0,0,1-8.222-4.453A18.947,18.947,0,0,1,43.062,68.724ZM47.228,96.7l.759-.345c3.888,1.955,9.945,6.3,15.268,10.961a1.143,1.143,0,0,0,.74.271,1.179,1.179,0,0,0,.764-.283c5.309-4.653,11.366-8.994,15.254-10.949l.717.327c.392.177.769.349,1.143.522A101.562,101.562,0,0,0,63.765,112.49c-4.314-3.418-7.229-6.148-9.8-8.566a70.252,70.252,0,0,0-7.887-6.7C46.454,97.048,46.833,96.875,47.228,96.7Z"/><ellipse cx="64" cy="69.703" rx="2.938" ry="2.278"/><path d="M58.385,69.718a3.321,3.321,0,0,0,1.334.341,2.194,2.194,0,0,0,1.074-.284,2.925,2.925,0,0,0,.86-.853c.19-.249.477-.626.659-.663.217-.046.619.276.9.511l.157.129a.714.714,0,0,0,.082.043.9.9,0,0,0,.177.091.914.914,0,0,0,.182.057,1.166,1.166,0,0,0,.379,0,1.075,1.075,0,0,0,.17-.053.986.986,0,0,0,.185-.1.659.659,0,0,0,.079-.041l.157-.129c.285-.235.672-.557.9-.511.181.037.468.414.658.663a2.924,2.924,0,0,0,.862.854,2.19,2.19,0,0,0,1.072.283,3.331,3.331,0,0,0,1.334-.341,1,1,0,0,0-.791-1.837c-.513.221-.576.185-.6.174a3.293,3.293,0,0,1-.283-.346A3.259,3.259,0,0,0,66.091,66.3,2.634,2.634,0,0,0,64,66.847a2.628,2.628,0,0,0-2.09-.547,3.252,3.252,0,0,0-1.847,1.409c-.1.126-.228.3-.235.314-.081.044-.14.079-.652-.142a1,1,0,0,0-.791,1.837Z"/><path d="M64.82,70.34H63.15a1,1,0,0,0,0,2h1.67a1,1,0,0,0,0-2Z"/></svg>