<svg id="Solid" xmlns="http://www.w3.org/2000/svg" viewBox="0 0 128 128"><title>avatar-03_1</title><path d="M69.783,58.1a3.321,3.321,0,0,1,1.289-1.251,6.594,6.594,0,0,1,1.342-.58,11.979,11.979,0,0,1,2.679-.474,12.763,12.763,0,0,1,2.688.126,3.488,3.488,0,0,1,2.513,1.18.649.649,0,0,1-.416,1.012l-.112.019a8.451,8.451,0,0,1-2.249-.159,13.779,13.779,0,0,0-2.271,0,10.458,10.458,0,0,0-2.209.369,7.306,7.306,0,0,0-.958.348,2.976,2.976,0,0,0-.557.367l-.314.25A.953.953,0,0,1,69.783,58.1Z"/><rect x="72.067" y="57.163" width="4.062" height="4.614" rx="2.031" ry="2.031"/><path d="M56.541,59.064a2.941,2.941,0,0,0-.557-.367,7.2,7.2,0,0,0-.958-.348,10.437,10.437,0,0,0-2.209-.369,13.767,13.767,0,0,0-2.27,0,8.456,8.456,0,0,1-2.25.159l-.108-.019A.648.648,0,0,1,47.77,57.1a3.486,3.486,0,0,1,2.512-1.18,12.772,12.772,0,0,1,2.689-.126,11.96,11.96,0,0,1,2.678.474,6.57,6.57,0,0,1,1.342.58,3.323,3.323,0,0,1,1.29,1.251.953.953,0,0,1-1.425,1.211Z"/><rect x="51.935" y="57.163" width="4.062" height="4.614" rx="2.031" ry="2.031" transform="translate(107.932 118.94) rotate(-180)"/><path d="M82.37,54.342A1,1,0,0,0,81.7,53.1a21.22,21.22,0,0,0-12.48.655,1,1,0,1,0,.756,1.851,19.349,19.349,0,0,1,11.144-.592A1,1,0,0,0,82.37,54.342Z"/><path d="M59.389,55.053a1,1,0,0,0-.548-1.3A21.225,21.225,0,0,0,46.36,53.1a1,1,0,1,0,.58,1.914,19.379,19.379,0,0,1,11.145.592.991.991,0,0,0,.378.075A1,1,0,0,0,59.389,55.053Z"/><path d="M79.633,64.034a55.235,55.235,0,0,1-7.768.442,1,1,0,0,0-.049,2c.043,0,.336.008.817.008a55.757,55.757,0,0,0,7.275-.468,1,1,0,1,0-.275-1.981Z"/><path d="M56.261,64.476a55.437,55.437,0,0,1-7.769-.442,1,1,0,1,0-.275,1.981,55.76,55.76,0,0,0,7.276.468c.481,0,.774-.007.817-.008a1,1,0,0,0,.975-1.024A.979.979,0,0,0,56.261,64.476Z"/><circle cx="42.052" cy="43.375" r="1.383"/><path d="M64.04,70.215c.026,0,2.68-.043,2.68-1.6a1,1,0,0,0-1.827-.563,2.362,2.362,0,0,1-1.727,0,1,1,0,0,0-1.826.564C61.34,70.172,64.013,70.215,64.04,70.215Z"/><path d="M68.18,74.038c-.784-.063-2.8-.123-4.14-.123-1.32,0-3.37.061-4.14.123a1,1,0,0,0-.917,1.077.988.988,0,0,0,1.078.916c.715-.057,2.723-.116,3.979-.116,1.279,0,3.25.058,3.98.116a.732.732,0,0,0,.081,0,1,1,0,0,0,.079-2Z"/><circle cx="86.012" cy="43.375" r="1.383"/><path d="M65.414,34.21a1.383,1.383,0,1,0-1.382,1.383A1.383,1.383,0,0,0,65.414,34.21Z"/><path d="M122.308,61.319c-1.643-2.1-11.806-8.97-23.795-12.987,8.664-.642,19.225-3.012,21.624-5.269a2.949,2.949,0,0,0-.227-4.491c-2.869-2.208-16.03-6.033-27.593-4.739,7.546-5.391,13.544-13.954,14.43-17.2a2.952,2.952,0,0,0-2.554-3.7c-3.863-.4-13.057,2.066-20.312,9.4,2.228-5.6,4.042-11.4,4.326-14.968a2.478,2.478,0,0,0-1.032-2.229,2.408,2.408,0,0,0-2.369-.276c-4.5,1.873-9.868,8.343-13.618,15.977,0-6.827-1.957-13.788-5.347-17.961a2.413,2.413,0,0,0-3.688.007C58.768,7.043,56.809,14,56.812,20.828,53.063,13.2,47.694,6.726,43.2,4.855a2.417,2.417,0,0,0-2.376.273,2.477,2.477,0,0,0-1.032,2.227c.284,3.567,2.1,9.372,4.325,14.969C36.864,15,27.68,12.524,23.811,12.93a2.951,2.951,0,0,0-2.556,3.708c.884,3.242,6.882,11.8,14.427,17.195-11.561-1.3-24.723,2.532-27.592,4.74a2.947,2.947,0,0,0-.226,4.49c2.4,2.258,12.959,4.627,21.623,5.269C17.5,52.349,7.335,59.22,5.69,61.321a2.946,2.946,0,0,0,.909,4.4c2.357,1.3,12.635.621,21.951-1.869C20.033,70.79,13.5,81.054,12.637,83.5a2.941,2.941,0,0,0,2.254,3.885c2.481.448,10.414-3.29,15.676-6.068a43.744,43.744,0,0,0-6.279,17.22,2.936,2.936,0,0,0,2.906,3.307c.048,0,.1,0,.145,0a13.118,13.118,0,0,0,4.1-1.472c-.023,1.247-.025,2.395-.008,3.458a32.056,32.056,0,0,0-5.7,6.186,5.966,5.966,0,0,0-1.1,4.777c.579,2.247,2.836,3.733,4.969,4.891,1.19.644,12.267,6.289,34.455,6.3s33.273-5.656,34.468-6.3c2.127-1.158,4.38-2.645,4.959-4.891a5.967,5.967,0,0,0-1.093-4.774,32.212,32.212,0,0,0-5.758-6.233c.012-1.021.007-2.142-.012-3.378a12.833,12.833,0,0,0,4.026,1.436,2.934,2.934,0,0,0,3.063-3.293,43.752,43.752,0,0,0-6.28-17.229c5.26,2.778,13.173,6.517,15.671,6.069a2.942,2.942,0,0,0,2.259-3.888c-.865-2.448-7.4-12.712-15.913-19.65,9.316,2.489,19.594,3.165,21.949,1.87a2.946,2.946,0,0,0,.909-4.4Zm-3.619-21.162a.946.946,0,0,1,.076,1.45c-2.251,2.118-17.579,5.445-26.6,4.832l-.045-.454c-.053-.523-.1-1.016-.137-1.39h0c0-.013,0-.027,0-.041v-.008a9.23,9.23,0,0,0-.953-3.92,19.121,19.121,0,0,0-2.846-4.009C99.636,33.68,115.817,37.947,118.689,40.157ZM57.379,89.3a20.393,20.393,0,0,0,6.651,1.69,20.465,20.465,0,0,0,6.7-1.709c.865,3.353,4.239,5.085,7.349,6.3-3.706,2.432-8.225,3.578-14.053,3.578s-10.359-1.144-14.054-3.574C53.1,94.361,56.5,92.63,57.379,89.3Zm-8.637,4.613c-.308-2.79-.835-7.462-1.377-11.827a19.9,19.9,0,0,0,2.942,3.181,23.975,23.975,0,0,0,5.216,3.223C55.016,91.119,52.225,92.574,48.742,93.908ZM72.59,88.463a23.7,23.7,0,0,0,5.163-3.2A19.857,19.857,0,0,0,80.7,82.076c-.581,4.548-1.009,8.368-1.376,11.83C75.856,92.577,73.082,91.122,72.59,88.463Zm3.854-4.713a22.772,22.772,0,0,1-5.351,3.2,21.387,21.387,0,0,1-7.063,2.034,21.342,21.342,0,0,1-7.01-2.013,23,23,0,0,1-5.408-3.225,20.456,20.456,0,0,1-4.929-6.655.978.978,0,0,0-.1-.22c-3.444-7.3-3.712-16.189-3.654-19.849a18.1,18.1,0,0,1,3.536-6.25c3.967-4.539,10.042-6.938,17.567-6.938,7.419,0,13.658,2.464,17.566,6.937a18.255,18.255,0,0,1,3.546,6.251c.05,3.692-.234,12.694-3.723,19.98A20.493,20.493,0,0,1,76.444,83.75ZM38.078,44.628v0a7.265,7.265,0,0,1,.729-3.079,18.629,18.629,0,0,1,3.633-4.707l.092-.086c1.787-.449,4.783-.149,8.254.82-3.321,4.421-5.57,8.934-6.016,12.122a19.994,19.994,0,0,0-3.259,5.436,17.816,17.816,0,0,1-3.433-10.5Zm16.081-8.079a32.823,32.823,0,0,1,9.872-8.294,32.943,32.943,0,0,1,9.878,8.294,40.119,40.119,0,0,0-9.878,5.05A40.026,40.026,0,0,0,54.159,36.549ZM83.288,49.693C82.844,46.51,80.6,42,77.281,37.573c3.47-.968,6.462-1.27,8.246-.821.027.025.062.06.086.081a18.578,18.578,0,0,1,3.639,4.714,7.264,7.264,0,0,1,.729,3.078v.01a17.748,17.748,0,0,1-3.427,10.5A20.108,20.108,0,0,0,83.288,49.693Zm20.7-34.773a.95.95,0,0,1,.825,1.192c-.97,3.557-9.249,14.69-18.328,18.815a32.291,32.291,0,0,0-6.16-4.383c.209-.347.447-.748.7-1.182.507-.855,1.133-1.913,1.378-2.258a.446.446,0,0,0,.033-.043C89.367,17.739,100.058,14.5,103.99,14.92ZM85.582,6.7a.423.423,0,0,1,.423.054.5.5,0,0,1,.208.446c-.4,5-4.236,15.343-7.741,22.375A35.7,35.7,0,0,0,70.787,26.9C74.457,16.677,81.208,8.516,85.582,6.7ZM63.7,4.142c.225-.272.381-.265.594-.007,4,4.926,5.843,14.567,4.369,22.364a29.887,29.887,0,0,0-4.607-.363H64a29.945,29.945,0,0,0-4.663.37C57.862,18.707,59.7,9.063,63.7,4.142ZM41.787,7.193A.5.5,0,0,1,42,6.749a.43.43,0,0,1,.43-.051c4.369,1.819,11.124,9.986,14.793,20.217a35.705,35.705,0,0,0-7.678,2.678C46.033,22.563,42.186,12.206,41.787,7.193Zm-18.6,8.926a.949.949,0,0,1,.136-.8.937.937,0,0,1,.691-.4c3.94-.4,14.619,2.819,21.544,12.141a.264.264,0,0,0,.031.039c.243.342.872,1.4,1.38,2.262.263.444.507.854.719,1.207a32.359,32.359,0,0,0-6.135,4.377C32.458,30.837,24.156,19.674,23.187,16.119ZM9.236,41.608a.946.946,0,0,1,.075-1.451c2.876-2.213,19.1-6.488,30.555-3.528a19.173,19.173,0,0,0-2.834,4,9.229,9.229,0,0,0-.95,3.911c-.049.579-.107,1.215-.173,1.9C26.9,47.069,11.492,43.731,9.236,41.608ZM7.56,63.967a.946.946,0,0,1-.293-1.416C9,60.335,22.015,51.874,35.69,48.631c-.177,1.745-.383,3.7-.609,5.85-.175,1.661-.362,3.439-.553,5.283C24.09,64.07,9.638,65.109,7.56,63.967ZM31.5,98.092a15.693,15.693,0,0,1-4.249,1.754.937.937,0,0,1-.977-1.066,41.851,41.851,0,0,1,6.154-16.658C31.941,88.242,31.63,93.6,31.5,98.092ZM15.244,85.42a.922.922,0,0,1-.647-.448.945.945,0,0,1-.074-.8c.935-2.646,9.616-15.883,19.746-21.905-.6,5.823-1.089,10.937-1.486,15.562C25.809,81.85,16.9,85.733,15.244,85.42Zm29.991,31.562c-4.357.8-10-.939-10.688-2.759s-1.055-5.159-1.107-9.951c-.038-1.625-.024-3.436.04-5.54.143-5.453.562-12.24,1.247-20.172.446-5.254,1.011-11.139,1.728-17.992.213-2.064.421-4.035.614-5.878.113-1.069.219-2.077.321-3.053a14.479,14.479,0,0,0,3.534,5.722c-.036,4.008.335,12.951,3.865,20.4.79,5.779,1.718,14.1,2.083,17.434.005.046.011.091.018.133,0,.024,0,.049.005.073h0v.015l.3,2.841c.5,4.778,1.016,9.718,1.766,15.646C48.921,115.892,46.918,116.675,45.235,116.982Zm18.8,6.506c-4.057-4.407-7.831-10.591-11.277-18.45a20.666,20.666,0,0,0,7.88,3.734,4.655,4.655,0,1,0,6.848-.015A20.723,20.723,0,0,0,75.323,105C71.871,112.874,68.094,119.068,64.03,123.488Zm2.689-11.595a2.656,2.656,0,1,1-2.656-2.656A2.659,2.659,0,0,1,66.719,111.893Zm10.533-11.552a18.752,18.752,0,0,1-13.187,6.9h-.008A18.692,18.692,0,0,1,50.834,100.4c-.328-.837-.65-1.7-.97-2.568,3.836,2.219,8.493,3.324,14.166,3.324s10.327-1.108,14.175-3.335C77.89,98.675,77.573,99.519,77.252,100.341Zm17.378,3.943c-.065,5.929-.643,8.678-1.116,9.939-.682,1.817-6.318,3.552-10.679,2.761-1.688-.307-3.7-1.09-3.734-3.08.718-5.68,1.22-10.436,1.707-15.036l.366-3.457V95.4c.51-4.872,1.121-10.39,2.119-17.688,3.495-7.411,3.879-16.345,3.851-20.351a14.442,14.442,0,0,0,3.535-5.726c.109,1.038.222,2.112.342,3.253.178,1.7.369,3.507.565,5.389a.974.974,0,0,0,.061.59c.7,6.711,1.254,12.5,1.7,17.7.683,7.917,1.1,14.7,1.246,20.17C94.645,100.891,94.657,102.705,94.63,104.284Zm7.1-5.494a.929.929,0,0,1-.243.759.941.941,0,0,1-.746.3,15.369,15.369,0,0,1-4.166-1.715c-.131-4.483-.439-9.811-.919-15.884A41.773,41.773,0,0,1,101.728,98.79Zm11.749-14.623a.947.947,0,0,1-.074.8.926.926,0,0,1-.653.449c-1.637.308-10.493-3.543-17.459-7.554-.4-4.634-.886-9.748-1.484-15.56C103.9,68.35,112.544,81.529,113.477,84.167Zm6.961-20.2c-2.069,1.14-16.461.107-26.892-4.173-.185-1.782-.366-3.5-.536-5.118-.233-2.213-.446-4.234-.628-6.03C106.031,51.9,119,60.339,120.731,62.549a.945.945,0,0,1-.293,1.419Z"/></svg>