<svg id="Solid" xmlns="http://www.w3.org/2000/svg" viewBox="0 0 128 128"><title>avatar-01_20</title><rect x="73.021" y="46.734" width="4.601" height="6.01" rx="2.301" ry="2.301"/><rect x="48.451" y="46.734" width="4.601" height="6.01" rx="2.301" ry="2.301" transform="translate(101.504 99.479) rotate(180)"/><path d="M63.042,59.491c-.034,0-3.36-.079-3.36-1.83a1,1,0,0,1,1.884-.467,4.586,4.586,0,0,0,1.476.3,4.645,4.645,0,0,0,1.465-.3,1,1,0,0,1,1.885.467C66.392,59.412,63.075,59.491,63.042,59.491Z"/><path d="M63.144,67.112c-.251,0-.49,0-.712-.01-4.632-.116-5.107-1.253-5.264-1.626a1,1,0,0,1,1.776-.908c1.1.736,7.152.731,8.191-.011a1,1,0,0,1,1.748.965C68.243,66.862,65.269,67.112,63.144,67.112Zm3.936-2.454h0Z"/><path d="M72.022,48.56a1,1,0,0,1-.59-1.808,8.845,8.845,0,0,1,9-.621,1,1,0,0,1-1.229,1.579,7.048,7.048,0,0,0-6.6.658A.994.994,0,0,1,72.022,48.56Z"/><path d="M69.691,45a1,1,0,0,1-.353-1.936c8.143-3.076,13.368-.353,13.587-.235a1,1,0,1,1-.946,1.761c-.042-.022-4.7-2.389-11.934.345A1,1,0,0,1,69.691,45Z"/><path d="M54.05,48.56a.993.993,0,0,1-.588-.192,7.046,7.046,0,0,0-6.61-.649,1.028,1.028,0,0,1-1.388-.234.974.974,0,0,1,.173-1.354,8.84,8.84,0,0,1,9,.621,1,1,0,0,1-.591,1.808Z"/><path d="M56.381,45a1,1,0,0,1-.353-.065c-7.239-2.734-11.891-.365-11.937-.343a1,1,0,0,1-.943-1.763c.219-.117,5.445-2.84,13.587.235A1,1,0,0,1,56.381,45Z"/><path d="M52.134,16.382A15.154,15.154,0,0,1,64.866,12.3c6.81.75,12.814,4.816,14.122,6.785a1,1,0,1,0,1.666-1.108c-1.782-2.681-8.567-6.893-15.569-7.665a17.294,17.294,0,0,0-14.336,4.627,1,1,0,0,0,1.385,1.443Z"/><path d="M94.256,47.742a98.634,98.634,0,0,0-.347-13.436,2.549,2.549,0,0,1,.827-2.067,5.47,5.47,0,0,0,1.9-4.019c.371-5.3-16.558-22.884-29.692-24.753-16.807-1.951-20.782,7.977-21.53,10.6C36.041,17.2,30.5,27.155,29.691,33.03c-.382,2.777.422,3.923,1.164,4.394a.963.963,0,0,0,.3.127c.385.095.3,1.729.23,3.041a26.68,26.68,0,0,0,.371,7.2C28.97,49.57,28,53.26,29.308,57.45a10.942,10.942,0,0,0,5.457,6.17,7.872,7.872,0,0,0,3.447.854,6.141,6.141,0,0,0,.993-.084A28.771,28.771,0,0,0,54.023,81.964c0,.032-.005.06-.006.091l0,0a13.286,13.286,0,0,1-.957,4.8,2.862,2.862,0,0,0-2.532.066,11.386,11.386,0,0,0-3.835,3.25,4.116,4.116,0,0,0-.361,1.725A18.688,18.688,0,0,0,40.4,95.46c-3.041,2.834-5.342,7.545-4.625,9.219.657,1.531,6.183,1.427,6.183,1.427s-5.358,3.556-5.188,5.73c.417,5.353,2.864,10.032,3.674,11.949,2.371.571,4.953,1.031,7.686,1.412l.005.021a107.961,107.961,0,0,0,14.888.989,111.3,111.3,0,0,0,11.6-.6l0,.008c.111-.012.216-.027.326-.04.211-.023.429-.039.639-.064a.724.724,0,0,0,.079-.025,88.18,88.18,0,0,0,9.947-1.7c.81-1.917,3.257-6.6,3.674-11.949.17-2.174-5.188-5.73-5.188-5.73s5.526.1,6.182-1.427c.718-1.674-1.583-6.385-4.625-9.219a18.66,18.66,0,0,0-5.939-3.567,4.133,4.133,0,0,0-.36-1.725,11.406,11.406,0,0,0-3.835-3.25,2.864,2.864,0,0,0-2.533-.065,13.356,13.356,0,0,1-.96-4.872v0A28.711,28.711,0,0,0,86.869,64.39a6.141,6.141,0,0,0,.993.084,7.891,7.891,0,0,0,3.462-.86,10.914,10.914,0,0,0,5.442-6.164C98.089,53.23,97.1,49.512,94.256,47.742ZM35.646,61.824a8.975,8.975,0,0,1-4.429-4.97c-1.1-3.522-.27-6.529,2.105-7.661a5.668,5.668,0,0,1,4.365-.221c-.006.977-.009,2.3.034,3.82a7.188,7.188,0,0,0-3.166-1,.972.972,0,0,0-1.03.959,1,1,0,0,0,.958,1.039,5.092,5.092,0,0,1,3.366,1.74,50.752,50.752,0,0,0,.888,6.905A5.509,5.509,0,0,1,35.646,61.824ZM70.062,82.86a14.269,14.269,0,0,0,1.31,5.263c-.794.832-1.658,1.827-2.5,2.8-.715.826-1.435,1.66-2.123,2.407a.223.223,0,0,0-.021.022,26.8,26.8,0,0,0-3.7,5.035,26.708,26.708,0,0,0-3.7-5.03.306.306,0,0,0-.03-.032c-.686-.744-1.405-1.577-2.118-2.4-.845-.977-1.709-1.972-2.5-2.8a14.289,14.289,0,0,0,1.31-5.275,20.059,20.059,0,0,0,7.04,1.353A20.7,20.7,0,0,0,70.062,82.86Zm-21.629,8.3A9.74,9.74,0,0,1,51.449,88.7a.883.883,0,0,1,.42-.112,1.32,1.32,0,0,1,.916.466c.859.852,1.839,1.986,2.876,3.186.585.677,1.173,1.357,1.745,1.992-1.211,2.82-3.608,6.946-5.686,7.554-.118.036-.429.128-.97-.512C48.786,98.948,47.963,92.131,48.433,91.162Zm26.548,32.4a109.265,109.265,0,0,1-11.962.644,108.948,108.948,0,0,1-11.955-.636c-1.113-6.251-2.46-14.5-3.211-23.477a9.555,9.555,0,0,0,1.251,2.321,3.115,3.115,0,0,0,2.46,1.389,2.6,2.6,0,0,0,.718-.1c2.974-.871,5.44-5.394,6.576-7.829a19.109,19.109,0,0,1,3.222,5.258,1,1,0,0,0,1.883,0,19.109,19.109,0,0,1,3.222-5.258c1.136,2.435,3.6,6.958,6.576,7.829a2.885,2.885,0,0,0,3.178-1.286,9.555,9.555,0,0,0,1.251-2.321C77.44,109.068,76.093,117.312,74.981,123.563ZM73.258,89.049c.693-.687,1.177-.436,1.337-.354a9.784,9.784,0,0,1,3.012,2.46c.473.976-.35,7.793-2.314,10.114-.54.638-.853.549-.97.512-2.29-.67-4.684-5.245-5.685-7.555.571-.635,1.16-1.315,1.744-1.991C71.419,91.035,72.4,89.9,73.258,89.049ZM86.271,54.933a1.041,1.041,0,0,0-.018.138,47.181,47.181,0,0,1-1.066,7.883c-2.076,8.907-8.91,14.884-14.638,17.52a17.2,17.2,0,0,1-15.024,0l-.013-.007-.032-.014c-5.687-2.625-12.508-8.6-14.595-17.5a47.337,47.337,0,0,1-1.066-7.881c-.157-2.656-.14-5.028-.13-6.445l0-.25C39.964,37.483,43.61,25,53.025,22.63a.991.991,0,0,0,.454-.254c4.817-4.7,14.35-3.136,20.234,1.265A32.487,32.487,0,0,1,86.392,48.357l0,.27C86.4,50.108,86.421,52.333,86.271,54.933ZM74.911,22.04C68.44,17.2,57.88,15.571,52.279,20.758,42.4,23.437,38.325,35.715,37.749,46.9a7.709,7.709,0,0,0-4.131.055A25.458,25.458,0,0,1,33.38,40.7c.124-2.365.232-4.422-1.515-5.019a3.64,3.64,0,0,1-.193-2.376c.652-4.734,5.682-14.725,14.868-17.495a1,1,0,0,0,.7-.791c.082-.473,2.2-11.574,19.453-9.565C79.212,7.233,94.913,24.239,94.644,28.083a3.526,3.526,0,0,1-1.272,2.693,4.538,4.538,0,0,0-1.457,3.684,106.122,106.122,0,0,1,.4,12.458,7.681,7.681,0,0,0-4-.017A34.549,34.549,0,0,0,74.911,22.04ZM94.856,56.854a8.944,8.944,0,0,1-4.415,4.965,5.529,5.529,0,0,1-3.1.616,50.667,50.667,0,0,0,.888-6.9A5.114,5.114,0,0,1,91.6,53.79a1,1,0,0,0,.961-1.033.969.969,0,0,0-1.033-.965,7.216,7.216,0,0,0-3.166,1c.043-1.524.04-2.847.034-3.824a5.623,5.623,0,0,1,4.355.224C95.134,50.328,95.96,53.335,94.856,56.854Z"/><path d="M101.73,110.794a41.493,41.493,0,0,0-11.115-10.667c.55,1.328,1.287,3.592.865,4.542-.556,1.243-1.5,2.125-4.531,2.416,1.779,1.428,3.7,2.785,3.559,4.483-.352,4.324-2.418,9.381-3.559,11.861a54.809,54.809,0,0,0,11.635-4.406c2.7-1.439,3.6-2.95,3.943-4.234A5.431,5.431,0,0,0,101.73,110.794Z"/><path d="M24.313,110.794a41.476,41.476,0,0,1,11.115-10.667c-.55,1.328-1.288,3.592-.865,4.542.556,1.243,1.5,2.125,4.531,2.416-1.779,1.428-3.7,2.785-3.559,4.483.352,4.324,2.418,9.381,3.559,11.861a54.809,54.809,0,0,1-11.635-4.406c-2.7-1.439-3.6-2.95-3.943-4.234A5.431,5.431,0,0,1,24.313,110.794Z"/></svg>