<svg id="Solid" xmlns="http://www.w3.org/2000/svg" viewBox="0 0 128 128"><title>avatar-01_14</title><path d="M64.444,63.075c.028,0,2.711-.044,2.711-1.61a1,1,0,0,0-1.828-.562,3.172,3.172,0,0,1-.883.172,3.292,3.292,0,0,1-.9-.172,1,1,0,0,0-1.827.562C61.714,63.031,64.417,63.075,64.444,63.075Z"/><path d="M68.956,67.886c-.283.235-1.59.679-4.512.679s-4.248-.444-4.531-.679a1,1,0,0,0-1.277,1.539c1.136.942,3.785,1.14,5.808,1.14s4.653-.2,5.789-1.14a1,1,0,0,0-1.277-1.539Z"/><path d="M83.033,96.482A33.426,33.426,0,0,0,79.659,95c-.46-.182-.91-.362-1.348-.545-2.454,11.825-9.294,16.879-12.162,18.517a2.96,2.96,0,1,1-3.379-.041c-2.911-1.681-9.672-6.756-12.1-18.51-.467.2-.947.386-1.438.579a32.859,32.859,0,0,0-3.395,1.486c-10.092,5.336-15.057,10.926-17.445,14.675a5.638,5.638,0,0,0-1.035,4.523c.55,2.132,2.674,3.534,4.682,4.625,1.157.625,11.893,6.11,32.4,6.11s31.238-5.485,32.4-6.111c2.006-1.09,4.13-2.492,4.68-4.624a5.638,5.638,0,0,0-1.034-4.522C98.089,107.408,93.124,101.818,83.033,96.482Z"/><path d="M102.627,41.186a22.828,22.828,0,0,1-3.134-6.03C95.874,21.109,85.27,8.3,73.707,4A22.288,22.288,0,0,0,52.415,6.588a2.479,2.479,0,0,1-.876.393c-11.2,2.6-18.52,11.813-21.744,27.392-.409,1.974-1.746,4.083-3.3,6.526-3.429,5.405-7.695,12.133-5.053,22.3C24.9,76.467,42.1,84.812,56.951,86.147a13.621,13.621,0,0,1-.5,2.614,7.641,7.641,0,0,1-3.924,4.775s.032.151.048.232c2.469,12.4,10.136,16.916,11.92,17.814,1.777-.9,9.459-5.443,11.919-17.792a.758.758,0,0,1,.075-.2,7.771,7.771,0,0,1-3.959-4.569,12.764,12.764,0,0,1-.607-2.917c14.825-1.325,32-9.653,35.452-22.911C110.067,52.831,105.942,46.374,102.627,41.186ZM58.544,88.667a16.467,16.467,0,0,0,.37-2.116,19.284,19.284,0,0,0,5.471.9,19.1,19.1,0,0,0,5.572-.94,15.769,15.769,0,0,0,.459,2.43C68.111,90.29,62.205,91.336,58.544,88.667ZM70.5,84.245a18.42,18.42,0,0,1-6.119,1.21,18.222,18.222,0,0,1-6.026-1.172c-7.092-2.517-15.2-9.1-16.97-16.8-.379-1.633-.921-4.9-1.463-8.793a23.206,23.206,0,0,0,1.931-2.038c.005.023.011.051.016.072a3.826,3.826,0,0,0,3.51,3.063c1.292.08,3.08.107,4.934.107,2.852,0,5.86-.065,7.457-.105a3.73,3.73,0,0,0,3.546-3.08,29.122,29.122,0,0,0,.534-4.282,12.272,12.272,0,0,1,5.162.011,29.007,29.007,0,0,0,.532,4.267A3.733,3.733,0,0,0,71.1,59.785c1.594.04,4.6.105,7.448.105,1.857,0,3.649-.028,4.945-.107a3.769,3.769,0,0,0,3.354-2.589,15.01,15.01,0,0,0,2.019,1.345c-.518,3.761-1.093,7.235-1.485,8.942C85.62,75.143,77.559,81.713,70.5,84.245ZM47.2,45.162c.024-.1.061-.282.1-.493a22.926,22.926,0,0,1,3.272-.454,32.2,32.2,0,0,1,6.95.25h.03a.037.037,0,0,0,.03.01,1.284,1.284,0,0,0,.31-2.55,35.037,35.037,0,0,0-7.52-.07c-.88.093-1.755.232-2.629.405.252-1.587.448-3.2.633-4.771.907-7.68,1.689-14.313,8.777-14.394a1,1,0,0,0,.573-.188,8.781,8.781,0,0,1,8.2-1.55c4.868,1.605,9.044,7.53,10.651,12.552.725,2.273,1.336,4.4,1.926,6.447l.446,1.542c-.113-.013-.227-.031-.339-.043a35.037,35.037,0,0,0-7.52.07,1.284,1.284,0,1,0,.31,2.55.037.037,0,0,0,.03-.01h.03a32.2,32.2,0,0,1,6.95-.25c.421.027.841.067,1.259.116.038.126.076.256.114.381q.009.039.021.078c.331,1.07.636,1.99.936,2.83-3.588-.1-7.886,0-10.221.168A3.715,3.715,0,0,0,67.2,50.406a14.241,14.241,0,0,0-5.535-.011,3.714,3.714,0,0,0-3.32-2.607c-2.89-.209-8.21-.283-11.811-.112C46.778,46.876,47,46.051,47.2,45.162ZM83.2,53l.015.025c.274.45.561.868.855,1.27.047.063.093.129.14.192q.429.567.89,1.074c.026.029.05.063.076.092-.039.217-.079.418-.124.6a1.857,1.857,0,0,1-1.689,1.537c-3.2.2-9.608.065-12.209,0A1.748,1.748,0,0,1,69.5,56.265a25.92,25.92,0,0,1-.5-4.636,1.767,1.767,0,0,1,1.672-1.846c.6-.044,1.335-.081,2.154-.113a1,1,0,0,0,1.64.859,3.782,3.782,0,0,1,.989-.575,2.792,2.792,0,0,0-.768,1.939v1.234a2.49,2.49,0,1,0,4.963,0V51.893a2.861,2.861,0,0,0-.724-1.906,2.525,2.525,0,0,0-.212-.19,3.066,3.066,0,0,1,1.773,1.191,1,1,0,0,0,1.667.057c.048.1.1.2.146.3.041.081.083.159.124.24C82.672,52.079,82.931,52.556,83.2,53ZM45.845,49.717c.323-.02.672-.038,1.034-.053-.067.092-.138.182-.2.278a1,1,0,0,0,1.7,1.046A3.068,3.068,0,0,1,50.161,49.8a2.389,2.389,0,0,0-.213.19,2.865,2.865,0,0,0-.724,1.906v1.234a2.49,2.49,0,1,0,4.963,0V51.893a2.794,2.794,0,0,0-.768-1.94,3.823,3.823,0,0,1,.99.576,1,1,0,0,0,1.639-.859c.809.031,1.544.069,2.155.113a1.744,1.744,0,0,1,1.657,1.681,1,1,0,0,0,.013.282,26.209,26.209,0,0,1-.5,4.523,1.745,1.745,0,0,1-1.649,1.517c-2.605.065-9.011.2-12.207,0a1.848,1.848,0,0,1-1.7-1.554,15.53,15.53,0,0,1-.3-1.831A23.8,23.8,0,0,0,45.845,49.717Zm59.592,12.977C102.6,73.6,89.57,80.943,76.841,83.4c5.369-3.263,10.419-8.362,12.21-14.477a7.291,7.291,0,0,0,1,.108,3.689,3.689,0,0,0,6.656-2.2c0-.1-.022-.193-.03-.29a9.764,9.764,0,0,0,2.786-3.863c1.375-3.641.581-7.333-2.019-9.4a7.27,7.27,0,0,0-4.883-1.545,16.68,16.68,0,0,1-1.253-6.816c0-10.665-.419-14.324-3.362-19.747a1,1,0,0,0-1.757.954c2.731,5.032,3.119,8.527,3.119,18.793a18.081,18.081,0,0,0,1.706,8.29l0,0,0,.007a15.43,15.43,0,0,0,3.31,4.287c.067.063.278.28.194.422-.111.189-.662.478-1.659.168a16.207,16.207,0,0,1-2.425-.963,12.559,12.559,0,0,1-3.481-2.5,18.257,18.257,0,0,1-3.822-6.315c-.448-1.133-.892-2.419-1.394-4.042a.571.571,0,0,0-.019-.071c-.239-.787-.478-1.594-.726-2.439L80.43,39.8c-.594-2.065-1.209-4.2-1.943-6.5-1.708-5.335-6.17-11.944-11.93-13.843a10.6,10.6,0,0,0-9.74,1.646c-8.552.289-9.5,8.352-10.424,16.152-.2,1.67-.4,3.4-.673,5.044-.068.382-.371,1.988-.472,2.422a29.1,29.1,0,0,1-1.06,3.722,22,22,0,0,1-2.544,5.176,20.438,20.438,0,0,1-3.445,3.95A24.539,24.539,0,0,1,34.112,60.5a.533.533,0,0,1-.726-.079.778.778,0,0,1-.07-.982,13.314,13.314,0,0,0,2.062-6.42c0-.034.006-.07.01-.105l0-.01v0c.247-2.221.284-4.679.321-7.281.1-6.979.206-14.889,4.656-20.289a1,1,0,0,0-1.543-1.272C33.925,30,33.811,38.284,33.71,45.592c-.033,2.341-.072,4.553-.26,6.546a7.791,7.791,0,0,0-2.118,1.125c-2.6,2.068-3.4,5.759-2.034,9.4A9.692,9.692,0,0,0,32,66.457a3.667,3.667,0,0,0-.037.365,3.688,3.688,0,0,0,6.647,2.214,7.311,7.311,0,0,0,1.1-.118c1.8,6.137,6.857,11.24,12.244,14.5-12.731-2.475-25.746-9.83-28.58-20.726-2.423-9.325,1.418-15.381,4.807-20.725,1.653-2.607,3.082-4.858,3.565-7.191C34.805,20.031,41.613,11.335,52,8.926a4.428,4.428,0,0,0,1.573-.71A20.35,20.35,0,0,1,73.01,5.874C84,9.957,94.09,22.2,97.556,35.655a24.493,24.493,0,0,0,3.386,6.608C104.209,47.376,107.912,53.172,105.437,62.694Zm-9.732-6.652a16,16,0,0,1-1.972-2.234,4.9,4.9,0,0,1,2.458,1.019c2.323,1.849,2.2,5,1.4,7.138a7.5,7.5,0,0,1-1.69,2.58,3.677,3.677,0,0,0-5.958.2c.263-1.532.544-3.349.818-5.3.481.2.983.377,1.509.541,1.961.609,3.412-.1,3.98-1.065A2.3,2.3,0,0,0,95.705,56.042Zm-1,10.78a1.7,1.7,0,1,1-1.7-1.7A1.7,1.7,0,0,1,94.7,66.822Zm-59.036-3.7a3.68,3.68,0,0,0-2.853,1.372,7.482,7.482,0,0,1-1.644-2.528c-.8-2.139-.912-5.292,1.417-7.146a3.894,3.894,0,0,1,.553-.352,9.419,9.419,0,0,1-1.448,3.8,2.8,2.8,0,0,0,.211,3.495,2.478,2.478,0,0,0,1.853.848,2.71,2.71,0,0,0,1.358-.381,27.556,27.556,0,0,0,3.008-2.016c.259,1.8.515,3.429.751,4.793A3.69,3.69,0,0,0,35.668,63.121Zm1.7,3.7a1.7,1.7,0,1,1-1.7-1.7A1.7,1.7,0,0,1,37.368,66.822Z"/></svg>