<svg id="Solid" xmlns="http://www.w3.org/2000/svg" viewBox="0 0 128 128"><title>avatar-01_8</title><path d="M49.061,48.606V49.6a2.055,2.055,0,1,0,4.1,0v-.989a2.108,2.108,0,0,0-2.052-2.159,1.992,1.992,0,0,0-1.454.63A2.257,2.257,0,0,0,49.061,48.606Z"/><path d="M77.158,48.606V49.6a2.055,2.055,0,1,1-4.1,0v-.989a2.108,2.108,0,0,1,2.052-2.159,1.992,1.992,0,0,1,1.454.63A2.257,2.257,0,0,1,77.158,48.606Z"/><path d="M63.112,58.331c-.03,0-3.03-.046-3.03-1.71a1,1,0,0,1,1.854-.521,4.02,4.02,0,0,0,1.176.231,3.969,3.969,0,0,0,1.177-.233,1,1,0,0,1,1.853.523C66.142,58.257,63.142,58.331,63.112,58.331Z"/><path d="M63.112,66.431c-1.75,0-4.051-.176-5.075-1.017a1,1,0,0,1,1.27-1.546c.178.146,1.258.563,3.805.563s3.616-.41,3.812-.568A1,1,0,0,1,68.18,65.42C67.09,66.3,64.537,66.431,63.112,66.431Z"/><path d="M43.2,45.131a1,1,0,0,1-.579-1.815c3.7-2.619,13.221-2.508,15.439.179a1,1,0,0,1-1.542,1.273c-1.429-1.73-9.8-1.906-12.741.179A.991.991,0,0,1,43.2,45.131Z"/><path d="M46.491,48.741a1,1,0,0,1-.852-1.522,5.469,5.469,0,0,1,3.887-2.254,6.9,6.9,0,0,1,5.491,1.282,1,1,0,0,1-1.29,1.529,4.955,4.955,0,0,0-3.882-.836,3.642,3.642,0,0,0-2.5,1.324A1,1,0,0,1,46.491,48.741Z"/><path d="M68.923,45.131a1,1,0,0,1-.5-1.867c4.674-2.678,11.339-2.656,15.174.051a1,1,0,1,1-1.154,1.633c-2.788-1.968-8.56-2.508-13.026.051A.994.994,0,0,1,68.923,45.131Z"/><path d="M79.723,48.741a1,1,0,0,1-.856-.48,3.605,3.605,0,0,0-2.48-1.319,4.944,4.944,0,0,0-3.89.834,1,1,0,0,1-1.29-1.529,6.89,6.89,0,0,1,5.5-1.279,5.431,5.431,0,0,1,3.866,2.254,1,1,0,0,1-.853,1.519Z"/><path d="M34.778,61.431a6.2,6.2,0,0,0,2.887.741,5.629,5.629,0,0,0,.578-.048c.183,5.082,1.237,10.636,6.249,14.786.441.366,1,.743,1.594,1.142a12.55,12.55,0,0,1,2.306,1.8A21.9,21.9,0,0,0,54.427,85.1c-.056.15-.124.3-.191.442a13.836,13.836,0,0,1,1.864.727c.047-.107.1-.2.141-.316a18.9,18.9,0,0,0,13.776-.017c.082.188.183.4.287.61.549-.391,1.081-.812,1.661-1.155-.048-.1-.1-.208-.141-.31a22.1,22.1,0,0,0,6.011-5.231,12.187,12.187,0,0,1,2.3-1.8c.593-.4,1.153-.774,1.592-1.139C86.746,72.75,87.8,67.2,87.982,62.125c.191.019.382.048.574.048a6.209,6.209,0,0,0,2.891-.745A10.123,10.123,0,0,0,96.164,55.4c.981-3.468.49-7.765-2.746-9.493,1.366-17.068-1.853-31.765-8.467-38.464a7.239,7.239,0,0,0-7.285-1.8c-1.01.324-3.88,0-4.687-1.124A6.31,6.31,0,0,0,68.77,2.4,5.183,5.183,0,0,0,64.58,3.71a2.265,2.265,0,0,1-2.938,0A5.186,5.186,0,0,0,57.45,2.4a6.322,6.322,0,0,0-4.212,2.123c-.8,1.127-3.668,1.451-4.679,1.129a7.218,7.218,0,0,0-7.288,1.8c-6.612,6.7-9.83,21.393-8.465,38.461-3.226,1.721-3.726,6.019-2.757,9.493A10.156,10.156,0,0,0,34.778,61.431ZM80.452,75.373c-.361.3-.879.648-1.428,1.017a13.087,13.087,0,0,0-2.73,2.182,19.37,19.37,0,0,1-6.138,5.134,15.451,15.451,0,0,1-7.044,1.535,15.527,15.527,0,0,1-7.051-1.533,19.305,19.305,0,0,1-6.13-5.136A13.381,13.381,0,0,0,47.2,76.393c-.549-.37-1.068-.719-1.432-1.022-4.485-3.713-5.39-8.654-5.538-13.542A12.653,12.653,0,0,0,43.1,64.785a6.553,6.553,0,0,0,7.57-.054c2.091-1.518,6.6-3.289,12.442-3.289s10.341,1.771,12.435,3.291a6.564,6.564,0,0,0,3.841,1.246,6.422,6.422,0,0,0,3.743-1.2,12.671,12.671,0,0,0,2.861-2.963C85.846,66.7,84.944,71.647,80.452,75.373Zm5.941-21.638c0,.023-.011.043-.011.066s.006.019.006.029l-.075,1.311c-.034.569-.066,1.122-.093,1.642a12.227,12.227,0,0,1-4.26,6.375,4.546,4.546,0,0,1-5.241-.046c-3.073-2.23-8.414-3.67-13.607-3.67s-10.544,1.44-13.617,3.67a4.528,4.528,0,0,1-5.227.049A12.1,12.1,0,0,1,40,56.783c-.027-.525-.059-1.074-.093-1.642l-.075-1.31c0-.011.006-.019.006-.03s-.01-.043-.012-.066c-.163-3.091-.338-6.483-.348-7.625-.008-6.074,2.727-19.856,7.038-23.253a2.789,2.789,0,0,1,1.731-.689,2.255,2.255,0,0,1,.537.066,22.537,22.537,0,0,1,2.65.871,28.908,28.908,0,0,0,11.674,2.026,28.867,28.867,0,0,0,11.664-2.025,22.254,22.254,0,0,1,2.651-.872,2.566,2.566,0,0,1,2.272.624c4.308,3.395,7.041,17.178,7.033,23.253C86.732,47.239,86.557,50.639,86.393,53.735Zm7.846,1.127a8.148,8.148,0,0,1-3.722,4.795,4.018,4.018,0,0,1-2.475.472c.033-.708.09-1.769.169-3.127.028-.553.063-1.14.1-1.743l.064-1.106a6.41,6.41,0,0,1,2.854-2.313,1,1,0,1,0-.57-1.917,7.188,7.188,0,0,0-2.125,1.2c.083-1.638.15-3.1.181-4.1a10.467,10.467,0,0,1,3.306.446C95.1,48.63,94.819,52.811,94.239,54.862ZM42.694,8.854a5.205,5.205,0,0,1,5.252-1.3c1.56.5,5.469.162,6.923-1.875a4.436,4.436,0,0,1,2.788-1.291,3.193,3.193,0,0,1,2.623.786,4.248,4.248,0,0,0,2.783,1.078c.034,0,.064-.014.1-.016v.016a4.247,4.247,0,0,0,2.781-1.076,3.186,3.186,0,0,1,2.62-.788,4.422,4.422,0,0,1,2.788,1.3c1.461,2.03,5.37,2.367,6.929,1.868a5.217,5.217,0,0,1,5.251,1.3c6.154,6.232,9.153,20.115,7.93,36.4a13.621,13.621,0,0,0-2.752-.237c-.271-6.773-2.983-19.96-7.77-23.734a4.511,4.511,0,0,0-3.98-1,23.926,23.926,0,0,0-2.885.944,26.781,26.781,0,0,1-10.961,1.9,26.849,26.849,0,0,1-10.972-1.9,24.128,24.128,0,0,0-2.883-.943,4.5,4.5,0,0,0-3.975,1c-4.791,3.775-7.506,16.964-7.776,23.743a13.425,13.425,0,0,0-2.742.227C33.541,28.968,36.54,15.086,42.694,8.854ZM34.205,47.467a10.305,10.305,0,0,1,3.3-.446c.034,1.012.1,2.492.186,4.1a7.23,7.23,0,0,0-2.136-1.2,1,1,0,0,0-.575,1.916,6.4,6.4,0,0,1,2.87,2.315l.064,1.106c.035.6.07,1.19.1,1.75.079,1.354.136,2.414.169,3.119a4.019,4.019,0,0,1-2.476-.469,8.182,8.182,0,0,1-3.731-4.8C31.4,52.811,31.132,48.624,34.205,47.467Z"/><path d="M101.349,109.593c-1.015-1.569-6.445-9.355-17.9-15.14A28.967,28.967,0,0,1,85.82,100.3a1.311,1.311,0,0,1-.339,1.257c-.181.184-.541.549-1.971.549-.29,0-.631-.017-1.016-.052,1.966,1.873,3.66,4.1,3.423,5.942a56.084,56.084,0,0,1-5.43,16.744,64.806,64.806,0,0,0,18.042-6.292c2.685-1.435,3.855-3.3,4.186-4.583C102.961,112.911,102.207,110.921,101.349,109.593Z"/><path d="M78.99,100.415c.49.112,6.145,1.368,5.838.123a14.227,14.227,0,0,0-4.215-7.625A22.873,22.873,0,0,0,73.5,88.4c-.088-.191-.173-.387-.266-.573-.046-.09-.135-.253-.249-.463a18.052,18.052,0,0,1-1.4-2.958,1,1,0,0,0-1.961.392,8.757,8.757,0,0,0,.749,1.887,8.744,8.744,0,0,1-14.518,0,8.757,8.757,0,0,0,.749-1.887,1,1,0,0,0-1.961-.392,18.052,18.052,0,0,1-1.4,2.958c-.114.21-.2.373-.249.463-.094.186-.178.382-.266.573a22.873,22.873,0,0,0-7.112,4.518,14.227,14.227,0,0,0-4.215,7.625c-.307,1.245,5.348-.011,5.838-.123-.48.368-6.349,4.838-5.92,7.411,1.286,7.716,4.5,15.662,5.838,17.336,1.459.239,5.974.753,6.618.808l.012,0c3.012.26,6.111.407,9.33.407a105.17,105.17,0,0,0,14.48-1.02c.082-.012,1.15-.136,1.48-.19,1.337-1.674,4.552-9.62,5.838-17.336C85.339,105.253,79.47,100.783,78.99,100.415Zm-7.529,23.632c-.42.033-.835.072-1.26.1l0-.008a103.993,103.993,0,0,0-3.8-22.871,9.235,9.235,0,0,0,1.624-1.952,6.538,6.538,0,0,0,3.175.811c.249,0,.5-.014.759-.039a1,1,0,0,0-.2-1.991,4.757,4.757,0,0,1-3.485-.989,13.248,13.248,0,0,1-1.651-1.535c-1-1.038-2.024-2.11-3.513-2.11a4.18,4.18,0,0,0-2.912,1.5c-.194.192-.391.4-.593.607a13.91,13.91,0,0,1-1.66,1.542,4.749,4.749,0,0,1-3.484.988,1,1,0,0,0-.2,1.991,6.651,6.651,0,0,0,3.931-.776,9.241,9.241,0,0,0,1.626,1.955,103.555,103.555,0,0,0-3.807,22.864v.008c-.417-.027-.834-.055-1.248-.087-1.507-5.609-5.2-25,.01-35.326l.035-.067a10.8,10.8,0,0,0,16.606,0l.035.067C76.662,99.046,72.968,118.433,71.461,124.047Z"/><path d="M43.73,102.052c-.385.035-.726.052-1.016.052-1.43,0-1.79-.365-1.971-.549a1.314,1.314,0,0,1-.34-1.257,29.037,29.037,0,0,1,2.376-5.845c-11.459,5.785-16.889,13.571-17.9,15.14-.858,1.328-1.612,3.318-1.366,4.27.331,1.28,1.5,3.148,4.186,4.583a64.806,64.806,0,0,0,18.042,6.292,56.084,56.084,0,0,1-5.43-16.744C40.07,106.156,41.764,103.925,43.73,102.052Z"/></svg>