<svg id="Solid" xmlns="http://www.w3.org/2000/svg" viewBox="0 0 128 128"><title>avatar-03_17</title><path d="M73.33,53.794A3.734,3.734,0,0,1,75.572,51.8a7.378,7.378,0,0,1,2.572-.41,7.966,7.966,0,0,1,2.509.458,2.868,2.868,0,0,1,2.01,1.637.664.664,0,0,1-.652.859l-.131-.005a7.441,7.441,0,0,1-1.867-.523,7.108,7.108,0,0,0-1.887-.239,5.481,5.481,0,0,0-1.823.265,2.247,2.247,0,0,0-1.146.734l-.107.155a.985.985,0,0,1-1.72-.937Z"/><rect x="75.449" y="53.19" width="4.369" height="5.373" rx="2.185" ry="2.185"/><path d="M56.34,54.576a2.247,2.247,0,0,0-1.146-.734,5.478,5.478,0,0,0-1.822-.265,7.11,7.11,0,0,0-1.888.239,7.441,7.441,0,0,1-1.867.523l-.129,0a.661.661,0,0,1-.684-.637.675.675,0,0,1,.03-.221,2.87,2.87,0,0,1,2.01-1.637,7.966,7.966,0,0,1,2.509-.458,7.378,7.378,0,0,1,2.572.41,3.734,3.734,0,0,1,2.242,1.994.985.985,0,0,1-1.72.938Z"/><rect x="51.679" y="53.19" width="4.369" height="5.373" rx="2.185" ry="2.185" transform="translate(107.727 111.753) rotate(180)"/><path d="M65.769,73.169a21.319,21.319,0,0,1-4.536-.492,1,1,0,0,1,.572-1.916,19.452,19.452,0,0,0,7.931,0,1,1,0,1,1,.566,1.918A21.429,21.429,0,0,1,65.769,73.169Z"/><path d="M65.749,66.929c-.028,0-2.81-.045-2.81-1.64a1,1,0,0,1,1.836-.548,2.647,2.647,0,0,0,1.957,0,1,1,0,0,1,1.837.547C68.569,66.884,65.778,66.929,65.749,66.929Z"/><path d="M99.244,111.525c-2-3.168-6.049-7.928-13.975-12.6-.705-.429-1.449-.848-2.228-1.267-.642-.344-1.306-.669-1.977-1A20.408,20.408,0,0,1,75.689,93.3h0a10.716,10.716,0,0,1-3.057-7.192,48.378,48.378,0,0,0,6.951-4.29c4.183-3.239,6.958-7.485,8.712-13.267a6.742,6.742,0,0,0,1.186.108,8.343,8.343,0,0,0,3.659-.9,9.015,9.015,0,0,0,4.632-5.075c1.275-3.924.121-7.816-2.67-9.409C96.623,34.321,90.286,19.8,78.052,14.2c-.929-4.452-4.609-8.628-9.529-10.745C64.985,1.938,57.785.253,49.3,6.065,44.148,9.608,35,21.212,32.392,37.269c-1.431,8.824-6.652,14.086-11.7,19.176-1.762,1.776-3.426,3.454-4.9,5.252a14.417,14.417,0,0,0-1.307,16.565c-.672,3.463.009,6.549,1.965,8.718a9.422,9.422,0,0,0,7.126,2.959c.266,0,.541-.03.812-.049.764.979,2.767,2.829,7,2.829h.03a10.2,10.2,0,0,0,7.472-3.547c3.377-3.618,5.511-9.57,5.983-16.265a23.785,23.785,0,0,0,7.066,8.923,49.07,49.07,0,0,0,6.945,4.281A10.71,10.71,0,0,1,55.823,93.3a20.4,20.4,0,0,1-5.359,3.353c-.676.331-1.344.659-1.989,1.007-.775.417-1.518.834-2.224,1.258-7.956,4.69-11.993,9.446-13.978,12.609a5.422,5.422,0,0,0-.965,4.323c.522,2.02,2.5,3.346,4.374,4.378a32.316,32.316,0,0,0,4.419,1.9.972.972,0,0,0,.128.056C44.305,123.609,53.043,126,65.759,126s21.443-2.39,25.52-3.815c.017-.006.027-.019.042-.025l.031-.012a31.61,31.61,0,0,0,4.479-1.922c1.867-1.029,3.847-2.355,4.371-4.375A5.43,5.43,0,0,0,99.244,111.525ZM65.759,88.349A13.378,13.378,0,0,0,70.7,87.018a12.624,12.624,0,0,0,3.131,7.221c-.406,1.062-.824,2.22-1.259,3.424-1.793,4.981-4.5,12.506-6.816,12.506s-5.04-7.54-6.836-12.528c-.43-1.2-.845-2.346-1.248-3.4a12.626,12.626,0,0,0,3.137-7.224A13.385,13.385,0,0,0,65.759,88.349ZM95.867,62.07a7.078,7.078,0,0,1-3.61,3.9,6.067,6.067,0,0,1-3.416.645A52.243,52.243,0,0,0,89.9,61.055a3.818,3.818,0,0,1,3.181-1.175,1,1,0,0,0,.269-1.981,6.349,6.349,0,0,0-3.137.472q.171-1.763.272-3.67a6.628,6.628,0,0,1,3.2.1C95.934,55.722,96.894,58.912,95.867,62.07Zm-2.729-9.437a9.071,9.071,0,0,0-2.815.062c-.306-1.9-.941-5.678-1.5-8.02.276-3.964-1.032-9.086-3.53-13.758a1,1,0,1,0-1.763.944c2.362,4.417,3.593,9.216,3.293,12.839-.167,2.08-.924,4.6-3.584,4.822-5.659.47-7.354-3.9-8.676-12.695l0-.016v0l-.008-.051c-.024-.128-.042-.255-.062-.4l-.12-.82a.907.907,0,0,0-.048-.132A39.753,39.753,0,0,0,72.9,29.862,1,1,0,0,0,71,30.5a37.436,37.436,0,0,1,1.506,6.142l0,.021c.021.154.045.317.069.439v0c.668,4.78.042,8.557-1.764,10.634a6.382,6.382,0,0,1-5.067,2.025,6.389,6.389,0,0,1-5.045-2c-1.774-2.018-2.422-5.68-1.823-10.311v-.014c.048-.279.088-.56.127-.843l.051-.356A37.527,37.527,0,0,1,60.5,30.5a1,1,0,0,0-1.9-.632,39.467,39.467,0,0,0-1.43,5.593c-.007.031-.026.056-.031.088l-.054.374c-.072.371-.121.733-.163,1.094-.007.041-.011.082-.019.123l0,.022c0,.017-.007.035-.008.052v0C55.621,45.555,53.871,50,48.28,49.522c-2.659-.217-3.417-2.742-3.585-4.827-.3-3.564.959-8.481,3.294-12.833a1,1,0,1,0-1.761-.946c-2.51,4.675-3.818,9.8-3.532,13.76-.561,2.345-1.2,6.127-1.51,8.025a9.233,9.233,0,0,0-2.806-.067c-1.336-18.1,4.74-31.839,16.4-36.855A27.723,27.723,0,0,1,65.759,13.65,27.553,27.553,0,0,1,76.773,15.8C88.4,20.825,94.464,34.555,93.138,52.633ZM37.85,54.8a6.575,6.575,0,0,1,3.177-.1q.1,1.907.272,3.668a6.376,6.376,0,0,0-3.137-.47,1,1,0,0,0,.274,1.98,3.878,3.878,0,0,1,3.174,1.166,52.1,52.1,0,0,0,1.057,5.568,6.1,6.1,0,0,1-3.417-.648,7.058,7.058,0,0,1-3.6-3.9C34.616,58.915,35.576,55.725,37.85,54.8Zm-.42,33.008a8.154,8.154,0,0,1-6.013,2.912h-.026a7.607,7.607,0,0,1-4.551-1.227,15.49,15.49,0,0,0,5.986-3.211,1,1,0,1,0-1.3-1.524,12.928,12.928,0,0,1-6.751,3.11,7.784,7.784,0,0,1-6.842-2.227,7.173,7.173,0,0,1-1.7-5.333A8.451,8.451,0,0,0,19.9,82.232a1.018,1.018,0,0,0,.231.027,1,1,0,0,0,.23-1.973,6.87,6.87,0,0,1-4.007-2.818c-2.457-3.441-2.946-9.694.989-14.505,1.411-1.723,3.043-3.368,4.77-5.11,5.025-5.066,10.72-10.807,12.254-20.264,2.808-17.3,12.793-27.624,16.069-29.875,7.691-5.27,14.138-3.779,17.3-2.42a15.645,15.645,0,0,1,6.39,5.05A18.146,18.146,0,0,0,65.789,8.41c-5.756,0-10.959,2.484-12.208,5.733-12.32,5.563-18.7,20.117-17.162,39.141-2.757,1.6-3.932,5.557-2.671,9.4a8.993,8.993,0,0,0,4.62,5.073,8.347,8.347,0,0,0,3.664.9,6.747,6.747,0,0,0,.914-.075C43.236,76.4,41.121,83.852,37.43,87.807Zm7.423-20.724a59.729,59.729,0,0,1-1.86-13.019c.08-.5.451-2.836.886-5.2a5.258,5.258,0,0,0,4.237,2.651q.5.042.966.042c4.413,0,6.714-2.727,8.085-6.522A9.74,9.74,0,0,0,59.2,49.079a8.294,8.294,0,0,0,6.547,2.68,8.285,8.285,0,0,0,6.575-2.713,9.761,9.761,0,0,0,2.009-4.015c1.378,3.86,3.672,6.526,8.09,6.526.314,0,.641-.014.977-.041a5.263,5.263,0,0,0,4.237-2.649c.433,2.364.8,4.7.878,5.2a59.761,59.761,0,0,1-1.86,13.02c-1.61,5.839-4.248,10.02-8.287,13.147a46.122,46.122,0,0,1-7.219,4.386l-.006,0h0a14.49,14.49,0,0,1-5.384,1.73,14.5,14.5,0,0,1-5.382-1.729l-.006,0a46.916,46.916,0,0,1-7.218-4.378C49.109,77.1,46.471,72.919,44.853,67.083ZM33.244,115.35a3.594,3.594,0,0,1,.722-2.76c1.635-2.6,4.769-6.368,10.632-10.277a72.662,72.662,0,0,0-4.687,16.815c-.044.262-.087.5-.131.749a27.016,27.016,0,0,1-3.138-1.4C34.553,117.322,33.505,116.358,33.244,115.35Zm65.023,0c-.263,1.01-1.312,1.974-3.4,3.125a26.026,26.026,0,0,1-3.139,1.406c-.043-.253-.086-.488-.131-.751a72.6,72.6,0,0,0-4.687-16.815c5.85,3.9,9,7.669,10.641,10.276A3.592,3.592,0,0,1,98.267,115.348Z"/><path d="M77.169,14.879h0c-3.37-1.46-19.42-1.46-22.78-.02.76-2.91,5.65-5.45,11.4-5.45S76.409,11.969,77.169,14.879Z"/></svg>