<svg id="Solid" xmlns="http://www.w3.org/2000/svg" viewBox="0 0 128 128"><title>avatar-03_15</title><rect x="48.876" y="48.701" width="5.181" height="6.187" rx="2.59" ry="2.59" transform="translate(102.932 103.589) rotate(-180)"/><path d="M44.615,44.571c2.812-1.245,7.379-1.413,11.169-.532a1.1,1.1,0,0,1,.864,1.411,1.352,1.352,0,0,1-1.512,1.14c-2-.19-5.6-.724-8.108-.287-1.879.328-2.711.029-2.989-.372C43.575,45.263,44.09,44.8,44.615,44.571Z"/><rect x="73.938" y="48.701" width="5.181" height="6.187" rx="2.59" ry="2.59"/><path d="M83.38,44.571c-2.812-1.245-7.379-1.413-11.169-.532a1.1,1.1,0,0,0-.864,1.411,1.352,1.352,0,0,0,1.512,1.14c2-.19,5.6-.724,8.108-.287,1.879.328,2.711.029,2.989-.372C84.42,45.263,83.905,44.8,83.38,44.571Z"/><path d="M45.929,51.3a1,1,0,0,1-.825-1.562c1.146-1.685,4.136-2.339,6.574-2.227,1.165.05,3.228.33,3.964,1.64a1,1,0,0,1-1.745.978c-.093-.167-.8-.556-2.3-.62-2.1-.088-4.267.517-4.836,1.354A1,1,0,0,1,45.929,51.3Z"/><path d="M82.071,51.3a1,1,0,0,1-.826-.435c-.573-.836-2.742-1.451-4.835-1.356-1.507.064-2.224.455-2.32.625a1,1,0,0,1-1.74-.988c.743-1.308,2.81-1.586,3.976-1.635,2.449-.115,5.418.545,6.57,2.224a1,1,0,0,1-.825,1.565Z"/><path d="M59.32,69.815h9.35a1,1,0,1,0,0-2H59.32a1,1,0,1,0,0,2Z"/><path d="M63.99,62.505c.034,0,3.44-.109,3.44-1.86a1,1,0,0,0-1.886-.466,4.775,4.775,0,0,1-1.554.326,4.905,4.905,0,0,1-1.575-.326,1,1,0,0,0-1.885.466C60.53,62.425,63.956,62.505,63.99,62.505Z"/><path d="M27,55.533a4.405,4.405,0,0,0,1.844.391,5.132,5.132,0,0,0,1.914-.391,13.914,13.914,0,0,0,.6,4.51,8.467,8.467,0,0,0,6.474,6.076c2.164,6.939,5.907,12.169,11.163,15.52a57.935,57.935,0,0,0,5.69,3.237c-.021.242-.063.462-.1.691l.017.014a7.331,7.331,0,0,1-2.158,4.5c-.049-.124-.1-.244-.147-.369-.57-1.38-4.51.81-5.2,1.91a8.877,8.877,0,0,0-.68,2.91,83.354,83.354,0,0,0-.41,12.41c.209,2.507,12.177-2.284,14.646-2.659.287-.043.352-.228.158-.442a42.307,42.307,0,0,1-5.4-7.536,27.843,27.843,0,0,0,7.836,1.064A39.453,39.453,0,0,0,72.5,96.216a52.424,52.424,0,0,1-5.595,7.689.338.338,0,0,0,.242.561c3.547.234,14.63,5,14.831,2.479a83.278,83.278,0,0,0-.4-12.42,8.87,8.87,0,0,0-.68-2.9c-.7-1.1-4.63-3.29-5.21-1.91-.045.12-.1.238-.147.358A7.3,7.3,0,0,1,73.4,85.607l.019-.008c-.02-.132-.036-.267-.056-.4-.012-.108-.021-.221-.03-.333A58.31,58.31,0,0,0,79,81.638c5.249-3.346,9-8.576,11.172-15.519a8.468,8.468,0,0,0,6.474-6.075,13.8,13.8,0,0,0,.583-4.514,4.827,4.827,0,0,0,3.774,0,3.264,3.264,0,0,0,1.9-2.877,18,18,0,0,0-1.178-5.572A63.65,63.65,0,0,1,98.9,34.3a36.6,36.6,0,0,0-4.6-14.135C90.3,13.384,81.04,2.005,64,2.005S37.7,13.384,33.7,20.168A36.582,36.582,0,0,0,29.088,34.3a63.74,63.74,0,0,1-2.819,12.781,17.978,17.978,0,0,0-1.179,5.572A3.271,3.271,0,0,0,27,55.533ZM92.47,51.648c.623.551,1.189,1.078,1.709,1.565l.552.516c.705,1.266.7,3.2-.014,5.777a6.707,6.707,0,0,1-3.907,4.36A61.412,61.412,0,0,0,92.47,51.648ZM74.708,92c-.27.6-.549,1.183-.844,1.755-1.082.344-11.292,3.425-19.754-.012-.015-.006-.031,0-.047-.009-.271-.552-.537-1.127-.8-1.717a9.17,9.17,0,0,0,3.343-6.27A19.42,19.42,0,0,0,64,87.405a19.453,19.453,0,0,0,7.394-1.657A9.154,9.154,0,0,0,74.708,92Zm-27.3-47.321a47.6,47.6,0,0,1,16.556-3h.066A47.492,47.492,0,0,1,80.581,44.68a37.479,37.479,0,0,1,4.046,1.691C84.564,60.668,82.305,78.4,72.1,83.248c-.016.007-.03.015-.045.023-.059.029-.116.059-.2.1l0,0h0A18.89,18.89,0,0,1,64,85.405a18.811,18.811,0,0,1-7.849-2.038c-.025-.011-.11-.052-.136-.062l-.088-.044c-10.234-4.831-12.493-22.6-12.554-36.909A36.645,36.645,0,0,1,47.406,44.681ZM33.276,53.71l.359-.336c.544-.51,1.18-1.1,1.889-1.727A61.723,61.723,0,0,0,37.19,63.874a6.672,6.672,0,0,1-3.906-4.367C32.561,56.91,32.563,54.964,33.276,53.71Z"/><path d="M102.07,109.7c-.99-1.57-6.54-9.66-19.61-15.86q.045.3.09.63a84.144,84.144,0,0,1,.4,12.52,2.1,2.1,0,0,1-.7,1.16,3.782,3.782,0,0,1-1.74.47,35.531,35.531,0,0,1-8.323-1.756c-1.623-.476-4.622-.811-6.154-1.063a1.871,1.871,0,0,0-.916.34,4.928,4.928,0,0,0-1.5,2.6c-.87,3.541.91,12.93,1.5,17.26a92.461,92.461,0,0,0,23.65-3.03,45.3,45.3,0,0,0,9.46-3.54c2.1-1.16,4.33-2.65,4.92-4.9A6.126,6.126,0,0,0,102.07,109.7Z"/><path d="M63.3,106.1a.261.261,0,0,0-.108-.416c-.494-.167-.821-.361-1.38-.586a.231.231,0,0,0-.151-.013c-.563.151-4.242,1.186-5.794,1.639-3.78,1.1-6.64,1.89-8.38,1.89a3.782,3.782,0,0,1-1.74-.47,2.1,2.1,0,0,1-.7-1.16,84.144,84.144,0,0,1,.4-12.52q.045-.33.09-.63c-13.07,6.2-18.62,14.29-19.61,15.86a6.126,6.126,0,0,0-1.08,4.83c.59,2.25,2.82,3.74,4.92,4.9,1.21.67,12.743,6.42,33.8,6.57-.268-1.98-.946-6.944-1.406-11.407C61.812,111.151,62.049,107.72,63.3,106.1Z"/></svg>