<svg id="Solid" xmlns="http://www.w3.org/2000/svg" viewBox="0 0 128 128"><title>avatar-01_3</title><path d="M62.661,60.633c-.029,0-2.9-.072-2.9-1.67a1,1,0,0,1,1.842-.54,3.655,3.655,0,0,0,1.058.21,3.617,3.617,0,0,0,1.06-.212,1,1,0,0,1,1.841.542C65.562,60.561,62.69,60.633,62.661,60.633Z"/><path d="M62.666,67.793c-1.938,0-3.44-.753-4.019-2.014a1,1,0,0,1,1.819-.833c.179.391.862.847,2.2.847s2.012-.456,2.19-.847a1,1,0,0,1,1.819.833C66.1,67.04,64.6,67.793,62.666,67.793Z"/><path d="M36.475,64.8c-3.746,0-7.412-2.91-8.687-6.315a8.691,8.691,0,0,1,1.446-8.854A1,1,0,0,1,30.7,51,6.661,6.661,0,0,0,29.66,57.78c1.218,3.253,5.116,5.96,8.5,4.724a1,1,0,0,1,.688,1.878A6.88,6.88,0,0,1,36.475,64.8Z"/><path d="M53.986,50.163a1,1,0,0,1-1-1c0-.964-1.322-1.81-2.83-1.81s-2.83.846-2.83,1.81a1,1,0,0,1-2,0c0-2.1,2.167-3.81,4.83-3.81s4.83,1.709,4.83,3.81A1,1,0,0,1,53.986,50.163Z"/><path d="M79,50.163a1,1,0,0,1-1-1c0-.964-1.322-1.81-2.83-1.81s-2.829.846-2.829,1.81a1,1,0,0,1-2,0c0-2.1,2.166-3.81,4.829-3.81S80,47.062,80,49.163A1,1,0,0,1,79,50.163Z"/><path d="M42.944,39.683a16.06,16.06,0,0,1,12.381-1.94,1.8,1.8,0,0,1,1.268,2.01h0a1.8,1.8,0,0,1-1.921,1.536c-2.208-.172-6.145-.314-8.89.524-2.052.626-2.929.184-3.3-.4A1.3,1.3,0,0,1,42.944,39.683Z"/><rect x="48.186" y="47.453" width="4.757" height="6.718" rx="2.379" ry="2.379" transform="translate(101.129 101.625) rotate(180)"/><path d="M82.378,39.683A16.057,16.057,0,0,0,70,37.743a1.8,1.8,0,0,0-1.269,2.01h0a1.8,1.8,0,0,0,1.921,1.536c2.209-.172,6.145-.314,8.89.524,2.053.626,2.93.184,3.3-.4A1.3,1.3,0,0,0,82.378,39.683Z"/><rect x="72.379" y="47.453" width="4.757" height="6.718" rx="2.379" ry="2.379"/><path d="M75.622,41.679a10.749,10.749,0,0,0-10.5,8.532H60.4a10.725,10.725,0,1,0,.229,2.2c0-.067-.009-.132-.01-.2H64.9c0,.067-.01.132-.01.2A10.731,10.731,0,1,0,75.622,41.679ZM49.9,61.141a8.731,8.731,0,1,1,8.731-8.731A8.741,8.741,0,0,1,49.9,61.141Zm25.725,0a8.731,8.731,0,1,1,8.731-8.731A8.741,8.741,0,0,1,75.622,61.141Z"/><path d="M88.848,64.8a6.876,6.876,0,0,1-2.376-.417,1,1,0,1,1,.687-1.878c3.384,1.239,7.285-1.469,8.5-4.722A6.662,6.662,0,0,0,94.627,51a1,1,0,0,1,1.461-1.366,8.69,8.69,0,0,1,1.445,8.855C96.26,61.889,92.594,64.8,88.848,64.8Z"/><path d="M107.248,90.478a5.909,5.909,0,0,0-3.385-1.62V87.233a9.344,9.344,0,1,0-18.687,0v18.655a10.758,10.758,0,0,1-21.515,0V90.635a3.015,3.015,0,0,0,.364-.131,2.729,2.729,0,0,0,1.552-2.344v-.738C80.031,85.9,91.382,73.211,91.657,57.73h1.364a1.971,1.971,0,0,0,0-3.941H92a2.376,2.376,0,0,0-2.376,2.376V57.73h.036c-.3,17.215-14.15,27.846-27,27.846s-26.695-10.631-27-27.846h.04V56.165a2.376,2.376,0,0,0-2.376-2.376H32.3a1.971,1.971,0,1,0,0,3.941H33.66C33.935,73.212,45.289,85.9,59.745,87.423v.737A2.733,2.733,0,0,0,61.3,90.505a3.012,3.012,0,0,0,.364.13v15.253a12.758,12.758,0,0,0,25.515,0V87.233a7.344,7.344,0,1,1,14.687,0v1.689a6.26,6.26,0,1,0,7.277,6.165h0A6.3,6.3,0,0,0,107.248,90.478ZM63.577,88.16a.753.753,0,0,1-.446.555,1.157,1.157,0,0,1-.94,0,.755.755,0,0,1-.446-.556v-.608c.3.01.608.024.914.024s.613-.014.918-.024Zm39.286,11.2a4.249,4.249,0,0,1-1-8.384v4.036a1,1,0,0,0,2,0v-4.13a3.941,3.941,0,0,1,2,1.036,4.356,4.356,0,0,1-3,7.442Z"/><path d="M71.565,98.031a5.073,5.073,0,0,1-3.62-.99,13.062,13.062,0,0,1-1.7-1.52,11.561,11.561,0,0,0-1.58-1.4,3.971,3.971,0,0,0-1-.52,3.2,3.2,0,0,0-2,0v12.29a12.78,12.78,0,0,0,7.72,11.72c-.09-.78-.2-1.59-.32-2.4-.06-.43-.12-.87-.19-1.3a84.854,84.854,0,0,0-2.84-12.7,9.88,9.88,0,0,0,1.68-1.98,6.936,6.936,0,0,0,4.05.79,1,1,0,0,0,.9-1.09A1.014,1.014,0,0,0,71.565,98.031Zm20.56-82.75a24.423,24.423,0,0,1-8.52-5.26,29.133,29.133,0,0,0-11.8-6.69C59.745-.589,48.5,5,33.915,13.321c-10.19,5.82-16.28,15.52-15.52,24.73a14,14,0,0,0,9.25,12.53c.21.08.46.17.71.26a8.98,8.98,0,0,0-.57,7.64,10.238,10.238,0,0,0,5.62,5.68,7.384,7.384,0,0,0,1.12.38,7.569,7.569,0,0,0,1.95.26.66.66,0,0,0,.14-.01,7.026,7.026,0,0,0,1.02-.09l.17-.03c3.05,11.35,12.1,16.25,16.68,18.04-.01.13-.02.25-.04.37-.03.36-.08.71-.13,1.04a14.239,14.239,0,0,1-.46,2.01,7.508,7.508,0,0,1-.27.76c-.04.07-.08.13-.11.19-.24.38-.39.64-.53.9a22.465,22.465,0,0,0-8.11,4.81c-13.18,5.84-19.49,14.83-20.62,16.58a5.989,5.989,0,0,0-1.13,4.82c.59,2.28,2.91,3.79,5.1,4.96,2.69,1.43,8.83,4.16,18.71,5.72a.539.539,0,0,0,.1.03c.01,0,.02-.01.03-.01,2.04.32,4.22.6,6.59.8a.585.585,0,0,0,.13.02c.02,0,.04-.01.06-.01q1.23.105,2.52.18c.02,0,.03.01.05.01h.03c1.99.11,4.06.18,6.26.18s4.27-.07,6.25-.18h.03c.02,0,.03-.01.05-.01.87-.05,1.7-.11,2.53-.18.02,0,.04.01.06.01a.585.585,0,0,0,.13-.02c2.36-.2,4.55-.48,6.59-.8a.035.035,0,0,1,.02.01c.05,0,.09-.03.13-.03,9.86-1.57,16-4.29,18.69-5.72,2.19-1.17,4.51-2.68,5.1-4.96a5.989,5.989,0,0,0-1.13-4.82,45.479,45.479,0,0,0-12.94-12.4v2.42a42.646,42.646,0,0,1,11.26,11.06,4.175,4.175,0,0,1,.87,3.24c-.4,1.54-2.4,2.78-4.11,3.69a56,56,0,0,1-15.84,5.14,42.886,42.886,0,0,0,2.52-5.79,13.725,13.725,0,0,1-2.8,1.69,27.7,27.7,0,0,1-2.29,4.54c-1.53.23-3.15.44-4.86.61.27-1.05.57-2.39.87-3.95a11.262,11.262,0,0,1-2.01-.24c-.35,1.83-.7,3.34-.98,4.37-.29.02-.57.05-.88.07-.05-1.45-.19-3.19-.4-5.08a13.783,13.783,0,0,1-8.86-12.85V94.121a11.561,11.561,0,0,0-1.58,1.4,13.749,13.749,0,0,1-1.7,1.52,5.072,5.072,0,0,1-3.63.99,1.011,1.011,0,0,0-1.09.9,1,1,0,0,0,.9,1.09c.26.02.52.04.77.04a6.964,6.964,0,0,0,3.28-.82,9.47,9.47,0,0,0,1.68,1.97,99.057,99.057,0,0,0-3.9,22.61c-.3-.02-.58-.05-.88-.07-1.47-5.51-5.07-24.43.02-34.5,0-.01.01-.02.02-.04a10.233,10.233,0,0,0,6.11,3.6,8.3,8.3,0,0,0,1,.14c.33.03.66.05,1,.05s.67-.02,1-.05a8.3,8.3,0,0,0,1-.14,10.282,10.282,0,0,0,6.11-3.6c.01.02.01.03.02.04,3.52,6.95,2.89,18.13,1.67,26.19q-.075.51-.15.99c-.11.69-.23,1.34-.34,1.97a12.005,12.005,0,0,0,2.01.23c.12-.63.23-1.3.35-1.99.05-.33.1-.66.14-1,1.15-7.56,1.74-17.72-.95-25.09a20.8,20.8,0,0,1,5.68,3.77,12.437,12.437,0,0,1,3.59,6.12,23.5,23.5,0,0,1-4.25-.63c-.03-.01-.05,0-.08-.01a1.333,1.333,0,0,0-.2,0,.554.554,0,0,0-.18.02,1.266,1.266,0,0,0-.18.06c-.06.03-.11.06-.17.09a.8.8,0,0,0-.13.13,1.01,1.01,0,0,0-.13.16c-.01.02-.03.03-.04.05a.284.284,0,0,0-.04.13.536.536,0,0,0-.05.11c-.01.03,0,.05-.01.07a.739.739,0,0,0,0,.21.554.554,0,0,0,.02.18,1.266,1.266,0,0,0,.06.18c.03.06.06.11.09.16a.584.584,0,0,0,.13.14,1.01,1.01,0,0,0,.16.13c.02.01.03.03.05.04,4.23,2.25,5.31,5.08,5.18,6.1a35.234,35.234,0,0,1-.73,3.87c-.17.74-.37,1.47-.58,2.17-.34,1.14-.72,2.23-1.1,3.23a12.428,12.428,0,0,0,2.88-2.2,41.371,41.371,0,0,0,1.51-6.81,1.452,1.452,0,0,0,.02-.36,5.553,5.553,0,0,0-.85-2.89,10.757,10.757,0,0,0-1.87-2.35c.12.01.24.01.35.01a3.664,3.664,0,0,0,1.52-.24,1.1,1.1,0,0,0,.4-.29,1.251,1.251,0,0,0,.34-1.22,18.553,18.553,0,0,0-.74-2.49,13.118,13.118,0,0,0-.83-1.77c.28.15.56.3.83.46.34.19.68.39,1,.58.7.41,1.36.83,2,1.25v-2.38c-.64-.4-1.31-.8-2-1.19-.33-.18-.66-.37-1-.54-1.16-.63-2.39-1.24-3.69-1.81a22.472,22.472,0,0,0-8.1-4.81c-.14-.26-.29-.52-.53-.9a1.739,1.739,0,0,0-.11-.18,7.708,7.708,0,0,1-.27-.77,12.272,12.272,0,0,1-.46-2.02c-.06-.33-.1-.67-.14-1.03-.02-.12-.03-.24-.04-.37,4.59-1.79,13.64-6.69,16.68-18.04l.18.03a7.015,7.015,0,0,0,1.01.09.66.66,0,0,0,.14.01,7.569,7.569,0,0,0,1.95-.26,7.227,7.227,0,0,0,1.11-.37,10.3,10.3,0,0,0,5.63-5.69,8.957,8.957,0,0,0-.56-7.63,15.234,15.234,0,0,0,10.27-14.24C107.6,28.941,103.055,19.361,92.125,15.281Zm-55.95,47.51a6.115,6.115,0,0,1-2.09-.48,6.477,6.477,0,0,1-1.11-.57,8.171,8.171,0,0,1-3.31-3.96,6.78,6.78,0,0,1,.69-6.35,17.435,17.435,0,0,0,3.93.46c.51,0,1.02-.03,1.52-.08.06.74.14,1.53.23,2.35.18,1.7.42,3.53.71,5.31.17,1.11.37,2.21.59,3.25a.777.777,0,0,1-.16.02A4.793,4.793,0,0,1,36.175,62.791Zm-7.05,54.59c-1.7-.91-3.7-2.15-4.1-3.69a4.135,4.135,0,0,1,.87-3.24c.97-1.49,5.92-8.54,16.09-14.03a15.3,15.3,0,0,0-1.57,4.26,1.27,1.27,0,0,0,.33,1.22c.17.17.52.53,1.93.53.11,0,.22,0,.35-.01-2.02,1.95-2.91,4.07-2.7,5.6a44.756,44.756,0,0,0,4.64,14.49A56,56,0,0,1,29.125,117.381Zm23.28,6.19c-1.72-.17-3.33-.38-4.86-.62a41.725,41.725,0,0,1-5.24-15.19c-.14-1.02.95-3.85,5.18-6.1.02-.01.03-.03.05-.04a1.01,1.01,0,0,0,.16-.13.584.584,0,0,0,.13-.14.8.8,0,0,0,.08-.16.67.67,0,0,0,.07-.18.554.554,0,0,0,.02-.18.741.741,0,0,0-.01-.21.163.163,0,0,0,0-.07c-.01-.04-.04-.07-.05-.11s-.02-.09-.04-.13c-.01-.02-.03-.03-.04-.05a1.01,1.01,0,0,0-.13-.16.864.864,0,0,0-.14-.13.8.8,0,0,0-.16-.08.67.67,0,0,0-.18-.07.554.554,0,0,0-.18-.02.739.739,0,0,0-.21,0c-.02.01-.04,0-.07.01a23.5,23.5,0,0,1-4.25.63,12.437,12.437,0,0,1,3.59-6.12,20.73,20.73,0,0,1,5.67-3.77C47.945,101.111,50.845,117.4,52.405,123.571ZM69.1,84.7a13.635,13.635,0,0,0,.48,2c.05.18.11.35.17.52a5.807,5.807,0,0,1-.4.57,8.05,8.05,0,0,1-3.69,2.69,8.73,8.73,0,0,1-3.99.46,7.884,7.884,0,0,1-2-.47,8.053,8.053,0,0,1-3.68-2.68,5.807,5.807,0,0,1-.4-.57c.06-.17.12-.34.17-.51a14.1,14.1,0,0,0,.48-2.01c.06-.32.12-.66.15-1,.02-.11.04-.22.05-.33a20.957,20.957,0,0,0,6.23,1.1,21.338,21.338,0,0,0,6.23-1.1c.01.11.03.22.05.33C68.975,84.041,69.035,84.381,69.1,84.7Zm16.75-21.48c-2.71,11.83-12.42,16.46-16.47,17.9a20.821,20.821,0,0,1-6.71,1.35,20.825,20.825,0,0,1-6.72-1.35c-4.05-1.44-13.76-6.07-16.46-17.9a94.339,94.339,0,0,1-1.7-11.72c9.04-1.89,15.57-10.75,16.07-18.21a13.026,13.026,0,0,1,6.9-10.74,7.682,7.682,0,0,1,8.03.56c3.08,2.15,3.96,5.84,4.98,10.11,1.37,5.75,2.92,12.26,10.36,16.63a14.988,14.988,0,0,0,3.42,1.46A97.839,97.839,0,0,1,85.845,63.221Zm9.82-5.44a8.191,8.191,0,0,1-3.32,3.96,6.047,6.047,0,0,1-1.1.57,6.224,6.224,0,0,1-2.1.48,4.759,4.759,0,0,1-1-.05.772.772,0,0,1-.15-.02c.21-1.02.4-2.11.57-3.22.29-1.77.52-3.6.71-5.31q.135-1.29.24-2.46a14.887,14.887,0,0,0,5.45-.31A6.8,6.8,0,0,1,95.665,57.781Z"/></svg>