<svg id="Solid" xmlns="http://www.w3.org/2000/svg" viewBox="0 0 128 128"><title>avatar, people, patient, boy, fever, sick, illness</title><path d="M63.161,14.2l.074,0a3.848,3.848,0,0,0,3.586-4.01,4.581,4.581,0,0,0-1.252-2.781c-.976-1.267-1.465-1.9.3-3.631a1,1,0,0,0-1.4-1.429c-3.038,2.969-1.5,4.961-.489,6.28a3.053,3.053,0,0,1,.837,1.561A1.872,1.872,0,0,1,63.088,12.2a1,1,0,0,0,.073,2Z"/><path d="M55.634,14.457c.025,0,.048,0,.073,0a2.925,2.925,0,0,0,2.714-3.016,3.383,3.383,0,0,0-.912-2.071c-.634-.822-.8-1.043.173-2a1,1,0,1,0-1.4-1.431c-2.251,2.2-1.021,3.792-.36,4.649a2.047,2.047,0,0,1,.495.85.913.913,0,0,1-.857,1.021,1,1,0,0,0,.07,2Z"/><path d="M71.333,14.457c.025,0,.048,0,.073,0a2.925,2.925,0,0,0,2.714-3.016,3.382,3.382,0,0,0-.91-2.07c-.632-.823-.8-1.044.172-2a1,1,0,1,0-1.4-1.429c-2.244,2.2-1.018,3.79-.359,4.647a2.038,2.038,0,0,1,.5.851.912.912,0,0,1-.857,1.021,1,1,0,0,0,.07,2Z"/><path d="M55.822,59.125a4.869,4.869,0,0,0-2.983-.213c-2.286.529-3.751,2.356-3.334,4.16a.875.875,0,0,0,.852.677.9.9,0,0,0,.2-.022.875.875,0,0,0,.655-1.05.765.765,0,0,1-.008-.362,1.843,1.843,0,0,1,.8-1.147h0a2.1,2.1,0,0,0-.088.569v.841a2.107,2.107,0,1,0,4.214,0v-.654a1.191,1.191,0,0,0,.57.318.716.716,0,0,0,.3-.007.876.876,0,0,0,.656-1.05A3.033,3.033,0,0,0,55.822,59.125Z"/><path d="M62.777,70.2a1,1,0,0,0,.855-.482.956.956,0,0,1,.871,0,1,1,0,0,0,1.856-.518c0-1.305-1.837-1.587-2.291-1.587s-2.291.282-2.291,1.587A1,1,0,0,0,62.777,70.2Z"/><path d="M76.541,68.305a1.259,1.259,0,0,0-.412-.93,1.29,1.29,0,0,0-1.809.146s-7.921,8.11-7.968,8.186a9.4,9.4,0,0,0-1.966-.623c-2.226-.381-4.1.177-5.012,1.494a1,1,0,1,0,1.644,1.139c.451-.652,1.613-.906,3.03-.661,1.689.289,2.466,1.029,2.63,1.626a1,1,0,0,0,.963.735.979.979,0,0,0,.266-.036,1,1,0,0,0,.7-1.229,2.906,2.906,0,0,0-.19-.5,3.436,3.436,0,0,0-.264-.458h0l8.044-8A1.393,1.393,0,0,0,76.541,68.305Z"/><path d="M56.267,54.752a1.049,1.049,0,0,0-1.239-1.678,15.716,15.716,0,0,1-4.753,1.985c-1.225.2-1.569.647-1.612,1.042a.752.752,0,0,0,.678.785A9.287,9.287,0,0,0,56.267,54.752Z"/><path d="M78.845,56.886a.752.752,0,0,0,.678-.785c-.044-.395-.387-.847-1.613-1.042a15.7,15.7,0,0,1-4.752-1.985,1.05,1.05,0,0,0-1.24,1.678A9.288,9.288,0,0,0,78.845,56.886Z"/><path d="M71.244,62.235a1.149,1.149,0,0,0,.812-.253v.6a2.107,2.107,0,1,0,4.213,0c-.01-.364-.073-1.363-.1-1.452a2.541,2.541,0,0,1,.5.43,1.335,1.335,0,0,1,.369,1.121.874.874,0,0,0,.655,1.05.9.9,0,0,0,.2.022.876.876,0,0,0,.852-.677A3.033,3.033,0,0,0,78,60.414a5.081,5.081,0,0,0-5.569-1.289,3.033,3.033,0,0,0-1.839,2.06A.86.86,0,0,0,71.244,62.235Z"/><path d="M98.107,111.013a47.323,47.323,0,0,0-19.65-15.279c-.833-.368-3.493-1.357-3.972-1.475-1.649-.408-2.77-.69-3.122-4.409A25.082,25.082,0,0,0,86.011,75.161a6.292,6.292,0,0,0,1.221.127,7.185,7.185,0,0,0,2.966-.664,9.124,9.124,0,0,0,4.686-5.008c1.2-3.19.618-6.2-1.437-7.93a49.877,49.877,0,0,0,1.54-6.511,4.548,4.548,0,0,0,2.449-1.4,8.178,8.178,0,0,0,1.88-6.12c-1.03-14.58-16.69-31.52-35.33-31.52-18.6,0-34.23,16.94-35.27,31.52a8.22,8.22,0,0,0,1.88,6.12,4.465,4.465,0,0,0,2.447,1.4,51.007,51.007,0,0,0,1.544,6.52c-2.048,1.73-2.632,4.731-1.442,7.924,1.152,3.054,4.315,5.677,7.653,5.677a6.234,6.234,0,0,0,1.232-.133A25.146,25.146,0,0,0,56.654,89.848c-.358,3.721-1.48,4-3.13,4.411-.481.118-6.4,2.539-8.5,3.688A46.475,46.475,0,0,0,29.9,111.014a5.473,5.473,0,0,0-1.333,4.474c.474,2.146,2.668,3.534,4.275,4.392,5.68,3.03,18.888,6.166,31.162,6.166s25.482-3.136,31.162-6.166c1.612-.86,3.808-2.25,4.281-4.4A5.469,5.469,0,0,0,98.107,111.013ZM87.488,68.272a5.756,5.756,0,0,1,2.7-1.963,1,1,0,0,0-.477-1.942,6.782,6.782,0,0,0-1.934.924c.091-.98.181-2.008.267-3.059a7.182,7.182,0,0,1,2.815.238,4.606,4.606,0,0,1,.861.4c1.787,1.1,2.283,3.413,1.294,6.041a7.189,7.189,0,0,1-3.639,3.89,5.007,5.007,0,0,1-2.738.441C86.988,71.96,87.454,68.611,87.488,68.272ZM38.076,72.5a7.177,7.177,0,0,1-3.058-3.585c-.979-2.627-.484-4.938,1.284-6.025a4.994,4.994,0,0,1,.88-.418A7.145,7.145,0,0,1,40,62.232c.086,1.05.176,2.078.267,3.06a6.767,6.767,0,0,0-1.936-.925,1,1,0,0,0-.483,1.94,5.568,5.568,0,0,1,2.705,1.972c.033.323.5,3.651.858,4.963A5.174,5.174,0,0,1,38.076,72.5Zm5.534,1.154a22.418,22.418,0,0,1-.973-4.674c-.347-3.6-1.179-12.358-.836-17.148.415.32.415.32.635.51,1.36,1.22,3.49,1.57,6.32,1.04a8.334,8.334,0,0,0,6.12-4.39c1.922,2.188,6.172,3.646,9.17,3.76a11.183,11.183,0,0,0,9.12-3.76,8.315,8.315,0,0,0,6.11,4.39c2.84.53,6.083-.592,6.951-1.571.346,4.8-.447,14.152-.825,17.179a25.088,25.088,0,0,1-.974,4.667C81.4,83.264,73.3,87.055,69.961,88.239A18.287,18.287,0,0,1,64,89.386a18.7,18.7,0,0,1-5.948-1.147C54.723,87.049,46.642,83.245,43.61,73.653Zm14.281,33.678a22.433,22.433,0,0,1-7.914-1.307c-3.17-1.221-5.071-3.16-5.461-5.471C46.538,98.909,53.569,96.308,54,96.2c2.254-.558,4.042-1.37,4.586-5.713a19.19,19.19,0,0,0,5.422.931,18.813,18.813,0,0,0,5.416-.923c.539,4.336,2.323,5.148,4.576,5.7a26.65,26.65,0,0,1,4.389,1.713C73.73,104.532,65.187,107.331,57.891,107.331Z"/></svg>