<svg id="Solid" xmlns="http://www.w3.org/2000/svg" viewBox="0 0 128 128"><title>avatar-02_3</title><rect x="48.204" y="45.958" width="5.605" height="7.573" rx="2.704" ry="2.704"/><rect x="74.192" y="45.958" width="5.605" height="7.573" rx="2.704" ry="2.704" transform="translate(153.988 99.49) rotate(180)"/><path d="M64.01,60.79c-.028,0-2.76-.044-2.76-1.609a1,1,0,0,1,1.823-.568,3.427,3.427,0,0,0,.937.177,3.35,3.35,0,0,0,.916-.176,1,1,0,0,1,1.824.567C66.75,60.746,64.037,60.79,64.01,60.79Z"/><path d="M46.129,48.37a1,1,0,0,1-.9-1.441A6.47,6.47,0,0,1,50.58,43.92a6.021,6.021,0,0,1,4.3,1.563,1,1,0,0,1-1.33,1.5A4.006,4.006,0,0,0,50.58,45.92a4.548,4.548,0,0,0-3.553,1.892A1,1,0,0,1,46.129,48.37Z"/><path d="M44.32,41.51a1,1,0,0,1-.7-1.718c2.425-2.352,10.527-3.555,12.938-1.92a1,1,0,0,1-1.123,1.656c-1.483-1.008-8.594-.075-10.422,1.7A1,1,0,0,1,44.32,41.51Z"/><path d="M81.871,48.37a1,1,0,0,1-.9-.558A4.548,4.548,0,0,0,77.42,45.92a4.006,4.006,0,0,0-2.965,1.058,1,1,0,0,1-1.33-1.5,6.021,6.021,0,0,1,4.3-1.563,6.47,6.47,0,0,1,5.348,3.009,1,1,0,0,1-.9,1.441Z"/><path d="M83.68,41.51a1,1,0,0,1-.7-.282c-1.828-1.774-8.939-2.707-10.421-1.7a1,1,0,1,1-1.123-1.656c2.411-1.633,10.512-.434,12.937,1.92a1,1,0,0,1-.7,1.718Z"/><path d="M64,70.71a6.675,6.675,0,0,1-6.4-4.837,2.174,2.174,0,0,1,.364-1.92,2.271,2.271,0,0,1,1.8-.892h8.48a2.271,2.271,0,0,1,1.8.892,2.176,2.176,0,0,1,.365,1.919A6.677,6.677,0,0,1,64,70.71Zm-4.24-5.649a.251.251,0,0,0-.2.1.182.182,0,0,0-.035.169,4.656,4.656,0,0,0,8.957,0,.185.185,0,0,0-.036-.168.25.25,0,0,0-.2-.1Z"/><path d="M100.757,84.991a92.506,92.506,0,0,1-5.217-12.5,12.726,12.726,0,0,0,4-4.307,7.492,7.492,0,0,0-.637-7.991,14.251,14.251,0,0,0,.383-2.151c.552-5.688-1.783-8.408-4.258-9.709.215-.832.411-1.643.578-2.416.01-.029.029-.054.037-.085a1.057,1.057,0,0,0,.025-.2c2.828-12.98.973-24-5.366-31.88C84.375,6.386,74.543,1.99,64,1.99c-4.521,0-10.386,1.6-13.3,5.181a2.311,2.311,0,0,1-1.391.872c-12.295,1.976-19.8,17.883-17.081,36.214.192,1.307.458,2.671.766,4.055-2.427,1.26-4.851,3.952-4.3,9.725.39,4,2.191,6.982,5.08,8.541-.784,6.353-3.7,12.484-6.532,18.413-4.879,10.223-9.481,19.886-1.452,28.257-.385,3.094,2.241,4.989,4.91,6.44,1.188.648,12.208,6.322,33.3,6.322s32.111-5.674,33.3-6.321c2.673-1.453,5.3-3.352,4.911-6.441C110.238,104.878,105.636,95.214,100.757,84.991ZM97.981,62.66a5.253,5.253,0,0,1-.215,4.594,10.16,10.16,0,0,1-2.8,3.169,32.389,32.389,0,0,1-.744-3.852A9.027,9.027,0,0,0,97.981,62.66Zm-64.3-26.595c.212-13.692,6.508-24.53,15.951-26.047a4.242,4.242,0,0,0,2.628-1.587C54.737,5.38,60.083,3.99,64,3.99,73.943,3.99,83.193,8.106,88.742,15c4.583,5.693,6.644,13.2,6.121,22.009-1.424-5.871-4.277-12.04-6.927-14.759a1,1,0,1,0-1.432,1.4C90.2,27.435,94.5,39.04,93.691,45.309c-.155.73-.341,1.5-.541,2.284a13.872,13.872,0,0,0-3.56-.5c-3.669-2.352-5.336-7.63-7.095-13.22a57.091,57.091,0,0,0-3.775-9.866,19.048,19.048,0,0,0-14.531-9.73A12.213,12.213,0,0,0,53.2,18.969a2.676,2.676,0,0,1-1.542.99c-1.806.357-5.2,1.807-7.616,7.5a39.96,39.96,0,0,0-2.485,10.858c-.528,4.141-.961,7.419-3.165,8.775a13.871,13.871,0,0,0-3.506.475c-.262-1.2-.492-2.393-.662-3.533,0-7.592,6.36-18.683,6.425-18.794a1,1,0,0,0-1.731-1A67.2,67.2,0,0,0,33.677,36.065ZM64.552,81.671c2.309,0,4.232-1.214,4.788-2.851a.921.921,0,0,0,.164.035c.308,0,.613.007.92.007a62,62,0,0,0,6.3-.33,29.03,29.03,0,0,1-6.218,3.193,34.2,34.2,0,0,1-4.642,1.369,8.827,8.827,0,0,1-3.739,0A34.02,34.02,0,0,1,57.5,81.732C45.462,77.254,42.252,67.945,41.731,66.125c-1.018-3.56-2.065-14.061-2.027-17.482,2.79-1.908,3.277-5.707,3.833-10.072a38.325,38.325,0,0,1,2.344-10.33c2.056-4.845,4.743-6.039,6.165-6.32A4.683,4.683,0,0,0,54.771,20.2a10.178,10.178,0,0,1,9.252-3.933A16.971,16.971,0,0,1,76.96,24.955a55.824,55.824,0,0,1,3.628,9.518c1.838,5.84,3.584,11.361,7.7,14.151.043,3.4-1.006,13.932-2.026,17.5a23,23,0,0,1-6.476,9.983,59.557,59.557,0,0,1-10.25.747,1.057,1.057,0,0,0-.2.042,4.9,4.9,0,0,0-4.786-2.845c-2.743,0-4.967,1.706-4.967,3.81S61.809,81.671,64.552,81.671ZM87.9,67.552a10.432,10.432,0,0,0,1.77.172,9.8,9.8,0,0,0,2.659-.37,35.746,35.746,0,0,0,.894,4.268A34.407,34.407,0,0,1,83.182,75.45,25.064,25.064,0,0,0,87.9,67.552ZM46.7,91.939a4.38,4.38,0,0,0-.367,2.536c-.673.305-1.447.67-2.209,1.073-10.558,5.614-14.858,11.1-17.179,14.743-.164.264-.3.517-.433.766-6.043-7.2-2.052-15.58,2.54-25.2,2.821-5.912,5.714-12.021,6.627-18.5a9.846,9.846,0,0,0,2.648.365,10.424,10.424,0,0,0,1.771-.172c1.087,3.09,4.957,11.363,16,15.761a11.435,11.435,0,0,1-2.233,6.313,2.844,2.844,0,0,0-3.46-.385l-.157.081C48.976,89.977,47.4,90.791,46.7,91.939Zm5.312,12.407a.687.687,0,0,1-.628-.15c-1.48-1.048-2.758-5.582-3.023-9.156a7.2,7.2,0,0,1,.046-2.059A8.128,8.128,0,0,1,51.161,91.1l.157-.081a1.448,1.448,0,0,1,.642-.2.807.807,0,0,1,.633.358l.137.162c.115.136.234.279.368.443a21.263,21.263,0,0,0,4.947,4.64C57.009,98.959,54.618,103.634,52.008,104.346Zm13.946,14.137a1.891,1.891,0,0,1-1.885,1.886h-.138a1.891,1.891,0,0,1-1.885-1.886v-.137a1.891,1.891,0,0,1,1.885-1.886h.138a1.891,1.891,0,0,1,1.885,1.886Zm-.463-19.235A44.619,44.619,0,0,1,64.038,109.8a44.327,44.327,0,0,1-1.459-10.548,4.8,4.8,0,0,0-2.862-4.208l-.021-.009a15,15,0,0,1-4.509-3.878,13.055,13.055,0,0,0,2.852-7.134A36.98,36.98,0,0,0,61.7,85.047a10.832,10.832,0,0,0,4.6,0,36.651,36.651,0,0,0,3.675-1.035,13.081,13.081,0,0,0,2.878,7.181,15.042,15.042,0,0,1-4.485,3.843A4.8,4.8,0,0,0,65.491,99.248Zm14.222-4.184c-.274,3.573-1.555,8.1-3.027,9.134a.682.682,0,0,1-.622.148c-2.607-.711-5-5.39-6.04-7.922A21.587,21.587,0,0,0,74.967,91.8c.157-.2.314-.385.508-.613.305-.365.612-.507,1.275-.167l.164.085a8.3,8.3,0,0,1,2.733,1.841A6.005,6.005,0,0,1,79.713,95.064Zm21.341,15.219c-2.316-3.637-6.615-9.121-17.176-14.736-.737-.389-1.459-.727-2.137-1.035a4.425,4.425,0,0,0-.368-2.573c-.7-1.146-2.275-1.96-3.542-2.614l-.163-.084a2.844,2.844,0,0,0-3.494.426A11.45,11.45,0,0,1,71.916,83.3a29.737,29.737,0,0,0,8.722-5.3A40.172,40.172,0,0,0,93.8,73.593a97.579,97.579,0,0,0,5.154,12.261c4.592,9.623,8.583,18,2.54,25.2C101.362,110.806,101.22,110.55,101.054,110.283Z"/></svg>