<svg id="Solid" xmlns="http://www.w3.org/2000/svg" viewBox="0 0 128 128"><title>avatar-01_4</title><path d="M62.431,58.881c-.029,0-2.97-.073-2.97-1.7a1,1,0,0,1,1.851-.525,2.9,2.9,0,0,0,2.237,0,1,1,0,0,1,1.852.524C65.4,58.808,62.46,58.881,62.431,58.881Z"/><path d="M62.421,68.841c-1.36,0-3.149-.185-3.951-1.068a1,1,0,0,1,1.478-1.348,4.8,4.8,0,0,0,2.473.416,4.83,4.83,0,0,0,2.5-.419,1.04,1.04,0,0,1,1.41,0,.963.963,0,0,1,.065,1.347C65.59,68.656,63.791,68.841,62.421,68.841Z"/><path d="M70.561,49.721a1,1,0,0,1-.7-1.71,7.24,7.24,0,0,1,9.715-.5,1,1,0,1,1-1.321,1.5,5.276,5.276,0,0,0-6.986.419A.993.993,0,0,1,70.561,49.721Z"/><path d="M54.3,49.721a1,1,0,0,1-.7-.29,5.276,5.276,0,0,0-6.986-.419,1,1,0,1,1-1.32-1.5,7.239,7.239,0,0,1,9.714.5,1,1,0,0,1-.7,1.71Z"/><rect x="72.452" y="47.82" width="4.563" height="5.714" rx="2.149" ry="2.149"/><path d="M81.6,43.768c-3.426-1.66-8.969-1.8-13.559-.519a1.55,1.55,0,0,0-1.032,1.96c.225.958.807,1.668,1.847,1.539,2.43-.3,6.783-1.1,9.836-.549,2.283.415,3.289-.012,3.623-.569C82.873,44.7,82.244,44.079,81.6,43.768Z"/><rect x="47.847" y="47.82" width="4.563" height="5.714" rx="2.149" ry="2.149" transform="translate(100.258 101.353) rotate(-180)"/><path d="M43.259,43.768c3.426-1.66,8.969-1.8,13.559-.519a1.55,1.55,0,0,1,1.032,1.96c-.225.958-.806,1.668-1.847,1.539-2.429-.3-6.782-1.1-9.835-.549-2.284.415-3.29-.012-3.623-.569C41.99,44.7,42.619,44.079,43.259,43.768Z"/><path d="M50.922,60.105a36.078,36.078,0,0,1-6.9-.792l-.205-.04c-4.1-.793-6.185-3.99-6.191-9.5a4,4,0,0,1,3-4.063c4.86-1.139,12.2-1.716,21.8-1.716,9.652,0,17.009.577,21.868,1.716a4,4,0,0,1,3,4.063c-.006,5.51-2.088,8.707-6.19,9.5l-.2.04c-2.384.464-7.964,1.548-12.384-.052-1.876-.678-2.949-2.428-3.9-3.972-.742-1.209-1.442-2.351-2.193-2.351S61,54.074,60.281,55.276c-.933,1.549-1.988,3.3-3.871,3.985A16.286,16.286,0,0,1,50.922,60.105ZM62.431,45.994c-9.453,0-16.634.56-21.344,1.663a2.022,2.022,0,0,0-1.457,2.115c.006,5.965,2.611,7.158,4.57,7.537l.209.041c2.219.432,7.417,1.444,11.321.03,1.215-.439,2.039-1.81,2.837-3.135.978-1.626,1.989-3.307,3.864-3.307s2.9,1.68,3.9,3.305c.813,1.326,1.654,2.7,2.871,3.137,3.9,1.413,9.1.4,11.321-.03l.209-.041c1.959-.379,4.563-1.572,4.569-7.538a2.021,2.021,0,0,0-1.457-2.114C79.132,46.554,71.929,45.994,62.431,45.994Z"/><path d="M62.431,60.728c-14.54,0-13.965,7.3-11.963,8.482,1.75,1.036,5.824-.924,9.466-3.162a4.766,4.766,0,0,1,4.994,0c3.643,2.238,7.717,4.2,9.466,3.162C76.4,68.025,76.971,60.728,62.431,60.728Z"/><path d="M100.931,109.591c-1.08-1.73-7.15-10.65-20.29-16.79l-.54-.25c-.33-.15-.66-.3-.98-.46a6.2,6.2,0,0,0-.31-3.09,8.6,8.6,0,0,0-3.38-2.49l-.13-.06a2.756,2.756,0,0,0-2.88.01c-.08-.185-.147-.384-.215-.582l.009-.006a10.126,10.126,0,0,1-.476-2.358A29.16,29.16,0,0,0,87.154,65.823a6.051,6.051,0,0,0,1.262.136,6.854,6.854,0,0,0,2.993-.715,9.868,9.868,0,0,0,4.945-6.114c1.336-4.782-.009-9.052-3.336-10.618a6.267,6.267,0,0,0-3.6-.315c.028-.968.041-1.884.046-2.781,1.612.184,2.588.029,3.223-.5a1.971,1.971,0,0,0,.691-1.573A4.608,4.608,0,0,0,92.072,40.5C94.5,15.137,80.4,9.124,66.7,5.71a4.284,4.284,0,0,0-8.467-.021c-13.751,3.42-27.9,9.444-25.432,34.875a4.526,4.526,0,0,0-1.259,2.777,1.967,1.967,0,0,0,.691,1.572,3.054,3.054,0,0,0,2.06.584,10.2,10.2,0,0,0,1.105-.07c.007.9.023,1.816.05,2.771a6.27,6.27,0,0,0-3.593.308c-3.338,1.572-4.683,5.842-3.347,10.625a9.867,9.867,0,0,0,4.946,6.113,6.851,6.851,0,0,0,2.993.715,6.059,6.059,0,0,0,1.262-.136A29.145,29.145,0,0,0,53.124,83.516a10.473,10.473,0,0,1-.344,1.86l.021.016a8.563,8.563,0,0,1-.35,1.029,2.783,2.783,0,0,0-2.83.03l-.12.06A8.533,8.533,0,0,0,46.121,89a6.2,6.2,0,0,0-.33,3.07c-.34.16-.68.32-1.03.48l-.54.25c-13.14,6.14-19.21,15.06-20.29,16.79a6.106,6.106,0,0,0-1.09,4.87c.59,2.28,2.84,3.78,4.97,4.96,1.23.68,12.71,6.65,34.62,6.65s33.39-5.97,34.62-6.65c2.13-1.18,4.38-2.68,4.97-4.96A6.106,6.106,0,0,0,100.931,109.591ZM88.059,62.5c.27-1.248.513-2.859.724-4.772a3.284,3.284,0,0,1,2.627-1.613,1,1,0,0,0,.175-1.992,4.626,4.626,0,0,0-2.519.651c.121-1.479.215-3,.278-4.506a4.368,4.368,0,0,1,2.812.045c2.385,1.123,3.319,4.527,2.272,8.275a7.81,7.81,0,0,1-3.893,4.853,4.632,4.632,0,0,1-2.809.451C87.84,63.457,87.951,63,88.059,62.5Zm-53.731.941a7.809,7.809,0,0,1-3.894-4.852c-1.047-3.749-.112-7.153,2.283-8.281a4.371,4.371,0,0,1,2.8-.04c.063,1.512.157,3.027.278,4.506a4.608,4.608,0,0,0-2.52-.651.992.992,0,0,0-.894,1.072,1.007,1.007,0,0,0,1.068.92,3.258,3.258,0,0,1,2.628,1.614c.211,1.913.454,3.523.724,4.773.109.5.22.953.333,1.39A4.631,4.631,0,0,1,34.328,63.444Zm4.992.852c-.2-.666-.382-1.391-.562-2.216a48.02,48.02,0,0,1-.722-4.837c-.263-2.408-.452-5.049-.546-7.641-.063-1.587-.089-3.083-.093-4.5,1.184-.235,2.545-.554,4.083-.918,5.407-1.278,12.812-3.029,20.981-3.029S78.01,42.9,83.405,44.173c1.531.362,2.885.68,4.065.915,0,1.417-.034,2.9-.1,4.517-.095,2.589-.284,5.23-.546,7.64a47.662,47.662,0,0,1-.723,4.834c-.18.826-.363,1.551-.562,2.222A27.163,27.163,0,0,1,70.269,81.99h0L70.25,82c-.274.124-.549.23-.851.347a20.537,20.537,0,0,1-6.968,1.486,20.615,20.615,0,0,1-7-1.5c-.268-.1-.538-.21-.824-.338l-.014-.006-.024-.009A27.157,27.157,0,0,1,39.32,64.3Zm16.055,52.965a1.039,1.039,0,0,1-.78,1.01l-7.56,1.94a1.1,1.1,0,0,1-.51,0l-7.57-1.94a1.039,1.039,0,0,1-.78-1.01v-3.69a1.037,1.037,0,0,1,1.04-1.03h15.13a1.029,1.029,0,0,1,1.03,1.03Zm-4.224-16.62c-.11.03-.39.1-.88-.44a11.167,11.167,0,0,1-1.855-4.41c-.208-.865-.374-1.744-.485-2.55-.06-.4-.11-.78-.14-1.13-.03-.38-.05-.72-.05-1.02a3.274,3.274,0,0,1,.09-1.04,7.736,7.736,0,0,1,2.58-1.76l.13-.06a1.25,1.25,0,0,1,.58-.18.553.553,0,0,1,.32.1.914.914,0,0,1,.23.21l.28.34c.02.02.03.04.05.06l.377.442c.371.434.784.905,1.227,1.378l.061.065c.274.291.559.58.856.863l.174.163c.292.272.591.535.9.782.05.04.1.076.152.115a10.248,10.248,0,0,0,1.012.7C55.781,95.651,53.561,99.981,51.151,100.641Zm12.7-1.05c-.44,2.01-.91,4.18-1.39,5.84-.47-1.66-.94-3.83-1.38-5.84-.28-1.28-.52-2.33-.73-3.22a17.03,17.03,0,0,0,2.55.19c.6,0,1.17-.03,1.64-.06C64.341,97.371,64.111,98.381,63.851,99.591Zm1.22-5.14a16.179,16.179,0,0,1-5.29-.25c-.44-1.48-.82-2.07-1.36-2.31a15.026,15.026,0,0,1-4.49-3.95,10.881,10.881,0,0,0,1.127-3.622,21.942,21.942,0,0,0,7.373,1.512,21.95,21.95,0,0,0,7.374-1.515,10.8,10.8,0,0,0,1.156,3.675,15.055,15.055,0,0,1-4.45,3.9C65.941,92.141,65.551,92.781,65.071,94.451Zm4.1-1.88.174-.135c.32-.256.63-.526.93-.807l.081-.077a32.042,32.042,0,0,0,2.454-2.661c.06-.06.12-.13.17-.19l.28-.34a1.022,1.022,0,0,1,.18-.18c.2-.16.46-.21.95.05l.12.06a8.039,8.039,0,0,1,2.57,1.72,3.081,3.081,0,0,1,.09,1.1c0,.32-.02.68-.06,1.09-.03.34-.07.69-.13,1.07-.35,2.47-1.15,5.6-2.33,6.93-.48.54-.77.47-.87.44-2.41-.66-4.63-4.99-5.61-7.37A10.751,10.751,0,0,0,69.172,92.571Zm17.633,24.69a1.039,1.039,0,0,1-.78,1.01l-7.56,1.94a1.142,1.142,0,0,1-.52,0l-7.56-1.94a1.039,1.039,0,0,1-.78-1.01v-3.69a1.029,1.029,0,0,1,1.03-1.03h15.13a1.031,1.031,0,0,1,1.04,1.03Z"/></svg>