<svg id="Solid" xmlns="http://www.w3.org/2000/svg" viewBox="0 0 128 128"><title>avatar-01_6</title><rect x="73.336" y="50.483" width="4.59" height="5.481" rx="2.295" ry="2.295"/><rect x="49.632" y="50.483" width="4.59" height="5.481" rx="2.295" ry="2.295" transform="translate(103.853 106.447) rotate(180)"/><path d="M71.493,52.86a.96.96,0,0,1-.394-.084.976.976,0,0,1-.523-1.269c.52-1.252,2.225-1.773,3.563-1.991,2.441-.4,5.688-.109,7.054,1.459a1,1,0,1,1-1.509,1.313c-.641-.737-2.857-1.113-4.941-.84-1.533.2-2.236.654-2.321.828A1.047,1.047,0,0,1,71.493,52.86Z"/><path d="M63.779,65.681c-.05,0-4.94-.216-4.94-2.389a1,1,0,0,1,1.951-.308,7.6,7.6,0,0,0,2.989.7,7.724,7.724,0,0,0,3.018-.7,1,1,0,0,1,1.952.308C68.749,65.465,63.828,65.681,63.779,65.681Z"/><path d="M70.069,49.232a1,1,0,0,1-.324-1.947c4.4-1.5,10.8-2.2,14.466-.19a1,1,0,0,1-.964,1.752c-2.96-1.627-8.832-1.045-12.855.331A1.013,1.013,0,0,1,70.069,49.232Z"/><path d="M56.059,52.892a1,1,0,0,1-.923-.616c-.087-.175-.79-.626-2.321-.828-2.084-.274-4.3.1-4.942.84a1,1,0,0,1-1.509-1.313c1.365-1.568,4.614-1.855,7.054-1.459,1.339.218,3.044.739,3.564,1.991a1,1,0,0,1-.923,1.385Z"/><path d="M57.489,49.232a1.015,1.015,0,0,1-.324-.054c-4.024-1.376-9.895-1.959-12.855-.331a1,1,0,1,1-.963-1.752c3.662-2.014,10.064-1.314,14.465.19a1,1,0,0,1-.323,1.947Z"/><path d="M70.07,71.792c-.039,0-.079,0-.12-.007a52.109,52.109,0,0,0-12.343,0A1,1,0,1,1,57.37,69.8a54.3,54.3,0,0,1,12.817,0,1,1,0,0,1-.117,1.994Z"/><path d="M108,108.52A43.231,43.231,0,0,0,97.574,97.655a82.331,82.331,0,0,0-10.729-6.8c-.372-.2-.768-.392-1.167-.588.8,6.051,1.03,14.4.587,16.752a1.837,1.837,0,0,1-.878,1.255,3.561,3.561,0,0,1-1.864.412c-2.022,0-5.11-.869-9.334-2.137a50.515,50.515,0,0,0-8.157-1.719.583.583,0,0,0-.476.208,22.331,22.331,0,0,0-1.98,3.078,4.734,4.734,0,0,0-.679,1.857c-.253,3.043.336,11.013.9,16.346,17.16,0,32.694-3.476,38.605-6.746,1.92-1.07,4.619-2.753,5.887-5,.009-.016.015-.033.024-.049a.975.975,0,0,0,.056-.112A5.487,5.487,0,0,0,108,108.52Zm-15.74,7.821a.985.985,0,0,1-.63.93c-1.74.68-6.58,2.52-8.29,2.52s-6.56-1.84-8.3-2.52a.985.985,0,0,1-.63-.93v-3.09a1,1,0,0,1,1-1.01h15.85a1,1,0,0,1,1,1.01Zm14.547-3.259c-1.985-.174-5.062-2.723-8.578-7.137a6.042,6.042,0,0,1-.905-5.94,40.235,40.235,0,0,1,9,9.6A3.514,3.514,0,0,1,106.806,113.082Z"/><path d="M62.889,105.541a.394.394,0,0,0-.289-.6,17.48,17.48,0,0,0-2.916.039,54.068,54.068,0,0,0-6.539,1.665c-4.16,1.225-7.217,2.069-9.2,2.069a3.309,3.309,0,0,1-1.89-.451,1.772,1.772,0,0,1-.776-1.341,88.7,88.7,0,0,1,.586-16.637c-.4.193-.791.385-1.163.581-.5.273-.978.538-1.455.8a4,4,0,0,0-2.488-.874h-4.67a2.959,2.959,0,0,0-1.011.188V85.7a1,1,0,0,0-2,0V98.364a42.423,42.423,0,0,0-9.518,10.153,5.66,5.66,0,0,0-.921,4.564c.75,3,4.078,5.145,6.515,6.495,5.62,3.11,20.3,6.475,36.647,6.718-.641-5.952-1.636-17.2-.206-18.708C61.76,107.412,62.456,106.212,62.889,105.541Zm-31.811-2.519V93.8a1.006,1.006,0,0,1,1.011-1.009h4.67a2.01,2.01,0,0,1,1.5.667c.018.027.038.054.059.08a1.961,1.961,0,0,1,.461,1.262v8.221a3.029,3.029,0,0,1-3.03,3.02H34.1A3.024,3.024,0,0,1,31.078,103.022ZM51.2,116.341a.985.985,0,0,1-.63.93c-1.74.68-6.58,2.52-8.29,2.52s-6.56-1.84-8.3-2.52a1,1,0,0,1-.63-.93v-3.09a1,1,0,0,1,1-1.01H50.2a1,1,0,0,1,1,1.01Z"/><path d="M97.277,37.2c2.825-1.59,6.325-6.837,5.724-11.537-.881-6.93-17.037-23.345-39.222-23.345S25.437,18.736,24.557,25.665c-.6,4.7,2.9,9.948,5.723,11.538l1.233,6.4c.253,1.728,1.112,6.183,1.6,8.372-2.969,1.706-4.02,5.565-2.6,9.918a9.495,9.495,0,0,0,4.791,5.453,8.394,8.394,0,0,0,3.706.891,7.5,7.5,0,0,0,1.489-.164,27.627,27.627,0,0,0,8.428,13.646A21.394,21.394,0,0,0,51,83.284a6.541,6.541,0,0,1-.972,1.74,2.121,2.121,0,0,0-.984-.311,6.3,6.3,0,0,0-2.911.738,2.954,2.954,0,0,0-1.582,1.818c-1.458,4.937-1.588,14.127-1.347,18.538a.972.972,0,0,0,1.038.922,53.7,53.7,0,0,0,8.334-2.007,36.461,36.461,0,0,1,8.235-1.355.331.331,0,0,0,.231-.558c-.818-.891-1.616-1.841-2.391-2.834,1.464.094,2.951.134,4.363.134,2.179,0,4.169-.083,5.605-.165-.768.974-1.556,1.939-2.379,2.877a.28.28,0,0,0,.2.469,33.739,33.739,0,0,1,8.322,1.345c2.457.738,6.63,1.992,8.608,2.081a1,1,0,0,0,1.036-.9,89.542,89.542,0,0,0-1.144-18.158,2.989,2.989,0,0,0-1.587-2.08,6.6,6.6,0,0,0-3.168-.863,2.109,2.109,0,0,0-.983.312,6.538,6.538,0,0,1-.973-1.741,21.456,21.456,0,0,0,2.074-1.57,27.69,27.69,0,0,0,8.427-13.636,7.454,7.454,0,0,0,1.484.164,8.411,8.411,0,0,0,3.7-.89,9.513,9.513,0,0,0,4.8-5.46c1.425-4.362.37-8.226-2.6-9.923.49-2.19,1.348-6.643,1.6-8.37ZM58.4,9.461a14.806,14.806,0,0,1,10.82,0v3.61a5.41,5.41,0,0,1-10.82,0ZM36.19,65.547a7.459,7.459,0,0,1-3.771-4.276c-.994-3.045-.692-6.648,2.243-7.84a6.091,6.091,0,0,1,3.322-.183c.133,1.588.284,3.064.454,4.453a6.5,6.5,0,0,0-3.018-.769,1,1,0,0,0-.957,1.031,1.03,1.03,0,0,0,1.027.968,4.547,4.547,0,0,1,3.348,1.652c.31,1.982.687,3.843,1.123,5.561A6.166,6.166,0,0,1,36.19,65.547ZM70.234,97.832a84.817,84.817,0,0,1-13.147.011A54.659,54.659,0,0,1,51.119,86.82a8.863,8.863,0,0,0,1.618-2.461,23.2,23.2,0,0,0,11.042,3.1,23.208,23.208,0,0,0,11.042-3.1,8.867,8.867,0,0,0,1.621,2.464A53.814,53.814,0,0,1,70.234,97.832ZM86.781,60.05A59.239,59.239,0,0,1,85.415,66.6c-1.646,5.943-4.146,10.139-8.1,13.6a19.728,19.728,0,0,1-2.476,1.828,21.8,21.8,0,0,1-11.056,3.426,21.788,21.788,0,0,1-11.058-3.428,19.655,19.655,0,0,1-2.475-1.826c-3.956-3.453-6.455-7.652-8.1-13.613a57.668,57.668,0,0,1-1.375-6.606c-.343-2.234-.618-4.69-.841-7.506a34.569,34.569,0,0,1,.929-8.435c5.421,1.637,14.192,1.873,22.933,1.873s17.488-.236,22.914-1.874a34.637,34.637,0,0,1,.93,8.436h0C87.407,55.349,87.129,57.823,86.781,60.05Zm8.357,1.223a7.474,7.474,0,0,1-3.779,4.284,6.14,6.14,0,0,1-3.765.6c.434-1.723.809-3.568,1.115-5.509a4.717,4.717,0,0,1,3.38-1.713h.01a1,1,0,0,0,.015-2,6.731,6.731,0,0,0-3,.815c.173-1.4.325-2.886.458-4.5a6.121,6.121,0,0,1,3.339.189C95.83,54.623,96.133,58.226,95.138,61.273Zm-.7-19.92a30.313,30.313,0,0,0-2.694-2.243c-5.165-3.855-14.211-8.449-27.968-8.449S41,35.244,35.831,39.089a30.494,30.494,0,0,0-2.714,2.264l-.891-4.621c1.376-2.065,10.3-14.071,31.553-14.071S93.955,34.667,95.331,36.732Z"/></svg>