<svg id="Solid" xmlns="http://www.w3.org/2000/svg" viewBox="0 0 128 128"><title>avatar-02_16</title><path d="M85.99,50.086c-2.471-4.968-9.946-4.128-12.76-3.811l-.526.057a10.466,10.466,0,0,0-1.634.3H56.931a10.466,10.466,0,0,0-1.634-.3l-.526-.057c-2.816-.317-10.288-1.157-12.76,3.811a11.245,11.245,0,0,0,.6,9.972c1.741,3.08,4.627,3.73,7.278,3.73.51,0,1.012-.024,1.494-.059,5.838-.429,10.533-6.4,11.2-10.317a5.087,5.087,0,0,0,.059-.849,4.468,4.468,0,0,1,2.712-.005,5.156,5.156,0,0,0,.06.854c.667,3.92,5.362,9.888,11.2,10.317h0c.483.036.984.06,1.494.06,2.651,0,5.537-.651,7.278-3.73A11.242,11.242,0,0,0,85.99,50.086Zm-23.753.5a5.226,5.226,0,0,0-.632-1.1,6.173,6.173,0,0,0-.8-.847H67.2a6.173,6.173,0,0,0-.8.847,5.227,5.227,0,0,0-.63,1.1A6.4,6.4,0,0,0,62.237,50.582Z"/><path d="M44.208,43.634a1,1,0,0,1-.345-1.939c5.059-1.86,11.365-1.033,14.151-.076a1,1,0,0,1-.65,1.892c-2.132-.732-8.066-1.682-12.812.061A.989.989,0,0,1,44.208,43.634Z"/><path d="M83.793,43.634a.989.989,0,0,1-.344-.062c-4.743-1.743-10.681-.793-12.812-.061a1,1,0,0,1-.65-1.892c2.786-.957,9.093-1.784,14.151.076a1,1,0,0,1-.345,1.939Z"/><path d="M68.908,65.205H59.093a2.458,2.458,0,0,0-1.95.972,2.357,2.357,0,0,0-.4,2.082,7.541,7.541,0,0,0,14.511,0,2.357,2.357,0,0,0-.4-2.082A2.458,2.458,0,0,0,68.908,65.205Zm.425,2.51a5.544,5.544,0,0,1-10.665,0,.37.37,0,0,1,.07-.332.443.443,0,0,1,.355-.179h9.815a.443.443,0,0,1,.355.179A.368.368,0,0,1,69.333,67.715Z"/><path d="M64.01,62.608c.03,0,2.912-.046,2.912-1.674a1,1,0,0,0-1.844-.535,2.882,2.882,0,0,1-2.155,0,1,1,0,0,0-1.844.535C61.079,62.562,63.981,62.608,64.01,62.608Z"/><path d="M102.477,82.835c-1.731-9.442-3.694-20.144-5.715-33.946-.97-6.659-2.342-12.121-3.905-15.61a.99.99,0,0,0,.434-.81c0-13.924-13.5-24.466-24.782-26.822a4.522,4.522,0,0,0-8.929-.009c-11.066,2.3-24.306,12.641-24.831,26.379-3.2.6-12,2.613-12.866,6.777a2.2,2.2,0,0,0,.48,1.871c1.447,1.8,5.666,2.346,9.326,2.465a421.233,421.233,0,0,1-6.826,45.382c-1.816,9.319-3.249,16.68-3.681,23.84a6.417,6.417,0,0,0,4.158,6.46,11.4,11.4,0,0,0,4.033.7c.2,0,.4-.012.608-.021.113.066.223.135.34.2a46.568,46.568,0,0,0,11.289,4A95.272,95.272,0,0,0,64,126.163,95.821,95.821,0,0,0,86.38,123.7,47.438,47.438,0,0,0,97.7,119.677c.109-.061.215-.126.324-.188.2.009.4.021.6.021a11.572,11.572,0,0,0,3.834-.622,6.591,6.591,0,0,0,4.356-6.605C106.286,103.6,104.605,94.434,102.477,82.835Zm-38.437-79A2.569,2.569,0,0,1,66.3,5.285,20.153,20.153,0,0,0,64,5.149a19.921,19.921,0,0,0-2.206.129A2.558,2.558,0,0,1,64.04,3.837Zm22,113.174a5.339,5.339,0,0,0-4.884-3.8c-2.173,0-5.456.139-8.631.274-3.15.134-6.4.272-8.528.272s-5.385-.138-8.538-.272c-3.173-.135-6.455-.274-8.627-.274a5.347,5.347,0,0,0-4.891,3.808,28.308,28.308,0,0,0-.935,4.459,52.384,52.384,0,0,1-7.614-2.528c4.41-1.229,8.718-4.47,10-9.4a50.138,50.138,0,0,0,1.309-12.716c.664-.345,1.348-.688,2.055-1.019l.092-.043a37.464,37.464,0,0,0,4.09-2.123A26.113,26.113,0,0,0,64,97.375a26.1,26.1,0,0,0,13.054-3.733,37.4,37.4,0,0,0,4.09,2.124l.089.042c.649.3,1.322.64,2.022,1A50.563,50.563,0,0,0,84.6,109.543c1.286,4.933,5.6,8.174,10,9.4a53,53,0,0,1-7.623,2.536A27.986,27.986,0,0,0,86.044,117.011ZM71.007,84.522a11,11,0,0,0,4.233,7.847c-7.549,4.039-14.93,4.039-22.479,0a11,11,0,0,0,4.233-7.847,18.7,18.7,0,0,0,14.013,0ZM50.361,91.653a31.69,31.69,0,0,1-4.347,2.3l-.1.044q-.636.3-1.253.607c-.116-4.863-.535-9.993-.995-15.409-.185-2.188-.368-4.417-.537-6.654a24.888,24.888,0,0,0,4.726,5.948,29.185,29.185,0,0,0,7.18,5.166A9.412,9.412,0,0,1,50.361,91.653ZM84.2,79.186c-.429,5.413-.818,10.541-.911,15.395-.411-.2-.813-.4-1.21-.586l-.092-.043a31.589,31.589,0,0,1-4.353-2.3,9.407,9.407,0,0,1-4.673-7.994A29.11,29.11,0,0,0,80.126,78.5a23.606,23.606,0,0,0,4.553-5.675C84.529,74.965,84.365,77.1,84.2,79.186Zm.826-11.972a22.521,22.521,0,0,1-6.281,9.841,26.629,26.629,0,0,1-7.234,5.087,17.137,17.137,0,0,1-15.023,0,26.67,26.67,0,0,1-7.247-5.1,24.179,24.179,0,0,1-6.482-10.152c-.37-7.222-.48-16.449,1.762-24.549a142.608,142.608,0,0,0,26.287-6.346c3.279-.165,6.587-.44,9.852-.8C85.434,44.522,85.567,56.575,85.026,67.214ZM26.041,116.939a4.433,4.433,0,0,1-2.863-4.466c.424-7.029,1.847-14.332,3.648-23.579A422.387,422.387,0,0,0,33.7,43.162a77.384,77.384,0,0,0,8.681-.554c-2.108,8.216-1.979,17.345-1.608,24.5v.033c.219,4.085.57,8.221.909,12.22.507,5.972.986,11.613,1.031,16.866a49.22,49.22,0,0,1-1.245,12.809c-1.348,5.176-6.7,8.165-11.3,8.445A9.934,9.934,0,0,1,26.041,116.939ZM101.8,117a9.964,9.964,0,0,1-3.966.481c-4.593-.279-9.949-3.268-11.3-8.446A50.479,50.479,0,0,1,85.252,96.2c.024-5.245.469-10.887.941-16.86.308-3.888.625-7.907.824-11.881V67.44c0-.016.01-.032.01-.048s-.006-.019-.006-.03c.543-10.672.419-22.766-4.255-32.426,2.729-.337,5.443-.737,8.1-1.2,1.536,3.25,2.949,8.809,3.917,15.447,2.025,13.838,3.991,24.559,5.726,34.018,2.116,11.533,3.786,20.642,4.313,29.208A4.584,4.584,0,0,1,101.8,117Z"/></svg>