<svg id="Solid" xmlns="http://www.w3.org/2000/svg" viewBox="0 0 128 128"><title>avatar-03_23</title><rect x="49.506" y="45.642" width="4.034" height="4.755" rx="1.916" ry="1.916" transform="translate(103.047 96.04) rotate(-180)"/><rect x="74.453" y="45.642" width="4.034" height="4.755" rx="1.916" ry="1.916"/><path d="M64.117,66.165c-.228,0-.446,0-.65-.008-4.661-.108-5.148-1.251-5.307-1.626a1,1,0,0,1,1.773-.914c1.09.741,7.131.738,8.16-.009a1,1,0,0,1,1.749.965C69.193,65.918,66.216,66.165,64.117,66.165Zm3.923-2.46h0Z"/><path d="M46.37,47.84a1,1,0,0,1-.717-1.7,7.69,7.69,0,0,1,5.28-2.042A6.881,6.881,0,0,1,55.959,46a1,1,0,1,1-1.4,1.43A4.974,4.974,0,0,0,51.036,46.1h-.079a5.727,5.727,0,0,0-3.87,1.436A1,1,0,0,1,46.37,47.84Z"/><path d="M81.62,47.84a1,1,0,0,1-.719-.305A5.7,5.7,0,0,0,77.04,46.1a4.941,4.941,0,0,0-3.6,1.323A1,1,0,1,1,72.04,46a6.935,6.935,0,0,1,4.919-1.9h.107a7.663,7.663,0,0,1,5.273,2.044,1,1,0,0,1-.719,1.7Z"/><path d="M64,58.53c-.026,0-2.66-.043-2.66-1.58a1,1,0,0,1,1.814-.58,3.167,3.167,0,0,0,.846.16,3.1,3.1,0,0,0,.835-.159,1,1,0,0,1,1.815.579C66.65,58.487,64.026,58.53,64,58.53Z"/><path d="M102.82,109.39c-1.1-1.74-7.22-10.74-20.46-16.92l-.93-.43a26.636,26.636,0,0,1-4.06-2.14c-1.2.78-5.56,3.2-13.37,3.2-.5,0-1.919.045-2.389.025-.03.02-11.191,4.445-11.191,4.445l-.09.03a1.567,1.567,0,0,0-1.09,1.66c.63,5.81,2.75,21.11,3.89,26.21,3.5.35,7.15.53,10.87.53,22.11,0,33.67-6.03,34.91-6.71,2.15-1.18,4.42-2.7,5.01-4.99A6.164,6.164,0,0,0,102.82,109.39Zm-49.79-6.73a1.8,1.8,0,1,1,1.8-1.8A1.8,1.8,0,0,1,53.03,102.66Zm2.5,14.18a1.8,1.8,0,1,1,1.79-1.79A1.79,1.79,0,0,1,55.53,116.84Zm32.26-1.15a1,1,0,0,1-1,1H74.15a1,1,0,0,1-1-1V113.4a.99.99,0,0,1,1-1H86.79a1,1,0,0,1,1,1ZM34.42,62.1a9.038,9.038,0,0,0,4.02.97,8.225,8.225,0,0,0,1.64-.17c2.58,7.97,8.22,14.64,15.01,17.73-.02.59-.07,1.17-.14,1.72-.19,0-.37-.02-.55-.01a2.167,2.167,0,0,0-1.59.73c-1.05,1.15-1.265,4.2-1.155,5.823A29.971,29.971,0,0,0,64,91.588c6.61,0,11.1-1.764,12.476-2.564.01-.08-.246-4.794-1.306-5.964a2.156,2.156,0,0,0-1.58-.72c-.16,0-.35.01-.54.02-.06-.57-.1-1.14-.11-1.74,6.79-3.09,12.43-9.75,15.01-17.72a8.15,8.15,0,0,0,1.64.17,9.028,9.028,0,0,0,4.01-.97,9.571,9.571,0,0,0,4.97-5.56c1.59-4.88.19-9.16-3.47-10.65a6.769,6.769,0,0,0-1.58-.39c.17-3.52.12-7.6-.01-10.1V12.44C93.51,6.78,75.38,2,64,2S34.52,6.78,34.52,12.44V35.4c-.14,2.73-.21,6.69-.05,10.11a6.471,6.471,0,0,0-1.53.37c-3.67,1.5-5.07,5.78-3.48,10.66A9.587,9.587,0,0,0,34.42,62.1Zm30.2,23.25a3.177,3.177,0,0,0-.62.91,3.548,3.548,0,0,0-.63-.92c-1.14-1.1-4.09-2.21-6.44-2.71q.075-.6.12-1.23a20.463,20.463,0,0,0,13.92,0c.02.42.05.83.1,1.24C68.68,83.14,65.73,84.26,64.62,85.35Zm23.21-31.1a.266.266,0,0,0-.03.12c-.23,1.65-.6,3.54-1.14,5.8-.09.37-.19.74-.29,1.1l-.04.13c-2.34,8.11-8.06,14.9-14.92,17.72a19.4,19.4,0,0,1-7.39,1.5,19.785,19.785,0,0,1-7.52-1.54c-6.79-2.83-12.47-9.61-14.8-17.67l-.04-.14c-.1-.36-.2-.73-.29-1.1-.54-2.26-.91-4.15-1.14-5.8a.5.5,0,0,0-.02-.12,43.01,43.01,0,0,1-.32-6.71v-.01a25.148,25.148,0,0,0,7.75-4.64c.01-.01.02-.02.03-.02a7.819,7.819,0,0,0,2.26-3.65c4.33.29,9.19.43,14.06.43s9.73-.14,14.07-.43a7.834,7.834,0,0,0,2.28,3.66,25.254,25.254,0,0,0,7.8,4.65A44.409,44.409,0,0,1,87.83,54.25Zm4.57-6.86h.04c.01,0,.02.01.03.01v-.01a6.655,6.655,0,0,1,1.86.35c3.06,1.24,3.38,5,2.34,8.18a7.736,7.736,0,0,1-3.95,4.39,6.738,6.738,0,0,1-4.21.66,3.374,3.374,0,0,0,.09-.34c.53-2.18.9-4.04,1.14-5.68a5.278,5.278,0,0,1,3.73-1.84,1,1,0,0,0,0-2,7.55,7.55,0,0,0-3.42.98c.11-1.55.1-2.95.09-4.56A8.544,8.544,0,0,1,92.4,47.39ZM36.52,27.2C47.2,21.48,56.3,20.98,64,20.98c7.72,0,16.83.5,27.51,6.22v6.51C87.22,31.55,77.75,28.54,64,28.54c-13.73,0-23.19,3.01-27.48,5.17ZM33.71,47.73a6.385,6.385,0,0,1,1.87-.33h.01c.26-.02.52-.03.75-.03a6.972,6.972,0,0,1,1.55.15v.01c-.01,1.62-.02,3.01.09,4.56a7.55,7.55,0,0,0-3.42-.98,1,1,0,0,0,0,2,5.308,5.308,0,0,1,3.74,1.84c.23,1.64.6,3.5,1.13,5.68.02.11.06.22.09.34a6.768,6.768,0,0,1-4.22-.66,7.688,7.688,0,0,1-3.94-4.39C30.32,52.74,30.64,48.98,33.71,47.73ZM50.045,95.813l8.44-3.11A22.909,22.909,0,0,1,50.55,89.85a27.339,27.339,0,0,1-4.39,2.37l-.53.25c-13.24,6.18-19.36,15.18-20.46,16.92a6.194,6.194,0,0,0-1.09,4.91c.59,2.29,2.86,3.81,5.01,4.99,1.31.72,8.71,4.36,22.24,5.96-1.31-6.26-3.255-21.387-3.725-25.677A3.55,3.55,0,0,1,50.045,95.813Z"/><path d="M81.04,43.16a1,1,0,0,1-.383-.076c-.027-.011-3.278-1.278-9.418-.287a1,1,0,0,1-.318-1.975c6.759-1.092,10.352.352,10.5.414a1,1,0,0,1-.383,1.924Z"/><path d="M46.95,43.16a1,1,0,0,1-.428-1.9,1.028,1.028,0,0,1,.1-.044c.656-.24,4.24-1.393,10.444-.39a1,1,0,0,1-.318,1.975c-5.613-.9-8.751.047-9.4.28A1.025,1.025,0,0,1,46.95,43.16Z"/></svg>