<svg id="Solid" xmlns="http://www.w3.org/2000/svg" viewBox="0 0 128 128"><title>avatar-03_14</title><path d="M63.965,59.76c.03,0,3.05-.047,3.05-1.71a1,1,0,0,0-1.852-.525,4.078,4.078,0,0,1-1.2.235,4.023,4.023,0,0,1-1.188-.234,1,1,0,0,0-1.852.524C60.925,59.713,63.935,59.76,63.965,59.76Z"/><path d="M63.965,67.99c1.7,0,4.727-.151,5.965-1.167a1,1,0,1,0-1.27-1.547c-.3.247-1.669.714-4.695.714s-4.4-.469-4.7-.718a1,1,0,0,0-1.258,1.555C59.257,67.839,62.277,67.99,63.965,67.99Z"/><path d="M56.133,49.55a1,1,0,0,0-1.139-.838c-2.759.414-6.708-.3-7.532-1.129A1,1,0,0,0,46.048,49c1.271,1.271,4.513,1.831,7.153,1.831a14.235,14.235,0,0,0,2.094-.14A1,1,0,0,0,56.133,49.55Z"/><path d="M56.267,41.26A1,1,0,1,0,57,39.4c-5.145-2.035-12.99.252-13.322.351a1,1,0,0,0,.568,1.918C44.323,41.647,51.775,39.483,56.267,41.26Z"/><path d="M79.175,111.97c-5.437,1.14-11.033,2.307-14.815,5.331a.624.624,0,0,1-.79,0c-3.78-3.024-9.357-4.191-14.775-5.331a60.682,60.682,0,0,1-9.367-2.488.629.629,0,0,0-.83.766,15.006,15.006,0,0,1,.537,4.832l-.329,6.168c0,.015,0,.029,0,.044l-.147,1.2a99.525,99.525,0,0,0,25.31,3.01,100.53,100.53,0,0,0,25.38-3.02l-.137-1.118c0-.015,0-.029,0-.044l-.339-6.238a15.044,15.044,0,0,1,.541-4.849.627.627,0,0,0-.833-.756A59.855,59.855,0,0,1,79.175,111.97Z"/><path d="M104.725,108.55a34.625,34.625,0,0,0-6.84-8.19,48.5,48.5,0,0,0-11.52-7.29c-.79-.37-1.64-.69-2.53-1.04-2.59-1.01-5.27-2.05-7.17-4.28a11.025,11.025,0,0,1-2.49-6.42c4.82-2.52,10.9-7.79,13.23-13.07.49-1.12.92-2.27,1.32-3.42,5.17-.09,8.8-4.73,10.02-12.89.78-5.19.05-9.62-2.01-12.16a6,6,0,0,0-3.33-2.13,43.734,43.734,0,0,0-2.86-19.25C86.115,8,76.925,2.5,63.965,2.5c-12.94,0-22.12,5.49-26.54,15.87a.689.689,0,0,0-.03.08c-2.24,5.34-3.2,11.97-2.82,19.21a6.011,6.011,0,0,0-3.32,2.13c-2.05,2.54-2.79,6.97-2.01,12.16,1.22,8.16,4.85,12.8,10.02,12.89.39,1.14.83,2.29,1.33,3.43,2.33,5.28,8.42,10.54,13.23,13.06a11.037,11.037,0,0,1-2.49,6.44c-1.9,2.2-4.57,3.24-7.16,4.25-.9.35-1.75.68-2.55,1.05a49.069,49.069,0,0,0-11.52,7.29,34.444,34.444,0,0,0-6.83,8.19,5.683,5.683,0,0,0-.95,4.49c.65,2.5,3.3,4.13,5.94,5.59a41.831,41.831,0,0,0,8.45,3.31l.1-.84.32-6.13a13,13,0,0,0-3.82-9.92c-.36-.37-2.43-2.48-2.43-2.48s1.031-1.092,1.4-1.43a40.283,40.283,0,0,1,10.18-6.25c.74-.35,1.56-.67,2.43-1.01,2.44-.95,5.18-2.02,7.32-4.15a117,117,0,0,0,11.29,6.66,1.072,1.072,0,0,0,.46.11,1,1,0,0,0,.45-.11,111.985,111.985,0,0,0,11.36-6.67,20.37,20.37,0,0,0,7.34,4.17c.86.34,1.67.65,2.41,1a40.321,40.321,0,0,1,10.21,6.28c.368.337,1.4,1.42,1.4,1.42l-.72.7c-.3.3-.65.65-1.06,1.07l-.67.68a13.113,13.113,0,0,0-3.82,9.93l.33,6.2.09.76a42.329,42.329,0,0,0,8.44-3.3c2.66-1.46,5.3-3.1,5.95-5.59A5.683,5.683,0,0,0,104.725,108.55ZM72.665,79.86c-2.52,1.22-6.29,2.64-8.67,2.64s-6.16-1.42-8.67-2.65A31.857,31.857,0,0,1,48,74.72a23.243,23.243,0,0,1-5.57-7.26c-.57-1.3-1.08-2.63-1.51-3.94a91.93,91.93,0,0,1-3.71-19.93c-.29-1.81-.48-3.5-.59-5.15a44.011,44.011,0,0,1,2.06-17.73,34.783,34.783,0,0,0,9.64,6.71c3.69,1.61,14.89,4.9,15.37,5.04a.9.9,0,0,0,.28.04c.01,0,.02-.01.04-.01s.02.01.03.01a.9.9,0,0,0,.28-.04c.48-.14,11.68-3.43,15.36-5.04a34.243,34.243,0,0,0,9.62-6.68,43.639,43.639,0,0,1,2.07,17.7c-.11,1.73-.31,3.46-.59,5.22a91.493,91.493,0,0,1-3.7,19.86c-.44,1.32-.94,2.65-1.51,3.94-2.23,5.07-8.31,10.17-12.89,12.39A.01.01,0,0,0,72.665,79.86Z"/><path d="M80.527,47.583c-.823.824-4.77,1.546-7.533,1.129a1,1,0,0,0-.3,1.976,14.184,14.184,0,0,0,2.089.14c2.643,0,5.889-.561,7.158-1.831a1,1,0,0,0-1.415-1.414Z"/><path d="M71.734,41.26c4.491-1.778,11.931.387,12.006.409a1,1,0,1,0,.569-1.918c-.332-.1-8.181-2.384-13.312-.351a1,1,0,0,0,.737,1.86Z"/></svg>