<svg id="Solid" xmlns="http://www.w3.org/2000/svg" viewBox="0 0 128 128"><title>avatar-03_22</title><path d="M72,49.094a3.727,3.727,0,0,1,1.445-1.387,7.663,7.663,0,0,1,1.536-.659,13.914,13.914,0,0,1,3.089-.544,14.831,14.831,0,0,1,3.105.136,4.3,4.3,0,0,1,2.913,1.292.634.634,0,0,1-.105.891.644.644,0,0,1-.338.134l-.084.007a15.144,15.144,0,0,1-2.65-.272,15.963,15.963,0,0,0-2.687-.007,12.431,12.431,0,0,0-2.621.441l-.6.194c-.183.077-.378.148-.548.231a2.8,2.8,0,0,0-.712.5l-.18.19A.977.977,0,0,1,72,49.094Z"/><rect x="74.526" y="47.915" width="4.745" height="5.39" rx="2.372" ry="2.372"/><path d="M54.294,49.951a2.822,2.822,0,0,0-.723-.487c-.172-.079-.369-.146-.553-.219l-.608-.18a12.377,12.377,0,0,0-2.629-.381,15.837,15.837,0,0,0-2.687.068,15.074,15.074,0,0,1-2.643.331l-.085,0a.635.635,0,0,1-.592-.673.623.623,0,0,1,.127-.341,4.3,4.3,0,0,1,2.882-1.358,14.842,14.842,0,0,1,3.1-.206,13.879,13.879,0,0,1,3.1.474,7.666,7.666,0,0,1,1.55.624,3.727,3.727,0,0,1,1.476,1.354.977.977,0,0,1-1.533,1.186Z"/><rect x="48.729" y="47.915" width="4.745" height="5.39" rx="2.372" ry="2.372" transform="translate(102.203 101.22) rotate(180)"/><circle cx="78.351" cy="56.064" r="0.909"/><path d="M63.99,61.84c-.022,0-2.21-.017-2.21-1.42a1,1,0,0,1,1.751-.66,2.112,2.112,0,0,0,.459.08,2.048,2.048,0,0,0,.458-.079,1,1,0,0,1,1.752.659C66.2,61.823,64.013,61.84,63.99,61.84Z"/><path d="M64.01,68.63a23.054,23.054,0,0,1-4.9-.532,1,1,0,1,1,.571-1.916,21.1,21.1,0,0,0,8.646,0,1,1,0,1,1,.576,1.914A22.85,22.85,0,0,1,64.01,68.63Z"/><path d="M100.435,110.671c-.076-3.728-.964-47.444-1.145-62.112C99.011,25.422,86.8,2,64,2S28.989,25.422,28.71,48.558c-.181,14.669-1.069,58.39-1.145,62.114a5.649,5.649,0,0,0-.888,4.372c.56,2.164,2.691,3.587,4.7,4.692C32.544,120.378,43.363,126,64.04,126c20.6,0,31.416-5.622,32.582-6.264,2.01-1.105,4.141-2.528,4.7-4.692A5.652,5.652,0,0,0,100.435,110.671ZM64.021,44.38a106.133,106.133,0,0,1,16.2,1.256,56.536,56.536,0,0,1,8.533,2.134c-.776,14.323-4.282,23.46-11.007,28.681a49.563,49.563,0,0,1-7.862,4.778h0A15.93,15.93,0,0,1,64,83.12a15.926,15.926,0,0,1-5.884-1.89h0a49.452,49.452,0,0,1-7.848-4.769C43.525,71.228,40.02,62.088,39.245,47.765,47.706,44.93,56.1,44.532,64.021,44.38ZM58.556,83.631A14.685,14.685,0,0,0,64,85.12a14.68,14.68,0,0,0,5.444-1.489c.747,6.351,4.159,9.233,7.9,11.267-.177,1.56-1.034,4.565-3.739,10.3A27.411,27.411,0,0,1,64,106.67a27.075,27.075,0,0,1-9.54-1.5C51.75,99.4,50.9,96.4,50.735,94.858,54.435,92.829,57.811,89.956,58.556,83.631ZM72.4,107.681c-3,6.07-6.547,12.261-8.362,15.358-1.633-2.783-5.307-9.165-8.381-15.382A30.986,30.986,0,0,0,64,108.67,31.75,31.75,0,0,0,72.4,107.681Zm-43.79,6.862a3.977,3.977,0,0,1,.8-3.064,26.025,26.025,0,0,1,1.566-2.2c4.838,5.632,18.85,11.514,26.857,14.545-16.087-.93-24.489-5.289-25.488-5.839C30.054,116.726,28.9,115.664,28.613,114.543Zm70.774,0c-.29,1.121-1.441,2.183-3.729,3.441-1,.548-9.35,4.882-25.395,5.83,8.038-3.044,21.935-8.883,26.8-14.485.554.715,1.078,1.434,1.529,2.153A3.974,3.974,0,0,1,99.387,114.543Z"/></svg>