<svg id="Solid" xmlns="http://www.w3.org/2000/svg" viewBox="0 0 128 128"><title>avatar-03_16</title><rect x="50.672" y="49.795" width="4.445" height="4.95" rx="2.091" ry="2.091" transform="translate(105.788 104.54) rotate(180)"/><path d="M57.782,45.477c-.985-.139-1.951-.33-2.94-.459a16.167,16.167,0,0,0-2.974-.085A11.626,11.626,0,0,0,49,45.442a5.928,5.928,0,0,0-2.382,1.351l-.016.016A.754.754,0,0,1,45.5,45.785a7.252,7.252,0,0,1,2.913-1.98,12.725,12.725,0,0,1,3.3-.755,18.046,18.046,0,0,1,3.336,0,9.366,9.366,0,0,1,3.245.8.863.863,0,0,1-.49,1.633Z"/><rect x="72.876" y="49.795" width="4.445" height="4.95" rx="2.091" ry="2.091"/><path d="M69.7,43.848a9.355,9.355,0,0,1,3.244-.8,18.046,18.046,0,0,1,3.336,0,12.725,12.725,0,0,1,3.3.755,7.245,7.245,0,0,1,2.913,1.98.753.753,0,0,1-1.1,1.026l-.019-.018a5.924,5.924,0,0,0-2.381-1.351,11.643,11.643,0,0,0-2.868-.509,16.172,16.172,0,0,0-2.974.085c-.989.129-1.954.32-2.939.459l-.024,0a.862.862,0,0,1-.49-1.632Z"/><path d="M64.005,60.845c-.027,0-2.7-.044-2.7-1.6a1,1,0,0,1,1.826-.564,2.382,2.382,0,0,0,1.737,0,1,1,0,0,1,1.826.564C66.694,60.8,64.032,60.845,64.005,60.845Z"/><path d="M49.346,50.3a1,1,0,0,1-.595-1.8c2.647-1.955,6.162-1.627,7.417-.542a1,1,0,1,1-1.307,1.514,4.912,4.912,0,0,0-4.922.637A1,1,0,0,1,49.346,50.3Z"/><path d="M64.015,68.835a8.929,8.929,0,0,1-5.189-1.544,1,1,0,1,1,1.237-1.572,7.536,7.536,0,0,0,7.893,0,1,1,0,0,1,1.236,1.572A8.9,8.9,0,0,1,64.015,68.835Z"/><path d="M78.644,50.3a1,1,0,0,1-.595-.2,4.9,4.9,0,0,0-4.921-.635,1,1,0,0,1-1.307-1.514c1.26-1.088,4.778-1.417,7.419.544a1,1,0,0,1-.6,1.8Z"/><path d="M111.785,43.115a10.694,10.694,0,0,0-3.09-10.5,7.459,7.459,0,0,0-1.12-6.77,6.858,6.858,0,0,0-4.27-2.76,9.189,9.189,0,0,0-2.01-6.42,8.411,8.411,0,0,0-5.71-2.7,6.04,6.04,0,0,0-2.25-3.44,5.823,5.823,0,0,0-4.35-.86,5.761,5.761,0,0,0-2.66-2.79,9.345,9.345,0,0,0-7.3-.8c-.84-1.7-3.29-2.64-6.92-2.37a5.86,5.86,0,0,0-2.19.52.759.759,0,0,1-.93-.22,5.839,5.839,0,0,0-4.2-1.99,8.016,8.016,0,0,0-5.68,2.01.03.03,0,0,1-.04,0,7.1,7.1,0,0,0-4.32-1.14c-2.5.07-4.37,1.12-5.16,2.8a8.834,8.834,0,0,0-9.64,3.64,6.362,6.362,0,0,0-4.64.78,7.327,7.327,0,0,0-2.83,3.86,8.385,8.385,0,0,0-5.77,2.72,9.169,9.169,0,0,0-2.01,6.4,6.859,6.859,0,0,0-4.25,2.76,7.394,7.394,0,0,0-1.13,6.77,10.679,10.679,0,0,0-3.09,10.5,6.321,6.321,0,0,0-1.94,5.64,6.16,6.16,0,0,0,2.79,4.65c-1.77,5.55,1.36,8.53,3.4,9.8a.031.031,0,0,1,.01.02c-.49,3.88,1.45,5.86,2.81,6.75a6.181,6.181,0,0,0,1.41,4.78,6.718,6.718,0,0,0,4.26,1.99c.21,2.78,2.05,5.76,6.71,6.45a5.14,5.14,0,0,0,2.61,3.25,9.338,9.338,0,0,0,4.44,1.07,8.484,8.484,0,0,0,3.15-.57,8.394,8.394,0,0,0,5.23,1.74,11.67,11.67,0,0,0,3.09-.44c-1.33,2.41-3.52,3.63-5.71,4.65-.4.19-.8.37-1.2.56l-.86.4c-.53.25-1.05.5-1.56.76a51.226,51.226,0,0,0-5.84,3.44,49.454,49.454,0,0,0-4.67,3.58,39.205,39.205,0,0,0-7.51,8.41,5.946,5.946,0,0,0-1.05,4.73c.57,2.21,2.76,3.66,4.82,4.8.46.25,1.03.54,1.71.85a43.193,43.193,0,0,0,4.06,1.57c5.44,1.82,14.65,4,27.63,4s22.19-2.18,27.63-4c1.55-.53,2.92-1.06,4.07-1.57.67-.31,1.24-.6,1.7-.85,2.06-1.14,4.25-2.59,4.82-4.8a5.946,5.946,0,0,0-1.05-4.73,39.347,39.347,0,0,0-7.5-8.41,50.24,50.24,0,0,0-4.67-3.57.138.138,0,0,1-.04-.03c-.01,0-.01-.01-.02-.01a49.07,49.07,0,0,0-5.7-3.36.405.405,0,0,0-.09-.05c-.51-.26-1.03-.51-1.57-.77l-.85-.39c-.4-.19-.8-.37-1.21-.57-2.17-1.01-4.35-2.23-5.67-4.63a11.763,11.763,0,0,0,3.03.43,8.44,8.44,0,0,0,5.24-1.74,8.484,8.484,0,0,0,3.15.57,9.366,9.366,0,0,0,4.44-1.07,5.107,5.107,0,0,0,2.6-3.25c4.66-.69,6.5-3.67,6.71-6.46a6.714,6.714,0,0,0,4.23-1.94,6.134,6.134,0,0,0,1.44-4.83c1.36-.88,3.3-2.86,2.82-6.73a.037.037,0,0,1,.01-.03c2.05-1.28,5.18-4.27,3.4-9.8a6.179,6.179,0,0,0,2.78-4.65A6.326,6.326,0,0,0,111.785,43.115ZM31.723,117.9c-2.492-1.354-3.684-2.435-3.994-3.631a4.1,4.1,0,0,1,.812-3.161,33.929,33.929,0,0,1,4.656-5.66A60.777,60.777,0,0,0,31.723,117.9Zm3.952,1.756a8.737,8.737,0,0,1-1.95-.92,62.537,62.537,0,0,1,2.16-15.77c.7-.59,1.41-1.17,2.13-1.72A104.222,104.222,0,0,0,35.675,119.655Zm63.812-8.549a4.1,4.1,0,0,1,.814,3.162c-.311,1.2-1.5,2.278-4,3.631a60.691,60.691,0,0,0-1.474-12.452A33.8,33.8,0,0,1,99.487,111.106Zm-7.346-8.142,0,0A62.108,62.108,0,0,1,94.3,118.736a8.981,8.981,0,0,1-1.945.923,105.007,105.007,0,0,0-2.34-18.411Q91.1,102.07,92.141,102.964ZM80.426,95.509l.322.15c.37.175.719.348,1.071.522.914,4.675.1,8.661-2.461,11.838-3.178,3.946-9.057,6.4-15.343,6.4s-12.165-2.45-15.343-6.4c-2.558-3.177-3.375-7.163-2.461-11.838.352-.174.7-.348,1.068-.521l.324-.151c-.662,4.69.215,8.685,2.583,11.63,2.839,3.532,7.74,5.476,13.8,5.476h.028c6.08,0,10.993-1.948,13.834-5.485C80.212,104.186,81.088,100.2,80.426,95.509Zm-2.215-1.036c.962,4.763.327,8.6-1.922,11.4-2.453,3.055-6.812,4.738-12.275,4.738h-.026c-5.444,0-9.792-1.679-12.243-4.728-2.253-2.8-2.89-6.647-1.926-11.413,2.874-1.38,5.915-3.3,7.139-7.691a15.318,15.318,0,0,0,.494-3.025h0a20.54,20.54,0,0,0,6.563,1.117,20.26,20.26,0,0,0,6.59-1.141h0a15.147,15.147,0,0,0,.5,3.047l.007.023,0,.006C72.332,91.186,75.357,93.1,78.211,94.473Zm8.321-35.041a4.817,4.817,0,0,0-1.189,3.194,5.877,5.877,0,0,0,.575,2.715,4.773,4.773,0,0,0-1.27,1.836,5.754,5.754,0,0,0-.279,3.253A6.785,6.785,0,0,0,80.1,74.082v0a20.981,20.981,0,0,1-8.943,7.3,18.4,18.4,0,0,1-7.139,1.491A18.658,18.658,0,0,1,56.9,81.414H56.89a21.088,21.088,0,0,1-8.918-7.236l0,0a6.769,6.769,0,0,0-4.309-3.746,5.766,5.766,0,0,0-.279-3.251,4.816,4.816,0,0,0-1.233-1.807.06.06,0,0,1-.015-.074,5.917,5.917,0,0,0,.553-2.67,4.827,4.827,0,0,0-1.19-3.195,5.107,5.107,0,0,0,.754-3.152,4.714,4.714,0,0,0-1.142-2.647,5.133,5.133,0,0,0,1.778-2.977A5.424,5.424,0,0,0,42.4,47.1a6.371,6.371,0,0,0,3.915-3.673c.062,0,.121.01.183.01a6.349,6.349,0,0,0,3.571-1.184,5,5,0,0,0,2.1-2.938c.132.009.265.023.4.023a5.182,5.182,0,0,0,4.63-2.661,5.325,5.325,0,0,0,2.414.641h.128a6.726,6.726,0,0,0,4.3-1.64,6.525,6.525,0,0,0,4.394,1.639,5.259,5.259,0,0,0,2.386-.638,5.184,5.184,0,0,0,4.629,2.659c.131,0,.265-.015.4-.023a5.011,5.011,0,0,0,2.108,2.936,6.357,6.357,0,0,0,3.571,1.184c.062,0,.121-.008.181-.01A6.379,6.379,0,0,0,85.631,47.1a5.4,5.4,0,0,0-.488,3.558,5.131,5.131,0,0,0,1.777,2.978,4.718,4.718,0,0,0-1.142,2.646A5.115,5.115,0,0,0,86.532,59.432Z"/></svg>