<svg id="Solid" xmlns="http://www.w3.org/2000/svg" viewBox="0 0 128 128"><title>avatar-01_15</title><rect x="48.347" y="50.716" width="4.888" height="6.524" rx="2.422" ry="2.422"/><rect x="73.311" y="50.716" width="4.888" height="6.524" rx="2.422" ry="2.422" transform="translate(151.51 107.956) rotate(180)"/><path d="M45.933,52.7a1,1,0,0,1-.7-1.715,8.1,8.1,0,0,1,5.249-2.075,5.062,5.062,0,0,1,3.827,1.375,1,1,0,0,1-1.334,1.491,3.08,3.08,0,0,0-2.493-.866,6.113,6.113,0,0,0-3.851,1.506A1,1,0,0,1,45.933,52.7Z"/><path d="M55.322,45.727a1,1,0,0,1-.56-.172,8.033,8.033,0,0,0-4.412-.661,1,1,0,1,1-.135-1.995,9.512,9.512,0,0,1,5.668,1,1,1,0,0,1-.561,1.828Z"/><path d="M80.613,52.7a1,1,0,0,1-.7-.284,6.115,6.115,0,0,0-3.851-1.506,3.08,3.08,0,0,0-2.493.866,1,1,0,0,1-1.334-1.491,5.062,5.062,0,0,1,3.827-1.375,8.1,8.1,0,0,1,5.249,2.075,1,1,0,0,1-.7,1.715Z"/><path d="M81.2,46.156a.988.988,0,0,1-.467-.116c-2.74-1.452-7.442-1.506-8.952-.485A1,1,0,1,1,70.664,43.9c2.243-1.515,7.8-1.327,11.006.375a1,1,0,0,1-.468,1.883Z"/><path d="M63.273,74.4A6.311,6.311,0,0,0,69.364,70.3a1.879,1.879,0,0,0-.281-1.695,2.228,2.228,0,0,0-1.8-.89H59.265a2.227,2.227,0,0,0-1.8.89,1.878,1.878,0,0,0-.281,1.694A6.31,6.31,0,0,0,63.273,74.4Zm-4.008-4.692h8.016c.086,0,.141.03.166.012a4.31,4.31,0,0,1-4.174,2.68A4.377,4.377,0,0,1,59.08,69.78.238.238,0,0,1,59.265,69.712Z"/><path d="M63.283,64.787c.026,0,2.64-.043,2.64-1.58a1,1,0,0,0-1.819-.574,2.319,2.319,0,0,1-1.662,0,1,1,0,0,0-1.819.574C60.623,64.744,63.256,64.787,63.283,64.787Z"/><path d="M99.314,110.865a32.492,32.492,0,0,0-4.456-5.405,2.213,2.213,0,0,0,.124-1.5,2.125,2.125,0,0,0-1.846-1.376c-1.217-.288-3.253-.769-4.992-6.8a9.3,9.3,0,0,0-4.721-5.678,12.217,12.217,0,0,0-9.152-.692,4.878,4.878,0,0,0-2.409-.466,14.362,14.362,0,0,1-.514-2.932,26.693,26.693,0,0,0,15.866-16.79,7.45,7.45,0,0,0,1.5.169,8.043,8.043,0,0,0,3.551-.846A9.939,9.939,0,0,0,97.2,62.787c1.054-3.223.774-6.311-.7-8.406,2.014-8.9.935-19.409-.093-22.9a3.437,3.437,0,0,0,1.034-2.887C96.513,22.345,90.715,5.92,83.236,5.92h0c-2.178-.171-3.946.952-5.776,2.451a19.292,19.292,0,0,0-13.9-6.243H63.4A19.8,19.8,0,0,0,49.151,8.357c-1.877-1.533-3.579-2.611-5.688-2.44C35.9,5.917,30.1,22.345,29.172,28.6a3.444,3.444,0,0,0,.983,2.835c-1.049,3.475-2.15,13.941-.11,22.951-1.477,2.1-1.756,5.185-.7,8.4a9.942,9.942,0,0,0,4.938,5.771,8.043,8.043,0,0,0,3.551.846,7.44,7.44,0,0,0,1.5-.169A26.685,26.685,0,0,0,55.206,86.026q-.039.468-.1.9c-1.724-.6-3.143.153-4.762,2.477-1.084,1.557-2.385,3.434-2.144,5.273l-.156.061a30.345,30.345,0,0,0-3.373,1.459c-10.091,5.336-15.057,10.926-17.445,14.675a5.638,5.638,0,0,0-1.035,4.523c.55,2.133,2.675,3.534,4.682,4.625,1.158.625,11.9,6.111,32.4,6.111s31.238-5.486,32.4-6.112c2.006-1.09,4.131-2.491,4.681-4.624A5.645,5.645,0,0,0,99.314,110.865ZM82.5,91.885a7.319,7.319,0,0,1,3.725,4.459c2.064,7.153,4.92,7.827,6.454,8.19.117.028.263.062.37.094a1.63,1.63,0,0,1-.233.447c-1.074,1.54-4.606,3.468-7.931,3.1-4.042-.446-5.249-4.443-6.314-7.971-.61-2.017-1.117-3.667-2.115-4.548a19.092,19.092,0,0,0,.055-2.153c1.885.164,3.71,1.118,4.339,2.382a1,1,0,1,0,1.791-.891c-1.013-2.035-3.7-3.45-6.5-3.509a3.885,3.885,0,0,0-.21-.418A10,10,0,0,1,82.5,91.885Zm-8.935-.574a2,2,0,0,1,.85,1.369,11.032,11.032,0,0,1,.051,2.765,4.3,4.3,0,0,1-.9.038,6.9,6.9,0,0,0-.871-3.077v0l0,0-.014-.027a13.339,13.339,0,0,0-.912-1.4A2.757,2.757,0,0,1,73.562,91.311ZM59.891,105.386a13.453,13.453,0,0,1,.269-6.861,10.2,10.2,0,0,1,3.855-5.6,8.892,8.892,0,0,1,5.665-1.395c.284.369.527.7.724.983-4.125,2.632-5.465,7.289-4.547,9.728a1,1,0,0,0,1.871-.7c-.54-1.433.326-5.063,3.616-7.246a7.453,7.453,0,0,1,.258,1.989,16.089,16.089,0,0,0,.738,5.123c1.179,4.865,2.645,10.919-3.3,15.077-2.164,1.515-6.92,3-8.636,2.38-.292-.105-.322-.215-.337-.268-.052-.187-.052-.187.169-.514C61.031,116.9,62.36,114.934,59.891,105.386ZM60.65,87.58a14.289,14.289,0,0,0,5.248,0,31.317,31.317,0,0,0,3.5-.886,15.644,15.644,0,0,0,.552,2.844l-.006,0a10.965,10.965,0,0,0-6.7,1.511,12.256,12.256,0,0,1-5.76-2.715c-.178-.132-.347-.257-.512-.376.071-.394.127-.81.174-1.243A31.831,31.831,0,0,0,60.65,87.58ZM95.3,62.168a7.9,7.9,0,0,1-3.918,4.593,5.851,5.851,0,0,1-3.634.55,51.278,51.278,0,0,0,.868-5.8,4.528,4.528,0,0,1,3.459-1.8,1,1,0,0,0,.079-2,6.424,6.424,0,0,0-3.3.947c.125-1.9.175-3.635.135-4.865a8.439,8.439,0,0,1,2.6-.079,5.236,5.236,0,0,1,1.375.3,4.317,4.317,0,0,1,1.7,1.228C95.973,56.8,96.211,59.387,95.3,62.168ZM63.4,4.128h.145A17.3,17.3,0,0,1,75.927,9.661c-2.977,2.526-6.421,5.256-12.624,5.256S53.667,12.2,50.7,9.665A17.824,17.824,0,0,1,63.4,4.128ZM43.544,7.913c1.677-.128,3.16.981,5.04,2.575l.419.358c3.159,2.7,7.09,6.071,14.3,6.071,7.186,0,11.117-3.346,14.276-6.035l.453-.385.007-.006h0c1.873-1.6,3.333-2.714,5.113-2.573,5.721,0,11.358,14.562,12.31,20.969.026.165.087.653-.714,1.427a1,1,0,0,0-.247.181c-.023.026-.035.057-.056.085-2.426,1.987-8.506,3.766-16.368,4.776a126.34,126.34,0,0,1-22.136.684c-11.525-.677-20.934-2.881-23.972-5.618a1.852,1.852,0,0,1-.818-1.538C32.1,22.479,37.745,7.917,43.544,7.913ZM35.162,66.761a7.9,7.9,0,0,1-3.919-4.595c-.909-2.779-.67-5.369.639-6.931A4.341,4.341,0,0,1,33.6,54a7.394,7.394,0,0,1,2.593-.357,6.15,6.15,0,0,1,1.377.152c-.022,1.209.035,2.962.16,4.879a6.419,6.419,0,0,0-3.34-.97,1,1,0,0,0,.086,2,4.52,4.52,0,0,1,3.486,1.844,51.577,51.577,0,0,0,.836,5.761A5.845,5.845,0,0,1,35.162,66.761Zm5.8.99c-.939-3.284-1.467-10.926-1.394-14.037A49.683,49.683,0,0,0,51,44.588a54.691,54.691,0,0,0,5.378-6.529c2.235.12,4.544.188,6.891.188a123.288,123.288,0,0,0,14.5-.848c4.148,4.916,7.154,9.364,9.188,15.906A61.622,61.622,0,0,1,85.582,67.75,24.789,24.789,0,0,1,69.953,84.426a28.574,28.574,0,0,1-4.422,1.188,12.32,12.32,0,0,1-4.514,0,28.185,28.185,0,0,1-4.432-1.191A24.784,24.784,0,0,1,40.964,67.751ZM52.013,90.508c1.645-2.359,2.233-1.971,3.3-1.266.3.2.626.44.978.7a15.834,15.834,0,0,0,4.953,2.717A12.681,12.681,0,0,0,58.5,97.2c-6.257-.372-7.823-1.626-8.186-2.361C49.767,93.734,51,91.965,52.013,90.508Zm46.4,24.384c-.362,1.4-2.166,2.533-3.7,3.364-1.111.6-11.435,5.871-31.444,5.871s-30.333-5.27-31.442-5.87c-1.534-.832-3.338-1.967-3.7-3.365a3.807,3.807,0,0,1,.786-2.949c1.848-2.9,6.477-8.58,16.693-13.982a28.867,28.867,0,0,1,3.156-1.36l.278-.108c1.329,1.489,4.2,2.351,8.9,2.671a15.15,15.15,0,0,0,.015,6.723c2.242,8.674,1.149,10.291.624,11.067a2.385,2.385,0,0,0,1.148,3.785,5.066,5.066,0,0,0,1.7.253,18.759,18.759,0,0,0,8.758-2.876c7.065-4.941,5.279-12.31,4.1-17.187a26.879,26.879,0,0,1-.691-3.45c.091,0,.18.011.273.011a4.851,4.851,0,0,0,1.4-.2,12.547,12.547,0,0,1,1.385,3.489c1.12,3.709,2.655,8.789,8.01,9.381a9.574,9.574,0,0,0,1.045.056,12.174,12.174,0,0,0,7.965-3.113,30.206,30.206,0,0,1,3.957,4.84A3.811,3.811,0,0,1,98.415,114.892Z"/></svg>