<svg id="Solid" xmlns="http://www.w3.org/2000/svg" viewBox="0 0 128 128"><title>avatar-03_12</title><rect x="73.666" y="48.013" width="4.601" height="5.303" rx="2.301" ry="2.301"/><rect x="49.733" y="48.013" width="4.601" height="5.303" rx="2.301" ry="2.301" transform="translate(104.067 101.329) rotate(180)"/><path d="M64.02,58.119c-.03,0-2.91-.046-2.91-1.67a1,1,0,0,1,1.848-.53,3.676,3.676,0,0,0,1.062.2,3.742,3.742,0,0,0,1.052-.2,1,1,0,0,1,1.848.53C66.92,58.073,64.049,58.119,64.02,58.119Z"/><path d="M64.124,65.821c-.253,0-.494,0-.718-.01-4.628-.117-5.1-1.253-5.259-1.626a1,1,0,0,1,1.777-.908c1.1.736,7.149.731,8.19-.011a1,1,0,0,1,1.748.965C69.221,65.571,66.249,65.821,64.124,65.821Zm3.935-2.455h0Z"/><path d="M72.97,49.36a1,1,0,0,1-.688-1.726c2.109-2,5.906-1.944,8-.644a1,1,0,1,1-1.056,1.7c-1.41-.875-4.2-.893-5.565.4A.992.992,0,0,1,72.97,49.36Z"/><path d="M70.181,45.719a1,1,0,0,1-.584-1.813c3.132-2.25,7.48-2.5,10.507-1.974,1.2.206,3.323.728,4.147,1.917a1,1,0,0,1-1.643,1.141A5.291,5.291,0,0,0,79.766,43.9c-2.507-.432-6.367-.265-9,1.628A.992.992,0,0,1,70.181,45.719Z"/><path d="M55.03,49.36a.992.992,0,0,1-.687-.275,5.2,5.2,0,0,0-5.565-.4,1,1,0,0,1-1.056-1.7c2.089-1.3,5.887-1.355,8,.644a1,1,0,0,1-.688,1.726Z"/><path d="M57.819,45.719a.992.992,0,0,1-.582-.188c-2.634-1.892-6.5-2.062-9-1.628a5.291,5.291,0,0,0-2.842,1.087,1,1,0,0,1-1.643-1.141c.824-1.189,2.951-1.711,4.146-1.917,3.027-.522,7.375-.276,10.508,1.974a1,1,0,0,1-.584,1.813Z"/><path d="M102.987,109.248c-1.1-1.749-7.239-10.79-20.544-17l-.963-.443a25.978,25.978,0,0,1-4.365-2.341c-1.857-1.341-3.973-3.557-4.13-8.775A28.712,28.712,0,0,0,87.847,63.1a6.141,6.141,0,0,0,.993.084,7.888,7.888,0,0,0,3.462-.86,10.915,10.915,0,0,0,5.442-6.165c1.323-4.219.333-7.937-2.51-9.707a98.073,98.073,0,0,0-.34-13.352,4.971,4.971,0,0,1,.663-.631A4.5,4.5,0,0,0,97.5,29.43c.216-3.043-2.823-9.024-9.972-12.755a2.775,2.775,0,0,0,.016-2.3c-1.521-3.7-10.717-7.263-15.794-7.93a2.5,2.5,0,0,0,.212-1.592,2.055,2.055,0,0,0-1.5-1.471C63.4,1.067,56.4,1.869,51.27,5.578c-2.834,2.047-4.691,4.779-5,7.283C35.77,17.135,31.027,26.686,30.506,31.8c-.216,2.111.256,3.65,1.328,4.331a.943.943,0,0,0,.3.127c.385.095.3,1.729.23,3.041a26.669,26.669,0,0,0,.371,7.194c-2.784,1.784-3.749,5.473-2.446,9.663a10.939,10.939,0,0,0,5.457,6.17,7.86,7.86,0,0,0,3.447.855,6.141,6.141,0,0,0,.993-.084,28.755,28.755,0,0,0,14.861,17.6c-.158,5.211-2.288,7.429-4.157,8.773a26.215,26.215,0,0,1-4.435,2.376l-.894.41c-13.306,6.2-19.449,15.246-20.544,16.994a6.186,6.186,0,0,0-1.109,4.914c.593,2.3,2.875,3.83,5.033,5.025,1.256.688,12.907,6.733,35.062,6.733s33.806-6.045,35.064-6.735c2.156-1.193,4.438-2.722,5.031-5.023A6.186,6.186,0,0,0,102.987,109.248ZM51.324,91.568a19.041,19.041,0,0,0,25.351,0,30.076,30.076,0,0,0,3.636,1.905C76.63,96.946,69.955,100.24,64,100.24s-12.628-3.293-16.309-6.766A29.9,29.9,0,0,0,51.324,91.568Zm44.511-36a8.952,8.952,0,0,1-4.416,4.965,5.467,5.467,0,0,1-3.193.595c.273-2.339.461-4.628.542-6.844A4.685,4.685,0,0,1,92.2,52.65h.027a1,1,0,0,0,.022-2,7.084,7.084,0,0,0-3.441.969q0-1.77-.081-3.472a6.55,6.55,0,0,1,5-.245C96.112,49.036,96.938,52.043,95.835,55.563ZM36.624,60.532A8.976,8.976,0,0,1,32.2,55.563C31.1,52.04,31.926,49.032,34.3,47.9a5.664,5.664,0,0,1,4.365-.222c-.007.977-.009,2.3.033,3.821a7.209,7.209,0,0,0-3.166-1,1.034,1.034,0,0,0-1.032.966,1,1,0,0,0,.966,1.032,5,5,0,0,1,3.361,1.74,50.8,50.8,0,0,0,.887,6.906A5.521,5.521,0,0,1,36.624,60.532Zm5.239,1.128A47.451,47.451,0,0,1,40.8,53.78c-.157-2.657-.141-5.028-.13-6.445l0-.269v-.009a27.972,27.972,0,0,1,1.356-7.594,3.368,3.368,0,0,0,.96.565c2.232.862,5.269-.371,7.113-2.036C51.552,36.686,52.846,34,53.946,30a.365.365,0,0,1,.333-.291.407.407,0,0,1,.423.241c2.567,5.211,7.112,8.692,10.859,8.252a4.586,4.586,0,0,0,3.739-2.75c1.657,1.283,4.751,3.253,7.515,2.577a4.533,4.533,0,0,0,2.665-1.863,8.817,8.817,0,0,0,6.07,3.324,41.858,41.858,0,0,1,1.162,8.119,76.911,76.911,0,0,1-.558,14.1c-2.091,8.88-8.91,14.84-14.628,17.471a17.206,17.206,0,0,1-15.047-.012C50.781,76.546,43.951,70.568,41.863,61.66ZM57,81.572a20.086,20.086,0,0,0,7,1.337,20.731,20.731,0,0,0,7.031-1.336,12.035,12.035,0,0,0,4.009,8.779,17.079,17.079,0,0,1-22.078,0A12.018,12.018,0,0,0,57,81.572Z"/></svg>