<svg id="Solid" xmlns="http://www.w3.org/2000/svg" viewBox="0 0 128 128"><title>avatar-02_20</title><path d="M55.227,48.215a3.147,3.147,0,0,0-.895-.451,8.73,8.73,0,0,0-1.3-.307,14.629,14.629,0,0,0-2.841-.17,13.591,13.591,0,0,0-2.816.332,7.793,7.793,0,0,0-1.269.407,11.781,11.781,0,0,1-1.215.4l-.2.049a.595.595,0,0,1-.7-.772,2.7,2.7,0,0,1,1.238-1.428,7.254,7.254,0,0,1,1.616-.653,13.53,13.53,0,0,1,3.274-.519,16.031,16.031,0,0,1,3.3.22,8.335,8.335,0,0,1,1.672.479,4.076,4.076,0,0,1,1.69,1.166.971.971,0,0,1-1.3,1.422Z"/><rect x="48.283" y="46.408" width="5.638" height="6.405" rx="2.819" ry="2.819" transform="translate(102.203 99.22) rotate(180)"/><path d="M60.3,43.14a.9.9,0,0,1-1.12.53l-.08-.03a20.3,20.3,0,0,0-4.08-.7,38.284,38.284,0,0,0-4.28-.17,33.06,33.06,0,0,0-4.24.35,17.458,17.458,0,0,0-3.47.87c.81-.78,1.65-1.64,2.54-2.58h.01c.19-.05.37-.1.56-.14a23.422,23.422,0,0,1,4.55-.52,29.939,29.939,0,0,1,4.54.19,17.58,17.58,0,0,1,4.56,1.03A.9.9,0,0,1,60.3,43.14Z"/><path d="M71.241,46.966a4.076,4.076,0,0,1,1.69-1.166,8.317,8.317,0,0,1,1.672-.479,16.031,16.031,0,0,1,3.3-.22,13.53,13.53,0,0,1,3.274.519,7.254,7.254,0,0,1,1.616.653A2.7,2.7,0,0,1,84.029,47.7a.6.6,0,0,1-.369.756.6.6,0,0,1-.333.016l-.2-.049a11.781,11.781,0,0,1-1.215-.4,7.793,7.793,0,0,0-1.269-.407,13.6,13.6,0,0,0-2.816-.332,14.629,14.629,0,0,0-2.841.17,8.73,8.73,0,0,0-1.3.307,3.147,3.147,0,0,0-.895.451l-.246.173a.971.971,0,0,1-1.3-1.422Z"/><rect x="74.093" y="46.408" width="5.638" height="6.405" rx="2.819" ry="2.819"/><path d="M84.96,43.98a17.957,17.957,0,0,0-3.45-.86,33.054,33.054,0,0,0-4.23-.35,38.462,38.462,0,0,0-4.29.17,20.546,20.546,0,0,0-4.08.7l-.07.03a.9.9,0,0,1-.61-1.7,17.49,17.49,0,0,1,4.56-1.03,29.808,29.808,0,0,1,4.53-.19,23.422,23.422,0,0,1,4.55.52c.19.04.37.09.56.14C83.31,42.34,84.16,43.2,84.96,43.98Z"/><path d="M64.01,60.85c-.03,0-2.98-.046-2.98-1.69a1,1,0,0,1,1.849-.529,3.93,3.93,0,0,0,1.131.219,3.832,3.832,0,0,0,1.111-.219,1,1,0,0,1,1.849.529C66.97,60.777,64.039,60.85,64.01,60.85Z"/><path d="M64.01,67.19a15.05,15.05,0,0,1-5-.9,1,1,0,1,1,.859-1.806,12.547,12.547,0,0,0,8.276,0,1,1,0,1,1,.868,1.8A14.935,14.935,0,0,1,64.01,67.19Z"/><path d="M63.917,35.667a1.334,1.334,0,1,0-1.334-1.334A1.333,1.333,0,0,0,63.917,35.667Z"/><path d="M101.481,109.96l-.069-.107c-.176-.277-.371-.569-.568-.861,1.12-22.916,1.064-41.958-.168-56.6-.863-10.25-2.322-18.579-4.335-24.755C90.728,10.387,80.148,2,64,2,56.581,2,50.481,3.73,45.351,7.288c-6.062,4.2-10.668,11.045-13.692,20.352-2.013,6.177-3.471,14.506-4.335,24.756-1.232,14.638-1.288,33.68-.168,56.6-.2.293-.393.586-.568.861l-.07.108a5.852,5.852,0,0,0-1.078,4.692c.57,2.209,2.778,3.664,4.864,4.8,1.429.775,9.288,4.709,23.651,6.087,3.24.308,6.62.464,10.045.464a93.757,93.757,0,0,0,22.723-2.6A48.116,48.116,0,0,0,97.7,119.449c2.085-1.132,4.293-2.587,4.863-4.8A5.852,5.852,0,0,0,101.481,109.96Zm-37.9-3.692c-2.348-.158-12.681-1.376-16.239-10.57,4.5-2.042,9.478-4.426,10.383-12.109A19.718,19.718,0,0,0,64,85.12a19.858,19.858,0,0,0,6.307-1.544A12.724,12.724,0,0,0,76.393,93.5,99.86,99.86,0,0,0,63.583,106.268ZM38.092,48.209c.081,1.661.188,3.288.318,4.869a6.586,6.586,0,0,0-3.376-.8,1,1,0,1,0,.153,1.994,4.292,4.292,0,0,1,3.492,1.669c.238,2.184.536,4.214.887,6.068a5.643,5.643,0,0,1-4.155-.455,7.653,7.653,0,0,1-4-4.657,11.038,11.038,0,0,1-.445-4.189A4.912,4.912,0,0,1,33.6,48.5,7.3,7.3,0,0,1,38.092,48.209Zm2.543,7.238c-.243-2.359-.426-4.861-.551-7.438,1.138-.942,2.359-2.044,3.641-3.3.74-.714,1.535-1.52,2.494-2.53a1.072,1.072,0,0,0,.085-.08c4.246-4.457,9.6-10.7,16.844-19.662a1.127,1.127,0,0,1,1.7,0C72.113,31.415,77.469,37.662,81.7,42.1c.846.893,1.706,1.767,2.557,2.6,1.347,1.32,2.544,2.4,3.656,3.317-.124,2.577-.308,5.078-.55,7.434-.274,2.595-.633,4.978-1.065,7.082-1.444,6.967-3.8,11.406-7.632,14.383a38.859,38.859,0,0,1-7.877,4.318A21.025,21.025,0,0,1,64,83.12a20.84,20.84,0,0,1-6.767-1.883,39.233,39.233,0,0,1-7.889-4.317c-3.844-2.987-6.2-7.426-7.645-14.391C41.267,60.423,40.908,58.04,40.635,55.447Zm48.686.5a4.271,4.271,0,0,1,3.5-1.668,1,1,0,0,0,.147-1.994,6.6,6.6,0,0,0-3.376.8c.13-1.581.237-3.208.318-4.87a7.3,7.3,0,0,1,4.5.29,4.918,4.918,0,0,1,2.632,4.218,11.032,11.032,0,0,1-.448,4.188,7.646,7.646,0,0,1-4,4.654,5.653,5.653,0,0,1-4.155.455C88.785,60.161,89.083,58.13,89.321,55.945ZM27.377,114.153a4.011,4.011,0,0,1,.825-3.113l.07-.109c.222-.348.455-.71.724-1.1,2.093-3.071,5.97-7.733,15.433-12.75.33-.174.688-.353,1.092-.546,3.5,8.882,12.557,11.053,16.567,11.582-5.9,7.585-8.1,13.259-8.764,15.336-13.441-1.407-20.725-5.037-22.066-5.764C29.65,116.819,27.757,115.628,27.377,114.153Zm73.246,0c-.38,1.475-2.273,2.666-3.88,3.537a42.839,42.839,0,0,1-8.632,3.273,88.642,88.642,0,0,1,8.676-14.009,31.325,31.325,0,0,1,2.223,2.888c.263.379.5.741.718,1.089l.069.108A4.011,4.011,0,0,1,100.623,114.153Z"/></svg>