<svg id="Solid" xmlns="http://www.w3.org/2000/svg" viewBox="0 0 128 128"><title>avatar-03_4</title><rect x="49.017" y="46.81" width="5.087" height="6.303" rx="2.375" ry="2.375" transform="translate(103.122 99.924) rotate(180)"/><path d="M46.771,49.134a1,1,0,0,1-.683-1.731,8.653,8.653,0,0,1,9.755-1.094,1,1,0,0,1-.918,1.777,6.706,6.706,0,0,0-7.472.778A.99.99,0,0,1,46.771,49.134Z"/><path d="M57.971,43.35a24.325,24.325,0,0,0-3.306-.3,27.93,27.93,0,0,0-3.534.163,25.6,25.6,0,0,0-3.486.589A10.192,10.192,0,0,0,44.529,45l-.048.032a.752.752,0,0,1-.873-1.225,11,11,0,0,1,3.58-1.691,25.2,25.2,0,0,1,3.714-.785,29.742,29.742,0,0,1,3.784-.265,8.729,8.729,0,0,1,3.926.7.851.851,0,0,1-.517,1.6Z"/><rect x="73.91" y="46.81" width="5.087" height="6.303" rx="2.375" ry="2.375"/><path d="M81.244,49.134a.99.99,0,0,1-.682-.27,6.706,6.706,0,0,0-7.472-.778,1,1,0,1,1-.918-1.777A8.654,8.654,0,0,1,81.927,47.4a1,1,0,0,1-.683,1.731Z"/><path d="M69.4,41.767a8.725,8.725,0,0,1,3.925-.7,29.745,29.745,0,0,1,3.785.265,25.23,25.23,0,0,1,3.714.785,11,11,0,0,1,3.58,1.691.752.752,0,0,1-.871,1.226L83.486,45A10.192,10.192,0,0,0,80.37,43.8a25.6,25.6,0,0,0-3.486-.589,27.93,27.93,0,0,0-3.534-.163,24.325,24.325,0,0,0-3.306.3l-.123.022a.851.851,0,0,1-.518-1.6Z"/><path d="M64.005,59.52c-.026,0-2.64-.043-2.64-1.58a1,1,0,0,1,1.817-.578,2.2,2.2,0,0,0,1.636,0,1,1,0,0,1,1.817.577C66.635,59.477,64.031,59.52,64.005,59.52Z"/><path d="M64.033,66.221a10.316,10.316,0,0,1-5.111-1.45,1,1,0,0,1,.986-1.741,7.638,7.638,0,0,0,8.173.006,1,1,0,0,1,1.008,1.729A9.967,9.967,0,0,1,64.033,66.221Z"/><path d="M102.272,109.62a39.47,39.47,0,0,0-6.852-7.872c1.276-1.963,1.146-5.222,1.06-6.3a10.685,10.685,0,0,0-1.127-4.287,7.014,7.014,0,0,0,.657-3,15.015,15.015,0,0,0-1.027-6.445c1.012-2.177.968-6.98-.383-9.231.965-2.289.83-7.613-.212-10.152a9.352,9.352,0,0,0,3.7-4.78c1.2-3.648.661-7.057-1.354-9.1A57.734,57.734,0,0,0,97.6,38.021c0-.018,0-.036,0-.055v0A44.256,44.256,0,0,0,95.755,25.5l-.015-.055-.009-.033a34.249,34.249,0,0,0-6.666-12.366l-.007-.008a1.055,1.055,0,0,0-.071-.079,30.582,30.582,0,0,0-10.907-8.1l-.01,0c-.02-.008-.039-.017-.059-.024A34.514,34.514,0,0,0,64.005,2h-.044a34.571,34.571,0,0,0-14,2.844A30.456,30.456,0,0,0,38.995,13h0l-.018.021A34.3,34.3,0,0,0,32.3,25.409c-.005.016-.008.033-.013.049v0h0a44.653,44.653,0,0,0-1.847,12.5h0c0,.018,0,.036,0,.054a57.692,57.692,0,0,0,.873,10.43c-2.016,2.041-2.553,5.45-1.355,9.1a9.3,9.3,0,0,0,3.673,4.771c-1.05,2.532-1.192,7.876-.225,10.17-1.342,2.249-1.386,7.054-.38,9.229-.854,1.611-1.105,4.793-1.029,6.452a6.986,6.986,0,0,0,.664,3,10.683,10.683,0,0,0-1.127,4.273c-.087,1.079-.222,4.348,1.056,6.313a39.357,39.357,0,0,0-6.857,7.867,6.084,6.084,0,0,0-1.081,4.842c.588,2.267,2.831,3.762,4.945,4.924,1.224.678,12.6,6.615,34.413,6.615s33.179-5.937,34.4-6.614c2.116-1.163,4.359-2.658,4.947-4.925A6.081,6.081,0,0,0,102.272,109.62ZM96.184,56.931A7.472,7.472,0,0,1,92.568,61.1a6.792,6.792,0,0,1-4.394.789c.026-.1.059-.206.084-.309.517-2.163.866-3.92,1.1-5.509a4.612,4.612,0,0,1,3.608-1.566,1,1,0,0,0,.163-1.993,6.877,6.877,0,0,0-3.459.766c.107-1.5.113-2.925.107-4.608a8.718,8.718,0,0,1,4.119.208,4.139,4.139,0,0,1,1.13.68C96.762,51,97.205,53.821,96.184,56.931ZM80.9,78.433c.091,0,.181,0,.269,0a14.221,14.221,0,0,0,3.144-.41,9.524,9.524,0,0,0,.918,4.042,14.023,14.023,0,0,0-.608,3.006,8.7,8.7,0,0,1-3.442.335,3.738,3.738,0,0,1-2.072-.547l0,0,0,0a4.664,4.664,0,0,1-.65-1.833,12.2,12.2,0,0,1,.167-4.837A9.13,9.13,0,0,0,80.9,78.433ZM79.889,76.4a30.167,30.167,0,0,0,4.22-5.183,9,9,0,0,0,.793,2,12.407,12.407,0,0,0-.529,2.688A11.048,11.048,0,0,1,79.889,76.4Zm-.966,10.593a9.018,9.018,0,0,0,2.518.435c.115,0,.315.012.574.012a11.731,11.731,0,0,0,2.514-.257,9.206,9.206,0,0,0,.793,3.892,8.183,8.183,0,0,0-.715,3.117c-.8-.426-1.633-.847-2.5-1.254l-.78-.358c-.813-.371-1.643-.759-2.445-1.177A11.786,11.786,0,0,1,78.923,86.988Zm4.855-19.181a28.2,28.2,0,0,1-6.435,8.225,21.927,21.927,0,0,1-6.031,3.744l0,0,0,0a18.688,18.688,0,0,1-14.678-.045,21.832,21.832,0,0,1-5.946-3.721,28.192,28.192,0,0,1-6.429-8.229,28.628,28.628,0,0,1-2.2-5.471c-.123-.4-.228-.8-.322-1.2a43.859,43.859,0,0,1-1.463-13.063v0c0-.027,0-.113,0-.14a16.553,16.553,0,0,1,.94-5.565A23.439,23.439,0,0,0,41.987,39,21.4,21.4,0,0,0,42,35.077a9.558,9.558,0,0,1,.379-4.494,5.553,5.553,0,0,1,1.491-1.812,19.887,19.887,0,0,1,2.574-1.741,22.062,22.062,0,0,0,2.495-1.661,21.742,21.742,0,0,0,2.248-2.2c1.306-1.408,2.539-2.738,4.193-3.251a9.882,9.882,0,0,1,4.489.2,18.465,18.465,0,0,0,4.113.439h0c.012,0,.023,0,.034,0s.022,0,.034,0h0a18.472,18.472,0,0,0,4.113-.439,9.929,9.929,0,0,1,4.49-.2c1.653.513,2.886,1.843,4.192,3.251a21.72,21.72,0,0,0,2.247,2.2,22.037,22.037,0,0,0,2.5,1.662,19.922,19.922,0,0,1,2.578,1.744,5.652,5.652,0,0,1,1.476,1.807,9.507,9.507,0,0,1,.389,4.507A21.278,21.278,0,0,0,86.053,39a23.439,23.439,0,0,0,.785,3.341,16.553,16.553,0,0,1,.94,5.565c0,.027,0,.113,0,.14v.255a45.209,45.209,0,0,1-.351,7.186c-.225,1.6-.578,3.392-1.113,5.625-.095.4-.2.8-.328,1.217A28.956,28.956,0,0,1,83.778,67.807ZM76.715,90.076a8.988,8.988,0,0,1-3.362-4.9c.1,0,.207.02.307.02a9.039,9.039,0,0,0,3.131-.6,5.727,5.727,0,0,0,.427,1.025A13.242,13.242,0,0,0,76.715,90.076ZM76.372,82.6a6.718,6.718,0,0,1-3.442.522c-.086-.545-.168-1.183-.208-1.8a23.21,23.21,0,0,0,3.662-2.058A14.793,14.793,0,0,0,76.372,82.6Zm-25.59,3.012a5.771,5.771,0,0,0,.426-1.025,8.993,8.993,0,0,0,3.128.6c.091,0,.187-.014.28-.017a9.376,9.376,0,0,1-3.331,4.8A13.1,13.1,0,0,0,50.782,85.613Zm.846-3.01a14.783,14.783,0,0,0-.014-3.362,22.967,22.967,0,0,0,3.6,2.041,16.543,16.543,0,0,1-.157,1.844A6.7,6.7,0,0,1,51.628,82.6ZM48.9,84.848l0,0,0,0a3.709,3.709,0,0,1-2.063.547,8.617,8.617,0,0,1-3.444-.333,14.449,14.449,0,0,0-.616-3.007,9.6,9.6,0,0,0,.922-4.043,14.1,14.1,0,0,0,3.1.41c.1,0,.205,0,.31,0a9.094,9.094,0,0,0,2.278-.255,12.213,12.213,0,0,1,.167,4.831A4.286,4.286,0,0,1,48.9,84.848Zm.219,6.5c-.941.519-1.918.983-2.873,1.424l-.353.163c-.915.425-1.818.888-2.723,1.373a9.546,9.546,0,0,0-.486-3.2,9.235,9.235,0,0,0,.794-3.926,11.709,11.709,0,0,0,2.515.258c.237,0,.422-.006.529-.01a9.071,9.071,0,0,0,2.554-.436A11.637,11.637,0,0,1,49.12,91.347Zm-6.014-18.13a9.135,9.135,0,0,0,.8-2.048,30.125,30.125,0,0,0,4.241,5.222,11.013,11.013,0,0,1-4.511-.486A12.739,12.739,0,0,0,43.106,73.217Zm-2.213,8.09,0,0,0,0c-.645.679-5.141.5-5.952-.234-.635-.689-.932-5.18-.052-7.175a13.048,13.048,0,0,0,4.181.743c.117,0,.23,0,.341,0a8.244,8.244,0,0,0,1.969-.206,11.609,11.609,0,0,1,.311,2.077A8.464,8.464,0,0,1,40.893,81.307Zm-.1,9.041c-.014.013-.033.018-.046.033s-.015.028-.025.041c-.876.8-5.013.777-6.192-.05l-.006,0,0,0s-.351-.3-.492-1.742a15.306,15.306,0,0,1,.546-5.509,11.8,11.8,0,0,0,3.961.619c.186,0,.364,0,.53-.01a7.738,7.738,0,0,0,2.015-.323,13.946,13.946,0,0,1,.366,2.307C41.609,88.055,41.234,89.826,40.792,90.348ZM41.3,72.361c-.743.586-5.2.228-5.986-.477h0c-.844-.918-.716-6.643.046-8.631a8.977,8.977,0,0,0,3.483.738,7.812,7.812,0,0,0,1.583-.178,30.858,30.858,0,0,0,1.9,4.6A9.1,9.1,0,0,1,41.3,72.361ZM87.614,63.81a7.918,7.918,0,0,0,1.593.179,8.922,8.922,0,0,0,3.448-.724c.756,2.006.878,7.706.036,8.615h0c-.776.706-5.249,1.062-5.971.489h0a9.007,9.007,0,0,1-1.042-3.889A30.919,30.919,0,0,0,87.614,63.81ZM86.323,76.519a11.654,11.654,0,0,1,.307-2.075,8.229,8.229,0,0,0,1.968.206c.1,0,.2,0,.3,0a13,13,0,0,0,4.216-.743c.887,1.992.587,6.479-.052,7.17-.006.007-.014.01-.019.016-.842.728-5.3.9-5.935.224l0,0,0,0A8.4,8.4,0,0,1,86.323,76.519Zm.24,9.189a13.625,13.625,0,0,1,.358-2.307,7.827,7.827,0,0,0,2.045.324q.236.009.5.009a11.83,11.83,0,0,0,3.96-.619,15.405,15.405,0,0,1,.553,5.483c-.137,1.466-.487,1.767-.49,1.769h0c-.018.011-.037.018-.053.03-1.261.809-5.42.813-6.188-.009h0l0,0C86.775,89.888,86.394,88.005,86.563,85.708ZM33.955,26.968a5.575,5.575,0,0,1,1.125.625c.994.672,1.835,1.105,4.278,1.105.364,0,.762-.01,1.2-.029a1,1,0,1,0-.09-2c-2.983.137-3.524-.231-4.271-.735a7.3,7.3,0,0,0-1.674-.891,32.54,32.54,0,0,1,4.86-9.34,6.579,6.579,0,0,0,3.009,2.062c1.537.659,2.865,1.229,3.264,3.047a1,1,0,1,0,1.953-.429c-.62-2.822-2.731-3.728-4.428-4.456-1.433-.616-2.2-.993-2.4-1.931A28.38,28.38,0,0,1,49.3,7.372a6.729,6.729,0,0,0,1.452,3.286,7.564,7.564,0,0,1,1.683,4.962,1,1,0,0,0,2,0,9.482,9.482,0,0,0-2.042-6.106,4.222,4.222,0,0,1-1.111-3.049A32.278,32.278,0,0,1,62.627,4.033a6.243,6.243,0,0,0,.066,3.6,16.633,16.633,0,0,1,.405,6.24,1,1,0,0,0,.919,1.075c.026,0,.052,0,.079,0a1,1,0,0,0,1-.922,18.438,18.438,0,0,0-.461-6.893,4.457,4.457,0,0,1,.076-3.118,32.424,32.424,0,0,1,12.05,2.457A4.222,4.222,0,0,1,75.646,9.51,9.485,9.485,0,0,0,73.6,15.62a1,1,0,1,0,2,0,7.577,7.577,0,0,1,1.682-4.966,6.713,6.713,0,0,0,1.451-3.272,28.539,28.539,0,0,1,8.515,6.634c-.21.925-1.008,1.315-2.394,1.911-1.7.729-3.808,1.637-4.429,4.458a1,1,0,1,0,1.953.429c.4-1.818,1.728-2.388,3.266-3.049a6.508,6.508,0,0,0,2.992-2.06,32.467,32.467,0,0,1,4.865,9.341,7.334,7.334,0,0,0-1.668.889c-.749.5-1.283.875-4.267.736a1.018,1.018,0,0,0-1.044.954,1,1,0,0,0,.954,1.044c.439.019.837.029,1.2.029,2.44,0,3.281-.433,4.276-1.106a5.73,5.73,0,0,1,1.123-.618A42.475,42.475,0,0,1,95.59,37.705c-.173.227-.335.457-.486.685-.826,1.236-1.424,2.128-4.423,1.334a1,1,0,1,0-.512,1.933,9.572,9.572,0,0,0,2.431.358,4.212,4.212,0,0,0,2.946-1.027,57.243,57.243,0,0,1-.635,6.168c-.086-.039-.167-.092-.254-.126a10.454,10.454,0,0,0-4.885-.39,23.843,23.843,0,0,0-1.01-4.842,21.93,21.93,0,0,1-.725-3.042,19.967,19.967,0,0,1-.005-3.552c.111-1.892.224-3.85-.591-5.508a7.61,7.61,0,0,0-1.977-2.448,21.349,21.349,0,0,0-2.838-1.93,20.43,20.43,0,0,1-2.274-1.507,20.231,20.231,0,0,1-2.037-2c-1.425-1.538-2.9-3.129-5.062-3.8a11.44,11.44,0,0,0-5.448.139,16.976,16.976,0,0,1-3.721.407c-.022,0-.042.009-.064.009s-.042-.011-.064-.009a16.871,16.871,0,0,1-3.721-.407,11.437,11.437,0,0,0-5.447-.139c-2.163.672-3.638,2.263-5.064,3.8a20.143,20.143,0,0,1-2.037,2.006,20.458,20.458,0,0,1-2.273,1.506,21.305,21.305,0,0,0-2.828,1.922,7.485,7.485,0,0,0-2,2.461c-.806,1.653-.691,3.6-.58,5.493a19.892,19.892,0,0,1,0,3.562,21.93,21.93,0,0,1-.725,3.042,23.987,23.987,0,0,0-1.012,4.842,10.41,10.41,0,0,0-4.859.381c-.1.038-.183.093-.277.136a56.807,56.807,0,0,1-.636-6.17,4.206,4.206,0,0,0,2.946,1.028,9.572,9.572,0,0,0,2.431-.358,1,1,0,1,0-.512-1.933c-3,.794-3.6-.1-4.423-1.334-.152-.228-.314-.458-.487-.686A42.814,42.814,0,0,1,33.955,26.968Zm-2.1,29.96c-1.022-3.112-.579-5.935,1.167-7.375a4.051,4.051,0,0,1,1.146-.683,8.693,8.693,0,0,1,4.094-.2c-.006,1.653,0,3.082.109,4.611a6.852,6.852,0,0,0-3.46-.768,1,1,0,1,0,.168,1.992,4.612,4.612,0,0,1,3.6,1.579c.227,1.534.57,3.288,1.1,5.495.025.106.058.207.084.313a6.829,6.829,0,0,1-4.418-.8A7.421,7.421,0,0,1,31.855,56.928ZM33.474,96.78a11.176,11.176,0,0,1,.752-4.351,11.116,11.116,0,0,0,3.639.561,9.175,9.175,0,0,0,3.151-.488,19.6,19.6,0,0,1,.175,2.915c-.827.492-1.66,1.006-2.484,1.547-.013.008-.019.022-.031.031l-.031.022a51.042,51.042,0,0,0-4.526,3.414A8.412,8.412,0,0,1,33.474,96.78Zm58.359,15.89a1.013,1.013,0,0,1-.353.064,1,1,0,0,1-.935-.647,24.687,24.687,0,0,0-4.762-7.229c-.039-.044-.363-.436-.754-.834a26.361,26.361,0,0,1-7.918,2.385c.078.291.154.584.223.858a46.924,46.924,0,0,1,1.643,8.608,1,1,0,0,1-.915,1.078.794.794,0,0,1-.083,0,1,1,0,0,1-1-.918,45.732,45.732,0,0,0-1.576-8.239c-.091-.36-.192-.741-.289-1.095a88.367,88.367,0,0,1-10.083.669v9.231a1,1,0,1,1-2,0v-9.231a85.048,85.048,0,0,1-10.14-.7c-.1.352-.2.73-.285,1.08a45.888,45.888,0,0,0-1.588,8.283,1,1,0,0,1-1,.918l-.083,0a1,1,0,0,1-.915-1.079,47.036,47.036,0,0,1,1.655-8.651c.068-.27.143-.563.221-.855a26.09,26.09,0,0,1-7.864-2.409c-.42.417-.77.842-.774.848a24.691,24.691,0,0,0-4.8,7.278,1,1,0,1,1-1.873-.7,26.179,26.179,0,0,1,5.176-7.894h0s.252-.308.606-.681a3.921,3.921,0,0,1-1.251-4.372c.859-.556,1.725-1.093,2.576-1.588,1.362-.782,2.685-1.469,4.042-2.1l.35-.161c1.124-.519,2.287-1.055,3.415-1.707a11.981,11.981,0,0,0,6.427-8.72,16.923,16.923,0,0,0,.249-2.093,21.145,21.145,0,0,0,6.832,1.194h.013a21.289,21.289,0,0,0,6.759-1.169c.073.7.18,1.4.287,2.041a11.545,11.545,0,0,0,6.45,8.816c.984.537,2,1,2.977,1.447l.766.35c1.44.675,2.8,1.382,4.036,2.1.9.52,1.8,1.077,2.68,1.655a3.813,3.813,0,0,1-.47,3.476,5.393,5.393,0,0,1-.808.895c.333.356.572.647.587.666a26.055,26.055,0,0,1,5.132,7.843A1,1,0,0,1,91.833,112.67Zm2.061-12.262a49.675,49.675,0,0,0-4.514-3.38c-.885-.59-1.8-1.154-2.711-1.69a6.908,6.908,0,0,1,.229-2.877,8.97,8.97,0,0,0,3.243.527,11.178,11.178,0,0,0,3.643-.56,11.19,11.19,0,0,1,.751,4.357A8.453,8.453,0,0,1,93.894,100.408Z"/></svg>