<svg id="Solid" xmlns="http://www.w3.org/2000/svg" viewBox="0 0 128 128"><title>avatar-02_6</title><path d="M73.592,47.577a1,1,0,0,1-.811-1.584,5.924,5.924,0,0,1,4.774-2.186,9.4,9.4,0,0,1,4.588,1.5,1,1,0,0,1-1.047,1.7,7.259,7.259,0,0,0-3.541-1.2,4.011,4.011,0,0,0-3.15,1.354A1,1,0,0,1,73.592,47.577Z"/><path d="M54.574,47.577a1,1,0,0,1-.813-.416,4.011,4.011,0,0,0-3.15-1.354,7.256,7.256,0,0,0-3.541,1.2,1,1,0,0,1-1.047-1.7,9.4,9.4,0,0,1,4.588-1.5,5.924,5.924,0,0,1,4.774,2.186,1,1,0,0,1-.811,1.584Z"/><rect x="49.065" y="45.692" width="4.553" height="6.189" rx="2.276" ry="2.276"/><rect x="74.39" y="45.692" width="4.553" height="6.189" rx="2.276" ry="2.276" transform="translate(153.333 97.573) rotate(180)"/><path d="M68.108,62.172a.98.98,0,0,0-1.233.662,4.358,4.358,0,0,1-2.642.626,5.626,5.626,0,0,1-3.084-.559,1,1,0,0,0-1.938.5c.46,1.8,3.372,2.042,4.6,2.064H64c1.192,0,4.241-.185,4.781-2.032A1.014,1.014,0,0,0,68.108,62.172Z"/><path d="M64.01,58.529c.023,0,2.29-.04,2.29-1.46a1,1,0,0,0-1.773-.635,1.484,1.484,0,0,1-1.045,0,1,1,0,0,0-1.772.635C61.71,58.489,63.987,58.529,64.01,58.529Z"/><path d="M105.706,69.673c2.483-7.263-1.158-14.518-4.371-20.917a54.048,54.048,0,0,1-2.991-6.662,9.9,9.9,0,0,0,1.2-3.845c.8-7.261-2.674-16-9.285-23.374C82.932,6.7,73.36,2.01,64,2.01S45.068,6.7,37.741,14.875c-6.611,7.376-10.082,16.113-9.284,23.376a9.9,9.9,0,0,0,1.2,3.843,54.048,54.048,0,0,1-2.991,6.662c-3.213,6.4-6.854,13.654-4.371,20.917,2.942,8.608,15.287,14.9,32.468,16.58C53.2,89.1,50.55,90.166,47.54,91.372a35.93,35.93,0,0,0-3.714,1.657c-.365.2-.711.4-1.069.6a1.089,1.089,0,0,0-.12.068,65.165,65.165,0,0,0-8.374,5.524,40.177,40.177,0,0,0-9.41,10.036,6.206,6.206,0,0,0-1.1,4.935c.6,2.31,2.887,3.839,5.048,5.032,1.258.692,12.935,6.764,35.2,6.764s33.954-6.072,35.213-6.764c2.16-1.193,4.449-2.722,5.047-5.032a6.21,6.21,0,0,0-1.1-4.935c-1.97-3.14-5.879-7.915-13.3-12.842C88.1,95.25,86.19,94.11,84.185,93.03a35.847,35.847,0,0,0-3.7-1.654c-3.007-1.208-5.651-2.273-7.214-5.127C90.391,84.581,102.762,78.289,105.706,69.673ZM93.79,49.7a6.676,6.676,0,0,0-3.544.859c.122-1.591.226-3.317.3-5.167a11.2,11.2,0,0,0,2.2.238,5.108,5.108,0,0,1,3.3,2.437,7.738,7.738,0,0,1,.433,5.854,9.088,9.088,0,0,1-4.452,5.36,4.956,4.956,0,0,1-2.889.517c.252-1.387.571-3.564.851-6.353l.011-.01A4.312,4.312,0,0,1,93.635,51.7a.99.99,0,0,0,1.072-.917A1,1,0,0,0,93.79,49.7ZM70.52,79.439l-.834.278A17.573,17.573,0,0,1,64,80.939h0a17.349,17.349,0,0,1-5.594-1.2c-.3-.1-.6-.2-.889-.3-9.3-3-14.821-9.222-16.4-18.491-.045-.265-.082-.477-.116-.639a100.945,100.945,0,0,1-1.565-15.6,5.07,5.07,0,0,0,2.6-3.1,8.677,8.677,0,0,0,5.744,1.293c3.847-.216,5.914-1.832,6.988-3.212C56.383,42.341,59.58,43.77,64,43.77c4.49,0,7.641-1.4,9.25-4.064,1.075,1.378,3.141,2.987,6.984,3.2a8.657,8.657,0,0,0,5.73-1.286,4.934,4.934,0,0,0,2.6,3.09A101.092,101.092,0,0,1,87,60.32c-.034.158-.071.373-.116.641C85.305,70.216,79.8,76.433,70.52,79.439Zm1.059,7.9c-1.484,1.128-4.3,1.878-7.239,1.878h-.032c-3.222,0-5.935-.869-7.6-2.377.16-.319.312-.652.45-1.008.006-.013.013-.025.019-.039s.021-.031.028-.05a16.324,16.324,0,0,0,.9-3.989A18.314,18.314,0,0,0,64,82.939h0a18.389,18.389,0,0,0,5.932-1.2,15.792,15.792,0,0,0,.9,3.989A11.364,11.364,0,0,0,71.579,87.335ZM34.364,51.7A4.291,4.291,0,0,1,38,53.438l.01.009c.28,2.786.6,4.967.851,6.355a4.962,4.962,0,0,1-2.888-.518,9.089,9.089,0,0,1-4.453-5.364,7.734,7.734,0,0,1,.434-5.85,5.111,5.111,0,0,1,3.3-2.437,11.283,11.283,0,0,0,2.2-.235c.071,1.846.174,3.571.3,5.162A6.7,6.7,0,0,0,34.21,49.7a1,1,0,0,0,.154,1.994ZM41.8,96.488a28.812,28.812,0,0,0-.271,6.147A22.858,22.858,0,0,1,36.564,100,62.65,62.65,0,0,1,41.8,96.488Zm59.658,13.832a4.369,4.369,0,0,1,.862,3.373c-.325,1.252-1.544,2.383-4.076,3.781-1.212.667-12.472,6.516-34.248,6.516s-33.026-5.849-34.237-6.516c-2.533-1.4-3.752-2.529-4.077-3.781a4.373,4.373,0,0,1,.862-3.373,37.754,37.754,0,0,1,8.356-9.037c5.431,4.059,12.317,5.508,19.367,5.508,15.5,0,31.744-6.96,34.932-8.4C96.03,103.011,99.638,107.415,101.462,110.32ZM79.736,93.231a34.238,34.238,0,0,1,3.5,1.56c1.373.74,2.674,1.513,3.933,2.3-6.187,2.6-27.884,10.871-43.563,6.248a27.351,27.351,0,0,1,.463-8.15c.238-.131.465-.268.706-.4a33.984,33.984,0,0,1,3.509-1.561c2.677-1.074,5.422-2.179,7.352-4.672A12.792,12.792,0,0,0,62.7,91.14a13.927,13.927,0,0,1-.724,1.225,8.711,8.711,0,0,0-1.812,5.2,1,1,0,0,0,1,.953h.048a1,1,0,0,0,.952-1.047,6.9,6.9,0,0,1,1.5-4.033q.165-.258.323-.513.157.255.323.513a6.91,6.91,0,0,1,1.5,4.033,1,1,0,0,0,.952,1.047h.048a1,1,0,0,0,1-.953A8.712,8.712,0,0,0,66,92.365c-.264-.414-.519-.816-.708-1.187a14.043,14.043,0,0,0,7.434-2.219C74.627,91.172,77.21,92.218,79.736,93.231Z"/><path d="M86.793,47.316c0-.022,0-.045-.005-.066A3.764,3.764,0,0,0,83.2,44.04a106.17,106.17,0,0,0-13.587.155,3.474,3.474,0,0,0-2.64,1.648h-5.9A3.461,3.461,0,0,0,58.411,44.2a106.525,106.525,0,0,0-13.586-.155,3.765,3.765,0,0,0-3.593,3.21c0,.021,0,.044-.005.066a28.943,28.943,0,0,0,1,8.1,4.366,4.366,0,0,0,3.909,2.816c1.112.111,2.494.159,3.954.159,2.519,0,5.266-.143,7.244-.353a3.7,3.7,0,0,0,3.349-2.977,44.058,44.058,0,0,0,.751-7.216h5.14a45.488,45.488,0,0,0,.767,7.216,3.7,3.7,0,0,0,3.349,2.977c1.979.21,4.725.353,7.244.353,1.46,0,2.843-.048,3.955-.159A4.366,4.366,0,0,0,85.8,55.414,28.953,28.953,0,0,0,86.793,47.316ZM58.711,54.711a1.742,1.742,0,0,1-1.59,1.337,65.218,65.218,0,0,1-10.79.192,2.539,2.539,0,0,1-2.212-1.47,26.849,26.849,0,0,1-.9-7.327,1.758,1.758,0,0,1,1.737-1.407,105.107,105.107,0,0,1,13.262.15,1.436,1.436,0,0,1,1.129.651C59.672,47.557,59.28,51.489,58.711,54.711ZM83.9,54.77a2.539,2.539,0,0,1-2.213,1.47,65.331,65.331,0,0,1-10.79-.192,1.742,1.742,0,0,1-1.59-1.337,39.7,39.7,0,0,1-.748-7.479,1,1,0,0,0,.06-.3l0-.014a1.453,1.453,0,0,1,1.172-.735c2.111-.2,5.156-.29,7.955-.29,2.059,0,3.984.048,5.308.14A1.758,1.758,0,0,1,84.8,47.443,26.9,26.9,0,0,1,83.9,54.77Z"/></svg>