<svg id="Solid" xmlns="http://www.w3.org/2000/svg" viewBox="0 0 128 128"><title>avatar-02_9</title><rect x="49.389" y="50.924" width="4.863" height="5.773" rx="2.35" ry="2.35" transform="translate(103.64 107.62) rotate(180)"/><rect x="73.708" y="50.924" width="4.863" height="5.773" rx="2.35" ry="2.35"/><path d="M60.11,71.172a.975.975,0,0,1-.916-.7,1.039,1.039,0,0,1,.685-1.273,55.2,55.2,0,0,1,8.154-.009,1,1,0,0,1-.518,1.931c-.713-.107-6.43-.105-7.1,0A.965.965,0,0,1,60.11,71.172Z"/><path d="M55.311,53.639a.994.994,0,0,1-.767-.357,4.9,4.9,0,0,0-3.4-1.642,5.627,5.627,0,0,0-3.908,1.032,1,1,0,0,1-1.293-1.525,7.549,7.549,0,0,1,5.369-1.5A6.881,6.881,0,0,1,56.075,52a1,1,0,0,1-.764,1.642Z"/><path d="M63.98,63.49c-.026,0-2.62-.043-2.62-1.58a1,1,0,0,1,1.823-.57,2.24,2.24,0,0,0,1.617,0,1,1,0,0,1,1.82.572C66.62,63.447,64.007,63.49,63.98,63.49Z"/><path d="M99.366,110.768c-1-1.588-6.577-9.8-18.641-15.419-.2-.09-.392-.184-.587-.274.26-1.464.7-4.559.024-5.657a8.641,8.641,0,0,0-3.449-2.524,3.026,3.026,0,0,0-3.343.427c-.062.042-.132.095-.2.139a16.535,16.535,0,0,1-.254-2.508A21.281,21.281,0,0,0,78.8,81.1a29.1,29.1,0,0,0,8.441-13.313,7.736,7.736,0,0,0,1.558.165,8.009,8.009,0,0,0,3.636-.886,9.159,9.159,0,0,0,4.6-5.575c1.329-4.546.25-8.564-2.673-10.219.079-.855.156-1.595.225-2.261a41.5,41.5,0,0,0,.31-6.339c1.272-.294,2.922-1.32,3.332-4.582.322-2.664-1.814-9.308-4.945-12.927a4.616,4.616,0,0,0,1.666-2.86c.25-1.425-.483-3.031-2.121-4.643-2.307-2.271-6.381-4.482-9.181-4.676-.259-4.131-2.27-5.906-3.509-6.613a5.3,5.3,0,0,0-5.187-.17,3.018,3.018,0,0,0-.721.6C70.442,3.788,65.187.619,59.9,2.635a3.55,3.55,0,0,0-2.322,3.9C54.25,5.71,49.306,6.4,47.337,8.669a3.194,3.194,0,0,0-.662,3.212c-4.616,1.289-9.7,3.376-11.351,7.735A4.133,4.133,0,0,0,36,23.86a37.112,37.112,0,0,0-5.262,11.508c-.227.952-.855,4.233.586,6.465A3.783,3.783,0,0,0,33.051,43.3c0,.234-.011.512-.017.773a37.55,37.55,0,0,0,.373,7.339c-2.744,1.734-3.729,5.657-2.436,10.08a9.156,9.156,0,0,0,4.6,5.573,8.006,8.006,0,0,0,3.636.886,7.736,7.736,0,0,0,1.558-.165A29.1,29.1,0,0,0,49.2,81.1a21.3,21.3,0,0,0,5.877,3.853,16.612,16.612,0,0,1-.257,2.527c-.076-.052-.163-.117-.234-.164a3.067,3.067,0,0,0-3.4-.387,8.481,8.481,0,0,0-3.379,2.487c-.686,1.11-.235,4.209.029,5.67l-.377.177-.194.091c-12.057,5.62-17.638,13.827-18.635,15.415a5.685,5.685,0,0,0-1,4.525c.551,2.121,2.635,3.511,4.6,4.59A43.578,43.578,0,0,0,43.016,123.7a85.551,85.551,0,0,0,16.138,2.186c1.619.074,3.249.112,4.846.112s3.208-.038,4.814-.112c12.957-.587,22.622-3.6,26.957-6,1.966-1.081,4.05-2.471,4.6-4.592A5.682,5.682,0,0,0,99.366,110.768ZM66.941,92.894a1.013,1.013,0,0,0-.229.343c-.714,1.484-.913,6.216-.962,9.491a8.831,8.831,0,0,1-4.879-.058l.033-.342c.736-7.635.76-8.768.158-9.4l-.041-.043c-1.464-1.462-3.076-2.93-4.449-4.066a15.927,15.927,0,0,0,.482-3.037A20.331,20.331,0,0,0,64,87.2a20.371,20.371,0,0,0,6.949-1.417,16.191,16.191,0,0,0,.478,3.021C70.053,89.923,68.426,91.4,66.941,92.894Zm28.17-31.967a7.245,7.245,0,0,1-3.586,4.355,5.926,5.926,0,0,1-3.879.544c.319-1.785.6-3.907.816-6.143a4.452,4.452,0,0,1,3.579-1.459,1,1,0,0,0,.224-1.987,6.744,6.744,0,0,0-3.572.726c.119-1.641.185-3.106.186-4.143a7.632,7.632,0,0,1,4.087-.013c.05.023.1.045.1.045C95.4,53.9,96.216,57.146,95.111,60.927ZM33,40.748a6.924,6.924,0,0,1-.32-4.917A34.982,34.982,0,0,1,38.16,24.293a1,1,0,0,0-.387-1.529,1.991,1.991,0,0,1-.578-2.44c1.468-3.879,6.742-5.685,11.174-6.825a1,1,0,0,0,.569-1.543c-.714-1.021-.424-1.592-.09-1.976,1.52-1.753,6.86-2.385,9.369-1.108a1,1,0,0,0,1.453-.906c0-.258-.026-.541-.052-.836-.128-1.516-.073-2.222.988-2.626,3.66-1.393,7.909.089,13.372,4.671a1,1,0,0,0,1.641-.8c-.006-.2.193-.364.361-.464a3.334,3.334,0,0,1,3.163.194c1.655.944,2.552,3.041,2.527,5.9A1,1,0,0,0,82.858,15c1.619-.318,5.986,1.546,8.563,4.083,1.115,1.1,1.682,2.144,1.554,2.875a2.711,2.711,0,0,1-1.685,2.084,1,1,0,0,0-.269,1.659c3.05,2.748,5.515,9.68,5.217,12.142-.247,1.977-1.059,3-2.356,2.935a1.036,1.036,0,0,0-.736.3,1,1,0,0,0-.285.742,39.485,39.485,0,0,1-.268,6.981c-.058.552-.12,1.155-.185,1.831a10.4,10.4,0,0,0-3.616.152c-.542-7.717-3.349-25.057-11.1-25.959a19.616,19.616,0,0,0-8.94.734,14.746,14.746,0,0,1-9.512,0,19.588,19.588,0,0,0-8.939-.734c-7.749.9-10.556,18.245-11.1,25.964a10.11,10.11,0,0,0-3.9-.107,37.29,37.29,0,0,1-.274-6.559,5.654,5.654,0,0,0-.087-1.925,1,1,0,0,0-.748-.633A1.759,1.759,0,0,1,33,40.748Zm3.472,24.534a7.242,7.242,0,0,1-3.585-4.353c-1.106-3.783-.285-7.029,2.046-8.08a7.431,7.431,0,0,1,4.185-.028c0,1.036.067,2.5.186,4.142a6.74,6.74,0,0,0-3.572-.726,1,1,0,0,0,.223,1.987,4.446,4.446,0,0,1,3.58,1.459c.214,2.237.5,4.359.816,6.143A5.924,5.924,0,0,1,36.475,65.282Zm14.038,14.3c-3.1-2.535-7.053-8.315-8.033-13.232-.388-1.954-.738-4.507-.984-7.188a66.867,66.867,0,0,1-.367-6.935c.35-8.521,3.468-24.727,9.407-25.418a24.665,24.665,0,0,1,2.868-.182,17.2,17.2,0,0,1,5.291.853,16.7,16.7,0,0,0,10.61,0,17.7,17.7,0,0,1,8.16-.671c5.938.691,9.056,16.9,9.406,25.415a66.936,66.936,0,0,1-.367,6.94c-.246,2.679-.6,5.232-.984,7.186-.98,4.917-4.932,10.7-8.033,13.232a.839.839,0,0,0-.083.076A20.155,20.155,0,0,1,71.513,83.4l0,0-.011,0A19.432,19.432,0,0,1,64,85.2a19.432,19.432,0,0,1-7.5-1.8l0,0a20.14,20.14,0,0,1-5.9-3.741A.839.839,0,0,0,50.513,79.586ZM33.191,118.133c-2.226-1.224-3.344-2.255-3.628-3.343a3.848,3.848,0,0,1,.764-2.959c.944-1.5,6.238-9.283,17.785-14.665l.173-.081c.519,1.971,1.45,4.478,2.988,5.42a2.529,2.529,0,0,0,2.028.309c2.4-.648,4.584-3.287,6.054-5.514-.113,1.424-.279,3.143-.442,4.835l-.1,1.027c-.714,7.307-1.4,15.422-.78,20.647a82.527,82.527,0,0,1-14.553-2.052A42.085,42.085,0,0,1,33.191,118.133Zm65.246-3.343c-.284,1.088-1.4,2.119-3.631,3.344-.906.5-9.207,4.845-25.263,5.707-1.736-7.223-1.843-16.555-1.8-20.333.029-3.052.169-5.447.334-7.058,1.443,2.349,3.882,5.63,6.6,6.364a2.518,2.518,0,0,0,2.015-.306c1.54-.94,2.473-3.459,2.994-5.436.066.03.133.063.2.094,11.548,5.382,16.842,13.161,17.785,14.665A3.845,3.845,0,0,1,98.437,114.79Z"/><path d="M72.649,53.639A1,1,0,0,1,71.885,52a6.881,6.881,0,0,1,4.762-2.349,7.546,7.546,0,0,1,5.37,1.5,1,1,0,0,1-1.293,1.525,5.62,5.62,0,0,0-3.908-1.032,4.9,4.9,0,0,0-3.4,1.642A.994.994,0,0,1,72.649,53.639Z"/><path d="M86.437,53.467c0-.021,0-.044,0-.065a3.731,3.731,0,0,0-3.556-3.179,104.953,104.953,0,0,0-13.4.154A3.425,3.425,0,0,0,66.939,51.9a18.982,18.982,0,0,0-5.9,0,3.419,3.419,0,0,0-2.552-1.523,105.134,105.134,0,0,0-13.4-.154A3.73,3.73,0,0,0,41.527,53.4c0,.021,0,.044-.005.065a28.552,28.552,0,0,0,.986,8,4.32,4.32,0,0,0,3.866,2.788c1.1.108,2.46.156,3.9.156,2.486,0,5.2-.141,7.151-.349a3.661,3.661,0,0,0,3.315-2.948,42.358,42.358,0,0,0,.735-7.254,16.96,16.96,0,0,1,4.995-.01,43.56,43.56,0,0,0,.752,7.265,3.661,3.661,0,0,0,3.315,2.947c1.953.208,4.664.349,7.151.349,1.438,0,2.8-.048,3.9-.156a4.321,4.321,0,0,0,3.867-2.788A28.516,28.516,0,0,0,86.437,53.467ZM58.771,60.76a1.71,1.71,0,0,1-1.558,1.309,64.415,64.415,0,0,1-10.642.19A2.491,2.491,0,0,1,44.4,60.817a26.522,26.522,0,0,1-.881-7.222,1.724,1.724,0,0,1,1.7-1.376,104.269,104.269,0,0,1,13.08.148A1.4,1.4,0,0,1,59.4,53a.835.835,0,0,1,.047.156c0,.015,0,.029,0,.044s.011.022.014.034A34.493,34.493,0,0,1,58.771,60.76Zm24.789.057a2.492,2.492,0,0,1-2.172,1.442,64.182,64.182,0,0,1-10.641-.19,1.71,1.71,0,0,1-1.558-1.308,41.623,41.623,0,0,1-.748-7.251,1.013,1.013,0,0,0,.129-.312.974.974,0,0,0,0-.187,1.414,1.414,0,0,1,1.089-.644c2.081-.2,5.086-.285,7.849-.285,2.027,0,3.926.047,5.231.137a1.724,1.724,0,0,1,1.7,1.376A26.522,26.522,0,0,1,83.56,60.817Z"/><path d="M74.06,47.77c-1.07.37-2.12.78-3.14,1.17l-.05.02a.85.85,0,0,1-1.1-.49.838.838,0,0,1,.29-1,10.617,10.617,0,0,1,3.4-1.58,24.94,24.94,0,0,1,3.62-.82,15.708,15.708,0,0,1,3.76-.11,7.713,7.713,0,0,1,3.73,1.25.756.756,0,0,1-.82,1.27l-.03-.02a6.46,6.46,0,0,0-3.01-.77,15.766,15.766,0,0,0-3.34.25A22.261,22.261,0,0,0,74.06,47.77Z"/><path d="M47.12,44.96a15.708,15.708,0,0,1,3.76.11,24.94,24.94,0,0,1,3.62.82,10.617,10.617,0,0,1,3.4,1.58.86.86,0,0,1,.18,1.2.836.836,0,0,1-.99.29l-.05-.02c-1.02-.39-2.07-.8-3.14-1.17a22.261,22.261,0,0,0-3.31-.83,15.766,15.766,0,0,0-3.34-.25,6.46,6.46,0,0,0-3.01.77l-.03.02a.757.757,0,0,1-.82-1.27A7.713,7.713,0,0,1,47.12,44.96Z"/></svg>