<svg id="Solid" xmlns="http://www.w3.org/2000/svg" viewBox="0 0 128 128"><title>avatar-01_21</title><path d="M69.859,47.134A7.551,7.551,0,0,1,72.887,45.5a11.582,11.582,0,0,1,3.261-.426,11.128,11.128,0,0,1,3.235.546A4.652,4.652,0,0,1,82.115,47.4a.638.638,0,0,1-.6.964l-.052,0a14.508,14.508,0,0,1-2.673-.75,10.506,10.506,0,0,0-2.667-.343,9.849,9.849,0,0,0-2.661.33,6.889,6.889,0,0,0-2.286,1.025l-.064.047a.992.992,0,0,1-1.257-1.531Z"/><rect x="72.231" y="45.975" width="5.024" height="6.317" rx="2.457" ry="2.457"/><path d="M68.536,41.721a16.437,16.437,0,0,1,3.771-1.28,17.237,17.237,0,0,1,3.976-.434,13.969,13.969,0,0,1,4.013.531,10.04,10.04,0,0,1,3.583,1.89.6.6,0,0,1-.595,1.027l-.026-.01a20.7,20.7,0,0,0-6.991-1.461,25.083,25.083,0,0,0-3.619.267,25.773,25.773,0,0,0-3.564.813l-.018.005a.726.726,0,0,1-.53-1.348Z"/><path d="M53.911,48.618a6.894,6.894,0,0,0-2.287-1.025,9.844,9.844,0,0,0-2.661-.33,10.493,10.493,0,0,0-2.666.343,14.519,14.519,0,0,1-2.674.75l-.052,0a.639.639,0,0,1-.6-.964,4.658,4.658,0,0,1,2.732-1.773,11.133,11.133,0,0,1,3.235-.546A11.577,11.577,0,0,1,52.2,45.5a7.554,7.554,0,0,1,3.029,1.631.992.992,0,0,1-1.258,1.531Z"/><rect x="47.836" y="45.975" width="5.024" height="6.317" rx="2.457" ry="2.457" transform="translate(100.696 98.267) rotate(-180)"/><path d="M56.006,43.064a25.759,25.759,0,0,0-3.563-.813,25.1,25.1,0,0,0-3.62-.267,20.7,20.7,0,0,0-6.99,1.461l-.025.01a.6.6,0,0,1-.6-1.027,10.032,10.032,0,0,1,3.583-1.89,13.965,13.965,0,0,1,4.013-.531,17.229,17.229,0,0,1,3.975.434,16.437,16.437,0,0,1,3.771,1.28.726.726,0,0,1-.529,1.348Z"/><path d="M62.548,59.821c-.03,0-3-.073-3-1.71a1,1,0,0,1,1.856-.518,3.83,3.83,0,0,0,1.144.228,3.766,3.766,0,0,0,1.124-.227,1,1,0,0,1,1.856.517C65.528,59.748,62.578,59.821,62.548,59.821Z"/><path d="M58.312,66.525a12.126,12.126,0,0,0,8.483,0,1,1,0,1,0-.854-1.809,10.269,10.269,0,0,1-6.776,0,1,1,0,1,0-.853,1.809Z"/><path d="M99.782,108.519c4.834-4.985,3.177-10.4.692-18.434-2.692-8.7-6.377-20.616-4.74-39.467C97.11,34.773,93.458,21.237,85.45,12.5A30.239,30.239,0,0,0,62.538,2.67,30.239,30.239,0,0,0,39.626,12.5c-8.008,8.733-11.66,22.269-10.284,38.113,1.635,18.85-2.049,30.767-4.737,39.468-2.454,7.937-4.09,13.289.468,18.2-.512.7-1.046,1.486-1.393,2.023a5.784,5.784,0,0,0-1.049,4.647c.609,2.363,2.989,3.905,5.238,5.1,2.079,1.106,13.526,6.617,34.669,6.617s32.59-5.511,34.67-6.617c2.148-1.143,4.423-2.615,5-4.854a5.836,5.836,0,0,0-1.105-4.713C100.771,109.961,100.276,109.212,99.782,108.519ZM26.515,90.676C29.253,81.817,33,69.685,31.334,50.444,30.007,35.165,33.476,22.17,41.1,13.856A28.284,28.284,0,0,1,62.538,4.67a28.286,28.286,0,0,1,21.439,9.186C91.6,22.17,95.069,35.165,93.742,50.444c-1.672,19.242,2.081,31.374,4.822,40.232,2.533,8.189,3.928,12.7-.772,17.007l-.018.017-.007.006-.008.008c-.105.1-.216.2-.361.317-4.387,3.753-17.319,10.849-34.86,10.849s-30.473-7.1-34.888-10.874c-.19-.165-.371-.324-.553-.5a.381.381,0,0,0-.036-.033C22.635,103.23,24.013,98.77,26.515,90.676Z"/><path d="M41.476,68.129a25.932,25.932,0,0,0,2.76,4.493l.112.154c2.893,4.006,10.676,9.934,18.19,9.934s15.3-5.928,18.191-9.934l.111-.154a25.87,25.87,0,0,0,2.76-4.493c6.336-4.807,11.89-23.493,6.734-40.262a1,1,0,1,0-1.912.588c4.024,13.085,1.161,27.737-3.217,34.8a47.545,47.545,0,0,0,.963-10.29C86.178,44,83.386,34.64,78.7,27.919c-4.422-6.357-10.161-9.859-16.161-9.859-6.046,0-11.821,3.553-16.264,10a45.353,45.353,0,0,0-7.366,24.9,47.672,47.672,0,0,0,.963,10.29c-4.378-7.059-7.241-21.711-3.217-34.8a1,1,0,0,0-1.912-.588C29.586,44.636,35.14,63.322,41.476,68.129Zm31.75-43.491c-7.2-3.4-14.144-3.24-21.913.5,3.388-3.3,7.257-5.082,11.225-5.082A15.872,15.872,0,0,1,73.226,24.638ZM47.8,29.38c10.8-6.8,19.6-6.844,29.357-.166a43.209,43.209,0,0,1,7.01,23.745c-.01,11.667-2.748,15.451-4.948,18.49l-.113.155C76.35,75.422,69.058,80.71,62.538,80.71S48.727,75.422,45.969,71.6l-.113-.155c-2.2-3.039-4.938-6.823-4.948-18.49A43.361,43.361,0,0,1,47.8,29.38Z"/><path d="M65.856,105.081c-3.373,2.008-10.009,2.716-16.61-.468C42.3,101.26,37.812,94.532,36.609,85.666a1,1,0,1,0-1.982.269c1.3,9.552,6.179,16.825,13.75,20.48a24.08,24.08,0,0,0,10.294,2.365A16.194,16.194,0,0,0,66.88,106.8a1,1,0,1,0-1.024-1.718Z"/><path d="M87.628,77.68a1,1,0,0,0-1,1c0,3.04-5.591,9.867-14.018,13.233-4.685,1.873-13.663,3.836-21.147-4.041a1,1,0,1,0-1.449,1.377A19.134,19.134,0,0,0,64.3,95.606a24.768,24.768,0,0,0,9.053-1.836C82.1,90.279,88.628,82.924,88.628,78.68A1,1,0,0,0,87.628,77.68Z"/></svg>