<svg id="Solid" xmlns="http://www.w3.org/2000/svg" viewBox="0 0 128 128"><title>avatar-03_13</title><path d="M42.821,47.646a9.675,9.675,0,1,0,16.562,1.926c1.547.06,3.093.1,4.617.1s3.07-.04,4.617-.1A9.658,9.658,0,1,0,85.18,47.646c11.438-2.31,19.555-6.31,20.407-10.148a3.266,3.266,0,0,0-.661-2.788c-1.54-1.976-5.567-3.234-11.13-3.494C91.573,20.6,85.028,7.578,76.9,3.7a10.7,10.7,0,0,0-10.126.19,5.962,5.962,0,0,1-5.557,0A10.7,10.7,0,0,0,51.1,3.7C42.972,7.578,36.428,20.6,34.205,31.214c-5.552.258-9.589,1.517-11.131,3.5a3.267,3.267,0,0,0-.661,2.789C23.265,41.336,31.383,45.336,42.821,47.646Z"/><path d="M37.07,123.392c2.56.43,5.25.79,8.04,1.09l0-.05A175.459,175.459,0,0,0,64,125.48a175.586,175.586,0,0,0,18.889-1.046l0,.048c2.79-.3,5.48-.66,8.04-1.09,1.34-3.05,3.79-14.1,3.44-19.66-.11-1.65-1.11-2.65-5.41-3.67,0,0,3.33-.79,4.03-1.92.7-1.1.16-3.13-2.93-5.93-1.737-1.585-4.15-3.145-11.409-5.822l-.115-.34-.13-.377c-1-3.5-3.01-3.8-4.114-3.67a11.877,11.877,0,0,0-2.8.822,18.986,18.986,0,0,1-7.48,1.489l-.008,0-.008,0a18.986,18.986,0,0,1-7.48-1.489,11.877,11.877,0,0,0-2.8-.822c-1.1-.132-3.112.172-4.114,3.67l-.13.377-.115.34c-7.259,2.677-9.672,4.237-11.409,5.822-3.09,2.8-3.63,4.83-2.93,5.93.7,1.13,4.03,1.92,4.03,1.92-4.3,1.02-5.3,2.02-5.41,3.67C33.28,109.292,35.73,120.342,37.07,123.392Zm14.288-36.7.144-.423c.7-2.431,1.655-2.321,1.972-2.281a10.383,10.383,0,0,1,2.328.7,20.972,20.972,0,0,0,8.19,1.62h.016a20.977,20.977,0,0,0,8.19-1.62,10.383,10.383,0,0,1,2.328-.7c.317-.04,1.275-.15,1.972,2.281l.144.423c3.17,9.344,6.438,19.016,5.378,35.835A175.217,175.217,0,0,1,64,123.48a175.329,175.329,0,0,1-18.023-.95C44.92,105.709,48.188,96.037,51.358,86.693Z"/><path d="M16.67,113.912a59.543,59.543,0,0,1,5.61-10.09,15.7,15.7,0,0,1,5.63-5.33l6.94-4.35c-1.56,2.29-1.18,3.77-.69,4.54a4.128,4.128,0,0,0,1.67,1.31c-1.95.78-3.08,1.84-3.2,3.68-.34,5.36,1.87,15.74,3.29,19.52-8.03-1.37-14.6-3.27-18.21-5.4A3.034,3.034,0,0,1,16.67,113.912Z"/><path d="M95.832,103.5c-.12-1.84-1.25-2.9-3.2-3.68a4.128,4.128,0,0,0,1.67-1.31c.49-.77.87-2.25-.69-4.54,0,0,4.776,3.519,6.478,4.52a18.46,18.46,0,0,1,5.63,5.33,59.543,59.543,0,0,1,5.61,10.09,3.034,3.034,0,0,1-1.04,3.88c-3.61,2.13-9.718,3.86-17.748,5.23C93.962,119.242,96.172,108.862,95.832,103.5Z"/></svg>