<svg id="Solid" xmlns="http://www.w3.org/2000/svg" viewBox="0 0 128 128"><title>avatar-03_18</title><path d="M70.6,45.091h.014c1.038-.1,2.033-.3,3.037-.454a18.291,18.291,0,0,1,3.01-.2,9.523,9.523,0,0,1,5.5,1.576l.022.015a.753.753,0,0,0,.935-1.18,8.865,8.865,0,0,0-3.037-1.7,12.983,12.983,0,0,0-3.35-.6,20.015,20.015,0,0,0-3.335.133,11.658,11.658,0,0,0-3.2.758.862.862,0,0,0,.408,1.656Z"/><path d="M54.36,44.636c1,.156,2,.359,3.037.454h.015a.863.863,0,0,0,.408-1.656,11.673,11.673,0,0,0-3.2-.758,20.015,20.015,0,0,0-3.335-.133,12.976,12.976,0,0,0-3.349.6,8.856,8.856,0,0,0-3.037,1.7.753.753,0,0,0,.937,1.178l.019-.013a9.523,9.523,0,0,1,5.5-1.576A18.291,18.291,0,0,1,54.36,44.636Z"/><path d="M57.746,65.552a6.5,6.5,0,0,0,12.508,0,2.143,2.143,0,0,0-.36-1.89,2.232,2.232,0,0,0-1.767-.88H59.873a2.232,2.232,0,0,0-1.767.88A2.143,2.143,0,0,0,57.746,65.552Zm1.956-.683a.214.214,0,0,1,.171-.087h8.254a.214.214,0,0,1,.171.087.154.154,0,0,1,.032.14,4.5,4.5,0,0,1-8.66,0A.154.154,0,0,1,59.7,64.869Z"/><path d="M75.181,46.206a6.073,6.073,0,0,0-4.461,1.6,1,1,0,0,0,1.4,1.428,3.314,3.314,0,0,1,.729-.538,2.305,2.305,0,0,0-.186.907v1.177a2.316,2.316,0,0,0,2.315,2.315h.274a2.316,2.316,0,0,0,2.315-2.315V49.6a2.289,2.289,0,0,0-.263-1.049,6.4,6.4,0,0,1,2.617,1.432,1,1,0,0,0,1.437-1.391A9.382,9.382,0,0,0,75.181,46.206Z"/><path d="M57.3,49.218A1,1,0,0,0,57.29,47.8a6.083,6.083,0,0,0-4.461-1.6,9.383,9.383,0,0,0-6.178,2.387,1,1,0,1,0,1.438,1.391,6.419,6.419,0,0,1,2.619-1.433,2.284,2.284,0,0,0-.263,1.05v1.177a2.315,2.315,0,0,0,2.315,2.315h.273a2.315,2.315,0,0,0,2.315-2.315V49.6a2.307,2.307,0,0,0-.182-.9,3.2,3.2,0,0,1,.724.531A1,1,0,0,0,57.3,49.218Z"/><path d="M64.01,60.438c.026,0,2.59-.043,2.59-1.569a1,1,0,0,0-1.816-.578,2.91,2.91,0,0,1-.774.147,3.011,3.011,0,0,1-.794-.148,1,1,0,0,0-1.816.579C61.4,60.4,63.983,60.438,64.01,60.438Z"/><path d="M82.01,102.448c.5.12,6.09,1.5,5.82.25-.44-2.04-.61-5.307-3.58-8.377a30.4,30.4,0,0,0-8.578-5.808l-.013-.02a.831.831,0,0,0-.072-.122l-.015-.017-.006-.007-.173-.19a7.008,7.008,0,0,1-2.353-5.621,24.179,24.179,0,0,0,6.9-5.04,26.956,26.956,0,0,0,1.821-2.106c8.815-1.8,14.2-6.063,16.378-10.03a9.832,9.832,0,0,0-.456-10.7c-.026-3.754-1.156-6.447-3.354-8.031,1.008-11.211.812-18.971-2.936-24.537a2.555,2.555,0,0,0,.681-1.021,3.208,3.208,0,0,0-.285-2.54C88.06,10.973,77.72,4.684,70.274,3.188c-9.594-1.9-21.784-.078-26.159,8.355C36.2,14.9,31.979,28.23,32.765,47.384c-1.65,1.678-2.483,4.218-2.455,7.584.043,4.436,2.011,6.861,3.656,8.114a9.168,9.168,0,0,0,5.55,1.832,9.671,9.671,0,0,0,1.5-.133A29.05,29.05,0,0,0,48.092,77.5a24.536,24.536,0,0,0,6.869,5.029,7.015,7.015,0,0,1-2.354,5.633l-.173.191-.006.006-.015.017a.831.831,0,0,0-.072.122l-.013.02a30.388,30.388,0,0,0-8.578,5.808c-2.97,3.07-3.14,6.337-3.58,8.377-.27,1.25,5.32-.13,5.82-.25-4.44,2.51-5.96,5.8-5.74,7.51a45.171,45.171,0,0,0,4.89,13.92q2.658.493,5.714.861l.011,0c.127.015.257.025.384.04.563.064,1.129.128,1.711.185l0-.009c3.568.352,7.267.54,11.042.54s7.475-.188,11.042-.54l0,.009c.263-.026.515-.056.774-.084.209-.022.423-.038.63-.061.012,0,.022-.009.034-.011,2.284-.257,4.42-.569,6.382-.934a45.171,45.171,0,0,0,4.89-13.92C87.97,108.248,86.45,104.958,82.01,102.448ZM35.178,61.491a7.937,7.937,0,0,1-2.868-6.54c-.026-3.04.671-5.141,2.129-6.421a7.706,7.706,0,0,1,4.755-1.62c-.038.793-.064,1.582-.064,2.385A88.562,88.562,0,0,0,40.4,62.059c.045.262.109.519.162.78A7.251,7.251,0,0,1,35.178,61.491Zm52.457.575A86.117,86.117,0,0,0,88.9,49.289c0-.788-.025-1.577-.063-2.364a8.734,8.734,0,0,1,3.91,1.022c.009.006.014.016.024.021,2,1.184,2.953,3.468,2.919,6.981a7.938,7.938,0,0,1-2.868,6.542,7.245,7.245,0,0,1-5.348,1.35C87.528,62.583,87.59,62.322,87.635,62.066Zm.849,2.848a9.168,9.168,0,0,0,5.55-1.832,9.032,9.032,0,0,0,3.175-4.759,8.029,8.029,0,0,1-.827,6.075c-1.873,3.416-6.281,6.7-12.851,8.489a30.148,30.148,0,0,0,3.48-8.1A9.648,9.648,0,0,0,88.484,64.914ZM49.527,76.1a27.236,27.236,0,0,1-6.816-12.723c-.135-.547-.249-1.1-.347-1.667A86.433,86.433,0,0,1,41.13,49.289c0-1.121.038-2.213.117-3.336.807-10.9,5.625-21.175,9.922-21.175h.016c12.686.079,25.543,0,25.576,0,4.012.356,9.151,9.489,10.022,21.175.077,1.1.117,2.225.117,3.337a83.774,83.774,0,0,1-1.235,12.431c-.1.565-.225,1.128-.348,1.681A27.861,27.861,0,0,1,80.68,73.524a44.9,44.9,0,0,1-8.783.739,4.764,4.764,0,0,0-4.661-2.779c-2.669,0-4.833,1.659-4.833,3.707S64.567,78.9,67.236,78.9a4.82,4.82,0,0,0,4.606-2.642c.243,0,.5.021.74.021a48.276,48.276,0,0,0,6.113-.388c-.066.07-.127.147-.195.216A22.031,22.031,0,0,1,71.661,81c-.018.007-.034.017-.052.025a18.246,18.246,0,0,1-15.23-.016A22.314,22.314,0,0,1,49.527,76.1Zm4.5,13.467.061-.067a8.759,8.759,0,0,0,2.829-6.142,20.954,20.954,0,0,0,7.093,1.318h.019a20.846,20.846,0,0,0,7.055-1.306h0a8.755,8.755,0,0,0,2.828,6.13l.061.067a34.451,34.451,0,0,1,1.77,8.532A38.48,38.48,0,0,1,64,100.486,38.48,38.48,0,0,1,52.257,98.1,34.451,34.451,0,0,1,54.027,89.569Zm20.349,33.445c-3.358.316-6.834.485-10.376.485s-7.018-.167-10.376-.482A111.409,111.409,0,0,1,52.1,100.169,40.2,40.2,0,0,0,64,102.486a40.2,40.2,0,0,0,11.9-2.317A111.413,111.413,0,0,1,74.376,123.014Z"/><path d="M102.564,110.791A48.592,48.592,0,0,0,86.805,96.083a15.068,15.068,0,0,1,2,6.405,1.482,1.482,0,0,1-.361,1.224c-.21.2-.52.507-1.7.507q-.327,0-.752-.034c2.117,2.108,3.116,4.387,2.915,5.948a43.583,43.583,0,0,1-4.76,13.667,61.4,61.4,0,0,0,15.208-5.251c2.541-1.4,3.758-3.116,4.081-4.371A4.384,4.384,0,0,0,102.564,110.791Z"/><path d="M42.009,104.185q-.425.034-.752.034c-1.184,0-1.494-.3-1.7-.507a1.482,1.482,0,0,1-.361-1.224,15.054,15.054,0,0,1,2-6.405,48.592,48.592,0,0,0-15.759,14.708,4.384,4.384,0,0,0-.871,3.387c.323,1.255,1.54,2.967,4.081,4.371A61.4,61.4,0,0,0,43.854,123.8a43.558,43.558,0,0,1-4.76-13.667C38.893,108.572,39.892,106.293,42.009,104.185Z"/></svg>