<svg id="Solid" xmlns="http://www.w3.org/2000/svg" viewBox="0 0 128 128"><title>avatar-02_1</title><path d="M31.644,36.905c-2.189-.242-4.594,1.172-5.979,3.506a6.365,6.365,0,0,0,.031,7.03A1,1,0,1,0,27.338,46.3a4.417,4.417,0,0,1,.048-4.868c.976-1.645,2.618-2.7,4.043-2.537a1,1,0,0,0,.215-1.989Z"/><rect x="72.761" y="52.647" width="5.394" height="6.886" rx="2.697" ry="2.697"/><path d="M79.546,54.253a1,1,0,0,1-.81-.413,4.572,4.572,0,0,0-5.647-.8,1,1,0,1,1-1.052-1.7,6.553,6.553,0,0,1,8.318,1.326,1,1,0,0,1-.223,1.4A.989.989,0,0,1,79.546,54.253Z"/><path d="M70.793,46.822a7.989,7.989,0,0,1,3.076-.737,16.45,16.45,0,0,1,3.184.046,18.69,18.69,0,0,1,3.127.655,10.572,10.572,0,0,1,2.95,1.371.688.688,0,0,1-.655,1.2l-.074-.031a16.73,16.73,0,0,0-2.681-.839,17.618,17.618,0,0,0-2.84-.4c-.958-.036-1.915-.053-2.877.006a18.346,18.346,0,0,1-2.931.075l-.035,0a.711.711,0,0,1-.244-1.346Z"/><rect x="49.707" y="52.647" width="5.394" height="6.886" rx="2.697" ry="2.697" transform="translate(104.807 112.18) rotate(180)"/><path d="M48.314,54.253a1,1,0,0,1-.809-1.587,6.555,6.555,0,0,1,8.319-1.326,1,1,0,1,1-1.053,1.7,4.568,4.568,0,0,0-5.646.8A1,1,0,0,1,48.314,54.253Z"/><path d="M56.788,48.172a18.346,18.346,0,0,1-2.931-.075c-.961-.059-1.919-.042-2.877-.006a17.618,17.618,0,0,0-2.84.4,16.762,16.762,0,0,0-2.681.839l-.073.03a.688.688,0,0,1-.656-1.2,10.578,10.578,0,0,1,2.951-1.371,18.669,18.669,0,0,1,3.127-.655,16.441,16.441,0,0,1,3.183-.046,7.994,7.994,0,0,1,3.077.737.711.711,0,0,1-.243,1.346Z"/><path d="M74.562,50.205A8.163,8.163,0,0,0,66.8,55.868a13.718,13.718,0,0,0-5.745,0,8.142,8.142,0,1,0,.391,2.485c0-.175-.016-.347-.027-.519a11.848,11.848,0,0,1,5.016,0c-.011.174-.026.347-.026.523a8.15,8.15,0,1,0,8.15-8.15ZM53.3,64.505a6.15,6.15,0,1,1,6.151-6.15A6.157,6.157,0,0,1,53.3,64.505Zm21.264,0a6.15,6.15,0,1,1,6.15-6.15A6.156,6.156,0,0,1,74.562,64.505Z"/><path d="M63.934,73.184h-.023c-1.474,0-4.052-.208-4.754-1.574a1,1,0,0,1,1.779-.914,6.74,6.74,0,0,0,2.978.488h.019a6.058,6.058,0,0,0,3.053-.546.967.967,0,0,1,1.329-.4,1.027,1.027,0,0,1,.409,1.376C68.017,72.978,65.431,73.184,63.934,73.184Z"/><path d="M63.966,66.1c-.021,0-2.16-.016-2.16-1.41a1,1,0,0,1,1.752-.659,1.538,1.538,0,0,0,.8,0,1,1,0,0,1,1.754.656C66.117,66.087,63.988,66.1,63.966,66.1Z"/><path d="M71.117,72.674a1,1,0,0,1-1-1,2.92,2.92,0,0,0-1.1-2.126,1,1,0,0,1,1.162-1.629,4.919,4.919,0,0,1,1.94,3.755A1,1,0,0,1,71.117,72.674Z"/><path d="M107.152,43.446c1.5-2.332,1.876-6.343.821-9.77a11.073,11.073,0,0,0-7.346-7.48,13.073,13.073,0,0,0-3.3-9.338,13.7,13.7,0,0,0-10.253-4.536c-.783-3.385-3.363-6.045-7.243-7.358-4.174-1.415-8.7-.908-11.452,1.163C63.4,1.26,55.934,1.392,50.885,3.072c-5.319,1.774-9.091,5.309-9.925,9.258a14.053,14.053,0,0,0-10.38,4.479,13.053,13.053,0,0,0-3.345,9.383A9.686,9.686,0,0,0,21.4,31.517a17.307,17.307,0,0,0-.127,12.6,8.975,8.975,0,0,0-1.858,7.761,7.392,7.392,0,0,0,2.747,4.684,11.487,11.487,0,0,0-.21,7.854,7.352,7.352,0,0,0,3.7,4.169C26.91,77.4,35.9,80.562,42.634,82.533,39.128,85.149,36.75,89.7,35.862,93.54a6.51,6.51,0,0,0,.627,4.921c-7.995,5.268-11.4,9.787-12.5,11.525a5.9,5.9,0,0,0-1.083,4.731c.576,2.227,2.805,3.694,4.91,4.837,4.47,2.416,18,6.3,35.243,6.419h0c.01,0,.02,0,.031,0s.016,0,.025,0c.292.009.584.01.885.01A114.968,114.968,0,0,0,82.578,124.5c8.36-1.364,14.865-3.468,17.605-4.948,2.1-1.142,4.333-2.609,4.909-4.836a5.9,5.9,0,0,0-1.081-4.729c-1.083-1.707-4.4-6.13-12.195-11.327a1.183,1.183,0,0,0,.133-.32c1.01-4.137-2.591-11.865-6.988-15.73,6.124-1.777,13.823-4.353,16.465-11.065a9.164,9.164,0,0,0,5.454-5.683,11.883,11.883,0,0,0-.3-8.635C108.744,54.047,109.957,48.029,107.152,43.446Zm-62.686-.727c.031,0,.057.007.087.007a12.446,12.446,0,0,0,5.718-1.759,9.2,9.2,0,0,0,3.913-3.959A13.468,13.468,0,0,0,63.2,40.316c.1,0,.208,0,.311,0a14.405,14.405,0,0,0,8.829-3.17,9.156,9.156,0,0,0,3.029,4.078,11.164,11.164,0,0,0,6.943,2.5A10.281,10.281,0,0,0,84,43.582a10.116,10.116,0,0,0,4.26,9.474,9.491,9.491,0,0,0,1.326,9.954,45.214,45.214,0,0,1-1.255,7.748A25.515,25.515,0,0,1,82.045,81.51a27.361,27.361,0,0,1-3.385,2.97,28.928,28.928,0,0,1-9.951,5.195,19.336,19.336,0,0,1-4.783.608c-6.086,0-10.673-2.789-14.722-5.8a26.726,26.726,0,0,1-3.39-2.974A25.452,25.452,0,0,1,39.53,70.754a45.2,45.2,0,0,1-1.254-7.744,9.571,9.571,0,0,0,.992-10.653C42.526,50.467,45.066,46.99,44.466,42.719Zm-19.629,71.5a4.066,4.066,0,0,1,.833-3.156c1.045-1.641,4.3-5.941,12.094-11.044,1.88,1.73,4.721,2.771,7.486,3.776a33.609,33.609,0,0,1,4.765,2.011c-.755,3.115,1.064,6.538,3,8.649,1.9,2.071,4.073,3.232,5.937,3.232a4.367,4.367,0,0,0,.46-.033,31.515,31.515,0,0,1,2.429,6.3c-16.9-.308-29.536-4.239-33.076-6.152C27.138,116.913,25.223,115.71,24.837,114.216Zm77.487-3.156a4.069,4.069,0,0,1,.832,3.156c-.386,1.494-2.3,2.7-3.925,3.578-2.413,1.3-8.42,3.259-16.079,4.58a52.016,52.016,0,0,0-7.629-13.534c7.962-4.532,12.607-7.3,14.749-8.8C98.061,105.146,101.289,109.429,102.324,111.06Zm2.67-45.862a7.392,7.392,0,0,1-2.853,3.753c.054-.324.118-.641.151-.983a1,1,0,0,0-.9-1.09.987.987,0,0,0-1.09.9,10.724,10.724,0,0,1-.578,2.664c-1.985,5.661-8.432,8.174-14.01,9.861a27.014,27.014,0,0,0,4.546-9.01,47.056,47.056,0,0,0,1.2-6.756,3.805,3.805,0,0,0,1.009.379,1.016,1.016,0,0,0,.189.018,1,1,0,0,0,.186-1.983,3.287,3.287,0,0,1-1.507-.982,7.471,7.471,0,0,1-1.274-8.036,11.015,11.015,0,0,0,3.786.632q.55,0,1.126-.045a1,1,0,1,0-.156-1.994,9.162,9.162,0,0,1-4.813-.781c-3.744-1.829-4.47-6.373-3.877-8.775a11.561,11.561,0,0,0,2.656-1.523,1,1,0,0,0-1.217-1.588,9.447,9.447,0,0,1-2.588,1.419,8.811,8.811,0,0,1-8.362-1.621c-1.629-1.3-2.61-2.956-2.578-4.295a8.359,8.359,0,0,0,1.671-4.109,1,1,0,0,0-1.989-.219,6.464,6.464,0,0,1-1.454,3.372.8.8,0,0,0-.06.084,11.763,11.763,0,0,1-8.735,3.823,11.368,11.368,0,0,1-9.049-3.876,9.265,9.265,0,0,1-.8-1,1,1,0,0,0-1.644,1.138c.208.3.42.57.633.827-.274,1.362-1.465,2.742-3.351,3.838a9.118,9.118,0,0,1-5.317,1.432,12.315,12.315,0,0,0-.634-1.465,1,1,0,1,0-1.777.918,9.789,9.789,0,0,1,.683,1.646c1.4,4.526-1.664,7.818-4.71,9.26a8.81,8.81,0,0,1-3.625.9,1,1,0,0,0,0,2,10.358,10.358,0,0,0,3.574-.715,7.55,7.55,0,0,1-.931,8.758,3.294,3.294,0,0,1-1.51.984,1,1,0,0,0,.187,1.983,1.013,1.013,0,0,0,.188-.018,3.824,3.824,0,0,0,1.01-.379,47.1,47.1,0,0,0,1.2,6.752A27.011,27.011,0,0,0,42.145,80.3c-6-1.812-12.857-4.518-14.349-10.993a10.69,10.69,0,0,0,1.516.194.524.524,0,0,0,.056,0,1,1,0,0,0,.053-2,7.7,7.7,0,0,1-2.4-.5.993.993,0,0,0-.178-.073,5.33,5.33,0,0,1-3.017-3.2,9.521,9.521,0,0,1,.514-7.142,4.132,4.132,0,0,1,.958-1.28,1,1,0,1,0-1.269-1.545,5.2,5.2,0,0,0-.926,1.027,5.859,5.859,0,0,1-1.732-3.309,7.248,7.248,0,0,1,.944-5.486c.049.063.094.138.144.2a1,1,0,1,0,1.508-1.312,4.354,4.354,0,0,1-.613-.989,15.245,15.245,0,0,1-.137-11.542,7.653,7.653,0,0,1,4.3-4.149,9.131,9.131,0,0,0,1.422,3.112,1,1,0,0,0,1.621-1.17,7.42,7.42,0,0,1-1.28-3.333,11.1,11.1,0,0,1,2.783-8.662,11.966,11.966,0,0,1,9.681-3.83l.013,0h.042l.011,0a19.7,19.7,0,0,1,3.148.368,1,1,0,1,0,.383-1.962,22.568,22.568,0,0,0-2.365-.324C43.783,9.32,47,6.476,51.518,4.97c4.7-1.566,11.721-1.678,16.051,3.178a11.888,11.888,0,0,1,1.559,2.169,1,1,0,1,0,1.738-.988A14.448,14.448,0,0,0,69.711,7.62c2.236-1.583,6.034-1.928,9.48-.762a8.582,8.582,0,0,1,5.857,5.528,21.16,21.16,0,0,0-2.536.337,1,1,0,0,0,.389,1.961,18.027,18.027,0,0,1,3.383-.371,11.813,11.813,0,0,1,9.549,3.872,11.114,11.114,0,0,1,2.743,8.624,7.41,7.41,0,0,1-1.28,3.33,1,1,0,1,0,1.622,1.17,9.144,9.144,0,0,0,1.423-3.118,9.041,9.041,0,0,1,5.72,6.074,11.271,11.271,0,0,1-.233,7.434,11.032,11.032,0,0,0-.929-.883,1,1,0,0,0-1.285,1.534A8.381,8.381,0,0,1,105.141,44c3.137,4.415,1.165,10.442-.532,12.542a2.428,2.428,0,0,1-.865.755,1,1,0,1,0,.765,1.847,3.208,3.208,0,0,0,.583-.33A10.284,10.284,0,0,1,104.994,65.2Z"/><path d="M48.852,15.447a8.33,8.33,0,0,0-4.683,7.905,1,1,0,0,0,1,.931l.07,0a1,1,0,0,0,.929-1.067A6.384,6.384,0,0,1,49.809,17.2c2.412-1.311,5.246-1.366,6.9-.129a1,1,0,0,0,1.2-1.6C55.614,13.757,51.976,13.747,48.852,15.447Z"/><path d="M93.654,29.537a8.332,8.332,0,0,0-9.176-.655A1,1,0,1,0,85.5,30.6a6.387,6.387,0,0,1,7.014.574c2.249,1.568,3.563,4.079,3.194,6.106a1,1,0,0,0,.8,1.163.939.939,0,0,0,.181.017,1,1,0,0,0,.982-.821C98.184,34.827,96.57,31.569,93.654,29.537Z"/></svg>