<svg id="Solid" xmlns="http://www.w3.org/2000/svg" viewBox="0 0 128 128"><title>avatar-03_10</title><rect x="73.143" y="46.527" width="5.202" height="6.36" rx="2.601" ry="2.601"/><rect x="49.658" y="46.527" width="5.202" height="6.36" rx="2.601" ry="2.601" transform="translate(104.518 99.414) rotate(180)"/><path d="M69.317,41.448a10.174,10.174,0,0,1,3.556-1.056,22.093,22.093,0,0,1,3.652-.21,16.662,16.662,0,0,1,3.664.495,7.727,7.727,0,0,1,3.442,1.8.753.753,0,0,1-1,1.122l-.036-.031a6.491,6.491,0,0,0-2.808-1.194,15.862,15.862,0,0,0-3.283-.3,20.084,20.084,0,0,0-3.33.274c-1.1.194-2.165.446-3.215.686l-.035.008a.859.859,0,0,1-.6-1.592Z"/><path d="M58.047,43.032c-1.051-.24-2.12-.492-3.216-.686a20.075,20.075,0,0,0-3.33-.274,15.859,15.859,0,0,0-3.282.3,6.48,6.48,0,0,0-2.808,1.194l-.035.03a.753.753,0,0,1-1-1.121,7.725,7.725,0,0,1,3.443-1.8,16.645,16.645,0,0,1,3.663-.495,22.093,22.093,0,0,1,3.652.21,10.174,10.174,0,0,1,3.556,1.056.86.86,0,0,1-.6,1.593Z"/><path d="M85.692,48.128c-2.443-4.911-9.828-4.081-12.607-3.768l-.517.057a10.313,10.313,0,0,0-1.613.3H57.009a10.281,10.281,0,0,0-1.612-.3l-.517-.057c-2.78-.313-10.164-1.143-12.606,3.768a11.111,11.111,0,0,0,.593,9.853c1.722,3.044,4.575,3.686,7.2,3.686.5,0,1-.023,1.474-.058C57.3,61.185,61.941,55.29,62.6,51.418a5.187,5.187,0,0,0,.057-.83,4.379,4.379,0,0,1,2.649-.005,5.144,5.144,0,0,0,.058.835c.66,3.872,5.3,9.767,11.064,10.191.476.035.972.058,1.474.058,2.621,0,5.473-.642,7.195-3.686A11.111,11.111,0,0,0,85.692,48.128ZM60.629,51.082c-.46,2.7-4.138,8.157-9.239,8.532-2.64.192-5.3.011-6.782-2.618a9,9,0,0,1-.543-7.977c1.187-2.389,4.318-2.912,7.015-2.912a31.422,31.422,0,0,1,3.576.242l.545.058a7.33,7.33,0,0,1,4.839,2.336A2.877,2.877,0,0,1,60.629,51.082Zm1.622-2.473a5.194,5.194,0,0,0-.622-1.08,6.194,6.194,0,0,0-.764-.814H67.1a6.194,6.194,0,0,0-.764.814,5.249,5.249,0,0,0-.619,1.073A6.326,6.326,0,0,0,62.251,48.609ZM83.358,57c-1.488,2.628-4.139,2.81-6.783,2.618-5.1-.375-8.779-5.833-9.239-8.532a2.885,2.885,0,0,1,.588-2.339,7.337,7.337,0,0,1,4.84-2.336l.545-.058c2.4-.271,8.774-.987,10.592,2.67A9.009,9.009,0,0,1,83.358,57Z"/><path d="M64.108,67.013a9.12,9.12,0,0,1-2.717-.408,4.346,4.346,0,0,1-3.075-2.584,1,1,0,1,1,1.91-.592A2.637,2.637,0,0,0,62,64.7a5.711,5.711,0,0,0,4.694-.37,1,1,0,1,1,1.213,1.59A6.3,6.3,0,0,1,64.108,67.013Z"/><path d="M63.991,60.844c-.027,0-2.7-.044-2.7-1.6a1,1,0,0,1,1.826-.563,2.4,2.4,0,0,0,1.738,0,1,1,0,0,1,1.826.563C66.681,60.8,64.019,60.844,63.991,60.844Z"/><path d="M101.178,110.059c-.157-.262-.345-.534-.564-.852a43.122,43.122,0,0,0-9.156-9.378,55.11,55.11,0,0,0-4.905-3.345c-1.609-.958-3.279-1.844-4.971-2.637l-.622-.286-.46-.213a6.967,6.967,0,0,0-.334-3.44A14.774,14.774,0,0,0,76,86.2c-.88-.454-1.756-.113-2.78.692a12.192,12.192,0,0,1-.589-2.858l.006,0c-.031-.339-.053-.687-.065-1.047,6.041-2.566,12.968-8.2,15.024-16.751l.144-.6c.034-.142.071-.3.106-.449a8.722,8.722,0,0,0,1.933.225,9.065,9.065,0,0,0,4.048-.969A9.435,9.435,0,0,0,98.658,58.8c1.481-4.89.18-9.141-3.308-10.828a5.236,5.236,0,0,0-.784-.307c1.392-15.4.323-20.379-.475-21.979.607-1.859,2.525-8.645-.437-12.376-1.9-2.4-4.552-2.892-7.422-1.445a14.853,14.853,0,0,0-4.8-6.883c-2.32-1.909-4.763-2.812-6.881-2.544a3.681,3.681,0,0,0-2.765,1.613,4.392,4.392,0,0,0-.642,2.079C67.885,3.658,62.1,1.144,58.71,2.292c-1.116.38-2.822,1.45-2.9,4.455l-.12-.043a18.013,18.013,0,0,0-8.416-1.419c-2.577.1-5.91,1.053-6.823,3.389-.532,1.361-.159,2.883,1.109,4.535-.26.064-.518.125-.772.186-3.386.808-6.311,1.507-7.818,4.116a7.137,7.137,0,0,0,.771,8.472c-.774,1.881-1.658,7.131-.342,21.7a5.43,5.43,0,0,0-.741.291c-3.491,1.689-4.792,5.94-3.311,10.832a9.437,9.437,0,0,0,4.833,5.633,9.068,9.068,0,0,0,4.048.969,8.722,8.722,0,0,0,1.933-.225c.035.147.072.307.106.449l.144.6C42.467,74.8,49.393,80.439,55.433,83c-.011.311-.032.61-.057.906l.012.008a12.4,12.4,0,0,1-.6,2.985c-1.026-.808-1.9-1.151-2.787-.7a14.785,14.785,0,0,0-4.167,3.709,6.973,6.973,0,0,0-.334,3.439l-.46.213-.624.287a52.383,52.383,0,0,0-8.035,4.644,47.654,47.654,0,0,0-4.679,3.7,38.557,38.557,0,0,0-6.871,7.853,5.942,5.942,0,0,0-1.054,4.727c.575,2.21,2.759,3.667,4.82,4.8l.093.049c.143.076.3.159.5.268a35.594,35.594,0,0,0,3.4,1.472A75.211,75.211,0,0,0,54.1,125.545H54.1l.045,0c3.149.3,6.464.444,9.853.444s6.7-.149,9.852-.444l.035,0h.019c14.447-1.343,22.106-5.21,23.5-5.975,1.888-1.043,3.918-2.371,4.662-4.318C102.665,113.679,102.372,111.976,101.178,110.059ZM75.148,88.013a13.487,13.487,0,0,1,3.3,2.921,7.816,7.816,0,0,1,.02,2.919.811.811,0,0,0-.012.1c-.248,2.124-.816,4.667-1.412,5.472-1.512-1.053-3.563-5.58-4.731-8.954A13.116,13.116,0,0,1,75.148,88.013ZM94.476,49.775c2.557,1.237,3.447,4.553,2.268,8.447a7.423,7.423,0,0,1-3.811,4.427,6.931,6.931,0,0,1-4.639.587c.544-2.408.978-4.569,1.312-6.555a4.059,4.059,0,0,1,3.8-1.184,1,1,0,0,0,.467-1.944,6.653,6.653,0,0,0-3.864.363c.19-1.478.317-2.848.384-4.136a5.749,5.749,0,0,1,2.934-.348A4.062,4.062,0,0,1,94.476,49.775ZM34.7,18.514c1.079-1.866,3.495-2.444,6.553-3.174.774-.185,1.577-.377,2.4-.6a1,1,0,0,0,.447-1.672c-1.492-1.493-2.127-2.794-1.787-3.665.495-1.264,2.965-2.036,5.039-2.119a16.281,16.281,0,0,1,7.656,1.3c.478.172.99.357,1.558.555a1,1,0,0,0,1.318-1.078c-.434-3.229,1-3.715,1.472-3.875,3.452-1.177,11.011,3.005,12.24,5.145.007.013.021.02.029.033a.978.978,0,0,0,1.8-.256c0-.015,0-.03.009-.045a.981.981,0,0,0,.042-.209.97.97,0,0,0-.02-.105.93.93,0,0,0-.019-.1.983.983,0,0,0-.029-.153,4.58,4.58,0,0,1,.066-3.349,1.735,1.735,0,0,1,1.338-.718c1.536-.2,3.5.569,5.358,2.1,2.419,1.993,4.207,4.87,4.348,7a1,1,0,0,0,1.567.756c2.482-1.719,4.5-1.629,6.008.271,2.227,2.8.73,8.829-.035,10.913a1,1,0,0,0,.211,1.03c.167.255,1.888,3.361.323,20.882a7.926,7.926,0,0,0-2.132.273c.01-5.555-.911-12.953-3.121-18.285-3.127-7.517-9.663-10.446-23.352-10.446-13.651,0-20.187,2.929-23.315,10.447-2.208,5.328-3.129,12.722-3.119,18.278a7.848,7.848,0,0,0-2.17-.269c-1.574-17.528.156-20.631.321-20.88a1,1,0,0,0-.063-1.433A5.23,5.23,0,0,1,34.7,18.514Zm.372,44.135a7.425,7.425,0,0,1-3.811-4.425c-1.179-3.9-.289-7.212,2.272-8.451a3.673,3.673,0,0,1,1.1-.331,5.637,5.637,0,0,1,2.974.334c.067,1.288.194,2.659.384,4.14a6.634,6.634,0,0,0-3.864-.363A1,1,0,1,0,34.6,55.5a4.066,4.066,0,0,1,3.8,1.164c.335,1.99.77,4.16,1.316,6.576A6.922,6.922,0,0,1,35.069,62.649Zm7.285,3.125-.145-.608c-.11-.46-.227-.948-.344-1.457-.667-2.873-1.172-5.374-1.547-7.643a59.223,59.223,0,0,1-.748-6.948c-.187-5.265.654-13.452,2.944-18.98,2.795-6.717,8.613-9.214,21.507-9.214,12.854,0,18.672,2.5,21.466,9.213,2.291,5.529,3.132,13.716,2.945,18.978a59.033,59.033,0,0,1-.747,6.947c-.375,2.273-.881,4.774-1.548,7.649-.116.507-.234,1-.344,1.455l-.144.6C84.041,72.45,78.36,78.586,71.175,81.4a19.969,19.969,0,0,1-7.193,1.471,19.69,19.69,0,0,1-7.152-1.46l-.006,0C49.644,78.608,43.963,72.468,42.354,65.774ZM53.5,103.644s-2.08,5.78-8.96,2.45C48.511,99.914,53.5,103.644,53.5,103.644Zm-18.07,15.9c-.05-.02-.1-.03-.14-.05a33.806,33.806,0,0,1-3.17-1.38c-.17-.09-.34-.18-.56-.3-.29-.16-.56-.31-.81-.46-.73-1.92-.71-4.6,1.45-8.16C37.331,113.224,36.511,117.3,35.431,119.544Zm4.59-13.18a7.579,7.579,0,0,1-5.06-2.6.6.6,0,0,1,.08-.08,43.2,43.2,0,0,1,4.45-3.52A8.1,8.1,0,0,1,40.021,106.364Zm4.72,12.43s-4.37-3.15-.31-8.04C48.971,115.574,44.741,118.794,44.741,118.794Zm8.64,4.67c-2.44-.25-4.67-.57-6.69-.94a7.229,7.229,0,0,1,7.05-1.83C53.621,121.674,53.5,122.6,53.381,123.464Zm-2.424-24.04c-.6-.8-1.163-3.342-1.413-5.46a1.1,1.1,0,0,0-.017-.139,7.745,7.745,0,0,1,.014-2.87,13.408,13.408,0,0,1,3.314-2.942,13.14,13.14,0,0,1,2.834,2.457C54.521,93.844,52.469,98.371,50.957,99.424Zm4.415,24.218c1.146-8.477,3.573-29.964,2.421-33.723a.9.9,0,0,0-.037-.1.946.946,0,0,0-.075-.145h0a.978.978,0,0,0-.153-.187l-.376-.377q-.414-.416-.794-.793a13.355,13.355,0,0,0,.908-3.363l.005,0c.008-.06.011-.125.019-.186.045-.339.088-.681.113-1.038a19.479,19.479,0,0,0,13.2-.013,13.9,13.9,0,0,0,1.053,4.59c-.257.253-.523.52-.8.8l-.376.377a.978.978,0,0,0-.153.187h0a.946.946,0,0,0-.075.145c-.014.033-.026.068-.037.1-1.152,3.759,1.275,25.246,2.421,33.723A108.32,108.32,0,0,1,55.372,123.642Zm18.029-1.8c-.16-1.19-.32-2.51-.49-3.91,1.62-.75,4.01-.87,7.12,1.52C77.451,122.074,75.121,122.314,73.4,121.844Zm.69-17.84c6.11-1.91,7.36,3.37,7.36,3.37S76.841,110.074,74.091,104Zm9.03,12.57s-2.43-6.76,5.73-9.07C90.2,116.224,83.121,116.574,83.121,116.574Zm2.34-12.91a8.351,8.351,0,0,1,.14-5.41,50.222,50.222,0,0,1,4.62,3.15A7.67,7.67,0,0,1,85.461,103.664Zm14.74,10.87a2.861,2.861,0,0,1-.33.62,7.217,7.217,0,0,1-7.58-4.16,8.177,8.177,0,0,1,5.96-1.65c.3.4.55.75.73,1.01s.35.51.49.75C100.321,112.464,100.561,113.594,100.2,114.534Z"/></svg>