<svg id="Solid" xmlns="http://www.w3.org/2000/svg" viewBox="0 0 128 128"><title>avatar-03_6</title><rect x="49.499" y="52.954" width="4.819" height="4.819" rx="2.205" ry="2.205" transform="translate(103.818 110.728) rotate(180)"/><rect x="73.675" y="52.954" width="4.819" height="4.819" rx="2.205" ry="2.205"/><path d="M46.5,56.7a1,1,0,0,1-.662-1.75,9.3,9.3,0,0,1,7.627-2.466,4.6,4.6,0,0,1,3.306,1.935,1,1,0,1,1-1.742.981,2.819,2.819,0,0,0-1.9-.944,7.207,7.207,0,0,0-5.97,1.994A1,1,0,0,1,46.5,56.7Z"/><path d="M81.49,56.7a1,1,0,0,1-.662-.25,7.2,7.2,0,0,0-5.978-1.993,2.788,2.788,0,0,0-1.876.939,1,1,0,1,1-1.748-.973,4.569,4.569,0,0,1,3.286-1.936,9.291,9.291,0,0,1,7.64,2.463,1,1,0,0,1-.662,1.75Z"/><path d="M63.972,67.348c.011,0,.02,0,.031,0s.02,0,.03,0Z"/><path d="M52.373,73.51a1,1,0,0,0,.119,1.675C56.876,77.429,61.84,71.976,64,71.976s7.127,5.453,11.511,3.209a1,1,0,0,0,.118-1.675C71.693,70.54,69.251,67.188,64,67.348,58.755,67.188,56.313,70.54,52.373,73.51Z"/><path d="M64,66.489c.032,0,3.27-.077,3.27-1.8A1,1,0,0,0,65.4,64.2a4.494,4.494,0,0,1-1.4.286,4.559,4.559,0,0,1-1.416-.287,1,1,0,0,0-1.874.486C60.71,66.412,63.967,66.489,64,66.489Z"/><path d="M104.87,40.928c-1.17-1.71-4.33-3.19-12.6-.89.2-4.92.96-21.66,1.84-27.97.76-5.51-1.43-7.17-3.4-7.6-6.26-1.32-19.51-2.02-26.7-1.96h-.02c-7.17-.03-20.43.64-26.7,1.96-1.97.43-4.16,2.09-3.4,7.6.88,6.32,1.63,23.05,1.84,27.97-8.27-2.3-11.43-.82-12.6.89a3.89,3.89,0,0,0,.25,4.53c2.07,2.64,6.15,4.74,12.09,6.24.05.38.1.76.15,1.15.11.91.21,1.77.36,2.58-.11.04-.22.07-.33.11-3.4,1.39-4.7,5.34-3.23,9.83a9.176,9.176,0,0,0,4.57,5.34,7.334,7.334,0,0,0,3.26.78,7.455,7.455,0,0,0,1.25-.12,21.354,21.354,0,0,0,8.45,12.87,30.56,30.56,0,0,0,5.41,3.25c.75.338,1.381.561,1.95.81A19.483,19.483,0,0,0,64,89.648a19.535,19.535,0,0,0,6.7-1.35c.921-.382,1.093-.421,1.95-.82a30.861,30.861,0,0,0,5.41-3.24,21.325,21.325,0,0,0,8.45-12.87,6.332,6.332,0,0,0,1.23.12,7.386,7.386,0,0,0,3.28-.78,9.169,9.169,0,0,0,4.55-5.34c1.47-4.5.17-8.45-3.22-9.82-.11-.05-.23-.08-.34-.12.15-.82.26-1.7.38-2.63.04-.37.09-.73.14-1.1,5.94-1.5,10.02-3.6,12.09-6.24A3.89,3.89,0,0,0,104.87,40.928Zm-67,27.99a7.211,7.211,0,0,1-3.55-4.17c-.94-2.86-.65-6.24,2.1-7.36a3.58,3.58,0,0,1,.9-.23,5.508,5.508,0,0,1,2.18.05c.11,1.44.24,2.81.37,4.11a5.732,5.732,0,0,0-2.75-.71,1,1,0,0,0,.08,2,4.152,4.152,0,0,1,2.98,1.51c.25,1.94.53,3.69.86,5.3A5.323,5.323,0,0,1,37.87,68.918Zm48.69-12.48c-.2,2.58-.41,4.88-.67,6.98a.82.82,0,0,0-.03.31c-1.22,9.75-3.34,14.66-9,18.91-4.18,3.14-8.99,5.01-12.86,5.01s-8.67-1.87-12.85-5.01c-6.92-5.2-8.56-11.38-9.71-26.18a21.066,21.066,0,0,1,.13-3.55A147.536,147.536,0,0,0,64,54.378a148.317,148.317,0,0,0,22.41-1.46A19.277,19.277,0,0,1,86.56,56.438Zm7.11,8.31a7.125,7.125,0,0,1-3.53,4.16,5.277,5.277,0,0,1-3.18.51c.34-1.61.62-3.37.87-5.32a3.994,3.994,0,0,1,2.97-1.49,1.015,1.015,0,0,0,1.03-.96,1,1,0,0,0-.96-1.04,5.712,5.712,0,0,0-2.73.7c.13-1.3.25-2.66.37-4.1a5.685,5.685,0,0,1,2.18-.05,3.416,3.416,0,0,1,.89.24C94.32,58.508,94.61,61.888,93.67,64.748Z"/><path d="M39.411,103.477c.6-.683,1.43-.354,2.943-.344a2.082,2.082,0,0,1-.838-2.625,36.456,36.456,0,0,0-12.131,11.256c-.768,1.23-1.31,2.4-1,3.588.512,1.945,2.843,3.382,4.419,4.254,2.418,1.335,7.394,3.062,13.731,4.344-2.913-4.017-6.863-12.2-7.662-18.379A3.143,3.143,0,0,1,39.411,103.477Z"/><path d="M98.615,111.764a36.456,36.456,0,0,0-12.131-11.256,2.083,2.083,0,0,1-.838,2.625c1.513-.01,2.344-.339,2.943.344a3.143,3.143,0,0,1,.536,2.094c-.7,5.441-3.85,12.432-6.581,16.768a1,1,0,0,0-1.023-.43l-.059.01c2.228-3.7,5.886-10.943,6.618-16.581.22-1.64-1.76-.92-6.33-1.11,0,0,3.29-.89,3.81-2.46.23-.69-.24-1.58-1.1-2.5a22.044,22.044,0,0,0-8.485-5.413c-1.836-1.229-3.354-3.085-3.354-6.993a1,1,0,0,0-2,0,12.6,12.6,0,0,0,.516,3.729c-1.358,1.921-4.514,2.631-7.134,2.631s-5.783-.711-7.138-2.637a12.632,12.632,0,0,0,.514-3.723,1,1,0,0,0-2,0c0,3.908-1.518,5.764-3.354,6.993a22.044,22.044,0,0,0-8.485,5.413c-.86.92-1.33,1.81-1.1,2.5.52,1.57,3.81,2.46,3.81,2.46-4.57.19-6.55-.53-6.33,1.11.97,7.47,7.08,17.77,8.19,18.89,1.3.222,2.678.421,4.121.594h0l.069.008c1,.119,2.027.228,3.1.317l0-.01c2.8.235,5.68.357,8.609.357s5.808-.13,8.6-.365l-.007.018c.216-.018.421-.04.634-.06l.023,0q2.183-.2,4.17-.48c.138-.019.277-.037.415-.057.7-.1,1.386-.207,2.048-.321l.02-.024c.518-.087,1.046-.163,1.556-.259l0,.005.1-.021c.112-.021.231-.035.342-.057.027,0,.047-.022.073-.029a53.235,53.235,0,0,0,13.219-4.237c1.576-.872,3.907-2.309,4.419-4.254C99.925,114.164,99.383,112.994,98.615,111.764Zm-25.3,11.3q-4.516.422-9.314.428c-3.183,0-6.307-.149-9.325-.431-1.84-6.157-2.9-17.139-1.834-27.358a9.391,9.391,0,0,0,3.132-3.1C57.7,94.26,60.549,95.222,64,95.222s6.3-.961,8.021-2.612a9.4,9.4,0,0,0,3.13,3.1C76.218,105.927,75.16,116.911,73.319,123.067Z"/><path d="M72.14,100.513a4.29,4.29,0,0,1-3.23-.934A12.535,12.535,0,0,1,67.353,98.1C66.407,97.1,65.43,96.058,64,96.058a3.986,3.986,0,0,0-2.792,1.458c-.176.178-.353.366-.534.56a12.781,12.781,0,0,1-1.584,1.5,4.29,4.29,0,0,1-3.23.934,1.01,1.01,0,0,0-1.095.895,1,1,0,0,0,.894,1.095,6.327,6.327,0,0,0,4.633-1.326,14.638,14.638,0,0,0,1.841-1.732c.17-.182.335-.358.494-.52.616-.616,1.014-.867,1.373-.867.565,0,1.182.655,1.9,1.414a14.176,14.176,0,0,0,1.813,1.706,6.352,6.352,0,0,0,3.92,1.361,6.9,6.9,0,0,0,.712-.036,1,1,0,0,0-.2-1.99Z"/><circle cx="64.032" cy="105.571" r="1.828"/><circle cx="63.972" cy="116.071" r="1.828"/></svg>