<svg id="Solid" xmlns="http://www.w3.org/2000/svg" viewBox="0 0 128 128"><title>avatar-02_21</title><rect x="49.137" y="45.199" width="5.124" height="6.645" rx="2.553" ry="2.553" transform="translate(103.399 97.044) rotate(-180)"/><rect x="73.737" y="45.199" width="5.124" height="6.645" rx="2.553" ry="2.553"/><path d="M46.773,47.66a1,1,0,0,1-.668-1.744,9.339,9.339,0,0,1,10.464-1.595,1,1,0,0,1-.953,1.759A7.294,7.294,0,0,0,47.441,47.4.994.994,0,0,1,46.773,47.66Z"/><path d="M43.013,44.39a1,1,0,0,1-.6-1.8c6.3-4.665,14.088-2.975,16.321-2.014a1,1,0,0,1-.791,1.837c-1.594-.686-8.7-2.393-14.34,1.785A1,1,0,0,1,43.013,44.39Z"/><path d="M81.222,47.66a.994.994,0,0,1-.668-.256,7.331,7.331,0,0,0-8.164-1.325,1,1,0,0,1-.955-1.758A9.325,9.325,0,0,1,81.89,45.916a1,1,0,0,1-.668,1.744Z"/><path d="M84.982,44.39a1,1,0,0,1-.594-.2c-5.639-4.175-12.739-2.469-14.33-1.785a1,1,0,0,1-.791-1.837c2.229-.961,10.012-2.65,16.311,2.014a1,1,0,0,1-.6,1.8Z"/><path d="M64.023,59.07c.035,0,3.54-.081,3.54-1.89a1,1,0,0,0-1.894-.45,5.044,5.044,0,0,1-1.646.34,5.108,5.108,0,0,1-1.658-.34,1,1,0,0,0-1.893.45C60.472,58.989,63.988,59.07,64.023,59.07Z"/><path d="M59.025,65.975a16.111,16.111,0,0,0,5.264.958,11.565,11.565,0,0,0,4.76-.99,1,1,0,0,0-.814-1.827c-2.492,1.111-5.289,1.1-8.556-.031a1,1,0,1,0-.654,1.89Z"/><path d="M105.56,108.74c-2.151-3.44-6.629-10.6-18.249-17.655-1.415-.858-3.032-1.727-4.6-2.567-1.186-.637-2.3-1.24-3.187-1.761.086-1.526.04-5.288-2.266-6.784,4.966-3.146,7.928-7.341,10.563-14.778a26.641,26.641,0,0,0,1.022-4.206,6.868,6.868,0,0,0,.872.06,7.982,7.982,0,0,0,4.028-1.164A10.36,10.36,0,0,0,98.5,53.8c.751-3.125.375-7.285-2.108-9.43,1.131-13.361-1.947-24.466-8.933-32.131a31.976,31.976,0,0,0-46.9-.005c-6.988,7.664-10.07,18.771-8.945,32.139-2.473,2.154-2.845,6.311-2.1,9.427a10.316,10.316,0,0,0,4.735,6.077,7.966,7.966,0,0,0,4.032,1.169,6.654,6.654,0,0,0,.881-.061,26.666,26.666,0,0,0,1.022,4.206c2.636,7.442,5.6,11.638,10.562,14.78-2.3,1.493-2.35,5.247-2.265,6.777-.879.518-1.988,1.117-3.167,1.751-1.572.846-3.2,1.719-4.616,2.583C29.109,98.115,24.6,105.29,22.435,108.739a6.413,6.413,0,0,0-1.14,5.1c.619,2.386,2.989,3.968,5.224,5.2,3.676,2.027,14.043,5.722,29.589,6.712,2.591.167,5.247.252,7.894.252s5.3-.085,7.894-.252c15.55-.99,25.916-4.685,29.59-6.712,2.236-1.236,4.6-2.82,5.22-5.2A6.4,6.4,0,0,0,105.56,108.74Zm-15.8-55.4c.017-.02.043-.028.059-.05,1.348-1.893,3.93-1.53,4.043-1.513a1,1,0,0,0,.309-1.976,7.187,7.187,0,0,0-4.221.75c.107-1.85.178-3.609.224-5.173,1.942-.589,3.486-.51,4.588.249.009.007.014.018.024.025,2.012,1.389,2.413,5,1.767,7.68a8.386,8.386,0,0,1-3.812,4.825,5.856,5.856,0,0,1-3.584.852C89.41,57.2,89.607,55.271,89.758,53.341Zm-54.5,4.813a8.34,8.34,0,0,1-3.8-4.818c-.646-2.682-.249-6.286,1.758-7.686,1.118-.781,2.672-.866,4.62-.27.046,1.565.116,3.325.223,5.176a7.2,7.2,0,0,0-4.231-.754,1,1,0,0,0,.314,1.976c.025-.006,2.675-.4,4.05,1.515.015.021.04.029.057.049.15,1.928.348,3.855.6,5.667A5.854,5.854,0,0,1,35.254,58.154Zm17.235,58.927a2.129,2.129,0,1,1,2.123-2.134A2.129,2.129,0,0,1,52.489,117.081Zm1.324-13.5a2.123,2.123,0,1,1,2.122-2.122A2.125,2.125,0,0,1,53.813,103.58ZM57.305,123.8c.661-5.447,1.776-19.474,1.913-25.871a42.221,42.221,0,0,0,5.86.4,30.239,30.239,0,0,0,3.714-.206c.155,6.485,1.255,20.284,1.908,25.675A122.4,122.4,0,0,1,57.305,123.8ZM68.8,95.459c-.011.186-.019.409-.024.654a37.32,37.32,0,0,1-9.561-.2c-.005-.163-.01-.323-.018-.458-.1-1.481-1.169-3.091-3.261-4.909A33.111,33.111,0,0,0,56.747,86a11.039,11.039,0,0,0-.1-3.039,20.39,20.39,0,0,0,14.714,0,11.031,11.031,0,0,0-.1,3.039,33.138,33.138,0,0,0,.807,4.548C69.973,92.361,68.905,93.971,68.8,95.459ZM72.14,80.453a18.579,18.579,0,0,1-16.3-.011c-.646-.3-2.322-1.152-2.53-1.27-5.547-3.029-8.49-6.861-11.247-14.648a27.747,27.747,0,0,1-1.1-4.869A125.153,125.153,0,0,1,39.82,44.89c2.008-3.8,2.844-8.856,3.584-13.323.776-4.686,1.509-9.112,3.35-10.825,2.2-2.05,6.353-2.16,10.1-.27a15.821,15.821,0,0,0,14.3,0c3.744-1.891,7.9-1.781,10.1.269,1.842,1.713,2.575,6.139,3.351,10.824.739,4.468,1.576,9.518,3.585,13.324a125.405,125.405,0,0,1-1.142,14.767,27.611,27.611,0,0,1-1.1,4.869c-2.757,7.785-5.7,11.617-11.262,14.654C74.486,79.29,72.815,80.142,72.14,80.453Z"/></svg>