<svg id="Solid" xmlns="http://www.w3.org/2000/svg" viewBox="0 0 128 128"><title>avatar-01_24</title><rect x="75.617" y="51.818" width="5.023" height="6.026" rx="2.364" ry="2.364"/><rect x="50.303" y="51.818" width="5.023" height="6.026" rx="2.364" ry="2.364" transform="translate(105.629 109.662) rotate(180)"/><path d="M67.015,62.837a1,1,0,0,1-.884-.533,2.155,2.155,0,0,0-.656-.167,2.219,2.219,0,0,0-.666.169,1,1,0,0,1-1.884-.469c0-1.3,1.87-1.7,2.55-1.7s2.54.4,2.54,1.7A1,1,0,0,1,67.015,62.837Z"/><path d="M75.074,54.408a1,1,0,0,1-1-.957,3.047,3.047,0,0,1,.845-2.2,4.8,4.8,0,0,1,3.356-1.427c2.22-.111,3.893.711,4.713,2.275a1,1,0,1,1-1.77.93,2.909,2.909,0,0,0-2.861-1.207,2.85,2.85,0,0,0-1.967.785,1.07,1.07,0,0,0-.318.753,1,1,0,0,1-.955,1.043Z"/><path d="M55.876,54.408h-.038a1,1,0,0,1-.962-1.037c.028-.774-1.041-1.5-2.289-1.544a2.914,2.914,0,0,0-2.867,1.207,1,1,0,1,1-1.77-.93c.821-1.565,2.5-2.367,4.719-2.275,2.427.092,4.277,1.681,4.206,3.617A1,1,0,0,1,55.876,54.408Z"/><path d="M65.475,74.227a5.567,5.567,0,0,1-5.509-4.4,2.689,2.689,0,0,1,.439-2.321,2.152,2.152,0,0,1,1.69-.847h6.75a2.15,2.15,0,0,1,1.69.847,2.681,2.681,0,0,1,.442,2.311A5.567,5.567,0,0,1,65.475,74.227ZM62.1,68.658a.189.189,0,0,0-.116.082.681.681,0,0,0-.073.6,3.644,3.644,0,0,0,7.131-.011.669.669,0,0,0-.075-.588.187.187,0,0,0-.117-.082Z"/><path d="M56.508,42.748a11.071,11.071,0,0,0-8.609.735.894.894,0,0,0-.4,1.17c.224.417.806.763,2.248.432a18.728,18.728,0,0,1,6.139.071,1.251,1.251,0,0,0,.621-2.408Z"/><path d="M98.482,19.632C91.4,9.035,79.368,2.957,65.475,2.957,51.64,2.957,39.657,9.013,32.6,19.572a38.926,38.926,0,0,0-3.391,36.19,9.718,9.718,0,0,0-.175,7.733,10.454,10.454,0,0,0,6.456,5.721c-.848,2.56-.827,7.265.131,9.405-1.092,1.808-1.235,5.043-1.033,6.874a6.266,6.266,0,0,0,.621,2.318,13.094,13.094,0,0,0-1.016,6.873,6.024,6.024,0,0,0,.7,2.348,12.278,12.278,0,0,0-1.361,5.279,8.834,8.834,0,0,0,.8,4.665,30.79,30.79,0,0,0-3.873,4.888,5.63,5.63,0,0,0-1,4.485c.543,2.1,2.607,3.486,4.556,4.562,1.124.62,11.555,6.044,31.462,6.044s30.329-5.424,31.454-6.045c1.952-1.077,4.019-2.461,4.561-4.566a5.626,5.626,0,0,0-1.006-4.478,30.736,30.736,0,0,0-3.886-4.9,8.708,8.708,0,0,0,.791-4.573,12.417,12.417,0,0,0-1.365-5.358,7.02,7.02,0,0,0,.644-2.962,14.813,14.813,0,0,0-1.017-6.36c.989-2.146.949-6.852-.364-9.082.963-2.131,1-6.832.159-9.4a10.369,10.369,0,0,0,6.463-5.74,9.728,9.728,0,0,0-.113-7.626A38.775,38.775,0,0,0,98.482,19.632ZM66.209,106.358l-.011-.008c-.015-.015-.027-.03-.042-.044l0,0s-.012-.006-.018-.011a1,1,0,0,0-.242-.162l-.009-.006c-.022-.01-.044-.018-.066-.026s-.02,0-.03-.006a.974.974,0,0,0-.324-.065,1,1,0,0,0-.787.389c-3.615,3.815-11,3.372-14.753.439-2.619-2.047-2.969-4.881-1.032-7.995.887-.442,1.824-.809,2.738-1.157.121-.045.239-.092.359-.138,4.746,6.482,9.681,7.351,13.485,7.351s8.729-.869,13.484-7.351l.333.129c.894.341,1.818.706,2.755,1.165,1.935,3.112,1.584,5.943-1.033,7.989C77.247,109.8,69.8,110.234,66.209,106.358ZM84.6,47.77c1.523,3.543,4.508,6.22,7.323,6.583-.248,2.536-.494,4.817-.731,6.758A50.252,50.252,0,0,1,89.977,68.1a24.11,24.11,0,0,1-4.88,8.384,33.51,33.51,0,0,1-6.075,5.532,26.547,26.547,0,0,1-7.5,3.611,21.967,21.967,0,0,1-6.025.989,21.756,21.756,0,0,1-6.071-1.007,26.647,26.647,0,0,1-7.464-3.592,33.245,33.245,0,0,1-6.076-5.543A24.085,24.085,0,0,1,41,68.1,52.852,52.852,0,0,1,39.8,61.113c-.243-1.923-.493-4.219-.745-6.8,6.073-.526,7-5.142,7.963-10.022.68-3.435,1.451-7.33,4.073-10.61,1.739-2.191,3.835-2.739,4.169-2.513C59.61,45.59,70.5,48.57,74.985,49.181,78.88,49.716,82.551,49.127,84.6,47.77ZM60.037,87.846a22.72,22.72,0,0,0,5.458.772,22.855,22.855,0,0,0,5.411-.759c.6,5.518,3.24,7.6,6.149,8.927-4.1,5.371-8.135,6.131-11.58,6.131s-7.492-.76-11.58-6.13C56.806,95.463,59.441,93.38,60.037,87.846ZM45.476,98.432a7.726,7.726,0,0,0-.647-1.476C45.907,94.893,46,90.572,44.956,88c1.039-1.962,1.193-5.8.317-8.605.082-.113.162-.232.238-.358a35.072,35.072,0,0,0,5.3,4.624,28.556,28.556,0,0,0,7.268,3.6c-.469,5.485-2.938,6.913-6.105,8.167-.347.139-.7.273-1.055.407A30.847,30.847,0,0,0,47.929,97.1a.985.985,0,0,0-.285.136C47.046,97.53,46.221,98,45.476,98.432ZM83.428,97.3l-.148-.073a.994.994,0,0,0-.271-.123,31.406,31.406,0,0,0-3-1.278q-.519-.2-1.03-.4c-3.172-1.26-5.646-2.693-6.115-8.147a28.541,28.541,0,0,0,7.31-3.624,35.172,35.172,0,0,0,5.27-4.584c.066.109.132.217.208.321-.887,2.834-.721,6.72.346,8.66-.9,2.749-.98,6.806.069,8.86A5.2,5.2,0,0,0,85.5,98.46C84.826,98.067,84.146,97.683,83.428,97.3ZM30.879,62.724a7.552,7.552,0,0,1,.294-6.39c.985-1.719,4.211-2.11,5.867-2.052q.219,2.261.436,4.209a8.758,8.758,0,0,0-2.612-1.339,1,1,0,1,0-.518,1.931,7.383,7.383,0,0,1,3.5,2.559c.334,2.585.649,4.537.954,5.908a7.815,7.815,0,0,1-1.726-.034A8.319,8.319,0,0,1,30.879,62.724Zm69.183,0a8.241,8.241,0,0,1-6.2,4.8,8,8,0,0,1-1.677.025c.308-1.366.625-3.318.96-5.908a7.491,7.491,0,0,1,3.458-2.56,1,1,0,0,0-.528-1.929,8.6,8.6,0,0,0-2.563,1.332q.215-1.956.433-4.2c1.814-.067,4.895.418,5.869,2.122C100.8,57.846,100.909,60.682,100.062,62.725Z"/></svg>