<svg id="Solid" xmlns="http://www.w3.org/2000/svg" viewBox="0 0 128 128"><title>avatar, people, hospital, doctor, man, specialist, professor</title><path d="M63.989,60.877c-.029,0-2.788-.044-2.788-1.631a1,1,0,0,1,1.831-.556,2.539,2.539,0,0,0,1.915,0,1,1,0,0,1,1.83.557C66.777,60.807,64.017,60.877,63.989,60.877Z"/><path d="M63.989,67.615c-1.848,0-3.281-.721-3.836-1.929a1,1,0,1,1,1.818-.834c.161.352.787.763,2.018.763S65.836,65.2,66,64.852a1,1,0,1,1,1.818.834C67.261,66.894,65.831,67.615,63.989,67.615Z"/><path d="M55.849,51.024a1,1,0,0,1-1-1c0-.876-1.217-1.644-2.6-1.644s-2.6.768-2.6,1.644a1,1,0,0,1-2,0c0-2.009,2.066-3.644,4.6-3.644s4.6,1.635,4.6,3.644A1,1,0,0,1,55.849,51.024Z"/><path d="M79.384,51.024a1,1,0,0,1-1-1c0-.876-1.216-1.644-2.6-1.644s-2.605.768-2.605,1.644a1,1,0,0,1-2,0c0-2.009,2.066-3.644,4.605-3.644s4.6,1.635,4.6,3.644A1,1,0,0,1,79.384,51.024Z"/><path d="M45.458,41.1a15.114,15.114,0,0,1,11.651-1.827A1.691,1.691,0,0,1,58.3,41.168h0A1.7,1.7,0,0,1,56.5,42.614a25.593,25.593,0,0,0-8.366.493c-1.932.589-2.757.173-3.1-.372A1.222,1.222,0,0,1,45.458,41.1Z"/><rect x="50.391" y="48.415" width="4.477" height="6.322" rx="2.239" ry="2.239" transform="translate(105.259 103.152) rotate(180)"/><path d="M82.568,41.1a15.114,15.114,0,0,0-11.651-1.827,1.691,1.691,0,0,0-1.194,1.892h0a1.7,1.7,0,0,0,1.808,1.446,25.593,25.593,0,0,1,8.366.493c1.932.589,2.757.173,3.1-.372A1.222,1.222,0,0,0,82.568,41.1Z"/><rect x="73.158" y="48.415" width="4.477" height="6.322" rx="2.239" ry="2.239"/><path d="M76.118,42.922a10.173,10.173,0,0,0-9.93,8.029h-4.35a10.147,10.147,0,1,0,.228,2.129c0-.044-.006-.086-.007-.129h3.907c0,.043-.006.085-.006.129A10.158,10.158,0,1,0,76.118,42.922ZM51.909,61.237a8.158,8.158,0,1,1,8.157-8.157A8.167,8.167,0,0,1,51.909,61.237Zm24.209,0a8.158,8.158,0,1,1,8.157-8.157A8.167,8.167,0,0,1,76.118,61.237Z"/><path d="M105.441,36.632c.37-8.087-4.889-15.368-13.4-18.552a22.77,22.77,0,0,1-8-4.935A27.348,27.348,0,0,0,72.919,6.839C61.544,3.14,50.943,8.4,37.21,16.247c-9.6,5.472-15.325,14.666-14.6,23.42.474,5.706,3.668,10.053,8.759,11.925.077.029.15.051.227.079a8.309,8.309,0,0,0-.641,7.145,9.51,9.51,0,0,0,4.877,5.221,7.617,7.617,0,0,0,3.142.7,6.783,6.783,0,0,0,1.283-.129,23.592,23.592,0,0,0,3.129,6.954A27.36,27.36,0,0,0,56.177,81.648a17.447,17.447,0,0,1-1.413,4.846A21.671,21.671,0,0,0,47.15,91.02a51.81,51.81,0,0,0-19.678,15.949,5.137,5.137,0,0,0-1.17,4.212c.506,2.265,2.83,3.79,5.037,4.982,3.6,1.951,10.187,3.753,17.579,5.008a78.738,78.738,0,0,0,15.008,1.293A93.253,93.253,0,0,0,80.04,121c6.738-1.156,12.884-2.895,16.472-4.835,2.208-1.193,4.532-2.718,5.038-4.983a5.133,5.133,0,0,0-1.17-4.212A51.8,51.8,0,0,0,80.69,91.015a21.646,21.646,0,0,0-7.608-4.521,20.484,20.484,0,0,1-1.364-4.849A27.361,27.361,0,0,0,84.5,71.563a23.592,23.592,0,0,0,3.129-6.954,6.783,6.783,0,0,0,1.283.129,7.617,7.617,0,0,0,3.142-.7,9.514,9.514,0,0,0,4.877-5.221,8.293,8.293,0,0,0-1.5-8.334A15.246,15.246,0,0,0,105.441,36.632ZM36.661,62.215a7.469,7.469,0,0,1-3.83-4.1,6.35,6.35,0,0,1,.782-5.871,19.046,19.046,0,0,0,4.93.342c.053.57.116,1.189.185,1.842a9.6,9.6,0,0,0-2.274-1.108,1,1,0,0,0-.575,1.916,7.153,7.153,0,0,1,3.19,2.2c.141,1.188.286,2.351.417,3.346.084.638.193,1.261.314,1.876A5.367,5.367,0,0,1,36.661,62.215ZM32.292,114.4c-1.573-.849-3.7-2.153-4.038-3.659a3.23,3.23,0,0,1,.826-2.587A50.614,50.614,0,0,1,44.306,94.7a14.9,14.9,0,0,0-1.369,3.793,1.263,1.263,0,0,0,.326,1.216c.2.2.615.623,2.483.494-.339.317-1.2,1.264-1.367,1.448-1.075,1.2-1.786,1.988-1.557,3.772a46.291,46.291,0,0,0,4.447,13.438C40.9,117.712,35.392,116.083,32.292,114.4Zm17.434,4.864c-.948-1.787-4.14-8.148-4.921-14.1-.107-.839.022-1.019,1.062-2.178.172-.191,3.954-3.6,3.954-3.6a1,1,0,0,0-.852-1.755,22.3,22.3,0,0,1-3.906.593,11.441,11.441,0,0,1,3.35-5.655,19.836,19.836,0,0,1,5.45-3.6c-3.041,10.086-.97,25.211.318,30.89C52.729,119.7,51.245,119.506,49.726,119.268Zm49.047-11.11a3.229,3.229,0,0,1,.825,2.587c-.336,1.506-2.465,2.81-4.037,3.659-3.217,1.74-8.8,3.332-14.983,4.449a46.112,46.112,0,0,0,4.447-13.434c.228-1.781-.482-2.572-1.56-3.77-.166-.184-1.026-1.13-1.365-1.447,1.87.13,2.288-.3,2.484-.494a1.258,1.258,0,0,0,.327-1.209,14.969,14.969,0,0,0-1.374-3.806A50.62,50.62,0,0,1,98.773,108.158Zm-24.8-19.185a19.816,19.816,0,0,1,5.46,3.6,11.461,11.461,0,0,1,3.349,5.654,22.5,22.5,0,0,1-3.907-.593,1,1,0,0,0-.851,1.755l.128.1c2.039,1.609,5,4.832,4.888,5.669-.784,5.971-3.973,12.312-4.926,14.106-1.473.23-2.963.431-4.455.6C74.944,114.2,77,99.094,73.975,88.973Zm-2.421,31.11q-.939.087-1.869.154a90.583,90.583,0,0,0-3.592-21.543c.013-.01.024-.016.037-.027a8.824,8.824,0,0,0,1.743-1.95,5.9,5.9,0,0,0,3.86.912,1,1,0,1,0-.2-1.989A3.916,3.916,0,0,1,68.885,95a10.874,10.874,0,0,1-1.718-1.523c-.932-.952-1.895-1.935-3.244-1.935s-2.322.985-3.255,1.938a10.4,10.4,0,0,1-1.787,1.569,3.869,3.869,0,0,1-2.568.592,1,1,0,1,0-.213,1.988,6.228,6.228,0,0,0,.69.038,5.882,5.882,0,0,0,3.151-.921l.007-.006a8.4,8.4,0,0,0,1.786,1.96v0a90.743,90.743,0,0,0-3.581,21.509c-1.046-.065-1.806-.118-1.862-.123-1.244-4.96-3.8-22.313.044-32.146a10.143,10.143,0,0,0,15.167-.02C75.333,97.808,72.794,115.127,71.554,120.083ZM57.2,85.787A16.647,16.647,0,0,0,58.12,82.3a20.478,20.478,0,0,0,5.824.97,20.52,20.52,0,0,0,5.829-.971,15.406,15.406,0,0,0,.866,3.459,8.12,8.12,0,0,1-13.442.025ZM86.42,60.526a22.989,22.989,0,0,1-3.582,9.923,25.459,25.459,0,0,1-12.522,9.586,19.522,19.522,0,0,1-6.372,1.239,19.5,19.5,0,0,1-6.373-1.24,25.453,25.453,0,0,1-12.522-9.585,22.985,22.985,0,0,1-3.581-9.923c-.328-2.509-.732-5.945-.946-8.254C49.166,50.444,55.6,41.949,56.066,35.09a13.007,13.007,0,0,1,6.823-10.556,6.952,6.952,0,0,1,7.255.45c2.469,1.724,3.3,5.991,4.186,10.508,1.407,7.2,3.166,16.056,13.076,16.338C87.206,54.12,86.778,57.8,86.42,60.526Zm8.637-2.412a7.469,7.469,0,0,1-3.83,4.1,5.368,5.368,0,0,1-3.139.447c.122-.615.231-1.238.315-1.876.134-1.022.278-2.177.416-3.345a7.107,7.107,0,0,1,3.19-2.206,1,1,0,0,0-.574-1.916,9.589,9.589,0,0,0-2.276,1.109c.106-.991.195-1.9.258-2.65.987-.077,2.539-.368,3.8-.6A6.114,6.114,0,0,1,95.057,58.114Z"/></svg>