<svg id="Solid" xmlns="http://www.w3.org/2000/svg" viewBox="0 0 128 128"><title>avatar-02_11</title><path d="M64.007,61.356c-.03,0-2.981-.073-2.981-1.7a1,1,0,0,1,1.851-.525,3.863,3.863,0,0,0,1.13.222,3.781,3.781,0,0,0,1.115-.222,1,1,0,0,1,1.852.525C66.974,61.283,64.036,61.356,64.007,61.356Z"/><path d="M64.013,67.624a12.5,12.5,0,0,1-4.207-.763,1,1,0,0,1,.871-1.8,10.151,10.151,0,0,0,6.673,0,1,1,0,0,1,.871,1.8A12.511,12.511,0,0,1,64.013,67.624Z"/><path d="M38.345,65.408a9.716,9.716,0,0,1-9.007-6.785c-1.456-4.47-.109-8.415,3.352-9.816,1.315-.559,4.754-.728,6.167.143a1,1,0,1,1-1.05,1.7,7.849,7.849,0,0,0-4.351,0c-2.48,1-3.344,3.887-2.216,7.351A7.531,7.531,0,0,0,40.4,63.111a1,1,0,1,1,.555,1.921A9.383,9.383,0,0,1,38.345,65.408Z"/><path d="M89.655,65.408a9.383,9.383,0,0,1-2.606-.376,1,1,0,1,1,.555-1.921,7.527,7.527,0,0,0,9.156-5.106c1.128-3.464.264-6.347-2.2-7.345a7.852,7.852,0,0,0-4.367-.008,1,1,0,1,1-1.05-1.7c1.412-.872,4.852-.7,6.182-.137,3.446,1.395,4.793,5.34,3.337,9.811A9.718,9.718,0,0,1,89.655,65.408Z"/><path d="M38.985,57.863a1,1,0,0,1-.8-.4,4.172,4.172,0,0,0-3.658-1.44,1,1,0,0,1-.266-1.982,6.2,6.2,0,0,1,5.527,2.225,1,1,0,0,1-.8,1.6Z"/><path d="M32.3,51.113a1,1,0,0,1-.985-.83c-2.533-14.671.2-27.648,7.683-36.539A32.014,32.014,0,0,1,64,2.5a1,1,0,0,1,0,2A30.046,30.046,0,0,0,40.532,15.032c-7.1,8.433-9.673,20.831-7.242,34.911a1,1,0,0,1-.986,1.17Z"/><path d="M57.812,43.066a.99.99,0,0,1-.377-.075c-2.9-1.184-11.638-3.055-14.125-.26a1,1,0,0,1-1.5-1.33c3.7-4.157,14.536-1.012,16.375-.261a1,1,0,0,1-.378,1.926Z"/><path d="M50.794,58.6a14.607,14.607,0,0,1-3.509-.461c-3.762-.911-6.317-3.888-8.044-9.369h0a4.393,4.393,0,0,1,.469-3.737,3.656,3.656,0,0,1,2.782-1.622c5.072-.433,16.241.262,19.075,3.822A3.779,3.779,0,0,1,62.08,50.9a12.647,12.647,0,0,1-7,7.017A14.561,14.561,0,0,1,50.794,58.6ZM41.149,48.165c1.963,6.236,4.711,7.567,6.607,8.025A11.683,11.683,0,0,0,54.5,56a10.811,10.811,0,0,0,5.675-5.7A1.784,1.784,0,0,0,60,48.475C58.034,46,48.275,44.921,42.662,45.4a1.666,1.666,0,0,0-1.291.743,2.38,2.38,0,0,0-.222,2.022Z"/><path d="M27.985,109.432a.974.974,0,0,1-.26-.035c-2.545-.685-4.279-1.938-5.153-3.726-1.231-2.517-.368-5.384.256-6.868.336-.8.122-1.285-.392-2.31a6.84,6.84,0,0,1-.943-3.948c.274-3.112,2.579-4.37,4.263-5.289a7.783,7.783,0,0,0,1.624-1.047c.6-.591.559-1.787.519-3.053-.049-1.585-.106-3.381,1.169-4.571,1.789-1.669,2.51-1.906,3.485-2.1a5.337,5.337,0,0,0,1.619-.562c1.657-.842,1.637-1.65,1.6-2.99a5.913,5.913,0,0,1,.412-2.79c.753-1.621,2.485-3.368,6.433-2.49a1,1,0,1,1-.433,1.952c-2.88-.639-3.769.482-4.186,1.381a4.159,4.159,0,0,0-.227,1.9,4.468,4.468,0,0,1-2.7,4.823,7.252,7.252,0,0,1-2.137.741c-.606.12-1.007.2-2.509,1.6-.612.57-.574,1.773-.534,3.045.049,1.563.105,3.334-1.112,4.538a9.01,9.01,0,0,1-2.072,1.38c-1.568.856-3.049,1.665-3.229,3.708a4.947,4.947,0,0,0,.738,2.876,4.311,4.311,0,0,1,.449,3.983c-.492,1.172-1.187,3.407-.3,5.215a5.632,5.632,0,0,0,3.875,2.673,1,1,0,0,1-.259,1.966Z"/><path d="M89.015,57.863a1,1,0,0,1-.8-1.6,6.2,6.2,0,0,1,5.527-2.225,1,1,0,0,1-.268,1.982,4.171,4.171,0,0,0-3.656,1.44A1,1,0,0,1,89.015,57.863Z"/><path d="M95.7,51.113a.913.913,0,0,1-.171-.015,1,1,0,0,1-.815-1.155c2.431-14.08-.141-26.478-7.242-34.911A30.046,30.046,0,0,0,64,4.5a1,1,0,0,1,0-2A32.014,32.014,0,0,1,89,13.744c7.487,8.891,10.216,21.868,7.683,36.539A1,1,0,0,1,95.7,51.113Z"/><path d="M71,48.586a3.667,3.667,0,0,1,1.509-1.394,7.636,7.636,0,0,1,1.588-.62,12.587,12.587,0,0,1,3.2-.4,11.851,11.851,0,0,1,3.194.448,3.9,3.9,0,0,1,2.733,1.9.627.627,0,0,1-.687.867l-.1-.019c-.943-.171-1.6-.565-2.48-.753a11.428,11.428,0,0,0-2.652-.26,10.875,10.875,0,0,0-2.655.309l-.617.175c-.188.073-.388.14-.563.219a2.81,2.81,0,0,0-.723.481l-.2.2A.973.973,0,0,1,71,48.586Z"/><rect x="73.526" y="48.086" width="5.162" height="5.71" rx="2.547" ry="2.547"/><path d="M55.27,49.546a2.81,2.81,0,0,0-.723-.481c-.175-.079-.375-.146-.563-.219l-.617-.175a10.875,10.875,0,0,0-2.655-.309,11.428,11.428,0,0,0-2.652.26c-.881.188-1.537.582-2.48.753l-.1.019a.627.627,0,0,1-.686-.867,3.9,3.9,0,0,1,2.733-1.9,11.851,11.851,0,0,1,3.194-.448,12.579,12.579,0,0,1,3.194.4,7.622,7.622,0,0,1,1.589.62,3.667,3.667,0,0,1,1.509,1.394.973.973,0,0,1-1.538,1.165Z"/><rect x="49.326" y="48.086" width="5.162" height="5.71" rx="2.547" ry="2.547" transform="translate(103.814 101.882) rotate(180)"/><path d="M70.187,43.066a1,1,0,0,1-.377-1.926c1.839-.751,12.67-3.9,16.375.261a1,1,0,0,1-1.5,1.33c-2.489-2.8-11.225-.923-14.125.26A.991.991,0,0,1,70.187,43.066Z"/><path d="M77.206,58.6a14.589,14.589,0,0,1-4.284-.682,12.652,12.652,0,0,1-7-7.018,3.779,3.779,0,0,1,.513-3.667c2.834-3.56,14.007-4.253,19.075-3.822a3.656,3.656,0,0,1,2.782,1.622,4.393,4.393,0,0,1,.469,3.737h0c-1.727,5.481-4.282,8.458-8.044,9.369A14.607,14.607,0,0,1,77.206,58.6Zm5.273-13.307c-5.589,0-12.818,1.1-14.482,3.186a1.784,1.784,0,0,0-.168,1.827A10.811,10.811,0,0,0,73.5,56a11.683,11.683,0,0,0,6.74.19c1.9-.458,4.644-1.789,6.607-8.025a2.38,2.38,0,0,0-.222-2.022,1.666,1.666,0,0,0-1.291-.743C84.47,45.326,83.5,45.289,82.479,45.289Zm5.326,3.177h0Z"/><path d="M90.67,49.863c-.97,14.49-4.47,23.07-11.71,28.68a52.641,52.641,0,0,1-6.17,3.94v.01c-.63.34-1.27.68-1.91.99-2.54,1.24-5.04,2.14-6.88,2.14s-4.34-.9-6.88-2.14c-.64-.31-1.29-.65-1.92-1a52.285,52.285,0,0,1-6.15-3.93c-7.25-5.62-10.75-14.2-11.72-28.69a1,1,0,0,1,2-.13c.92,13.86,4.19,22,10.93,27.23a49.479,49.479,0,0,0,5.22,3.39c.59.34,1.19.66,1.78.97,2.66,1.36,5.17,2.3,6.74,2.3s4.08-.94,6.73-2.3c.59-.3,1.19-.62,1.79-.96a48.179,48.179,0,0,0,5.23-3.41c6.73-5.22,10-13.36,10.92-27.22a1,1,0,0,1,2,.13Z"/><path d="M89.669,50.8l-.086,0a1,1,0,0,1-.911-1.082c.155-1.826-.558-4.18-1.186-6.255a24.632,24.632,0,0,1-.958-3.834,22.765,22.765,0,0,1-.012-4.085c.1-1.8.2-3.491-.4-4.74-.792-1.648-2.431-2.658-4.168-3.726A22.937,22.937,0,0,1,79.39,25.34a22.691,22.691,0,0,1-2.3-2.3c-1.338-1.476-2.6-2.869-4.292-3.405a9.967,9.967,0,0,0-4.6.205,18.459,18.459,0,0,1-4.2.46,18.636,18.636,0,0,1-4.2-.46,9.966,9.966,0,0,0-4.6-.2c-1.69.535-2.954,1.928-4.292,3.4a22.691,22.691,0,0,1-2.3,2.3,22.937,22.937,0,0,1-2.558,1.736c-1.737,1.068-3.376,2.078-4.168,3.726-.6,1.249-.5,2.944-.4,4.74a22.765,22.765,0,0,1-.012,4.085,24.632,24.632,0,0,1-.958,3.834c-.628,2.075-1.341,4.429-1.186,6.255a1,1,0,1,1-1.992.17c-.189-2.209.583-4.757,1.264-7.005a23.45,23.45,0,0,0,.885-3.494,21.119,21.119,0,0,0,0-3.73c-.118-2.061-.23-4.007.593-5.722,1.046-2.177,3.106-3.444,4.923-4.562A21.173,21.173,0,0,0,47.339,23.8a20.635,20.635,0,0,0,2.087-2.1c1.457-1.607,2.964-3.269,5.17-3.967a11.5,11.5,0,0,1,5.571.146,17.563,17.563,0,0,0,3.686.429,1.007,1.007,0,0,1,.174,0,16.739,16.739,0,0,0,3.806-.424,11.512,11.512,0,0,1,5.571-.147c2.206.7,3.713,2.361,5.17,3.968a20.635,20.635,0,0,0,2.087,2.1A21.173,21.173,0,0,0,83,25.373c1.817,1.118,3.877,2.385,4.923,4.562.823,1.715.711,3.661.593,5.722a21.119,21.119,0,0,0,0,3.73,23.45,23.45,0,0,0,.885,3.494c.681,2.248,1.453,4.8,1.264,7.005A1,1,0,0,1,89.669,50.8Z"/><path d="M100.015,109.432a1,1,0,0,1-.259-1.966,5.632,5.632,0,0,0,3.875-2.673c.884-1.808.189-4.043-.3-5.215a4.311,4.311,0,0,1,.449-3.983,4.947,4.947,0,0,0,.738-2.876c-.18-2.043-1.661-2.852-3.229-3.708a9.01,9.01,0,0,1-2.072-1.38c-1.217-1.2-1.161-2.975-1.112-4.538.04-1.272.078-2.475-.534-3.045-1.5-1.4-1.9-1.48-2.509-1.6a7.252,7.252,0,0,1-2.137-.741,4.468,4.468,0,0,1-2.7-4.823,4.159,4.159,0,0,0-.227-1.9c-.417-.9-1.309-2.02-4.186-1.381a1,1,0,1,1-.433-1.952c3.952-.878,5.68.871,6.433,2.49a5.913,5.913,0,0,1,.412,2.79c-.034,1.34-.054,2.148,1.6,2.99a5.337,5.337,0,0,0,1.619.562c.975.193,1.7.43,3.485,2.1,1.275,1.19,1.218,2.986,1.169,4.571-.04,1.266-.078,2.462.519,3.053a7.783,7.783,0,0,0,1.624,1.047c1.684.919,3.989,2.177,4.263,5.289a6.84,6.84,0,0,1-.943,3.948c-.514,1.025-.728,1.512-.392,2.31.624,1.484,1.487,4.351.256,6.868-.874,1.788-2.608,3.041-5.153,3.726A.974.974,0,0,1,100.015,109.432Z"/><path d="M66.714,50H61.286a1,1,0,0,1,0-2h5.428a1,1,0,0,1,0,2Z"/><path d="M40.48,109.883a47.79,47.79,0,0,0,4.47,13.9c-1.24-.23-2.41-.49-3.51-.75a48.569,48.569,0,0,1-11.47-4.04c-3.7-2.04-6.09-4.27-3.5-8.39.39-.61.89-1.34,1.52-2.16a47.64,47.64,0,0,1,14.46-12.16,16.57,16.57,0,0,0-2.03,5.71,1.31,1.31,0,0,0,.4,1.26c.16.15.51.47,1.69.47.21,0,.44-.01.7-.03C41.2,105.863,40.29,108.213,40.48,109.883Z"/><path d="M53.39,124.973V125c-2.66-.26-5.12-.61-7.36-1.02l.04-.21a46.636,46.636,0,0,1-4.59-14.01c-.21-1.78,1.23-5.24,5.45-7.85,0,0-5.8,1.64-5.53.27a15.236,15.236,0,0,1,2.92-6.89c.27-.37.57-.74.9-1.12a24.426,24.426,0,0,1,8.72-5.75,44.056,44.056,0,0,0-1.96,11C51.14,111.613,53.39,124.973,53.39,124.973Z"/><path d="M87.52,109.883a47.79,47.79,0,0,1-4.47,13.9c1.24-.23,2.41-.49,3.51-.75a48.569,48.569,0,0,0,11.47-4.04c3.7-2.04,6.09-4.27,3.5-8.39-.39-.61-.89-1.34-1.52-2.16a47.64,47.64,0,0,0-14.46-12.16,16.57,16.57,0,0,1,2.03,5.71,1.31,1.31,0,0,1-.4,1.26c-.16.15-.51.47-1.69.47-.21,0-.44-.01-.7-.03C86.8,105.863,87.71,108.213,87.52,109.883Z"/><path d="M74.61,124.973V125c2.66-.26,5.12-.61,7.36-1.02l-.04-.21a46.636,46.636,0,0,0,4.59-14.01c.21-1.78-1.23-5.24-5.45-7.85,0,0,5.8,1.64,5.53.27a15.236,15.236,0,0,0-2.92-6.89c-.27-.37-.57-.74-.9-1.12a24.426,24.426,0,0,0-8.72-5.75,44.056,44.056,0,0,1,1.96,11C76.86,111.613,74.61,124.973,74.61,124.973Z"/><path d="M55.391,100.659q-.395,0-.8-.041a1,1,0,1,1,.2-1.99,5.11,5.11,0,0,0,3.755-1.059,13.758,13.758,0,0,0,1.8-1.679c.2-.213.4-.419.593-.614A4.439,4.439,0,0,1,64,93.7c1.552,0,2.638,1.131,3.687,2.224a14.308,14.308,0,0,0,1.767,1.642A5.061,5.061,0,0,0,73.2,98.628a1,1,0,1,1,.2,1.99,7.1,7.1,0,0,1-5.133-1.441,15.93,15.93,0,0,1-2.021-1.864c-.958-1-1.579-1.61-2.245-1.61-.452,0-.915.28-1.652,1-.174.174-.359.369-.549.569a15.512,15.512,0,0,1-2.07,1.912A7.1,7.1,0,0,1,55.391,100.659Z"/><path d="M78.963,122.463A103.967,103.967,0,0,1,64,123.5a106.6,106.6,0,0,1-12.743-.737c.311.686.579,1.395.846,2.1A108.74,108.74,0,0,0,64,125.5h0a106.7,106.7,0,0,0,14.317-.927A16.209,16.209,0,0,0,78.963,122.463Z"/><path d="M57.26,81.323c-.01.68-.06,1.41-.14,2.16a15.531,15.531,0,0,1-1.79,6.24,1,1,0,0,1-.83.45,1.016,1.016,0,0,1-.55-.17,1,1,0,0,1-.28-1.39c.78-1.17,1.35-3.82,1.53-6.13.05-.53.07-1.05.07-1.52a1,1,0,0,1,.21-.61C56.07,80.693,56.67,81.013,57.26,81.323Z"/><path d="M74.05,90a1,1,0,0,1-1.39-.28,15.378,15.378,0,0,1-1.78-6.24,20.847,20.847,0,0,1-.15-2.16c.59-.3,1.19-.62,1.79-.96a.984.984,0,0,1,.2.6c0,.47.02.99.07,1.52v.01c.19,2.31.76,4.95,1.54,6.12A1.01,1.01,0,0,1,74.05,90Z"/><path d="M64,92.583c-4.595,0-7.419-.728-10.073-2.595a1,1,0,1,1,1.15-1.636c2.312,1.626,4.731,2.231,8.923,2.231s6.611-.605,8.923-2.231a1,1,0,1,1,1.15,1.636C71.417,91.855,68.593,92.583,64,92.583Z"/></svg>