<svg id="Solid" xmlns="http://www.w3.org/2000/svg" viewBox="0 0 128 128"><title>avatar-03_3</title><rect x="73.33" y="46.825" width="4.784" height="6.756" rx="2.392" ry="2.392"/><rect x="49.886" y="46.825" width="4.784" height="6.756" rx="2.392" ry="2.392" transform="translate(104.556 100.405) rotate(-180)"/><path d="M64,58.289c-.025,0-2.57-.043-2.57-1.56a1,1,0,0,1,1.811-.585,2.063,2.063,0,0,0,1.517,0,1,1,0,0,1,1.812.584C66.57,58.246,64.025,58.289,64,58.289Z"/><path d="M63.99,65.859c-1.558,0-4.342-.184-5.475-1.412a1,1,0,0,1,1.47-1.356c.245.265,1.4.768,4.005.768,2.434,0,3.74-.46,4.025-.768a1,1,0,1,1,1.47,1.356C68.352,65.675,65.556,65.859,63.99,65.859Z"/><path d="M79.98,48.779a.991.991,0,0,1-.724-.312,4.5,4.5,0,0,0-5.966-.189,1,1,0,0,1-1.279-1.538,6.465,6.465,0,0,1,8.694.35,1,1,0,0,1-.725,1.689Z"/><path d="M70.41,44.419a1,1,0,0,1-.329-1.945c4.438-1.546,10.556-1.212,12.665.1a1,1,0,1,1-1.053,1.7c-1.321-.817-6.612-1.418-10.954.094A.994.994,0,0,1,70.41,44.419Z"/><path d="M48.02,48.779A1,1,0,0,1,47.3,47.09a6.465,6.465,0,0,1,8.694-.35,1,1,0,0,1-1.279,1.538,4.493,4.493,0,0,0-5.966.189A.993.993,0,0,1,48.02,48.779Z"/><path d="M57.59,44.419a.994.994,0,0,1-.329-.056c-4.341-1.512-9.633-.911-10.954-.094a1,1,0,1,1-1.053-1.7c2.109-1.3,8.225-1.641,12.665-.1a1,1,0,0,1-.329,1.945Z"/><path d="M109.57,45.749c-.4-.21-.86-.46-1.38-.74-1.22-.66-2.74-1.48-4.62-2.37-.88-11.87-3.99-20.31-10.07-27.28A36.424,36.424,0,0,0,72.98,3.6h-.02a26.421,26.421,0,0,0-17.93,0h-.01A36.424,36.424,0,0,0,34.5,15.359c-6.08,6.97-9.19,15.41-10.07,27.28-1.88.89-3.4,1.71-4.62,2.37-.52.28-.98.53-1.38.74-1.79.94-2.15,2.47-1.71,3.58.51,1.27,2.17,2.24,4.36,1.62.59-.17,1.2-.36,1.83-.56.51,8.23,8.77,17.94,18.93,18.77a27.714,27.714,0,0,0,10.53,10.83,5.212,5.212,0,0,1-.21,1.03c-.79-.32-1.67-.69-2.53-1.09a3.5,3.5,0,0,0-4.36,1.19,26.123,26.123,0,0,0-3.19,7.46,4.677,4.677,0,0,1-2.64,3.04,48.954,48.954,0,0,0-16.41,11.77,25.758,25.758,0,0,0-2.42,3.15,6.792,6.792,0,0,0-1.13,5.23c.48,2.03,2.12,3.86,5,5.61,3.21,1.93,17.53,7.47,34.47,8.44.68.04,1.36.07,2.05.09.24.02.49.02.74.03a1.333,1.333,0,0,0,.2,0c.69.02,1.37.03,2.06.03,19.05,0,35.86-6.39,39.52-8.59,2.88-1.75,4.52-3.58,5-5.61a6.792,6.792,0,0,0-1.13-5.23,27.4,27.4,0,0,0-3.03-3.82c-.01,0-.01-.01-.02-.01a48.867,48.867,0,0,0-15.77-11.08,4.663,4.663,0,0,1-2.64-3.05,26.5,26.5,0,0,0-3.19-7.45,3.5,3.5,0,0,0-4.36-1.2c-.76.34-1.58.7-2.54,1.11a5.577,5.577,0,0,1-.21-1.05,27.714,27.714,0,0,0,10.53-10.83c10.16-.83,18.42-10.54,18.93-18.77.63.2,1.25.39,1.84.56a4.839,4.839,0,0,0,1.32.19,3.145,3.145,0,0,0,3.03-1.81C111.72,48.219,111.36,46.689,109.57,45.749ZM92,16.679c5.58,6.4,8.54,14.17,9.49,25.01-1.5-.65-2.99-1.23-4.51-1.77a45.631,45.631,0,0,0-1.2-10,37.868,37.868,0,0,0-10.39-18.61c-.56-.53-1.13-1.05-1.71-1.54A34.622,34.622,0,0,1,92,16.679Zm-9.46-.45c.46-.6,1.68-2.13,2.16-2.74a35.6,35.6,0,0,1,8.66,15.16c-4.43-1.89-8.23-6.04-10.8-9.15A2.564,2.564,0,0,1,82.54,16.229ZM64,13.629a7.755,7.755,0,1,1-7.76,7.76A7.755,7.755,0,0,1,64,13.629ZM45.44,19.5c-2.57,3.11-6.37,7.26-10.8,9.15a35.6,35.6,0,0,1,8.66-15.16c.49.61,1.7,2.15,2.17,2.74A2.577,2.577,0,0,1,45.44,19.5ZM36,16.679a34.622,34.622,0,0,1,8.32-6.91c-.58.49-1.15,1-1.7,1.54a37.806,37.806,0,0,0-10.4,18.61,45.631,45.631,0,0,0-1.2,10c-1.52.54-3.01,1.12-4.51,1.77C27.46,30.849,30.42,23.079,36,16.679ZM24.9,49.719c.93-.33,1.88-.67,2.89-1.03.22-.08.47-.17.7-.25a11.336,11.336,0,0,0,.29,5.55,10.773,10.773,0,0,0,5.14,6.45,7.8,7.8,0,0,0,3.62.93,6.72,6.72,0,0,0,1.26-.12,34,34,0,0,0,1.98,5.76C32.06,65.569,24.99,56.759,24.9,49.719Zm8.32.76a1.006,1.006,0,0,0,1.24.68,3.034,3.034,0,0,1,3.12,1.01,46.371,46.371,0,0,0,.71,6.79c.02.12.04.22.06.34a5.678,5.678,0,0,1-3.49-.63,8.7,8.7,0,0,1-4.16-5.22,8.169,8.169,0,0,1,.19-5.87c1.89-.67,4.08-1.41,6.45-2.12.06,1.55.11,2.89.15,4.09a5.257,5.257,0,0,0-3.6-.31A1.009,1.009,0,0,0,33.22,50.479Zm28.68,53.88c-.89,4.15-2.13,11.38-1.69,17.11.03.22.05.43.07.64a18.1,18.1,0,0,0,.29,1.79h-.03c-.68-.03-1.36-.06-2.03-.11-16.32-1.02-29.93-6.28-32.99-8.13-2.4-1.45-3.74-2.87-4.09-4.35a4.805,4.805,0,0,1,.88-3.71,22.033,22.033,0,0,1,1.58-2.14c10.73,9.07,27.6,11.64,34.31,12.32a77.7,77.7,0,0,1,1.75-13.84,17.487,17.487,0,0,0-.19-8.14c-.59-2.22-.57-5.78.5-7.68A14.221,14.221,0,0,1,62.5,85.3a51.111,51.111,0,0,0-6.97-2.99c-.49-.18-.99-.38-1.49-.57.07-.24.13-.49.19-.77.59.28,1.17.53,1.74.74a23.358,23.358,0,0,0,8.03,1.7,23.462,23.462,0,0,0,8.02-1.69q.87-.33,1.74-.75c.07.3.15.58.22.84l-.91.38c-3.46,1.43-6.861,2.643-8.88,4.19A10.887,10.887,0,0,0,62,89.109c-.75,1.32-.78,4.41-.3,6.18A19.437,19.437,0,0,1,61.9,104.359Zm41.61.42a21.239,21.239,0,0,1,2.18,2.82,4.805,4.805,0,0,1,.88,3.71c-.35,1.48-1.69,2.9-4.09,4.35-3.53,2.13-19.85,8.31-38.48,8.31-.46,0-.91,0-1.37-.01a23.929,23.929,0,0,1-.53-6.01C67.16,117.519,91.18,115.009,103.51,104.779ZM84.66,67.739a25.663,25.663,0,0,1-10.54,10.82,22.7,22.7,0,0,1-2.81,1.29A21.377,21.377,0,0,1,64,81.409a21.276,21.276,0,0,1-7.32-1.57,22.486,22.486,0,0,1-2.81-1.28,25.7,25.7,0,0,1-10.53-10.82,31.91,31.91,0,0,1-2.84-7.91c-.09-.4-.17-.81-.25-1.23a47.306,47.306,0,0,1-.69-6.83l-.05-1.61c-.05-1.48-.11-3.2-.2-5.28a89.822,89.822,0,0,1,49.38,0c-.09,2.07-.15,3.79-.2,5.27l-.05,1.61a47.016,47.016,0,0,1-.69,6.84c-.08.42-.16.83-.25,1.22A31.84,31.84,0,0,1,84.66,67.739Zm2.56-.73a34,34,0,0,0,1.98-5.76,6.72,6.72,0,0,0,1.26.12,7.8,7.8,0,0,0,3.62-.93,10.773,10.773,0,0,0,5.14-6.45,11.336,11.336,0,0,0,.29-5.55c.23.08.48.17.7.25,1.01.36,1.96.7,2.89,1.03C103.01,56.759,95.94,65.569,87.22,67.009Zm6.89-17.77a5.259,5.259,0,0,0-3.6.31c.04-1.19.09-2.53.15-4.09,2.37.71,4.56,1.45,6.45,2.12a8.169,8.169,0,0,1,.19,5.87,8.7,8.7,0,0,1-4.16,5.22,5.678,5.678,0,0,1-3.49.63c.02-.12.04-.22.06-.34a45.937,45.937,0,0,0,.71-6.8,3.031,3.031,0,0,1,3.12-1,1,1,0,0,0,.57-1.92Zm15.31-.65c-.14.34-.79.77-1.94.44-.96-.28-1.97-.6-3.02-.96-1.13-.38-2.32-.81-3.57-1.26-.88-.32-1.79-.65-2.74-.98-2.32-.82-5.1-1.78-8.15-2.66a92.008,92.008,0,0,0-52,0c-3.05.88-5.83,1.84-8.15,2.66-.95.33-1.86.66-2.74.98-1.25.45-2.44.88-3.56,1.26-1.06.36-2.07.68-3.02.96-1.16.32-1.81-.1-1.95-.44s.16-.75.77-1.06c.41-.22.88-.47,1.41-.76,1.32-.72,2.96-1.61,5.04-2.57a64.456,64.456,0,0,1,6.53-2.62c9.04-3.11,19.69-4.69,31.67-4.69s22.63,1.58,31.68,4.69a65.241,65.241,0,0,1,6.52,2.62c2.08.96,3.72,1.85,5.04,2.57.53.29,1,.54,1.41.76C109.26,47.839,109.55,48.249,109.42,48.589Z"/></svg>