<svg id="Solid" xmlns="http://www.w3.org/2000/svg" viewBox="0 0 128 128"><title>avatar-02_5</title><path d="M71.642,42.84a4.469,4.469,0,0,1,2.551-1.585,7.928,7.928,0,0,1,2.693-.188A6.784,6.784,0,0,1,79.5,41.9,2.827,2.827,0,0,1,81.2,44.1a.653.653,0,0,1-.876.627l-.126-.047a16.125,16.125,0,0,1-1.674-.962,5.415,5.415,0,0,0-1.852-.476,6.069,6.069,0,0,0-1.961.118,3.364,3.364,0,0,0-1.468.659l-.142.132a.984.984,0,0,1-1.457-1.312Z"/><rect x="73.174" y="42.994" width="4.565" height="5.674" rx="2.2" ry="2.2"/><path d="M82.575,40.33a14.407,14.407,0,0,0-3.018-1.268,7.038,7.038,0,0,0-1.528-.267,15.354,15.354,0,0,0-1.626.064,19.306,19.306,0,0,0-3.273.551,13.454,13.454,0,0,0-2.981,1.141l-.061.034a1,1,0,0,1-.98-1.744l.033-.018a15,15,0,0,1,3.545-1.236,21.075,21.075,0,0,1,3.6-.477,16.529,16.529,0,0,1,1.851,0,8.665,8.665,0,0,1,1.883.394,15.872,15.872,0,0,1,3.334,1.543.753.753,0,0,1-.753,1.3Z"/><path d="M54.758,44.02a3.353,3.353,0,0,0-1.467-.659,6.069,6.069,0,0,0-1.961-.118,5.415,5.415,0,0,0-1.852.476,16.125,16.125,0,0,1-1.674.962l-.123.046A.652.652,0,0,1,46.8,44.1,2.827,2.827,0,0,1,48.5,41.9a6.784,6.784,0,0,1,2.615-.828,7.928,7.928,0,0,1,2.693.188,4.469,4.469,0,0,1,2.551,1.585A.985.985,0,0,1,54.9,44.153Z"/><rect x="50.261" y="42.994" width="4.565" height="5.674" rx="2.2" ry="2.2" transform="translate(105.087 91.662) rotate(180)"/><path d="M59.29,40.171a.994.994,0,0,1-1.34.43c-.01,0-.02-.009-.03-.009l-.07-.041a13.524,13.524,0,0,0-2.98-1.14,19.025,19.025,0,0,0-3.27-.55,15.853,15.853,0,0,0-1.63-.07,7.818,7.818,0,0,0-1.53.27,13.816,13.816,0,0,0-1.66.6c.1-.629.21-1.25.34-1.85.28-.109.57-.21.86-.31a8.04,8.04,0,0,1,1.88-.39,16.533,16.533,0,0,1,1.85,0,20.8,20.8,0,0,1,3.6.481,14.844,14.844,0,0,1,3.55,1.229A1.006,1.006,0,0,1,59.29,40.171Z"/><path d="M63.99,56.191c-.029,0-2.89-.072-2.89-1.679a1,1,0,0,1,1.849-.53,3.559,3.559,0,0,0,1.041.209,3.636,3.636,0,0,0,1.062-.21,1,1,0,0,1,1.848.531C66.9,56.119,64.02,56.191,63.99,56.191Z"/><path d="M63.96,65.951A6.549,6.549,0,0,1,57.638,61.7a1.918,1.918,0,0,1,.285-1.734,2.276,2.276,0,0,1,1.847-.912h8.37a2.289,2.289,0,0,1,1.844.9,1.935,1.935,0,0,1,.3,1.733A6.573,6.573,0,0,1,63.96,65.951Zm-4.19-4.9a.286.286,0,0,0-.232.092,4.862,4.862,0,0,0,8.841-.063c-.013.038-.094-.029-.239-.029Z"/><path d="M38.278,100.552a20.536,20.536,0,0,1,3.7-8.784c-6.759,4.525-11.378,9.506-12.8,11.685a6.711,6.711,0,0,0-1.195,4.065c.308,2.3,2.806,4.045,5.047,5.28a59.516,59.516,0,0,0,8.781,3.073C40.291,112.509,37.579,105.629,38.278,100.552Z"/><path d="M88.43,101.036a22.039,22.039,0,0,0-5.076-10.874c-1.229-.816-5.649-2.992-6.395-3.358a11.2,11.2,0,0,1-4.432-4.336C82.43,85,89.1,80.8,90.887,77.215c3.057-6.179,5.313-14.955,6.188-24.073.207-2.041.333-4.059.375-6,.221-10.069-3.057-36.706-20.59-39.684C71.63,3,63.836,1.494,55.94,3.45A32.848,32.848,0,0,0,33.3,23.867C27.742,38.51,27.7,70.247,39.026,84.085c.935,1.141,3.089,1.528,5.429,1.528A28.924,28.924,0,0,0,51.813,84.6a2.96,2.96,0,0,0,2.136-1.69c.43-.113,1.072-.249,1.465-.326a11.261,11.261,0,0,1-4.373,4.22c-.747.366-5.166,2.542-6.395,3.358a22.047,22.047,0,0,0-5.076,10.874c-.806,5.856,3.69,15.093,3.69,15.093,1.131.272,2.317.508,3.577.726.025.007.044.024.07.029A93.711,93.711,0,0,0,64,118.379a93.962,93.962,0,0,0,16.856-1.452c.029-.006.051-.024.079-.032,1.346-.229,2.607-.477,3.807-.766C84.74,116.129,89.236,106.892,88.43,101.036Zm.665-24.71c-1.341,2.7-7.345,7.087-17.414,3.821a14.944,14.944,0,0,1-.537-2.632q-.031-.333-.052-.682a33.931,33.931,0,0,0,7.33-4.03c3.179-2.458,5.158-5.763,6.543-10.891.322.027.638.044.945.044a9.7,9.7,0,0,0,8.764-5.49A67.037,67.037,0,0,1,89.1,76.326ZM69.54,75.3A17.43,17.43,0,0,1,64,76.651,17.443,17.443,0,0,1,58.453,75.3,35.774,35.774,0,0,1,50.722,71.5c-3.436-11.626-4.459-22.573-2.955-31.679v-.006c.1-.611.2-1.213.332-1.8C49.831,29.64,53.667,23.562,58.9,20.9a13.46,13.46,0,0,1,12.022.029,1.007,1.007,0,0,0,.581.076c1.652-.283,3.4.389,5.195,1.991,5.013,4.475,9.037,15.272,8.611,23.082a92.869,92.869,0,0,1-2.054,14.49c-1.276,5.167-3.089,8.352-6.048,10.64A32.873,32.873,0,0,1,69.54,75.3ZM90.1,50.516a6.426,6.426,0,0,0-3.273.742c.153-1.383.3-2.86.426-4.442A5.723,5.723,0,0,1,91.1,47.2a4.03,4.03,0,0,1,1.515,1.208,6.474,6.474,0,0,1,.991,4.4,8.767,8.767,0,0,1-.513,2.285,7.7,7.7,0,0,1-7.633,4.845c.382-1.706.718-3.613,1.014-5.772a4.186,4.186,0,0,1,3.464-1.662,1,1,0,1,0,.168-1.992ZM51.243,82.683c-3.883,1.165-9.766,1.24-10.669.134-10.9-13.318-10.8-44.034-5.409-58.241A30.847,30.847,0,0,1,56.421,5.392c7.369-1.831,14.6-.421,19.337,3.759a1.009,1.009,0,0,0,.51.239C92.63,11.905,95.663,37.464,95.45,47.1c-.018.835-.058,1.69-.108,2.551a7.142,7.142,0,0,0-1.121-2.427,5.85,5.85,0,0,0-1.639-1.483,40.946,40.946,0,0,0-1.609-14.563,1,1,0,1,0-1.906.607,39.259,39.259,0,0,1,1.557,13.137,7.759,7.759,0,0,0-3.286-.176c-.056-8.287-4.125-18.616-9.3-23.239-2.136-1.907-4.395-2.773-6.549-2.516A15.335,15.335,0,0,0,58,19.12c-5.79,2.94-10,9.507-11.855,18.48-.134.616-.248,1.253-.351,1.9C44.227,48.988,45.3,60.362,48.9,72.4h0c.868,2.912,1.883,5.865,3.016,8.776a2.147,2.147,0,0,1,.194.883C52.106,82.158,52.093,82.433,51.243,82.683Zm2.68-1.828c-.047-.149-.095-.288-.141-.407-.778-2-1.474-4.01-2.128-6.017a44.584,44.584,0,0,0,5.253,2.408c-.026.438-.067.854-.118,1.255a13.946,13.946,0,0,1-.569,2.344A21.015,21.015,0,0,0,53.923,80.855Zm23.434,34.6a97.049,97.049,0,0,1-26.713,0,56.543,56.543,0,0,1-.118-26.1c.209-.109.416-.206.625-.318a38.452,38.452,0,0,0,5.99,2.641,1.021,1.021,0,0,0,.315.05,1,1,0,0,0,.315-1.949,36,36,0,0,1-4.616-1.949c2.843-1.944,5.233-4.82,5.7-10.289A17.479,17.479,0,0,0,64,78.651a16.925,16.925,0,0,0,5.109-1.07c.043.371.1.728.158,1.075a12.465,12.465,0,0,0,5.578,9.173A36.254,36.254,0,0,1,70.2,89.792a1,1,0,1,0,.63,1.9,39.284,39.284,0,0,0,6.022-2.654c.209.113.416.209.625.318A56.535,56.535,0,0,1,77.357,115.454Z"/><path d="M98.821,103.453c-1.423-2.179-6.042-7.16-12.8-11.685a20.536,20.536,0,0,1,3.7,8.784c.7,5.077-2.013,11.957-3.535,15.319a59.5,59.5,0,0,0,8.782-3.073c2.241-1.235,4.739-2.979,5.047-5.28A6.711,6.711,0,0,0,98.821,103.453Z"/><path d="M63.98,99.092c3.02,0,5.27-.81,6.57-2.31l-2.12,24.529a4.46,4.46,0,0,1-8.89,0l-2.12-24.52C58.73,98.282,60.97,99.092,63.98,99.092Z"/><path d="M57.17,93.9c.46,3.079,3.33,4.19,6.81,4.19s6.35-1.111,6.82-4.19a4.717,4.717,0,0,0,.08-.94,6.9,6.9,0,1,0-13.79,0A4.717,4.717,0,0,0,57.17,93.9Z"/></svg>