<svg id="Solid" xmlns="http://www.w3.org/2000/svg" viewBox="0 0 128 128"><title>bank, building, construction, business, finance, money, company</title><path d="M76.687,15.466c-.794-.248-2.518-.482-5.195.717C67.664,17.9,64,13.6,64,13.6v7.712s3.664,4.3,7.492,2.584a7.9,7.9,0,0,1,4.815-.815.745.745,0,0,0,.891-.737V16.179A.741.741,0,0,0,76.687,15.466Z"/><path d="M126,124.611h-3.126a3.2,3.2,0,0,0,.1-.75v-6.74a3.252,3.252,0,0,0-2.64-3.19l-1.09-38.67h.48a3.25,3.25,0,0,0,3.25-3.25v-6.74a3.25,3.25,0,0,0-3.25-3.25h-6.59a2.346,2.346,0,0,0-1.09-1.93L66.57,30.621a4.533,4.533,0,0,0-1.32-.58V12.6a1.25,1.25,0,1,0-2.5,0V30.044a4.606,4.606,0,0,0-1.32.577L15.96,60.091a2.346,2.346,0,0,0-1.09,1.93H8.28a3.25,3.25,0,0,0-3.25,3.25v6.74a3.25,3.25,0,0,0,3.25,3.25h.48l-1.09,38.67a3.252,3.252,0,0,0-2.64,3.19v6.74a3.2,3.2,0,0,0,.1.75H2a1.25,1.25,0,0,0,0,2.5H126a1.25,1.25,0,0,0,0-2.5Zm-24.97-7.089v2.5H26.97v-2.5ZM35.495,94.763V107.3H31.62a1.745,1.745,0,0,1-1.745-1.745v-10.8Zm-5.62-2.5V86.592a6.868,6.868,0,0,1,5.62-6.751V92.263Zm13.74,2.5v10.8A1.745,1.745,0,0,1,41.87,107.3H37.995V94.763Zm-5.62-2.5V79.841a6.867,6.867,0,0,1,5.62,6.751v5.671ZM51,115.022v-18.2a13.1,13.1,0,0,1,13.1-13.1h0a13.1,13.1,0,0,1,13.1,13.1v18.2Zm39-20.259V107.3H86.13a1.745,1.745,0,0,1-1.745-1.745v-10.8Zm-5.62-2.5V86.592a6.867,6.867,0,0,1,5.62-6.751V92.263Zm13.74,2.5v10.8A1.745,1.745,0,0,1,96.38,107.3H92.505V94.763Zm-5.62-2.5V79.841a6.868,6.868,0,0,1,5.62,6.751v5.671Zm23-17h1.24l1.09,38.61H115.5Zm-4.5,0h2v38.61h-2Zm-3.74,0h1.24v38.61h-2.33ZM43.688,54.132,62.25,40.8a3,3,0,0,1,3.5,0l18.562,13.33a1,1,0,0,1-.583,1.812H44.271A1,1,0,0,1,43.688,54.132Zm57.438,10.389a3.2,3.2,0,0,0-.1.75v1.75H26.97v-1.75a3.2,3.2,0,0,0-.1-.75ZM19.5,75.261h1.24l1.09,38.61H19.5Zm-4.5,0h2v38.61H15Zm-3.74,0H12.5v38.61H10.17Z"/></svg>