<svg id="Solid" xmlns="http://www.w3.org/2000/svg" viewBox="0 0 128 128"><title>blood, healthcare, medical, hospital, donation, drop, transfusion</title><path d="M93.9,83.126a9.853,9.853,0,0,1-3.72-.38.9.9,0,0,0-.325-.058,1.345,1.345,0,0,0-.971.452,1.467,1.467,0,0,0-.031,1.764,8.943,8.943,0,0,0,4.632,3.339,3.354,3.354,0,0,0,2.639-.124,3.852,3.852,0,0,0,1.667-2.507,2.643,2.643,0,0,0-.514-1.93C96.654,83.065,95.251,83.1,93.9,83.126Z"/><path d="M87.356,104.8a1.663,1.663,0,0,0-.575.1,2.384,2.384,0,0,0-1.237,2.851,3.02,3.02,0,0,0,2.542,1.655,1.5,1.5,0,0,0,.515-.085c1.019-.376,1.358-2,.983-3.024A2.517,2.517,0,0,0,87.356,104.8Z"/><path d="M23.137,49.717c0-1.325-1.722-2.4-3.047-2.4a2.946,2.946,0,0,0-2.781,2.618,2.909,2.909,0,0,0,2.742,2.619C21.377,52.555,23.137,51.042,23.137,49.717Z"/><path d="M37.138,32.126A2.642,2.642,0,0,0,39.39,33.3a2.88,2.88,0,0,0,2.825-2.721c.417-2.587-1.6-9.262-5.682-9.8a3.509,3.509,0,0,0-.454-.027,5.7,5.7,0,0,0-4.091,1.671C28,27.478,35.144,28.887,37.138,32.126Z"/><path d="M69.255,11.193a3.018,3.018,0,0,0,2.676-2.461c0-1.15-1.494-2.082-2.643-2.082a2.556,2.556,0,0,0-2.412,2.272A2.523,2.523,0,0,0,69.255,11.193Z"/><path d="M57.984,70.518A79.105,79.105,0,0,1,48.44,58.557c-2.28-3.308-4.638-6.728-5.871-6.491h0c-1.705.328-2.037,1.739-2.626,4.9-.643,3.453-1.524,8.183-5.761,12.967C30.222,74.4,21.983,83.7,20.5,91.408c-.847,4.391-.849,13.719,4.511,20.832,3.859,5.119,9.774,8.067,17.579,8.761a41.3,41.3,0,0,0,7.626-.468c7.875-1.268,13.686-4.51,17.272-9.637,4.262-6.092,4.662-14.062,3.617-19.488C69.7,84.112,63.4,75.833,57.984,70.518ZM31.439,87.153a1.928,1.928,0,0,1-1.316.537c-1.283,0-2.374-1.38-.861-3.471,1.081-1.494,1.9-2.027,2.521-2.027a1.233,1.233,0,0,1,.941.492C33.438,83.517,32.694,85.98,31.439,87.153Z"/><path d="M105.711,18.607a3.477,3.477,0,0,0-3.28,3.089,3.431,3.431,0,0,0,3.235,3.088c1.563,0,3.639-1.783,3.639-3.346S107.274,18.607,105.711,18.607Z"/><path d="M88.622,31.892A23.108,23.108,0,0,1,82.938,23c-.982-2.4-1.508-3.56-2.741-3.7h0a1.546,1.546,0,0,0-.179-.01c-1.44,0-2.459,1.976-4.089,5.38a40.962,40.962,0,0,1-5.408,9.021C66.975,37.9,63.006,44.3,62.5,49.642c-.379,3.962.452,9.646,3.92,13.715,2.914,3.421,7.3,5.342,13.037,5.712a30.255,30.255,0,0,0,5.51-.185c5.548-1.032,9.581-3.545,11.989-7.467,3.354-5.462,2.712-12.15,1.8-15.241C96.943,40,90.541,33.681,88.622,31.892Zm.645,7.516c-.408,0-.875-.286-1.239-1.026-.774-1.574-.441-2.1.156-2.237a.532.532,0,0,1,.12-.013c.642,0,1.612,1,1.862,1.923A1.024,1.024,0,0,1,89.267,39.408Z"/></svg>