<svg id="Solid" xmlns="http://www.w3.org/2000/svg" viewBox="0 0 128 128"><title>brain, chemical, mental, healthcare, thinking, psychotherapy, treatment</title><path d="M103.067,24.407l.541.082a3.275,3.275,0,0,0,.481.036,3.189,3.189,0,0,0,3.144-2.706l.332-2.181a3.179,3.179,0,0,0-2.67-3.625l-.541-.082a.682.682,0,0,1-.569-.79l.082-.542a3.2,3.2,0,0,0-2.684-3.627L99,10.641a3.184,3.184,0,0,0-3.625,2.669l-.082.542a.7.7,0,0,1-.679.593.659.659,0,0,1-.1-.007l-.542-.082a3.177,3.177,0,0,0-3.625,2.669l-.331,2.181a3.179,3.179,0,0,0,2.67,3.625l.541.082a.692.692,0,0,1,.569.79l-.082.542a3.2,3.2,0,0,0,2.669,3.625l2.181.331a3.153,3.153,0,0,0,.481.036,3.2,3.2,0,0,0,3.159-2.7l.084-.556a.68.68,0,0,1,.671-.579A.635.635,0,0,1,103.067,24.407Z"/><path d="M112.462,43.792h-.42a.515.515,0,0,1-.515-.515V42.87a2.391,2.391,0,0,0-2.387-2.387H107.5a2.39,2.39,0,0,0-2.386,2.387v.407a.516.516,0,0,1-.515.515h-.407a2.39,2.39,0,0,0-2.387,2.386v1.641a2.391,2.391,0,0,0,2.387,2.387h.407a.515.515,0,0,1,.515.515v.407a2.39,2.39,0,0,0,2.386,2.386h1.641a2.39,2.39,0,0,0,2.387-2.386v-.407a.514.514,0,0,1,.515-.515h.42a2.379,2.379,0,0,0,2.373-2.387V46.178A2.378,2.378,0,0,0,112.462,43.792Z"/><path d="M78.95,97.213c-1.01-4.976,2.157-11.4,5.457-15.749C93.4,69.6,94.569,60.21,93.559,48.008c-1.154-14.026-9.488-24.358-22.58-28.9-.12-.047-.946-.318-1.251-.39A48.355,48.355,0,0,0,57.76,16.629c-12.844-.667-24.8,3.284-32,10.563a26.2,26.2,0,0,0-7.436,20.67c.067,1.03.255,2.2.454,3.45a31.046,31.046,0,0,1,.523,4.723c-.014,5.8-2.72,9.458-4.51,11.878a7.357,7.357,0,0,0-1.609,2.776c-.083,1.6.6,2.12,1.847,3.064a9.513,9.513,0,0,1,4.111,6.159,8.97,8.97,0,0,0,3.63-1.222A1,1,0,0,1,23.9,80.341a10.8,10.8,0,0,1-4.458,1.551,39.573,39.573,0,0,1,.1,4.693c-.063,3.078-.117,5.735,1.525,7.442,1.547,1.608,4.64,2.433,9.457,2.521a37,37,0,0,0,4.8-.36c3.213-.378,5.988-.706,7.611.549,3.308,2.561,5.463,10.529,6.89,15.8.423,1.563.9,3.316,1.154,3.879,5.286,2.182,31.813.935,33.949-2.52.168-.585-1-3.206-1.931-5.312A56,56,0,0,1,78.95,97.213ZM24.82,58.972a7.334,7.334,0,0,1-3.595,1.457,1.934,1.934,0,0,1-1.4-.525,1,1,0,0,1,1.346-1.478,5.635,5.635,0,0,0,2.508-1.1,1,1,0,0,1,1.139,1.644ZM60.934,71.381a12.778,12.778,0,0,1-7.451,7.964,7.76,7.76,0,0,1-2.532.442,6.744,6.744,0,0,1-3.91-1.253,1,1,0,1,1,1.143-1.64,4.933,4.933,0,0,0,4.648.559,10.808,10.808,0,0,0,6.19-6.662c1.217-3.941.239-8.843-3.969-10.161-2.521-.8-6.39.351-8.607,4.054a1,1,0,0,1-1.717-1.028c2.775-4.633,7.617-6.045,10.924-4.933a9,9,0,0,1,4.7,3.923A11.75,11.75,0,0,1,60.934,71.381ZM55.3,66.763a1,1,0,0,1-1.686,1.078,2.965,2.965,0,0,0-1.744-1.18,1.438,1.438,0,0,0-.815.046,5.419,5.419,0,0,0-1.486,1.718,1,1,0,0,1-.829.439.986.986,0,0,1-.559-.172,1,1,0,0,1-.268-1.388,13.085,13.085,0,0,1,1.812-2.16,7.347,7.347,0,0,1,1.74-1.135,5.8,5.8,0,0,1,4.492-.42,1,1,0,0,1-.73,1.861,3.355,3.355,0,0,0-1.388-.1A5.4,5.4,0,0,1,55.3,66.763Zm15.8-9.58a6.794,6.794,0,0,1-1.426-1.877,1,1,0,1,0-1.75.968,9.906,9.906,0,0,0,1.292,1.846,2.839,2.839,0,0,1-2.135.988c-.683-.082-.892-.3-1.323-.278a.915.915,0,0,0-.686.314,1.011,1.011,0,0,0,.044,1.192c2.394,3.567,2.916,5.811,2.607,6.719a.753.753,0,0,1-.531.506c-.256.089-1.043.354-2.343-3.012a7.678,7.678,0,0,0-2.471-2.8,11.94,11.94,0,0,1-3.066-3.358,3.782,3.782,0,0,0,1.441-.567,1,1,0,1,0-1.186-1.609,4.221,4.221,0,0,1-1.766.359,9.89,9.89,0,0,1-4.68-.831,10.427,10.427,0,0,0,1.322-2.186,1,1,0,1,0-1.845-.77,12.421,12.421,0,0,1-1.842,2.728c-.944,1.151-4.218,2.231-7.195,1.943-1.487-.144-3.452-.677-4.368-2.4a5.092,5.092,0,0,1-.574-3.715,5.759,5.759,0,0,1,2.929-3.492,12.413,12.413,0,0,1,9.676-.569,1,1,0,0,0,.595-1.91,14.407,14.407,0,0,0-11.25.735,7.972,7.972,0,0,0-3.655,4.011c-2.528.065-4.092-.768-4.872-1.866.214-.01.432-.013.641-.037a1,1,0,0,0-.233-1.986,7.8,7.8,0,0,1-1.825-.01h0a8.265,8.265,0,0,1-6.713-5.2c-1.514-3.8.254-8.793,3.668-10.034a10.285,10.285,0,0,1,3-.624c.549-.048,1.072-.228,1.187-.768A1,1,0,0,0,31,28.4a4.681,4.681,0,0,0-1.685.008A5.745,5.745,0,0,1,34,25.137a2.938,2.938,0,0,0-.023.612,1,1,0,0,0,.995.916.794.794,0,0,0,.085,0,1,1,0,0,0,.913-1.08,1.845,1.845,0,0,1,.321-.988,8.237,8.237,0,0,1,4.2-3.165,12.415,12.415,0,0,1,6.03-.4,8.128,8.128,0,0,0-1.568,2.424,1,1,0,0,0,1.865.723,7.144,7.144,0,0,1,2.234-2.815,10.96,10.96,0,0,1,6.084-2.315,9.833,9.833,0,0,1,6.928,2.285,10.3,10.3,0,0,1,1.9,2.113,1,1,0,1,0,1.664-1.109A11.92,11.92,0,0,0,64.5,20.916a8.49,8.49,0,0,1,3.912-.407,5.9,5.9,0,0,1,4.764,3.027,11.729,11.729,0,0,0-2.136.786,1,1,0,0,0,.869,1.8,9.215,9.215,0,0,1,2.778-.861,8.177,8.177,0,0,1,5.95,1.681A7.244,7.244,0,0,1,83.711,32a9.079,9.079,0,0,1-.047,2.642,1,1,0,0,0,.83,1.144.962.962,0,0,0,.158.013,1,1,0,0,0,.987-.843,11.951,11.951,0,0,0,.128-1.316c1.438,1.231,2.859,3.542,2.38,5.727a4.289,4.289,0,0,1-.59,1.391,1,1,0,1,0,1.683,1.08c.079-.122.132-.255.2-.38a3.763,3.763,0,0,1,.748,2.257,4.685,4.685,0,0,1-1.136,2.725c-.008-.009-.015-.02-.024-.029a1,1,0,0,0-1.443,1.385,2.833,2.833,0,0,1,.48.669,3.945,3.945,0,0,1-.6,3.917,6.811,6.811,0,0,1-6.623,2.64,10.417,10.417,0,0,1-1.127-.2,1,1,0,0,0-.463,1.946c.129.031.27.045.4.072a2.864,2.864,0,0,1-1.391,1.492A6.487,6.487,0,0,1,71.1,57.183Z"/><path d="M37.219,33.376a3.641,3.641,0,0,0-.584-1.135,2.006,2.006,0,0,0-.895-.653,1.012,1.012,0,0,0-.659,1.913,1.92,1.92,0,0,1,.336,1.19c-.008.1-.024.188-.042.3a2.483,2.483,0,0,1-.665,1.437.989.989,0,0,0,.774,1.607,1.045,1.045,0,0,0,.8-.373,4.29,4.29,0,0,0,.991-1.969c.882-.641,4.082-2.538,7.3.911a1,1,0,0,0,1.463-1.366A7.2,7.2,0,0,0,37.219,33.376Z"/><path d="M82.762,42.567a1.618,1.618,0,0,1-.474.186,2.241,2.241,0,0,1-2.144-1.086,3.114,3.114,0,0,1-.38-3.418,1,1,0,1,0-1.657-1.121,4.949,4.949,0,0,0,.2,5.375,5.512,5.512,0,0,1-3.028,4.385,4.511,4.511,0,0,1-4.614-.094,1,1,0,1,0-1.119,1.658,6.029,6.029,0,0,0,3.4,1.024,7.174,7.174,0,0,0,3.241-.8A7.591,7.591,0,0,0,80,44.211a3.813,3.813,0,0,0,1.967.58,3.357,3.357,0,0,0,.783-.092,3.579,3.579,0,0,0,1.037-.417,1,1,0,1,0-1.027-1.715Z"/><path d="M71.383,32.226a4.21,4.21,0,0,1,1.561,3.254,1,1,0,0,0,1,.949h.052a1,1,0,0,0,.948-1.05,6.131,6.131,0,0,0-2.767-5.04,5.355,5.355,0,0,0-2.132-.813,3.453,3.453,0,0,0-1.563-2.294,1.033,1.033,0,0,0-1.353.492.963.963,0,0,0,.476,1.3,2.373,2.373,0,0,1,.579,1.428c0,.019,0,.037,0,.055s0,.032,0,.048a2.8,2.8,0,0,1-.792,2.055,1,1,0,1,0,1.48,1.343,4.984,4.984,0,0,0,1.229-2.38A3.742,3.742,0,0,1,71.383,32.226Z"/><path d="M59.809,43.9a.966.966,0,0,0-1.156.769,2.692,2.692,0,0,1-1.39,1.016,3.1,3.1,0,0,1-2.571-.281,1,1,0,1,0-.955,1.757,5.4,5.4,0,0,0,2.579.684,4.919,4.919,0,0,0,2.132-.488,3.791,3.791,0,0,0,2.154-2.26A1.026,1.026,0,0,0,59.809,43.9Z"/><path d="M57.744,27.492a1,1,0,0,0-.266-1.388,7.536,7.536,0,0,0-6.943-.99c-1.67.606-3.1,1.808-3.4,2.857a.968.968,0,0,0,.656,1.186.928.928,0,0,0,.3.048,1.057,1.057,0,0,0,.967-.673,4.376,4.376,0,0,1,2.4-1.618,5.519,5.519,0,0,1,4.9.844A1,1,0,0,0,57.744,27.492Z"/></svg>