<svg id="Solid" xmlns="http://www.w3.org/2000/svg" viewBox="0 0 128 128"><title>bridge, building, construction, river, Waterway, pillar</title><path d="M123.807,85.992c-7.269.848-8.679,5.851-15.557,6.976V65.281a2.687,2.687,0,0,1,.53-1.59l11.2-15.06h-40l11.2,15.06a2.687,2.687,0,0,1,.53,1.59V87.445a14.792,14.792,0,0,0-7.046-1.575C74.33,85.87,74.33,93.2,64,93.2S53.662,85.87,43.329,85.87a14.649,14.649,0,0,0-7.589,1.867V65.281a2.687,2.687,0,0,1,.53-1.59l11.2-15.06h-40l11.2,15.06a2.687,2.687,0,0,1,.53,1.59V92.869c-6.411-1.293-7.936-6.052-15.007-6.877A1.97,1.97,0,0,0,2,87.943V100.62H2c5.565,0,8.357,1.981,11.057,3.9,2.489,1.767,4.842,3.435,9.61,3.435s7.12-1.668,9.609-3.435c2.7-1.915,5.493-3.9,11.058-3.9s8.357,1.981,11.057,3.9c2.489,1.767,4.842,3.435,9.61,3.435s7.121-1.668,9.61-3.435c2.7-1.915,5.493-3.9,11.058-3.9s8.357,1.981,11.058,3.9c2.491,1.767,4.842,3.435,9.612,3.435s7.122-1.668,9.613-3.435c2.7-1.915,5.492-3.9,11.058-3.9h0V87.943A1.97,1.97,0,0,0,123.807,85.992Z"/><path d="M116.394,106.555c-2.7,1.915-5.494,3.9-11.06,3.9s-8.357-1.981-11.059-3.9c-2.49-1.767-4.841-3.435-9.611-3.435s-7.121,1.668-9.61,3.435c-2.7,1.915-5.492,3.9-11.058,3.9s-8.357-1.981-11.058-3.9c-2.489-1.767-4.841-3.435-9.609-3.435s-7.121,1.668-9.61,3.435c-2.7,1.915-5.492,3.9-11.057,3.9s-8.357-1.981-11.058-3.9C9.115,104.788,6.763,103.12,2,103.12H2V116a1.976,1.976,0,0,0,1.821,1.952c8.553.806,9.158,7.249,18.846,7.249,10.333,0,10.333-7.331,20.667-7.331S53.662,125.2,64,125.2s10.334-7.331,20.668-7.331S95,125.2,105.334,125.2c9.69,0,10.3-6.443,18.849-7.249A1.976,1.976,0,0,0,126.005,116V103.12h0C121.235,103.12,118.884,104.788,116.394,106.555Z"/><path d="M126.005,37.751h-4.254l-6.536-5.338h10.79a1.25,1.25,0,1,0,0-2.5H2a1.25,1.25,0,0,0,0,2.5H12.233L5.7,37.751H2A1.25,1.25,0,0,0,.745,39h0v5.879h0A1.25,1.25,0,0,0,2,46.131h124.01a1.25,1.25,0,0,0,1.25-1.25h0V39h0A1.25,1.25,0,0,0,126.005,37.751Zm-116.357,0,6.091-4.973,6.09,4.973Zm9.6-5.338h12.18l-6.09,4.974Zm9.6,5.338,6.09-4.973,6.09,4.973Zm9.6-5.338H50.62l-6.09,4.975Zm9.6,5.338,6.09-4.973,6.09,4.973Zm9.6-5.338H69.815l-6.091,4.975Zm9.6,5.338,6.091-4.973,6.09,4.973Zm9.6-5.338h12.18l-6.09,4.974Zm9.6,5.338,6.09-4.973,6.09,4.973Zm9.6-5.338H108.2l-6.091,4.975Zm9.6,5.338,6.09-4.973,6.09,4.973Z"/></svg>