<svg id="Solid" xmlns="http://www.w3.org/2000/svg" viewBox="0 0 128 128"><title>building, urban, construction, skyscraper, window, city, office</title><path d="M120.111,124.543h-4.173l.05-105.868a2.243,2.243,0,0,0-1.633-2.153L61.708,1.792l-.026-.008a2.249,2.249,0,0,0-2.806,2.178l-.049,120.581H55.01V34.9a1.25,1.25,0,0,0-1.25-1.25H14.09a2.257,2.257,0,0,0-2.25,2.25v9.8a1,1,0,0,0,1,1H33.966a3.171,3.171,0,0,1,3.223,2.89,3.055,3.055,0,0,1-3.05,3.218H12.84a1,1,0,0,0-1,1v7.687a1,1,0,0,0,1,1H33.966a3.171,3.171,0,0,1,3.223,2.89,3.055,3.055,0,0,1-3.05,3.218H12.84a1,1,0,0,0-1,1v7.687a1,1,0,0,0,1,1H33.966a3.171,3.171,0,0,1,3.223,2.89,3.055,3.055,0,0,1-3.05,3.218H12.84a1,1,0,0,0-1,1v7.687a1,1,0,0,0,1,1h21.3a3.054,3.054,0,0,1,3.054,3.054h0a3.054,3.054,0,0,1-3.054,3.054H12.84a1,1,0,0,0-1,1v7.687a1,1,0,0,0,1,1H33.966a3.171,3.171,0,0,1,3.223,2.89,3.055,3.055,0,0,1-3.05,3.218H12.84a1,1,0,0,0-1,1v7.556H7.889a1.25,1.25,0,0,0,0,2.5H120.111a1.25,1.25,0,0,0,0-2.5ZM89.175,109.317h16.917a1,1,0,0,1,1,1v14.226H89.175V109.317Zm9.736-78.041a2.787,2.787,0,0,1,2.787-2.787H104.3a2.787,2.787,0,0,1,2.788,2.787v2.606a2.787,2.787,0,0,1-2.788,2.787H101.7a2.787,2.787,0,0,1-2.787-2.787Zm0,16.664a2.787,2.787,0,0,1,2.787-2.787H104.3a2.787,2.787,0,0,1,2.788,2.787v2.606a2.787,2.787,0,0,1-2.788,2.787H101.7a2.787,2.787,0,0,1-2.787-2.787Zm0,16.664a2.787,2.787,0,0,1,2.787-2.787H104.3a2.787,2.787,0,0,1,2.788,2.787V67.21A2.787,2.787,0,0,1,104.3,70H101.7a2.787,2.787,0,0,1-2.787-2.787Zm0,16.664a2.787,2.787,0,0,1,2.787-2.787H104.3a2.787,2.787,0,0,1,2.788,2.787v2.606a2.787,2.787,0,0,1-2.788,2.787H101.7a2.787,2.787,0,0,1-2.787-2.787Zm0,16.664a2.787,2.787,0,0,1,2.787-2.787H104.3a2.787,2.787,0,0,1,2.788,2.787v2.606a2.787,2.787,0,0,1-2.788,2.787H101.7a2.787,2.787,0,0,1-2.787-2.787ZM83.834,31.276a2.787,2.787,0,0,1,2.788-2.787h2.606a2.787,2.787,0,0,1,2.787,2.787v2.606a2.787,2.787,0,0,1-2.787,2.787H86.622a2.787,2.787,0,0,1-2.788-2.787Zm0,16.664a2.787,2.787,0,0,1,2.788-2.787h2.606a2.787,2.787,0,0,1,2.787,2.787v2.606a2.787,2.787,0,0,1-2.787,2.787H86.622a2.787,2.787,0,0,1-2.788-2.787Zm0,16.664a2.787,2.787,0,0,1,2.788-2.787h2.606A2.787,2.787,0,0,1,92.015,64.6V67.21A2.787,2.787,0,0,1,89.228,70H86.622a2.787,2.787,0,0,1-2.788-2.787Zm0,16.664a2.787,2.787,0,0,1,2.788-2.787h2.606a2.787,2.787,0,0,1,2.787,2.787v2.606a2.787,2.787,0,0,1-2.787,2.787H86.622a2.787,2.787,0,0,1-2.788-2.787Zm0,16.664a2.787,2.787,0,0,1,2.788-2.787h2.606a2.787,2.787,0,0,1,2.787,2.787v2.606a2.787,2.787,0,0,1-2.787,2.787H86.622a2.787,2.787,0,0,1-2.788-2.787ZM68.758,31.276a2.787,2.787,0,0,1,2.787-2.787h2.606a2.787,2.787,0,0,1,2.787,2.787v2.606a2.787,2.787,0,0,1-2.787,2.787H71.545a2.787,2.787,0,0,1-2.787-2.787Zm0,16.664a2.787,2.787,0,0,1,2.787-2.787h2.606a2.787,2.787,0,0,1,2.787,2.787v2.606a2.787,2.787,0,0,1-2.787,2.787H71.545a2.787,2.787,0,0,1-2.787-2.787Zm0,16.664a2.787,2.787,0,0,1,2.787-2.787h2.606A2.787,2.787,0,0,1,76.938,64.6V67.21A2.787,2.787,0,0,1,74.151,70H71.545a2.787,2.787,0,0,1-2.787-2.787Zm0,16.664a2.787,2.787,0,0,1,2.787-2.787h2.606a2.787,2.787,0,0,1,2.787,2.787v2.606a2.787,2.787,0,0,1-2.787,2.787H71.545a2.787,2.787,0,0,1-2.787-2.787Zm0,16.664a2.787,2.787,0,0,1,2.787-2.787h2.606a2.787,2.787,0,0,1,2.787,2.787v2.606a2.787,2.787,0,0,1-2.787,2.787H71.545a2.787,2.787,0,0,1-2.787-2.787Zm0,12.385a1,1,0,0,1,1-1H86.675v15.226H68.758Z"/><path d="M50.64,28.241a2.253,2.253,0,0,0-2.25-2.25H19.54a2.253,2.253,0,0,0-2.25,2.25v2.91H50.64Z"/></svg>