<svg id="Solid" xmlns="http://www.w3.org/2000/svg" viewBox="0 0 128 128"><title>buildings, exterior, construction, tree, school, apartments, place</title><path d="M31.377,67.385h2.5a1.25,1.25,0,0,0,0-2.5H32.627v-.468a1.25,1.25,0,0,0-2.5,0v1.718A1.25,1.25,0,0,0,31.377,67.385Z"/><path d="M126.5,124.611H107.3l0-15.78a8.724,8.724,0,0,1-6.93-8.45v-1.2a1.25,1.25,0,1,1,2.5,0v1.2a6.324,6.324,0,0,0,4.43,5.9V92.211a6.7,6.7,0,0,1-4.51-6.44v-.89a1.25,1.25,0,0,1,2.5,0v.89a4.518,4.518,0,0,0,2.01,3.75v-5.41a1.25,1.25,0,0,1,2.5,0v15.13a4.891,4.891,0,0,0,3.22-4.72V93.4a1.25,1.25,0,0,1,2.5,0v1.12a7.34,7.34,0,0,1-5.72,7.32v12.5l1.62-.1a13.321,13.321,0,0,0,10.15-5.76c2.59-3.89,2.99-9.24,1.15-15.05l-.43-1.3c-2.41-6.29-5.17-13.48-5.36-20.69-.13-4.36-2.739-9-7.45-9.61a12.676,12.676,0,0,0-1.61-.15,11.082,11.082,0,0,0-1.47.15c-4.707.64-7.32,5.24-7.44,9.61-.2,7.21-2.96,14.4-5.38,20.74l-.42,1.25c-1.84,5.81-1.43,11.16,1.15,15.05a13.351,13.351,0,0,0,10.2,5.76l.288.02v10.35H85.83V88.8a6.864,6.864,0,0,0-2.69-5.42L68.06,71.941a6.766,6.766,0,0,0-7.83-.24v52.91H57.735V69.371a6.908,6.908,0,0,0-2.729-5.484L35.523,49.157a6.829,6.829,0,0,0-2.9-1.26V41.491c1.245.967,3.265,2.049,5.343,1.118a6.969,6.969,0,0,1,4.239-.718.655.655,0,0,0,.784-.648V35.817a.651.651,0,0,0-.45-.627,6.493,6.493,0,0,0-4.573.631c-2.078.931-4.1-.151-5.343-1.118v-1.98a1.25,1.25,0,0,0-2.5,0V47.9a6.833,6.833,0,0,0-2.9,1.26L7.748,63.887a6.908,6.908,0,0,0-2.729,5.484v55.24H2a1.25,1.25,0,0,0,0,2.5H126.5a1.25,1.25,0,0,0,0-2.5ZM72.333,93.4a1.92,1.92,0,0,1,1.92-1.92h1.441a1.92,1.92,0,0,1,1.92,1.92v1.44a1.92,1.92,0,0,1-1.92,1.92H74.253a1.92,1.92,0,0,1-1.92-1.92Zm0,10.3a1.92,1.92,0,0,1,1.92-1.92h1.441a1.92,1.92,0,0,1,1.92,1.92v1.441a1.92,1.92,0,0,1-1.92,1.92H74.253a1.92,1.92,0,0,1-1.92-1.92Zm0,9.883a1.92,1.92,0,0,1,1.92-1.92h1.441a1.92,1.92,0,0,1,1.92,1.92v1.44a1.921,1.921,0,0,1-1.92,1.921H74.253a1.921,1.921,0,0,1-1.92-1.921ZM61.166,93.4a1.92,1.92,0,0,1,1.92-1.92h1.44a1.92,1.92,0,0,1,1.92,1.92v1.44a1.919,1.919,0,0,1-1.92,1.92h-1.44a1.919,1.919,0,0,1-1.92-1.92Zm0,10.3a1.92,1.92,0,0,1,1.92-1.92h1.44a1.92,1.92,0,0,1,1.92,1.92v1.441a1.92,1.92,0,0,1-1.92,1.92h-1.44a1.92,1.92,0,0,1-1.92-1.92Zm0,9.883a1.92,1.92,0,0,1,1.92-1.92h1.44a1.92,1.92,0,0,1,1.92,1.92v1.44a1.92,1.92,0,0,1-1.92,1.921h-1.44a1.92,1.92,0,0,1-1.92-1.921ZM41.946,81.859A3.264,3.264,0,0,1,45.21,78.6h.316a3.265,3.265,0,0,1,3.264,3.264v4.456a.866.866,0,0,1-.866.866H42.812a.865.865,0,0,1-.866-.866ZM41.931,97.38A3.264,3.264,0,0,1,45.2,94.116h.316a3.265,3.265,0,0,1,3.264,3.264v4.456a.866.866,0,0,1-.866.866H42.8a.865.865,0,0,1-.865-.866ZM41.915,112.9a3.265,3.265,0,0,1,3.265-3.264H45.5A3.265,3.265,0,0,1,48.76,112.9v4.456a.866.866,0,0,1-.866.866H42.781a.866.866,0,0,1-.866-.866ZM31.392,60.089a6.047,6.047,0,1,1-6.046,6.046A6.046,6.046,0,0,1,31.392,60.089Zm2.556,27.092H28.836a.866.866,0,0,1-.866-.866V81.859A3.264,3.264,0,0,1,31.234,78.6h.316a3.264,3.264,0,0,1,3.264,3.264v4.456A.865.865,0,0,1,33.948,87.181Zm.851,10.2v4.456a.866.866,0,0,1-.866.866H28.821a.866.866,0,0,1-.866-.866V97.38a3.264,3.264,0,0,1,3.264-3.264h.316A3.264,3.264,0,0,1,34.8,97.38Zm-20.8-15.521A3.265,3.265,0,0,1,17.258,78.6h.316a3.265,3.265,0,0,1,3.265,3.264v4.456a.866.866,0,0,1-.866.866H14.86a.866.866,0,0,1-.866-.866ZM13.979,97.38a3.265,3.265,0,0,1,3.264-3.264h.316a3.264,3.264,0,0,1,3.264,3.264v4.456a.865.865,0,0,1-.866.866H14.845a.866.866,0,0,1-.866-.866ZM13.964,112.9a3.264,3.264,0,0,1,3.264-3.264h.316a3.264,3.264,0,0,1,3.264,3.264v4.456a.865.865,0,0,1-.866.866H14.83a.866.866,0,0,1-.866-.866Zm10.907,2.317a6.205,6.205,0,0,1,6.206-6.206h.6a6.205,6.205,0,0,1,6.206,6.206v9.393H24.871Z"/></svg>