<svg id="Solid" xmlns="http://www.w3.org/2000/svg" viewBox="0 0 128 128"><title>building, construction, cafe, restaurant, food court, shop, loan</title><path d="M126.417,124.611H124.5V87.491a2.253,2.253,0,0,0-2.25-2.25H74.84v39.37h-2.5V73.241a2.253,2.253,0,0,0-2.25-2.25H22.12a2.253,2.253,0,0,0-2.25,2.25v51.37H18.042a1.25,1.25,0,0,0,0,2.5H126.417a1.25,1.25,0,0,0,0-2.5ZM98.5,98.481H111.14a2,2,0,0,1,2,2v12.69a2,2,0,0,1-2,2H98.5Zm-17.132,2a1.993,1.993,0,0,1,2-2H96v16.69H83.37a1.993,1.993,0,0,1-2-2Zm-22.034,2.557a3.37,3.37,0,0,1-2.724-1.394,2.328,2.328,0,0,0-1.88-.969h0a2.329,2.329,0,0,0-1.88.97,3.352,3.352,0,0,1-5.439,0,2.309,2.309,0,0,0-3.762,0,3.352,3.352,0,0,1-5.438,0,2.309,2.309,0,0,0-3.762,0,3.352,3.352,0,0,1-5.1.4,2.859,2.859,0,0,1-.5-3.163l1.794-4.034a1.176,1.176,0,0,1,1.078-.7h27.61a1.19,1.19,0,0,1,1.085.7l1.792,4.03a2.86,2.86,0,0,1-.5,3.163A3.333,3.333,0,0,1,59.336,103.038ZM22.37,81.371H69.84v6.72H22.37Zm11.1,43.24V105.265a5.857,5.857,0,0,0,2.866-1.962,5.851,5.851,0,0,0,9.2,0,5.852,5.852,0,0,0,9.2,0,5.871,5.871,0,0,0,3.518,2.125v19.184Z"/><path d="M16.5,116.841a2.091,2.091,0,0,0,2.024-2.615L16.319,105.7a2.09,2.09,0,0,0-2.025-1.569H2.267a2.09,2.09,0,0,0-2.024,2.614l2.2,8.528a2.09,2.09,0,0,0,2.025,1.569H8.133v7.77H7.379a1.25,1.25,0,0,0,0,2.5h5.333a1.25,1.25,0,1,0,0-2.5H10.633v-7.77Z"/></svg>