<svg id="Solid" xmlns="http://www.w3.org/2000/svg" viewBox="0 0 128 128"><title>building, construction, cafe, restaurant, food court, cafe, loan</title><path d="M118.17,50.951H40.04a5.256,5.256,0,0,0-5.25,5.25v8.21a5.236,5.236,0,0,0,4.94,5.21v.04h79.08v-.07a5.239,5.239,0,0,0,4.61-5.18V56.2A5.249,5.249,0,0,0,118.17,50.951Z"/><path d="M121.333,124.628H118.81V72.161H39.73v52.467H37a1.25,1.25,0,1,0,0,2.5h84.333a1.25,1.25,0,0,0,0-2.5Zm-32.95-37.97h19.632a2.75,2.75,0,1,1,0,5.5H88.383a2.75,2.75,0,1,1,0-5.5Zm-41.66,0,1.766-4.336a1.152,1.152,0,0,1,1.029-.773h27.2a1.163,1.163,0,0,1,1.036.777l1.765,4.331a3.459,3.459,0,0,1-.511,3.58,3.083,3.083,0,0,1-2.29,1.051,3.159,3.159,0,0,1-2.639-1.5,2.283,2.283,0,0,0-1.9-1.045h0a2.283,2.283,0,0,0-1.9,1.047,3.07,3.07,0,0,1-5.269,0,2.283,2.283,0,0,0-1.9-1.047h0a2.284,2.284,0,0,0-1.9,1.047,3.07,3.07,0,0,1-5.268,0,2.283,2.283,0,0,0-1.9-1.047h0a2.282,2.282,0,0,0-1.9,1.047,3.154,3.154,0,0,1-2.635,1.493,3.084,3.084,0,0,1-2.29-1.051A3.455,3.455,0,0,1,46.723,86.654Zm29.763,26.223a1.824,1.824,0,0,1,0,3.647H49.754a1.824,1.824,0,1,1,0-3.647Zm-25.746-2.5V93.64a5.751,5.751,0,0,0,3.315-2.2,5.549,5.549,0,0,0,9.062,0,5.55,5.55,0,0,0,9.064,0,5.757,5.757,0,0,0,3.318,2.2v16.737Zm38.211-15.72h18.5v29.971h-18.5Z"/><path d="M35.168,121.3,30.5,99.373a2.159,2.159,0,0,0-2.1-1.7H11.182a2.158,2.158,0,0,0-2.1,1.7L4.414,121.3a2.147,2.147,0,0,0,2.1,2.594h1.1l-.295,1.387a1.251,1.251,0,0,0,.962,1.483,1.3,1.3,0,0,0,.262.027,1.25,1.25,0,0,0,1.221-.99l.406-1.907h8.207l.452,2.127a1.252,1.252,0,0,0,1.222.99,1.226,1.226,0,0,0,.261-.028,1.25,1.25,0,0,0,.963-1.483l-.342-1.606h8.471l.4,1.907a1.251,1.251,0,0,0,1.222.99,1.3,1.3,0,0,0,.261-.027,1.251,1.251,0,0,0,.963-1.483l-.3-1.387h1.1a2.148,2.148,0,0,0,2.1-2.594Zm-18.734.094-4.517-21.22h16.2l4.517,21.22Z"/></svg>