<svg id="Solid" xmlns="http://www.w3.org/2000/svg" viewBox="0 0 128 128"><title>building, exterior, construction, shop, store, tree, mart</title><path d="M120.558,67.869l-4.258-9.58a5.792,5.792,0,0,0-5.294-3.438h-15.1V49.69H103.3a3.737,3.737,0,0,0,3.737-3.736V29.805a3.737,3.737,0,0,0-3.737-3.736H53.736A3.737,3.737,0,0,0,50,29.805V45.954a3.737,3.737,0,0,0,3.737,3.736h7.387v5.161H45.368a5.759,5.759,0,0,0-5.281,3.438l-4.259,9.58a9.752,9.752,0,0,0,1.795,10.82,10.938,10.938,0,0,0,16.631-1.315,2.517,2.517,0,0,1,4.124,0,10.939,10.939,0,0,0,17.747,0,2.517,2.517,0,0,1,4.124,0,10.939,10.939,0,0,0,17.749,0,2.517,2.517,0,0,1,4.123,0,10.947,10.947,0,0,0,16.643,1.32A9.753,9.753,0,0,0,120.558,67.869ZM89.384,34.789a1.169,1.169,0,0,1,1.319-1.2h2.4c2.4,0,3.718,1.319,3.718,2.939S95.5,39.467,93.1,39.467h-1.08v1.439a1.325,1.325,0,0,1-2.638,0Zm-9.3,2.16c0-2.04,1.56-3.6,4.018-3.6s4.018,1.559,4.018,3.6v1.678c0,2.039-1.559,3.6-4.018,3.6s-4.018-1.559-4.018-3.6ZM71.145,34.67a1.325,1.325,0,0,1,2.638,0v2.038h2.4V34.67a1.325,1.325,0,0,1,2.638,0v6.236a1.325,1.325,0,0,1-2.638,0V38.987h-2.4v1.919a1.325,1.325,0,0,1-2.638,0ZM61.159,54.851c.007-.034.016-.044.026,0Zm1.646-14.664c0-.66.42-1.08,1.319-1.08.96,0,1.079.84,2.1.84.9,0,1.2-.3,1.2-.6,0-.72-4.438-.36-4.438-3.238,0-1.559,1.2-2.759,3.6-2.759,2.1,0,3.3,1.2,3.3,2.039,0,.66-.42,1.08-1.319,1.08-.959,0-1.08-.84-1.979-.84-.6,0-.84.24-.84.48,0,.84,4.438.48,4.438,3.238,0,1.559-1.32,2.878-3.958,2.878C64,42.225,62.805,41.026,62.805,40.187Zm.756,14.664c.009-.038.016-.029.023,0Zm29.848,0H63.623V49.69H93.409Zm.036,0c.008-.034.016-.044.026,0Zm2.4,0c.008-.037.016-.028.023,0Z"/><path d="M125,124.576h-7.04V84.14a1,1,0,0,0-1.426-.9,13.478,13.478,0,0,1-16.444-4.41h-.06a13.455,13.455,0,0,1-16.816,4.225,13.809,13.809,0,0,1-4.994-4.215l-.03-.04-.04.04A13.457,13.457,0,0,1,61.426,83.1a13.78,13.78,0,0,1-5.076-4.257l-.03-.04-.04.04a13.453,13.453,0,0,1-16.432,4.394,1,1,0,0,0-1.428.9v40.443h-16.7v-9.788a11.841,11.841,0,0,0,8.126-5.467,10.94,10.94,0,0,0,.59-10.08l-.42-1.07c-2.13-4.9-4.56-10.5-4.76-16.22a7.333,7.333,0,0,0-5.6-7.091,10.263,10.263,0,0,0-1.684-.149,10.642,10.642,0,0,0-1.649.14,7.377,7.377,0,0,0-5.641,7.09c-.18,5.69-2.62,11.31-4.78,16.27l-.36.97a10.941,10.941,0,0,0,.55,10.13,11.793,11.793,0,0,0,9.34,5.64c.32.021,1.08.06,1.28.08v-12.84a1.25,1.25,0,0,1,2.5,0l0,22.385H5a1.25,1.25,0,0,0,0,2.5H125a1.25,1.25,0,0,0,0-2.5ZM91,100.945a8.018,8.018,0,0,1,16.036,0v10.814H91ZM87.9,114.9a.644.644,0,0,1,.644-.645h20.947a.645.645,0,0,1,.645.645v1.14a4,4,0,0,1-4,4H91.9a4,4,0,0,1-4-4ZM47.306,98.319a11.886,11.886,0,1,1,23.772,0v26.257H47.306Z"/><path d="M94.062,36.529c0-.42-.36-.78-.96-.78h-1.08v1.559H93.1C93.7,37.308,94.062,36.949,94.062,36.529Z"/><path d="M84.1,40.187a1.4,1.4,0,0,0,1.319-1.56V36.949a1.338,1.338,0,1,0-2.638,0v1.678A1.4,1.4,0,0,0,84.1,40.187Z"/></svg>