<svg id="Solid" xmlns="http://www.w3.org/2000/svg" viewBox="0 0 128 128"><title>burn out, mental health, disorder, mental illness, low, energy, power</title><path d="M55.5,43.1v11.03a4.769,4.769,0,0,1-4.77,4.77h-3.29a4.763,4.763,0,0,1-4.77-4.77V43.1a4.763,4.763,0,0,1,4.77-4.77h3.29A4.769,4.769,0,0,1,55.5,43.1Z"/><path d="M95.332,96.982c-.27-4.3,1.03-10.24,3.66-13.66,10.51-13.63,15.16-25.43,12.96-39.96-3.56-23.55-20.19-36.02-43.18-37.2-25.13-1.3-46.65,14.84-45.96,37.1.09,2.94.6,7.26.59,10.09-.02,10.04-8.71,14.17-8.88,17.36-.27,5.25,5.89,3.61,8.07,11.04,2.76,9.42-1.2,20.17,11.65,19.51,5.12-.21,13.45-2.2,17.02,1.12,2.27,2.12,4.11,11.35,4.82,15.44a2.381,2.381,0,0,0,2.34,1.96h38.57a2.37,2.37,0,0,0,2.28-3.03C97.992,112.332,95.772,103.9,95.332,96.982Zm-2.69-42.01v1.19a5.028,5.028,0,0,1-.1,1.04,2.744,2.744,0,0,1-.09.39v.01a2.594,2.594,0,0,1-.11.37c-.01.01,0,.01,0,.01a5.83,5.83,0,0,1-1.21,2,5.687,5.687,0,0,1-4.24,1.89H45.1a5.779,5.779,0,0,1-5.52-4.1,7.35,7.35,0,0,1-.2-1.06,4.933,4.933,0,0,1-.03-.55v-15a5.683,5.683,0,0,1,.03-.59,5.74,5.74,0,0,1,5.72-5.2h41.79a5.74,5.74,0,0,1,5.72,5.2,5.683,5.683,0,0,1,.03.59v1.19h1.39a3,3,0,0,1,3,3v6.62a3,3,0,0,1-3,3Z"/><path d="M91.132,59.982a5.636,5.636,0,0,0,1.41-2.78,5.562,5.562,0,0,1-1.41,2.82,5.687,5.687,0,0,1-4.24,1.89H45.1a5.748,5.748,0,0,1-5.72-5.2,5.758,5.758,0,0,0,5.72,5.16h41.79A5.687,5.687,0,0,0,91.132,59.982Z"/></svg>