<svg id="Solid" xmlns="http://www.w3.org/2000/svg" viewBox="0 0 128 128"><title>department store, building, construction, shop, mart, supermarket, city</title><path d="M126.046,124.586H123.8V45.251a3.241,3.241,0,0,0-1.25-2.57,2.553,2.553,0,0,0-.63-.39c-29.46-13.38-68.26,6.65-73.78,9.65v72.645h-2.5V51.991c-21.71-.6-30.7,13.18-32.33,16.04a.724.724,0,0,1-.4.33l-6.12,2.16a3.257,3.257,0,0,0-2.17,3.07v51H2.667a1.25,1.25,0,1,0,0,2.5H126.046a1.25,1.25,0,0,0,0-2.5Zm-52.3,0H62V107.021H73.75Zm0-20.065H62V85.281H73.75Zm0-21.74H62V65.421c1.8-.34,5.97-1.06,11.75-1.76Zm16.48,41.8H76.25V107.021H90.23Zm0-20.065H76.25V85.281H90.23Zm0-21.74H76.25V63.371c4.08-.44,8.81-.85,13.98-1.09Zm17.29,41.8H92.73V107.021h14.79Zm0-20.065H92.73V85.281h14.79Zm0-21.74H92.73v-20.6c4.67-.17,9.65-.2,14.79,0Zm13.78,41.8H110.02V107.021H121.3Zm0-20.065H110.02V85.281H121.3Zm0-21.74H110.02V62.291c3.71.2,7.49.51,11.28.98Z"/></svg>