<svg id="Solid" xmlns="http://www.w3.org/2000/svg" viewBox="0 0 128 128"><title>Dyslexia, symptom, mental health, disorder, mental illness, autism, learning</title><path d="M95.331,96.989c-.273-4.3,1.029-10.247,3.662-13.663,10.5-13.626,15.158-25.432,12.96-39.962C108.391,19.816,91.76,7.343,68.766,6.162,43.637,4.862,22.116,21,22.809,43.265c.091,2.938.605,7.265.593,10.091C23.379,63.4,14.69,67.524,14.523,70.72c-.275,5.248,5.89,3.609,8.064,11.033,2.76,9.425-1.2,20.173,11.648,19.509,5.125-.206,13.454-2.2,17.023,1.123,2.276,2.117,4.109,11.352,4.824,15.439a2.367,2.367,0,0,0,2.337,1.958H96.988a2.369,2.369,0,0,0,2.282-3.028C97.987,112.337,95.769,103.9,95.331,96.989ZM60.263,51.462a3,3,0,0,1-2.058-.877l-.073,3.144a2.21,2.21,0,0,1-2.284,2.132L51.9,55.769a2.972,2.972,0,1,0-5.041-2.211,3,3,0,0,0,.792,2.112L44.431,55.6a2.234,2.234,0,0,1-2.181-2.286l.242-10.344a2.234,2.234,0,0,1,2.286-2.181l3.215.076a2.972,2.972,0,1,1,4.249.1l3.952.092a2.21,2.21,0,0,1,2.183,2.236L58.3,46.431a2.994,2.994,0,0,1,2.1-.779,2.907,2.907,0,1,1-.135,5.81Zm3.69-21.339a2.019,2.019,0,0,1-1.312,1.883l-1.088.412a2.029,2.029,0,0,1-2.595-1.087c-.964-2.206-2.386-5.813-1.9-6.783.729-1.423,4.57-2.246,5.653-1.284C63.818,24.248,63.966,28.029,63.953,30.123Zm4.307-1.165c.289-1.742.857-4.534,1.547-4.922,1.016-.588,3.71.442,3.99,1.463.282,1.054-1.143,3.433-1.975,4.716a1.509,1.509,0,0,1-1.575.634l-.833-.18A1.5,1.5,0,0,1,68.26,28.958ZM86.682,55.094l-3.144.073a2.992,2.992,0,0,1,.876,2.058,2.907,2.907,0,1,1-5.81.135,3,3,0,0,1,.78-2.1l-3.144.075A2.21,2.21,0,0,1,74,53.156L73.912,49.2a2.972,2.972,0,1,1-.1-4.249l-.076-3.215a2.234,2.234,0,0,1,2.181-2.286l10.344-.242a2.234,2.234,0,0,1,2.286,2.181l.074,3.215a2.975,2.975,0,1,0-1.956,5.15,2.96,2.96,0,0,0,2.055-.9l.093,3.953A2.21,2.21,0,0,1,86.682,55.094Z"/></svg>