<svg id="Solid" xmlns="http://www.w3.org/2000/svg" viewBox="0 0 128 128"><title>emergency, gait, leg, crutches, disability, medical, hospital</title><path d="M65,53.434a63.226,63.226,0,0,1,9.82,15.77c.24-.19,3.56-2.94,3.56-2.94a67.094,67.094,0,0,0-10.3-16.07S65.216,53.194,65,53.434Z"/><path d="M45.956,70.914s1.72-3.97,1.86-4.3c-.58-.54-6.89-6.84-6.89-6.84l0,0,15.35-15.35,0,0L59.856,48l3.09-3.21L39.71,21.557a2.436,2.436,0,0,0-.013-3.431,7.407,7.407,0,0,0-10.474,0L17.51,29.839c-1.888,1.888-4.107,4.74-6.875,4.661a3.613,3.613,0,0,0-3.278,1.274c-1.447,1.475-.642,3.669-.176,4.57a9,9,0,0,0,1.134,1.52,7.838,7.838,0,0,0,9.575,1.174S44.926,70.024,45.956,70.914Zm-9.37-15.47-15.38-15.38h0L36.566,24.7h0l15.38,15.38h0l-15.36,15.36Z"/><path d="M51.966,75.674c1.66,1.18,3.38,2.27,5.16,3.29.4-.2,4.87-2.16,5.14-2.28a61.413,61.413,0,0,1-8.43-5.14C53.776,71.7,52.036,75.534,51.966,75.674Z"/><path d="M103.957,100.809l-.373.372c-.091-.1-8.628-9.277-10.938-11.857a74.2,74.2,0,0,1-11.08-16.01c-.24.22-3.34,2.65-3.62,2.85a75.19,75.19,0,0,0,7.61,12.29v.01c.88,1.14,3.03,3.69,3.17,3.85l-.04.04c-.16-.14-2.74-2.33-3.88-3.21a74.616,74.616,0,0,0-13.83-8.48c-.24.13-5.1,2.56-5.1,2.56a72.485,72.485,0,0,1,19.95,12.92c2.22,1.98,11.788,11.007,11.788,11.007l-.3.3,3.322,3.321a4.7,4.7,0,0,0,6.644-6.643Zm-6.314,6.314.033-.039,0,0Z"/><path d="M120.656,35.774a3.613,3.613,0,0,0-3.278-1.274c-2.769.079-4.987-2.773-6.876-4.661L98.79,18.126a7.408,7.408,0,0,0-10.475,0,2.436,2.436,0,0,0-.015,3.428L63.407,46.447a67.8,67.8,0,0,0-14.763,22.09A72.626,72.626,0,0,1,35.362,89.326c-2.716,3.041-10.4,11.269-10.938,11.851l-.368-.368-3.322,3.321a4.7,4.7,0,0,0,6.644,6.644l3.322-3.321-.368-.368.064.064s9.571-9.024,11.786-11a72.609,72.609,0,0,1,20.79-13.281A67.805,67.805,0,0,0,85.061,68.1l25.063-25.063a7.84,7.84,0,0,0,9.574-1.175,9.055,9.055,0,0,0,1.134-1.52C121.3,39.443,122.1,37.249,120.656,35.774ZM81.912,64.952a63.373,63.373,0,0,1-20.645,13.8A76.879,76.879,0,0,0,39.323,92.355l-.039-.04A77.123,77.123,0,0,0,52.759,70.242,63.342,63.342,0,0,1,66.557,49.6l5.18-5.18L87.092,59.772Zm9.511-9.511L76.068,40.086l15.38-15.381L106.8,40.06Z"/></svg>