<svg id="Solid" xmlns="http://www.w3.org/2000/svg" viewBox="0 0 128 128"><title>Empathy, mental health, healthcare, treatment, management, healp, mind, happy</title><path d="M95.331,96.989c-.273-4.3,1.029-10.247,3.662-13.663,10.5-13.626,15.158-25.432,12.96-39.962C108.391,19.816,91.76,7.343,68.766,6.162,43.637,4.862,22.116,21,22.809,43.265c.091,2.938.605,7.265.593,10.091C23.379,63.4,14.69,67.524,14.523,70.72c-.275,5.248,5.89,3.609,8.064,11.033,2.76,9.425-1.2,20.173,11.648,19.509,5.125-.206,13.454-2.2,17.023,1.123,2.276,2.117,4.109,11.352,4.824,15.439a2.368,2.368,0,0,0,2.337,1.959H96.988a2.369,2.369,0,0,0,2.282-3.029C97.987,112.337,95.769,103.9,95.331,96.989ZM69.237,79.143a8.543,8.543,0,0,1-6.21,0C32.307,67.268,25.405,45.318,35.386,30.917c6.357-9.176,24.727-13.191,30.746-1.766,6.02-11.425,24.39-7.41,30.747,1.766C106.86,45.318,99.958,67.268,69.237,79.143Z"/><path d="M63.32,38.926A3.119,3.119,0,0,1,61.27,36a3.015,3.015,0,0,1,.32-1.36,3.191,3.191,0,0,0,.32-1.38,3.128,3.128,0,0,0-4.44-2.82,3.066,3.066,0,0,1-1.32.3,3.113,3.113,0,0,1-2.94-2.1,3.123,3.123,0,0,0-5.88-.06,3.113,3.113,0,0,1-2.94,2.05,3.062,3.062,0,0,1-1.36-.31,3.1,3.1,0,0,0-4.18,4.12,3.043,3.043,0,0,1,.29,1.31,3.112,3.112,0,0,1-2.1,2.95,3.119,3.119,0,0,0-.05,5.88,3.1,3.1,0,0,1,1.73,4.29,3,3,0,0,0-.33,1.37,3.135,3.135,0,0,0,4.45,2.82,3.118,3.118,0,0,1,4.26,1.81,3.12,3.12,0,0,0,5.88.05,3.121,3.121,0,0,1,2.92-2.05,3.056,3.056,0,0,1,1.37.32,3.07,3.07,0,0,0,1.38.33,3.14,3.14,0,0,0,2.81-4.46,3.013,3.013,0,0,1-.3-1.3,3.126,3.126,0,0,1,2.11-2.95,3.12,3.12,0,0,0,.05-5.88ZM50.15,49.356a7.605,7.605,0,1,1,7.6-7.6A7.609,7.609,0,0,1,50.15,49.356Z"/><path d="M74.33,63.006a2.114,2.114,0,0,1-1.47-2.02,2.069,2.069,0,0,1,.17-.84,2.106,2.106,0,0,0-2.91-2.73,2.1,2.1,0,0,1-2.94-1.11,2.121,2.121,0,0,0-3.99.13,2.128,2.128,0,0,1-2.86,1.31,2.115,2.115,0,0,0-2.73,2.91,1.994,1.994,0,0,1,.25.96,2.158,2.158,0,0,1-1.35,1.99,2.1,2.1,0,0,0,.14,3.97,2.127,2.127,0,0,1,1.47,2.02,2.164,2.164,0,0,1-.18.85,2.065,2.065,0,0,0-.18.85,2.125,2.125,0,0,0,3.1,1.87,2.228,2.228,0,0,1,.97-.23,2.112,2.112,0,0,1,1.97,1.34,2.069,2.069,0,0,0,1.96,1.34,2.091,2.091,0,0,0,2.03-1.47,2.1,2.1,0,0,1,2.01-1.48,2.128,2.128,0,0,1,.85.18,2.2,2.2,0,0,0,.85.18,2.123,2.123,0,0,0,1.87-3.09A2.1,2.1,0,0,1,74.47,67a2.118,2.118,0,0,0-.14-3.99Zm-8.85,7.45a5.16,5.16,0,1,1,5.17-5.16A5.16,5.16,0,0,1,65.48,70.456Z"/><path d="M94.75,41.886a3.1,3.1,0,0,1,1.04-2.34,3.03,3.03,0,0,0,1.06-2.31A3.116,3.116,0,0,0,93.6,34.1h-.14a3.107,3.107,0,0,1-3.11-3.29,3.118,3.118,0,0,0-5.41-2.3,3.117,3.117,0,0,1-4.63-.04A3.038,3.038,0,0,0,78,27.416a3.1,3.1,0,0,0-3.14,3.25v.14a3.108,3.108,0,0,1-3.3,3.1c-.07,0-.14-.01-.2-.01a3.127,3.127,0,0,0-2.09,5.43,3.126,3.126,0,0,1-.04,4.62,3.01,3.01,0,0,0-1.06,2.3,3.121,3.121,0,0,0,3.26,3.15h.14a3.11,3.11,0,0,1,3.1,3.31v.19A3.116,3.116,0,0,0,80.08,55a3.09,3.09,0,0,1,2.3-1.01,3.128,3.128,0,0,1,2.34,1.05,3.014,3.014,0,0,0,2.3,1.06,3.119,3.119,0,0,0,3.14-3.26v-.15a3.119,3.119,0,0,1,3.3-3.1c.07,0,.14.01.2.01a3.125,3.125,0,0,0,2.1-5.42A3.106,3.106,0,0,1,94.75,41.886Zm-12.24,7.47a7.605,7.605,0,1,1,7.6-7.6A7.609,7.609,0,0,1,82.51,49.356Z"/></svg>