<svg id="Solid" xmlns="http://www.w3.org/2000/svg" viewBox="0 0 128 128"><title>family, man, girl, waiting, daughter, father, times</title><path d="M44.076,111.863c-.02-.03-.05-.06-.08-.1a.1.1,0,0,1-.01-.03c-.09.23-.18.45-.29.67a21.219,21.219,0,0,1-2.26,3.59h5.53a32.607,32.607,0,0,0-2.87-4.08C44.086,111.893,44.086,111.883,44.076,111.863Z"/><path d="M20.566,102.113h-4.16a9.217,9.217,0,0,0,.56.83,4.791,4.791,0,0,0,.96.99,2.085,2.085,0,0,0,.47.27,1,1,0,0,1-.35,1.94.587.587,0,0,1-.23-.04c-.13,2.53-.26,4.54-.3,5.05a7.078,7.078,0,0,1-.17.89,3.119,3.119,0,0,1-2.53,2.13,30.079,30.079,0,0,1-7.74,0,3.046,3.046,0,0,1-2.81-3.34c.03-.24.67-5.29,1.35-7.89a5.824,5.824,0,0,1-.75-.83h-.86a1,1,0,0,0-1,1v11.88a1,1,0,0,0,1,1h12.84c0-.04.82-5.19.84-5.25.56-2.68,1.55-6.71,2.75-8.48A.639.639,0,0,1,20.566,102.113Z"/><path d="M121.626,102.113h-12.84c.14.25.6,1.23.7,1.47a15.128,15.128,0,0,1,.58,7.97,4.818,4.818,0,0,0,.01,1.07,3.314,3.314,0,0,1-.6,2.71,4.975,4.975,0,0,1-1.05.66h13.2a1,1,0,0,0,1-1v-11.88A1,1,0,0,0,121.626,102.113Z"/><path d="M50.627,35.429a1.313,1.313,0,0,0,1.306-1.3V33.05a1.3,1.3,0,0,0-2.6,0v1.074A1.3,1.3,0,0,0,50.627,35.429Z"/><path d="M44.423,41.949H44.5a2.687,2.687,0,0,0,1.908-.807,1,1,0,1,0-1.449-1.379.737.737,0,0,1-.506.187.849.849,0,0,1-.637-.221,1,1,0,1,0-1.381,1.447A2.9,2.9,0,0,0,44.423,41.949Z"/><path d="M39.425,34.176V33.113a1.306,1.306,0,1,0-2.611,0v1.063a1.306,1.306,0,1,0,2.611,0Z"/><path d="M41.235,61.275a.81.81,0,1,0,.8.81A.805.805,0,0,0,41.235,61.275Z"/><path d="M74.426,105.173a1.008,1.008,0,0,0,0,1.42,3.856,3.856,0,0,0,1.55.93c.04-.7.1-1.4.2-2.09a1.683,1.683,0,0,1-.33-.25A1.008,1.008,0,0,0,74.426,105.173Z"/><path d="M87.275,58.839a.749.749,0,0,0-.988.385.686.686,0,0,1-.745.359.75.75,0,0,0-.211,1.486,2.489,2.489,0,0,0,.348.025,2.2,2.2,0,0,0,1.981-1.267A.75.75,0,0,0,87.275,58.839Z"/><path d="M78.54,62.594a6.157,6.157,0,0,1-1.451.071.75.75,0,0,0-.574,1.386,2.641,2.641,0,0,0,.943.132,9.713,9.713,0,0,0,1.293-.1.75.75,0,0,0-.211-1.486Z"/><path d="M84.713,65.025a1.736,1.736,0,0,0-1.692.289.765.765,0,0,0-.057,1.071.73.73,0,0,0,1.043.052.383.383,0,0,1,.142-.006.137.137,0,0,0,.019.022.748.748,0,0,0,1.058.069.848.848,0,0,0,.258-.766A1,1,0,0,0,84.713,65.025Z"/><path d="M7.336,112.193a27.248,27.248,0,0,0,7.21,0,1.087,1.087,0,0,0,.89-.74,1.919,1.919,0,0,0,.08-.41c.02-.26.2-3.02.36-6.33a11.423,11.423,0,0,1-1.73-2.6,16.114,16.114,0,0,1-1.81-6.6,1,1,0,0,1,2,0,13.966,13.966,0,0,0,1.69,5.93c.12-3.01.19-5.95.08-7.55a2.2,2.2,0,0,0-1-1.18,3.825,3.825,0,0,0-2.08-.67,2.83,2.83,0,0,0-.87.14c-3.94,1.28-5.27,5.71-5.71,8.24a.922.922,0,0,0,.35.9,1.144,1.144,0,0,0,.33.17.951.951,0,0,1,.59.51,1.437,1.437,0,0,1,.04.79,60.2,60.2,0,0,0-1.5,8.29C6.176,111.7,6.746,112.1,7.336,112.193Z"/><path d="M111.036,71.893a4.392,4.392,0,0,0,.83-2.42,3.338,3.338,0,0,0-.74-2.56,11.255,11.255,0,0,0-3.85-2.93,16.966,16.966,0,0,0-7.26-.86,23.281,23.281,0,0,0-4.7,1.01,14.456,14.456,0,0,0-.63-4.45,3.9,3.9,0,0,0,1.62-1.31,5.56,5.56,0,0,0,.94-4.63,4.869,4.869,0,0,0-.54-1.2c1.58-5.97-1.9-11.27-6.49-14.04,1.28-.53,3.26-1.63,3.52-3.42.12-.81-.09-2.02-1.75-3.23a6.807,6.807,0,0,1-.64-1c-.69-1.19-1.64-2.83-3.21-3.1a6.5,6.5,0,0,0-3.34.63,5.359,5.359,0,0,1-1.18.38,2.409,2.409,0,0,0-1.81,1.01c-.75,1.06-.8,2.84-.16,5.3.06.24.13.49.2.72-5.63-.35-10.52,1.54-13.87,5.41A17.59,17.59,0,0,0,63.961,54.43a45.057,45.057,0,0,0-11.049-6.848c-.2-.282-.393-.542-.59-.783a15.775,15.775,0,0,0,5.227-7.343,4.338,4.338,0,0,0,.443.038A5.134,5.134,0,0,0,60.5,38.8a5.977,5.977,0,0,0,2.943-4.131,4.771,4.771,0,0,0-1-3.929c-.042-.05-.087-.086-.13-.133a9.942,9.942,0,0,0,2.149-3.384c2.863-6.749-2.674-14.16-9.431-18.51-6.68-4.3-15.612-6.259-20.545-.958-.466.391-4.23,3.54-6.806,5.475C24.661,15.5,22.516,21.12,22.9,25.752a8,8,0,0,0,2.835,5.888,6.269,6.269,0,0,0-.567,2.927A5.251,5.251,0,0,0,27.649,38.6a5.446,5.446,0,0,0,2.889.865c.155,0,.3-.023.456-.038a14.7,14.7,0,0,0,5.329,7.523c-.174.217-.347.436-.513.674-4.5,2-10.516,5.524-13.025,9.072-3.687,5.212-6.447,13.763-6.5,18.038-.416,2.044-1.188,6.8.182,8.716,1.538,2.153,4.268,2.9,6.872,2.9a24.752,24.752,0,0,0,3.674-.5,11.984,11.984,0,0,1-.31,2.06,7.284,7.284,0,0,1-1.42,2.74c-1.92,2.32-4.32,8.38-3.94,10.74a.652.652,0,0,0,.33.54,1.147,1.147,0,0,1,.57.89,1.3,1.3,0,0,1-.16.56c-.8,1.19-1.77,4.36-2.59,8.49a.037.037,0,0,1-.01.03c-.27,1.45-.51,2.96-.63,4.09,0,.04-.01.07-.01.1a18.086,18.086,0,0,0,.39,6.29c.09.46.18.92.26,1.42a1,1,0,0,0,.99.82h15.16a.993.993,0,0,0,1-1.01,28.094,28.094,0,0,1,.14-3.47,9.451,9.451,0,0,1,2.14-4.15,39.979,39.979,0,0,0,2.97-4.46c.12-.24.49-1.138,1.19-1.27,1.115-.209,1.814-.016,2.983,1.322a35.449,35.449,0,0,1,3.2,4.408,10.03,10.03,0,0,1,1.59,5.32c-.02.57-.11,1.49-.17,2.22a.988.988,0,0,0,.99,1.09h15.85a1,1,0,0,0,.99-.88,54.171,54.171,0,0,0-2.48-20.46,1.225,1.225,0,0,1,.12-1.17,3.113,3.113,0,0,0,.36-1.64c0-2.71-2.21-6.33-3.41-8.27a15.328,15.328,0,0,1-1.17-2.52,24.251,24.251,0,0,1,.08-3.776,13.039,13.039,0,0,0,3.47.455,10.637,10.637,0,0,0,3.893-.689,53.6,53.6,0,0,0-.213,16.44h-1.54c1.88,5.107,2.82,13.84,2.82,13.88h6.54c-.98-1.752-1.1-6.46-1.03-8.11a1.5,1.5,0,0,1-1.51.68,4.1,4.1,0,0,1-.79-.16c-1.88-.4-2.09-1.71-2.19-4.01-.03-.64-.23-2.07-.27-2.28-.375-2.066-1.236-8.49.447-17.868a4.742,4.742,0,0,0,.988-1.129,4.431,4.431,0,0,0,.594-2,21.25,21.25,0,0,1,1.051-5.833,6.862,6.862,0,0,1,1.17-1.65,31.315,31.315,0,0,0-.2,5.39,21.757,21.757,0,0,0,2.2,7.55c-.32.87-.47,1.26-.47,1.26v.01c-1.62,4.5-2.13,11.08-.91,14.27a9.954,9.954,0,0,0,.5.98,23.81,23.81,0,0,1,.95-3.4,25.811,25.811,0,0,1,.4-7.82c.17-.82.38-1.65.63-2.47a12.869,12.869,0,0,1,.09,5.19c-.08,1.51-.224,2.452.23,2.49.643.055,2.536.041,4.911-.05a18.056,18.056,0,0,0,7.359-2.01c2.11-.96,4.11-1.87,6.89-1.28a1,1,0,0,1-.42,1.96c-2.13-.46-3.69.25-5.65,1.14a28.64,28.64,0,0,1-3.55,1.4,23.909,23.909,0,0,1-8.45.69c-.31.69-1.26,3.79-1.33,4.11-.5,2.15-1.651,9.167.34,12.09.135,1.491-1.09,5.16-1.23,5.61-.35,1.1-1.38,3.81-1.55,4.64a1.076,1.076,0,0,0,0,.4.95.95,0,0,0,.762.774,1.129,1.129,0,0,0,.858-.2,1.026,1.026,0,0,0,.35-.57,25.052,25.052,0,0,1,1.07-3.23c.12-.33,1.255-3.977,1.41-4.78a18.414,18.414,0,0,0,.29-4.38,3.816,3.816,0,0,1,1.45-2.56,6.726,6.726,0,0,1,4.73-1.25c3.51.41,4.04,3.65,4.11,4.63,0,0,.05,1.37.04,1.78a15.87,15.87,0,0,1-3.1,9.02,1.006,1.006,0,0,0,.26,1.39,1,1,0,0,0,1.39-.25,18.178,18.178,0,0,0,3.43-10.04,73.291,73.291,0,0,0,2.63,9.77.993.993,0,0,0,.95.7.789.789,0,0,0,.3-.05,1,1,0,0,0,.66-1.25,77.111,77.111,0,0,1-2.54-9.29c-.09-.56-.14-1.02-.17-1.44a5.388,5.388,0,0,1,3.24-4.49,5.313,5.313,0,0,1,6.02,1.18c.45.41,1.44,2.42.89,3.58a10.413,10.413,0,0,0-.39,1.17,3.338,3.338,0,0,0,.03,1.75c.15.53,1.25,2.61,1.67,3.7a15.84,15.84,0,0,1,1.11,4.27,1,1,0,0,0,1.99-.26,18.221,18.221,0,0,0-1.23-4.74c-.46-1.2-1.471-2.788-1.62-3.52a3.068,3.068,0,0,1,.43-2.07c1.97-.47,1.03-2.3,1.25-3.72a14.03,14.03,0,0,0-.52-7.37l-1.04-2.35c.02-.02,1-1.17,1.2-1.42,4.45-.44,5.41-1.52,6.36-3.18C119.326,88.573,115.456,77.733,111.036,71.893ZM64.1,66.818a1,1,0,1,1,1.879.682c-1.132,3.116-1.829,5.975-1.829,5.975a11.506,11.506,0,0,1-1.992-.21A44.823,44.823,0,0,1,64.1,66.818ZM32.646,38.023a16.939,16.939,0,0,1-.418-2.377,1,1,0,1,0-1.988.211c.058.552.142,1.077.239,1.591a3.437,3.437,0,0,1-1.758-.537,3.249,3.249,0,0,1-1.554-2.493,4.2,4.2,0,0,1,.332-1.825,8.021,8.021,0,0,0,2.682.432,1,1,0,0,0,1-1,.984.984,0,0,0-.1-.426,2.685,2.685,0,0,0,.31-.225,1.11,1.11,0,0,0,.781.283,4.59,4.59,0,0,0,2.583-1.068c.189.182.548.27,1.251-.024A10.628,10.628,0,0,1,39.467,30a.717.717,0,0,0,.116-1.421,6.469,6.469,0,0,0-3.455.47,8.977,8.977,0,0,0,.89-3.318c.086-.675.332-2.479,1.159-2.477.329,0,1.059,1.395,1.192,1.591,3.008,4.392,6.528,6.238,12.151,6.372a.986.986,0,0,0,.948-.657c.628.226,1.477.517,2.263.738a.964.964,0,0,0,.917,1.236,10.639,10.639,0,0,0,5.009-.769,2.762,2.762,0,0,1,.822,2.546,3.983,3.983,0,0,1-1.959,2.754,3.175,3.175,0,0,1-1.4.415,19.439,19.439,0,0,0,.369-2.2,1,1,0,1,0-1.988-.207,16.608,16.608,0,0,1-.568,2.953,13.77,13.77,0,0,1-5.649,7.789,11.442,11.442,0,0,1-5.876,1.965,12.242,12.242,0,0,1-6.056-1.862A12.737,12.737,0,0,1,32.646,38.023Zm4.643,10.96a9.559,9.559,0,0,1,.731-.957,13.845,13.845,0,0,0,6.386,1.75,12.966,12.966,0,0,0,6.243-1.849,10.039,10.039,0,0,1,.819,1.084,13.593,13.593,0,0,1,2.341,6.607.907.907,0,0,1-.34.679c-.886.8-3.117,1.089-4.907,1.117a24.143,24.143,0,0,0,1.017-4.207,4.457,4.457,0,0,0-.384-2.94,1,1,0,0,0-1.682,1.081,2.072,2.072,0,0,1,.123,1.074,8.575,8.575,0,0,1-6.457.122,2.165,2.165,0,0,1,.1-1.186,1,1,0,0,0-1.67-1.1,4.492,4.492,0,0,0-.355,3.115A25.715,25.715,0,0,0,40.29,57.44c-1.791-.032-4.045-.322-4.941-1.136A.922.922,0,0,1,35,55.623,13.187,13.187,0,0,1,37.289,48.983ZM47.06,67.119a.979.979,0,0,0,.6.243,2.426,2.426,0,0,0-.852.18c-1.82.87-1.993,2.337-2.125,4.656a7.076,7.076,0,0,0,.326,2.6H43.8a7.069,7.069,0,0,0,.327-2.6c-.131-2.319-.3-3.786-2.2-4.689a2.486,2.486,0,0,0-.775-.146.979.979,0,0,0,.615-.249,1,1,0,0,0,.054-1.413,2.6,2.6,0,0,0-2.282-.718V62.432a2,2,0,0,1,2-2h5.266a2,2,0,0,1,2,2v2.546a2.43,2.43,0,0,0-1.813.729A1,1,0,0,0,47.06,67.119ZM41.6,54.792a10.307,10.307,0,0,0,2.606.341,10.87,10.87,0,0,0,3.054-.455c-.29,1.191-1.118,3.636-1.159,3.753H42.736C42.694,58.312,41.84,55.738,41.6,54.792ZM23.427,66.219a1,1,0,0,1,1.282.6,45.443,45.443,0,0,1,1.95,6.448h0a8.1,8.1,0,0,1-2,.211A45.644,45.644,0,0,0,22.83,67.5,1,1,0,0,1,23.427,66.219Zm2.508,17.852c-2.825.62-6.344.306-7.839-1.786-.565-.79-.53-3.577.07-6.736a7.715,7.715,0,0,1,4.862-.294,9.335,9.335,0,0,0,3.338.122,78.475,78.475,0,0,1,8.075-1.246c.035.087.065.171.108.264a1,1,0,0,0,1.813-.847,3.036,3.036,0,0,1-.221-.685,5.149,5.149,0,0,1,.886-4.01A4.4,4.4,0,0,1,38.943,67.2c.746-.329,1.284-.28,1.413-.142a.968.968,0,0,0,.58.293,4.545,4.545,0,0,0-1.9.534A1,1,0,0,0,40,69.635a2.143,2.143,0,0,1,1.138-.29c.656.315.853.515.992,2.967a4.761,4.761,0,0,1-.664,2.841,5.7,5.7,0,0,1-2.331,1.9,13.411,13.411,0,0,0-2.876,1.425l0,0h0c-.457.314-.915.637-1.378.964C32.2,81.344,29.43,83.3,25.935,84.071ZM61.812,98.443A11.015,11.015,0,0,1,65.366,100a1,1,0,1,1-1.11,1.67,9.079,9.079,0,0,0-2.986-1.3c-2.346-.444-4.982.643-7.054,1.738a20.347,20.347,0,0,0-3.3,2.17c-.16.14-.6.615-1.12.44-1.946-.654-3.38-3.61-3.57-4.01a21.377,21.377,0,0,1-1.33-3.37,13.706,13.706,0,0,1-1.5-.39,41.082,41.082,0,0,1,.39,5.16,3.4,3.4,0,0,1-.96,2.72,2.689,2.689,0,0,1-2.27.24,50.752,50.752,0,0,1-5.02-2.96c-2.9-1.74-6.51-3.06-11.69-.36a1,1,0,1,1-.92-1.77c7.33-3.83,12.24-.56,15.49,1.61a23.871,23.871,0,0,0,2.77,1.59.877.877,0,0,0,.42.07,2.055,2.055,0,0,0,.19-1.14,33.062,33.062,0,0,0-.24-3.32,39.415,39.415,0,0,1-.1-6.25c.488-4.771-.219-12.867-.249-14.346a7.014,7.014,0,0,0,1.536-1.4h3.325a10.623,10.623,0,0,0,1.108,1.11c-.11,1.4-1.32,13.37-.7,17.25a19.317,19.317,0,0,0,.67,2.72,34.333,34.333,0,0,0,2.62,4.77c.21-.17.44-.35.69-.53C52.991,100.238,57.686,97.535,61.812,98.443Zm8.9-16.155c-1.395,1.984-5.343,2.265-7.524,1.849l-.312-.066c-3.5-.768-6.267-2.727-8.947-4.621-.463-.327-.921-.651-1.378-.964h0l0,0a13.164,13.164,0,0,0-2.873-1.425,4.611,4.611,0,0,1-3-4.745c.14-2.452.336-2.652.942-2.944a.579.579,0,0,1,.187-.019,2.467,2.467,0,0,1,1,.284,1,1,0,0,0,.975-1.747,4.575,4.575,0,0,0-1.89-.532.978.978,0,0,0,.584-.3c.086-.094.442-.176,1.037.008a4.449,4.449,0,0,1,2.288,1.8,5.056,5.056,0,0,1,.873,4.006,2.617,2.617,0,0,1-.217.7,1,1,0,1,0,1.826.815c.039-.087.066-.166.1-.248,1.517.141,8.255,1.282,11.42,1.124,1.472-.073,2.948-.522,4.845.291a27.639,27.639,0,0,1,.467,4.09C71.167,81.5,71.009,81.868,70.713,82.288Zm4.363-11.155a12.328,12.328,0,0,0-2.57,3.231,28.374,28.374,0,0,0-1.365-6.749,4.568,4.568,0,0,0,2.6-.432,10.27,10.27,0,0,0,2.95,2.48C76.206,70.073,75.646,70.573,75.076,71.133Zm13.56,2.75a3.575,3.575,0,0,1-3.06-.91c-.07.93-.6,3.23-4.16,2-1.73-.6-2.29-2.72-2.1-4.24a14.9,14.9,0,0,0,3.23.42,12.608,12.608,0,0,0,4.3-.72,11.521,11.521,0,0,0,3.76-2.35,4.018,4.018,0,0,1,.212,4.7A2.812,2.812,0,0,1,88.636,73.883Zm4.51-8.93c.12-.21.56-1.13.66-1.37a5.746,5.746,0,0,0,.1,1.05C93.646,64.733,93.4,64.843,93.146,64.953Zm.7-7.07c-.31-.49-.68-1.01-1.14-1.62a.746.746,0,1,0-1.19.9c.44.59.81,1.11,1.1,1.56a12.114,12.114,0,0,1-2.33,6.83,10.862,10.862,0,0,1-3.21,2.58,9.532,9.532,0,0,1-4.66,1.02,10.335,10.335,0,0,1-3.51-.64,8.666,8.666,0,0,1-4.08-3.21,10.405,10.405,0,0,1-.85-1.44,1,1,0,1,0-1.8.88c.13.26.27.51.42.77a3.063,3.063,0,0,1-2.228-.167c-.179-.482-.361-.965-.556-1.448q-.382-.942-.79-1.834a2.8,2.8,0,0,1,2.864.039c.05.24.08.39.09.42a.992.992,0,0,0,.97.76.974.974,0,0,0,.24-.02,1,1,0,0,0,.73-1.21c-.29-1.2-.77-4.76.51-6.92.22-.37.78-.26,1.08.08a7.942,7.942,0,0,0,6.21,2.89,8.577,8.577,0,0,0,3.72-.82.992.992,0,0,0,.46-1.33c1.37-.52,4.744-1.786,5.673-2.212a1.129,1.129,0,0,0,.477-1.428c.679.553.952.7,1.492.6a1.252,1.252,0,0,1,1.308.42,2.51,2.51,0,0,1,.47.97,3.5,3.5,0,0,1-.62,2.88A1.985,1.985,0,0,1,93.846,57.883Zm12.21,41.74c-.01.02-1.45,1.5-1.84,1.88a6.654,6.654,0,0,1-.74.61,8.134,8.134,0,0,1-3.66,1.63,2.64,2.64,0,0,1-2.13-.7,2.414,2.414,0,0,1-.64-.93,1.554,1.554,0,0,1-.07-.58.984.984,0,0,0-.23-.71,5.274,5.274,0,0,0,.66.16c.051.009.375.045.5.05a.979.979,0,0,0,.99-.94,1.01,1.01,0,0,0-.93-1.06,2.274,2.274,0,0,1-.71-.19.559.559,0,0,1-.19-.13.754.754,0,0,1,.25-.63,2.625,2.625,0,0,1,1.16-.36l.5-.08a4.41,4.41,0,0,0,3.36-1.74,6.74,6.74,0,0,0,1.04-2.25,22.151,22.151,0,0,0,.65-4.11,12.018,12.018,0,0,0-2.63-8.93c-.57-.68-1.19-1.32-1.85-2.01-2.72-2.81-5.52-5.73-3.93-10.96a12.122,12.122,0,0,1,5.23,2.85c3.89,3.34,8.52,9.62,8.74,16.35C109.746,91.633,109.586,95.363,106.056,99.623Z"/><path d="M111.643,2.941a13.364,13.364,0,1,0,13.363,13.364A13.366,13.366,0,0,0,111.643,2.941Zm1,13.364a.927.927,0,0,1-.36.769l-2.333,1.94a1,1,0,0,1-1.28-1.538l1.973-1.641V10.6a1,1,0,1,1,2,0Z"/></svg>