<svg id="Solid" xmlns="http://www.w3.org/2000/svg" viewBox="0 0 128 128"><title>game, center, arcade, shop, city, building, construction</title><path d="M126.406,124.611H123.2V43.521a8.548,8.548,0,0,0-8.54-8.54H41.6a24.388,24.388,0,0,0-24.35,24.36v5.54H31.21a7.682,7.682,0,0,1,3.21.7,7.862,7.862,0,0,1,1.142.647,7.471,7.471,0,0,1,1.088.893,12.913,12.913,0,0,1,12.7-10.68h15.2v68.17H39.888V97.687a5.244,5.244,0,0,0-3.429-4.905V72.631a5.256,5.256,0,0,0-5.25-5.25H12.124a5.256,5.256,0,0,0-5.25,5.25v20.15a5.244,5.244,0,0,0-3.433,4.906v26.924H1.625a1.25,1.25,0,0,0,0,2.5H126.406a1.25,1.25,0,0,0,0-2.5ZM34.328,109.747a3.915,3.915,0,0,1-3.915,3.915h-5.6a3.915,3.915,0,0,1,0-7.829h5.6A3.914,3.914,0,0,1,34.328,109.747Zm-22.1-35.322a2,2,0,0,1,2-2H29.107a2,2,0,0,1,2,2V87.893a2,2,0,0,1-2,2H14.226a2,2,0,0,1-2-2Zm-.07,25.713a2.909,2.909,0,1,1-2.909,2.909A2.908,2.908,0,0,1,12.156,100.138Zm0,13.636a2.91,2.91,0,1,1-2.909,2.909A2.909,2.909,0,0,1,12.156,113.774ZM67.05,124.611V56.441H92.94v68.17Zm28.39,0V56.441H120.7v68.17Z"/></svg>