<svg id="Solid" xmlns="http://www.w3.org/2000/svg" viewBox="0 0 128 128"><title>hand, bandage, gauze, medical, treatment, hospital, heal</title><path d="M50.923,96.976c.139.176,1.062,1.821,1.113,1.938,11.117,5.827,29.695,2.046,33.578,1.16a25.864,25.864,0,0,1,.865-6.467c.479-1.393.922-2.706,1.339-3.979-6.966,4.462-18.85,7.849-29.91,7.849A47.2,47.2,0,0,1,50.923,96.976Z"/><path d="M85.546,102.145a83.473,83.473,0,0,1-17.31,1.984c-5.2,0-10.7-.646-15.35-2.605,1.154,4.81,1.024,11.366.807,15.229a2,2,0,0,0,2,2.105H84.153a2,2,0,0,0,1.988-2.21A122.024,122.024,0,0,1,85.546,102.145Z"/><path d="M54.449,83.531c-1-2.979-4.636-12.2-12.315-16.47-4.5,1.942-8.439.4-12.248-1.109a30.117,30.117,0,0,0-4.859-1.618c-5.033-1.05-9.082-.728-10.831.858a3.665,3.665,0,0,0-1.028,3.333c.146,1.379,3.148,2.542,6.625,3.889,5.064,1.961,11.971,4.644,17.317,10.449A50.088,50.088,0,0,0,54.449,83.531Z"/><path d="M55.876,85.374a61.144,61.144,0,0,1-8.482.613,49.34,49.34,0,0,1-7.983-.638c3.141,3.345,6.526,6.69,9.032,9.132.133.031.26.059.385.081,13.522,2.971,32.433-1.907,40-8.124a130.743,130.743,0,0,0,3.56-15.055C79.694,79.429,66.024,83.937,55.876,85.374Z"/><path d="M46.714,59.8c-.077.447-.165.874-.263,1.289,8.7,9.61,31.486,13.918,34.3,14.417a95.025,95.025,0,0,0,12.1-6.81s.73-4.657.963-6.444a52.024,52.024,0,0,1-16.4,2.313A112.81,112.81,0,0,1,46.714,59.8Z"/><path d="M71.222,15.936c0-4.132-1.172-6.379-3.119-6.651a3.923,3.923,0,0,0-4.3,2.86c-.712,2.392-1.373,8.5-1.648,15.206-.021.648-1.473,19.593-1.56,20.783a82.3,82.3,0,0,1,9.924.712C70.443,43.337,71.222,18.443,71.222,15.936Z"/><path d="M56.468,83.249a88.208,88.208,0,0,0,21.125-6.318c-6.967-1.444-23.663-5.61-31.8-13.644A7.024,7.024,0,0,1,44.1,65.9C52.1,70.942,55.613,80.543,56.468,83.249Z"/><path d="M82.737,15.967a3.059,3.059,0,0,0-.616-1.191A3.48,3.48,0,0,0,78.775,13.6,2.808,2.808,0,0,0,76.7,16.08c-.285,1.778-.786,9.72-1.332,17.509-.469,6.7-.971,13.281-1.4,15.735,2.88.432,5.916.974,9.229,1.649.095-3.093.3-10.138.346-17.169C83.6,26.111,83.447,18.434,82.737,15.967Z"/><path d="M119.943,65.1h-.509a.635.635,0,0,1-.634-.634v-.509a2.943,2.943,0,0,0-2.94-2.939h-2.033a2.943,2.943,0,0,0-2.94,2.939v.506a.634.634,0,0,1-.634.634h-.5a2.943,2.943,0,0,0-2.94,2.94v2.036a2.943,2.943,0,0,0,2.94,2.94h.5a.634.634,0,0,1,.634.634v.5a2.943,2.943,0,0,0,2.94,2.94h2.033a2.943,2.943,0,0,0,2.94-2.94v-.508a.635.635,0,0,1,.634-.634h.509a2.943,2.943,0,0,0,2.94-2.94v-2.03A2.943,2.943,0,0,0,119.943,65.1Z"/><path d="M108.061,89.349h-.368a.46.46,0,0,1-.459-.459v-.369a2.131,2.131,0,0,0-2.129-2.129h-1.473a2.131,2.131,0,0,0-2.129,2.129v.366a.458.458,0,0,1-.459.459h-.366a2.131,2.131,0,0,0-2.129,2.129V92.95a2.131,2.131,0,0,0,2.129,2.129h.366a.459.459,0,0,1,.459.459V95.9a2.131,2.131,0,0,0,2.129,2.129h1.473a2.131,2.131,0,0,0,2.129-2.129v-.368a.46.46,0,0,1,.459-.459h.368a2.131,2.131,0,0,0,2.129-2.129v-1.47A2.131,2.131,0,0,0,108.061,89.349Z"/><path d="M92.944,25.873c-.764.071-1.858.4-2.513,2.379-.544,1.642-.01,4.07-.371,7.2a152.825,152.825,0,0,1-3.042,16.341c2.124.477,3.446.813,3.462.817a1,1,0,0,1,.721,1.216.973.973,0,0,1-.968.753c-.961-.055-20.643-4.48-30.866-4.425-.319,0-3.6.251-4.625.457a1,1,0,1,1-.392-1.961,25,25,0,0,1,2.81-.384c-.769-4.63-2.887-17.37-3.585-23.325-.087-.748-.181-1.54-.2-1.747-.464-4.506-1.144-7.284-2.15-8.808a3.008,3.008,0,0,0-2.263-1.432,3.045,3.045,0,0,0-2.474,1.017c-2.351,2.574-1.683,9.174-.672,19.163.405,3.995,1.308,15.116,1.336,15.827,15.675,7.113,42.22,7.684,47.367,7.725,0,0,.929-7.475,1.164-8.934,1.538-9.668.949-18.827-1.369-21.3A1.557,1.557,0,0,0,92.944,25.873Z"/><path d="M46.983,57.784c13.844,4.171,34.041,7.135,47.116,2.233l.168-1.334c-5.706-.038-30.964-.607-47.043-7.5A52.232,52.232,0,0,1,46.983,57.784Z"/></svg>