<svg id="Solid" xmlns="http://www.w3.org/2000/svg" viewBox="0 0 128 128"><title>healthcare, medical, hospital, avatar, people, surgeon, man</title><path d="M71.546,44.3a19.856,19.856,0,0,1,7.633-.236c1.788.43,2.38.223,2.651-.3a1.089,1.089,0,0,0-.455-1.394c-2.666-1.646-7.335-1.574-9.962-.5a4.359,4.359,0,0,0-1.405.9C69.475,43.474,69.73,44.7,71.546,44.3Z"/><path d="M75.326,44.587a2.246,2.246,0,0,0-2.247,2.246v.978a2.247,2.247,0,1,0,4.493,0v-.978A2.245,2.245,0,0,0,75.326,44.587Z"/><path d="M56.44,41.873c-2.626-1.072-7.3-1.144-9.961.5a1.087,1.087,0,0,0-.455,1.394c.27.518.862.725,2.65.3a19.861,19.861,0,0,1,7.634.236c1.816.4,2.07-.826,1.538-1.526A4.352,4.352,0,0,0,56.44,41.873Z"/><path d="M52.527,44.587a2.246,2.246,0,0,0-2.246,2.246v.978a2.247,2.247,0,1,0,4.493,0v-.978A2.246,2.246,0,0,0,52.527,44.587Z"/><path d="M87.113,57.749a1,1,0,0,0,.816-.421A4.671,4.671,0,0,1,90.822,55.3a1,1,0,1,0-.227-1.987,6.629,6.629,0,0,0-4.3,2.857,1,1,0,0,0,.238,1.394A.989.989,0,0,0,87.113,57.749Z"/><path d="M37.257,53.314a1,1,0,0,0-.226,1.987,4.7,4.7,0,0,1,2.893,2.027,1,1,0,1,0,1.631-1.157A6.628,6.628,0,0,0,37.257,53.314Z"/><path d="M100.316,109.177c-7.71-10.21-16.65-14.65-23.57-17.37-2.05-.81-4.61-1.82-5.02-8.3V83.5l-.16-2.316A25.6,25.6,0,0,0,86.7,64.789c.067-.2.293-.156.432-.156a7.431,7.431,0,0,0,3.9-1.21,10.067,10.067,0,0,0,4.01-4.89,8.493,8.493,0,0,0,.12-6.56,5.265,5.265,0,0,0-1.06-1.51c1.82-3.79,2.22-9.83,2.24-12.9.08-18.27-13.91-33.08-32.42-33.08-18.46,0-32.42,14.73-32.42,32.92v.16c.02,3.07.42,9.11,2.24,12.9a5.236,5.236,0,0,0-1.05,1.51,8.533,8.533,0,0,0,.11,6.56c1.22,3.26,4.5,6.11,7.89,6.11.143,0,.357-.059.444.114a25.609,25.609,0,0,0,15.3,16.489L56.3,83.427a14.189,14.189,0,0,1-1,4.779c-1.358-3.111-3.321-3.914-4.843-3.532a2.741,2.741,0,0,0-2.1,3.08,4.413,4.413,0,0,0,1.9,2.69,3.971,3.971,0,0,1-.78-.13,3.02,3.02,0,0,1-1.89-1.79,1,1,0,0,0-1.82.85,5.037,5.037,0,0,0,3.15,2.86,5.569,5.569,0,0,0,.873.172A50.9,50.9,0,0,0,27.7,109.177a5.775,5.775,0,0,0-1.41,4.71c.49,2.27,2.82,3.74,4.53,4.65a30.673,30.673,0,0,0,5.77,2.39c-.02-.17-.454-6.365-.483-7.713-.12-5.5.1-8.58,1.63-10.14a3.331,3.331,0,0,1,2.45-.97h.02c1.59.01,2.45,1.25,2.93,2.57,1.72-2.85,4.19-5.05,7.29-5.42,4.37-.54,7.99,1.92,9.9,6.74,1.97,4.95-1.58,10.76-4.43,15.44-.19.31-1.77,2.77-1.81,2.84,2.88.26,7.32.41,9.95.41,2.7,0,7.13-.33,9.92-.59,0-.01-.01-.01-.01-.02-.35-.6-1.53-2.39-1.69-2.65-2.47-4.05-5.629-8.973-4.93-13.4a9.883,9.883,0,0,1,.51-2.03c1.91-4.82,5.52-7.28,9.89-6.74,3.11.37,5.57,2.57,7.3,5.42.47-1.32,1.34-2.56,2.92-2.57h.03a3.292,3.292,0,0,1,2.44.97c1.16,1.16,1.57,3.18,1.65,6.42.03,1.04-.527,11.213-.547,11.363a34.845,34.845,0,0,0,5.68-2.32c1.71-.91,4.04-2.38,4.53-4.65A5.775,5.775,0,0,0,100.316,109.177Zm-49.163-20.5a1.761,1.761,0,0,1-.84-1.31.824.824,0,0,1,.86-.78c.72,0,1.63.79,2.37,2.59A4.313,4.313,0,0,1,51.153,88.674ZM92.076,51.393a3.06,3.06,0,0,1,1.27,1.43,6.684,6.684,0,0,1-.17,5.01,8.019,8.019,0,0,1-3.2,3.89,4.76,4.76,0,0,1-4.074.7,15.258,15.258,0,0,0-.59-4.233,15.468,15.468,0,0,0-.784-2.092c.135-.108,1.458-1.3,1.5-1.346a28.5,28.5,0,0,0,3.185-3.688A4.351,4.351,0,0,1,92.076,51.393ZM42.564,58.1a19.1,19.1,0,0,0-.6,4.314c-2.766.965-6.175-1.646-7.284-4.585a6.684,6.684,0,0,1-.17-5.01,3.11,3.11,0,0,1,1.27-1.43,3.9,3.9,0,0,1,2.86-.33c.032.042,2.2,2.728,3.2,3.7.028.028,1.488,1.33,1.488,1.33A21.321,21.321,0,0,0,42.564,58.1Zm3.766-4.933A16.04,16.04,0,0,0,44.519,54.5a24.055,24.055,0,0,1-4.233-4.572c1.16-6.69,10.91-16.45,23.64-16.45a26.32,26.32,0,0,1,16.16,5.72c4.17,3.27,6.9,7.39,7.48,10.73-.37.51-.75,1.01-1.14,1.47a42.1,42.1,0,0,1-3.092,3.1h0a13.858,13.858,0,0,0-1.81-1.324c-4.735-2.752-12.432-4.319-17.583-4.223A42.359,42.359,0,0,0,46.33,53.171ZM63.443,90.6a23.942,23.942,0,0,1-6.679-.835,14.793,14.793,0,0,0,1.522-6.212l.113-1.648a19.46,19.46,0,0,0,5.4.872h.251a19.542,19.542,0,0,0,5.552-.913l.122,1.769v.01a14.45,14.45,0,0,0,1.592,6.3A52.91,52.91,0,0,1,63.443,90.6Z"/><path d="M88.038,104.554c-2.264.079-2.563,4.218-2.563,4.218-1.489-3.269-4.872-6.937-8.344-7.25-3.812-.343-5.676,2.141-7.187,5.473-1.969,4.34,2.343,10.641,5.315,15.091.967,1.447,2.128,3.618,4.039,3.536a53.051,53.051,0,0,0,7.708-1.041c2.144-.458,2.382-2.826,2.534-4.755.183-2.317.41-5.424.446-6.831C90.124,107.51,89.819,104.491,88.038,104.554Z"/><path d="M39.905,104.554c2.284.079,2.585,4.218,2.585,4.218,1.5-3.269,4.914-6.937,8.416-7.25,3.846-.343,5.726,2.141,7.25,5.473,1.987,4.34-2.363,10.641-5.361,15.091-.975,1.447-2.147,3.618-4.074,3.536a53.983,53.983,0,0,1-7.776-1.041c-2.162-.458-2.4-2.826-2.556-4.755-.184-2.317-.413-5.424-.449-6.831C37.8,107.51,38.108,104.491,39.905,104.554Z"/></svg>