<svg id="Solid" xmlns="http://www.w3.org/2000/svg" viewBox="0 0 128 128"><title>healthcare, medical, hospital, people, advice, informative, talking</title><path d="M69.409,6.316c-3.075-.011-6.139-.011-9.214,0a12.462,12.462,0,0,0-12.33,12.437v1.676A12.484,12.484,0,0,0,58.754,32.781s-1.046,3.064-.907,3.94c.085.576,5.978-3.844,5.978-3.844h5.584A12.479,12.479,0,0,0,81.75,20.429c.011-.555.011-1.11,0-1.676A12.477,12.477,0,0,0,69.409,6.316Zm-10.121,15.6a1.932,1.932,0,1,1,1.932-1.932A1.931,1.931,0,0,1,59.288,21.913ZM65.6,22.1a1.308,1.308,0,1,1,1.314-1.313A1.313,1.313,0,0,1,65.6,22.1Zm5.36-1.559a.924.924,0,1,1,0-1.847.924.924,0,0,1,0,1.847Z"/><path d="M80.674,54.846A1.178,1.178,0,0,0,79.5,56.025V57.03a1.178,1.178,0,1,0,2.356,0V56.025A1.178,1.178,0,0,0,80.674,54.846Z"/><path d="M38.011,60.382a1,1,0,0,0,0,2c.321,0,.511.462.511.462a1,1,0,0,0,.941.66,1.016,1.016,0,0,0,.34-.06,1,1,0,0,0,.6-1.281A2.64,2.64,0,0,0,38.011,60.382Z"/><path d="M76.3,91.03c-1.171-3.04-3.081-5.16-5.231-5.81a4.586,4.586,0,0,0-4.07.69,9.133,9.133,0,0,0-2.139,3.05,5.149,5.149,0,0,0-1.641-2.18,2.72,2.72,0,0,0-2.25-.45c-1.849.47-1.84,2.41-1.83,3.45l.03,2.16.011.51c.019,1.66.039,3.35.069,4.62.01.524.02.982.03,1.337a2.9,2.9,0,0,1-.05.353,6.552,6.552,0,0,1-.88,1.19,1.307,1.307,0,0,0-.27-.12,1.143,1.143,0,0,0-.8.11c-.25.16-4.49,3.15-5.28,3.75a51.745,51.745,0,0,1,4.491,14.2,66.158,66.158,0,0,0,9.839-9.39,1.012,1.012,0,0,0-.16-1.41,2.835,2.835,0,0,0-.38-.18c1.29-1.03,5.53-3.57,5.84-3.79C77.678,98.79,77.507,94.16,76.3,91.03Zm-5.841,10.46a75.224,75.224,0,0,0-6.51,4.36,21.859,21.859,0,0,1-4.35-4.3,4.946,4.946,0,0,0,1.68-3.18c-.021-4.879-.761-9.83.17-10.09a.659.659,0,0,1,.62.14,5.532,5.532,0,0,1,1.56,3.66,1.089,1.089,0,0,0,.671.83,5.857,5.857,0,0,1,1.969,1.64A1,1,0,0,0,67.9,93.4a7.552,7.552,0,0,0-2.01-1.89c.671-1.59,1.65-3.52,2.28-3.98a2.573,2.573,0,0,1,2.321-.39c1.56.46,3,2.15,3.949,4.61C75.837,95.39,74.537,98.58,70.457,101.49Z"/><path d="M24.062,73.564c1.464,1.278,2.793,2.54,4,3.639a1.366,1.366,0,0,0,1.845,0c2.127-1.944,6.726-4.844,7.261-9.951a5.54,5.54,0,0,0,1.751.293,1,1,0,0,0,0-2,3.164,3.164,0,0,1-1.929-.57,3.621,3.621,0,0,1-1.611-2.96,3.538,3.538,0,0,1,3.54-3.53,3.854,3.854,0,0,1,1.83.51,1.1,1.1,0,0,0,.718.144,1.019,1.019,0,0,0,.382-.184,31.786,31.786,0,0,0,4.8-4.36c.391-.434.774-.888,1.148-1.356a16.3,16.3,0,0,0-.426,4.89,12.551,12.551,0,0,0,1.277,4.633c.978,1.82,2.092,2.151,2.772,2.151.07,0,.135,0,.194-.009.646-.061,1.83-.488,2.513-2.659.048-.154.08-.329.121-.492.549.425,1.531,1.292,1.552,1.952a2.888,2.888,0,0,1-1.161,1.82,5.314,5.314,0,0,0-1.73,3.14c0,.038,0,.078-.01.117a17.673,17.673,0,0,1-1.958-.273v.726a2.147,2.147,0,0,0,2.079,2.135c.062,2.2-.368,3.59-1.351,4.355-1.33,1.05-3.92.96-6.19.89-2.44-.08-4.54-.15-5.73.97a13.835,13.835,0,0,0-2.693,3.938h0a6.815,6.815,0,0,0-.463,1.141,45.761,45.761,0,0,0-7.516-4.558,29.412,29.412,0,0,0-5.712,7.121,28.451,28.451,0,0,1,10.817,3.6A76.76,76.76,0,0,1,48.361,99.118c-2.52-5.2-4.585-9.124-7.094-11.975a36.159,36.159,0,0,0-3.06-3.122,10.756,10.756,0,0,1,2.911-4.981c.579-.55,2.549-.48,4.289-.42,2.62.08,5.59.18,7.49-1.31,1.52-1.19,2.211-3.16,2.12-6.03-.01-.59-.06-1.23-.14-2a1.359,1.359,0,0,1,.01-.33,3.312,3.312,0,0,1,1.09-1.93,4.7,4.7,0,0,0,1.821-3.4,4.073,4.073,0,0,0-1.9-3.09,6.822,6.822,0,0,1-1.331-1.321,15.209,15.209,0,0,0-.053-1.749,13.94,13.94,0,0,0-.817-3.615A18.963,18.963,0,0,0,51.928,45.7a12.39,12.39,0,0,0,.44-5.79c-.82-4.64-5.361-9.32-13.63-9.33-6.211,0-10.791,2.9-15.211,5.7a47.813,47.813,0,0,1-8.039,4.39C5.548,44.58,1.167,52.85,1.967,59c1.38,10.59,9.451,14.566,14.54,14.72C19.288,73.8,23.77,73.616,24.062,73.564Zm26.8-25.114a15.994,15.994,0,0,1,.6,2.457,2.147,2.147,0,0,0-2.035.048A23.55,23.55,0,0,0,50.858,48.45Zm-1.193,5.494c.292-.928.66-1.255.793-1.267h.017c.264,0,.771.543,1.223,1.575,0,.177,0,.355,0,.529a11.907,11.907,0,0,0,.411,3.93,6.333,6.333,0,0,0,.441,1.021,8.454,8.454,0,0,1-.332,1.919c-.292.929-.66,1.255-.793,1.267s-.555-.238-1.016-1.1a8.947,8.947,0,0,1-.755-2.136,1.158,1.158,0,0,0,.4.081,1.174,1.174,0,0,0,1.174-1.174V57a1.174,1.174,0,0,0-1.174-1.174,1.154,1.154,0,0,0-.727.275A8.81,8.81,0,0,1,49.665,53.944Z"/><path d="M22.868,86.1a65.567,65.567,0,0,0-7.56,24c-.241,3.23-.221,7.29-.181,9.67a2,2,0,0,0,1.991,1.96l9.056.009a1,1,0,0,0,.979-1.181c-1.473-8.557.118-17.726,3.864-21.778a6.253,6.253,0,0,1,5.541-2.2,1.008,1.008,0,0,1,.87,1.12,1.032,1.032,0,0,1-1.13.87,4.269,4.269,0,0,0-3.81,1.56c-3.358,3.636-4.339,13.659-3.241,20.779a1,1,0,0,0,.989.833l14.7.044a1,1,0,0,0,.98-1.213c-.617-3.091-3.369-15.473-6.67-19.973a1,1,0,1,1,1.611-1.18c3.549,4.84,6.273,16.842,7.22,21.6.091.456.5.771,1.381.771h4.307a1,1,0,0,0,1-1.046c-.245-4.679-2.665-12.512-6.409-20.224C41.887,94.27,31.067,87.075,22.868,86.1Z"/><path d="M126.137,62.03c.03-4.9-2.106-6.505-4.17-8.06a15.584,15.584,0,0,1-4.419-5.84c-2.391-6.27-8.19-18.99-29.451-15.99-6.58.94-12.9,5.37-15.21,9.12a9.533,9.533,0,0,0-.14,7.78,6.031,6.031,0,0,0,3.95,3.47,6.692,6.692,0,0,1,.32,3.85,7.934,7.934,0,0,1-1.86,2.84,3.566,3.566,0,0,0-1.28,2.54,3.633,3.633,0,0,0,1.89,2.94l.1.07c.549.41,2.019,1.48,2.009,2.2-.019,2.29-.05,6.56,2.921,8.29,1.7.98,3.639.8,5.349.65a7.067,7.067,0,0,1,3.58.21c.86.41,3.1,4.73,1.55,7.96v.01a69.5,69.5,0,0,1-5.36,8.12,70.608,70.608,0,0,0-5.85,8.98c-1.459,3.14-2.04,5.26-1.36,8.82.36,1.86,2.631,4.833,3.5,5.99a8.465,8.465,0,0,1,1.266,4.762,1.008,1.008,0,0,0,1,1.058H89.1a1,1,0,0,0,.981-.81c.845-4.413,5.14-25.425,10.419-27.08a4.063,4.063,0,0,1,5.16,3.31.17.17,0,0,0,.01.07c1.094,5.268-2.507,19.013-3.682,23.249a1,1,0,0,0,.966,1.261h6.129a.991.991,0,0,0,.971-.761c1.55-6.537,5.579-26.548-4.416-40.3A17.528,17.528,0,0,1,103.7,76.91c.731-.03,1.5-.08,2.38-.15C115.608,75.94,126.1,68.23,126.137,62.03ZM85.957,73.89c-1.55.15-3.01.28-4.159-.38-1.591-.92-1.881-3.24-1.921-5.56a7.2,7.2,0,0,0,2.02-.46,1,1,0,0,0,.54-1.31.985.985,0,0,0-1.3-.54,5.009,5.009,0,0,1-1.47.32,7.819,7.819,0,0,0-2.71-2.89c-.748-.552-1.08-.84-1.08-1.34,0-.34.181-.56.741-1.17a9.84,9.84,0,0,0,2.269-3.49,6.521,6.521,0,0,0-.06-4.2c3.89.51,6.56,1.77,8.11,3.86,1.66,2.24,2.051,5.44,1.19,9.79a7.719,7.719,0,0,0,1.361,6.77,7.1,7.1,0,0,0,1.009.97A8.825,8.825,0,0,0,85.957,73.89Zm7.62,9.6a10.358,10.358,0,0,0-2.219-8.62c2.279,1.39,5.659,2.1,10.1,2.1h.1c.529,1.34,1.069,2.5,1.43,3.25C100.6,81.36,96.267,83.19,93.577,83.49Z"/></svg>