<svg id="Solid" xmlns="http://www.w3.org/2000/svg" viewBox="0 0 128 128"><title>healthcare, avatar, hospital, doctor, nurse, woman, assistant</title><path d="M70.352,44.511c2.052-.651,7.515-1.137,10.365,1.656a1,1,0,0,0,1.4-1.429c-3.809-3.732-10.371-2.766-12.369-2.134a1,1,0,1,0,.6,1.907Z"/><path d="M76.02,48.12c-2.228,0-3.974,1.4-3.974,3.181a1,1,0,0,0,1.4.916v1.661a2.082,2.082,0,1,0,4.163,0V51.984a2.079,2.079,0,0,0-1.1-1.822c.894.144,1.485.663,1.485,1.139a1,1,0,1,0,2,0C79.994,49.517,78.248,48.12,76.02,48.12Z"/><path d="M63.673,62.257c.025,0,2.454-.041,2.454-1.506a1,1,0,0,0-1.786-.618,2.692,2.692,0,0,1-.668.124,2.575,2.575,0,0,1-.656-.124,1,1,0,0,0-1.787.618C61.23,62.216,63.649,62.257,63.673,62.257Z"/><path d="M51.381,48.12c-2.228,0-3.974,1.4-3.974,3.181a1,1,0,0,0,2,0c0-.476.591-1,1.485-1.139a2.079,2.079,0,0,0-1.1,1.822v1.894a2.082,2.082,0,1,0,4.163,0V52.217a1,1,0,0,0,1.4-.916C55.355,49.517,53.609,48.12,51.381,48.12Z"/><path d="M63.673,69.219c2.186,0,3.883-.842,4.541-2.252a1,1,0,1,0-1.813-.845c-.247.53-1.094,1.1-2.728,1.1s-2.47-.567-2.718-1.1a1,1,0,1,0-1.812.847C59.8,68.377,61.5,69.219,63.673,69.219Z"/><path d="M97.938,107.354A46.676,46.676,0,0,0,87.173,96.959a13.042,13.042,0,0,0,5.921-1.584,11.215,11.215,0,0,0,5.04-9.56,9.985,9.985,0,0,0-5.5-8.69c-3.09-1.73-5.2-.97-7.86-.01a18.426,18.426,0,0,1-6.31,1.4c.45-.34,1.53-1.26,1.63-1.35a24.934,24.934,0,0,0,6.55-9.14,7.059,7.059,0,0,0,1.44.16,9.123,9.123,0,0,0,8.02-5.87c1.52-4.03.36-7.76-2.86-9.27a8.414,8.414,0,0,0-.92-.35c2.24-4.31,2.7-7.89,2.7-12.79,0-12.26-6.79-23.5-16.14-26.74a13.553,13.553,0,0,1-3.65-1.96A20.307,20.307,0,0,0,63.7,7.665c-16.75,0-30.89,14.77-30.89,32.24a27.379,27.379,0,0,0,2.72,12.62,8.114,8.114,0,0,0-.88.24,6.023,6.023,0,0,0-3.57,3.16,8.267,8.267,0,0,0,.04,6.39,9.1,9.1,0,0,0,8.02,5.87,7.059,7.059,0,0,0,1.44-.16c3.639,8.821,11.615,13.126,15.6,14.786-.4,4.383-1.913,7.062-4.625,8.132-.4.154-1.371.561-1.782.736A48.107,48.107,0,0,0,29.3,107.354a5.5,5.5,0,0,0-1.348,4.492c.474,2.159,2.685,3.561,4.306,4.427,5.709,3.052,19,6.209,31.356,6.209s25.646-3.157,31.367-6.209c1.618-.864,3.824-2.263,4.3-4.421A5.508,5.508,0,0,0,97.938,107.354ZM88.4,60.675a4.228,4.228,0,0,1,2.64-1.94,1.04,1.04,0,0,0,.84-1.14,1.009,1.009,0,0,0-1.14-.84,5.653,5.653,0,0,0-2.05.89c.09-.99.18-2.06.27-3.29a7.23,7.23,0,0,1,2.96.28c.15.06.29.11.45.19,2.28,1.07,3.01,3.72,1.86,6.76-1.01,2.71-3.97,4.99-6.9,4.51A42,42,0,0,0,88.4,60.675Zm-55.41.92a6.308,6.308,0,0,1-.1-4.84,3.991,3.991,0,0,1,2.43-2.12,7.1,7.1,0,0,1,2.94-.28c.09,1.18.18,2.27.27,3.3a5.578,5.578,0,0,0-2.05-.9.986.986,0,0,0-1.13.82,1.079,1.079,0,0,0,.81,1.16,4.3,4.3,0,0,1,2.66,1.94,45.314,45.314,0,0,0,1.07,5.42C36.949,66.575,34,64.3,32.989,61.6Zm9.12,4.86a22.822,22.822,0,0,1-1.25-5.47c-.24-2.19-.41-4.32-.62-6.97a27.276,27.276,0,0,0,9.51-9.6,14.172,14.172,0,0,1,7.11.1,1,1,0,0,0,.61-1.91,16.768,16.768,0,0,0-6.32-.5c1.02-1.77,1.95-3.56,2.85-5.31,4.08-7.89,7.3-14.12,15.29-12.56a7.484,7.484,0,0,1,1.46.54,7.56,7.56,0,0,0,2.15.72c6.73.87,7.74,6.95,8.9,13.99.86,5.23,1.76,10.63,5.2,14.34-.23,2.98-.41,5.02-.64,7.16a22.3,22.3,0,0,1-7.6,14.67c-.53.47-1.06.92-1.6,1.33a27.677,27.677,0,0,1-7.56,4.22,39.955,39.955,0,0,1-5.99,1.44,12.784,12.784,0,0,1-2.82-.43c-.889-.216-2.737-.847-3.18-1.01C54.056,79.905,45.489,75.675,42.109,66.455Zm21.52,37.33a1,1,0,0,1-.47-.12c-.43-.23-10-5.38-13.24-9.87,0,0,1.979-.858,2.369-1.009,3.284-1.3,4.947-4.67,5.831-9.261a46.186,46.186,0,0,0,5.5,1.24,37.509,37.509,0,0,0,5.48-1.24c.086.516.3,1.85.418,2.328.939,3.668,2.586,5.814,5.415,6.935.388.15,2.11.886,2.366,1-3.25,4.47-12.769,9.649-13.189,9.879A1.034,1.034,0,0,1,63.629,103.785Zm19.93,10.26a1.656,1.656,0,0,1-1.66,1.66h-8.05a1.654,1.654,0,0,1-1.65-1.66v-4.21a1.654,1.654,0,0,1,1.65-1.66H81.9a1.656,1.656,0,0,1,1.66,1.66Z"/></svg>