<svg id="Solid" xmlns="http://www.w3.org/2000/svg" viewBox="0 0 128 128"><title>healthcare, medical, hospital, medicine, drug, pharmacy, pills</title><path d="M94.655,55.534a.774.774,0,0,0,.773-.773V44.591a8.74,8.74,0,0,0-8.644-8.612C81.166,35.8,72.631,35.7,64.1,35.7s-17.068.093-22.687.277a8.74,8.74,0,0,0-8.645,8.612v10.17a.774.774,0,0,0,.774.773Z"/><path d="M60.542,18.8l3.127-1.566a10.6,10.6,0,0,1-3.41-4.9,9.05,9.05,0,0,1-.529-3.359l-3.284,1.646a4.574,4.574,0,0,0,4.1,8.179Z"/><path d="M19.169,19.607a10.177,10.177,0,0,1-1.421,4.151,12.173,12.173,0,0,1-4,4.188,8.186,8.186,0,0,0,3.927.558,4.477,4.477,0,0,0,3.491-2.064,4.472,4.472,0,0,0,.042-4.056A7.979,7.979,0,0,0,19.169,19.607Z"/><path d="M7.488,61.162a3.476,3.476,0,1,0,2.461,1.017A3.473,3.473,0,0,0,7.488,61.162Z"/><path d="M16.021,22.748a7.176,7.176,0,0,0,1.122-4.523,8.94,8.94,0,0,0-4.07-1.07,4.769,4.769,0,0,0-4.312,2.121,4.473,4.473,0,0,0-.042,4.055,8.348,8.348,0,0,0,2.889,3.452A9.283,9.283,0,0,0,16.021,22.748Z"/><path d="M120.255,29.774a8.414,8.414,0,0,0-.167-10.473h0a8.371,8.371,0,0,0-5.689-3.04c-.281-.028-.562-.042-.84-.042a8.337,8.337,0,0,0-4.72,1.459C114.411,19.717,119.062,25.173,120.255,29.774Z"/><path d="M65.818,16.161l6.4-3.207a4.574,4.574,0,0,0-4.1-8.179L62.047,7.819a5.145,5.145,0,0,0,.1,3.869A7.344,7.344,0,0,0,65.818,16.161Z"/><path d="M117.036,64.051c-2.374,1.823-3.41,4.627-2.261,6.124s4.127,1.22,6.5-.6,3.409-4.629,2.261-6.125S119.41,62.227,117.036,64.051Z"/><path d="M118.518,31.46c-.368-4.006-5.281-10.587-11.395-12.23a8.419,8.419,0,0,0,11.395,12.23Z"/><path d="M93.268,59.964a8.163,8.163,0,0,1-1.977-2.43H36.914a8.6,8.6,0,0,1-1.988,2.43,13.492,13.492,0,0,0-4.739,10.275v36.29c0,9.353,9.542,11.679,13.645,12.246,10.054,1.388,30.509,1.388,40.529,0,4.1-.568,13.645-2.9,13.645-12.246V70.239A13.486,13.486,0,0,0,93.268,59.964ZM80.361,87.613a5.956,5.956,0,0,1-5.949,5.95H73.383A1.284,1.284,0,0,0,72.1,94.845v1.03a5.956,5.956,0,0,1-5.949,5.949H62.036a5.956,5.956,0,0,1-5.949-5.949V94.851a1.283,1.283,0,0,0-1.282-1.282H53.781a5.956,5.956,0,0,1-5.949-5.949V83.5a5.955,5.955,0,0,1,5.949-5.949h1.024a1.284,1.284,0,0,0,1.282-1.283V75.244a5.956,5.956,0,0,1,5.949-5.95h4.115a5.956,5.956,0,0,1,5.949,5.95v1.029a1.284,1.284,0,0,0,1.283,1.283h1.029a5.955,5.955,0,0,1,5.949,5.949Z"/></svg>