<svg id="Solid" xmlns="http://www.w3.org/2000/svg" viewBox="0 0 128 128"><title>healthcare, medical, hospital, building, clinic, doctor, living</title><path d="M92.716,92.712a4.339,4.339,0,0,1,2.24,1.69c.81.98.97,1.02,1.4.83a9.634,9.634,0,0,0,2.22-1.97c1.89-1.98,4.48-4.69,7.98-3.46,3.89,1.36,3.22,4.46,2.89,5.95-.04.16-.08.36-.11.53,4.03-.68,5.04.43,5.94,1.96a5.61,5.61,0,0,0,.53.78c.31.34.82.32,1.83.2a8.239,8.239,0,0,1,1.07-.09V64.072a4.784,4.784,0,0,0-1.89-3.8l-15.71-11.88a4.77,4.77,0,0,0-5.74,0l-4.65,3.51V92.783h0A4.034,4.034,0,0,1,92.716,92.712Zm13.357-22.339a1.919,1.919,0,0,1,1.92-1.92h2.492a1.92,1.92,0,0,1,1.92,1.92v2.492a1.92,1.92,0,0,1-1.92,1.92h-2.492a1.92,1.92,0,0,1-1.92-1.92Zm0,12.356a1.919,1.919,0,0,1,1.92-1.92h2.492a1.92,1.92,0,0,1,1.92,1.92v2.492a1.92,1.92,0,0,1-1.92,1.92h-2.492a1.92,1.92,0,0,1-1.92-1.92ZM92.681,70.373a1.92,1.92,0,0,1,1.92-1.92h2.492a1.919,1.919,0,0,1,1.92,1.92v2.492a1.92,1.92,0,0,1-1.92,1.92H94.6a1.92,1.92,0,0,1-1.92-1.92Zm0,12.356a1.92,1.92,0,0,1,1.92-1.92h2.492a1.919,1.919,0,0,1,1.92,1.92v2.492a1.92,1.92,0,0,1-1.92,1.92H94.6a1.92,1.92,0,0,1-1.92-1.92Z"/><path d="M14.556,97.012c.56.57.78.78,1.24.75.01-.06.03-.13.04-.19a3.246,3.246,0,0,1,2.57-2.65,4.237,4.237,0,0,1,3.77,1.05c.23.19,1.37,1.12,1.94.63.35-.3.33-.67.07-1.79a5.173,5.173,0,0,1-.12-2.72,3.5,3.5,0,0,1,2.7-2.53c1.68-.32,3.52.57,4.92,2.36,1.09,1.39,1.8,2.1,2.67,2.12.27-.02.58-.28,1.06-.75a5.414,5.414,0,0,1,1.88-1.35h0V51.913h0l-4.65-3.52a4.77,4.77,0,0,0-5.74,0L11.2,60.272a4.784,4.784,0,0,0-1.89,3.8v30.91c.16-.01.33-.02.5-.02A5.8,5.8,0,0,1,14.556,97.012ZM29,70.373a1.92,1.92,0,0,1,1.92-1.92h2.492a1.919,1.919,0,0,1,1.92,1.92v2.492a1.92,1.92,0,0,1-1.92,1.92H30.919A1.92,1.92,0,0,1,29,72.865Zm0,12.356a1.92,1.92,0,0,1,1.92-1.92h2.492a1.919,1.919,0,0,1,1.92,1.92v2.492a1.92,1.92,0,0,1-1.92,1.92H30.919A1.92,1.92,0,0,1,29,85.221ZM15.608,70.373a1.92,1.92,0,0,1,1.92-1.92H20.02a1.92,1.92,0,0,1,1.92,1.92v2.492a1.92,1.92,0,0,1-1.92,1.92H17.528a1.92,1.92,0,0,1-1.92-1.92Zm0,12.356a1.92,1.92,0,0,1,1.92-1.92H20.02a1.92,1.92,0,0,1,1.92,1.92v2.492a1.92,1.92,0,0,1-1.92,1.92H17.528a1.92,1.92,0,0,1-1.92-1.92Z"/><path d="M124.167,101.255H119.42a1.205,1.205,0,0,0-.714-.133c-.23,0-3.088.555-4.38-.76a5.065,5.065,0,0,1-.77-1.11c-.54-.9-.89-1.5-3.9-.99a2.132,2.132,0,0,1-1.92-.44c-.64-.67-.44-1.6-.24-2.5.38-1.77.51-2.89-1.61-3.64s-3.76.76-5.86,2.96a10.459,10.459,0,0,1-2.84,2.4c-1.91.88-3.07-.52-3.77-1.36-.4-.48-.77-.93-1.16-1.03-.53-.12-2.63-.03-3.34,2.67a3.015,3.015,0,0,1-1.46,2.09c-1.11.55-2.35.05-3.34-.36a4.419,4.419,0,0,0-1.24-.4c-1.08.01-1.42.58-1.98,1.97-.077.2-.173.418-.27.633H78.3a3.749,3.749,0,0,0,.739-1.373c.52-1.27,1.29-3.2,3.81-3.23a5.142,5.142,0,0,1,2.03.55c.59.24,1.39.57,1.69.42a1.37,1.37,0,0,0,.42-.8,5.844,5.844,0,0,1,1.729-2.958V44.689a4.786,4.786,0,0,0-1.889-3.8L66.877,25.811a4.775,4.775,0,0,0-5.741,0L41.187,40.892a4.786,4.786,0,0,0-1.889,3.8V91.743c2.068.23,2.469,1.67,2.868,3.089a10.845,10.845,0,0,0,1.29,3.11c.4.61,2.34-.14,2.97-.39a5.35,5.35,0,0,1,5,.06,3.532,3.532,0,0,1,1.708,3.643h-2.01a1.7,1.7,0,0,0-.7-1.913,3.4,3.4,0,0,0-3.27.07c-1.33.52-4.1,1.6-5.38-.39a12.368,12.368,0,0,1-1.53-3.65c-.43-1.54-.49-1.74-1.86-1.65-.56.04-.96.4-1.56.99a3.534,3.534,0,0,1-2.53,1.33c-1.81-.05-2.97-1.34-4.18-2.89-1.1-1.4-2.26-1.75-2.98-1.62a1.5,1.5,0,0,0-1.16,1.13,3.741,3.741,0,0,0,.16,1.7c.25,1.11.61,2.63-.72,3.76-1.2,1.01-2.89.78-4.54-.63a2.3,2.3,0,0,0-1.93-.65c-.93.26-1.02.62-1.16,1.21a1.916,1.916,0,0,1-1.59,1.68,3.323,3.323,0,0,1-3.07-1.33,3.859,3.859,0,0,0-3.32-1.44,4.685,4.685,0,0,0-2.5.7,3.037,3.037,0,0,0-1.21,1.49,1.985,1.985,0,0,0,.579,2.1H3.846a1,1,0,0,0,0,2H124.167a1,1,0,0,0,0-2ZM74.232,58.263a1.92,1.92,0,0,1,1.92-1.92h2.492a1.92,1.92,0,0,1,1.92,1.92v2.492a1.92,1.92,0,0,1-1.92,1.92H76.152a1.92,1.92,0,0,1-1.92-1.92Zm0,14.316a1.92,1.92,0,0,1,1.92-1.92h2.492a1.92,1.92,0,0,1,1.92,1.92v2.492a1.92,1.92,0,0,1-1.92,1.92H76.152a1.92,1.92,0,0,1-1.92-1.92ZM53.781,89.386a1.92,1.92,0,0,1-1.92,1.92H49.369a1.92,1.92,0,0,1-1.92-1.92V86.894a1.92,1.92,0,0,1,1.92-1.92h2.492a1.92,1.92,0,0,1,1.92,1.92Zm0-14.315a1.92,1.92,0,0,1-1.92,1.92H49.369a1.92,1.92,0,0,1-1.92-1.92V72.579a1.92,1.92,0,0,1,1.92-1.92h2.492a1.92,1.92,0,0,1,1.92,1.92Zm0-14.316a1.92,1.92,0,0,1-1.92,1.92H49.369a1.92,1.92,0,0,1-1.92-1.92V58.263a1.92,1.92,0,0,1,1.92-1.92h2.492a1.92,1.92,0,0,1,1.92,1.92ZM67.172,89.386a1.919,1.919,0,0,1-1.92,1.92H62.76a1.92,1.92,0,0,1-1.92-1.92V86.894a1.92,1.92,0,0,1,1.92-1.92h2.492a1.92,1.92,0,0,1,1.92,1.92Zm0-14.315a1.92,1.92,0,0,1-1.92,1.92H62.76a1.92,1.92,0,0,1-1.92-1.92V72.579a1.92,1.92,0,0,1,1.92-1.92h2.492a1.919,1.919,0,0,1,1.92,1.92Zm0-14.316a1.92,1.92,0,0,1-1.92,1.92H62.76a1.92,1.92,0,0,1-1.92-1.92V58.263a1.92,1.92,0,0,1,1.92-1.92h2.492a1.92,1.92,0,0,1,1.92,1.92Zm1.554-17.3A1.728,1.728,0,0,1,67,45.183h-.3a.373.373,0,0,0-.372.373v.3A1.729,1.729,0,0,1,64.6,47.581H63.408a1.729,1.729,0,0,1-1.726-1.727v-.3a.373.373,0,0,0-.372-.372h-.3a1.728,1.728,0,0,1-1.727-1.726v-1.2a1.728,1.728,0,0,1,1.727-1.726h.3a.373.373,0,0,0,.372-.373v-.3a1.728,1.728,0,0,1,1.726-1.726H64.6a1.728,1.728,0,0,1,1.726,1.726v.3a.373.373,0,0,0,.372.372H67a1.728,1.728,0,0,1,1.726,1.727Zm5.506,45.929V86.894a1.92,1.92,0,0,1,1.92-1.92h2.492a1.92,1.92,0,0,1,1.92,1.92v2.492a1.92,1.92,0,0,1-1.92,1.92H76.152A1.92,1.92,0,0,1,74.232,89.386Z"/></svg>