<svg id="Solid" xmlns="http://www.w3.org/2000/svg" viewBox="0 0 128 128"><title>IV tubing, saline, healthcare, medical, hospital, treatment, medicine</title><path d="M123.388,35.986c-.85-.14-3.58,1.26-5.94,9.14-.1.76-.16,1.28-.16,1.53a1,1,0,0,1-.99,1.01h-.01a1.009,1.009,0,0,1-1-1,15.878,15.878,0,0,1,.19-1.9,132.177,132.177,0,0,0,.95-16.78,2.645,2.645,0,0,0-1.93-2.45c-.03.25-.75,3.57-1.27,5.37-1.13,3.94-2.53,8.85-2.5,13.9a1,1,0,0,1-.99,1.01h-.01a1.007,1.007,0,0,1-1-.99c-.04-5.35,1.48-10.62,2.58-14.47a45.126,45.126,0,0,0,1.12-4.38c.39-2.31-.04-3.12-.24-3.24a1.674,1.674,0,0,0-1.51-.19c-2.05.68-4.122,4.377-4.58,5.91-.394,1.317-.79,2.89-1.36,4.52-1.12,3.23-2.4,6.9-1.96,10.34a1,1,0,0,1-1.99.26c-.49-3.91.87-7.82,2.07-11.26a31.255,31.255,0,0,0,1.29-4.34c.32-1.77.14-3.66-.23-3.97a1.584,1.584,0,0,0-1.58-.42c-1.84.55-4.11,4.33-5.63,9.4-.72,2.37-1.4,5.76-2.05,9.03-1.22,6.11-1.73,8.3-2.55,8.98-.74.66-1.59.93-3.75.35A34.824,34.824,0,0,1,85,50.126c-4.23-1.7-7.13-2.64-8.72-.28-.93,1.37-.43,2.04,3.57,4.75,1.3.88,2.78,1.89,4.36,3.15,4.32,3.43,10.92,10.71,13.33,14.68,1.49,2.46,1.1,12.76.66,19.39h7.886l-.036,16.92a12.445,12.445,0,1,1-24.89,0V90.656a14.445,14.445,0,0,0-28.89,0v18.08a12.445,12.445,0,1,1-24.89,0V90.306a5.868,5.868,0,0,0,4.882-5.784V76.461h-.026A22.427,22.427,0,0,0,48.763,54.85V42.483c-3.822,2.4-9.347,3.661-14.751,3.661-4.561,0-9.02-.886-12.26-2.711C10.547,37.14,4.637,41.3,4.577,41.345a.97.97,0,0,1-.592.176v2.112H7.9a1,1,0,1,1,0,2H3.985v3.745H7.9a1,1,0,0,1,0,2H3.985V54.85c0,.094.012.184.013.277.008,0,.014-.005.022-.005H7.9a1,1,0,0,1,0,2H4.112c.062.6.14,1.2.249,1.788A22.413,22.413,0,0,0,20.519,76.461H20.5v8.061a5.86,5.86,0,0,0,4.877,5.786V77.24c0-.016.005-.03.005-.045.334.014.663.044,1,.044s.659-.028.989-.043c0,.015.006.029.006.044V90.307a6.639,6.639,0,0,1-2,0v18.43a14.445,14.445,0,1,0,28.89,0V90.656a12.445,12.445,0,0,1,24.89,0v18.08a14.445,14.445,0,1,0,28.89,0l.04-16.92h8.35c-.01-.59-.55-19.48.05-21.85.89-3.47,3.03-12.05,3.95-16.92.59-3.17,1.45-6.67,2.22-9.76a53.974,53.974,0,0,0,1.37-6.26C124.038,36.6,123.868,36.056,123.388,35.986Zm-6.28,23.2c-.23,2.07-1.07,6.15-1.32,8.22-.28,2.42-.61,4.32-2.2,4.32l-4.932-.01-1.712-.007-.816,0-5.38-.01c-2.82.34-2.93-1.86-3.09-4.29l-.51-8.17c-.18-2.78-.02-4.78,3.08-5.19,3.22-.44,12.99,0,12.99,0C116.468,54.046,117.418,56.406,117.108,59.186Z"/><path d="M22.732,41.69c6.586,3.71,19.2,3.117,25.46-1.2a.972.972,0,0,1,.571-.159V25.548A15.756,15.756,0,0,0,33.007,9.792H30.3V8.851a3.93,3.93,0,0,0-7.86,0v.941h-2.7A15.756,15.756,0,0,0,3.985,25.548V39.371C5.89,38.337,12.318,35.84,22.732,41.69Z"/></svg>