<svg id="Solid" xmlns="http://www.w3.org/2000/svg" viewBox="0 0 128 128"><title>knockdown home, container, building, house, estate, residence</title><rect x="65.25" y="64.637" width="6.467" height="56.77" rx="1" ry="1"/><path d="M48.32,82.211h1.24a1,1,0,0,1,1,1v30.73a1,1,0,0,1-1,1H48.32a1,1,0,0,0-1,1v4.47a1,1,0,0,0,1,1h4.46a1,1,0,0,0,1-1V65.641a1,1,0,0,0-1-1H48.32a1,1,0,0,0-1,1v15.57A1,1,0,0,0,48.32,82.211Z"/><rect x="56.283" y="64.637" width="6.467" height="56.77" rx="1" ry="1"/><path d="M11.447,121.407h-.714a1,1,0,0,0-1,1v1.454a2,2,0,0,0,2,2h1.7a2,2,0,0,0,2-2v-2.454h1.477a1,1,0,0,0,1-1V65.637a1,1,0,0,0-1-1H12.447a1,1,0,0,0-1,1Z"/><rect x="29.38" y="64.641" width="6.47" height="17.57" rx="1" ry="1"/><rect x="29.38" y="114.941" width="6.47" height="6.47" rx="1" ry="1"/><path d="M21.41,121.411h4.47a1,1,0,0,0,1-1v-4.47a1,1,0,0,0-1-1H24.62a1,1,0,0,1-1-1V83.211a1,1,0,0,1,1-1h1.26a1,1,0,0,0,1-1V65.641a1,1,0,0,0-1-1H21.41a1,1,0,0,0-1,1v54.77A1,1,0,0,0,21.41,121.411Z"/><rect x="38.35" y="64.641" width="6.47" height="17.57" rx="1" ry="1"/><rect x="38.35" y="114.941" width="6.47" height="6.47" rx="1" ry="1"/><path d="M1.015,66.887v52.27a2.25,2.25,0,0,0,2.25,2.25H7.947a1,1,0,0,0,1-1V65.637a1,1,0,0,0-1-1H3.265A2.25,2.25,0,0,0,1.015,66.887Z"/><path d="M124.721,64.637h-4.668a1,1,0,0,0-1,1v54.77a1,1,0,0,0,1,1h4.668a2.251,2.251,0,0,0,2.25-2.25V66.887A2.25,2.25,0,0,0,124.721,64.637Z"/><path d="M115.553,64.637h-4.467a1,1,0,0,0-1,1v54.77a1,1,0,0,0,1,1h1.462v2.454a2,2,0,0,0,2,2h1.7a2,2,0,0,0,2-2v-1.454a1,1,0,0,0-1-1h-.7V65.637A1,1,0,0,0,115.553,64.637Z"/><path d="M75.22,121.411h4.46a1,1,0,0,0,1-1v-4.47a1,1,0,0,0-1-1H78.44a1,1,0,0,1-1-1V83.211a1,1,0,0,1,1-1h1.24a1,1,0,0,0,1-1V65.641a1,1,0,0,0-1-1H75.22a1,1,0,0,0-1,1v54.77A1,1,0,0,0,75.22,121.411Z"/><rect x="83.18" y="64.641" width="6.47" height="17.57" rx="1" ry="1"/><rect x="83.18" y="114.941" width="6.47" height="6.47" rx="1" ry="1"/><path d="M102.12,82.211h1.26a1,1,0,0,1,1,1v30.73a1,1,0,0,1-1,1h-1.26a1,1,0,0,0-1,1v4.47a1,1,0,0,0,1,1h4.47a1,1,0,0,0,1-1V65.641a1,1,0,0,0-1-1h-4.47a1,1,0,0,0-1,1v15.57A1,1,0,0,0,102.12,82.211Z"/><rect x="92.15" y="64.641" width="6.47" height="17.57" rx="1" ry="1"/><rect x="92.15" y="114.941" width="6.47" height="6.47" rx="1" ry="1"/></svg>