<svg id="Solid" xmlns="http://www.w3.org/2000/svg" viewBox="0 0 128 128"><title>lungs, body, breath, organ, medical, healthcare, anatomy</title><path d="M48.246,66.294a7.954,7.954,0,0,1,.03,2.839c-.26,2.351-.29,3.831,2.12,4.75a.984.984,0,0,1,.58,1.281,1,1,0,0,1-.93.65,1.133,1.133,0,0,1-.36-.06c-3.98-1.51-3.63-4.71-3.4-6.83q.045-.375.06-.69a57.98,57.98,0,0,0-7.622,10.255,2.222,2.222,0,0,0,.052.464,6.427,6.427,0,0,0,3.12,4.291c3.57,2.19,3.46,4.519,3.44,4.78a1.008,1.008,0,0,1-1,.91h-.09a1,1,0,0,1-.9-1.09,2.2,2.2,0,0,0-.33-.88,5.968,5.968,0,0,0-2.16-2.011,8.547,8.547,0,0,1-3.55-3.88,49.811,49.811,0,0,0-5.29,15.771,2.707,2.707,0,0,1-1.11,1.859,2.735,2.735,0,0,1-1.58.5,2.446,2.446,0,0,1-.55-.06,2.7,2.7,0,0,1-2.16-2.839,50.91,50.91,0,0,1,2.74-12.26,5.021,5.021,0,0,0-1.88,1.23,7.215,7.215,0,0,1-5.05,2.239,9.236,9.236,0,0,1-2.3-.319,1,1,0,0,1,.5-1.94c2.95.77,4.21-.33,5.54-1.491a5.424,5.424,0,0,1,3.95-1.779,58.992,58.992,0,0,1,7.09-13.13,25.849,25.849,0,0,1-3.9-.58c-2.11-.42-4.29-.85-6.02-.37a8.082,8.082,0,0,0-5.2,4.2,1.006,1.006,0,0,1-.92.59.953.953,0,0,1-.4-.08,1,1,0,0,1-.51-1.32,10.158,10.158,0,0,1,6.5-5.32c2.18-.61,4.6-.13,6.94.34a15.023,15.023,0,0,0,5.07.47,57.965,57.965,0,0,1,9.35-9.391,8.514,8.514,0,0,0-3.77-.719,9.986,9.986,0,0,1-6.9-2.43,1,1,0,0,1-.15-1.411.989.989,0,0,1,1.4-.149,8.012,8.012,0,0,0,5.71,1.99,10.293,10.293,0,0,1,5.45,1.37c.36-.26,6.719-4.789,8.68-9.647-2.711-6.5-8.585-8.937-16.19-6.676C31.589,42.926,17.316,53.579,12.493,73.06a60.621,60.621,0,0,0,.9,30.26c2.012,6.317,5.819,11.138,10.186,12.9,3.36,1.353,7.065.959,11.013-1.179,18.19-9.847,24.232-15.4,24.163-28.91a67.726,67.726,0,0,0-1.052-11.176c-.735-4.622-1.315-8.273.676-13.306a22.042,22.042,0,0,0,1.224-4.528C56.693,59.463,50.246,64.333,48.246,66.294Z"/><path d="M115.52,73.06c-4.823-19.481-19.1-30.134-29.853-33.339a18.529,18.529,0,0,0-5.252-.829,11.085,11.085,0,0,0-8.5,3.595,14.809,14.809,0,0,0-3.4,7,13.137,13.137,0,0,1-2.335-6.42c.04-2.431.18-4.88.32-7.47a181.044,181.044,0,0,0,.03-24.49h-3.79c2.32,33.909-2.834,40.011-10.65,45.779a86.387,86.387,0,0,0-12.18,11.681c-3.894,4.633-7.163,12.244-8.54,15.73a39.872,39.872,0,0,0-2.77,12.159.712.712,0,0,0,.57.741.727.727,0,0,0,.85-.6c.57-4.451,5.287-16.784,9.1-22.451,4.505-7.214,13.212-13.995,15.07-15.359,3.3-2.426,6.5-4.59,8.9-9.8a.989.989,0,0,1,.9-.58,1.006,1.006,0,0,1,.91.57,15.2,15.2,0,0,0,3.2,4.389,21.958,21.958,0,0,0,1.526,8.284c1.992,5.033,1.412,8.684.677,13.306a67.821,67.821,0,0,0-1.053,11.176c-.068,13.5,5.974,19.063,24.164,28.91,3.946,2.138,7.653,2.532,11.013,1.179,4.366-1.76,8.174-6.581,10.186-12.9A60.621,60.621,0,0,0,115.52,73.06Z"/></svg>