<svg id="Solid" xmlns="http://www.w3.org/2000/svg" viewBox="0 0 128 128"><title>Meditation, Therapy, treatment, mental health, Yin Yang, balance, mind</title><circle cx="67.251" cy="34.433" r="3.661"/><path d="M95.331,96.989c-.273-4.3,1.029-10.247,3.662-13.663,10.5-13.626,15.158-25.432,12.96-39.962C108.391,19.816,91.76,7.343,68.766,6.162,43.637,4.862,22.116,21,22.809,43.265c.091,2.938.605,7.265.593,10.091C23.379,63.4,14.69,67.524,14.523,70.72c-.275,5.248,5.89,3.609,8.064,11.033,2.76,9.425-1.2,20.173,11.648,19.509,5.125-.206,13.454-2.2,17.023,1.123,2.276,2.117,4.109,11.352,4.824,15.439a2.368,2.368,0,0,0,2.337,1.959H96.988a2.369,2.369,0,0,0,2.282-3.029C97.987,112.337,95.769,103.9,95.331,96.989ZM67.251,68.537a3.661,3.661,0,1,1,3.661-3.66A3.661,3.661,0,0,1,67.251,68.537ZM66.8,49.176c-22.584,5.616-14.521,28.576-.769,29.407A29.422,29.422,0,0,1,66.8,19.749c.256,0,.509.013.764.019C81.317,20.591,89.386,43.569,66.8,49.176Z"/></svg>