<svg id="Solid" xmlns="http://www.w3.org/2000/svg" viewBox="0 0 128 128"><title>mental health, disorder, mental illness, phobia, fear, paranoia, anxiety</title><path d="M71.343,38.769,69.98,55.436a3.147,3.147,0,0,1-6.273,0L62.343,38.769a4.515,4.515,0,0,1,9-.736A4.759,4.759,0,0,1,71.343,38.769Z"/><circle cx="66.843" cy="63.769" r="2.813"/><path d="M95.331,96.989c-.273-4.3,1.029-10.247,3.662-13.663,10.5-13.626,15.158-25.432,12.96-39.962C108.391,19.816,91.76,7.343,68.766,6.162,43.637,4.862,22.116,21,22.809,43.265c.091,2.938.605,7.265.593,10.091C23.379,63.4,14.69,67.524,14.523,70.72c-.275,5.248,5.89,3.609,8.064,11.033,2.76,9.425-1.2,20.173,11.648,19.509,5.125-.206,13.454-2.2,17.023,1.123,2.276,2.117,4.109,11.352,4.824,15.439a2.367,2.367,0,0,0,2.337,1.958H96.988a2.369,2.369,0,0,0,2.282-3.028C97.987,112.337,95.769,103.9,95.331,96.989ZM67.239,79.269A29.667,29.667,0,1,1,96.906,49.6,29.666,29.666,0,0,1,67.239,79.269Z"/></svg>