<svg id="Solid" xmlns="http://www.w3.org/2000/svg" viewBox="0 0 128 128"><title>mental health, disorder, mental illness, depression, stress, trauma, mental breakdown</title><path d="M111.974,40.631C108.41,17.073,91.773,4.594,68.768,3.413,43.629,2.113,22.1,18.261,22.791,40.532l6.978-1.449s11.494,3.951,14.4,3.043c2.282-.714,15-5.515,20.918-7.76a5.67,5.67,0,0,1,4.653.364l14.519,5.393c1.48.731,4.063-.151,4.713-.263C96.2,38.614,111.974,40.631,111.974,40.631Z"/><path d="M95.345,99.728c-.274-4.306,1.029-10.252,3.663-13.669,10.508-13.632,15.166-25.443,12.966-39.98,0,0-24.124-1.955-30.791-1.107L68.1,38.992C65.73,37.919,45.374,48.21,45.077,48.21c-.243,0-14.425-4.223-14.425-4.223l-7.877.681c.091,2.94.622,8.581.61,11.409C23.361,66.123,14.668,70.25,14.5,73.448c-.274,5.25,5.893,3.61,8.068,11.037,2.761,9.429-1.2,20.183,11.653,19.518,5.128-.206,13.46-2.2,17.031,1.124,2.277,2.118,4.11,11.357,4.826,15.446a2.368,2.368,0,0,0,2.338,1.959H97a2.37,2.37,0,0,0,2.283-3.03C98,115.083,95.783,106.644,95.345,99.728ZM29.769,75.781c-2.365,0-4.283-2.244-4.283-5.013,0-2.013,2.266-5.155,3.5-6.718a.993.993,0,0,1,1.563,0c1.235,1.563,3.5,4.7,3.5,6.718C34.053,73.537,32.135,75.781,29.769,75.781Z"/></svg>