<svg id="Solid" xmlns="http://www.w3.org/2000/svg" viewBox="0 0 128 128"><title>mental health, disorder, mental illness, depression, sad, mania, bipolar</title><path d="M122.841,81.371c.24,4.62-5.18,3.18-7.1,9.72-2.43,8.29,1.06,17.75-10.25,17.17-4.51-.18-11.57-1.61-14.98.99-3.17,2.4-5.6,8.21-6.89,12.19a2,2,0,0,1-1.9,1.4h-.39a4.592,4.592,0,0,0-.17-1.64,86.974,86.974,0,0,1-3.38-16.86c-.19-3.1.76-7.82,2.71-10.34,10.26-13.31,13.82-24.4,11.9-37.08-2.34-15.46-10.92-26.42-24.24-31.57a53.094,53.094,0,0,1,6.95-.8c22.12-1.15,41.06,13.06,40.45,32.66-.08,2.58-.53,6.39-.52,8.88C115.051,74.931,122.7,78.561,122.841,81.371Z"/><path d="M76.747,124.561a2.086,2.086,0,0,0,2.009-2.666c-1.13-3.887-3.082-11.313-3.468-17.4-.24-3.788.906-9.02,3.224-12.026C87.757,80.477,91.855,70.085,89.92,57.3,86.784,36.568,72.146,25.589,51.905,24.549,29.786,23.405,10.843,37.613,11.453,57.208c.08,2.586.533,6.4.522,8.883-.021,8.839-7.669,12.471-7.816,15.284-.242,4.619,5.185,3.176,7.1,9.711,2.43,8.3-1.053,17.757,10.253,17.173,4.511-.182,11.843-1.933,14.984.989,2,1.863,3.617,9.992,4.246,13.589a2.084,2.084,0,0,0,2.058,1.724Z"/><path d="M37.746,1.868l-2.13,3.9a.756.756,0,0,1-.3.3L31.42,8.2a.755.755,0,0,0,0,1.326l3.895,2.131a.762.762,0,0,1,.3.3l2.13,3.9a.757.757,0,0,0,1.327,0l2.131-3.9a.753.753,0,0,1,.3-.3l3.9-2.131a.756.756,0,0,0,0-1.326L41.5,6.064a.747.747,0,0,1-.3-.3l-2.131-3.9A.757.757,0,0,0,37.746,1.868Z"/><path d="M19.072,15.925l-1.422,2.6a.5.5,0,0,1-.2.2l-2.6,1.422a.505.505,0,0,0,0,.886l2.6,1.422a.5.5,0,0,1,.2.2l1.422,2.6a.505.505,0,0,0,.886,0l1.422-2.6a.5.5,0,0,1,.2-.2l2.6-1.422a.505.505,0,0,0,0-.886l-2.6-1.422a.5.5,0,0,1-.2-.2l-1.422-2.6A.505.505,0,0,0,19.072,15.925Z"/><path d="M74.347,19.756a1.25,1.25,0,0,1-.869-2.148c2.121-2.054,1.652-2.575.4-3.97-1.2-1.335-3.014-3.352-.9-6.722A1.25,1.25,0,1,1,75.1,8.246c-1.113,1.772-.491,2.464.639,3.721,1.327,1.476,3.333,3.707-.519,7.437A1.246,1.246,0,0,1,74.347,19.756Z"/><path d="M99.217,19.756a1.25,1.25,0,0,1-.87-2.148c2.121-2.054,1.652-2.575.4-3.969-1.2-1.336-3.014-3.353-.9-6.723a1.25,1.25,0,1,1,2.117,1.33c-1.113,1.772-.491,2.464.639,3.721,1.327,1.476,3.333,3.707-.519,7.437A1.244,1.244,0,0,1,99.217,19.756Z"/><path d="M86.848,21.055a1.25,1.25,0,0,1-.869-2.148c3.848-3.726,2.717-4.984.664-7.268C84.79,9.577,82.251,6.753,85.3,1.9a1.25,1.25,0,1,1,2.117,1.33c-2.047,3.259-.734,4.72,1.083,6.741,2.024,2.251,4.8,5.334-.784,10.736A1.246,1.246,0,0,1,86.848,21.055Z"/></svg>