<svg id="Solid" xmlns="http://www.w3.org/2000/svg" viewBox="0 0 128 128"><title>mental health, disorder, mental illness, depression, sad, Psychiatric, anxiety_1</title><path d="M92.55,102.836c-.25-3.93.94-9.35,3.34-12.47,9.58-12.43,13.83-23.21,11.83-36.46-1.92-12.69-8-21.85-16.97-27.45v2.81a1.25,1.25,0,0,1-2.5,0v-4.23a40.931,40.931,0,0,0-7-2.87v16.94a1.25,1.25,0,0,1-2.5,0V21.476a52.219,52.219,0,0,0-9-1.42v9.21a1.25,1.25,0,0,1-2.5,0v-9.35a48.037,48.037,0,0,0-8,.4v18.79a1.25,1.25,0,0,1-2.5,0V20.716a45.015,45.015,0,0,0-8,2.29v6.26a1.25,1.25,0,0,1-2.5,0v-5.2c-12.1,5.65-20.29,16.51-19.88,29.74.08,2.69.55,6.63.54,9.21-.02,9.17-7.95,12.93-8.1,15.85-.25,4.79,5.37,3.29,7.36,10.07,2.51,8.6-1.1,18.41,10.62,17.8,4.68-.19,12.28-2,15.54,1.03,2.08,1.93,3.75,10.35,4.4,14.08a2.157,2.157,0,0,0,2.13,1.79h35.2a2.162,2.162,0,0,0,2.08-2.76C94.97,116.846,92.95,109.146,92.55,102.836ZM32.9,81.431c-2.171,0-3.931-2.06-3.931-4.6,0-1.813,2-4.622,3.149-6.082a.992.992,0,0,1,1.564,0c1.147,1.46,3.149,4.269,3.149,6.082C36.828,79.371,35.068,81.431,32.9,81.431Z"/><path d="M48.75,9.936v13.07c-.85.33-1.69.69-2.5,1.06V9.936a1.25,1.25,0,0,1,2.5,0Z"/><path d="M69.75,9.936v10.12c-.47-.04-.96-.08-1.44-.1-.35-.02-.71-.04-1.06-.04V9.936a1.25,1.25,0,0,1,2.5,0Z"/><path d="M90.75,9.936v16.52c-.81-.5-1.64-.98-2.5-1.42V9.936a1.25,1.25,0,0,1,2.5,0Z"/><path d="M81.25,1.936v20.23c-.82-.25-1.65-.49-2.5-.69V1.936a1.25,1.25,0,0,1,2.5,0Z"/><path d="M59.25,1.936v18.38c-.84.11-1.68.25-2.5.4V1.936a1.25,1.25,0,0,1,2.5,0Z"/></svg>