<svg id="Solid" xmlns="http://www.w3.org/2000/svg" viewBox="0 0 128 128"><title>mental health, disorder, mental illness, Dyslexia, Psychiatric, symptom, autism</title><path d="M61.146,35.906c1.688,1.437,5.75-.438,5.639-2.75s-3.585-3.021-5.576-.979C60.647,32.752,59.459,34.468,61.146,35.906Z"/><path d="M89.36,36.854c-.077-2.079-2.74-1.835-3.879-.784a1.871,1.871,0,0,0-.3,2.867C86.344,40.229,89.437,38.933,89.36,36.854Z"/><path d="M93.794,103.007c-.216-3.414.791-8.65,3.085-11.625,10.391-13.482,14-24.672,12.073-37.418C105.762,32.876,90.97,20.115,68.37,18.955c-13.059-.676-25.3,3.6-33.6,11.732A31.19,31.19,0,0,0,25.118,54.1c.037,1.193.145,2.581.259,4.052.142,1.821.288,3.7.282,5.115-.013,5.439-3.12,8.879-5.389,11.39-1.473,1.629-2.635,2.917-2.712,4.393-.16,3.05,1.669,4.255,3.283,5.319a8.37,8.37,0,0,1,4.125,5.165,36.536,36.536,0,0,1,1.093,6.941c.553,6.026,1.123,12.251,10.786,11.76,1.122-.045,2.377-.178,3.7-.318,3.938-.416,8.842-.932,10.929,1.01,1.237,1.15,2.778,6.28,4.021,13.389a3.407,3.407,0,0,0,3.364,2.82h35.2a3.411,3.411,0,0,0,3.282-4.361C96.186,116.794,94.187,109.192,93.794,103.007ZM36.519,32.473c7.8-7.643,19.359-11.664,31.722-11.021,17.736.91,30.359,9.375,35.821,23.61-6.482,2-13.754-2.347-21.682,2.314-7.97,4.67,2.44-5.35-4.13-7.62-4.22-1.46-12.55,5.06-18.69,7.22a1.482,1.482,0,0,1-1.94-1.72c.3-1.61-.12-3.62-4.11-3.63-8.432-.01-16.616,9.293-24.754,3.456A29.3,29.3,0,0,1,36.519,32.473Z"/><path d="M57.723,10.318a12.6,12.6,0,0,0,8.817.509c2.374-.95,3.938-2.755,3.995-3.989,1.508,4.582,6.833,3.388,3.965-.117,2.856-3.521-2.488-4.662-3.971-.056C70.354,4.513,64.4.1,58.084,2.783,50.321,6.087,56.894,9.941,57.723,10.318Zm1-4.919a.933.933,0,1,1-.93.935A.933.933,0,0,1,58.725,5.4Z"/></svg>