<svg id="Solid" xmlns="http://www.w3.org/2000/svg" viewBox="0 0 128 128"><title>mental health, disorder, mental illness, borderline, bipolar, psycho, Personality</title><path d="M120.49,12.235a3.108,3.108,0,0,0-3.109-3.115c-22.87.167-41.846,15.305-41.207,35.847.088,2.834.584,7.006.572,9.731-.023,9.684-8.4,13.662-8.563,16.744-.264,5.061,5.68,3.48,7.777,10.639,2.661,9.088-1.154,19.453,11.232,18.812,4.942-.2,12.973-2.117,16.415,1.084,2.2,2.041,3.962,10.944,4.651,14.886a2.286,2.286,0,0,0,2.255,1.89h6.878a3.11,3.11,0,0,0,3.109-3.11Z"/><path d="M6.51,12.235A3.108,3.108,0,0,1,9.619,9.12c22.87.167,41.846,15.305,41.207,35.847-.088,2.834-.584,7.006-.572,9.731.023,9.684,8.4,13.662,8.563,16.744.264,5.061-5.68,3.48-7.777,10.639-2.661,9.088,1.154,19.453-11.232,18.812-4.942-.2-12.973-2.117-16.415,1.084-2.2,2.041-3.962,10.944-4.651,14.886a2.286,2.286,0,0,1-2.255,1.89H9.609a3.11,3.11,0,0,1-3.109-3.11Z"/></svg>