<svg id="Solid" xmlns="http://www.w3.org/2000/svg" viewBox="0 0 128 128"><title>mental health, disorder, mental illness, Workaholic, times, trauma, stress</title><path d="M67.884,43.2h-.957a3,3,0,0,1-2.917-2.3L63.2,37.509a2.318,2.318,0,0,1,2.508-2.648h3.4a2.317,2.317,0,0,1,2.507,2.648L70.8,40.9A3,3,0,0,1,67.884,43.2Z"/><path d="M73.888,59.384,70.171,42.137h-5.53L60.923,59.384A2.42,2.42,0,0,0,62.1,61.957l4.243,2.667a2,2,0,0,0,2.128,0l4.243-2.667A2.418,2.418,0,0,0,73.888,59.384Z"/><path d="M95.331,96.989c-.273-4.3,1.029-10.247,3.662-13.663,10.5-13.626,15.158-25.432,12.96-39.962C108.391,19.816,91.76,7.343,68.766,6.162,43.637,4.862,22.116,21,22.809,43.265c.091,2.938.605,7.265.593,10.091C23.379,63.4,14.69,67.524,14.523,70.72c-.275,5.248,5.89,3.609,8.064,11.033,2.76,9.425-1.2,20.173,11.648,19.509,5.125-.206,13.454-2.2,17.023,1.123,2.276,2.117,4.109,11.352,4.824,15.439a2.367,2.367,0,0,0,2.337,1.958H96.988a2.369,2.369,0,0,0,2.282-3.028C97.987,112.337,95.769,103.9,95.331,96.989Zm4-59A34.722,34.722,0,0,1,94.8,70.779a1.251,1.251,0,0,1-2.008-1.491,32.193,32.193,0,0,0,4.2-30.4,1.25,1.25,0,0,1,2.336-.892Zm-5.853-7.979a1.251,1.251,0,0,1,1.743.3c.213.3.423.607.629.918.557.841,1.083,1.716,1.564,2.6a1.25,1.25,0,1,1-2.2,1.194c-.447-.821-.935-1.633-1.452-2.413q-.288-.434-.585-.854A1.251,1.251,0,0,1,93.479,30.012ZM87.9,24.307a1.248,1.248,0,0,1,1.762-.128,34.218,34.218,0,0,1,2.967,2.9,1.25,1.25,0,0,1-1.852,1.68,31.678,31.678,0,0,0-2.75-2.686A1.25,1.25,0,0,1,87.9,24.307Zm-6.792-4.2a1.252,1.252,0,0,1,1.682-.548,34.5,34.5,0,0,1,3.576,2.1,1.25,1.25,0,1,1-1.394,2.075,31.788,31.788,0,0,0-3.316-1.947A1.252,1.252,0,0,1,81.1,20.108Zm-7.6-2.458a1.249,1.249,0,0,1,1.5-.931,34.619,34.619,0,0,1,3.973,1.187,1.25,1.25,0,0,1-.428,2.424,1.265,1.265,0,0,1-.429-.076,32.334,32.334,0,0,0-3.687-1.1A1.25,1.25,0,0,1,73.507,17.65ZM33.449,31.265l4.345-1.408a2.359,2.359,0,0,1,2.972,1.518l1.408,4.344a1.25,1.25,0,1,1-2.378.771l-1.365-4.211-4.212,1.364a1.25,1.25,0,1,1-.77-2.378Zm6.375,36.49a1.25,1.25,0,0,1-1.725-.387,34.717,34.717,0,0,1-2.085-33.033A1.25,1.25,0,1,1,38.277,35.4,32.2,32.2,0,0,0,40.21,66.03,1.25,1.25,0,0,1,39.824,67.755Zm5.6,6.267a1.249,1.249,0,0,1-1.766.055c-.269-.253-.534-.51-.8-.772-.717-.718-1.407-1.471-2.052-2.239a1.25,1.25,0,0,1,1.915-1.607c.6.713,1.239,1.411,1.9,2.077.244.243.492.484.743.72A1.248,1.248,0,0,1,45.421,74.022ZM52.03,78.5a1.249,1.249,0,0,1-1.7.476,34.411,34.411,0,0,1-3.484-2.249,1.25,1.25,0,1,1,1.48-2.014,31.972,31.972,0,0,0,3.23,2.085A1.249,1.249,0,0,1,52.03,78.5Zm7.491,2.763a1.248,1.248,0,0,1-1.539.871,34.178,34.178,0,0,1-3.923-1.347,1.249,1.249,0,1,1,.953-2.31,32.093,32.093,0,0,0,3.637,1.248A1.25,1.25,0,0,1,59.521,81.266Zm6.685,2.11h-.038A34.534,34.534,0,0,1,62.038,83a1.25,1.25,0,1,1,.374-2.471,32.263,32.263,0,0,0,3.831.345,1.25,1.25,0,0,1-.037,2.5ZM67.239,74.1a24.5,24.5,0,1,1,24.5-24.5A24.5,24.5,0,0,1,67.239,74.1Zm24.66.725a2.363,2.363,0,0,1-2.343-2.092L89.041,68.2a1.25,1.25,0,1,1,2.484-.283l.5,4.4,4.4-.5a1.25,1.25,0,0,1,.282,2.485l-4.538.515A2.434,2.434,0,0,1,91.9,74.828Z"/></svg>