<svg id="Solid" xmlns="http://www.w3.org/2000/svg" viewBox="0 0 128 128"><title>mental health, healthcare, medical, positive, thinking, mind, Psychology</title><path d="M94.8,34.216H89.72v-5.09a5.561,5.561,0,0,0-5.56-5.56H77.41a5.388,5.388,0,0,0-2.05.4,50.049,50.049,0,0,0-17.05-3.71c-22.94-1.19-42.57,13.54-41.94,33.85.08,2.69.55,6.63.54,9.21-.02,9.17-7.95,12.93-8.1,15.85-.25,4.79,5.37,3.29,7.36,10.07,2.51,8.6-1.1,18.41,10.62,17.8,4.68-.19,12.28-2,15.54,1.02,2.08,1.94,3.75,10.36,4.4,14.09a2.157,2.157,0,0,0,2.13,1.79h35.2a2.162,2.162,0,0,0,2.08-2.76c-1.17-4.03-3.19-11.73-3.59-18.04-.25-3.93.94-9.35,3.34-12.47,9.58-12.43,13.83-23.21,11.83-36.47-.14-.91-.3-1.81-.49-2.69a5.512,5.512,0,0,0,3.13-4.98v-6.75A5.561,5.561,0,0,0,94.8,34.216Zm3.06,12.31a3.016,3.016,0,0,1-1.23,2.44,3.071,3.071,0,0,1-1.83.61H88.75a1.53,1.53,0,0,0-1.53,1.53v6.06a3.06,3.06,0,0,1-3.06,3.06H77.41a3.06,3.06,0,0,1-3.06-3.06v-6.06a1.528,1.528,0,0,0-1.52-1.53H66.77a3.051,3.051,0,0,1-3.06-3.05v-6.75a3.06,3.06,0,0,1,3.06-3.06h6.06a1.528,1.528,0,0,0,1.52-1.53v-6.06a3.06,3.06,0,0,1,3.06-3.06h6.75a3.06,3.06,0,0,1,3.06,3.06v6.06a1.53,1.53,0,0,0,1.53,1.53H94.8a3.06,3.06,0,0,1,3.06,3.06Z"/><path d="M85.216,17.3h.821v.821a3.844,3.844,0,0,0,3.84,3.84h2.956a3.844,3.844,0,0,0,3.839-3.84V17.3h.822a3.844,3.844,0,0,0,3.839-3.84V10.5a3.843,3.843,0,0,0-3.839-3.839h-.822V5.837A3.844,3.844,0,0,0,92.833,2H89.877a3.844,3.844,0,0,0-3.84,3.84v.825h-.821a3.844,3.844,0,0,0-3.84,3.839v2.956A3.845,3.845,0,0,0,85.216,17.3Zm-1.34-6.8a1.339,1.339,0,0,1,1.34-1.339h2.651a.67.67,0,0,0,.67-.67V5.837a1.34,1.34,0,0,1,1.34-1.34h2.956a1.339,1.339,0,0,1,1.339,1.34V8.492a.67.67,0,0,0,.67.67h2.652A1.338,1.338,0,0,1,98.833,10.5v2.956a1.339,1.339,0,0,1-1.339,1.34H94.842a.67.67,0,0,0-.67.669v2.652a1.339,1.339,0,0,1-1.339,1.34H89.877a1.34,1.34,0,0,1-1.34-1.34V15.466a.67.67,0,0,0-.67-.669H85.216a1.34,1.34,0,0,1-1.34-1.34Z"/><path d="M112.723,22.546a3.466,3.466,0,0,0-3.46-3.35h-2.122a3.466,3.466,0,0,0-3.46,3.35,3.466,3.466,0,0,0-3.348,3.46v2.122a3.467,3.467,0,0,0,3.348,3.46,3.465,3.465,0,0,0,3.46,3.347h2.122a3.465,3.465,0,0,0,3.46-3.347,3.467,3.467,0,0,0,3.348-3.46V26.006A3.466,3.466,0,0,0,112.723,22.546Zm.848,5.582a.962.962,0,0,1-.962.962h-1.9a.48.48,0,0,0-.48.48v1.9a.962.962,0,0,1-.962.961h-2.122a.962.962,0,0,1-.962-.961v-1.9a.48.48,0,0,0-.48-.48h-1.9a.962.962,0,0,1-.962-.962V26.006a.962.962,0,0,1,.962-.962h1.9a.48.48,0,0,0,.48-.481V22.657a.962.962,0,0,1,.962-.961h2.122a.962.962,0,0,1,.962.961v1.906a.48.48,0,0,0,.48.481h1.9a.962.962,0,0,1,.962.962Z"/></svg>