<svg id="Solid" xmlns="http://www.w3.org/2000/svg" viewBox="0 0 128 128"><title>mental health, disorder, mental illness, phobia, fear, Psychiatric, anxiety</title><path d="M92.547,103.211c-.249-3.927.939-9.351,3.342-12.468,9.584-12.434,13.833-23.207,11.827-36.467-.029-.186-.057-.37-.087-.552a2.58,2.58,0,0,0-2.548-2.169H28.947a2.562,2.562,0,0,0-2.58,2.6v.027c.083,2.681.552,6.63.541,9.209-.021,9.164-7.951,12.929-8.1,15.845-.25,4.789,5.375,3.293,7.359,10.068,2.519,8.6-1.091,18.409,10.63,17.8,4.676-.188,12.277-2,15.534,1.025,2.077,1.931,3.749,10.359,4.4,14.089a2.161,2.161,0,0,0,2.133,1.787h35.2a2.163,2.163,0,0,0,2.083-2.764C94.971,117.218,92.947,109.52,92.547,103.211Z"/><path d="M68.855,51.54A13.791,13.791,0,0,1,58.85,47.526,13.575,13.575,0,0,1,58.873,28.5a11.026,11.026,0,0,1,15.577,0,9.059,9.059,0,0,1,0,12.8,7.485,7.485,0,0,1-10.575,0,6.228,6.228,0,0,1,0-8.8,5.221,5.221,0,0,1,7.375,0,4.415,4.415,0,0,1,0,6.236,1.19,1.19,0,1,1-1.684-1.683,2.031,2.031,0,0,0,0-2.869,2.836,2.836,0,0,0-4.007,0,3.844,3.844,0,0,0,0,5.43,5.1,5.1,0,0,0,7.208,0,6.678,6.678,0,0,0,0-9.432,8.644,8.644,0,0,0-12.21,0,11.206,11.206,0,0,0,.023,15.707c3.445,3.642,9.81,4.366,14.487,1.65a1.191,1.191,0,0,1,1.2,2.059A14.8,14.8,0,0,1,68.855,51.54Z"/><path d="M78.888,46.823a1.191,1.191,0,0,1-.868-2,8.294,8.294,0,0,0,1.265-1.7A1.19,1.19,0,1,1,81.351,44.3a10.73,10.73,0,0,1-1.594,2.144A1.183,1.183,0,0,1,78.888,46.823Z"/><path d="M96.7,48.084a8.185,8.185,0,0,1-4.961-1.672A6.842,6.842,0,0,1,90.4,36.827a5.712,5.712,0,0,1,8-1.112,4.809,4.809,0,0,1,.937,6.735,4.086,4.086,0,0,1-5.722.795,1.19,1.19,0,1,1,1.436-1.9,1.705,1.705,0,0,0,2.387-.332,2.427,2.427,0,0,0-.474-3.4,3.33,3.33,0,0,0-4.666.648,4.463,4.463,0,0,0,.87,6.25,5.873,5.873,0,0,0,8.229-1.144,7.727,7.727,0,0,0-1.514-10.723,7.983,7.983,0,0,0-7.009-1.23,7.4,7.4,0,0,0-5.108,4.162,1.19,1.19,0,0,1-2.21-.885,9.645,9.645,0,0,1,6.711-5.579,10.368,10.368,0,0,1,9.1,1.672A10.1,10.1,0,0,1,103.3,44.805,8.2,8.2,0,0,1,97.85,48,8.49,8.49,0,0,1,96.7,48.084Z"/><path d="M86.331,27.485a5.613,5.613,0,0,1-5.478-4.478,4.726,4.726,0,0,1,3.673-5.576,4.017,4.017,0,0,1,4.743,3.123,3.451,3.451,0,0,1-2.684,4.075,1.19,1.19,0,1,1-.48-2.331,1.07,1.07,0,0,0,.831-1.263,1.636,1.636,0,0,0-1.93-1.272,2.343,2.343,0,0,0-1.821,2.764,3.224,3.224,0,0,0,3.807,2.509,4.335,4.335,0,0,0,3.367-5.112,5.773,5.773,0,0,0-6.773-4.433,5.973,5.973,0,0,0-4.145,3.339,5.519,5.519,0,0,0-.19,4.908,1.191,1.191,0,1,1-2.124,1.077,7.8,7.8,0,0,1,.183-7.048,8.358,8.358,0,0,1,5.861-4.621,8.144,8.144,0,0,1,9.521,6.3,6.717,6.717,0,0,1-5.22,7.923A5.6,5.6,0,0,1,86.331,27.485Z"/><path d="M83.2,41.346a1.189,1.189,0,0,1-.959-1.893c.837-1.145,1.116-1.472,1.163-1.526A1.191,1.191,0,1,1,85.194,39.5c-.005.006-.253.3-1.033,1.363A1.187,1.187,0,0,1,83.2,41.346Z"/><path d="M55.15,47.337a1.187,1.187,0,0,1-.621-.175,10.785,10.785,0,0,1-2.105-1.647,1.191,1.191,0,1,1,1.682-1.686,8.292,8.292,0,0,0,1.668,1.3,1.19,1.19,0,0,1-.624,2.205Z"/><path d="M36.3,49.036a8.332,8.332,0,0,1-1.154-.08,8.207,8.207,0,0,1-5.449-3.2,10.1,10.1,0,0,1,1.925-14.019,10.37,10.37,0,0,1,9.1-1.673,9.648,9.648,0,0,1,6.711,5.579,1.19,1.19,0,1,1-2.21.885,7.4,7.4,0,0,0-5.108-4.162,7.981,7.981,0,0,0-7.009,1.23A7.728,7.728,0,0,0,31.6,44.322a5.876,5.876,0,0,0,8.229,1.144,4.463,4.463,0,0,0,.87-6.25,3.331,3.331,0,0,0-4.666-.649,2.427,2.427,0,0,0-.474,3.4,1.7,1.7,0,0,0,2.387.332,1.19,1.19,0,1,1,1.436,1.9,4.084,4.084,0,0,1-5.722-.8,4.809,4.809,0,0,1,.937-6.735,5.711,5.711,0,0,1,8,1.113,6.842,6.842,0,0,1-1.333,9.585A8.19,8.19,0,0,1,36.3,49.036Z"/><path d="M50.21,42.747a1.187,1.187,0,0,1-.814-.321,8.2,8.2,0,0,1-1.545-1.941,1.19,1.19,0,1,1,2.1-1.123,6.124,6.124,0,0,0,1.075,1.325,1.191,1.191,0,0,1-.814,2.06Z"/><path d="M79.349,31.727a1.208,1.208,0,0,1-.147-.009,1.19,1.19,0,0,1-1.036-1.327h0a8.582,8.582,0,0,0-.186-1.943,1.19,1.19,0,1,1,2.342-.425,9.505,9.505,0,0,1,.206,2.658A1.19,1.19,0,0,1,79.349,31.727Z"/><path d="M46.669,28.437a5.673,5.673,0,0,1-1.141-.117,6.718,6.718,0,0,1-5.22-7.923,8.146,8.146,0,0,1,9.521-6.3,8.359,8.359,0,0,1,5.861,4.62,7.8,7.8,0,0,1,.183,7.049,1.191,1.191,0,0,1-2.124-1.077,5.519,5.519,0,0,0-.19-4.908,5.972,5.972,0,0,0-4.145-3.34,5.773,5.773,0,0,0-6.773,4.434,4.333,4.333,0,0,0,3.367,5.111,3.222,3.222,0,0,0,3.807-2.508,2.344,2.344,0,0,0-1.821-2.765,1.639,1.639,0,0,0-1.93,1.272A1.069,1.069,0,0,0,46.9,23.25a1.19,1.19,0,1,1-.48,2.332,3.453,3.453,0,0,1-2.684-4.076,4.024,4.024,0,0,1,4.743-3.123,4.727,4.727,0,0,1,3.673,5.577,5.61,5.61,0,0,1-5.478,4.477Z"/><path d="M53.04,32.06a1.186,1.186,0,0,1-1.19-1.174,10.061,10.061,0,0,1,.5-2.751,1.19,1.19,0,1,1,2.28.682,8.35,8.35,0,0,0-.4,2.057,1.2,1.2,0,0,1-1.19,1.186Z"/><path d="M64.458,19.613a1.192,1.192,0,0,1-1.074-.675A8.563,8.563,0,0,0,60.956,16a8.817,8.817,0,0,1-3.272-6.706,7.515,7.515,0,0,1,2.633-5.972,8.143,8.143,0,0,1,11.4.656,6.709,6.709,0,0,1-.526,9.473,5.6,5.6,0,0,1-7.914-.44,4.721,4.721,0,0,1,.371-6.668,4.013,4.013,0,0,1,5.669.316,3.455,3.455,0,0,1-.27,4.872,1.191,1.191,0,1,1-1.589-1.774,1.069,1.069,0,0,0,.085-1.511,1.636,1.636,0,0,0-2.308-.129,2.341,2.341,0,0,0-.184,3.306,3.223,3.223,0,0,0,4.553.253,4.326,4.326,0,0,0,.338-6.11,5.775,5.775,0,0,0-8.083-.427,5.172,5.172,0,0,0-1.79,4.12,6.409,6.409,0,0,0,2.375,4.879,10.952,10.952,0,0,1,3.089,3.768,1.192,1.192,0,0,1-1.071,1.708Z"/><path d="M66.406,24.343a1.192,1.192,0,0,1-1.162-.933,9.538,9.538,0,0,0-.5-1.431,1.191,1.191,0,1,1,2.19-.936A11.5,11.5,0,0,1,67.57,22.9a1.192,1.192,0,0,1-.9,1.42A1.222,1.222,0,0,1,66.406,24.343Z"/><path d="M53.373,37.992a1.19,1.19,0,0,1-1.064-.656,7.693,7.693,0,0,1-.791-2.991,1.192,1.192,0,0,1,1.184-1.2h.007A1.19,1.19,0,0,1,53.9,34.33a5.38,5.38,0,0,0,.536,1.935,1.191,1.191,0,0,1-1.062,1.727Z"/><path d="M78.471,37.618a1.193,1.193,0,0,1-1.084-1.682,6.253,6.253,0,0,0,.46-1.867,1.177,1.177,0,0,1,1.264-1.112,1.19,1.19,0,0,1,1.111,1.265,8.466,8.466,0,0,1-.666,2.7A1.192,1.192,0,0,1,78.471,37.618Z"/></svg>