<svg id="Solid" xmlns="http://www.w3.org/2000/svg" viewBox="0 0 128 128"><title>mood, mental health, disorder, mental illness, depression, stressed, trauma</title><path d="M92.547,104.386c-.25-3.93.94-9.35,3.34-12.47,9.58-12.43,13.83-23.21,11.83-36.47-1.9-12.54-7.87-21.65-16.68-27.25a.313.313,0,0,0-.05-.1l-3.52-5.87,2.06-5.69a2.864,2.864,0,0,0-.34-2.6,2.9,2.9,0,0,0-2.35-1.22,2.8,2.8,0,0,0-2.22,1.08l-6.18,7.74a2.654,2.654,0,0,0-.57,1.27,52.32,52.32,0,0,0-6.92-1.1l-2.55-4.26,2.15-12.97a3.35,3.35,0,0,0-.73-2.7,3.048,3.048,0,0,0-2.31-1.09,2.966,2.966,0,0,0-2.68,1.73l-7.76,16.3a3.377,3.377,0,0,0,.25,3.31l.08.12a46.149,46.149,0,0,0-6.08,1.5l-.85-1.42,2.06-5.69a2.864,2.864,0,0,0-.34-2.6,2.9,2.9,0,0,0-2.35-1.22,2.8,2.8,0,0,0-2.22,1.08l-6.18,7.74a2.837,2.837,0,0,0-.12,3.39l1.66,2.41C32.7,33.306,26,43.356,26.367,55.356c.08,2.69.55,6.63.54,9.21-.02,9.17-7.95,12.93-8.1,15.85-.25,4.79,5.37,3.29,7.36,10.07,2.51,8.6-1.1,18.41,10.62,17.8,4.68-.19,12.28-2,15.54,1.02,2.08,1.94,3.75,10.36,4.4,14.09a2.157,2.157,0,0,0,2.13,1.79h35.2a2.162,2.162,0,0,0,2.08-2.76C94.967,118.4,92.947,110.7,92.547,104.386Zm-49.17-80.88a.331.331,0,0,1,.02-.41l6.17-7.74a.345.345,0,0,1,.27-.14.353.353,0,0,1,.34.47l-2.41,6.65a.32.32,0,0,0,.03.3l1.12,1.86,2.93,4.89a.348.348,0,0,1-.05.42l-6.28,6.68a.321.321,0,0,1-.25.11.352.352,0,0,1-.33-.49l2.61-6.27a.351.351,0,0,0-.04-.33l-2.32-3.37ZM80.4,23.1l6.17-7.74a.345.345,0,0,1,.27-.14.353.353,0,0,1,.34.47l-2.41,6.65a.32.32,0,0,0,.03.3l1.91,3.18,2.14,3.57a.348.348,0,0,1-.05.42l-6.28,6.68a.321.321,0,0,1-.25.11.352.352,0,0,1-.33-.49l2.61-6.27a.351.351,0,0,0-.04-.33l-4.13-6c-.01-.02-.02-.03-.02-.05A.3.3,0,0,1,80.4,23.1Zm-21.01-2.47a.877.877,0,0,1-.06-.83l7.76-16.3a.462.462,0,0,1,.42-.31.709.709,0,0,1,.57.88l-2.24,13.56a.926.926,0,0,0,.11.59l1.96,3.27,5.67,9.48a.867.867,0,0,1,.02.84l-8.15,14.21a.454.454,0,0,1-.39.26.71.71,0,0,1-.57-.91l2.62-12.84a.893.893,0,0,0-.12-.66l-6.84-10.11Z"/></svg>