<svg id="Solid" xmlns="http://www.w3.org/2000/svg" viewBox="0 0 128 128"><title>optical, eye, chart, checking, hospital, clinic, medical</title><path d="M60.861,86.678H73.637a1,1,0,0,0,0-2H60.861a5.508,5.508,0,0,1-5.5-5.5v-3.36H71.248a1,1,0,1,0,0-2H55.359v-3.36a5.508,5.508,0,0,1,5.5-5.5H73.637a1,1,0,0,0,0-2H60.861a7.51,7.51,0,0,0-7.5,7.5v8.72A7.511,7.511,0,0,0,60.861,86.678Z"/><path d="M84.055,110.745H79.328a1,1,0,0,0,0,2h3.727v2.169a2.4,2.4,0,0,1-2.394,2.395h-2a1,1,0,0,0,0,2h2a4.4,4.4,0,0,0,4.394-4.395v-3.169A1,1,0,0,0,84.055,110.745Z"/><path d="M62.065,110.745H58.489a2.824,2.824,0,0,0-2.82,2.82v4.183a1,1,0,0,0,2,0v-4.183a.821.821,0,0,1,.82-.82h3.576a1,1,0,0,0,0-2Z"/><path d="M50.421,110.745a1,1,0,0,0-1,1v4.226a.779.779,0,0,1-.778.777H45.775a.779.779,0,0,1-.778-.777v-4.226a1,1,0,0,0-2,0v4.226a2.781,2.781,0,0,0,2.778,2.777h2.868a2.781,2.781,0,0,0,2.778-2.777v-4.226A1,1,0,0,0,50.421,110.745Z"/><path d="M71.863,110.744H68.987a2.78,2.78,0,0,0-2.774,2.777v4.787a1,1,0,0,0,2,0v-4.787a.778.778,0,0,1,.776-.777h2.873a.777.777,0,0,1,.775.777v4.788a1,1,0,0,0,2,0v-4.788a2.776,2.776,0,0,0-2.774-2.777Z"/><path d="M47.249,103.59a1,1,0,0,0,1-1v-6.5a1.83,1.83,0,0,1,1.828-1.828h5.557a1,1,0,1,0,0-2H50.077a3.833,3.833,0,0,0-3.828,3.828v6.5A1,1,0,0,0,47.249,103.59Z"/><path d="M71.28,102.59a1,1,0,0,0,1,1h5.557a3.833,3.833,0,0,0,3.828-3.828v-6.5a1,1,0,0,0-2,0v6.5a1.83,1.83,0,0,1-1.828,1.828H72.28A1,1,0,0,0,71.28,102.59Z"/><path d="M69.619,99.415V96.437A4.421,4.421,0,0,0,65.2,92.021H62.815A4.421,4.421,0,0,0,58.4,96.437v2.978a4.421,4.421,0,0,0,4.416,4.416H65.2A4.421,4.421,0,0,0,69.619,99.415Zm-2,0a2.419,2.419,0,0,1-2.416,2.416H62.815A2.419,2.419,0,0,1,60.4,99.415V96.437a2.418,2.418,0,0,1,2.416-2.416H65.2a2.418,2.418,0,0,1,2.416,2.416Z"/><rect x="60.752" y="116.734" width="1.926" height="1.926" rx="0.677" ry="0.677"/><rect x="78.739" y="113.863" width="1.926" height="1.926" rx="0.677" ry="0.677"/><rect x="46.331" y="113.462" width="1.926" height="1.926" rx="0.677" ry="0.677"/><rect x="71.317" y="94.704" width="1.926" height="1.926" rx="0.677" ry="0.677"/><rect x="54.477" y="99.151" width="1.926" height="1.926" rx="0.677" ry="0.677"/><path d="M107.555,34.391h0a4.633,4.633,0,0,0-.691-2.2C97.205,16.669,83.1,8.8,64.952,8.8,55.335,8.8,37.407,12.062,25.4,33.92a19.923,19.923,0,0,1-1.766,2.566,17.38,17.38,0,0,0-2.742,4.53,5,5,0,0,0-.139,3.2A5.158,5.158,0,0,0,23.1,47.224c6.891,4.1,23.762,8.538,31.123,9.267q4.057.4,7.909.4c17.546,0,32.044-6.256,44.132-19a4.745,4.745,0,0,0,1.3-3.5h0Zm-80.4,12.652a29.872,29.872,0,0,1-3.036-1.538,3.164,3.164,0,0,1-1.439-1.842,3.008,3.008,0,0,1,.083-1.929,14.306,14.306,0,0,1,2.186-3.664C28.026,42.62,28.711,44.609,27.154,47.043Zm78.4-12.547a2.739,2.739,0,0,1-.749,2.024C91.4,50.65,74.918,56.53,54.417,54.5c-5.643-.559-17.544-3.511-25.408-6.673,2.148-3.671.432-6.772-2.794-11.451a15.541,15.541,0,0,0,.942-1.494C38.665,13.928,55.776,10.8,64.952,10.8c17.414,0,30.944,7.553,40.214,22.447a2.636,2.636,0,0,1,.392,1.249h0Z"/><path d="M79.642,18.185a22.091,22.091,0,0,0-15.593-7.1c-10.343,0-22.367,9.408-22.367,21.538,0,11.9,9.439,20.534,22.443,20.534,12.032,0,20.566-8.135,21.236-20.242A19.822,19.822,0,0,0,79.642,18.185ZM64.049,37.66a5.539,5.539,0,1,1,5.54-5.539A5.539,5.539,0,0,1,64.049,37.66Zm7.082-11.306a3,3,0,1,1,3-3A3,3,0,0,1,71.131,26.354Z"/></svg>