<svg id="Solid" xmlns="http://www.w3.org/2000/svg" viewBox="0 0 128 128"><title>park, tree, building, garden, relax, sit, bench</title><path d="M124.744,124.569H116.59v-11.1h2.989a3.318,3.318,0,1,0,0-6.636H109.447V95.59h8.961a2,2,0,0,0,2-2V86.905a2,2,0,0,0-2-2H66.19a2,2,0,0,0-2,2V93.59a2,2,0,0,0,2,2h8.961v11.243h-10.5a3.318,3.318,0,0,0,0,6.636h3.358v11.1H34.263v-13.5h.013a17.716,17.716,0,0,0,13.495-7.661C51.2,98.245,51.746,91.173,49.312,83.5l-.566-1.7c-3.13-8.166-6.7-17.482-6.955-26.806-.154-5.4-3.168-11.139-8.63-12.614a16.384,16.384,0,0,0-3.529-.451l-.15,0a13.269,13.269,0,0,0-3.341.485C20.827,44.142,17.8,49.637,17.65,55c-.254,9.323-3.824,18.639-6.973,26.858l-.548,1.653c-2.433,7.671-1.885,14.74,1.542,19.905,2.922,4.4,7.763,6.859,13.547,7.664a31.389,31.389,0,0,0,4.052.22v-8.768a10.075,10.075,0,0,1-9.028-9.862V91.1a1.25,1.25,0,0,1,2.5,0v1.567A7.556,7.556,0,0,0,29.27,100V81.136A7.5,7.5,0,0,1,23.4,73.644V72.5a1.25,1.25,0,0,1,2.5,0v1.148a5.054,5.054,0,0,0,3.371,4.9V71.484a1.25,1.25,0,0,1,2.5,0V91.706a6.7,6.7,0,0,0,4.93-6.671V83.582a1.25,1.25,0,0,1,2.5,0v1.453a9.132,9.132,0,0,1-7.43,9.2l-.007,30.331H3.267a1.25,1.25,0,0,0,0,2.5H124.744a1.25,1.25,0,0,0,0-2.5ZM77.651,95.59h29.3v11.243h-29.3Zm-7.142,17.879H114.09v11.1H70.509Z"/></svg>