<svg id="Solid" xmlns="http://www.w3.org/2000/svg" viewBox="0 0 128 128"><title>parking, building, construction, car, transport, city, urban</title><path d="M121.68,112.721a11.268,11.268,0,0,0-3.11-6.78c-3.72-3.45-9.93-5.14-13.27-6.04-.67-.19-1.32-.36-1.65-.48-.19-.18-.6-.61-1-1.02a58.91,58.91,0,0,0-8.59-7.72,25.158,25.158,0,0,0-6.71-3.49c-16-5.08-42.23-2.04-51.74.13a3,3,0,0,0-2.25,1.97,2.572,2.572,0,0,0,.64,2.54l1.15,1.21a39.707,39.707,0,0,0-6.12,6.75,9.842,9.842,0,0,0-1.1,2.2.851.851,0,0,0-.06.17,10.219,10.219,0,0,0-.53,3.66.09.09,0,0,0-.01.05c0,.03.01.05.01.08a10.323,10.323,0,0,0,.2,1.65,8.8,8.8,0,0,1-.28,4.02,17.662,17.662,0,0,0-.59,4.36c0,2.79,3.78,4.47,6.56,5.33a8.849,8.849,0,1,1,16.31.7h43.2a8.731,8.731,0,0,1-.84-3.75,8.845,8.845,0,1,1,16.86,3.75h8.41a3.425,3.425,0,0,0,2.52-1.12C121.97,118.481,121.69,112.951,121.68,112.721ZM35.76,103.8l-.89.9a4,4,0,0,1-2.83,1.17H28.58l-.01-.03a8.649,8.649,0,0,1,.49-3.31h6.17A.743.743,0,0,1,35.76,103.8Zm14.953-5.208c-2.812-.235-5.281-.469-7.183-.692-1.69-.22-2.17-1.31-1.87-2.22.77-2.39,2.9-5.06,5.35-5.61a52.142,52.142,0,0,1,7.677-.887S50.723,98.456,50.713,98.593Zm4.367,7.658H52.19a1.25,1.25,0,0,1,0-2.5h2.89a1.25,1.25,0,1,1,0,2.5Zm15.713-17.04v10.8c-5.886-.37-12.155-.792-17.535-1.216,0,0,4.07-9.556,4.062-9.737,4.257-.154,9.039-.125,13.485.087C70.8,89.171,70.793,89.189,70.793,89.211Zm7.557,17.04H75.37a1.25,1.25,0,0,1,0-2.5h2.98a1.25,1.25,0,0,1,0,2.5Zm12.86-5.05s-8.127-.429-17.934-1.032c0-.03.017-.055.017-.086V89.29A63.662,63.662,0,0,1,83.37,90.581c4.32,1.07,8.63,6.77,9.52,8.32C93.36,99.7,93.45,101.2,91.21,101.2Zm7.06-1.91a26.648,26.648,0,0,1-6.33-6.19.9.9,0,0,1,.72-1.39c.06,0,.32-.01.69,0,5.12,3.61,9.04,8.42,9.67,8.81C103.02,100.521,101.76,101.4,98.27,99.291Zm14.32,8.41c.18-1.16,3.37-.96,5.22-.75a9.9,9.9,0,0,1,2.33,4.24C119.78,111.231,112.48,111.971,112.59,107.7Z"/><path d="M41.54,111.921a6.345,6.345,0,1,0,6.34,6.34A6.357,6.357,0,0,0,41.54,111.921Zm0,8.63a2.285,2.285,0,1,1,2.29-2.29A2.29,2.29,0,0,1,41.54,120.551Z"/><path d="M123.3,124.611H19.521V77.893H27.4a3,3,0,0,0,3-3V32.861a3,3,0,0,0-3-3H9.139a3,3,0,0,0-3,3V74.892a3,3,0,0,0,3,3h7.882v46.718H6.449a1.25,1.25,0,1,0,0,2.5H123.3a1.25,1.25,0,0,0,0-2.5ZM15.381,59.622a1.743,1.743,0,0,1-1.967-1.789V48.714a1.744,1.744,0,0,1,1.967-1.789h3.576c3.576,0,5.543,1.968,5.543,4.382s-1.967,4.381-5.543,4.381h-1.61v2.145A1.743,1.743,0,0,1,15.381,59.622Z"/><path d="M18.957,50.145h-1.61v2.324h1.61c.894,0,1.431-.536,1.431-1.162S19.851,50.145,18.957,50.145Z"/><path d="M100.74,111.921a6.345,6.345,0,1,0,6.35,6.34A6.355,6.355,0,0,0,100.74,111.921Zm0,8.63a2.285,2.285,0,1,1,2.29-2.29A2.281,2.281,0,0,1,100.74,120.551Z"/></svg>