<svg id="Solid" xmlns="http://www.w3.org/2000/svg" viewBox="0 0 128 128"><title>patient, wheelchair, hospital, medical, disabled, illness, treatment</title><path d="M43.35,57.759a24.67,24.67,0,1,0,24.67,24.67A24.7,24.7,0,0,0,43.35,57.759Zm0,28.736a4.066,4.066,0,1,1,4.066-4.066A4.066,4.066,0,0,1,43.35,86.5Z"/><path d="M122.332,99.712a2.849,2.849,0,0,0-3.357-2.142l-8.725,1.79a.96.96,0,1,0,.385,1.881l8.726-1.789a.932.932,0,0,1,1.1.7.955.955,0,0,1-.745,1.142c-1.86.565-7.158,1.991-9.3,1.806-3.322-.286-5.129-4.485-7.221-9.347-1.658-3.856-3.374-7.843-6.173-10.642-4.4-4.4-8.616-5.718-20.64-6.282a33.277,33.277,0,0,0-1.425-5.53l23.053-2.374a3.033,3.033,0,0,0,2.68-3.342h0a3.012,3.012,0,0,0-3.245-2.479L71.91,64.9a33.684,33.684,0,0,0-7.169-8.261c1.865-.122,5.227-.329,10.5-.616.949-.051,3.894,1.678,5.819,2.881,2.576,1.61,6-.843,4.978-3.7a3.669,3.669,0,0,0-.226-.508A11.342,11.342,0,0,0,75.2,48.725c-3.838.209-14.731.9-23.035,1.372a33.516,33.516,0,0,0-14.148-.753c-1.33-3.766-6.776-18.95-10.345-25.491a19.325,19.325,0,0,0-9.887-8.267A64.069,64.069,0,0,0,7.522,13.069a3.837,3.837,0,0,0-4.1,1.772,3.648,3.648,0,0,0,2.16,5.112c2.189.809,6.369,1.67,8.418,2.447a11,11,0,0,1,6.188,5.842c1.766,4.092,6.75,20.416,7.94,24.337a33.51,33.51,0,1,0,42.79,48.9c3.146-.186,8.452-.89,11.585.185a17.5,17.5,0,0,1,2.748,1.245,9.341,9.341,0,1,0,3.352-4.7,17.9,17.9,0,0,0-3.85-2.439c-2.194-1.033-5.718-1.543-9.95-1.746a33.444,33.444,0,0,0,2.063-11.6,34.093,34.093,0,0,0-.2-3.663c11.974.587,15.256,1.953,19.01,5.706,2.539,2.539,4.18,6.354,5.767,10.044,2.238,5.2,4.353,10.116,8.821,10.5.172.015.356.022.552.022,3.162,0,9.192-1.82,9.413-1.888A2.867,2.867,0,0,0,122.332,99.712ZM43.35,109.1a26.67,26.67,0,1,1,26.67-26.67A26.7,26.7,0,0,1,43.35,109.1Zm50.763-6.5a3.062,3.062,0,1,1-3.062,3.061A3.06,3.06,0,0,1,94.113,102.6Z"/></svg>