<svg id="Solid" xmlns="http://www.w3.org/2000/svg" viewBox="0 0 128 128"><title>patient, bed, hospital, sleep, healthcare, medical, ICU</title><rect x="11.989" y="75.891" width="104.023" height="14.439"/><rect x="11.989" y="92.331" width="104.023" height="5.152"/><path d="M6.968,65.167a3.026,3.026,0,0,0-3.022,3.022V107.33a1.147,1.147,0,0,0,1.145,1.144H8.845a1.146,1.146,0,0,0,1.144-1.144V68.189a3.028,3.028,0,0,0-3.021-3.022Z"/><path d="M54.205,38.839h.987a1.222,1.222,0,0,1,1.222,1.223v.986A5.694,5.694,0,0,0,62.1,46.732h3.935a5.7,5.7,0,0,0,5.694-5.684v-.986a1.222,1.222,0,0,1,1.223-1.223h.987a5.7,5.7,0,0,0,5.683-5.694V29.22a5.686,5.686,0,0,0-5.683-5.683H72.95A1.232,1.232,0,0,1,71.727,22.3v-.986a5.7,5.7,0,0,0-5.694-5.684H62.1a5.693,5.693,0,0,0-5.684,5.684V22.3a1.222,1.222,0,0,1-1.222,1.223h-.987a5.693,5.693,0,0,0-5.683,5.683v3.947A5.693,5.693,0,0,0,54.205,38.839Z"/><path d="M82.923,73.891h33.09v-17.4C111.358,56.7,92.153,58.486,82.923,73.891Z"/><path d="M121.045,51.5a3.027,3.027,0,0,0-3.032,3.021V107.33a1.146,1.146,0,0,0,1.145,1.144h3.764a1.146,1.146,0,0,0,1.144-1.144V54.516A3.024,3.024,0,0,0,121.045,51.5Z"/></svg>