<svg id="Solid" xmlns="http://www.w3.org/2000/svg" viewBox="0 0 128 128"><title>post office, letter, building, construction, station</title><rect x="3.327" y="117.623" width="28.372" height="7.103" rx="2" ry="2"/><path d="M5.011,92.838H5.33v0H29.69v0h.325a1.034,1.034,0,0,0,.992-1.355c-1.2-3.359-6.786-5.9-13.494-5.9S5.22,88.124,4.019,91.483A1.034,1.034,0,0,0,5.011,92.838Z"/><path d="M5.33,115.121H29.69V95.341H5.33Zm6.26-16.79H23.43a2.121,2.121,0,1,1,0,4.24H11.59a2.121,2.121,0,1,1,0-4.24Z"/><path d="M124.944,123.565H121.47a1,1,0,0,1-1-1V75.321a6.743,6.743,0,0,1-1.35.28c-.26.02-.53.04-.8.04a7.757,7.757,0,0,1-4.707-1.59.966.966,0,0,0-1.166,0,7.778,7.778,0,0,1-9.427,0,.965.965,0,0,0-1.162,0,7.8,7.8,0,0,1-9.445,0,.966.966,0,0,0-1.164,0,7.779,7.779,0,0,1-9.429,0,.965.965,0,0,0-1.162,0,7.8,7.8,0,0,1-9.455,0,.963.963,0,0,0-1.166,0,7.8,7.8,0,0,1-9.455,0,.965.965,0,0,0-1.162,0,7.778,7.778,0,0,1-9.427,0,.965.965,0,0,0-1.165,0,7.8,7.8,0,0,1-4.718,1.59c-.26,0-.53-.02-.79-.04a6.743,6.743,0,0,1-1.35-.28v47.244a1,1,0,0,1-1,1H37.494a1.25,1.25,0,0,0,0,2.5h87.45a1.25,1.25,0,1,0,0-2.5ZM98.64,82.411a1,1,0,0,1,1-1h9.92a1,1,0,0,1,1,1v3.356a1,1,0,0,1-1,1H99.64a1,1,0,0,1-1-1Zm1,6.856h9.92a1,1,0,0,1,1,1v8.054a1,1,0,0,1-1,1H99.64a1,1,0,0,1-1-1V90.267A1,1,0,0,1,99.64,89.267ZM80.77,82.411a1,1,0,0,1,1-1h9.92a1,1,0,0,1,1,1v3.356a1,1,0,0,1-1,1H81.77a1,1,0,0,1-1-1Zm1,6.856h9.92a1,1,0,0,1,1,1v8.054a1,1,0,0,1-1,1H81.77a1,1,0,0,1-1-1V90.267A1,1,0,0,1,81.77,89.267ZM53.45,82.411a1,1,0,0,1,1-1h19.1a1,1,0,0,1,1,1V114.17a1,1,0,0,1-1,1H54.45a1,1,0,0,1-1-1Zm0,35.27v-.011h21.1v.011a3.585,3.585,0,0,1,3.04,3.54,3.5,3.5,0,0,1-.537,1.864,1.013,1.013,0,0,1-.858.476H51.805a1.013,1.013,0,0,1-.858-.476,3.5,3.5,0,0,1-.537-1.864A3.585,3.585,0,0,1,53.45,117.681Z"/><path d="M43.571,73.109a5.409,5.409,0,0,0,.543.027,5.3,5.3,0,0,0,4.418-2.365,1.05,1.05,0,0,1,1.772,0,5.247,5.247,0,0,0,4.391,2.36,5.3,5.3,0,0,0,4.423-2.373,1.048,1.048,0,0,1,1.769,0,5.309,5.309,0,0,0,8.847,0,1.049,1.049,0,0,1,1.769,0,5.311,5.311,0,0,0,8.849,0,1.048,1.048,0,0,1,1.769,0,5.289,5.289,0,0,0,8.817.012,1.049,1.049,0,0,1,1.772,0,5.31,5.31,0,0,0,8.842-.008,1.048,1.048,0,0,1,1.768,0,5.3,5.3,0,0,0,4.424,2.373,5.248,5.248,0,0,0,4.391-2.36,1.049,1.049,0,0,1,1.772,0,5.3,5.3,0,0,0,4.418,2.364,5.424,5.424,0,0,0,.543-.027,5.094,5.094,0,0,0,3.94-7.161l-2.338-5.332V44.751h0a15.719,15.719,0,0,0-15.72-15.719H57.69A15.719,15.719,0,0,0,41.97,44.75h0V60.612l-2.339,5.336A5.094,5.094,0,0,0,43.571,73.109Zm.9-23.028h73.5v7.688H44.47Z"/></svg>