<svg id="Solid" xmlns="http://www.w3.org/2000/svg" viewBox="0 0 128 128"><title>protect, medical, healthcare, hospital, vaccine, shield, safe</title><path d="M85.17,84.427A13.375,13.375,0,1,0,98.545,97.8,13.39,13.39,0,0,0,85.17,84.427Zm8.587,10.638-5.893,5.893a5.532,5.532,0,0,1-7.813,0L78.31,99.217a2,2,0,0,1,2.828-2.828l1.741,1.741a1.528,1.528,0,0,0,2.157,0l5.893-5.894a2,2,0,1,1,2.828,2.829Z"/><path d="M85.17,82.427a15.277,15.277,0,0,1,5.221.932,23.181,23.181,0,0,0,2.058-2.775c1.934-3.168,6.105-33.274,7.9-49.238.417-3.7-1.442-4.321-2.053-4.527A109.955,109.955,0,0,0,64.182,21.3c-.059,0-.114,0-.178,0h-.173a109.95,109.95,0,0,0-34.11,5.521c-.611.206-2.47.83-2.053,4.526,1.791,15.965,5.961,46.071,7.9,49.239,4.6,7.539,22.063,20.342,27.305,24.087a1.938,1.938,0,0,0,2.253,0c1.161-.829,2.926-2.105,5.014-3.667A15.359,15.359,0,0,1,85.17,82.427ZM72.05,67.658a1.115,1.115,0,0,0-1.113,1.114v.894a5.173,5.173,0,0,1-5.166,5.166H62.2a5.172,5.172,0,0,1-5.166-5.166v-.888a1.115,1.115,0,0,0-1.114-1.114h-.888A5.171,5.171,0,0,1,49.865,62.5V58.92a5.172,5.172,0,0,1,5.166-5.166h.888a1.115,1.115,0,0,0,1.114-1.113v-.889A5.171,5.171,0,0,1,62.2,46.587h3.572a5.172,5.172,0,0,1,5.166,5.165v.894A1.115,1.115,0,0,0,72.05,53.76h.894a5.171,5.171,0,0,1,5.166,5.166v3.567a5.171,5.171,0,0,1-5.166,5.165Z"/><path d="M103.222,21.246a122.435,122.435,0,0,0-39.016-6.521c-.068,0-.128-.03-.2,0h-.2a122.435,122.435,0,0,0-39.016,6.521,5.324,5.324,0,0,0-3.826,5.53c2.115,18.842,7.045,54.389,9.341,58.149,5.119,8.386,23.475,22.134,31.129,27.656a4.424,4.424,0,0,0,5.116,0c1.776-1.279,4.134-3.008,6.763-5a15.358,15.358,0,0,1-2.577-4.53c-1.838,1.369-3.4,2.5-4.453,3.251a3.938,3.938,0,0,1-4.578,0c-5.319-3.8-23.048-16.81-27.849-24.671-2.591-4.244-7.348-42.669-8.178-50.058-.493-4.382,1.58-6.033,3.406-6.646A112,112,0,0,1,63.832,19.3h.349a112,112,0,0,1,34.747,5.625c1.825.613,3.9,2.264,3.406,6.646-.831,7.389-5.587,45.814-8.178,50.058A23.382,23.382,0,0,1,92.3,84.19,15.433,15.433,0,0,1,96.182,87.1a23.6,23.6,0,0,0,1.525-2.17c2.3-3.76,7.226-39.307,9.34-58.149A5.322,5.322,0,0,0,103.222,21.246Z"/></svg>