<svg id="Solid" xmlns="http://www.w3.org/2000/svg" viewBox="0 0 128 128"><title>Social addict, mental health, disorder, mental illness, smartphone, Nomophobia, phobia</title><path d="M93.647,11.341h-3.28v.54a3.5,3.5,0,0,1-3.5,3.49h-3.24a3.493,3.493,0,0,1-3.49-3.49v-.54h-3.48A4.063,4.063,0,0,0,72.6,15.4v15.87l4.2,8.01,3.92-4.93a1.218,1.218,0,0,1,.97-.47h6.1a1.25,1.25,0,0,1,0,2.5H82.3l-4.74,5.96a1.233,1.233,0,0,1-1.09.46,1.192,1.192,0,0,1-.99-.66l-2.88-5.49v17.43a4.063,4.063,0,0,0,4.06,4.06h16.99a4.063,4.063,0,0,0,4.06-4.06V15.4A4.063,4.063,0,0,0,93.647,11.341ZM92.6,36.3h-1.22a1.25,1.25,0,0,1,0-2.5H92.6a1.25,1.25,0,0,1,0,2.5Z"/><path d="M92.547,99.211c-.25-3.93.94-9.35,3.34-12.47,9.58-12.43,13.83-23.21,11.83-36.46a43.418,43.418,0,0,0-4.74-14.5V13.311a7.545,7.545,0,0,0-7.62-7.45h-20.4a7.547,7.547,0,0,0-7.63,7.45v2.98c-22.52-.73-41.58,13.87-40.96,33.89.08,2.69.55,6.63.54,9.21-.02,9.17-7.95,12.93-8.1,15.85-.25,4.79,5.37,3.29,7.36,10.07,2.51,8.6-1.1,18.41,10.62,17.8,4.68-.19,12.28-2,15.54,1.03,2.08,1.93,3.75,10.35,4.4,14.08a2.157,2.157,0,0,0,2.13,1.79h35.2a2.162,2.162,0,0,0,2.08-2.76C94.967,113.221,92.947,105.521,92.547,99.211Zm-20.91-39.28a4.822,4.822,0,0,1-1.81-3.76v-24.8l-1.12-2.13-1.38,3.32-6.01,14.48a1.259,1.259,0,0,1-1.11.77h-.04a1.249,1.249,0,0,1-1.12-.69l-6.74-13.58-2.73,3.77a1.228,1.228,0,0,1-1.01.52h-7a1.25,1.25,0,1,1,0-2.5h6.36L51.5,30.4a1.249,1.249,0,0,1,2.13.18l6.44,12.96,7.26-17.48.1-.24a1.233,1.233,0,0,1,1.1-.77,1.259,1.259,0,0,1,1.16.67l.14.27V13.311a5.047,5.047,0,0,1,5.13-4.95h20.4a5.045,5.045,0,0,1,5.12,4.95v42.86a5.045,5.045,0,0,1-5.12,4.95h-20.4A5.194,5.194,0,0,1,71.637,59.931Z"/></svg>