<svg id="Solid" xmlns="http://www.w3.org/2000/svg" viewBox="0 0 128 128"><title>syringe, healthcare, medical, hospital, treatment, medicine, liquid</title><path d="M84.21,21.393c-9.485-.659-9.929,13.053-1.261,13.631S94.736,22.124,84.21,21.393Z"/><path d="M17.066,9.972c.828-2.94,6.076-2.764,6.043,1.772S15.6,15.2,17.066,9.972Z"/><path d="M21.668,43.69c.828-2.94,6.076-2.764,6.043,1.773S20.2,48.915,21.668,43.69Z"/><path d="M83.912,46.985c.828-2.94,6.077-2.764,6.043,1.772S82.441,52.21,83.912,46.985Z"/><path d="M44.471,11.253c-1.394-4.3-7.41-10.773-11.317-7a5.206,5.206,0,0,0-1.075,6.041c1.347,3.07,4.839,1.947,7.252,4.861C41.241,17.457,45.65,14.89,44.471,11.253Z"/><path d="M101.117,113.542c-.528-1.2-4.3-.762-9.135.89-.019-.053-.032-.108-.055-.16l-5.051-11.485c.83-.453,1.654-.92,2.465-1.416a7.427,7.427,0,0,0,3.55-5.423c.034-.283.048-.478.059-.655a7.164,7.164,0,0,0-.621-3.307l-2.84-6.459a.982.982,0,0,1-.462.089c-.008,0-2.773-.014-6.155,4.434-3.556,4.686-9.647,6.8-13.783,7.182q-.789.072-1.525.072a10.06,10.06,0,0,1-4.223-.81l3.036,6.9a7.355,7.355,0,0,0,2.544,3.091,7.533,7.533,0,0,0,6.4,1.049c.914-.263,1.815-.554,2.71-.86l5.041,11.464c.03.067.068.127.1.191-4.34,2.4-7.1,4.814-6.577,5.993.68,1.546,6.72.385,13.492-2.593S101.8,115.087,101.117,113.542Z"/><path d="M73.074,48.28a7.45,7.45,0,0,0-8.611-4.227c-1.454.361-3.939,1.127-3.939,1.127L55.418,33.57a3.434,3.434,0,0,0-3.945-1.725.887.887,0,0,0-.026-.116L45.653,18.554a1,1,0,1,0-1.83.8l5.794,13.175a.864.864,0,0,0,.064.1,3.435,3.435,0,0,0-1.392,4.071l5.1,11.6q-1.838.988-3.592,2.148a7.44,7.44,0,0,0-2.688,9.193l3.111,7.075h0l4.308-1.895a1,1,0,1,1,.8,1.831l-4.309,1.895h0c1.073,2.44,2.213,5.033,3.386,7.7h0l4.309-1.9a1,1,0,0,1,.8,1.832l-4.308,1.895,3.385,7.7h0l4.31-1.895a1,1,0,0,1,.8,1.831l-4.31,1.895,2.778,6.316a14.912,14.912,0,0,0,6.677,1.3c4.028-.374,9.416-2.5,12.376-6.4,3.275-4.308,6.24-5.068,7.38-5.2Z"/></svg>