<svg id="Solid" xmlns="http://www.w3.org/2000/svg" viewBox="0 0 128 128"><title>teeth, dental, trouble, toothache, sign, medical, healthcare, hospital</title><path d="M83.519,4.884a31.2,31.2,0,0,0-28.96,42.73,3.763,3.763,0,0,0,2.07-1,30.931,30.931,0,0,1,5.75-4.33,21.724,21.724,0,0,1-.9-6.23,22.04,22.04,0,1,1,31.5,19.91,28.989,28.989,0,0,1,1.54,7.18c.06.68.11,1.36.15,2.03a31.177,31.177,0,0,0-11.15-60.29Zm13.76,31.17a13.76,13.76,0,1,0-27,3.75q.405-.03.81-.03a22.45,22.45,0,0,1,17.93,8.9A13.762,13.762,0,0,0,97.279,36.054Zm-13.76,4.72a4.72,4.72,0,1,1,4.72-4.72A4.722,4.722,0,0,1,83.519,40.774Z"/><path d="M83.519,22.294A13.763,13.763,0,0,0,70.279,39.8q.405-.03.81-.03a22.45,22.45,0,0,1,17.93,8.9,13.764,13.764,0,0,0-5.5-26.38Zm0,18.48a4.72,4.72,0,1,1,4.72-4.72A4.722,4.722,0,0,1,83.519,40.774Z"/><path d="M83.519,22.294A13.763,13.763,0,0,0,70.279,39.8q.405-.03.81-.03a22.45,22.45,0,0,1,17.93,8.9,13.764,13.764,0,0,0-5.5-26.38Zm0,18.48a4.72,4.72,0,1,1,4.72-4.72A4.722,4.722,0,0,1,83.519,40.774Z"/><path d="M92.739,66.874a31.011,31.011,0,0,0-1.96-11.07,29.237,29.237,0,0,0-4.53-7.29,20.9,20.9,0,0,0-14.11-6.71h-.01c-.34-.02-1.8,0-2.19.03-3.224.261-7.285,2.367-11.621,5.906a7.438,7.438,0,0,1-3.969,1.874,5.739,5.739,0,0,1-4.24-1.54c-4.46-4.18-8.87-6.3-13.09-6.3-11.33,0-20.35,9.06-21.44,21.54a61.814,61.814,0,0,0,16.13,47.64c6.64,7.26,12.52,10.27,14.19,10.27,2.76,0,3.21-7.13,3.57-12.86.44-6.97.82-12.99,4.58-12.99s4.15,6.02,4.59,12.99c.36,5.73.81,12.86,3.57,12.86,1.67,0,7.55-3.01,14.19-10.27A63.926,63.926,0,0,0,92.739,66.874ZM37.273,86.931a4.721,4.721,0,0,1-.88-.056,2.733,2.733,0,0,1-2.417-3.393,5.284,5.284,0,0,1,1.5-2.389c.965-.942,1.215-2.217,1.828-2.087.574.121.318,1.116,1.178,2.092a5.893,5.893,0,0,1,1.365,2.4A2.8,2.8,0,0,1,37.273,86.931Zm9.556-11.315a7.2,7.2,0,0,1-5.086,2.412c-.09,0-.179,0-.269-.006a7.338,7.338,0,0,1-4.856-2.473,1,1,0,0,1,1.538-1.279,5.369,5.369,0,0,0,3.426,1.755A5.262,5.262,0,0,0,45.415,74.2a1,1,0,1,1,1.414,1.414ZM56.513,85.2a1,1,0,0,1-1-1,1.46,1.46,0,0,0-2.92,0,1,1,0,0,1-2,0,3.46,3.46,0,0,1,6.92,0A1,1,0,0,1,56.513,85.2Zm14.975-9.646a7.338,7.338,0,0,1-4.856,2.473c-.09,0-.179.006-.269.006a7.193,7.193,0,0,1-5.085-2.412A1,1,0,1,1,62.692,74.2a5.176,5.176,0,0,0,3.848,1.822,5.383,5.383,0,0,0,3.41-1.754,1,1,0,0,1,1.538,1.279Z"/></svg>