<svg id="Solid" xmlns="http://www.w3.org/2000/svg" viewBox="0 0 128 128"><title>Therapy, treatment, mental health, healthcare, Meditation, healthy</title><path d="M84.932,117.915c-.025-.155-.051-.309-.075-.456-1.676-4.809-2.132-13.363-1.218-23.585,3.556-2.341,22.254-16.274,9.947-43.6-.09-.21-.19-.42-.29-.63-2.97-6.36-7.39-12.53-11.66-18.51-1.84-2.57-3.72-5.19-5.49-7.84-1.29-1.92-2.52-3.86-3.63-5.8-3.77-6.55-10.4-7.63-14.97-5.86a9.835,9.835,0,0,0-5.63,5.35c-.01.02-.02.05-.03.07-20.61,1.1-37.29,15.09-36.71,33.84.08,2.69.55,6.63.54,9.21-.02,9.17-7.95,12.93-8.1,15.85-.25,4.79,5.37,3.29,7.36,10.07,2.51,8.6-1.1,18.41,10.62,17.8,4.68-.19,12.28-2,15.54,1.03,2.08,1.93,3.75,10.35,4.4,14.08a2.157,2.157,0,0,0,2.13,1.79h35.2a2.162,2.162,0,0,0,2.08-2.76ZM61.6,93.945a3.108,3.108,0,0,1,2.49-1.23,3.742,3.742,0,0,1,.8.08c3.1.61,7.52,4.88,10.12,11.73-7.6-.26-12.39-3.23-13.84-6.24A3.851,3.851,0,0,1,61.6,93.945Zm-3.14-79.98a8.865,8.865,0,0,1,3.22-.59,9.931,9.931,0,0,1,8.67,5.37c.43.75.87,1.49,1.34,2.23,2.43,3.95,5.21,7.84,7.91,11.62,4.35,6.07,8.85,12.35,11.71,18.71a48.359,48.359,0,0,1,2.67,7.39C98.9,76.964,88.518,87.154,83.883,90.666c1.039-17.968-3.866-42.825-14.2-54.007a1.25,1.25,0,1,0-1.836,1.7c9.8,10.606,14.769,35.782,13.461,53.371-.455-.076-1.012-.18-1.672-.332-6.37-1.55-21.31-7.7-23.97-31.49a58.4,58.4,0,0,1-.01-11.38,76.348,76.348,0,0,0-1.83-24.8,8.706,8.706,0,0,1,.84-6.64.607.607,0,0,1,.07-.1A7.676,7.676,0,0,1,58.456,13.965Z"/><path d="M87.585,25.318c1.805,1.14,4.327.584,5.511.219a.83.83,0,0,0,.587-.928c-.18-1.226-.761-3.743-2.566-4.883s-4.328-.584-5.512-.219a.831.831,0,0,0-.587.928C85.2,21.661,85.779,24.178,87.585,25.318Z"/><path d="M37.225,11.708c1.189.347,3.72.866,5.508-.3s2.332-3.693,2.494-4.921a.831.831,0,0,0-.6-.919c-1.19-.347-3.72-.866-5.508.3s-2.332,3.692-2.494,4.92A.832.832,0,0,0,37.225,11.708Z"/><path d="M118.226,30.98a6.838,6.838,0,0,0-4.679-2.807c-5.921-1.167-9.755,3.018-13.816,7.448a40.951,40.951,0,0,1-7.424,6.859,1.25,1.25,0,0,0,1.372,2.09,42.845,42.845,0,0,0,7.894-7.26c3.882-4.234,6.952-7.579,11.491-6.684a4.5,4.5,0,0,1,3.078,1.735c1.47,2.218.551,6.628-.614,12.212-1.038,4.976-2.33,11.171-2.248,17.842.245,19.871-13.844,29.038-27.111,30.992a1.25,1.25,0,0,0,.18,2.486,1.149,1.149,0,0,0,.184-.014c13.657-2.01,29.512-11.99,29.247-33.5a78.189,78.189,0,0,1,2.195-17.3C119.259,38.929,120.273,34.068,118.226,30.98Z"/><path d="M99.785,99.394c-2.747.516-5.382,4.065-7.834,10.537a23.069,23.069,0,0,1-5.324,3.983,1.25,1.25,0,0,0,1.253,2.164,25.971,25.971,0,0,0,5.829-4.365c5.743-1.414,9.858-4.067,10.777-6.975a3.817,3.817,0,0,0-.83-3.82A4.037,4.037,0,0,0,99.785,99.394Zm2.317,4.591c-.463,1.467-2.777,3.376-6.968,4.733,2.559-5.923,4.524-6.757,5.112-6.867a1.264,1.264,0,0,1,.233-.022,1.791,1.791,0,0,1,1.313.755A1.322,1.322,0,0,1,102.1,103.985Z"/></svg>