<svg id="Solid" xmlns="http://www.w3.org/2000/svg" viewBox="0 0 128 128"><title>wat, temple, buddhist, trevel, building, construction, pagoda</title><path d="M124,124.611h-5.1c-2.22,0-4-5.62-5.71-11.05-2.25-7.11-5-15.76-10.6-20.63a3.186,3.186,0,0,0,.63-2.42l-.39-2.66a3.285,3.285,0,0,0-2.64-2.71c0-.02-.01-.03-.01-.05H27.88c0,.01-.01.03-.01.04a3.292,3.292,0,0,0-2.7,2.72l-.39,2.66a3.2,3.2,0,0,0,.65,2.46c-5.57,4.87-8.31,13.49-10.55,20.59-1.72,5.43-3.5,11.05-5.71,11.05H5a1.25,1.25,0,1,0,0,2.5H124a1.25,1.25,0,0,0,0-2.5Z"/><path d="M66.21,5.521a2.251,2.251,0,0,0-4.36,0l-9.02,34.69h22.4Z"/><path d="M78.7,48.741a.921.921,0,0,0,.08-.38l-.71-4a2.005,2.005,0,0,0-1.97-1.65H51.9a2.005,2.005,0,0,0-1.97,1.65l-.71,4a1,1,0,0,0,.1.42c-11.38,8.86-18.09,23.58-20.83,33.81H99.57C96.82,72.341,90.11,57.6,78.7,48.741Z"/></svg>