<svg width="160" height="160" viewBox="0 0 160 160" fill="none" xmlns="http://www.w3.org/2000/svg">
    <defs>
        <g id="purple-cube">
            <path d="M12 4L0 10L12 16L24 10L12 4Z" fill="#9055E0" fill-opacity="0.7"/>
            <path d="M0 10V22L12 28V16L0 10Z" fill="#9055E0"/>
            <path d="M12 28L24 22V10L12 16V28Z" fill="#9055E0" fill-opacity="0.9"/>
        </g>
    </defs>

    <!-- Radiating Lines -->
    <line x1="80" y1="80" x2="30" y2="30" stroke="#D6D3D1" stroke-width="1"/>
    <line x1="80" y1="80" x2="130" y2="40" stroke="#D6D3D1" stroke-width="1"/>
    <line x1="80" y1="80" x2="40" y2="130" stroke="#D6D3D1" stroke-width="1"/>
    <line x1="80" y1="80" x2="120" y2="130" stroke="#D6D3D1" stroke-width="1"/>
    <line x1="80" y1="80" x2="80" y2="20" stroke="#D6D3D1" stroke-width="1"/>
    <line x1="80" y1="80" x2="20" y2="80" stroke="#D6D3D1" stroke-width="1"/>
    <line x1="80" y1="80" x2="140" y2="80" stroke="#D6D3D1" stroke-width="1"/>
    <line x1="80" y1="80" x2="80" y2="140" stroke="#D6D3D1" stroke-width="1"/>

    <!-- Central Point -->
    <circle cx="80" cy="80" r="8" fill="#A855F7"/>

    <!-- Cubes -->
    <use href="#purple-cube" x="15" y="15"/>
    <use href="#purple-cube" x="120" y="25" transform="scale(0.8)"/>
    <use href="#purple-cube" x="25" y="115" transform="scale(0.9)"/>
    <use href="#purple-cube" x="110" y="115" transform="scale(1.1)"/>
    <use href="#purple-cube" x="70" y="5" transform="scale(0.7)"/>
    <use href="#purple-cube" x="5" y="70" transform="scale(0.9)"/>
    <use href="#purple-cube" x="130" y="70" transform="scale(0.8)"/>
    <use href="#purple-cube" x="70" y="130" transform="scale(1)"/>
</svg>