<svg width="200" height="200" viewBox="0 0 200 200" fill="none" xmlns="http://www.w3.org/2000/svg">
    <defs>
        <g id="isometric-cube-outline-small">
            <path d="M12 4L0 10L12 16L24 10L12 4Z" stroke="#1C1917" stroke-width="0.5"/>
            <path d="M0 10V22L12 28V16L0 10Z" stroke="#1C1917" stroke-width="0.5"/>
            <path d="M12 28L24 22V10L12 16V28Z" stroke="#1C1917" stroke-width="0.5"/>
        </g>
    </defs>

    <!-- First Cube (Start) -->
    <g transform="translate(30, 80)">
        <use href="#isometric-cube-outline-small" x="0" y="0" fill="#9055E0"/>
    </g>
    <circle cx="62" cy="96" r="3" fill="#9055E0"/>
    <path d="M62 96 L94 96" stroke="#1C1917" stroke-width="0.5" stroke-dasharray="2 2"/>
    <path d="M90 93L94 96L90 99" stroke="#1C1917" stroke-width="0.5"/>

    <!-- Second Cube (Process) -->
    <g transform="translate(94, 80)">
        <use href="#isometric-cube-outline-small" x="0" y="0" fill="#00CAFF"/>
    </g>
    <circle cx="126" cy="96" r="3" fill="#00CAFF"/>
    <path d="M126 96 L158 96" stroke="#1C1917" stroke-width="0.5" stroke-dasharray="2 2"/>
    <path d="M154 93L158 96L154 99" stroke="#1C1917" stroke-width="0.5"/>

    <!-- Third Cube (End) -->
    <g transform="translate(158, 80)">
        <use href="#isometric-cube-outline-small" x="0" y="0" fill="#4F46E5"/>
    </g>
</svg>
