<svg id="Solid" xmlns="http://www.w3.org/2000/svg" viewBox="0 0 64 64"><title>boy, people, avatar, man, male, freckles, ginger</title><path d="M32.486,24.6v.83a.935.935,0,0,1-.93.93h-.28a.935.935,0,0,1-.93-.93V24.6a.928.928,0,0,1,.93-.93h.28A.928.928,0,0,1,32.486,24.6Z"/><path d="M21.306,24.609v.83a.935.935,0,0,1-.93.93H20.1a.935.935,0,0,1-.93-.93v-.83a.928.928,0,0,1,.93-.93h.28A.928.928,0,0,1,21.306,24.609Z"/><path d="M29.575,24.183a.521.521,0,0,1-.49-.534,1.007,1.007,0,0,1,.684-.912,3.443,3.443,0,0,1,3.23.549.5.5,0,0,1-.687.727,2.389,2.389,0,0,0-1.616-.46,1.08,1.08,0,0,0-.631.162A.465.465,0,0,1,29.575,24.183Z"/><path d="M18.4,24.192a.52.52,0,0,1-.489-.533,1,1,0,0,1,.684-.912,3.442,3.442,0,0,1,3.229.549.5.5,0,1,1-.687.726,2.409,2.409,0,0,0-1.615-.46,1.087,1.087,0,0,0-.632.163A.465.465,0,0,1,18.4,24.192Z"/><path d="M32.116,29.829a.29.29,0,1,0-.29-.29A.29.29,0,0,0,32.116,29.829Z"/><path d="M27.427,32.784a.5.5,0,0,0-.688.164,1.364,1.364,0,0,1-1.164.57h0a.856.856,0,0,1-.7-.244.5.5,0,0,0-.849.53,1.774,1.774,0,0,0,1.549.714h.008a2.355,2.355,0,0,0,2.014-1.046A.5.5,0,0,0,27.427,32.784Z"/><path d="M25.355,30.614a1.286,1.286,0,0,0,.471-.089.5.5,0,1,0-.361-.931.3.3,0,0,1-.244-.011.4.4,0,0,1-.16-.136.5.5,0,0,0-.972-.217,1.006,1.006,0,0,0,.343,1.011A1.352,1.352,0,0,0,25.355,30.614Z"/><path d="M41.621,28.779a.488.488,0,0,0,.107.012.5.5,0,0,0,.488-.394,1.2,1.2,0,0,1,1.246-.807.5.5,0,0,0,.123-.992,2.183,2.183,0,0,0-2.346,1.586A.5.5,0,0,0,41.621,28.779Z"/><path d="M30.872,31.789a.29.29,0,1,0-.29-.29A.29.29,0,0,0,30.872,31.789Z"/><path d="M33.882,27.789a.29.29,0,1,0-.29-.29A.29.29,0,0,0,33.882,27.789Z"/><path d="M33.592,31.379a.3.3,0,1,0-.29-.3A.293.293,0,0,0,33.592,31.379Z"/><path d="M30.052,29.249a.29.29,0,1,0-.29-.29A.29.29,0,0,0,30.052,29.249Z"/><path d="M22.782,28.419a.29.29,0,1,0,0,.58.29.29,0,0,0,0-.58Z"/><path d="M21.962,30.959a.29.29,0,1,0,.29.29A.29.29,0,0,0,21.962,30.959Z"/><path d="M20.712,29a.29.29,0,1,0,.3.29A.29.29,0,0,0,20.712,29Z"/><path d="M19.232,30.539a.3.3,0,0,0,0,.59.3.3,0,1,0,0-.59Z"/><path d="M19.042,27.649a.29.29,0,1,0-.29.29A.29.29,0,0,0,19.042,27.649Z"/><path d="M29.552,51.239a.7.7,0,1,0,.69.69A.691.691,0,0,0,29.552,51.239Z"/><path d="M49.131,54.3c-.988-4.44-5.677-8.269-9.471-10.252-.322-.886-1.88-3.766-1.88-3.766a.45.45,0,0,0-.609-.178,14.34,14.34,0,0,1-.586-2.311,14.335,14.335,0,0,0,3.971-5.158,3.033,3.033,0,0,0,.994.425c2.332.516,4.252-1.542,4.766-3.835a5.763,5.763,0,0,0-.131-3.095c1.279-2.085,2-4.41,1.68-9.183-.237-3.57-4.26-14.123-14.412-14.709C24.048.567,16.229,7.922,13.9,13.414c-1.881,4.438-2.374,6.039-2.02,8.088a2.353,2.353,0,0,0,1.5,1.829,2.962,2.962,0,0,0,2.855-.462c.2,1.079.4,2.532.424,3,.2,5.836,1.314,9.68,3.5,12.1a9.893,9.893,0,0,0,7.265,2.981s.438,1.455.52,1.995c-.083-.057-.166-.112-.248-.165a.5.5,0,0,0-.63.073,7.4,7.4,0,0,0-1.52,2.56C19.581,48.177,15.8,51.284,14,54.906c-1.159,2.333-.2,3.67.818,4.381,2.6,1.808,7.166,2.724,13.575,2.724,9.085,0,15.477-2.423,17.824-3.856l.281-.172C47.711,57.246,49.543,56.132,49.131,54.3ZM37.38,41.546a20.877,20.877,0,0,1,1.339,2.839,23.359,23.359,0,0,1-3.58,5.894.124.124,0,0,1-.183-.037,38.431,38.431,0,0,0-2.047-4.455A11.283,11.283,0,0,0,37.38,41.546ZM27.736,39.96A9.006,9.006,0,0,1,20.907,37.3c-1.991-2.2-3.051-5.952-3.242-11.467a35.4,35.4,0,0,0-.617-4.019c.122-.215.247-.455.371-.714a2.61,2.61,0,0,0,.337,1.006,1.9,1.9,0,0,0,1.682.878h.077a5.259,5.259,0,0,0,4.112-2.142,2.326,2.326,0,0,0,.818,2.065,3.381,3.381,0,0,0,1.8.484,4.362,4.362,0,0,0,1.133-.154A6.862,6.862,0,0,0,30.956,20.6a2.46,2.46,0,0,0,1.334,2.433,3.861,3.861,0,0,0,4.292-1.057c-.521,1.73-.323,2.463-.071,2.881a2.48,2.48,0,0,0,2.267,1.127,4.938,4.938,0,0,0,.688-.058.5.5,0,0,0,.885.462A3.846,3.846,0,0,1,41.887,25a2.706,2.706,0,0,1,1.621-.217,2.2,2.2,0,0,1,1.418,1.011,4.423,4.423,0,0,1,.415,3.216c-.4,1.775-1.878,3.464-3.572,3.078a2.86,2.86,0,0,1-1.127-.621.5.5,0,0,0-.774.227,13.188,13.188,0,0,1-4.9,6.02.5.5,0,0,0-.164.687.489.489,0,0,0,.426.239,1.1,1.1,0,0,0,.447-.2,19,19,0,0,0,.788,2.685,9.925,9.925,0,0,1-4.425,3.951,1.5,1.5,0,0,0-.217-.046,2.344,2.344,0,0,0-1.551.827c-.1-.133-.994-1.607-1.307-1.982a7.017,7.017,0,0,0-.505-2.966,26.088,26.088,0,0,0,3.022-.651.5.5,0,1,0-.307-.951A13.653,13.653,0,0,1,27.736,39.96Zm-1.554,6.709a8.274,8.274,0,0,1,1.335-2.812,4.033,4.033,0,0,1,1.055,1.157.821.821,0,0,0-.349.23,40.631,40.631,0,0,0-2.782,4.25A23.576,23.576,0,0,1,26.182,46.669Zm-10.79,11.8c-.651-.457-1.41-1.277-.495-3.118,1.6-3.233,4.967-6.055,10.216-8.615-.3.992-1.059,3.637-.694,4.326a.627.627,0,0,0,.556.337c.519-.007.917-.683,1.767-2.144a25.243,25.243,0,0,1,2.139-3.291c.1-.009.442.194.777.774a37.392,37.392,0,0,0-4.831,14.156C20.5,60.615,17.32,59.808,15.392,58.468Zm30.587-1.339-.285.174c-2.255,1.377-8.437,3.708-17.3,3.708-.9,0-1.747-.024-2.568-.059A35.241,35.241,0,0,1,31.1,46.412a1.061,1.061,0,0,1,.773-.383c.862.95,2.037,4.3,2.156,4.59a1.108,1.108,0,0,0,1.808.375,23.483,23.483,0,0,0,3.668-5.9c3.542,1.923,7.761,5.43,8.65,9.419C48.391,55.565,47.31,56.32,45.979,57.129Z"/><path d="M27.8,56.409a.7.7,0,0,0-.69.7.7.7,0,0,0,1.39,0A.7.7,0,0,0,27.8,56.409Z"/></svg>