<svg id="Solid" xmlns="http://www.w3.org/2000/svg" viewBox="0 0 64 64"><title>boy, people, avatar, man, male, teenager, ear piercing</title><path d="M30.462,24.782v.66a.93.93,0,0,1-1.86,0v-.66a.917.917,0,0,1,.87-.93.375.375,0,0,1,.11.01.433.433,0,0,1,.05.01,2.358,2.358,0,0,1,.46.17A.887.887,0,0,1,30.462,24.782Z"/><path d="M19.332,24.782v.66a.93.93,0,0,1-1.86,0v-.66a.95.95,0,0,1,.6-.88.5.5,0,0,1,.13-.04,1.231,1.231,0,0,1,.2-.02A.93.93,0,0,1,19.332,24.782Z"/><path d="M27.3,24.891a.5.5,0,0,1-.325-.88,3.26,3.26,0,0,1,2.709-.638l.038.008.036.008a2.843,2.843,0,0,1,.553.205,1.636,1.636,0,0,1,.288.161.5.5,0,1,1-.581.814.728.728,0,0,0-.128-.069,2.114,2.114,0,0,0-.378-.142h-.007l-.048-.01a2.263,2.263,0,0,0-1.836.428A.507.507,0,0,1,27.3,24.891Z"/><path d="M15.932,24.892a.5.5,0,0,1-.326-.879,3.222,3.222,0,0,1,2.717-.636,3.082,3.082,0,0,1,.868.352.5.5,0,1,1-.5.866,2.145,2.145,0,0,0-.6-.244,2.213,2.213,0,0,0-1.839.42A.5.5,0,0,1,15.932,24.892Z"/><path d="M27.391,21.992a.5.5,0,0,1-.136-.981,5.109,5.109,0,0,1,3.108-.125.5.5,0,0,1,.354.476.514.514,0,0,1-.674.471,4.252,4.252,0,0,0-2.515.14A.5.5,0,0,1,27.391,21.992Z"/><path d="M40.382,32.832a.5.5,0,0,1-.084-.993.9.9,0,0,0,.088-.318.521.521,0,0,1,.01-.057,1.307,1.307,0,0,0-.128-.778.5.5,0,0,1-.123-.692.506.506,0,0,1,.7-.123,1.894,1.894,0,0,1,.543,1.692c0,.02-.007.049-.013.08h0C41.27,32.519,40.793,32.832,40.382,32.832Z"/><path d="M25.065,32.345a2.357,2.357,0,0,1-1.754.626h0a1.672,1.672,0,0,1-1.121-.3.5.5,0,1,0-.771.637,2.58,2.58,0,0,0,1.892.66h0a3.264,3.264,0,0,0,2.525-.992.5.5,0,0,0-.773-.634Z"/><path d="M22.992,30.626a1.3,1.3,0,0,0,.47-.087.5.5,0,0,0-.36-.933.3.3,0,0,1-.246-.011.4.4,0,0,1-.159-.135.5.5,0,0,0-.972-.217,1.006,1.006,0,0,0,.343,1.011A1.351,1.351,0,0,0,22.992,30.626Z"/><path d="M48.01,54.314c-.834-3.763-3.882-7.306-8.35-9.716-.148-.084-1.223-.622-1.558-.77-1.486-1-2.437-5.24-2.769-7.551a13.884,13.884,0,0,0,3.249-4.619,2.969,2.969,0,0,0,.985.413,3.279,3.279,0,0,0,1.429,0,5,5,0,0,0,3.334-3.838,5.7,5.7,0,0,0-.255-3.345,3.917,3.917,0,0,0-.792-1.206,4.266,4.266,0,0,0,2.04-1.338,6.023,6.023,0,0,0,1.253-5.588,12.3,12.3,0,0,0-3.565-5.443,8.224,8.224,0,0,1-1.819-2.247A13.123,13.123,0,0,0,26.505,2.137,11.966,11.966,0,0,0,16.352,5.575c-2.143,2.1-3.427,5-4.8,9a19.257,19.257,0,0,1-1.476,3.268A5.8,5.8,0,0,0,9.1,21.064a3.067,3.067,0,0,0,1.87,2.789,2.864,2.864,0,0,0,3.1-.511s.474,2.324.486,2.546c.309,6.025,1.388,9.754,3.5,12.089a9.985,9.985,0,0,0,7.571,3,6.483,6.483,0,0,0,.664-.052l.009.032c.41,1.346.92,3.021.342,3.443A37.474,37.474,0,0,1,22.4,46.424c-4.727,2.376-7.85,5.134-9.514,8.493-1.172,2.329-.207,3.669.812,4.386,2.605,1.8,7.172,2.719,13.574,2.719A42.545,42.545,0,0,0,42.287,59.5a22.547,22.547,0,0,0,3.056-1.478C46.585,57.3,48.424,56.156,48.01,54.314ZM25.248,46.2a12.038,12.038,0,0,0,2-1.006c1.124-.822.585-2.661.039-4.455a16.786,16.786,0,0,0,2.12-.722.5.5,0,1,0-.381-.924,9.76,9.76,0,0,1-3.393.877A8.758,8.758,0,0,1,18.8,37.307c-1.946-2.153-2.946-5.691-3.242-11.473-.016-.275-.56-2.959-.56-2.959a3.683,3.683,0,0,0,.961.552,3.481,3.481,0,0,0,2.2-.27A4.551,4.551,0,0,0,19.8,21.948a3.618,3.618,0,0,0,2.177,2.175c1.7.634,4.153.152,5.834-2.354a8.982,8.982,0,0,0,.917-1.808,4.992,4.992,0,0,0,1.142,1.764c.912.867,2.545,1.544,5.261.172a2.97,2.97,0,0,0,1.9,2.968,3.788,3.788,0,0,0,1.326.226,4.894,4.894,0,0,0,3.33-1.3,2.566,2.566,0,0,1,1.464,1.474,4.683,4.683,0,0,1,.2,2.744A3.978,3.978,0,0,1,40.769,31.1a2.21,2.21,0,0,1-.991,0,2.65,2.65,0,0,1-1.119-.615.5.5,0,0,0-.783.238,12.761,12.761,0,0,1-3.405,5,9.823,9.823,0,0,1-1.351,1.01.5.5,0,0,0-.164.688.44.44,0,0,0,.426.237,3.1,3.1,0,0,0,1.058-.62c.3,1.791,1.12,5.665,2.731,7.286a12.775,12.775,0,0,1-8.1,4.084,5.831,5.831,0,0,1-4.138-1.217,1.267,1.267,0,0,1-.352-.68Zm-1.589.728a2.349,2.349,0,0,0,.541.937,6.588,6.588,0,0,0,4.63,1.539c.088,0,.177,0,.266,0,2.948-.085,7.3-2.338,8.9-4.521.226.106.453.211.679.328a13.716,13.716,0,0,1-9.233,4.864c-2.539.1-4.658-.447-5.667-1.469a2.1,2.1,0,0,1-.633-1.427Q23.406,47.048,23.659,46.93Z"/><path d="M39.64,27.791a.443.443,0,0,0,.1.011.5.5,0,0,0,.489-.4,1.2,1.2,0,0,1,1.241-.8.5.5,0,0,0,.119-.994A2.175,2.175,0,0,0,39.252,27.2.5.5,0,0,0,39.64,27.791Z"/></svg>