<svg id="Solid" xmlns="http://www.w3.org/2000/svg" viewBox="0 0 64 64"><title>boy, people, avatar, man, male, teenager, hood</title><path d="M29.382,24.272a.52.52,0,0,1-.49-.533,1,1,0,0,1,.684-.911,3.44,3.44,0,0,1,3.229.547.5.5,0,1,1-.686.728,2.354,2.354,0,0,0-1.617-.461,1.08,1.08,0,0,0-.63.163A.465.465,0,0,1,29.382,24.272Z"/><path d="M25.218,33.958a2.581,2.581,0,0,1-1.892-.66.5.5,0,0,1,.772-.637,1.669,1.669,0,0,0,1.12.3h0a2.359,2.359,0,0,0,1.754-.626.5.5,0,1,1,.772.635,3.267,3.267,0,0,1-2.525.991Z"/><path d="M24.9,30.614a1.356,1.356,0,0,1-.924-.372,1.008,1.008,0,0,1-.343-1.012.5.5,0,0,1,.972.218.4.4,0,0,0,.159.134.3.3,0,0,0,.246.011.5.5,0,0,1,.36.933A1.3,1.3,0,0,1,24.9,30.614Zm-.313-1.086Z"/><path d="M34.361,21.689a.491.491,0,0,1-.242-.063c-1.568-.874-5.831-.691-6.393-.094A.5.5,0,1,1,27,20.847c1-1.061,5.764-1.121,7.607-.1a.5.5,0,0,1-.244.937Z"/><path d="M21.751,21.689a.488.488,0,0,1-.233-.058,6.569,6.569,0,0,0-4.743-.224.5.5,0,0,1-.447-.895,7.439,7.439,0,0,1,5.658.236.5.5,0,0,1-.235.941Z"/><path d="M18.2,24.282a.52.52,0,0,1-.49-.533,1.006,1.006,0,0,1,.684-.912,3.436,3.436,0,0,1,3.229.549.5.5,0,0,1-.687.727,2.4,2.4,0,0,0-1.616-.461,1.094,1.094,0,0,0-.631.163A.464.464,0,0,1,18.2,24.282Z"/><path d="M41.732,28.789a.511.511,0,0,1-.1-.01.5.5,0,0,1-.387-.592,2.174,2.174,0,0,1,2.339-1.594.5.5,0,1,1-.12.993,1.192,1.192,0,0,0-1.241.806A.5.5,0,0,1,41.732,28.789Z"/><path d="M32.662,24.689v.83a.935.935,0,0,1-.93.93h-.28a.935.935,0,0,1-.93-.93v-.83a.928.928,0,0,1,.93-.93h.28A.928.928,0,0,1,32.662,24.689Z"/><path d="M21.592,24.7v.83a.935.935,0,0,1-.93.93h-.28a.935.935,0,0,1-.93-.93V24.7a.928.928,0,0,1,.93-.93h.28A.928.928,0,0,1,21.592,24.7Z"/><path d="M51.112,54.3a13.832,13.832,0,0,0-5.57-7.7,13.579,13.579,0,0,0-1.97-.1,25.959,25.959,0,0,0-3.73.26,10.328,10.328,0,0,0-1.68.33c-1.416.334-4.577,1.25-6.645,1.856a40.956,40.956,0,0,1,.47,9.735.5.5,0,0,1-.485.379.492.492,0,0,1-.12-.014.5.5,0,0,1-.365-.606,42.233,42.233,0,0,0-.461-9.211,21.1,21.1,0,0,1-2.274.561c-.111,0-.953-.3-2.062-.706a43.667,43.667,0,0,0-2.6,8.736.5.5,0,0,1-1,0,42.844,42.844,0,0,1,2.658-9.083c-2.074-.773-4.586-1.738-5.358-2.047a22.137,22.137,0,0,0-7.02,7.98c-1.23,2.35-.22,3.69.86,4.4,2.16,1.42,7.37,2.94,15.5,2.94l2.39-.05a46.659,46.659,0,0,0,11.512-1.836A20.945,20.945,0,0,0,48.312,58C49.606,57.267,51.542,56.139,51.112,54.3Z"/><path d="M16.042,16.919a19.278,19.278,0,0,0,.19,5.81c.14,1.02.28,2.08.32,3.14.2,5.83,1.31,9.68,3.5,12.1a8.6,8.6,0,0,0,1.89,1.54,6.836,6.836,0,0,0-1.87,3.58,6.231,6.231,0,0,0-.03,2.54l.12.08c.5.213,3.333,1.3,5.562,2.124a2.292,2.292,0,0,1,.375-.507.5.5,0,1,1,.686.727,1.045,1.045,0,0,0-.1.133c.794.291,1.422.513,1.691.593.14-.02,1.733-.465,1.926-.522a1.655,1.655,0,0,0-.135-.3A.5.5,0,1,1,31,47.417a2.657,2.657,0,0,1,.253.559A83.929,83.929,0,0,1,39.7,45.769a24.453,24.453,0,0,1,3.87-.27,10.289,10.289,0,0,1,2.563.314,3.809,3.809,0,0,0,.537-1.574c.15-1.69-1.08-4.11-2.18-5.67a8.565,8.565,0,0,0-5.18-3.63,15.385,15.385,0,0,0,1.26-2.29,3.144,3.144,0,0,0,.98.41c2.32.52,4.24-1.55,4.77-3.84a5.225,5.225,0,0,0-.73-4.2c1.8-4.32.71-10.05.32-11.73-.97-4.17-6.16-10.04-14.65-10.04-9.02,0-14.38,3.76-15.94,11.17-.23,1.11-.13,1.85.3,2.26A1.177,1.177,0,0,0,16.042,16.919Zm1.04-.12a1.725,1.725,0,0,0,.65-.53c.23-.36.5-.51.62-.49.1.01.18.2.2.26a1.829,1.829,0,0,0,1.17,1.19,2.112,2.112,0,0,0,1.86-.39,2.886,2.886,0,0,0,.76-1.04c.1-.18.34-.62.44-.63.14,0,.2.06.46.55a2.323,2.323,0,0,0,4.3-.01c.18-.42.23-.55.67-.55.13,0,.19.05.43.48a2.619,2.619,0,0,0,2.67,1.57,1.686,1.686,0,0,0,1.53-1.2c.28-.56.36-.65.78-.56,1.22.26,2.11,2.01,2.16,3.49.11,2.62,2.07,6.91,3.89,7.66a.51.51,0,0,0,.68-.21,4.268,4.268,0,0,1,.83-.97,3.025,3.025,0,0,1,2.32-.64,2.161,2.161,0,0,1,1.15.66,3.613,3.613,0,0,1,.82,2.44,4.88,4.88,0,0,1-.13,1.12c-.4,1.78-1.88,3.46-3.57,3.08a2.6,2.6,0,0,1-1.12-.61.507.507,0,0,0-.46-.09.549.549,0,0,0-.33.32,12.12,12.12,0,0,1-1.77,3.24,11.328,11.328,0,0,1-2.23,2.25c-.02.02-.51.38-.75.52a.5.5,0,0,0-.17.69.5.5,0,0,0,.43.24,1.23,1.23,0,0,0,.41-.17,15.248,15.248,0,0,0,.65,2.56c-1.54,1.98-5.15,3.68-7.43,4.34a6.3,6.3,0,0,1-1.01-.72,7.273,7.273,0,0,0,.4-3.75,14.12,14.12,0,0,0,2.87-.71.5.5,0,1,0-.42-.9,12.615,12.615,0,0,1-2.41.6c-.26.03-.78.07-.81.07a13.169,13.169,0,0,1-1.68-.11,9.98,9.98,0,0,1-2.88-.87,7.4,7.4,0,0,1-2.27-1.69c-1.99-2.2-3.05-5.95-3.24-11.46-.04-1.1-.19-2.19-.33-3.24A17.528,17.528,0,0,1,17.082,16.8Z"/></svg>