<svg id="Solid" xmlns="http://www.w3.org/2000/svg" viewBox="0 0 64 64"><title>boy, people, avatar, man, male, teenager, portriat</title><rect x="30.342" y="23.609" width="2.19" height="3.24" rx="0.93" ry="0.93"/><path d="M21.522,24.789v1.38a.93.93,0,0,1-.94.93h-.32a.922.922,0,0,1-.93-.93v-1.38a.928.928,0,0,1,.93-.93h.32A.937.937,0,0,1,21.522,24.789Z"/><path d="M18.452,24.35a.5.5,0,0,1-.313-.89,2.677,2.677,0,0,1,3.357,0,.5.5,0,1,1-.629.777,1.686,1.686,0,0,0-2.1,0A.5.5,0,0,1,18.452,24.35Z"/><path d="M32.2,24.1a.5.5,0,0,1-.313-.111,1.679,1.679,0,0,0-2.105,0,.5.5,0,0,1-.627-.779,2.681,2.681,0,0,1,3.359,0,.5.5,0,0,1-.314.89Z"/><path d="M25.559,33.958a2.581,2.581,0,0,1-1.893-.66.5.5,0,0,1,.771-.637,1.668,1.668,0,0,0,1.125.3,2.355,2.355,0,0,0,1.753-.626.5.5,0,0,1,.774.635,3.267,3.267,0,0,1-2.525.991Z"/><path d="M25.242,30.614a1.355,1.355,0,0,1-.925-.373,1.006,1.006,0,0,1-.341-1.012.5.5,0,0,1,.971.219.4.4,0,0,0,.159.134.3.3,0,0,0,.246.011.5.5,0,0,1,.361.933A1.31,1.31,0,0,1,25.242,30.614Zm-.312-1.086h0Z"/><path d="M32.7,21.9a.494.494,0,0,1-.308-.106,9.458,9.458,0,0,0-4.062-.34.5.5,0,1,1-.42-.907c.824-.382,4.319-.149,5.1.459a.5.5,0,0,1-.308.894Z"/><path d="M41.728,27.791a.5.5,0,0,1-.489-.607A2.189,2.189,0,0,1,43.585,25.6a.5.5,0,0,1,.434.558.5.5,0,0,1-.557.434,1.212,1.212,0,0,0-1.246.809A.5.5,0,0,1,41.728,27.791Z"/><path d="M50.315,54.119c-1.651-4.884-3.909-7.1-10.063-9.863a2.8,2.8,0,0,1-.623-.382c-2.119-1.641-2.588-5.952-2.671-7a13.906,13.906,0,0,0,3.627-5.228,2.982,2.982,0,0,0,.965.408c2.331.519,4.252-1.542,4.766-3.836a5.367,5.367,0,0,0-.546-3.97,3.48,3.48,0,0,0-.371-.48,2.082,2.082,0,0,1,.537-.324,9.8,9.8,0,0,0,1-.547c4.2-2.648,3.588-7.915,1.239-11.687a17.827,17.827,0,0,0-9.286-7.3,11.011,11.011,0,0,0-4.231-.477,2.117,2.117,0,0,1-1.33-.364c-3.088-1.97-7.963-1.134-10.573.885a16.6,16.6,0,0,1-4.2,2.432c-.685.3-1.461.632-2.45,1.14-3.147,1.617-4.49,4.138-5.865,8.224a6.258,6.258,0,0,0,.968,5.947,6.072,6.072,0,0,0,5.072,2.251c.159.877.26,1.651.275,1.918.308,6.025,1.387,9.754,3.5,12.09a9.988,9.988,0,0,0,7.571,2.994c.126,0,.3-.013.5-.032.5,2.1.447,3.554-.173,4.009a10.927,10.927,0,0,1-1.734.756l-.389.151c-2.944,1.129-9.071,3.478-11.748,8.831-1.077,2.138-.184,3.359.75,4.005,2.13,1.493,7.087,3.241,14.047,3.251,9.272,0,15.874-2.15,18.713-3.992C49.324,56.8,50.842,55.656,50.315,54.119ZM27.194,46.383a6.626,6.626,0,0,0,1.344-.641c.989-.727,1.172-2.408.569-4.975a12.184,12.184,0,0,0,2.155-.7.5.5,0,0,0-.42-.908,10.872,10.872,0,0,1-2.407.721,6.932,6.932,0,0,1-.813.075,9.006,9.006,0,0,1-6.829-2.665c-1.946-2.153-2.945-5.691-3.242-11.471-.017-.326-.124-1.115-.274-1.963.022,0,.044,0,.066-.009,4.5-.835,6.9-4.84,7.588-8.016.281-1.294.791-3.083,1.977-3.682a3.1,3.1,0,0,1,2.663.21,1.758,1.758,0,0,0,1.28.061,2.959,2.959,0,0,1,2.833.294c1.684,1.255,2.2,4.418,2.127,6.747a6.7,6.7,0,0,0,3.9,6.153.508.508,0,0,0,.638-.227,4.106,4.106,0,0,1,.831-.977,2.98,2.98,0,0,1,2.326-.636,2.2,2.2,0,0,1,1.419,1.011A4.422,4.422,0,0,1,45.34,28c-.4,1.777-1.875,3.457-3.571,3.079a2.778,2.778,0,0,1-1.127-.621.5.5,0,0,0-.783.252A12.547,12.547,0,0,1,35.1,37.022a.5.5,0,0,0,.524.852c.14-.086.261-.187.394-.279.189,1.636.8,5.072,2.709,6.816-1.148,2.929-6.979,6.878-10.06,6.742a1.355,1.355,0,0,1-1.1-.645A5.507,5.507,0,0,1,27.194,46.383Z"/></svg>