<svg id="Solid" xmlns="http://www.w3.org/2000/svg" viewBox="0 0 64 64"><title>boy, people, avatar, man, male, young, user</title><path d="M20.928,24.422v.83a.935.935,0,0,1-.93.93h-.28a.935.935,0,0,1-.93-.93v-.83a.928.928,0,0,1,.93-.93H20A.928.928,0,0,1,20.928,24.422Z"/><path d="M27.311,21.5a.5.5,0,0,1-.137-.98l.183-.053a7.3,7.3,0,0,1,3.114-.36.5.5,0,0,1,.441.553.509.509,0,0,1-.553.442,6.272,6.272,0,0,0-2.723.325l-.187.053A.475.475,0,0,1,27.311,21.5Z"/><path d="M21.127,21.812a.491.491,0,0,1-.274-.082,4.449,4.449,0,0,0-2.594-.45.5.5,0,0,1-.268-.963,5.281,5.281,0,0,1,3.409.577.5.5,0,0,1-.273.918Z"/><path d="M20.779,24.159a.5.5,0,0,1-.342-.135,2.383,2.383,0,0,0-1.609-.461,1.1,1.1,0,0,0-.635.162.5.5,0,0,1-.672.2.506.506,0,0,1-.205-.682A1.416,1.416,0,0,1,18.4,22.6a3.465,3.465,0,0,1,2.719.69.5.5,0,0,1-.342.865Z"/><rect x="29.589" y="23.492" width="2.14" height="2.69" rx="0.93" ry="0.93"/><path d="M31.58,24.159a.5.5,0,0,1-.342-.136,2.369,2.369,0,0,0-1.606-.46,1.1,1.1,0,0,0-.637.162.5.5,0,0,1-.671.2.507.507,0,0,1-.206-.682A1.413,1.413,0,0,1,29.2,22.6a3.46,3.46,0,0,1,2.719.691.5.5,0,0,1-.342.864Z"/><path d="M25.117,34.064c-.083,0-.166,0-.25-.005a3.112,3.112,0,0,1-2.338-.918.5.5,0,1,1,.8-.6,2.288,2.288,0,0,0,1.582.521,3.178,3.178,0,0,0,2.407-.754.5.5,0,1,1,.744.668A3.952,3.952,0,0,1,25.117,34.064Z"/><path d="M24.659,30.614a1.355,1.355,0,0,1-.923-.372,1.007,1.007,0,0,1-.344-1.011.5.5,0,0,1,.972.216.4.4,0,0,0,.16.136.3.3,0,0,0,.245.011.5.5,0,0,1,.361.931A1.29,1.29,0,0,1,24.659,30.614Zm-.312-1.086Z"/><path d="M49.732,54.119c-1.651-4.884-3.909-7.1-10.067-9.865a5.7,5.7,0,0,1-2.712-3.615,21.962,21.962,0,0,1-.8-3.23,13.756,13.756,0,0,0,3.417-4.767,2.978,2.978,0,0,0,.979.417c2.335.518,4.252-1.542,4.766-3.835a5.381,5.381,0,0,0-.537-3.954c1.4.41,3.168.561,4.439-1.986,2.3-4.6-2.821-12.976-7.236-17.007A15.152,15.152,0,0,0,27.524,2.424C23.615,1.5,19.947,4.229,18.1,5.956c-3.163,2.958-8.011,11.164-8.011,15.69a4.5,4.5,0,0,0,2.662,4.041,3.8,3.8,0,0,0,2.923.234c.307,5.319,1.667,9.687,3.8,12.045a9.993,9.993,0,0,0,7.571,2.994c.125,0,.3-.013.495-.033a13.614,13.614,0,0,1,.288,1.53c.152,1.293-.007,2.15-.461,2.481a11.667,11.667,0,0,1-1.858.8c-3.26,1.247-9.327,3.569-12.01,8.935-1.077,2.137-.185,3.358.749,4,2.13,1.494,7.087,3.241,14.047,3.251,9.272,0,15.875-2.15,18.714-3.992C48.742,56.8,50.259,55.656,49.732,54.119ZM20.21,37.3c-2.028-2.245-3.358-6.732-3.579-12.025a9.388,9.388,0,0,0,.57-1.227,37.248,37.248,0,0,1,7.525-11.855,2.757,2.757,0,0,1,1.323-.018,38.643,38.643,0,0,1,3.283,6.3c1.482,3.375,2.652,6.04,5.861,7.217a7.233,7.233,0,0,0,2.531.456c.234,0,.463-.011.687-.031a.5.5,0,0,0,.264.484.494.494,0,0,0,.234.058.5.5,0,0,0,.442-.265c.064-.122.215-.435.256-.478A22.307,22.307,0,0,0,42.582,24.8a2.2,2.2,0,0,1,1.345.988,4.421,4.421,0,0,1,.413,3.215c-.4,1.775-1.865,3.464-3.571,3.078a2.778,2.778,0,0,1-1.127-.621.509.509,0,0,0-.453-.08.5.5,0,0,0-.327.322A12.405,12.405,0,0,1,34.1,37.709a.5.5,0,0,0,.262.926.49.49,0,0,0,.262-.075c.226-.139.428-.294.637-.444a23.559,23.559,0,0,0,.617,2.458c-1.064.615-4.579,2.441-7.117,1.459-.059-.413-.14-.831-.239-1.25a10.681,10.681,0,0,0,2.152-.59.5.5,0,0,0-.42-.908,11.587,11.587,0,0,1-2.406.6,6.964,6.964,0,0,1-.814.075A9.006,9.006,0,0,1,20.21,37.3Z"/><path d="M40.62,28.779a.5.5,0,0,0,.6-.381,1.194,1.194,0,0,1,1.246-.808.5.5,0,0,0,.123-.992,2.186,2.186,0,0,0-2.346,1.586A.5.5,0,0,0,40.62,28.779Z"/></svg>