<svg id="Solid" xmlns="http://www.w3.org/2000/svg" viewBox="0 0 64 64"><title>boy, people. avatar, man, afro, teenager, user </title><path d="M23.192,25.37a.5.5,0,0,1-.464-.315c-.09-.226-.461-.307-.616-.331a2.216,2.216,0,0,0-1.407.222.5.5,0,0,1-.993-.087c0-.524.507-.934,1.355-1.1,1-.193,2.229.016,2.589.921a.5.5,0,0,1-.279.65A.507.507,0,0,1,23.192,25.37Zm-2.48-.511h0Z"/><path d="M27.535,35.33c-.057,0-.114,0-.171,0a3.1,3.1,0,0,1-2.45-1.025.5.5,0,1,1,.836-.548,2.268,2.268,0,0,0,1.647.573,2.532,2.532,0,0,0,2.136-.8.5.5,0,0,1,.8.6A3.41,3.41,0,0,1,27.535,35.33Z"/><path d="M27.082,32.3a2,2,0,0,1-1.743-.9,1.78,1.78,0,0,1,.628-2.322.5.5,0,1,1,.65.759c-.208.178-.666.637-.42,1.049a1.2,1.2,0,0,0,1.443.306.5.5,0,1,1,.363.931A2.523,2.523,0,0,1,27.082,32.3Z"/><path d="M23.342,23.379a.757.757,0,0,1-.228-.035,5.714,5.714,0,0,0-3.276,0,.75.75,0,0,1-.452-1.43,7.166,7.166,0,0,1,4.183,0,.75.75,0,0,1-.227,1.465Z"/><path d="M33.942,25.109a.5.5,0,0,1-.464-.315c-.09-.225-.461-.306-.616-.331a2.227,2.227,0,0,0-1.407.223.5.5,0,0,1-.993-.086c0-.525.507-.935,1.355-1.1,1-.192,2.229.017,2.589.922a.5.5,0,0,1-.279.65A.505.505,0,0,1,33.942,25.109Zm-2.48-.509Z"/><path d="M30.362,23.129a.749.749,0,0,1-.391-1.389,6.131,6.131,0,0,1,4.348-.265.75.75,0,1,1-.455,1.429,4.839,4.839,0,0,0-3.111.115A.743.743,0,0,1,30.362,23.129Z"/><path d="M51.5,25.55a3.413,3.413,0,0,0-.683-3.3c.824-.6,2.091-2.026,1.433-4.9a4.132,4.132,0,0,0-3.042-3.09,3.753,3.753,0,0,0-.029-4.732,4.3,4.3,0,0,0-3.98-1.51,3.005,3.005,0,0,0-.852-2.269,3.208,3.208,0,0,0-2.713-1.072,2.257,2.257,0,0,0-.244-.827,3.657,3.657,0,0,0-2.03-1.689,4.466,4.466,0,0,0-3.863.358,4.444,4.444,0,0,0-2.732-1.448,4.638,4.638,0,0,0-3.1.651,2.024,2.024,0,0,0-.539.569,3.725,3.725,0,0,0-2.768-.073,2.958,2.958,0,0,0-1.465,1.1,3.5,3.5,0,0,0-2.656-.8,4.73,4.73,0,0,0-3.348,1.915A2.923,2.923,0,0,0,18.3,6.158a3.167,3.167,0,0,0-3.254,1.811,3.28,3.28,0,0,0,.016,2.777,2.544,2.544,0,0,0-1.61,1.878,3.161,3.161,0,0,0,.589,2.595,3.716,3.716,0,0,0-1.749,1.8,4.5,4.5,0,0,0,.391,3.788,2.691,2.691,0,0,0-.98,1.282,2.98,2.98,0,0,0,.34,2.429,3.2,3.2,0,0,0,2.318,1.6,2.938,2.938,0,0,0,.075,2.008,2.736,2.736,0,0,0,1.666,1.41,2.115,2.115,0,0,0,.4,1.819,2.608,2.608,0,0,0,2.107,1.057,2.72,2.72,0,0,0,.323-.026,13.415,13.415,0,0,0,2.882,6.576,9.948,9.948,0,0,0,7.561,3.006,5.155,5.155,0,0,0,.522-.038c.386,1.313.823,3.007.225,3.449a7.474,7.474,0,0,1-1.177.6s-3.278,1.519-3.6,1.688a27.566,27.566,0,0,0-3.368,2.005,16.789,16.789,0,0,0-5.633,6.228c-1.16,2.338-.194,3.673.823,4.383a18.622,18.622,0,0,0,3.769,1.661,37.333,37.333,0,0,0,9.806,1.058,46.883,46.883,0,0,0,7.635-.587c.639-.106,4.255-.908,5.294-1.227a26.387,26.387,0,0,0,5.163-2.2c1.243-.7,3.059-1.857,2.646-3.69a13.81,13.81,0,0,0-5.1-7.569c-.416-.337-2.052-1.446-3.122-2.074A12.256,12.256,0,0,1,41.22,44.52C39.845,43.232,39,39.676,38.688,37.6a12.078,12.078,0,0,0,1.381-1.356,13.961,13.961,0,0,0,2.257-3.6,2.963,2.963,0,0,0,.977.419,3.739,3.739,0,0,0,4.149-2.253,3.171,3.171,0,0,0,.559-.158,2.967,2.967,0,0,0,1.949-3.2A3.092,3.092,0,0,0,51.5,25.55ZM17.738,59.469c-.652-.455-1.413-1.274-.5-3.118a14.5,14.5,0,0,1,3.323-4.273,19.871,19.871,0,0,0-1.769,8A8.653,8.653,0,0,1,17.738,59.469ZM20.582,60.8c-.284-.089-.553-.185-.811-.286.27-5.126,1.079-7.229,2.859-10.07.278-.193.566-.382.86-.569A22.1,22.1,0,0,0,20.582,60.8ZM50.5,55.519c.236,1.047-.844,1.817-2.189,2.617a16.958,16.958,0,0,1-2.907,1.4A33.371,33.371,0,0,1,40.6,60.965c.089-2.557,1.971-11.053,5.364-12.269A12.7,12.7,0,0,1,50.5,55.519ZM45.07,47.988c-3.719,2.069-5.465,10.594-5.47,13.19-.257.05-.523.1-.79.147.181-3.674,1.93-11.746,5.752-13.689C44.731,47.75,44.9,47.863,45.07,47.988Zm-3.332-1.983c-1.517,2.367-5.443,5.011-8.756,5.145-2.276.092-4.225-.471-5.24-1.5A2.49,2.49,0,0,1,27,47.971c.251-.12.783-.367.807-.378a3.381,3.381,0,0,0,1.129,1.83,6.989,6.989,0,0,0,3.64.966,8.678,8.678,0,0,0,2.972-.668,11.8,11.8,0,0,0,5.455-4.086C41.032,45.652,41.518,45.9,41.738,46.005ZM43.52,32.091a2.952,2.952,0,0,1-1.131-.624.5.5,0,0,0-.772.247,12.713,12.713,0,0,1-2.3,3.879c-.461.535-2.537,2.368-2.829,2.6a.5.5,0,0,0-.084.7.556.556,0,0,0,.7.084c.238-.187.475-.395.7-.595.339,1.838,1.139,4.952,2.453,6.555-1.216,2.126-5.032,4.363-7.714,4.454a4.653,4.653,0,0,1-3.011-.773,1.942,1.942,0,0,1-.753-1.459c.167-.075,1.664-.766,1.94-.976,1.11-.821.681-2.667.167-4.42a13.664,13.664,0,0,0,2.209-.7.5.5,0,1,0-.284-.959,12.252,12.252,0,0,1-2.009.674,7.544,7.544,0,0,1-1.43.191,9.036,9.036,0,0,1-6.819-2.677,12.918,12.918,0,0,1-2.739-6.58c-.114-.652-.256-2.032-.406-3.494-.162-1.579-.329-3.2-.479-4.061a3.525,3.525,0,0,0,1.058-3.136,3.682,3.682,0,0,0,2.379-.321,2.5,2.5,0,0,0,1.013-1.1,3.5,3.5,0,0,0,3.15,1.091,3.743,3.743,0,0,0,2.48-1.473,3.29,3.29,0,0,0,2.623,1,2.781,2.781,0,0,0,2.012-.812,2.889,2.889,0,0,0,.509.728A3.935,3.935,0,0,0,37.1,21.2a3.377,3.377,0,0,0-.044,2.728,2.742,2.742,0,0,0,1.73,1.452,2.641,2.641,0,0,0,.8,1.932,2.373,2.373,0,0,0,1.969.434,2.758,2.758,0,0,0,.874,2.113,2.5,2.5,0,0,0,2.4.2,2.564,2.564,0,0,0,1.44.8A2.6,2.6,0,0,1,43.52,32.091Z"/><path d="M33.942,25.539v.64a.93.93,0,1,1-1.86,0v-.64a.93.93,0,0,1,1.86,0Z"/><path d="M23.192,25.8v.63a.93.93,0,1,1-1.86,0V25.8a.93.93,0,0,1,1.86,0Z"/></svg>