<svg id="Solid" xmlns="http://www.w3.org/2000/svg" viewBox="0 0 64 64"><title>boy, people. avatar, man, male, teenager, user </title><path d="M31.782,24.619v1.22a.881.881,0,0,1-.94.82h-.32a.872.872,0,0,1-.93-.82v-1.22a.878.878,0,0,1,.93-.82h.32A.888.888,0,0,1,31.782,24.619Z"/><path d="M20.632,24.619v1.22a.881.881,0,0,1-.94.82h-.32a.872.872,0,0,1-.93-.82v-1.22a.878.878,0,0,1,.93-.82h.32A.888.888,0,0,1,20.632,24.619Z"/><path d="M20.111,24.319a.5.5,0,0,1-.314-.111,1.677,1.677,0,0,0-2.105,0,.5.5,0,0,1-.623-.782,2.682,2.682,0,0,1,3.357,0,.5.5,0,0,1-.315.888Z"/><path d="M31.271,24.319a.5.5,0,0,1-.314-.111,1.676,1.676,0,0,0-2.1,0,.5.5,0,0,1-.624-.782,2.682,2.682,0,0,1,3.357,0,.5.5,0,0,1-.315.888Z"/><path d="M24.31,30.788a1.86,1.86,0,0,1-1.252-.51,1.277,1.277,0,0,1-.451-1.284.5.5,0,0,1,.957.289.706.706,0,0,0,.31.369.751.751,0,0,0,.7.083.5.5,0,1,1,.368.929A1.706,1.706,0,0,1,24.31,30.788Z"/><path d="M31.972,21.87a.507.507,0,0,1-.307-.105,7.026,7.026,0,0,0-3.023-.378.5.5,0,1,1-.1-1c.933-.094,3.059.057,3.737.583a.5.5,0,0,1-.307.895Z"/><path d="M17.032,22.39a.5.5,0,0,1-.239-.94,4.968,4.968,0,0,1,2.078-.579.5.5,0,1,1,.082,1,3.969,3.969,0,0,0-1.683.461A.5.5,0,0,1,17.032,22.39Z"/><path d="M24.677,33.8c-.085,0-.169,0-.252-.005a2.813,2.813,0,0,1-2.09-.777.5.5,0,1,1,.814-.58,2,2,0,0,0,1.315.358,3.825,3.825,0,0,0,2.645-.7.5.5,0,1,1,.766.641A4.428,4.428,0,0,1,24.677,33.8Z"/><path d="M40.732,28.789a.511.511,0,0,1-.1-.01.5.5,0,0,1-.387-.592,2.175,2.175,0,0,1,2.339-1.594.5.5,0,1,1-.12.993,1.2,1.2,0,0,0-1.241.806A.5.5,0,0,1,40.732,28.789Z"/><path d="M49.13,54.3c-.864-3.9-4.071-7.533-8.8-9.955a8.84,8.84,0,0,1-1.308-.687c-1.43-1.151-2.214-4.585-2.5-6.583a13.927,13.927,0,0,0,3.049-4.432,2.952,2.952,0,0,0,.981.412c2.321.519,4.244-1.543,4.767-3.838a5.522,5.522,0,0,0-.371-3.579c1.994-.97,4.5-3.4,2.773-9.38a20.13,20.13,0,0,0-5.287-9.434C39.02,3.605,34.086,2.012,28.165,2.22c-12.541.446-16.723,12.548-16.723,15.759,0,1.765.441,2.983,1.311,3.622a3.007,3.007,0,0,0,2.506.361,31.8,31.8,0,0,1,.563,3.883c.309,6.026,1.388,9.754,3.5,12.09a9.99,9.99,0,0,0,7.571,2.995c.13,0,.313-.015.519-.036.409,1.346.926,3.072.354,3.491a12.846,12.846,0,0,1-1.924.94l-.858.39c-3.874,1.778-8.623,4.43-10.978,9.19-1.172,2.328-.207,3.669.812,4.385,2.605,1.8,7.172,2.719,13.575,2.719a41.119,41.119,0,0,0,16.077-2.963A21.109,21.109,0,0,0,46.463,58C47.7,57.28,49.544,56.143,49.13,54.3Zm-22.911-8.05a20.031,20.031,0,0,0,2.148-1.069c1.117-.817.593-2.641.049-4.43a19.263,19.263,0,0,0,2.2-.462.5.5,0,1,0-.283-.959,21.393,21.393,0,0,1-2.63.522,6.977,6.977,0,0,1-.813.076,9.007,9.007,0,0,1-6.829-2.666c-1.946-2.153-2.946-5.69-3.242-11.472a31.7,31.7,0,0,0-.617-4.164,3.218,3.218,0,0,0,1.142-1.4,2.807,2.807,0,0,0,1.083,1.434,4.668,4.668,0,0,0,1.885.515c.17,0,.347-.009.528-.027a4.606,4.606,0,0,0,3.722-2.418,2.608,2.608,0,0,0,.557.877,3.506,3.506,0,0,0,2.841.853,6.365,6.365,0,0,0,.745-.083c1.912-.454,3.107-2.567,3.744-4.127a10.492,10.492,0,0,0,3,4.809c.156.135.314.264.471.393a6.287,6.287,0,0,1,2.5,3.837.507.507,0,0,0,.251.314.5.5,0,0,0,.675-.21,4.134,4.134,0,0,1,.824-.976,3.024,3.024,0,0,1,2.324-.638,2.158,2.158,0,0,1,1.35.909A4.3,4.3,0,0,1,44.345,29c-.405,1.777-1.883,3.466-3.576,3.082a2.642,2.642,0,0,1-1.12-.615.5.5,0,0,0-.782.238,12.862,12.862,0,0,1-3.217,4.832,9.786,9.786,0,0,1-1.541,1.179.5.5,0,0,0,.264.926.5.5,0,0,0,.262-.075,10.66,10.66,0,0,0,1-.709c.287,1.629,1,4.735,2.446,6.274-1.591,2.748-5.494,4.111-8.484,4.02-1.578-.05-2.911-.531-3.316-1.2A.791.791,0,0,1,26.219,46.252Z"/></svg>