<svg id="Solid" xmlns="http://www.w3.org/2000/svg" viewBox="0 0 64 64"><title>female, african, dreadlocks, girl, young, woman, avatar</title><path d="M25.079,34.382a7.041,7.041,0,0,1-.887-.057c-1.322-.168-2.08-.651-2.08-1.326a.5.5,0,0,1,1-.05,4.4,4.4,0,0,0,2.822.362c.672-.115,1.12-.36,1.2-.657a.5.5,0,0,1,.968.25C27.823,33.956,26.469,34.382,25.079,34.382ZM23.112,33h0Z"/><path d="M24.831,30.908a2.338,2.338,0,0,1-1.837-.78,1.515,1.515,0,0,1-.016-1.777.5.5,0,0,1,.868.5c-.244.427-.1.612-.058.672a1.539,1.539,0,0,0,1.408.345.5.5,0,1,1,.251.969A2.476,2.476,0,0,1,24.831,30.908Z"/><path d="M28.212,25.4a.5.5,0,0,1-.5-.5c0-.517.515-.891,1.489-1.081.928-.183,2.611-.216,3.024.8a.5.5,0,0,1-.927.375c-.02-.049-.148-.16-.487-.227a3.732,3.732,0,0,0-2.117.263A.5.5,0,0,1,28.212,25.4Z"/><path d="M17.632,25.6a.5.5,0,0,1-.5-.5c0-.517.514-.891,1.488-1.082.93-.179,2.612-.216,3.025.8a.5.5,0,1,1-.926.377c-.022-.054-.149-.162-.488-.228a3.729,3.729,0,0,0-2.117.263A.5.5,0,0,1,17.632,25.6Z"/><path d="M33.361,23.207a.5.5,0,0,1-.251-.068c-1.742-1.016-5.132-.51-5.65-.18a.5.5,0,0,1-.537-.844c.866-.551,4.676-1.015,6.691.16a.5.5,0,0,1-.253.932Z"/><path d="M16.522,23.38a.5.5,0,0,1-.252-.932,6.5,6.5,0,0,1,5.719-.179.5.5,0,1,1-.434.9,5.5,5.5,0,0,0-4.781.141A.491.491,0,0,1,16.522,23.38Z"/><path d="M39.752,27.987a.533.533,0,0,1-.1-.011.5.5,0,0,1-.385-.593,2.222,2.222,0,0,1,2.368-1.632.5.5,0,0,1,.437.556.493.493,0,0,1-.555.436,1.249,1.249,0,0,0-1.272.849A.5.5,0,0,1,39.752,27.987Z"/><path d="M31.8,25.427v.47a.935.935,0,0,1-.93.93H30.7a.935.935,0,0,1-.93-.93v-.47a.928.928,0,0,1,.93-.93h.17A.928.928,0,0,1,31.8,25.427Z"/><path d="M20.122,27.019a.922.922,0,0,1-.93-.93v-.47a.928.928,0,0,1,.93-.93h.17a.935.935,0,0,1,.93.93v.47a.928.928,0,0,1-.93.93Z"/><path d="M38.725,33.559h0c.729-.052,1.1-.269,1.2-.445a4.953,4.953,0,0,0-.012-2.179s0-.011,0-.017a2.879,2.879,0,0,1-1.139-.566.5.5,0,0,0-.8.291s-.035.158-.093.388a12.839,12.839,0,0,1-1.522,3.378,5.261,5.261,0,0,1-1.091,1.2.5.5,0,0,0-.081.7.463.463,0,0,0,.392.19c.321-.029.665-.414.814-.564a5.2,5.2,0,0,0,.161,1.24,7.289,7.289,0,0,0,1.682.475,2.859,2.859,0,0,0,1.753-.3,3.451,3.451,0,0,0,.2-1.556,12.894,12.894,0,0,0-.157-1.539,3.618,3.618,0,0,1-1.269.3h-.015a5.7,5.7,0,0,1-1.212-.128,10.365,10.365,0,0,0,.474-.928A4.686,4.686,0,0,0,38.725,33.559Z"/><path d="M38.142,38.65a5.612,5.612,0,0,1-1.659-.359,7.939,7.939,0,0,0,.078,3.223,3.679,3.679,0,0,0,2.056.457,2.318,2.318,0,0,0,1.512-.417,4.585,4.585,0,0,0,.233-1.432,6.589,6.589,0,0,0-.171-1.73,4.482,4.482,0,0,1-1.647.272C38.306,38.664,38.147,38.65,38.142,38.65Z"/><path d="M44.447,38.507a7.442,7.442,0,0,0-.282-3.256A5.016,5.016,0,0,1,41.2,36.287a4.1,4.1,0,0,1-.211,1.276,6.4,6.4,0,0,1,.373,2.052A5.89,5.89,0,0,0,44.447,38.507Z"/><path d="M44.8,42.908a8.235,8.235,0,0,0-.3-3.237,7.074,7.074,0,0,1-3.173.949,5.417,5.417,0,0,1-.213,1.172,9.4,9.4,0,0,1,.385,2.032A4.97,4.97,0,0,0,44.8,42.908Z"/><path d="M20.914,42.846a6.545,6.545,0,0,1-2.421-.774,8.26,8.26,0,0,0-.254,3.963,7.6,7.6,0,0,0,2.3.5,3.907,3.907,0,0,0,1.374-.2,4.422,4.422,0,0,0,.389-1.4,6.274,6.274,0,0,0-.153-2.111,3.391,3.391,0,0,1-.648.06A5.5,5.5,0,0,1,20.914,42.846Z"/><path d="M23.027,42.182a8.815,8.815,0,0,1,.287,2.469A3.829,3.829,0,0,0,24.6,44.8a1.618,1.618,0,0,0,1.052-.405,3.717,3.717,0,0,0,.263-1.461l-.01-.281a7.382,7.382,0,0,0-.1-.877,2.646,2.646,0,0,1-1.226.306h-.06a2.623,2.623,0,0,1-1.334-.414C23.135,41.837,23.087,42.011,23.027,42.182Z"/><path d="M40.327,46.013a6.171,6.171,0,0,0-.037-3.365,4.028,4.028,0,0,1-1.631.323H38.6a5.485,5.485,0,0,1-2.047-.352,7.086,7.086,0,0,0-.228,3.013A6.226,6.226,0,0,0,40.327,46.013Z"/><path d="M22.612,52.239c.41-.25.47-1.96-.07-3.85a6.047,6.047,0,0,0-.44-1.07,5.523,5.523,0,0,1-1.56.2,7.755,7.755,0,0,1-2.31-.44,8.628,8.628,0,0,0-.82,3.18,1.528,1.528,0,0,0,.49,1.51C18.992,52.809,21.912,52.669,22.612,52.239Z"/><path d="M48.332,53.729a10.974,10.974,0,0,0-1.74-3.87c-.05-.07-.11-.15-.17-.22.54-1.42-.39-4.02-1.51-5.6a5.92,5.92,0,0,1-3.03.8c-.13,0-.23-.01-.34-.02a6.362,6.362,0,0,1-.08.75,2.409,2.409,0,0,1-.54,1.15c1.03,2.01,2.12,5.48.38,6.84a6.5,6.5,0,0,1-3.47.9,5.529,5.529,0,0,1-.71-.04,2.815,2.815,0,0,1-1.96-.94c-.63-.82-.69-2.32-.37-3.93a34.513,34.513,0,0,0-1.42,8.44c-.05.53-.09,1.05-.14,1.58a31.512,31.512,0,0,1-3.92.27,40.594,40.594,0,0,1-6.48-.46s1.1-8.113,4.1-12.38a3.382,3.382,0,0,0,1.7,1.42,6.879,6.879,0,0,0,2.61.46,9.888,9.888,0,0,0,3.93-.85c.16-.49.35-.98.55-1.44a7.929,7.929,0,0,1-6.7.91,2.274,2.274,0,0,1-1.31-1.19,9.958,9.958,0,0,0,1.61-.82,2.347,2.347,0,0,0,.78-1.98,15.713,15.713,0,0,0-.19-1.81c-.122-.522-.407-1.546-.48-1.742a15.382,15.382,0,0,0,2.505-.763.5.5,0,0,0-.371-.929,12.3,12.3,0,0,1-6.183.912,9.083,9.083,0,0,1-3.044-.941,9.638,9.638,0,0,1-2.225-1.667,6.721,6.721,0,0,1-2.129-3.4,39.874,39.874,0,0,1-.533-5.378c-.079-1.457-.161-2.964-.364-4.37a10.961,10.961,0,0,1,.024-2.078c.1-1.341.614-5.817,2.961-7.154a3.959,3.959,0,0,1,3.809.255.493.493,0,0,0,.384.024c7.148-2.449,8.521,1.3,9.971,5.265.817,2.235,1.714,4.526,3.728,5.333a.9.9,0,0,0,.157.051.479.479,0,0,0,.544-.24,2.68,2.68,0,0,1,.66-.82,2.981,2.981,0,0,1,2.356-.654,2.334,2.334,0,0,1,1.675,1.538,7.1,7.1,0,0,1,.2,2.861,4.3,4.3,0,0,1-.988,2.073A3.492,3.492,0,0,1,40.934,30.9a6.187,6.187,0,0,1-.031,2.431c.116.682.2,1.335.251,1.957a3.7,3.7,0,0,0,2.883-1.337l.009-.009a8.431,8.431,0,0,0-.53-3.667,5.6,5.6,0,0,0,1.015-2.262,5.691,5.691,0,0,0-.1-3.084,23.117,23.117,0,0,0,.594-4.017c.223-3.889-.018-7.2-1.918-10.748-.748-1.395-2.3-4.3-7.875-6.34a15.888,15.888,0,0,0-6.255-.561c-4.254.385-7.965,1.9-10.184,4.148a14.833,14.833,0,0,0-2.894,4.376,13.239,13.239,0,0,0-.979,3.566,10.029,10.029,0,0,0,1.134,6.657,6.565,6.565,0,0,0,.05,1.555c.2,1.359.277,2.843.355,4.278A40.573,40.573,0,0,0,17,33.363a7.563,7.563,0,0,0,2.19,3.683,8.374,8.374,0,0,0-.522,3.963,5.031,5.031,0,0,0,2.353.855,2.7,2.7,0,0,0,1.076-.045,9.975,9.975,0,0,0,.459-2.369,10.136,10.136,0,0,0,.962.339c-.026.258-.058.529-.106.818a1.544,1.544,0,0,0,1.125.483c.657-.028,1.12-.205,1.252-.866.264.022.97.035,1.01.035a3.833,3.833,0,0,1-.15.652,9.255,9.255,0,0,1,.248,1.713l0,.056a2.532,2.532,0,0,0,1.489-.07A2.447,2.447,0,0,0,29,42.291a6.54,6.54,0,0,1,.112,1.078,3.737,3.737,0,0,1-1.55.39h-.08a3.114,3.114,0,0,1-.62-.06,3.266,3.266,0,0,1-.31,1.09,7.742,7.742,0,0,1,.2.85c-.22.1-.45.19-.68.3-.09.05-.17.09-.26.13-.03-.19-.06-.38-.1-.55a3.152,3.152,0,0,1-1.35.27,4.569,4.569,0,0,1-1.18-.15,10.107,10.107,0,0,1-.32,1.04,14.334,14.334,0,0,1,.65,1.44c.11.41,1.1,4.06-.38,4.98a5.121,5.121,0,0,1-2.38.46,5.351,5.351,0,0,1-3.56-1.09,12.451,12.451,0,0,0-1.09,1.8c-1.07,2.17-.18,3.41.76,4.07a13.33,13.33,0,0,0,5.15,1.91,43.762,43.762,0,0,0,7.3.59,32.682,32.682,0,0,0,4.44-.32c5.16-.64,10.4-2.31,11.89-3.22l.26-.15C47.022,56.469,48.712,55.439,48.332,53.729Zm-4.339-32.5a17.671,17.671,0,0,1-3.6-.594,8.71,8.71,0,0,0-4-.393.5.5,0,1,1-.282-.959,9.267,9.267,0,0,1,4.518.379,16.472,16.472,0,0,0,3.419.564C44.039,20.436,44,21.1,43.993,21.226Zm-.181-5.939c.056.33.1.664.139,1a19.008,19.008,0,0,1-2.532-.112c-1.857-.171-3.459-.316-5.553,1.054a.5.5,0,1,1-.548-.835,8.378,8.378,0,0,1,6.193-1.214A18.906,18.906,0,0,0,43.812,15.287Zm-1.842-5.1c.094.167.181.326.258.47s.127.269.194.4a10.786,10.786,0,0,1-2.413.869A17.993,17.993,0,0,0,34.2,14.394a.492.492,0,0,1-.279.085.5.5,0,0,1-.279-.915,18.869,18.869,0,0,1,6.1-2.6A10.317,10.317,0,0,0,41.97,10.183ZM37.793,6.9c.258-.123.492-.238.721-.353q.5.327.914.657c-.365.2-.766.389-1.2.6A16.449,16.449,0,0,0,32.01,12.3a.5.5,0,0,1-.388.184.5.5,0,0,1-.388-.815A17.568,17.568,0,0,1,37.793,6.9Zm-4.6-2.537a9.926,9.926,0,0,1,1.289.276c-1.539,1-3.2,3.11-5.9,6.767a.5.5,0,1,1-.8-.594A38.947,38.947,0,0,1,33.192,4.363Zm-6.309.224q.705-.141,1.435-.233a18.313,18.313,0,0,0-3.65,8.42.5.5,0,0,1-.5.436.482.482,0,0,1-.065,0,.5.5,0,0,1-.431-.561A19.72,19.72,0,0,1,26.883,4.587Zm-5.224,1.9q.541-.317,1.14-.6a16.115,16.115,0,0,0-.241,4.229c.012.375.024.711.024.987a.5.5,0,1,1-1,0c0-.266-.011-.591-.024-.952A20.884,20.884,0,0,1,21.659,6.488ZM19.04,8.641a8.1,8.1,0,0,0,.972,3.142.5.5,0,1,1-.721.693,7.091,7.091,0,0,1-1.1-2.75C18.462,9.345,18.744,8.985,19.04,8.641ZM16.894,16.9a.479.479,0,0,1-.59.342,1.616,1.616,0,0,1-.5-.282c.007-.415.033-.843.082-1.287a2.4,2.4,0,0,0,.675.6A.515.515,0,0,1,16.894,16.9Zm.064-3.021c-.169-.176-.361-.381-.549-.594.115-.351.243-.709.4-1.085a11.449,11.449,0,0,0,.872.984,5.2,5.2,0,0,1,.459.515.5.5,0,0,1-.135.693.49.49,0,0,1-.279.086.5.5,0,0,1-.415-.22A4.077,4.077,0,0,0,16.958,13.88Z"/><path d="M38.742,47.249a6.91,6.91,0,0,1-2.08-.29c-1.06,2.31-1.39,5.02-.7,5.9a1.873,1.873,0,0,0,1.28.57,6.087,6.087,0,0,0,3.44-.65c1.13-.89.27-3.82-.67-5.64a6.694,6.694,0,0,1-1.1.11Z"/></svg>