<svg id="Solid" xmlns="http://www.w3.org/2000/svg" viewBox="0 0 64 64"><title>girl, chubby, beautiful, people, woman, lady, avatar</title><path d="M17.842,23.732a.53.53,0,0,1-.49-.543c0-.225.105-.652.8-.986a3.98,3.98,0,0,1,3.891.338.5.5,0,1,1-.629.777,2.72,2.72,0,0,0-2.086-.428,1.8,1.8,0,0,0-1,.386A.456.456,0,0,1,17.842,23.732Z"/><path d="M26.436,34.09c-.183,0-.369-.008-.558-.026a3.265,3.265,0,0,1-2.389-1.072.5.5,0,1,1,.826-.565,2.437,2.437,0,0,0,1.656.641,3.389,3.389,0,0,0,2.6-.672.5.5,0,1,1,.707.707A4.011,4.011,0,0,1,26.436,34.09Z"/><path d="M25.394,29.642a1.9,1.9,0,0,1-1.362-.533,1.253,1.253,0,0,1-.259-1.409.5.5,0,1,1,.917.4.256.256,0,0,0,.06.314,1.056,1.056,0,0,0,1.1.142.5.5,0,0,1,.37.929A2.236,2.236,0,0,1,25.394,29.642Z"/><path d="M29.1,23.763a.53.53,0,0,1-.49-.543c0-.225.1-.652.8-.985a4.006,4.006,0,0,1,3.9.335.5.5,0,1,1-.626.779,2.751,2.751,0,0,0-2.1-.428,1.8,1.8,0,0,0-.993.385A.457.457,0,0,1,29.1,23.763Z"/><path d="M33.941,21.069a.506.506,0,0,1-.27-.079c-1.5-.965-5.275-.732-6.1-.039a.5.5,0,1,1-.646-.764c1.208-1.02,5.472-1.207,7.284-.038a.5.5,0,0,1-.272.92Z"/><path d="M22,21.069a.5.5,0,0,1-.374-.168c-.464-.365-3.483-.648-4.235-.018a.5.5,0,1,1-.642-.767c.869-.728,2.835-.612,3.419-.558a3.93,3.93,0,0,1,2.217.692.5.5,0,0,1-.066.7A.493.493,0,0,1,22,21.069Z"/><path d="M24.606,18.97a3.4,3.4,0,0,1-3.633-3.139c-.14-1.86,1.225-3.873,4.107-4.12l.082.5-.04.5c-2.295.2-3.252,1.719-3.152,3.047a2.47,2.47,0,0,0,2.92,2.2.5.5,0,0,1,.064,1C24.835,18.966,24.72,18.97,24.606,18.97Z"/><path d="M32.987,23.989v.99a1.1,1.1,0,1,1-2.19,0v-.99a1.1,1.1,0,1,1,2.19,0Z"/><path d="M21.727,23.959v.99a1.1,1.1,0,0,1-2.19,0v-.99a1.1,1.1,0,1,1,2.19,0Z"/><path d="M55.278,40.089a18.932,18.932,0,0,0-5.947-3.238c-2.626-1.035-4.711-1.882-5.085-3.873A5.045,5.045,0,0,0,47.309,29.2a5.378,5.378,0,0,0-.561-3.968c-.061-.095-.136-.173-.2-.26a12.682,12.682,0,0,0,.85-13.8c-4.3-8.13-10.906-9.226-16.8-9.226A15.386,15.386,0,0,0,16.743,9.906c-1.825,3.376-2.1,6.963-.728,9.216a33.9,33.9,0,0,0,.295,3.825,28.184,28.184,0,0,1,.242,2.9c.01,5.507,1.14,9.7,3.256,12.188-.122,1.134-1.686,1.91-3.5,2.8a17.646,17.646,0,0,0-3.625,2.14A5.23,5.23,0,0,0,10.9,48.7a4.773,4.773,0,0,0,2.821,3.078,12.882,12.882,0,0,0-2.169,3.035c-.471.937-.551,2.393,1.751,4.016,1.855,1.29,8.1,3.166,15.661,3.189,9.652,0,19.156-2.1,22.782-4.145,2.05-1.166,2.808-2.431,2.318-3.861a11.806,11.806,0,0,0-.752-1.739,5.868,5.868,0,0,0,4-4.2A8.062,8.062,0,0,0,55.278,40.089ZM17.3,22.832A32.061,32.061,0,0,1,17.012,19c.011-2.813.829-4.74,2.57-6.062a3.748,3.748,0,0,1,4.187-.552,3.01,3.01,0,0,0,1.353.322c.009,0,.016,0,.024,0a.272.272,0,0,0,.03,0,3.085,3.085,0,0,0,1.23-.287,6.46,6.46,0,0,1,5.9.488,6.61,6.61,0,0,1,3.407,5.231c.323,4.445,2.039,7.127,3.411,8.074a2.505,2.505,0,0,0,1.408.5.885.885,0,0,0,.8-.323,4.084,4.084,0,0,1,.825-.976,2.97,2.97,0,0,1,2.322-.646,2.206,2.206,0,0,1,1.424,1.006,4.423,4.423,0,0,1,.426,3.213c-.391,1.777-1.862,3.465-3.56,3.093a2.853,2.853,0,0,1-1.129-.617.509.509,0,0,0-.453-.079.5.5,0,0,0-.325.323,12.421,12.421,0,0,1-4.735,6.025.5.5,0,1,0,.528.849,10.857,10.857,0,0,0,1.424-1.072c.025,2.28.338,5.237,3.385,6.608,1.176.528,2.218,1.041,3.168,1.552-.091.048-.181.089-.272.148a8.414,8.414,0,0,0-3.137,5.217A27.864,27.864,0,0,1,28.909,54.35c-4.009.113-6.927-.715-9.167-2.562a8.236,8.236,0,0,1,2.57-4.375l0,0,.032-.011c.839-.356,1.618-.658,2.284-.917a11.538,11.538,0,0,0,2.257-1.011,4.692,4.692,0,0,0,1.333-4.567,14.281,14.281,0,0,0,3.183-.8.5.5,0,1,0-.424-.906,13.569,13.569,0,0,1-3.358.763c-3.145,0-5.473-.806-6.919-2.4-2.052-2.27-3.141-6.321-3.151-11.717A28.809,28.809,0,0,0,17.3,22.832Zm28.6,23.544a24.051,24.051,0,0,1,2.262,1.5,14.845,14.845,0,0,0-4.8,2.017c-.314.171-.639.348-.973.528a7.384,7.384,0,0,1,2.516-3.768A1.352,1.352,0,0,1,45.905,46.376ZM18.877,51a11.886,11.886,0,0,1-1.066-1.252c.689-.441,1.437-.866,2.262-1.285A9.8,9.8,0,0,0,18.877,51Z"/><path d="M42.611,28.776a.477.477,0,0,0,.106.011.5.5,0,0,0,.488-.395,1.194,1.194,0,0,1,1.243-.813.5.5,0,1,0,.119-.993,2.186,2.186,0,0,0-2.339,1.6A.5.5,0,0,0,42.611,28.776Z"/></svg>