<svg id="Solid" xmlns="http://www.w3.org/2000/svg" viewBox="0 0 64 64"><title>girl, female, young, people, woman, teenager, avatar</title><path d="M17.285,21.348a.5.5,0,0,1-.253-.931,5.382,5.382,0,0,1,4.161-.124.5.5,0,1,1-.3.953,4.464,4.464,0,0,0-3.363.038A.5.5,0,0,1,17.285,21.348Z"/><path d="M27.6,21.13a.5.5,0,0,1-.3-.9,4.829,4.829,0,0,1,3.7-.306.5.5,0,1,1-.366.929,4.009,4.009,0,0,0-2.725.174A.5.5,0,0,1,27.6,21.13Z"/><path d="M20.921,24.229a.5.5,0,0,1-.311-.109,1.714,1.714,0,0,0-2.147,0,.5.5,0,0,1-.625-.781,2.721,2.721,0,0,1,3.4,0,.5.5,0,0,1-.313.89Z"/><path d="M31.611,24.26a.5.5,0,0,1-.311-.11,1.731,1.731,0,0,0-2.158,0,.5.5,0,0,1-.622-.783,2.732,2.732,0,0,1,3.4,0,.5.5,0,0,1-.313.891Z"/><path d="M24.821,33.6c-.038,0-.076,0-.114,0a2.288,2.288,0,0,1-1.761-.816.5.5,0,1,1,.792-.609,1.329,1.329,0,0,0,1.006.426,2.072,2.072,0,0,0,1.586-.645.5.5,0,1,1,.745.666A3.041,3.041,0,0,1,24.821,33.6Z"/><path d="M23.767,30.532A1.191,1.191,0,0,1,23,30.243a1.164,1.164,0,0,1-.441-1.132.5.5,0,0,1,.975.216.373.373,0,0,0,.159.185.144.144,0,0,0,.139,0,.5.5,0,1,1,.42.906A1.149,1.149,0,0,1,23.767,30.532Zm-.242-1.166h0Z"/><path d="M57.062,35.538c-.012-5.129-2.43-7.469-4.564-9.533-1.6-1.55-3.114-3.013-3.626-5.516C47.281,12.7,43.407,7.282,37.669,4.81c-8.421-3.617-14.5-.544-16.714.944-5.864,3.912-6.433,10.268-6.891,15.376-.051.581-.1,1.148-.159,1.726a14.886,14.886,0,0,1-.977,4.484c-.3.65-.686,1.3-1.1,1.993-1.567,2.653-3.518,5.956-1.727,11.511,1.265,3.9,6.427,7.729,10.157,8.526A14.8,14.8,0,0,0,16.1,54.337c-1.073,2.162-.179,3.4.763,4.062,2.386,1.66,6.573,2.5,12.445,2.5A45.62,45.62,0,0,0,41.8,58.859a21.891,21.891,0,0,0,4.1-1.65c1.153-.626,2.814-1.71,2.431-3.418a11.583,11.583,0,0,0-2.8-5.2C49.591,47.616,57.082,44.583,57.062,35.538ZM29.974,41.973A11.3,11.3,0,0,0,29.429,40a21.812,21.812,0,0,0,2.508-.8.5.5,0,1,0-.351-.935,17.533,17.533,0,0,1-2.938.886,12.369,12.369,0,0,1-3.066.212c-3.224-.194-7.085-3.266-7.639-6.087a39.622,39.622,0,0,1-.528-5.28c-.042-.764-.373-4.685-.365-4.807a6.821,6.821,0,0,1,.685-2.126,42.089,42.089,0,0,1,5.915-8.468c2.706,3.776,5.914,8.062,10.963,11.157a17.253,17.253,0,0,0,3.406,1.473.515.515,0,0,0,.605-.241,2.7,2.7,0,0,1,.661-.82,2.985,2.985,0,0,1,2.359-.653,2.461,2.461,0,0,1,1.764,1.721,5.111,5.111,0,0,1,.106,2.673,4.619,4.619,0,0,1-1.858,2.865,2.289,2.289,0,0,1-1.78.336,2.824,2.824,0,0,1-1.145-.647.5.5,0,0,0-.507-.065.52.52,0,0,0-.3.415,7.071,7.071,0,0,1-.686,2.334,6.859,6.859,0,0,1-1.368,1.975,5.269,5.269,0,0,1-.586.53.5.5,0,0,0-.086.7.52.52,0,0,0,.567.158c.094,2.178.572,7.125,2.991,8.541.229.1.449.22.671.329A10.409,10.409,0,0,1,28.888,49.7a3.789,3.789,0,0,1-3.033-2.532c.6-.286,3.124-1.421,3.464-1.674C30.253,44.8,30.191,43.2,29.974,41.973Z"/><path d="M39.648,28.039a.533.533,0,0,0,.1.011.5.5,0,0,0,.489-.4,1.25,1.25,0,0,1,1.272-.848.493.493,0,0,0,.555-.437.5.5,0,0,0-.437-.556,2.224,2.224,0,0,0-2.368,1.632A.5.5,0,0,0,39.648,28.039Z"/><rect x="29.692" y="23.759" width="1.97" height="2.52" rx="0.78" ry="0.78"/><rect x="19.212" y="23.789" width="1.98" height="2.52" rx="0.78" ry="0.78"/></svg>