<svg id="Solid" xmlns="http://www.w3.org/2000/svg" viewBox="0 0 64 64"><title>girl, Islam, arab, people, woman, hijab, avatar</title><path d="M21.462,22.83a.5.5,0,0,1-.192-.039,5.558,5.558,0,0,0-4.358-.152.5.5,0,0,1-.441-.9,6.559,6.559,0,0,1,5.182.127.5.5,0,0,1-.191.962Z"/><path d="M32.9,22.9a.5.5,0,0,1-.184-.035,6.984,6.984,0,0,0-5.337-.114.5.5,0,0,1-.6-.8c.9-.672,3.662-1.064,6.3-.015a.5.5,0,0,1-.185.965Z"/><path d="M27.962,24.47a.5.5,0,0,1-.266-.924A4.523,4.523,0,0,1,32.3,23.51a.5.5,0,0,1-.543.84,3.59,3.59,0,0,0-3.533.043A.5.5,0,0,1,27.962,24.47Z"/><path d="M48.371,39.739c-1.991-6.821-2.642-12.33-3.465-19.306l-.268-2.264C43.526,8.96,37.471,3.009,29.212,3.009c-10.315,0-14.419,8.2-14.819,15.874-.127,2.405-.241,8.261-.2,12.821a64.994,64.994,0,0,1-.914,9.759c-.637,4.408-1.239,8.571-.516,12.175.623,3.116,3.957,6.752,11.3,6.752h0a46.039,46.039,0,0,0,5.447.327c8.408,0,14.432-2.343,16.125-3.35,2.182-1.308,3.042-1.832,2.406-4.5C51.092,50.163,50.107,45.7,48.371,39.739Zm-34.629,13.7c-.688-3.434-.1-7.515.526-11.835a65.75,65.75,0,0,0,.924-9.911c-.04-4.541.073-10.369.2-12.76C15.88,9.589,21.046,4.009,29.212,4.009c7.721,0,13.386,5.606,14.433,14.28l.268,2.261c.829,7.022,1.483,12.569,3.5,19.469,1.783,6.126,2.314,9.61.335,11.764A11.188,11.188,0,0,0,44.324,47.4c-1.924-1.7-4.811-1.42-6.869.674a34.983,34.983,0,0,0-3.491,4.481,32.641,32.641,0,0,1-2.943,3.832,9.642,9.642,0,0,1-6.93,3.008h-.028C17.325,59.39,14.291,56.187,13.742,53.441Z"/><path d="M32.059,40.839a.5.5,0,1,0,.318.948c7.784-2.609,11.1-11.107,8.866-22.732a.5.5,0,1,0-.982.189C41.059,23.4,42.824,37.23,32.059,40.839Z"/><path d="M32.755,44.357a.5.5,0,0,0-.706.039,11.971,11.971,0,0,1-10.19,3.317,4.522,4.522,0,0,1-3.64-2.6.5.5,0,1,0-.934.357A5.438,5.438,0,0,0,21.678,48.7a10.3,10.3,0,0,0,1.87.164,13.1,13.1,0,0,0,9.247-3.8A.5.5,0,0,0,32.755,44.357Z"/><path d="M25.832,39.479a6.016,6.016,0,0,0,.606-.031,11.683,11.683,0,0,0,8.222-4.779,10.434,10.434,0,0,0,1.394-3.555c2.127-7.933,1.458-13.976-2.243-18.032a.5.5,0,1,0-.738.674c2.872,3.148,3.818,7.661,2.84,13.438a16.559,16.559,0,0,0-2.169-5.674c-.245-.382-.495-.814-.761-1.272-1.424-2.456-3.377-5.819-7.307-6.648a7.147,7.147,0,0,0-6.8,2.081A11.181,11.181,0,0,0,16.2,21.966a11.312,11.312,0,0,0-.149,1.634,39.857,39.857,0,0,0,.74,8.787A8.965,8.965,0,0,0,25.832,39.479ZM17.052,23.6a10.632,10.632,0,0,1,.137-1.488,10.256,10.256,0,0,1,2.44-5.774,5.918,5.918,0,0,1,4.466-1.9,6.627,6.627,0,0,1,1.374.144c3.5.736,5.245,3.75,6.649,6.171.274.471.531.914.782,1.308,1.634,2.572,2.832,6.776,1.961,9.834-.069.242-.154.475-.267.79-1.378,3.621-5.651,5.554-8.243,5.77h-.012a4.907,4.907,0,0,1-.507.026,7.976,7.976,0,0,1-8.06-6.286A38.626,38.626,0,0,1,17.052,23.6Z"/><path d="M24.522,33.558h.083a2.865,2.865,0,0,0,2.239-.959.5.5,0,1,0-.783-.621,1.89,1.89,0,0,1-1.514.579A1.563,1.563,0,0,1,23.278,32a.5.5,0,0,0-.812.582A2.54,2.54,0,0,0,24.522,33.558Z"/><path d="M24.168,30.124a1.619,1.619,0,0,0,.873-.263.5.5,0,0,0-.539-.843A.551.551,0,0,1,23.828,29a.507.507,0,0,1-.232-.382.507.507,0,0,0-.323-.629.493.493,0,0,0-.625.308,1.4,1.4,0,0,0,.555,1.484A1.554,1.554,0,0,0,24.168,30.124Z"/><path d="M21.092,24.64a.5.5,0,0,1-.39-.187c-.633-.786-2.756-.576-3.43-.245a.5.5,0,0,1-.441-.9c.905-.447,3.585-.812,4.65.517a.5.5,0,0,1-.389.813Z"/><rect x="29.372" y="23.759" width="1.98" height="2.78" rx="0.78" ry="0.78"/><rect x="18.462" y="23.759" width="1.98" height="2.78" rx="0.78" ry="0.78"/></svg>