<svg id="Solid" xmlns="http://www.w3.org/2000/svg" viewBox="0 0 64 64"><title>girl, long hair, assiantant, people, woman, teenager, avatar</title><path d="M31.932,25.759a.766.766,0,0,1-.77.78h-.42a.766.766,0,0,1-.78-.77l-.01-1.22a.773.773,0,0,1,.77-.78h.42a.781.781,0,0,1,.79.77Z"/><path d="M21.452,24.629l.01,1.22a.773.773,0,0,1-.77.78h-.42a.781.781,0,0,1-.79-.77v-1.22a.766.766,0,0,1,.77-.78h.42A.766.766,0,0,1,21.452,24.629Z"/><path d="M32.627,21.646a.488.488,0,0,1-.186-.036c-1.13-.452-3.848-.784-4.3-.435a.5.5,0,1,1-.611-.791c1-.774,4.353-.074,5.283.3a.5.5,0,0,1-.186.963Z"/><path d="M18.4,24.309a.5.5,0,0,1-.314-.889,2.74,2.74,0,0,1,3.4-.024.5.5,0,0,1-.62.786,1.741,1.741,0,0,0-2.157.017A.5.5,0,0,1,18.4,24.309Z"/><path d="M29.093,24.277a.5.5,0,0,1-.316-.886,2.721,2.721,0,0,1,3.395-.023.5.5,0,1,1-.621.783,1.717,1.717,0,0,0-2.146.018A.5.5,0,0,1,29.093,24.277Z"/><path d="M48.121,52.554c2.212-3.25,1.271-6.849.075-11.38A46.383,46.383,0,0,1,46.242,29.1c-.011-.721-.021-1.434-.051-2.13-.182-5.789-1.078-13.552-4.306-17.673a14.968,14.968,0,0,0-12.62-6.143h-.188c-10.25.1-13.32,9.112-14.164,12.983a40.694,40.694,0,0,0-.7,5.694c-.435,6.456-.264,15.157-.126,22.148.042,2.151.081,4.1.1,5.721a9.664,9.664,0,0,0,1.677,5.775,2.631,2.631,0,0,0,1.169,3c2.332,1.614,6.4,2.43,12.1,2.43h.358c6.893-.041,14.652-2.609,16.309-3.634.95-.587,3.062-1.867,2.676-3.574A8.363,8.363,0,0,0,48.121,52.554ZM30.387,49.109a.485.485,0,0,0-.112-.209.5.5,0,0,0-.707-.017c-.076.072-.148.148-.221.225a9.155,9.155,0,0,1-4.746-1.24c1.088-.583,2.1-1.046,2.941-1.423A11.258,11.258,0,0,0,29.4,45.5c1.3-.974.7-3.819.071-5.49a19.1,19.1,0,0,0,2.416-.713.5.5,0,1,0-.352-.936,17.809,17.809,0,0,1-2.838.807,12.442,12.442,0,0,1-3.068.232c-3.173-.181-6.978-3.194-7.538-5.969a43.048,43.048,0,0,1-.464-8.217l0-1.815c.5-.4,1.065-.811,1.7-1.249.482-.335.96-.653,1.431-.967,2.706-1.8,5.262-3.509,6.7-7.065a9.248,9.248,0,0,1,2.147,1.464,17.985,17.985,0,0,1,3.534,4.948c1.28,2.316,2.488,4.5,4.927,5.019a.473.473,0,0,0,.547-.26,6.342,6.342,0,0,1,.862-.97,2.575,2.575,0,0,1,1.639-.559,2.314,2.314,0,0,1,.624.091,2.541,2.541,0,0,1,.623.277,3.434,3.434,0,0,1,1.268,2.911,5.636,5.636,0,0,1-.128,1.173,4.621,4.621,0,0,1-1.858,2.864,2.288,2.288,0,0,1-1.787.335,2.786,2.786,0,0,1-1.138-.645.494.494,0,0,0-.508-.065.513.513,0,0,0-.3.415,7.594,7.594,0,0,1-2.015,4.289.42.42,0,0,0-.147.36h0c0,.35.014,7.469,3.069,9.232a20.417,20.417,0,0,1,1.994,1.017A20.874,20.874,0,0,1,30.387,49.109Zm14.879,7.317c-1.661,1.056-9.361,3.444-15.787,3.483-5.679.058-9.674-.723-11.884-2.252a1.706,1.706,0,0,1-.792-1.146,7.46,7.46,0,0,0,4.1,1.652,2.157,2.157,0,0,0,1.85-.821,2.245,2.245,0,0,0,.412-2.137,25.337,25.337,0,0,0-1.1-2.5c-.349-.729-.737-1.556-1.1-2.441a21.79,21.79,0,0,1,2.694-1.855,8.74,8.74,0,0,0,4.905,1.663A14.438,14.438,0,0,0,26.9,53.313a.5.5,0,0,0,.312.635.479.479,0,0,0,.162.027.5.5,0,0,0,.473-.337,12.818,12.818,0,0,1,1.935-3.517h.134a23.669,23.669,0,0,1,2.055,3.76.527.527,0,0,0,.475.345.5.5,0,0,0,.475-.656,14.366,14.366,0,0,0-1.806-3.5,21.931,21.931,0,0,0,10.647-3.49,13.189,13.189,0,0,1,5.34,6.093,7.288,7.288,0,0,1,.393,1.247C47.705,54.852,45.973,55.976,45.266,56.426Z"/><path d="M26.817,31.988a1.992,1.992,0,0,1-1.582.654,1.312,1.312,0,0,1-1.009-.42.5.5,0,0,0-.788.615,2.292,2.292,0,0,0,1.766.8H25.3a3.042,3.042,0,0,0,2.267-.993.5.5,0,1,0-.749-.662Z"/><path d="M24.575,30.582a1.151,1.151,0,0,0,.487-.109.5.5,0,1,0-.42-.907.142.142,0,0,1-.143-.006.376.376,0,0,1-.164-.184.5.5,0,0,0-.976-.215,1.16,1.16,0,0,0,.442,1.128A1.2,1.2,0,0,0,24.575,30.582Z"/><path d="M39.618,28.309a.622.622,0,0,0,.1.01.5.5,0,0,0,.488-.4,1.234,1.234,0,0,1,1.272-.858.494.494,0,0,0,.556-.436.5.5,0,0,0-.438-.556,2.228,2.228,0,0,0-2.368,1.643A.5.5,0,0,0,39.618,28.309Z"/></svg>