<svg id="Solid" xmlns="http://www.w3.org/2000/svg" viewBox="0 0 64 64"><title>girl, ponytail, people, woman, teenager, avatar, female</title><path d="M17.425,21.347a.5.5,0,0,1-.279-.914,4.82,4.82,0,0,1,4.007-.14.5.5,0,0,1-.3.953,3.927,3.927,0,0,0-3.158.024A.5.5,0,0,1,17.425,21.347Z"/><path d="M31.952,21.129a.5.5,0,0,1-.185-.035c-.93-.372-2.889-.485-3.417-.093a.5.5,0,1,1-.6-.8c.97-.72,3.391-.431,4.385-.033a.5.5,0,0,1-.186.964Z"/><path d="M20.881,24.229a.494.494,0,0,1-.311-.109,1.714,1.714,0,0,0-2.147,0,.5.5,0,0,1-.625-.781,2.72,2.72,0,0,1,3.4,0,.5.5,0,0,1-.313.89Z"/><path d="M31.691,24.259a.5.5,0,0,1-.313-.11,1.718,1.718,0,0,0-2.147,0,.5.5,0,0,1-.621-.783,2.72,2.72,0,0,1,3.4,0,.5.5,0,0,1-.314.889Z"/><path d="M25.131,33.6l-.113,0a2.293,2.293,0,0,1-1.762-.816.5.5,0,1,1,.792-.611,1.327,1.327,0,0,0,1.007.427,2.077,2.077,0,0,0,1.584-.645.5.5,0,0,1,.745.666A3.036,3.036,0,0,1,25.131,33.6Z"/><path d="M24.386,30.533a1.191,1.191,0,0,1-.766-.29,1.162,1.162,0,0,1-.441-1.132.5.5,0,0,1,.975.217.375.375,0,0,0,.159.184.139.139,0,0,0,.139,0,.5.5,0,0,1,.421.907A1.159,1.159,0,0,1,24.386,30.533Z"/><path d="M39.648,29.038a.466.466,0,0,0,.1.011.5.5,0,0,0,.489-.4,1.24,1.24,0,0,1,1.272-.847.5.5,0,0,0,.118-.993,2.218,2.218,0,0,0-2.368,1.632A.5.5,0,0,0,39.648,29.038Z"/><path d="M31.752,24.539v1.22a.781.781,0,0,1-.78.78h-.42a.773.773,0,0,1-.77-.78v-1.22a.773.773,0,0,1,.77-.78h.42A.781.781,0,0,1,31.752,24.539Z"/><path d="M21.152,24.569v1.22a.773.773,0,0,1-.78.77h-.42a.773.773,0,0,1-.78-.77v-1.22a.781.781,0,0,1,.78-.78h.42A.781.781,0,0,1,21.152,24.569Z"/><path d="M55.976,39.021a5.336,5.336,0,0,0-2.834-4.067c-2.82-1.515-7.128-1.021-9.927.251a3.738,3.738,0,0,1-2.932.2,3.277,3.277,0,0,1-1.745-1.849c.1-.312.183-.6.238-.844a3.037,3.037,0,0,0,.874.36,3.284,3.284,0,0,0,2.541-.466,5.648,5.648,0,0,0,2.3-3.494,7.131,7.131,0,0,0-.336-3.661,22.46,22.46,0,0,0,.777-8.122c-.2-2.72-.937-6.513-3.362-9.134-3.966-4.281-7.837-5.141-12.8-5.141-7,0-10.544,4.818-12.034,7.69-1.9,3.67-1.61,7.782-.807,9.505a12.64,12.64,0,0,0,.28,2.091,34.059,34.059,0,0,1,.392,4.366,28.251,28.251,0,0,0,.915,7.017c.986,2.948,4.755,6.41,8.321,6.63q.357.024.727.024a13.111,13.111,0,0,0,1.839-.147c.661,1.631,1.028,3.618.494,4.252a14.31,14.31,0,0,1-2.726,1.418c-3.549,1.627-7.9,4.056-10.069,8.432-1.073,2.163-.179,3.4.762,4.063,2.386,1.659,6.573,2.5,12.446,2.5,8.325,0,14.182-2.221,16.333-3.534l.257-.158c1.119-.68,2.811-1.709,2.428-3.417-.8-3.588-3.745-6.919-8.074-9.132-.16-.085-.905-.414-1.028-.492-1.179-.743-1.928-3.9-2.29-6.142,1.667,4.546,6.724,7.822,11.41,8.54a6.914,6.914,0,0,0,1.018.075A7.2,7.2,0,0,0,54.4,44.62,6.172,6.172,0,0,0,55.976,39.021Zm-21.1-1.595a.5.5,0,0,0,.429.243.506.506,0,0,0,.256-.07c.091-.055.183-.131.274-.2.257,1.9.99,6.05,2.616,7.421-.066.587-.393.689-1.033.879a3.242,3.242,0,0,0-1.3.622,6.791,6.791,0,0,0-.906,1.068c-.462.626-.94,1.272-1.523,1.438a2.367,2.367,0,0,1-.7.122,5.442,5.442,0,0,1-1.431-.22,4.172,4.172,0,0,0-.975-.171,5.917,5.917,0,0,0-1.564.177,4.521,4.521,0,0,1-.991.142,1.222,1.222,0,0,1-.6-.181,1.252,1.252,0,0,1-.665-1.03,3.6,3.6,0,0,1,.071-.958c.2-.089.409-.178.6-.259a5.778,5.778,0,0,0,2.234-1.319c.929-1.1.359-3.5-.252-5.078a16.551,16.551,0,0,0,2.574-.716.5.5,0,1,0-.348-.937,15.622,15.622,0,0,1-3,.8,11.562,11.562,0,0,1-2.735.163c-2.859-.176-6.473-3.068-7.437-5.949A27.682,27.682,0,0,1,17.6,26.66a33.754,33.754,0,0,0-.409-4.507,10.894,10.894,0,0,1-.271-2.014c0-.056,0-.157-.007-.293-.123-3.386.542-5.443,1.979-6.114a4.245,4.245,0,0,0,1.527-1.409,2.722,2.722,0,0,1,1.437-1.2,3.319,3.319,0,0,1,1.939.023,5.053,5.053,0,0,0,1.492.2,9.922,9.922,0,0,0,2.082-.267,5.19,5.19,0,0,1,2.729-.009A2.35,2.35,0,0,1,31.573,12.4a3.851,3.851,0,0,0,2.147,1.925c1.843.631,2.5,2.227,2.02,4.876a7.4,7.4,0,0,0-.087,2.048c.191,2.489,1.415,4.682,2.382,4.98a.527.527,0,0,0,.588-.244,2.706,2.706,0,0,1,.662-.822,3,3,0,0,1,2.354-.655,2.282,2.282,0,0,1,1.54,1.2,6.037,6.037,0,0,1,.335,3.191,4.623,4.623,0,0,1-1.858,2.865,2.285,2.285,0,0,1-1.78.335,2.826,2.826,0,0,1-1.145-.646.5.5,0,0,0-.807.346,7.78,7.78,0,0,1-.392,1.626,7.585,7.585,0,0,1-1,1.93,7.792,7.792,0,0,1-1.482,1.382A.5.5,0,0,0,34.873,37.426Z"/></svg>