<svg id="Solid" xmlns="http://www.w3.org/2000/svg" viewBox="0 0 64 64"><title>glasses, businessman, people, male, man, avatar, blonde</title><path d="M41.914,27.685a.492.492,0,0,1-.107-.011.5.5,0,0,1-.381-.595,2.191,2.191,0,0,1,2.345-1.587.5.5,0,1,1-.123.992,1.207,1.207,0,0,0-1.246.808A.5.5,0,0,1,41.914,27.685Z"/><path d="M26,33.933h-.113a3.538,3.538,0,0,1-2.644-1.063A.5.5,0,0,1,24,32.21a2.6,2.6,0,0,0,1.911.722,3.45,3.45,0,0,0,2.35-.737.5.5,0,1,1,.724.689A4.263,4.263,0,0,1,26,33.933Z"/><path d="M25.623,30.783a1.986,1.986,0,0,1-1.35-.544,1.4,1.4,0,0,1-.508-1.387.5.5,0,0,1,.958.286.768.768,0,0,0,.335.453.912.912,0,0,0,.882.133.5.5,0,1,1,.364.931A1.877,1.877,0,0,1,25.623,30.783Zm-.9-1.649Z"/><path d="M34.332,21.419a.505.505,0,0,1-.286-.089,5.421,5.421,0,0,0-5.11-.132.5.5,0,1,1-.628-.777,6.293,6.293,0,0,1,6.31.088.5.5,0,0,1-.286.91Z"/><path d="M22.182,21.549a.5.5,0,0,1-.327-.121c-.914-.787-3.7-.475-4.1-.169a.5.5,0,0,1-.6-.8c.814-.61,4.105-.866,5.356.211a.5.5,0,0,1-.326.879Z"/><path d="M40.051,24.553l-5.4.483v-.46a1.5,1.5,0,0,0-1.5-1.5H27.922a1.5,1.5,0,0,0-1.5,1.5v1.283H23.728V24.576a1.5,1.5,0,0,0-1.5-1.5H16.993a1.5,1.5,0,0,0-1.5,1.5v2.848a1.5,1.5,0,0,0,1.5,1.5h5.235a1.5,1.5,0,0,0,1.5-1.5v-.565h2.694v.565a1.5,1.5,0,0,0,1.5,1.5h5.234a1.5,1.5,0,0,0,1.5-1.5V26.04l5.485-.491a.5.5,0,0,0-.09-1ZM22.728,27.424a.5.5,0,0,1-.5.5H16.993a.5.5,0,0,1-.5-.5V24.576a.5.5,0,0,1,.5-.5h5.235a.5.5,0,0,1,.5.5Zm10.928,0a.5.5,0,0,1-.5.5H27.922a.5.5,0,0,1-.5-.5V24.576a.5.5,0,0,1,.5-.5h5.234a.5.5,0,0,1,.5.5Z"/><path d="M32.722,24.059v1.33a.93.93,0,0,1-1.86,0v-1.33a.93.93,0,0,1,1.86,0Z"/><rect x="19.942" y="23.129" width="1.87" height="3.19" rx="0.93" ry="0.93"/><path d="M41.472,42.679a6.794,6.794,0,0,1,1.22,3.17c.02,1.51-.92,2.68-2.79,3.47-.13.05-.26.11-.4.17a2.116,2.116,0,0,1,.1,1.09c-.47,2.52-4.22,8.02-7.16,11.36-.59.05-.59.04-1.18.07,2.14-2.7,6.8-8.61,7.35-11.6a1.064,1.064,0,0,0-.21-.86,1.78,1.78,0,0,0-.65-.48c.58-.21,1.22-.44,1.75-.67.55-.23,2.21-.93,2.19-2.54-.01-.54-.33-1.87-1.93-3.94a22.807,22.807,0,0,0-2.9-2.79c-.1-.42-.21-.95-.32-1.48a10.279,10.279,0,0,0,4.31-6.05,2.759,2.759,0,0,0,.89.35c2.32.52,4.25-1.54,4.76-3.83a5.4,5.4,0,0,0-.54-3.97,3.3,3.3,0,0,0-1.41-1.24c.69-3.86,1.66-9.52-.02-12.69a3.462,3.462,0,0,0-2.29-1.52c-.95-.3-.93-.37-.88-.55a3.294,3.294,0,0,0-1.45-3.3,3.026,3.026,0,0,0-3.7.15.877.877,0,0,1-.75.07.449.449,0,0,1-.27-.2,2.72,2.72,0,0,0-2.3-2.53,2.378,2.378,0,0,0-2.69,1.11.62.62,0,0,1-.49.05,2.5,2.5,0,0,0-2.54-1.58,2.525,2.525,0,0,0-2.37,1.64.261.261,0,0,1-.19.09.133.133,0,0,1-.13-.04,2.426,2.426,0,0,0-2.98-.62,2.317,2.317,0,0,0-1.33,2.61.349.349,0,0,1-.17.06,2.872,2.872,0,0,0-2.67.45,2.305,2.305,0,0,0-.87,2.11c.08.73.06.92-.89,1.44a2.674,2.674,0,0,0-1.28,1.87c-.53,2.47,1.08,6.27,2.18,7.84-.01,1.22.23,5.57.26,6.4.21,5.84,1.33,9.68,3.51,12.08a9.7,9.7,0,0,0,6.835,2.991c.239.013.895.009,1,.009.01.02.01.05.02.08-3.09,1.29-6.42,3.42-7.24,5.26-.77,1.71.85,2.44,1.62,2.88-.96.33-2,.88-2.04,1.72-.14,2.99,1.48,8.51,2.53,10.91-.41-.06-.429-.059-.809-.129-.729-1.07-2.851-8.111-2.721-10.831a2.359,2.359,0,0,1,1.08-1.81,2.6,2.6,0,0,1-.86-1.94,19.608,19.608,0,0,0-6.89,7.59c-.87,1.93-.58,3.75.74,4.74,1.7,1.26,4.85,2.88,10.27,3.51,1.19.14,3.64.26,4.81.26.53,0,2-.04,2.22-.05,8.67-.38,20.68-3.17,20.68-7.44C51.492,50.989,47.142,45.519,41.472,42.679Zm-12.32-1.51a4.461,4.461,0,0,0-.08-.46,10.989,10.989,0,0,0,2.38-.62.5.5,0,1,0-.42-.9,12.594,12.594,0,0,1-2.63.62,7.327,7.327,0,0,1-1.749,0,8.545,8.545,0,0,1-5.671-2.627c-2.01-2.21-3.05-5.85-3.25-11.45-.03-.83-.29-5.29-.26-6.53a8.458,8.458,0,0,1,.45-3.1c.38-.96,1.43-2.58,2.96-2.58.86,0,3.61.5,4.79.51,1.22-.02,5.77-.79,6.59-.71,3.33.33,4.49,4.22,4.51,5.94.06,4.93,1.13,5.55,2.87,6.16,0,0,.21.08.28.1a.57.57,0,0,0,.62-.23,3.927,3.927,0,0,1,.83-.98,2.96,2.96,0,0,1,2.32-.64,2.248,2.248,0,0,1,1.42,1.01,4.434,4.434,0,0,1,.42,3.22c-.4,1.77-1.88,3.46-3.58,3.08a2.82,2.82,0,0,1-1.12-.62.5.5,0,0,0-.5-.07.487.487,0,0,0-.3.39c-.01.05-.74,4.61-4.7,6.52a.5.5,0,0,0-.23.66.515.515,0,0,0,.45.29c.02,0,.04-.02.07-.02.21,1.04.43,1.96.5,2.23.36,1.36.11,3.18-.78,5.71a6.173,6.173,0,0,1-6.49,1.63c-.93-.31-1.49-.8-1.55-1.32.34-.87.68-1.66.97-2.33C28.942,42.529,29.272,41.7,29.152,41.169Zm-.88,20.92c-.89-.01-1.77-.04-2.65-.1-.42-6.49-.15-9.26.45-11.77a25.519,25.519,0,0,1,.77-2.58,4.177,4.177,0,0,0,1.69,1.01,7.346,7.346,0,0,0,2.3.35,7.427,7.427,0,0,0,3.75-.98C34.412,48.419,28.922,60.639,28.272,62.089Z"/></svg>