<svg id="Solid" xmlns="http://www.w3.org/2000/svg" viewBox="0 0 64 64"><title>old, glasses, people, man, grandfather, avatar, beard</title><path d="M25.83,35.382a3.142,3.142,0,0,1-2.161-.671.5.5,0,0,1,.766-.643,2.3,2.3,0,0,0,1.388.314h.025a2.739,2.739,0,0,0,1.937-.6.5.5,0,0,1,.774.635,3.793,3.793,0,0,1-2.706.965Z"/><path d="M25.506,32.018a2.238,2.238,0,0,1-1.522-.617,1.618,1.618,0,0,1-.59-1.567.492.492,0,0,1,.611-.326.507.507,0,0,1,.346.616.811.811,0,0,0,.333.56,1.2,1.2,0,0,0,1.255.25.5.5,0,1,1,.366.931A2.179,2.179,0,0,1,25.506,32.018Z"/><path d="M32.7,23.9a.494.494,0,0,1-.308-.106,4.742,4.742,0,0,0-2.977-.105.5.5,0,1,1-.631-.777c.79-.642,3.483-.486,4.224.095a.5.5,0,0,1-.308.893Z"/><path d="M17.762,24.26a.5.5,0,0,1-.388-.816c.832-1.02,3.523-1.044,4.3-.438a.5.5,0,1,1-.615.787c-.4-.311-2.459-.263-2.906.282A.5.5,0,0,1,17.762,24.26Z"/><path d="M41.733,29.789a.443.443,0,0,1-.1-.011.5.5,0,0,1-.388-.591,2.133,2.133,0,0,1,2.278-1.6.5.5,0,1,1-.119.992,1.143,1.143,0,0,0-1.18.816A.5.5,0,0,1,41.733,29.789Z"/><path d="M28.872,35.46a.5.5,0,0,1-.235-.059,1.778,1.778,0,0,1-.953-1.2,1.686,1.686,0,0,1,0-.816.5.5,0,0,1,.966.254.808.808,0,0,0,.011.335.8.8,0,0,0,.45.54.5.5,0,0,1-.235.942Z"/><path d="M49.13,55.3c-.684-3.064-3.048-5.6-4.917-7.2h0l-.015-.013a24.556,24.556,0,0,0-4.547-3.042,25.931,25.931,0,0,0-1.959-3.46.5.5,0,0,0-.71-.128,13.781,13.781,0,0,1-.276-1.388l.127-.1c2.7-2.13,3.989-3.6,4.007-6.149a2.185,2.185,0,0,0,.772.243,3.05,3.05,0,0,0,.329.018c1.778,0,3.3-1.547,4.539-4.6A14.209,14.209,0,0,0,47.761,27.2l0-.007c1.136-2.643,1.316-5.523.85-6.884A17.266,17.266,0,0,0,44.2,7.7c-2.707-3.128-8.229-5.461-13.428-5.673-4.467-.163-9.671,1.546-12.653,4.2a18.039,18.039,0,0,0-4.758,10.03,4.031,4.031,0,0,0-.343.747c-.543,1.647-.782,6.354.468,8.794a2.735,2.735,0,0,0,1.69,1.534,1.293,1.293,0,0,0,0,.316,14.686,14.686,0,0,0,.786,2.029,1.1,1.1,0,0,0,.291.4c.045.125.084.236.11.309-.85,6.025,2.267,9.152,3.948,10.837.266.268.5.5.674.706a7.009,7.009,0,0,0,3.283,2.143,8.484,8.484,0,0,0,2.262.352,9.913,9.913,0,0,0-.964,1.978c-1.239.6-4.884,2.621-5.591,3.11-.473.321-.983.7-1.512,1.132a15.883,15.883,0,0,0-4.453,5.266c-1.173,2.327-.208,3.668.811,4.386a9.849,9.849,0,0,0,1.926,1.027,28.393,28.393,0,0,0,8.519,1.621c.966.04,2,.071,3.13.071a46.517,46.517,0,0,0,10.361-1.123A28.777,28.777,0,0,0,46.463,59C47.72,58.315,49.545,57.143,49.13,55.3ZM16.486,60.116a8.052,8.052,0,0,1-1.1-.645c-.654-.459-1.414-1.283-.49-3.121A14.554,14.554,0,0,1,18.653,51.8,23.681,23.681,0,0,0,16.486,60.116ZM45.28,29l.2.294c-.787,1.878-2.066,3.941-3.762,3.777a2.074,2.074,0,0,1-.988-.515c-.146-1.062-.393-2.389-.61-3.246a1.179,1.179,0,0,0-1.037-.919,1.782,1.782,0,0,0-1.707,1.046,7.819,7.819,0,0,1-3.547,3.35,4.891,4.891,0,0,1-2.9.481c-1.85-.377-6.183-1.262-10.133.118a2.9,2.9,0,0,1-1.991-.6,8.874,8.874,0,0,1-.916-1.635c-.058-.118-.165-.371-.3-.693h3.206a1.457,1.457,0,0,0,1.374-.783c.052-.13.123-.293.2-.472.113-.257.232-.539.337-.807a6.447,6.447,0,0,1,3.951,0c.232.6.54,1.275.541,1.275a1.417,1.417,0,0,0,1.376.788h3.46a1.456,1.456,0,0,0,1.372-.778s.413-.956.525-1.235l6.048-.792a.494.494,0,0,0,.356-.239c.005-.009.014-.012.02-.021s1.052-1.368,1.557-1.964A11.655,11.655,0,0,1,45.28,29ZM27.394,27.464a.816.816,0,0,1,.258-.534h4.909a.757.757,0,0,1,.576.17.461.461,0,0,1,.062.366c-.013.075-.714,1.82-.714,1.82a.538.538,0,0,1-.453.174h-3.46a.517.517,0,0,1-.455-.178A15.187,15.187,0,0,1,27.394,27.464Zm11.878-3.62c.651.336,1.239.681,1.79,1.027-.405.465-.95,1.143-1.294,1.613a9.848,9.848,0,0,1-2.145-1.928,9.757,9.757,0,0,1-1.15-1.927A25.338,25.338,0,0,1,39.272,23.844Zm-21.945-.865c1.34-1.149,4.713-1.958,8.8-2.11A26.8,26.8,0,0,1,35.272,22.2a9.329,9.329,0,0,0,1.442,2.824,11.5,11.5,0,0,0,1.849,1.811l-4.357.571a1.363,1.363,0,0,0-.3-.934,1.671,1.671,0,0,0-1.39-.538H27.652a1.11,1.11,0,0,0-.851.426,1.838,1.838,0,0,0-.4.947,7.438,7.438,0,0,0-3.438,0,1.322,1.322,0,0,0-.264-.8,1.467,1.467,0,0,0-1.134-.556c-.082-.016-5.174-.019-5.174-.019a1.044,1.044,0,0,0-.249.047A3.339,3.339,0,0,1,17.327,22.979Zm-.451,6.3a14.5,14.5,0,0,1-.722-1.821.719.719,0,0,1,.085-.318.447.447,0,0,1,.173-.212l5.03.008a.653.653,0,0,1,.464.171.469.469,0,0,1,.053.357c-.016.094-.665,1.7-.714,1.82a.538.538,0,0,1-.453.174h-3.46a.76.76,0,0,1-.327-.068A.233.233,0,0,1,16.876,29.281Zm7.686,13.832a6.027,6.027,0,0,1-2.82-1.838c-.188-.221-.439-.473-.727-.763-1.5-1.507-3.912-3.923-3.8-8.441a5.688,5.688,0,0,0,.886,1.438,3.684,3.684,0,0,0,3.013.822c3.691-1.287,7.835-.441,9.608-.081a5.909,5.909,0,0,0,3.573-.58,8.787,8.787,0,0,0,3.973-3.791.8.8,0,0,1,.7-.492c.1.01.147.055.174.166a32.9,32.9,0,0,1,.619,3.338,8.3,8.3,0,0,1,.076.878c0,2.183-1.12,3.436-3.623,5.413,0,0-1.37,1.05-1.828,1.4a13.028,13.028,0,0,1-6.913,2.83A7.617,7.617,0,0,1,24.562,43.113ZM27.8,58.8a.691.691,0,0,1-.69-.69.7.7,0,1,1,.69.69Zm.417-12.553A22.622,22.622,0,0,0,25.9,49.724c-.147.252-.307.527-.461.782.189-.968.891-3.293.988-3.57a8.519,8.519,0,0,1,1.162-2.3,5.97,5.97,0,0,1,.949,1.4A.865.865,0,0,0,28.219,46.246Zm1.333,7.383a.7.7,0,1,1,.69-.7A.694.694,0,0,1,29.552,53.629Zm1.092-7.156a2.044,2.044,0,0,0-.365.369,2.623,2.623,0,0,0-.451-.481,11.539,11.539,0,0,0-1.24-2.076,14.672,14.672,0,0,0,6.406-2.907l.809-.612a11.406,11.406,0,0,0,.463,1.778,9.742,9.742,0,0,1-4.193,3.5A1.882,1.882,0,0,0,30.644,46.473Zm4.506,4.8a.122.122,0,0,1-.2-.034c-.132-.284-.239-.6-.362-.91A19.525,19.525,0,0,0,32.9,46.774a11.348,11.348,0,0,0,4.383-3.959,19.9,19.9,0,0,1,1.428,2.577A23.439,23.439,0,0,1,35.15,51.274Zm10.8,6.874a20.82,20.82,0,0,1-6.826,2.616c.082-2.354,1.658-9.919,4.693-11.678,1.71,1.5,3.747,3.768,4.341,6.432C48.392,56.574,47.3,57.348,45.946,58.148Z"/><path d="M32.522,26.429a.93.93,0,0,0-.92-.82h-.33a.93.93,0,0,0-.92.82.41.41,0,0,0-.01.11v.76a.928.928,0,0,0,.93.93h.33a.928.928,0,0,0,.93-.93v-.76A.41.41,0,0,0,32.522,26.429Z"/><path d="M21.472,26.439a.941.941,0,0,0-.89-.63h-.32a.911.911,0,0,0-.87.62.815.815,0,0,0-.06.31v.77a.928.928,0,0,0,.93.93h.32a.937.937,0,0,0,.94-.93v-.77A.993.993,0,0,0,21.472,26.439Z"/></svg>