<svg id="Solid" xmlns="http://www.w3.org/2000/svg" viewBox="0 0 64 64"><title>skin head, african, earring, girl, young, woman, avatar</title><circle cx="30.552" cy="48.839" r="0.77"/><path d="M32.372,24.769v.66a.93.93,0,1,1-1.86,0v-.66a.917.917,0,0,1,.87-.93,1.336,1.336,0,0,1,.4.06c.03.02.07.03.1.05A.919.919,0,0,1,32.372,24.769Z"/><path d="M20.272,23.9a.945.945,0,0,1,.57.87v.66a.93.93,0,1,1-1.86,0v-.66a.937.937,0,0,1,.93-.94.782.782,0,0,1,.35.07Z"/><path d="M29.472,24.88a.5.5,0,0,1-.246-.936,4.379,4.379,0,0,1,2.757-.484.5.5,0,1,1-.2.978,3.452,3.452,0,0,0-2.062.377A.5.5,0,0,1,29.472,24.88Z"/><path d="M28.222,22.76a.5.5,0,0,1-.319-.886c.7-.581,3.747-1.156,5.89-.714a.5.5,0,0,1-.2.979,9.465,9.465,0,0,0-5.052.506A.494.494,0,0,1,28.222,22.76Z"/><path d="M20.669,22.9a.5.5,0,0,1-.323-.119c-.577-.488-3.109-.682-3.869-.467a.5.5,0,1,1-.27-.962c.94-.261,3.867-.113,4.785.668a.5.5,0,0,1-.323.88Z"/><path d="M17.922,24.449a.5.5,0,0,1-.163-.973,4,4,0,0,1,2.739-.017.5.5,0,0,1-.473.881,3.107,3.107,0,0,0-1.94.082A.52.52,0,0,1,17.922,24.449Z"/><path d="M25.137,33.613l-.137,0a2.417,2.417,0,0,1-1.859-.807.5.5,0,1,1,.793-.61,1.485,1.485,0,0,0,1.1.417,2.24,2.24,0,0,0,1.8-.655.5.5,0,0,1,.746.666A3.315,3.315,0,0,1,25.137,33.613Z"/><path d="M24.271,30.532a1.19,1.19,0,0,1-.766-.289,1.167,1.167,0,0,1-.442-1.132.5.5,0,0,1,.976.216.373.373,0,0,0,.159.185.145.145,0,0,0,.138,0,.5.5,0,1,1,.422.906A1.154,1.154,0,0,1,24.271,30.532Z"/><path d="M48.33,53.791a12.968,12.968,0,0,0-5.466-7.548c-.779-.559-3.961-2.307-4.006-2.333-1.939-1.668-2.086-6.317-2.1-7.269a8.229,8.229,0,0,0,2-3.758,4.717,4.717,0,0,0,.523.119c-.1,1.548-.138,4.673.52,5.4a.689.689,0,0,0,.514.24.8.8,0,0,0,.6-.279c.743-.826.538-4.051.419-5.368a3.533,3.533,0,0,0,.852-.384,5.643,5.643,0,0,0,2.3-3.492,5.961,5.961,0,0,0-.263-3.522c.916-3.49,1.5-9.751-.019-13.131a16.358,16.358,0,0,0-2.216-3.628c-2.559-3.179-7.524-6.612-16.66-4.929A12.037,12.037,0,0,0,17.4,9.547,14.253,14.253,0,0,0,15.49,20.454a10.361,10.361,0,0,0,.336,1.023c0,.134.142,1.741.231,2.2.182,1.242.751,6.738.986,8.211-.348,1.379-.418,5.772.273,6.705a.709.709,0,0,0,.576.311.81.81,0,0,0,.594-.261c.226-.234.468-.7.528-2.072a10.1,10.1,0,0,0,6.507,3.792,12.749,12.749,0,0,0,2.9-.168c.686,1.731.975,4,.3,4.5-.212.16-5.487,2.653-6.116,3.06a16.449,16.449,0,0,0-6.5,6.586c-1.073,2.163-.177,3.4.766,4.064A10.093,10.093,0,0,0,18.9,59.455,29.8,29.8,0,0,0,29.311,60.9a43.511,43.511,0,0,0,9.8-1.313A29.939,29.939,0,0,0,45.9,57.21C47.06,56.6,48.714,55.5,48.33,53.791ZM40.368,37.059a20.174,20.174,0,0,1-.088-3.9h.07A20.518,20.518,0,0,1,40.368,37.059Zm-22.432.325a17.48,17.48,0,0,1-.152-2.754c.074.157.142.314.229.468A12.281,12.281,0,0,1,17.936,37.384Zm11.383,8.107c1.31-.971.724-3.819.1-5.494a17.288,17.288,0,0,0,2.415-.7.5.5,0,0,0-.352-.936,15.946,15.946,0,0,1-2.838.787,12.372,12.372,0,0,1-3.066.212c-2.321-.14-5.231-2.165-6.631-4.616a9.542,9.542,0,0,1-.906-2.915c-.225-1.482-1.223-10.3-1.224-10.472-.061-1.362-.021-4.68,1.673-6.076a3.315,3.315,0,0,1,3.02-.466,15,15,0,0,0,5.665.25c3.167-.763,5.451-.64,6.79.365,1.68,1.261,1.8,3.81,1.9,6.058.11,2.372.215,4.612,2.273,4.76a.5.5,0,0,0,.479-.27,2.683,2.683,0,0,1,.655-.815,2.991,2.991,0,0,1,2.364-.659c1.753.4,2.271,2.561,1.869,4.4a4.622,4.622,0,0,1-1.855,2.863,2.391,2.391,0,0,1-1.28.39,8.215,8.215,0,0,1,.324-.985c.061-.27-.224-.5-.5-.5-.49,0-.692.467-.813,1.33a1.491,1.491,0,0,1-.7-.26.5.5,0,0,0-.8.354,7.1,7.1,0,0,1-2.6,4.556.5.5,0,0,0,.309.894.512.512,0,0,0,.191-.066c.086,1.685.459,5,2.015,6.782-2.8,2.506-6.3,3.257-8.273,2.644a2.05,2.05,0,0,1-1.208-.867A5.9,5.9,0,0,0,29.319,45.491Zm-1.918.961a2.924,2.924,0,0,0,1.832,1.407,6.2,6.2,0,0,0,1.815.25,11.6,11.6,0,0,0,7.544-3.2,31.025,31.025,0,0,1,2.841,1.606c-1.5.833-2.671,2.961-3.288,5.067-1.79.317-11.058,1.842-15.59.449a11.274,11.274,0,0,1,1.1-3.72A41.165,41.165,0,0,1,27.4,46.452ZM17,54.782a14.8,14.8,0,0,1,5.2-5.588,9.162,9.162,0,0,0-.644,3.023c-1.244,1.357-2.377,4.742-2.792,6.082a8.616,8.616,0,0,1-1.328-.719C16.857,57.172,16.178,56.436,17,54.782Zm28.123,1.73a32.417,32.417,0,0,1-5.637,1.95c-.2.051-.789.188-.876.209a20.751,20.751,0,0,1,.035-4.622,18.7,18.7,0,0,1,.386-1.935c.651-2.286,1.969-4.656,3.408-4.936a11.9,11.9,0,0,1,4.914,6.831C47.563,54.941,46.1,56.026,45.123,56.512Z"/><path d="M39.645,28.376a.553.553,0,0,0,.106.011.5.5,0,0,0,.488-.4,1.231,1.231,0,0,1,1.273-.849.5.5,0,0,0,.125-.992,2.212,2.212,0,0,0-2.376,1.632A.5.5,0,0,0,39.645,28.376Z"/></svg>