<svg id="Solid" xmlns="http://www.w3.org/2000/svg" viewBox="0 0 128 128"><title>airport, institution, building, construction, city, plane, fly</title><path d="M91.09,63.611H29.25A3.256,3.256,0,0,0,26,66.861v1.014H91.939C91.668,66.423,91.387,65,91.09,63.611Z"/><path d="M125,70.381h-3.64c-.08.41-.15.83-.21,1.25-.08.41-.15.83-.21,1.25-1.66,10.24-2.77,21.43-3.38,31.16-.02.42-.12,2.09-.14,2.5H126a1.25,1.25,0,0,0,1.25-1.25V72.631A2.253,2.253,0,0,0,125,70.381Z"/><path d="M92.81,72.881c-.07-.42-.35-2.08-.42-2.51H26v.01H12.17a2.253,2.253,0,0,0-2.25,2.25v19.73H53.78c5.47,0,14.96,1.98,23.7,7.54a43.551,43.551,0,0,1,6.13,4.73c.41.39,1.7,1.64,1.97,1.91H96.33c-.02-.41-.12-2.08-.14-2.5C95.58,94.311,94.47,83.121,92.81,72.881ZM28.5,86.381a1.993,1.993,0,0,1-2,2H22.17a1.993,1.993,0,0,1-2-2v-4.33a1.993,1.993,0,0,1,2-2H26.5a1.993,1.993,0,0,1,2,2Zm15,0a2,2,0,0,1-2,2H37.16a2,2,0,0,1-2-2v-4.33a2,2,0,0,1,2-2H41.5a2,2,0,0,1,2,2Zm29,0a1.993,1.993,0,0,1-2,2H66.17a1.993,1.993,0,0,1-2-2v-4.33a1.993,1.993,0,0,1,2-2H70.5a1.993,1.993,0,0,1,2,2Zm15,0a2,2,0,0,1-2,2H81.16a2,2,0,0,1-2-2v-4.33a2,2,0,0,1,2-2H85.5a2,2,0,0,1,2,2Z"/><path d="M83.07,107.581l.01.03H63.94a2.014,2.014,0,0,1-1.9-1.36l-.53-1.6a2,2,0,0,1,1.89-2.64H76.13c-7.7-4.91-16.56-7.15-22.35-7.15H1.5v20.78h0v10.18l14.9-5.27H88.12c2.02,0,2.89-2.37,2.21-4.46C89.98,115.051,87.2,111.581,83.07,107.581ZM12.5,105.676a1.912,1.912,0,0,1-1.912,1.913H8.253a1.912,1.912,0,0,1-1.913-1.913v-2.335a1.912,1.912,0,0,1,1.913-1.912h2.335a1.912,1.912,0,0,1,1.912,1.912Zm13.5,0a1.912,1.912,0,0,1-1.912,1.913H21.753a1.912,1.912,0,0,1-1.913-1.913v-2.335a1.912,1.912,0,0,1,1.913-1.912h2.335A1.912,1.912,0,0,1,26,103.341Zm13.5,0a1.912,1.912,0,0,1-1.912,1.913H35.253a1.912,1.912,0,0,1-1.913-1.913v-2.335a1.912,1.912,0,0,1,1.913-1.912h2.335a1.912,1.912,0,0,1,1.912,1.912Zm13.5,0a1.912,1.912,0,0,1-1.912,1.913H48.753a1.912,1.912,0,0,1-1.913-1.913v-2.335a1.912,1.912,0,0,1,1.913-1.912h2.335A1.912,1.912,0,0,1,53,103.341Z"/><path d="M116.083,118.694h-1.578c.113-14.728,2.187-43.4,7.322-62.333h-29.9c5.135,18.929,7.209,47.605,7.322,62.333H97.667a1.25,1.25,0,0,0,0,2.5h18.416a1.25,1.25,0,0,0,0-2.5Z"/><path d="M91.2,53.861h31.342a58.827,58.827,0,0,1,2.944-7.96,5.747,5.747,0,0,0,.339-.95H87.921a5.747,5.747,0,0,0,.339.95A58.827,58.827,0,0,1,91.2,53.861Z"/><path d="M126,25.861a1,1,0,0,0-1-1H88.75a1,1,0,0,0-1,1v16.59H126Zm-4.833,11.333a1,1,0,0,1-1,1H115.25a1,1,0,0,1-1-1V31.611a1,1,0,0,1,1-1h4.917a1,1,0,0,1,1,1Z"/></svg>