<svg id="Solid" xmlns="http://www.w3.org/2000/svg" viewBox="0 0 128 128"><title>amusement, tent, park, building, construction, recreation, fun</title><path d="M79.191,28.156a9.16,9.16,0,0,0,.979-2.4,1,1,0,0,0-.973-1.262c-3.535.047-13.531-.071-15.27-2.816v8.812c4.633,4.118,13.029,3.155,16.657,2.491a1,1,0,0,0,.549-1.664L79.31,29.35A.992.992,0,0,1,79.191,28.156Z"/><path d="M63.927,48.29a1.249,1.249,0,0,1-1.25-1.25V19.383a1.25,1.25,0,0,1,2.5,0V47.04A1.25,1.25,0,0,1,63.927,48.29Z"/><path d="M123.7,124.611h-2.93c-5.752-7.753-11.908-25.324-12.209-34.816a4.466,4.466,0,0,0,1.5-5.364s-1.868-4.464-2.541-5.93a3.4,3.4,0,0,0-1.229-1.578l-29.9-22.812a2.13,2.13,0,0,0-.59-1.822l-9.726-9.713a3.039,3.039,0,0,0-4.289,0l-9.729,9.718a2.125,2.125,0,0,0-.586,1.817S29.084,71.28,21.563,76.924A4.339,4.339,0,0,0,20.336,78.5c-.627,1.487-2.54,5.931-2.54,5.931a4.459,4.459,0,0,0,1.5,5.363c-.3,9.493-6.456,27.065-12.208,34.817H4.3a1.25,1.25,0,1,0,0,2.5H123.7a1.25,1.25,0,0,0,0-2.5ZM69.255,55.435,87.763,77.1h-14l-6.19-21.814C68.126,55.329,68.692,55.381,69.255,55.435Zm-10.657,0c.563-.054,1.13-.106,1.683-.154L54.092,77.1h-14Zm-26.2,69.176H22.448c7.844-10.642,12.7-27.944,14.249-34.093a10.123,10.123,0,0,0,5.449,2.572,10.792,10.792,0,0,0,6.469-1.4C46.2,98.824,40.076,115.328,32.393,124.611Zm17.374,0a123.205,123.205,0,0,0,14.16-23.194,123.205,123.205,0,0,0,14.16,23.194Zm45.694,0c-7.683-9.282-13.8-25.787-16.222-32.921a10.785,10.785,0,0,0,6.468,1.4,10.116,10.116,0,0,0,5.449-2.572c1.552,6.148,6.406,23.451,14.249,34.093ZM106.815,87.93c-.008,0-.015.01-.024.014-4.216,1.887-8.238,1.154-11.956-2.18a2.127,2.127,0,0,0-3.192.412c-.98,1.488-3.093,4.044-6.243,4.433-2.637.325-5.525-.942-8.6-3.763a2.135,2.135,0,0,0-3.286.488c-1.977,3.366-5.189,5.073-9.553,5.073h-.08c-4.357,0-7.569-1.707-9.547-5.073a2.136,2.136,0,0,0-3.285-.489c-3.073,2.822-5.962,4.091-8.6,3.764-3.149-.389-5.263-2.945-6.242-4.433a2.119,2.119,0,0,0-1.5-.936,2.142,2.142,0,0,0-1.7.524C29.3,89.1,25.276,89.828,21.061,87.943c-.008,0-.014-.009-.021-.012a1.937,1.937,0,0,1-.945-2.516l2.492-5.82h82.679l2.494,5.82A1.938,1.938,0,0,1,106.815,87.93Z"/></svg>