<svg id="Solid" xmlns="http://www.w3.org/2000/svg" viewBox="0 0 128 128"><title>Anxiety, mental health, disorder, mental illness, Compulsive, obsessive, ocd</title><path d="M95.331,96.989c-.273-4.3,1.029-10.247,3.662-13.663,10.5-13.626,15.158-25.432,12.96-39.962C108.391,19.816,91.76,7.343,68.766,6.162,43.637,4.862,22.116,21,22.809,43.265c.091,2.938.605,7.265.593,10.091C23.379,63.4,14.69,67.524,14.523,70.72c-.275,5.248,5.89,3.609,8.064,11.033,2.76,9.425-1.2,20.173,11.648,19.509,5.125-.206,13.454-2.2,17.023,1.123,2.276,2.117,4.109,11.352,4.824,15.439a2.367,2.367,0,0,0,2.337,1.958H96.988a2.369,2.369,0,0,0,2.282-3.028C97.987,112.337,95.769,103.9,95.331,96.989ZM54.885,74.568a1.566,1.566,0,0,1-1.416.882l-.9,0-.033,5.086a1,1,0,0,1-1,.993H46.862a1,1,0,0,1-1-1l0-5.078-.9,0a1.576,1.576,0,0,1-1.247-2.539l3.942-5.1a1.965,1.965,0,0,1,3.112,0l3.942,5.1A1.564,1.564,0,0,1,54.885,74.568Zm0-20.93a1.565,1.565,0,0,1-1.416.881h-.9L52.537,59.6a1,1,0,0,1-1,.994H46.862a1,1,0,0,1-1-1l0-5.078h-.9a1.576,1.576,0,0,1-1.247-2.539l3.942-5.1a1.967,1.967,0,0,1,3.112,0l3.942,5.1A1.566,1.566,0,0,1,54.885,53.638Zm0-20.93a1.567,1.567,0,0,1-1.416.881h-.9l-.033,5.085a1,1,0,0,1-1,.994H46.862a1,1,0,0,1-1-1l0-5.078h-.9a1.576,1.576,0,0,1-1.247-2.539l3.942-5.1a1.967,1.967,0,0,1,3.112,0l3.942,5.1A1.566,1.566,0,0,1,54.885,32.708Zm16.348,41.86a1.566,1.566,0,0,1-1.416.882l-.9,0-.033,5.086a1,1,0,0,1-1,.993H63.21a1,1,0,0,1-1-1l.005-5.078-.9,0a1.576,1.576,0,0,1-1.247-2.539l3.942-5.1a1.965,1.965,0,0,1,3.112,0l3.942,5.1A1.564,1.564,0,0,1,71.233,74.568Zm0-20.93a1.565,1.565,0,0,1-1.416.881h-.9L68.885,59.6a1,1,0,0,1-1,.994H63.21a1,1,0,0,1-1-1l.005-5.078h-.9A1.576,1.576,0,0,1,60.07,51.98l3.942-5.1a1.967,1.967,0,0,1,3.112,0l3.942,5.1A1.566,1.566,0,0,1,71.233,53.638Zm0-20.93a1.567,1.567,0,0,1-1.416.881h-.9l-.033,5.085a1,1,0,0,1-1,.994H63.21a1,1,0,0,1-1-1l.005-5.078h-.9A1.576,1.576,0,0,1,60.07,31.05l3.942-5.1a1.967,1.967,0,0,1,3.112,0l3.942,5.1A1.566,1.566,0,0,1,71.233,32.708Zm16.349,41.86a1.568,1.568,0,0,1-1.417.882l-.9,0-.033,5.086a1,1,0,0,1-1,.993H79.559a1,1,0,0,1-1-1l0-5.078-.9,0a1.575,1.575,0,0,1-1.246-2.539l3.941-5.1a1.966,1.966,0,0,1,3.113,0l3.941,5.1A1.566,1.566,0,0,1,87.582,74.568Zm0-20.93a1.567,1.567,0,0,1-1.417.881h-.9L85.233,59.6a1,1,0,0,1-1,.994H79.559a1,1,0,0,1-1-1l0-5.078h-.9a1.575,1.575,0,0,1-1.246-2.539l3.941-5.1a1.968,1.968,0,0,1,3.113,0l3.941,5.1A1.568,1.568,0,0,1,87.582,53.638Zm0-20.93a1.569,1.569,0,0,1-1.417.881h-.9l-.033,5.085a1,1,0,0,1-1,.994H79.559a1,1,0,0,1-1-1l0-5.078h-.9a1.575,1.575,0,0,1-1.246-2.539l3.941-5.1a1.968,1.968,0,0,1,3.113,0l3.941,5.1A1.568,1.568,0,0,1,87.582,32.708Z"/></svg>