<svg id="Solid" xmlns="http://www.w3.org/2000/svg" viewBox="0 0 128 128"><title>apartment, hotel, residence, building, construction, institution, city</title><path d="M124.917,124.611H122.01V94.821H5.99v29.79H3.083a1.25,1.25,0,0,0,0,2.5H124.917a1.25,1.25,0,0,0,0-2.5Zm-16.4-23.045a4.578,4.578,0,0,1,3.617,4.475v6.33h-3.617Zm3.617,13.3v9.74h-3.617v-9.74Zm-9.74-8.83a4.579,4.579,0,0,1,3.623-4.477v10.807H102.39Zm0,8.83h3.619v9.74H102.39v-9.74ZM88.067,101.644a4.579,4.579,0,0,1,3.623,4.477v6.329H88.067Zm3.62,13.306h0v9.662H88.067V114.95Zm-9.737-8.829a4.579,4.579,0,0,1,3.617-4.475v10.8H81.95Zm3.617,8.829v9.661H81.95V114.95ZM55.94,106.821a8.06,8.06,0,1,1,16.12,0v11.924H55.94Zm-1.15,14.43H73.22a2.3,2.3,0,0,1,2.3,2.31,2.27,2.27,0,0,1-.265,1.05h-22.5a2.27,2.27,0,0,1-.265-1.05A2.3,2.3,0,0,1,54.79,121.251ZM42.433,101.646a4.579,4.579,0,0,1,3.617,4.475v6.329H42.433Zm3.617,13.3v9.661H42.433V114.95Zm-9.74-8.829a4.579,4.579,0,0,1,3.623-4.477V112.45H36.31Zm0,8.829h3.62v9.661H36.31v-9.662ZM21.987,101.564a4.579,4.579,0,0,1,3.623,4.477v6.331H21.987Zm3.619,13.307h0v9.74H21.987v-9.74Zm-9.736-8.83a4.578,4.578,0,0,1,3.617-4.475v10.8H15.87Zm0,8.83h3.617v9.74H15.87Z"/><path d="M4.28,51.861H5.99v.01H122.01v-.01h1.71c.88,0,1.4-1.2.93-2.12l-4.8-8.12a2.778,2.778,0,0,0-2.23-1.52H10.38a2.778,2.778,0,0,0-2.23,1.52l-4.8,8.12C2.88,50.661,3.4,51.861,4.28,51.861Z"/><path d="M5.25,92.321H122.77a2.99,2.99,0,0,0,0-5.98h-.76V54.371H5.99v31.97H5.25a2.99,2.99,0,1,0,0,5.98Zm63.63-12.04H65.256V70.127H68.88Zm39.212-17.49h2.618a1,1,0,0,1,1,1v3.836h-3.618Zm0,7.336h3.618V80.281h-3.618Zm-6.122-6.336a1,1,0,0,1,1-1h2.622v4.836H101.97Zm0,6.336h3.622V80.281H101.97Zm-15.3-7.336H89.29a.99.99,0,0,1,1,1v3.836H86.674Zm0,7.336H90.29V80.281H86.674ZM80.55,63.791a1,1,0,0,1,1-1h2.624v4.836H80.55Zm0,6.335h3.624V80.281H80.55ZM68.88,63.791v3.837H65.256V62.791H67.88A1,1,0,0,1,68.88,63.791Zm-4.84-7.68a1.8,1.8,0,1,1-1.8,1.8A1.8,1.8,0,0,1,64.04,56.111Zm-4.9,7.68a.99.99,0,0,1,1-1h2.616v4.836H59.14Zm0,6.336h3.616V80.281H59.14Zm-15.3-7.336H46.46a1,1,0,0,1,1,1v3.837H43.838Zm0,7.336H47.46V80.281H43.838ZM37.72,63.791a1,1,0,0,1,1-1h2.618v4.836H37.72Zm0,6.336h3.618V80.281H37.72Zm-15.3-7.336H25.04a1,1,0,0,1,1,1v3.836H22.421Zm0,7.336H26.04V80.281H22.421ZM16.3,63.791a1,1,0,0,1,1-1h2.621v4.836H16.3Zm0,6.336h3.621V80.281H16.3Z"/></svg>