<svg id="Solid" xmlns="http://www.w3.org/2000/svg" viewBox="0 0 128 128"><title>avatar-01_18</title><rect x="45.41" y="48.659" width="4.495" height="5.346" rx="2.093" ry="2.093" transform="translate(95.315 102.663) rotate(180)"/><rect x="71.019" y="48.659" width="4.495" height="5.346" rx="2.093" ry="2.093"/><path d="M60.419,61.463c.028,0,2.84-.072,2.84-1.67a1,1,0,0,0-1.851-.527,2.581,2.581,0,0,1-1.978,0,1,1,0,0,0-1.851.527C57.579,61.391,60.391,61.463,60.419,61.463Z"/><path d="M63.956,66.431c-.244.307-1.386.762-3.537.762s-3.284-.455-3.527-.762a1,1,0,1,0-1.566,1.244c1.049,1.321,3.641,1.518,5.093,1.518s4.054-.2,5.1-1.518a1,1,0,0,0-1.566-1.244Z"/><path d="M99.168,94.864a17.866,17.866,0,0,1,2.192-9.543,21.408,21.408,0,0,0,2.549-10.079c.047-4.965-1.515-8.219-3.168-11.663C98.8,59.54,96.8,55.364,97.277,47.745c.443-7.062-3.8-23-12.628-33.341-5.2-6.087-15.3-12.026-24.537-11.6A15.67,15.67,0,0,0,47.837,9.2c-22.251,3.471-20.7,40.018-20.432,44.433a10.949,10.949,0,0,0-.055,5.456,41.783,41.783,0,0,1-3.358,12.3c-1.536,3.878-2.987,7.542-2.853,12.085C21.313,89.2,23.969,93,26.313,96.34a18.842,18.842,0,0,1,3.209,5.869,37.662,37.662,0,0,0-7.15,8.123A6.128,6.128,0,0,0,21.28,115.2c.589,2.276,2.84,3.783,4.967,4.958a37.51,37.51,0,0,0,6.066,2.533c5.627,1.875,15.143,4.111,28.526,4.111a98.366,98.366,0,0,0,22.794-2.5,7.763,7.763,0,0,0,4.888,1.615,12.658,12.658,0,0,0,5.237-1.258c4.682-2.15,9.342-7.148,9.19-12.537A34.765,34.765,0,0,0,100.479,100,16.84,16.84,0,0,1,99.168,94.864ZM35.306,51.13c.089,1.287.185,2.5.29,3.655a6.455,6.455,0,0,0-3.508-.117,1,1,0,0,0,.522,1.93c.024-.006,2.329-.6,3.258.853.294,2.47.637,4.613,1.037,6.525a6.046,6.046,0,0,1-3.61-.523,6.787,6.787,0,0,1-3.8-3.941c-.063-.214-.117-.429-.161-.643l-.006-.012a.226.226,0,0,0,0-.026,8.8,8.8,0,0,1,.029-4.8,3.629,3.629,0,0,1,1.7-2.252A8.191,8.191,0,0,1,35.306,51.13ZM55.07,84.592a21.322,21.322,0,0,0,5.385.981,21.1,21.1,0,0,0,6.2-1.412c.671,5.923,3.635,7.872,6.723,9.228a20.318,20.318,0,0,0,2.31,3.834c-1.665,5.7-10.3,7.25-15.256,7.25-3.537,0-10.009-1.235-13.345-4.64a7.47,7.47,0,0,1-2.207-4.885c.383-.129.767-.261,1.147-.382C50.087,93.267,54.275,91.916,55.07,84.592Zm19.653-7.575-.595,1.234a40.469,40.469,0,0,1-6.962,3.575,21.528,21.528,0,0,1-6.709,1.748,20.8,20.8,0,0,1-5.949-1.255,27.254,27.254,0,0,1-7.429-3.909c-4.139-3.183-6.542-7.363-8.035-13.979a70.8,70.8,0,0,1-1.221-7.458c-.225-2.043-.413-4.256-.574-6.715-.177-11.357,4.5-20.722,8.927-24.617a7.165,7.165,0,0,1,4.418-2.11,3.2,3.2,0,0,1,.463.032,1.009,1.009,0,0,0,.4-.024c12.55-3.372,19.681,7.283,25.518,19.3l.93,1.95,0,.005C84.13,57.605,78.693,68.826,74.723,77.017ZM23.216,114.7a4.291,4.291,0,0,1,.85-3.307,35.995,35.995,0,0,1,7.211-8.07c1.216-1.035,2.556-2.057,3.984-3.057a158.6,158.6,0,0,0-3.5,20.117,32.552,32.552,0,0,1-4.554-1.976C24.729,117.035,23.533,115.927,23.216,114.7Zm10.49,6.339a148.142,148.142,0,0,1,4.087-22.458c1.31-.828,2.7-1.648,4.166-2.436.308-.164.637-.32.983-.472a9.392,9.392,0,0,0,2.714,5.559c4.061,4.145,11.439,5.24,14.773,5.24,1.454,0,13.459-.228,16.746-7.471a23.014,23.014,0,0,0,1.878,1.845c4.387,3.817,3.592,9.065,2.891,13.7-.459,3.026-.895,5.916.214,8.049A97.357,97.357,0,0,1,60.839,124.8,89.686,89.686,0,0,1,33.706,121.04Z"/><path d="M50.478,49.881A6.846,6.846,0,0,0,48.7,49.14a12.458,12.458,0,0,0-2.191-.4,7.9,7.9,0,0,0-2.162.064,4.589,4.589,0,0,0-1.928,1.061.346.346,0,0,1-.523-.426l.014-.027a6.411,6.411,0,0,1,.692-1.142,3.58,3.58,0,0,1,1.182-.935,6.762,6.762,0,0,1,2.759-.614,9,9,0,0,1,2.745.291,5.289,5.289,0,0,1,2.637,1.49.992.992,0,0,1-1.3,1.486Z"/><path d="M52.587,44.959a37.691,37.691,0,0,0-6.651-.875,18.759,18.759,0,0,0-3.283.168,11.459,11.459,0,0,0-1.513.339,15.021,15.021,0,0,1-1.672.466.309.309,0,0,1-.357-.251.314.314,0,0,1,.058-.24,5.488,5.488,0,0,1,1.344-1.275,5.667,5.667,0,0,1,1.79-.733,15.727,15.727,0,0,1,3.641-.462,25.025,25.025,0,0,1,7.13.923,1,1,0,0,1-.474,1.943Z"/><path d="M69,48.5a5.282,5.282,0,0,1,2.636-1.49,9,9,0,0,1,2.745-.291,6.758,6.758,0,0,1,2.759.614,3.57,3.57,0,0,1,1.182.935,6.361,6.361,0,0,1,.693,1.142l.013.027a.346.346,0,0,1-.522.426A4.592,4.592,0,0,0,76.577,48.8a7.9,7.9,0,0,0-2.162-.064,12.492,12.492,0,0,0-2.191.4,6.822,6.822,0,0,0-1.778.741l-.149.1A.992.992,0,0,1,69,48.5Z"/><path d="M78.809,44.353c-.17-.04-.35-.07-.54-.1a18.832,18.832,0,0,0-3.28-.17,37.406,37.406,0,0,0-6.65.88h-.01a1.01,1.01,0,0,1-1.19-.77,1,1,0,0,1,.71-1.17,25.206,25.206,0,0,1,7.13-.93,15.043,15.043,0,0,1,2.9.31Z"/><circle cx="60.459" cy="112.153" r="2.44"/></svg>