<svg id="Solid" xmlns="http://www.w3.org/2000/svg" viewBox="0 0 128 128"><title>avatar-02_22</title><path d="M71.339,48.535a3.268,3.268,0,0,1,1.1-1.384,5.081,5.081,0,0,1,1.353-.723,8.326,8.326,0,0,1,2.785-.442,8.691,8.691,0,0,1,2.736.492,3.326,3.326,0,0,1,2.215,1.7.655.655,0,0,1-.651.89l-.1-.007a9.7,9.7,0,0,1-2.1-.617,7.833,7.833,0,0,0-2.112-.274,6.425,6.425,0,0,0-2.065.3,2.641,2.641,0,0,0-1.336.835l-.109.16a.984.984,0,0,1-1.72-.937Z"/><rect x="73.526" y="47.915" width="4.745" height="6.085" rx="2.372" ry="2.372"/><path d="M54.846,49.312a2.641,2.641,0,0,0-1.336-.835,6.425,6.425,0,0,0-2.065-.3,7.833,7.833,0,0,0-2.112.274,9.7,9.7,0,0,1-2.1.617l-.1.007a.654.654,0,0,1-.7-.61.672.672,0,0,1,.042-.28,3.326,3.326,0,0,1,2.215-1.7,8.691,8.691,0,0,1,2.736-.492,8.322,8.322,0,0,1,2.785.442,5.1,5.1,0,0,1,1.353.723,3.276,3.276,0,0,1,1.1,1.384.985.985,0,0,1-1.72.938Z"/><rect x="49.743" y="47.915" width="4.745" height="6.085" rx="2.372" ry="2.372" transform="translate(104.231 101.915) rotate(180)"/><path d="M70,46.05a1,1,0,0,1-.4-1.916,18.153,18.153,0,0,1,12.53-.521,1,1,0,1,1-.578,1.914,16.163,16.163,0,0,0-11.15.438A.979.979,0,0,1,70,46.05Z"/><path d="M44.73,46.05a1,1,0,0,1-.358-1.934,18.613,18.613,0,0,1,14.041.019,1,1,0,1,1-.807,1.83,16.613,16.613,0,0,0-12.517.018A.984.984,0,0,1,44.73,46.05Z"/><path d="M64.01,60.85c.029,0,2.96-.073,2.96-1.69a1,1,0,0,0-1.849-.529,3.832,3.832,0,0,1-1.111.219,3.93,3.93,0,0,1-1.131-.219,1,1,0,0,0-1.849.529C61.03,60.8,63.979,60.85,64.01,60.85Z"/><path d="M59.809,68.362a12.051,12.051,0,0,0,8.413,0,1,1,0,0,0-.864-1.8,10.224,10.224,0,0,1-6.686,0,1,1,0,1,0-.863,1.8Z"/><path d="M101.482,109.962A36.53,36.53,0,0,0,89.89,98.484l-.008,0h0c-1.636-1.076-3.444-2.14-5.37-3.161-.312-.167-.623-.322-.945-.478-.516-.25-1.045-.5-1.579-.743-.32-.148-.644-.3-.967-.454a2.179,2.179,0,0,0-.228-.578,8.729,8.729,0,0,0-3.427-2.523l-.156-.08a3.174,3.174,0,0,0-1.809-.394A10.213,10.213,0,0,1,73.643,87.8a12.963,12.963,0,0,0,6.378,3.095,12.429,12.429,0,0,0,2.261.217c2.041,0,3.708-.577,4.51-1.627,1.119-1.453.53-4.576-.49-6.863a10.109,10.109,0,0,0-5.654-5.69c3.061-3.053,5.15-7.244,6.488-13.319a6.828,6.828,0,0,0,.986.074c3.612,0,7.047-2.857,8.34-6.139,1.588-4.071.934-7.594-1.777-9.774,1.83-13.227-1.628-25.046-9.543-32.541C80.983,6.453,73.874,2,64,2S47.017,6.453,42.858,15.228c-7.915,7.495-11.373,19.314-9.543,32.541-2.711,2.181-3.365,5.7-1.776,9.778,1.286,3.264,4.712,6.1,8.323,6.1a6.836,6.836,0,0,0,1-.075c1.336,6.083,3.424,10.282,6.487,13.343A10.134,10.134,0,0,0,41.706,82.6c-1.026,2.293-1.62,5.426-.5,6.888.8,1.048,2.467,1.622,4.5,1.622a12.408,12.408,0,0,0,2.275-.219,12.967,12.967,0,0,0,6.382-3.107,10.047,10.047,0,0,1-1.762,2.278,3.238,3.238,0,0,0-1.744.4l-.15.077a8.73,8.73,0,0,0-3.423,2.511,1.984,1.984,0,0,0-.228.554c-.371.175-.742.351-1.11.522-.511.239-1.016.475-1.514.714-.324.156-.635.311-.944.476-1.929,1.023-3.736,2.087-5.374,3.163l0,0-.007,0a36.533,36.533,0,0,0-11.591,11.476,5.852,5.852,0,0,0-1.078,4.692c.57,2.209,2.778,3.664,4.864,4.8a39.015,39.015,0,0,0,6.09,2.54C41.883,123.819,51.128,126,64,126s22.117-2.181,27.607-4.012a39.035,39.035,0,0,0,6.09-2.539c2.085-1.132,4.293-2.587,4.863-4.8A5.849,5.849,0,0,0,101.482,109.962ZM76.447,92.319a8.121,8.121,0,0,1,2.619,1.754,1.561,1.561,0,0,1,.069.357c.236,2.363-.939,8.789-2.8,10.37-.37.311-.586.252-.69.225-2.494-.672-4.786-5.146-5.787-7.592a21.845,21.845,0,0,0,4.943-4.7l.292-.346a.972.972,0,0,1,.388-.3,1,1,0,0,1,.813.146ZM64.032,105.771a11.381,11.381,0,0,1-1.373-5.634,4.665,4.665,0,0,0-2.8-4.092c-1.887-.835-3.8-3.1-5.06-4.6l-.306-.362c-.015-.017-.033-.027-.048-.045a13.213,13.213,0,0,0,3.3-7.591A17.613,17.613,0,0,0,64,85.12a17.618,17.618,0,0,0,6.249-1.669,13.254,13.254,0,0,0,3.336,7.626l-.018.016-.3.354c-1.264,1.5-3.174,3.762-5.077,4.6a4.741,4.741,0,0,0-2.791,4.093A11.251,11.251,0,0,1,64.032,105.771ZM84.476,83.432c1.072,2.4,1.046,4.42.729,4.831-.511.67-2.451,1.1-4.819.661a10.613,10.613,0,0,1-8.03-6.45c.856-.425,1.707-.886,2.534-1.364A10.53,10.53,0,0,0,79.4,84.146a1,1,0,0,0,.584-1.913,8.54,8.54,0,0,1-3.361-2.176c.8-.51,1.555-1.028,2.24-1.542C82.138,78.974,83.872,82.078,84.476,83.432ZM94.6,56.813c-1.078,2.734-4.133,5.188-7.068,4.824.32-1.744.584-3.64.8-5.681a3.261,3.261,0,0,1,2.932-1.682,1,1,0,0,0,.215-1.988,5.191,5.191,0,0,0-2.866.657c.112-1.385.206-2.832.282-4.349a5.957,5.957,0,0,1,4.158.452C96.2,51.193,95.371,54.836,94.6,56.813ZM44.362,16.551C49.472,11.781,56.263,9.26,64,9.26s14.528,2.521,19.638,7.291c7.387,6.9,10.682,17.854,9.158,30.2a8.862,8.862,0,0,0-4-.174C86.694,31.268,76.626,20.67,64,20.67s-22.694,10.6-24.792,25.91a8.854,8.854,0,0,0-4,.175C33.68,34.4,36.975,23.449,44.362,16.551ZM33.4,56.817c-.772-1.981-1.6-5.624,1.544-7.772a5.963,5.963,0,0,1,4.156-.451c.076,1.507.17,2.944.281,4.32a5.185,5.185,0,0,0-2.873-.627,1,1,0,1,0,.242,1.985,3.2,3.2,0,0,1,2.907,1.617c.22,2.054.484,3.965.8,5.719C37.492,62,34.5,59.6,33.4,56.817ZM41.069,48A45.024,45.024,0,0,1,58.487,27.927c4.65,7.517,11.374,9.9,17.307,12,5.34,1.889,9.571,3.387,11.139,8.024-.766,16.261-3.371,24.391-9.263,28.962C73.262,80.218,66.873,83.12,64,83.12s-9.262-2.9-13.657-6.2C44.445,72.344,41.839,64.227,41.069,48Zm6.55,40.924c-2.366.444-4.312.015-4.825-.654-.316-.412-.342-2.443.737-4.854.608-1.358,2.36-4.482,5.6-4.907.686.515,1.446,1.035,2.246,1.547a8.7,8.7,0,0,1-3.359,2.176,1,1,0,1,0,.584,1.913,10.529,10.529,0,0,0,4.508-3.035c.827.478,1.677.938,2.534,1.364A10.62,10.62,0,0,1,47.619,88.925Zm4.009,3.391.152-.078a1.11,1.11,0,0,1,.806-.163,1.055,1.055,0,0,1,.392.312l.3.352a21.917,21.917,0,0,0,4.932,4.692c-1,2.446-3.291,6.922-5.776,7.593-.106.029-.327.088-.7-.234-1.86-1.6-3.039-8.109-2.783-10.406.019-.19.044-.277.04-.277A7.987,7.987,0,0,1,51.628,92.316ZM46.8,95.939l.149-.07c.178,3.185,1.3,8.564,3.481,10.438a2.668,2.668,0,0,0,2.526.649c3.455-.935,5.967-6.041,6.983-8.464a2.688,2.688,0,0,1,.727,1.732,13.891,13.891,0,0,0,2.514,8.074c.008.014.021.024.03.037a.822.822,0,0,0,.052.065.966.966,0,0,0,.223.206c.011.008.018.02.03.028a.154.154,0,0,0,.019.008.936.936,0,0,0,.166.072c.027.01.052.024.079.031a.963.963,0,0,0,.227.031c.009,0,.019,0,.028,0h0c.011,0,.021,0,.031,0a1.05,1.05,0,0,0,.224-.03c.027-.008.054-.023.081-.032a1.083,1.083,0,0,0,.164-.071l.018-.008c.011-.007.017-.019.029-.026a.993.993,0,0,0,.226-.209.689.689,0,0,0,.049-.061c.01-.014.023-.024.032-.039a13.768,13.768,0,0,0,2.514-8.077A2.7,2.7,0,0,1,68.13,98.5c1.017,2.425,3.53,7.523,6.988,8.457a2.666,2.666,0,0,0,2.506-.63c2.2-1.863,3.324-7.206,3.505-10.423l.017.008c.331.154.653.307.978.461-.064,6.268-1.057,9.06-1.723,10.92-.1.271-.187.526-.283.812C78.88,111.783,78.2,113.81,64,113.81s-14.88-2.027-16.132-5.747c-.082-.245-.173-.5-.269-.771-.667-1.86-1.659-4.652-1.723-10.92C46.182,96.228,46.485,96.084,46.8,95.939ZM27.377,114.153a4.014,4.014,0,0,1,.826-3.115,32.846,32.846,0,0,1,9-9.482,106.343,106.343,0,0,0-1.514,18.067,34.064,34.064,0,0,1-4.433-1.932C29.65,116.819,27.757,115.628,27.377,114.153Zm73.246,0c-.38,1.475-2.273,2.666-3.88,3.537a33.979,33.979,0,0,1-4.434,1.933A106.343,106.343,0,0,0,90.8,101.556a32.832,32.832,0,0,1,9,9.483A4.011,4.011,0,0,1,100.623,114.153Z"/></svg>