<svg id="Solid" xmlns="http://www.w3.org/2000/svg" viewBox="0 0 128 128"><title>avatar-01_23</title><path d="M73.013,50.746A5.735,5.735,0,0,1,75.7,48.4a8.029,8.029,0,0,1,3.383-.582,10.285,10.285,0,0,1,1.662.216,8.827,8.827,0,0,0,1.311.279c.79.09,1.523-.205,2.427-.2H84.7a.593.593,0,0,1,.493.916,3.546,3.546,0,0,1-3.243,1.349,8.82,8.82,0,0,1-1.63-.245,8.118,8.118,0,0,0-1.307-.13,6.006,6.006,0,0,0-2.473.4,4.226,4.226,0,0,0-1.852,1.416l-.023.03a.994.994,0,0,1-1.649-1.1Z"/><rect x="75.875" y="49.197" width="4.447" height="5.052" rx="2.223" ry="2.223"/><path d="M57.336,51.82A4.231,4.231,0,0,0,55.484,50.4a6.008,6.008,0,0,0-2.474-.4,8.1,8.1,0,0,0-1.306.13,8.832,8.832,0,0,1-1.631.245,3.547,3.547,0,0,1-3.243-1.349.593.593,0,0,1,.494-.916h.214c.905-.005,1.638.29,2.428.2a8.827,8.827,0,0,0,1.311-.279,10.259,10.259,0,0,1,1.661-.216,8.033,8.033,0,0,1,3.384.582,5.745,5.745,0,0,1,2.686,2.343.994.994,0,0,1-1.649,1.1Z"/><rect x="51.698" y="49.197" width="4.447" height="5.052" rx="2.223" ry="2.223" transform="translate(107.843 103.445) rotate(-180)"/><circle cx="84.66" cy="46.186" r="0.732"/><path d="M62.9,38.19a1,1,0,0,1-.215-1.977A3.963,3.963,0,0,0,64.9,33.85a3.274,3.274,0,0,0-.422-3.2c-2.166-2.985-2.745-6.368-1.512-8.826a5.368,5.368,0,0,1,4.929-2.931l.092,1v1H67.9a3.38,3.38,0,0,0-3.153,1.827c-.9,1.788-.383,4.377,1.343,6.756a5.249,5.249,0,0,1,.673,5.085,5.847,5.847,0,0,1-3.646,3.608A1.011,1.011,0,0,1,62.9,38.19Z"/><path d="M72.665,45.77a1,1,0,0,1-.524-1.853c3.091-1.9,9.525-3.168,12.875-1.914a1,1,0,1,1-.7,1.873C81.6,42.851,75.827,44,73.188,45.623A1.008,1.008,0,0,1,72.665,45.77Z"/><path d="M59.363,45.77a1,1,0,0,1-.522-.147C56.2,44,50.431,42.853,47.717,43.875a1,1,0,1,1-.7-1.871c3.345-1.262,9.78.015,12.876,1.913a1,1,0,0,1-.525,1.853Z"/><path d="M66.024,62.53c.037,0,3.63-.114,3.63-1.941a1,1,0,0,0-1.9-.43,5.093,5.093,0,0,1-1.728.371,5.242,5.242,0,0,1-1.758-.373,1,1,0,0,0-1.9.432C62.364,62.416,65.988,62.53,66.024,62.53Z"/><path d="M72.194,69.05a.743.743,0,0,0-.13-.21.47.47,0,0,0-.06-.09c-.01-.01-.02-.01-.02-.02a1.023,1.023,0,0,0-.22-.14c-.04-.02-.07-.05-.11-.07a1.7,1.7,0,0,0-.22-.04.985.985,0,0,0-.17-.02c-.02,0-.03-.01-.05-.01a1.539,1.539,0,0,1-1.35-.5,4.351,4.351,0,0,0-1.48-.88,3.011,3.011,0,0,0-2.37.22,3.019,3.019,0,0,0-2.37-.22,4.309,4.309,0,0,0-1.49.88,1.55,1.55,0,0,1-1.35.5c-.01,0-.03.01-.04.01a1.492,1.492,0,0,0-.21.02,1.163,1.163,0,0,0-.18.04,1.093,1.093,0,0,0-.15.08,1.876,1.876,0,0,0-.18.12l-.03.03a.413.413,0,0,0-.07.11.707.707,0,0,0-.12.18,1.389,1.389,0,0,0-.06.19c-.01.05-.03.09-.04.14,0,.01.01.03.01.04a1.492,1.492,0,0,0,.02.21,1.163,1.163,0,0,0,.04.18,1.191,1.191,0,0,0,.09.15.619.619,0,0,0,.11.17.138.138,0,0,0,.03.04,8.824,8.824,0,0,0,11.97,0,.138.138,0,0,0,.03-.04.619.619,0,0,0,.11-.17,1.191,1.191,0,0,0,.09-.15,1.163,1.163,0,0,0,.04-.18,1.5,1.5,0,0,0,.02-.2c0-.02.01-.03.01-.05a.88.88,0,0,0-.05-.15A.48.48,0,0,0,72.194,69.05Zm-6.18,1.45a6.7,6.7,0,0,1-2.97-.71c.13-.1.26-.2.38-.29a2.47,2.47,0,0,1,.85-.53,1,1,0,0,1,1.03.26h.01a1.526,1.526,0,0,0,.16.11c.06.03.11.08.17.11a.858.858,0,0,0,.17.03.712.712,0,0,0,.21.04.8.8,0,0,0,.15-.03.785.785,0,0,0,.22-.05,1.4,1.4,0,0,0,.16-.1,1.629,1.629,0,0,0,.17-.11v-.01a1.022,1.022,0,0,1,.72-.3,1.127,1.127,0,0,1,.32.05,2.456,2.456,0,0,1,.83.52c.12.1.25.2.38.3A6.655,6.655,0,0,1,66.014,70.5Z"/><path d="M67.185,73.43H64.834a1,1,0,0,0,0,2h2.351a1,1,0,0,0,0-2Z"/><path d="M109.364,108.13a39.694,39.694,0,0,0-3.58-4.7c.91-2.11,1.49-5.91-1.6-8.61-.95-.82-2.3-3.23-1.51-4.91,1.46-3.12,2.72-6.98-.48-9.26-2.13-1.51-1.66-3.13-1.18-3.97l.14-.24a8.829,8.829,0,0,0,1.29-3.79c.34-3.84-1.73-7.33-5.59-9.59a9.506,9.506,0,0,0,2.69-4.07c1.41-4.33.16-8.13-3.09-9.44a4.155,4.155,0,0,0-.53-.17,28.377,28.377,0,0,0,.856-10.736A6.981,6.981,0,0,0,97.8,36.856a1,1,0,0,0-.6-1.279.983.983,0,0,0-.876.119,33.328,33.328,0,0,0-1.6-5.364,5.657,5.657,0,0,0,.612-2.43,1,1,0,0,0-1-.979H94.31a.99.99,0,0,0-.854.546,36.567,36.567,0,0,0-3.6-5.873,4.031,4.031,0,0,0,.423-1.924.989.989,0,0,0-1.971-.012,22.192,22.192,0,0,0-5.315-4.61,11.125,11.125,0,0,0-4.74-7.45,11.731,11.731,0,0,0-10-2c-3.43-2.98-9.12-3.9-14.4-2.27-4.88,1.5-8.27,4.75-9.41,8.98-4.03.28-8.26,3.09-9.43,8.99a6.927,6.927,0,0,0-4.79,7.13,11.758,11.758,0,0,0-6.03,6.38,11.654,11.654,0,0,0-.23,8.86,7.321,7.321,0,0,0-3.23,3.09,8.262,8.262,0,0,0-.92,5.76c-2.56,1.71-3.43,4.43-2.37,7.59a.818.818,0,0,1-.34.92,6.474,6.474,0,0,0-2.94,5.28,9.563,9.563,0,0,0,1.4,4.76c.63,1.18.7,1.41.26,1.96-1.95,2.43-3.17,7.32.22,10.55,1.75,1.67,2.08,2.8,1.3,4.5-.07.17-.17.36-.28.57-.89,1.79-2.74,5.52-.41,8.68a6.522,6.522,0,0,0,3.08,2.26c.87.37,1.31.56,1.6,1.42a4.159,4.159,0,0,1-.01,2.32,5.4,5.4,0,0,0,1.15,5.11,6.614,6.614,0,0,0-1.03,5.08c.65,2.53,3.17,4.21,5.55,5.52a36.591,36.591,0,0,0,4.23,1.92c5.37,2.08,17.04,5.57,34.78,5.57h.01c17.73,0,29.39-3.49,34.77-5.57a38.181,38.181,0,0,0,4.24-1.92c2.38-1.31,4.9-2.99,5.55-5.52A6.78,6.78,0,0,0,109.364,108.13ZM30.724,118.6a29.728,29.728,0,0,1-2.77-1.32c-2.84-1.56-4.21-2.84-4.57-4.26a4.924,4.924,0,0,1,.97-3.84l.19-.29c1.39-2.14,6.77-9.57,17.62-15.69.12-.07.26-.15.39-.22C36.744,101.13,31.6,113.11,30.724,118.6Zm36.1,3.88a33.809,33.809,0,0,1,.83-9.62,1,1,0,0,0-1.92-.56,34.888,34.888,0,0,0-.93,9.66c-5.54-6.94-15.03-11.14-17.63-12.21.26-8.4,5.56-20.92,6.22-22.46a10.488,10.488,0,0,0,3.07-3.7,22.665,22.665,0,0,0,9.64,2.57,22.509,22.509,0,0,0,9.48-2.5,10.311,10.311,0,0,0,3.06,3.68c.74,1.73,5.94,14.09,6.2,22.41C82.174,110.84,72.3,115.24,66.824,122.48Zm9.03-41.2a.865.865,0,0,0-.23.06.835.835,0,0,0-.3.22,21.1,21.1,0,0,1-9.22,2.6,21.535,21.535,0,0,1-9.65-2.81,28.965,28.965,0,0,1-10.53-9.42c-.01-.02-.01-.03-.02-.05-.17-.25-.33-.51-.49-.79a7.906,7.906,0,0,1-.55-6.12,7.8,7.8,0,0,0-2.4-7.75,6.611,6.611,0,0,0,.82-5.54,6.662,6.662,0,0,0,1.87-4.31,6.246,6.246,0,0,0-.85-4.09,10.192,10.192,0,0,0,2.43-8.5c1.92-.99,3.94-3.02,4.36-7.2a6.413,6.413,0,0,0,5.11-3.69l.02-.02c1.93-2.12,5.1-2.79,7.33-2.98h.01a17.377,17.377,0,0,1,2.54-.05c.02,0,.03-.01.04-.01s.03.01.04.01c.57,0,1.12.02,1.67.05h.05c21.78,1.21,21.83,25.48,21.82,26.51a.375.375,0,0,0,.01.11c.09.9.14,1.97.15,3.19.01,1.85-.07,4.03-.23,6.29,0,.02-.01.03-.01.04-.2,3-.48,5.49-.62,6.7-.2,1.54-.36,2.51-.43,2.86C87.074,73.19,81.064,78.47,75.854,81.28Zm13.18-8.15,2.14-8.02.53-1.97a3.915,3.915,0,0,1-.59-.05c.14-1.31.34-3.28.5-5.57a4.024,4.024,0,0,1,3.23-1.15,1,1,0,1,0,.26-1.98,6.652,6.652,0,0,0-3.32.53c.06-1.25.09-2.44.1-3.55a9.641,9.641,0,0,1,2.69-.17,3.685,3.685,0,0,1,1.11.2c2.58,1.04,2.84,4.25,1.96,6.97a7.526,7.526,0,0,1-3.11,3.95l2.22,7.03,1.12,3.56a.971.971,0,0,1,0,.63l-3.73,10.92a.992.992,0,0,1-.94.67h-.02a.975.975,0,0,1-.94-.71l-3.2-10.75A1.1,1.1,0,0,1,89.034,73.13Zm19.6,39.89c-.36,1.42-1.73,2.7-4.57,4.26a29.029,29.029,0,0,1-2.78,1.32c-.83-5.28-5.55-17.07-11.54-25.47a56.251,56.251,0,0,1,14.11,11.13,36.181,36.181,0,0,1,3.81,4.93A4.894,4.894,0,0,1,108.634,113.02Z"/><polygon points="95.874 73.2 93.904 66.95 93.284 64.99 92.974 66.16 91.044 73.37 93.264 80.85 95.874 73.2"/></svg>