<svg id="Solid" xmlns="http://www.w3.org/2000/svg" viewBox="0 0 128 128"><title>avatar-01_17</title><rect x="48.463" y="47.29" width="4.912" height="6.416" rx="2.456" ry="2.456" transform="translate(101.838 100.997) rotate(-180)"/><path d="M55.432,42.2l-2.941-.367a22.767,22.767,0,0,0-3.01-.113,15.545,15.545,0,0,0-2.94.335,6.077,6.077,0,0,0-2.5,1.067l-.033.027a.753.753,0,0,1-1-1.127,7.292,7.292,0,0,1,3.1-1.652,16.161,16.161,0,0,1,3.281-.538,24.7,24.7,0,0,1,3.276.032,9.625,9.625,0,0,1,3.251.7.861.861,0,0,1-.452,1.642Z"/><rect x="72.566" y="47.29" width="4.912" height="6.416" rx="2.456" ry="2.456"/><path d="M70.023,40.565a9.625,9.625,0,0,1,3.251-.7,24.7,24.7,0,0,1,3.276-.032,16.161,16.161,0,0,1,3.281.538,7.292,7.292,0,0,1,3.1,1.652.753.753,0,0,1-1,1.129l-.035-.029a6.071,6.071,0,0,0-2.5-1.067,15.545,15.545,0,0,0-2.94-.335,22.767,22.767,0,0,0-3.01.113l-2.94.367-.034,0a.86.86,0,0,1-.453-1.641Z"/><path d="M63.093,68.24c-.233,0-.454,0-.661-.008-4.5-.11-4.976-1.222-5.131-1.587a1,1,0,0,1,1.766-.924c1.059.69,6.844.687,7.842-.008a1,1,0,0,1,1.741.977C68.015,68,65.136,68.24,63.093,68.24Zm-3.954-2.381v0Zm7.712-.044v0Z"/><path d="M45.94,49.053a1,1,0,0,1-.72-1.694,7.422,7.422,0,0,1,5.108-2,6.859,6.859,0,0,1,4.9,1.846,1,1,0,1,1-1.4,1.428,4.768,4.768,0,0,0-3.384-1.275h-.089a5.448,5.448,0,0,0-3.7,1.383A1,1,0,0,1,45.94,49.053Z"/><path d="M80,49.053a1,1,0,0,1-.721-.307,5.448,5.448,0,0,0-3.7-1.383H75.5a4.766,4.766,0,0,0-3.384,1.275,1,1,0,0,1-1.4-1.428,6.842,6.842,0,0,1,4.9-1.846,7.426,7.426,0,0,1,5.109,2A1,1,0,0,1,80,49.053Z"/><path d="M62.98,60.863c-.026,0-2.609-.043-2.609-1.56a1,1,0,0,1,1.812-.584,3.032,3.032,0,0,0,.8.144,2.952,2.952,0,0,0,.778-.144,1,1,0,0,1,1.812.584C65.57,60.82,63.007,60.863,62.98,60.863Z"/><path d="M100.511,109.953c-1.06-1.68-6.97-10.38-19.78-16.36l-.91-.42c-4.15-1.89-8.07-3.7-8.17-10.97,6.56-2.99,12-9.43,14.49-17.13a7.3,7.3,0,0,0,1.55.18,8.769,8.769,0,0,0,3.87-.93,9.363,9.363,0,0,0,4.81-5.4c1.35-4.15.49-7.86-2.18-9.69,1.22-7.84.35-21.33-3.79-27.79a2.7,2.7,0,0,0,.69-1.02,3.227,3.227,0,0,0-.28-2.55c-3.73-7.57-14.09-13.88-21.56-15.37-10.07-1.99-20.68,2.65-24.85,10.82-9.32,3.86-14.52,18.31-13.04,36.24-2.32,1.93-3.05,5.5-1.79,9.36a9.311,9.311,0,0,0,4.81,5.39,8.794,8.794,0,0,0,3.89.94,7.389,7.389,0,0,0,1.56-.18c2.5,7.69,7.95,14.14,14.5,17.13-.22,7.25-4.46,9.23-8.58,11.14l-.54.25c-12.81,5.98-18.72,14.68-19.78,16.36a6.013,6.013,0,0,0-1.06,4.77c.57,2.23,2.77,3.7,4.85,4.84,1.19.66,12.05,6.31,32.73,6.48V92.223h2v33.82c20.71-.17,31.58-5.82,32.77-6.48,2.08-1.14,4.28-2.61,4.85-4.84A6.013,6.013,0,0,0,100.511,109.953Zm-65.25-47.43a7.474,7.474,0,0,1-3.79-4.22c-1.05-3.25-.47-6.18,1.49-7.47a3.592,3.592,0,0,1,.76-.4,8.59,8.59,0,0,1,4.02-.2c.01,1.25.06,2.83.2,4.6a7.373,7.373,0,0,0-3.44-.88,1,1,0,0,0-.97,1.02.99.99,0,0,0,1.02.98,5.131,5.131,0,0,1,3.69,1.68,50.8,50.8,0,0,0,.96,5.25c.02.09.05.18.07.28A6.62,6.62,0,0,1,35.261,62.523Zm51.51.35a50.029,50.029,0,0,0,.97-5.25,4.932,4.932,0,0,1,3.64-1.67,1.009,1.009,0,0,0,1.03-.97,1,1,0,0,0-.96-1.03,7.166,7.166,0,0,0-3.41.87c.13-1.69.19-3.23.2-4.59a8.485,8.485,0,0,1,3.99.2c.14.06.28.13.4.19,2.25,1.19,2.97,4.2,1.84,7.68a7.413,7.413,0,0,1-3.79,4.22,6.517,6.517,0,0,1-3.98.64C86.721,63.063,86.751,62.973,86.771,62.873Zm-23.82,27.42a23.2,23.2,0,0,1-4.33-.43l.42-2.69a20,20,0,0,0,7.86,0l.41,2.67A22.678,22.678,0,0,1,62.951,90.293Zm.02-4.73a19.289,19.289,0,0,1-6.81-1.28c.06-.42.11-.85.14-1.3a19.871,19.871,0,0,0,13.38,0c.02.45.06.88.11,1.29A19.065,19.065,0,0,1,62.971,85.563Zm.03-3.42a18.915,18.915,0,0,1-7.25-1.49c-6.56-2.74-12.04-9.28-14.29-17.06-.12-.4-.22-.79-.32-1.18a52.059,52.059,0,0,1-.97-5.34,63.093,63.093,0,0,1-.44-7.55c-.01-.72-.01-1.41-.01-2.09v-.67c.05-9.64,3.75-23.46,11.81-24.02a1.108,1.108,0,0,0,.6-.25,15.286,15.286,0,0,1,10.43-4.2c3.68,0,7.67,1.3,11.94,3.9,9.57,5.85,11.73,19.71,11.75,24.57.01.89.01,1.82,0,2.77a54.426,54.426,0,0,1-1.42,12.87c-.1.4-.2.79-.32,1.19-2.26,7.84-7.77,14.39-14.38,17.11A18.911,18.911,0,0,1,63,82.143Z"/></svg>