<svg id="Solid" xmlns="http://www.w3.org/2000/svg" viewBox="0 0 128 128"><title>avatar-03_24</title><rect x="49.405" y="45.939" width="4.594" height="6.062" rx="2.297" ry="2.297" transform="translate(103.404 97.941) rotate(180)"/><path d="M47.053,43.769c1.5-.629,3.974-.8,8.854-.348A1.758,1.758,0,0,0,56.56,40.1c-1.041-.542-5.075-1.338-9.325-.106-2.125.615-2.7,1.888-2.527,2.6A1.6,1.6,0,0,0,47.053,43.769Z"/><rect x="73.979" y="45.939" width="4.594" height="6.062" rx="2.297" ry="2.297"/><path d="M80.924,43.769c-1.494-.629-3.974-.8-8.853-.348a1.758,1.758,0,0,1-.653-3.324c1.041-.542,5.075-1.338,9.325-.106,2.125.615,2.7,1.888,2.526,2.6A1.6,1.6,0,0,1,80.924,43.769Z"/><path d="M85.538,48.688a2.984,2.984,0,0,0-2.453-1.31l-.137-.005c-4.234-.142-10.036-.336-13.934-.025a2.331,2.331,0,0,0-1.728.9,2.938,2.938,0,0,0-.546,1.51,12.464,12.464,0,0,0-5.5,0,2.941,2.941,0,0,0-.546-1.507,2.328,2.328,0,0,0-1.726-.9c-3.9-.311-9.7-.117-13.936.025l-.137.005a2.984,2.984,0,0,0-2.453,1.31,3.268,3.268,0,0,0-.4,2.814l.126.346A9.318,9.318,0,0,0,44,55.328a3.274,3.274,0,0,0,1.917.755c1.239.083,2.892.124,4.6.124,2.311,0,4.72-.074,6.332-.215a3.843,3.843,0,0,0,2.557-1,7.39,7.39,0,0,0,1.606-3.114,10.444,10.444,0,0,1,5.948,0,7.383,7.383,0,0,0,1.605,3.111,3.84,3.84,0,0,0,2.556,1c1.613.141,4.022.215,6.333.215,1.707,0,3.36-.041,4.6-.124a3.256,3.256,0,0,0,1.918-.757,9.293,9.293,0,0,0,1.835-3.478l.126-.347A3.263,3.263,0,0,0,85.538,48.688ZM56.679,54a87.592,87.592,0,0,1-10.624.087,1.327,1.327,0,0,1-.7-.235,8.718,8.718,0,0,1-1.3-2.679l-.131-.363a1.291,1.291,0,0,1,.179-1.005,1,1,0,0,1,.861-.429l.137,0c4.187-.141,9.921-.333,13.709-.03.217.016.27.086.3.119a2.188,2.188,0,0,1,.093,1.434A6.011,6.011,0,0,1,58,53.576C57.827,53.744,57.54,53.926,56.679,54Zm27.379-3.191-.13.364a8.728,8.728,0,0,1-1.3,2.677,1.315,1.315,0,0,1-.7.237A88.026,88.026,0,0,1,71.3,54c-.86-.074-1.147-.256-1.315-.424a6.011,6.011,0,0,1-1.2-2.681,2.185,2.185,0,0,1,.093-1.433c.025-.033.078-.1.3-.12,1.474-.118,3.244-.161,5.1-.161,2.914,0,6.048.105,8.6.191l.137,0a1,1,0,0,1,.861.429A1.288,1.288,0,0,1,84.058,50.809Z"/><path d="M63.987,58.282c-.033,0-3.359-.079-3.359-1.83a1,1,0,0,1,1.884-.467,4.585,4.585,0,0,0,1.475.3,4.646,4.646,0,0,0,1.466-.3,1,1,0,0,1,1.885.467C67.338,58.2,64.02,58.282,63.987,58.282Z"/><path d="M64.092,65.9c-.253,0-.495,0-.718-.01-4.628-.117-5.1-1.252-5.259-1.625a1,1,0,0,1,1.776-.909c1.1.737,7.15.732,8.191-.01a1,1,0,0,1,1.748.964C69.188,65.653,66.217,65.9,64.092,65.9Zm3.934-2.454h0Z"/><path d="M47.2,47.632a1,1,0,0,1-.685-1.73,8.1,8.1,0,0,1,9.027-.691,1,1,0,0,1-1.084,1.682,6.186,6.186,0,0,0-6.573.468A1,1,0,0,1,47.2,47.632Z"/><path d="M55.148,66.771a.973.973,0,0,1-.26-.034,1,1,0,0,1-.707-1.224,10.088,10.088,0,0,1,3.633-5.071,1,1,0,0,1,1.147,1.639,8.148,8.148,0,0,0-2.848,3.949A1,1,0,0,1,55.148,66.771Z"/><path d="M80.777,47.632a1,1,0,0,1-.684-.271,6.187,6.187,0,0,0-6.574-.468,1,1,0,1,1-1.084-1.682,8.1,8.1,0,0,1,9.027.691,1,1,0,0,1-.685,1.73Z"/><path d="M106.805,105.551c-1.849-2.95-7.485-10.437-19.844-16.2-.92-.429-2.022-.833-3.168-1.246l-.646-.229c-3-1.057-6.392-2.256-8.413-4.145a5.02,5.02,0,0,1-1.69-2.994,28.711,28.711,0,0,0,14.771-17.55,6.129,6.129,0,0,0,.992.084,7.873,7.873,0,0,0,3.462-.861,10.912,10.912,0,0,0,5.443-6.164c1.322-4.219.333-7.937-2.51-9.707A98.493,98.493,0,0,0,94.854,33.1a2.55,2.55,0,0,1,.829-2.069,5.478,5.478,0,0,0,1.9-4.017c.37-5.3-16.56-22.884-29.694-24.753-16.8-1.953-20.781,7.977-21.529,10.6C36.987,16,31.445,25.946,30.636,31.821c-.381,2.778.423,3.923,1.166,4.395a.986.986,0,0,0,.3.127c.385.094.3,1.728.231,3.041a26.63,26.63,0,0,0,.371,7.194c-2.784,1.784-3.75,5.472-2.446,9.663a10.936,10.936,0,0,0,5.457,6.17,7.873,7.873,0,0,0,3.447.855,6.141,6.141,0,0,0,.993-.084,28.751,28.751,0,0,0,14.8,17.564,5.079,5.079,0,0,1-1.693,2.994c-2.008,1.87-5.39,3.067-8.373,4.122l-.671.238c-1.263.451-2.285.835-3.167,1.246C28.674,95.12,23.039,102.6,21.19,105.551a6.321,6.321,0,0,0-.951,5.065c.721,2.788,3.386,4.764,5.5,5.934.226.123.486.281.751.441a7.345,7.345,0,0,1,.361-.829c.327-.821,3.533-8.7,8.147-13.479a1,1,0,1,1,1.439,1.388c-4.494,4.656-7.715,12.8-7.747,12.879-.005.014-.011.027-.016.041-.042.1-.236.566-.426,1.058a48.765,48.765,0,0,0,15.238,5.958c.022-.35.046-.7.064-.9l.029-.322a41.985,41.985,0,0,1,3.8-14.96,1,1,0,1,1,1.832.8,40.253,40.253,0,0,0-3.638,14.339l-.029.324c-.022.236-.053.714-.077,1.122a96.25,96.25,0,0,0,17.5,1.578V115.085a1,1,0,0,1,2,0v10.906a97.226,97.226,0,0,0,17.5-1.579c-.025-.407-.055-.883-.077-1.118l-.029-.324a40.253,40.253,0,0,0-3.638-14.339,1,1,0,1,1,1.832-.8,41.985,41.985,0,0,1,3.8,14.96l.03.322c.018.194.041.546.063.895A49.462,49.462,0,0,0,99.7,118.077c-.194-.5-.395-.988-.437-1.086,0-.014-.011-.027-.016-.041-.032-.082-3.259-8.23-7.747-12.879a1,1,0,1,1,1.439-1.388c4.615,4.779,7.821,12.658,8.147,13.479a7.578,7.578,0,0,1,.372.859c.292-.173.567-.336.817-.475,2.11-1.17,4.775-3.15,5.49-5.937A6.311,6.311,0,0,0,106.805,105.551ZM89.171,54.323a5.116,5.116,0,0,1,3.375-1.742,1,1,0,0,0,.961-1.032,1.021,1.021,0,0,0-1.033-.966,7.238,7.238,0,0,0-3.166,1c.043-1.523.041-2.846.034-3.824a5.621,5.621,0,0,1,4.356.224c2.382,1.135,3.208,4.142,2.105,7.661a8.951,8.951,0,0,1-4.417,4.965,5.533,5.533,0,0,1-3.1.616A50.523,50.523,0,0,0,89.171,54.323ZM36.592,60.615a8.971,8.971,0,0,1-4.429-4.97c-1.1-3.522-.27-6.53,2.105-7.661a5.663,5.663,0,0,1,4.365-.221c-.007.977-.009,2.3.034,3.82a7.222,7.222,0,0,0-3.166-1h-.034a1,1,0,0,0-.033,2,5,5,0,0,1,3.361,1.74,50.976,50.976,0,0,0,.887,6.906A5.518,5.518,0,0,1,36.592,60.615Zm5.239,1.128a47.457,47.457,0,0,1-1.066-7.881c-.157-2.656-.14-5.027-.129-6.444v-.251c.273-10.893,3.919-23.376,13.334-25.745a1,1,0,0,0,.455-.254,11.278,11.278,0,0,1,8.043-2.861,21.222,21.222,0,0,1,12.19,4.126A32.485,32.485,0,0,1,87.338,47.148l0,.271c.01,1.481.027,3.707-.123,6.309a.962.962,0,0,0-.017.134,47.378,47.378,0,0,1-1.066,7.882c-2.078,8.9-8.9,14.876-14.595,17.5l-.021.01-.024.012a17.209,17.209,0,0,1-15.048-.012C50.749,76.629,43.919,70.65,41.831,61.743Zm30.7,22.549a19.355,19.355,0,0,1-8.5,2.961,19.075,19.075,0,0,1-8.568-2.959,6.827,6.827,0,0,0,1.375-2.688,20.064,20.064,0,0,0,7.129,1.386A20.687,20.687,0,0,0,71.153,81.6,6.754,6.754,0,0,0,72.532,84.292Zm-3.715,19.394c-.475-2.207-.983-4.169-1.5-5.787a9.442,9.442,0,0,0,1.566-1.905,6.527,6.527,0,0,0,3.174.812c.25,0,.5-.014.76-.039a1,1,0,0,0-.2-1.991,4.739,4.739,0,0,1-3.485-.989,13.182,13.182,0,0,1-1.652-1.535c-1-1.037-2.024-2.11-3.512-2.11a4.182,4.182,0,0,0-2.913,1.5c-.194.191-.39.395-.591.6A13.618,13.618,0,0,1,58.8,93.788a4.74,4.74,0,0,1-3.485.988,1,1,0,1,0-.2,1.991,6.642,6.642,0,0,0,3.931-.775,9.244,9.244,0,0,0,1.622,1.951c-.505,1.58-1,3.5-1.487,5.745C56.444,100,51.242,93.35,46.571,89.384A26.238,26.238,0,0,0,54,85.72a20.921,20.921,0,0,0,10.035,3.531A20.99,20.99,0,0,0,74,85.716a26.088,26.088,0,0,0,7.43,3.669C76.772,93.344,71.562,99.994,68.817,103.686Z"/></svg>