<svg id="Solid" xmlns="http://www.w3.org/2000/svg" viewBox="0 0 128 128"><title>avatar-01_22</title><rect x="50.926" y="56.262" width="4.58" height="5.278" rx="2.279" ry="2.279" transform="translate(106.431 117.803) rotate(180)"/><rect x="72.182" y="56.262" width="4.58" height="5.278" rx="2.279" ry="2.279"/><path d="M53.75,54.718A6.311,6.311,0,0,0,48.9,56.285a1,1,0,0,0,1.4,1.424,4.349,4.349,0,0,1,3.261-1,2.868,2.868,0,0,1,2.157,1.142,1,1,0,1,0,1.646-1.135A4.823,4.823,0,0,0,53.75,54.718Z"/><path d="M47.034,53.073l.06-.014a23.255,23.255,0,0,1,2.648-.416,25.694,25.694,0,0,1,5.433.038c.907.075,1.8.249,2.707.393l.038.006a.806.806,0,0,0,.4-1.554,16.2,16.2,0,0,0-2.88-.758,18.649,18.649,0,0,0-5.946,0,13.967,13.967,0,0,0-2.927.771.8.8,0,0,0,.468,1.533Z"/><path d="M73.937,54.718a4.825,4.825,0,0,0-3.614,2,1,1,0,1,0,1.647,1.135,2.865,2.865,0,0,1,2.157-1.142,4.351,4.351,0,0,1,3.261,1,1,1,0,0,0,1.4-1.424A6.31,6.31,0,0,0,73.937,54.718Z"/><path d="M69.768,53.08l.038-.006c.908-.144,1.8-.318,2.706-.393a25.695,25.695,0,0,1,5.433-.038,23.238,23.238,0,0,1,2.649.416l.059.014a.8.8,0,0,0,.469-1.533,14,14,0,0,0-2.927-.771,18.655,18.655,0,0,0-5.947,0,16.185,16.185,0,0,0-2.879.758.806.806,0,0,0,.4,1.554Z"/><path d="M63.834,68.378c.035,0,3.529-.112,3.529-1.891a1,1,0,0,0-1.891-.454,4.085,4.085,0,0,1-3.286,0,1,1,0,0,0-1.892.454C60.294,68.3,63.8,68.378,63.834,68.378Z"/><path d="M95.282,109.3C95.263,98.312,94.02,82.88,84.141,73.482c.056-.212.111-.437.166-.671A6.534,6.534,0,0,0,85.4,72.9a7.289,7.289,0,0,0,3.21-.77,8.552,8.552,0,0,0,4.306-4.916c1.054-3.24.546-6.214-1.277-7.977a32.145,32.145,0,0,0-.014-15.85c0-.019-.008-.037-.013-.055a34.439,34.439,0,0,0-6-12.685c-.009-.012-.022-.017-.032-.028a27.9,27.9,0,0,0-9.117-7.833h0l-.02-.011c-.428-.23-.807-.417-1.172-.588-.272-1.523-1.541-2.909-3.6-3.941a2.986,2.986,0,0,1,1.326-1.393,6.275,6.275,0,0,1,3.168-.412c1.228.047,2.395.09,3.152-.7a2.422,2.422,0,0,0,.567-1.96,4.489,4.489,0,0,0-2.31-3.6,6.5,6.5,0,0,0-4.007-.7c1-1.678,1.878-3.833-.044-5.746a3.434,3.434,0,0,0-3.639-.474,6.312,6.312,0,0,0-3.3,3.022c-.123-.285-.252-.566-.391-.836-1.56-3.041-3.447-3.567-4.432-3.609a3.577,3.577,0,0,0-3.193,1.747,4.217,4.217,0,0,0-.615,1.82,6.255,6.255,0,0,0-4-.734,3.191,3.191,0,0,0-2.831,2.5,3.959,3.959,0,0,0,1.524,4,6.785,6.785,0,0,0-4.478,1.388,3.663,3.663,0,0,0-1.246,3.808c.684,2.707,3.244,2.253,4.939,1.952a6.566,6.566,0,0,1,2.3-.164,2.023,2.023,0,0,1,1.084.561,5.519,5.519,0,0,0-2.755,3.469c-.414.2-.806.389-1.16.583l-.026.015h0a27.891,27.891,0,0,0-9.116,7.83c-.011.012-.026.018-.036.031a34.463,34.463,0,0,0-6,12.675c-.007.025-.013.05-.018.076a32.165,32.165,0,0,0-.024,15.789c-1.879,1.754-2.407,4.744-1.335,8.025a8.517,8.517,0,0,0,4.282,4.915,7.261,7.261,0,0,0,3.211.773,6.612,6.612,0,0,0,1.116-.1c.056.237.111.464.166.675-9.88,9.4-11.123,24.83-11.142,35.814a4.97,4.97,0,0,0-.749,3.826c.5,1.911,2.36,3.156,4.112,4.12.451.251,1.024.529,1.755.852a47.636,47.636,0,0,0,8.612,2.709,77.293,77.293,0,0,0,11.6,1.632c.018.388.041.76.076,1.087A3.192,3.192,0,0,0,60,126.313a21.79,21.79,0,0,0,5.207.654c.17,0,.332,0,.485-.009l.06,0a2.818,2.818,0,0,0,2.5-2.615c.037-.5.065-1.129.082-1.818A77.13,77.13,0,0,0,81.552,120.8a47.544,47.544,0,0,0,8.615-2.711c.728-.321,1.3-.6,1.749-.848,1.756-.966,3.618-2.211,4.115-4.122A4.967,4.967,0,0,0,95.282,109.3ZM85.329,66.134c.005-.054.01-.112.016-.167a3.752,3.752,0,0,1,3.038-1.235,1,1,0,0,0,.206-1.989,6.142,6.142,0,0,0-3.028.562c.071-1.02.136-2.146.2-3.424a7.535,7.535,0,0,1,3.386.063,3.331,3.331,0,0,1,.772.427c1.551,1.147,1.971,3.534,1.094,6.227a6.512,6.512,0,0,1-3.285,3.74,5.1,5.1,0,0,1-3.016.5C84.961,69.451,85.166,67.906,85.329,66.134Zm-45.392,4.2a6.486,6.486,0,0,1-3.263-3.74c-.876-2.681-.433-5.133,1.149-6.259a3.128,3.128,0,0,1,.731-.4,7.563,7.563,0,0,1,3.372-.056c.064,1.278.129,2.4.2,3.422a6.13,6.13,0,0,0-3.026-.561,1,1,0,0,0,.205,1.989,3.762,3.762,0,0,1,3.037,1.233l0,.059,0,.014c0,.03.008.06.011.09l0,.043c.159,1.695.365,3.225.622,4.663A5.079,5.079,0,0,1,39.937,70.337Zm17.014-50.29a13.025,13.025,0,0,1,3.707-1.189,15.065,15.065,0,0,1,2.133-.254,17.187,17.187,0,0,1,3.619.133,15.385,15.385,0,0,1,3.67.975A8.075,8.075,0,0,1,72.254,21a27.042,27.042,0,0,0-8.38-1.3l-.066,0h0a27,27,0,0,0-8.276,1.287A7.342,7.342,0,0,1,56.951,20.047ZM49.639,39.279c3.464-4.248,8.149-5.532,13.92-3.813a1,1,0,0,0,.569,0c5.435-1.615,9.905-.57,13.292,3.1,5.076,5.477,6.6,15.526,6.375,20.572-.131,2.756-.266,4.8-.437,6.6-2.238,5.985-5.059,6.883-6.545,6.883a7.932,7.932,0,0,1-4.031-1.352,16.2,16.2,0,0,0-8.936-2.348,16.071,16.071,0,0,0-8.965,2.347,7.932,7.932,0,0,1-4.037,1.353c-1.475,0-4.272-.885-6.505-6.763-.175-1.813-.313-3.89-.446-6.715C43.671,54.454,45.034,44.918,49.639,39.279Zm19.83,34.683a13.943,13.943,0,0,1-11.25,0,1,1,0,0,1,.97-1.749,12.065,12.065,0,0,0,9.309,0,1,1,0,0,1,.971,1.749ZM36.91,115.581c-.054-.029-.124-.062-.174-.089-1.934-1.065-2.9-1.95-3.144-2.873a3.283,3.283,0,0,1,.658-2.52,24.719,24.719,0,0,1,3.5-4.207A48.782,48.782,0,0,0,36.91,115.581Zm3.2-16.266a16.157,16.157,0,0,0-1.386,2.985,35.988,35.988,0,0,0-4.283,4.216C34.675,96.5,36.3,83.809,44.211,75.644a18.265,18.265,0,0,0,6.683,8.934,28.422,28.422,0,0,0,5.212,3.083c-.189,3.778-2.042,5.577-4.79,7.038-.6.329-1.226.62-1.843.91a5.132,5.132,0,0,0-2.962-.407A8.839,8.839,0,0,0,40.111,99.315ZM65.3,113.388a33.457,33.457,0,0,0-5.02.489,2.8,2.8,0,0,0-2.328,2.441c-.131,1.129-.221,2.648-.24,4.11A75.941,75.941,0,0,1,47.3,119a61.468,61.468,0,0,1,2.888-21.515l.123-.058c.192-.09.379-.19.571-.282a12.136,12.136,0,0,0,6.91,10.023c.042.68.095,1.322.158,1.87a2.8,2.8,0,0,0,2.327,2.441,33.781,33.781,0,0,0,4.773.479c.086,0,.165,0,.248-.006Zm.39-14.992A21.262,21.262,0,0,0,60,99.041a3.192,3.192,0,0,0-2.183,2.791,27.246,27.246,0,0,0-.1,3.037,10.228,10.228,0,0,1-4.879-8.721,9.415,9.415,0,0,0,5.236-7.7,17.4,17.4,0,0,0,5.778,1.107,17.406,17.406,0,0,0,5.778-1.107,9.42,9.42,0,0,0,5.251,7.708,10.256,10.256,0,0,1-6.528,9.5c.026-1.752-.007-3.5-.092-4.642a2.82,2.82,0,0,0-2.5-2.613ZM80.39,119a75.711,75.711,0,0,1-12.037,1.521c-.008-1.732-.071-3.558-.208-4.88a2.487,2.487,0,0,0-.847-1.629v-2.642a2.529,2.529,0,0,0,.847-1.65c.058-.561.1-1.219.135-1.917A12.075,12.075,0,0,0,76.8,97.153c.191.091.382.183.573.272l.122.058A61.665,61.665,0,0,1,80.39,119ZM87.573,99.32A8.834,8.834,0,0,0,81.178,95.2a5.139,5.139,0,0,0-2.964.408c-.616-.29-1.239-.582-1.851-.915-2.74-1.457-4.592-3.256-4.782-7.034a28.4,28.4,0,0,0,5.213-3.084,18.265,18.265,0,0,0,6.683-8.932c7.914,8.165,9.536,20.855,9.768,30.871a35.99,35.99,0,0,0-4.292-4.224A15.381,15.381,0,0,0,87.573,99.32Zm6.523,13.3c-.241.923-1.21,1.808-3.149,2.875-.048.027-.117.059-.169.087a48.782,48.782,0,0,0-.836-9.689,24.715,24.715,0,0,1,3.494,4.2A3.292,3.292,0,0,1,94.1,112.619Z"/></svg>