<svg id="Solid" xmlns="http://www.w3.org/2000/svg" viewBox="0 0 128 128"><title>avatar-01_16</title><rect x="73.333" y="49.823" width="5.084" height="6.071" rx="2.542" ry="2.542"/><rect x="48.74" y="49.823" width="5.084" height="6.071" rx="2.542" ry="2.542" transform="translate(102.564 105.718) rotate(180)"/><path d="M44.317,45.987c3.167-1.736,8.413-2.138,12.824-1.139a1.47,1.47,0,0,1,1.072,1.807c-.168.919-.685,1.62-1.677,1.548-2.316-.169-6.48-.722-9.347-.051-2.144.5-3.118.146-3.46-.367C43.159,46.932,43.725,46.312,44.317,45.987Z"/><path d="M82.84,45.987c-3.167-1.736-8.413-2.138-12.825-1.139a1.47,1.47,0,0,0-1.071,1.807c.167.919.684,1.62,1.676,1.548,2.317-.169,6.481-.722,9.348-.051,2.143.5,3.118.146,3.46-.367C84,46.932,83.432,46.312,82.84,45.987Z"/><path d="M63.578,70.231c-3.091,0-10.333,0-10.749-3.987a2.223,2.223,0,0,1,.609-1.822c1.373-1.437,4.627-1.373,8.424-1.151.7.041,1.306.077,1.749.077s1.05-.036,1.749-.077c3.794-.222,7.049-.286,8.423,1.151a2.226,2.226,0,0,1,.608,1.822C73.975,70.231,66.69,70.231,63.578,70.231Zm-4.985-5.079c-1.627,0-3.216.135-3.709.651a.241.241,0,0,0-.066.233c.086.819,1.338,2.195,8.76,2.195,7.478,0,8.739-1.376,8.825-2.195a.243.243,0,0,0-.067-.233c-.844-.885-4.908-.648-6.86-.535-.744.043-1.394.08-1.865.08s-1.121-.037-1.866-.08C60.933,65.221,59.753,65.152,58.593,65.152Z"/><path d="M80.179,52.473a1,1,0,0,1-.826-.436c-.49-.718-2.082-1.181-3.8-1.106a3.721,3.721,0,0,0-2.554.78,1,1,0,0,1-1.746-.977c.861-1.535,3.44-1.767,4.21-1.8,1.97-.088,4.451.384,5.538,1.975a1,1,0,0,1-.824,1.565Z"/><path d="M46.978,52.473a1,1,0,0,1-.824-1.565c1.087-1.59,3.572-2.065,5.538-1.975.77.034,3.349.266,4.21,1.8a1,1,0,0,1-1.746.977,3.721,3.721,0,0,0-2.554-.78c-1.715-.075-3.308.388-3.8,1.106A1,1,0,0,1,46.978,52.473Z"/><path d="M63.578,71.563a8.956,8.956,0,0,1-5.208-1.544,1,1,0,0,1,1.237-1.573,7.619,7.619,0,0,0,7.943,0,1,1,0,0,1,1.236,1.573A8.952,8.952,0,0,1,63.578,71.563Z"/><path d="M63.569,63.393c-.035,0-3.41-.109-3.41-1.851a1,1,0,0,1,1.882-.47,3.774,3.774,0,0,0,3.044,0,1,1,0,0,1,1.883.469C66.968,63.284,63.6,63.393,63.569,63.393Z"/><path d="M96.781,105.57l-.012-.012h0a48.651,48.651,0,0,0-6.093-5.184c-1.2-.865-2.48-1.708-3.807-2.5a56.736,56.736,0,0,0-5.5-2.931c-.448-.209-.9-.41-1.347-.611a19.272,19.272,0,0,1-4.6-2.562,6.9,6.9,0,0,1-2.206-3.053,10.412,10.412,0,0,1-.56-3.166,32.753,32.753,0,0,0,5.719-3.422c4.522-3.386,7.179-7.521,8.8-13.633a7.249,7.249,0,0,0,1.459.165,7.784,7.784,0,0,0,3.436-.819,9.608,9.608,0,0,0,4.779-5.583c1.426-4.362.371-8.226-2.595-9.923.49-2.189,1.349-6.644,1.6-8.372l1.232-6.394c2.817-1.588,6.315-6.833,5.724-11.537C101.919,19.1,85.762,2.683,63.578,2.683S25.238,19.1,24.356,26.028c-.591,4.7,2.906,9.948,5.724,11.536l1.232,6.394c.253,1.728,1.113,6.187,1.6,8.375-2.969,1.706-4.019,5.565-2.6,9.917a9.61,9.61,0,0,0,4.78,5.586,7.781,7.781,0,0,0,3.436.819,7.241,7.241,0,0,0,1.459-.165c1.618,6.114,4.276,10.248,8.795,13.634a32.611,32.611,0,0,0,5.729,3.422,10.164,10.164,0,0,1-.566,3.158c-.009.024-.017.047-.024.072a6.928,6.928,0,0,1-2.2,3.008,19.431,19.431,0,0,1-4.548,2.527c-.46.206-.921.412-1.373.625a56.792,56.792,0,0,0-5.514,2.929c-1.292.775-2.539,1.6-3.81,2.517a46.725,46.725,0,0,0-6.1,5.2,30.209,30.209,0,0,0-4.178,5.094,5.977,5.977,0,0,0-1.06,4.748c.574,2.217,2.765,3.684,4.835,4.829,4.465,2.457,14.371,5.579,27.59,6.292,2.024.107,4.043.162,6,.162s3.979-.055,6-.162c13.218-.713,23.123-3.835,27.59-6.293,2.072-1.145,4.268-2.615,4.839-4.833a5.968,5.968,0,0,0-1.067-4.745A30.494,30.494,0,0,0,96.781,105.57Zm-6.6-3.066a46.667,46.667,0,0,1,4.469,3.788l-1.42,1.453a1,1,0,0,1-1.359.088l-3.787-3.039C88.573,104.219,89.309,103.386,90.183,102.5Zm4.754-40.87a7.577,7.577,0,0,1-3.76,4.408,5.6,5.6,0,0,1-3.531.517c.363-1.639.679-3.463.961-5.592a4.413,4.413,0,0,1,3.259-1.675,1,1,0,0,0,.073-2,6.238,6.238,0,0,0-2.988.8c.147-1.368.287-2.855.422-4.479a6.113,6.113,0,0,1,3.339.189C95.63,54.985,95.933,58.587,94.937,61.634ZM88.4,43.71a7.469,7.469,0,0,0,2.8-1.99A23.881,23.881,0,0,1,93.8,44.105c-.294,1.82-1,5.493-1.448,7.519a8.554,8.554,0,0,0-2.837-.079A32.252,32.252,0,0,0,88.4,43.71ZM53.187,11.182l7.389,0a.57.57,0,0,0,.549-.495,2.423,2.423,0,0,1,4.841,0,.57.57,0,0,0,.549.495l7.453,0a.668.668,0,0,1,.328,1.179l-4.721,3.821a2.91,2.91,0,0,1-1.834.667H59.362a2.908,2.908,0,0,1-1.847-.678l-4.658-3.812A.667.667,0,0,1,53.187,11.182ZM32.025,37.092c1.368-2.066,10.239-14.07,31.553-14.07,21.252,0,30.177,12.006,31.553,14.071l-.89,4.621a31.028,31.028,0,0,0-2.715-2.264c-5.163-3.845-14.2-8.428-27.948-8.428s-22.8,4.595-27.966,8.448a30.528,30.528,0,0,0-2.7,2.245Zm6.735,6.624a32.3,32.3,0,0,0-1.116,7.829,8.551,8.551,0,0,0-2.837.078c-.444-2.026-1.154-5.7-1.449-7.518a23.88,23.88,0,0,1,2.59-2.369A7.461,7.461,0,0,0,38.76,43.716ZM35.98,66.042a7.58,7.58,0,0,1-3.761-4.41c-1-3.045-.692-6.647,2.243-7.84a6.081,6.081,0,0,1,3.322-.182c.135,1.624.275,3.111.422,4.477a6.169,6.169,0,0,0-2.988-.794,1,1,0,0,0-.959,1.04,1.015,1.015,0,0,0,1.039.959,4.345,4.345,0,0,1,3.252,1.676c.283,2.131.6,3.955.961,5.591A5.6,5.6,0,0,1,35.98,66.042Zm14.008,14.48c-4.417-3.308-6.827-7.214-8.318-13.486a92.124,92.124,0,0,1-1.947-14.221c-.028-.267-.048-.543-.066-.82l0,0v0a28.059,28.059,0,0,1,.989-7.582c5.426,1.641,14.19,1.878,22.924,1.878s17.519-.237,22.943-1.877a28.087,28.087,0,0,1,.989,7.581v0l0,0c-.018.277-.038.553-.069.847a91.905,91.905,0,0,1-1.945,14.2c-1.491,6.267-3.9,10.173-8.317,13.481a30.415,30.415,0,0,1-5.945,3.486,19.36,19.36,0,0,1-7.646,1.815,19.351,19.351,0,0,1-7.64-1.817A30.287,30.287,0,0,1,49.988,80.522Zm21.181,8.35c-1.44,2.068-4.8,2.831-7.591,2.831s-6.139-.762-7.589-2.823a11.841,11.841,0,0,0,.481-2.5,20.03,20.03,0,0,0,7.108,1.439A20.047,20.047,0,0,0,70.7,86.384,12.2,12.2,0,0,0,71.169,88.872ZM36.98,102.51c.87.879,1.6,1.71,2.091,2.284l-3.793,3.043a1,1,0,0,1-1.355-.093L32.512,106.3A45.16,45.16,0,0,1,36.98,102.51Zm19.667,21.962c-16.272-1.044-24.767-5.464-25.7-5.974-2.4-1.329-3.558-2.4-3.864-3.579a4.137,4.137,0,0,1,.818-3.184,27.139,27.139,0,0,1,3.2-4.017l1.39,1.422a3.017,3.017,0,0,0,2.166.922,2.965,2.965,0,0,0,1.876-.669l4.557-3.656.014-.007.01-.012,1.79-1.435a3,3,0,0,0,.341-4.375l-.854-.935c1.364-.783,2.779-1.537,4.263-2.225.445-.209.895-.411,1.343-.612a31.326,31.326,0,0,0,3.511-1.767,18.107,18.107,0,0,0,2.16,5.706,2.953,2.953,0,0,0,2.79,1.5,4.437,4.437,0,0,0,2.456-1.451,8.683,8.683,0,0,0,1.432,1.666A104.642,104.642,0,0,0,56.647,124.472Zm2.181-27.123-.443.473C57.3,98.963,56.6,99.556,56.3,99.585a.983.983,0,0,1-.914-.535,14.268,14.268,0,0,1-2-6.074A8.816,8.816,0,0,0,55.1,90.9c1.806,1.768,4.825,2.8,8.482,2.8,1.466,0,5.918-.229,8.5-2.782a8.8,8.8,0,0,0,1.695,2.046,14.237,14.237,0,0,1-2,6.083.971.971,0,0,1-.909.536c-.3-.03-1-.623-2.084-1.759l-.448-.478c-1.617-1.731-3.143-3.367-4.75-3.367S60.446,95.618,58.828,97.349Zm41.247,17.567c-.3,1.179-1.461,2.25-3.869,3.581-.929.511-9.424,4.931-25.7,5.976a104.631,104.631,0,0,0-3.7-22.679,8.738,8.738,0,0,0,1.432-1.665A4.451,4.451,0,0,0,70.7,101.58c.078,0,.153.008.229.008a2.963,2.963,0,0,0,2.557-1.513,18.056,18.056,0,0,0,2.162-5.711A30.893,30.893,0,0,0,79.2,96.152c.438.2.877.392,1.317.6,1.457.676,2.87,1.431,4.247,2.223l-.853.933a3.006,3.006,0,0,0,.339,4.376l1.791,1.436.01.012.014.008,4.552,3.651a2.98,2.98,0,0,0,1.883.673,3.015,3.015,0,0,0,2.162-.921l1.4-1.432a27.462,27.462,0,0,1,3.189,4.026A4.13,4.13,0,0,1,100.075,114.916Z"/></svg>