<svg id="Solid" xmlns="http://www.w3.org/2000/svg" viewBox="0 0 128 128"><title>avatar-02_10</title><rect x="74.116" y="46.6" width="4.876" height="5.758" rx="2.438" ry="2.438"/><path d="M69.563,43.691A24.217,24.217,0,0,1,73.5,42.71a34.035,34.035,0,0,1,4-.416,14.141,14.141,0,0,1,4.135.383,7.483,7.483,0,0,1,1.977.776,7.014,7.014,0,0,1,1.53,1.357.307.307,0,0,1-.019.433.312.312,0,0,1-.245.078,10.579,10.579,0,0,1-1.9-.51,15.823,15.823,0,0,0-1.734-.423,13.014,13.014,0,0,0-3.637-.091,38.156,38.156,0,0,0-7.42,1.3l-.022.006a1,1,0,0,1-.6-1.907Z"/><path d="M81.444,49.086c-.6-.235-1.345-.495-2.051-.7a10.3,10.3,0,0,0-2.166-.453,6.946,6.946,0,0,0-2.066.086,3.561,3.561,0,0,0-1.633.8l-.022.02A1,1,0,0,1,72.117,47.4a5.016,5.016,0,0,1,2.611-1.389,7.742,7.742,0,0,1,2.749-.045,11.592,11.592,0,0,1,2.532.689,5.937,5.937,0,0,1,2.246,1.487.62.62,0,0,1-.687.992Z"/><rect x="49.027" y="46.6" width="4.876" height="5.758" rx="2.438" ry="2.438" transform="translate(102.931 98.957) rotate(180)"/><path d="M57.835,45.592a38.166,38.166,0,0,0-7.421-1.3,13.008,13.008,0,0,0-3.636.091,15.786,15.786,0,0,0-1.735.423,10.567,10.567,0,0,1-1.9.51.306.306,0,0,1-.342-.266.311.311,0,0,1,.078-.245,7.031,7.031,0,0,1,1.529-1.357,7.49,7.49,0,0,1,1.978-.776,14.135,14.135,0,0,1,4.135-.383,34.019,34.019,0,0,1,4,.416,24.229,24.229,0,0,1,3.934.981,1,1,0,0,1-.6,1.908Z"/><path d="M45.765,48.144a5.926,5.926,0,0,1,2.245-1.487,11.607,11.607,0,0,1,2.532-.689,7.748,7.748,0,0,1,2.75.045A5.02,5.02,0,0,1,55.9,47.4a1,1,0,0,1-1.387,1.439l-.024-.022a3.566,3.566,0,0,0-1.633-.8,6.951,6.951,0,0,0-2.067-.086,10.308,10.308,0,0,0-2.165.453c-.707.207-1.454.467-2.051.7l-.124.049a.619.619,0,0,1-.687-.991Z"/><path d="M94.656,35.272c.194.06.411.137.638.222-.831-18.588-10.578-26-19.087-28.907A207.246,207.246,0,0,1,73.17,30.758,118.665,118.665,0,0,1,94.656,35.272Z"/><path d="M64.013,30.24c2.409,0,4.8.121,7.155.324a201.55,201.55,0,0,0,3.063-24.5C73.062,3.929,66.94,2.743,64,2.731c-2.929.012-9.05,1.2-10.219,3.337a201.036,201.036,0,0,0,3.063,24.5C59.2,30.361,61.6,30.24,64.013,30.24Z"/><path d="M54.844,30.759A207.023,207.023,0,0,1,51.807,6.586C43.3,9.492,33.556,16.9,32.726,35.494c.226-.084.444-.161.643-.222A118.675,118.675,0,0,1,54.844,30.759Z"/><path d="M64,59.6c.979,0,3.324-.613,3.324-2.129a1,1,0,0,0-1.962-.275A3.266,3.266,0,0,1,64,57.6a3.209,3.209,0,0,1-1.348-.4,1,1,0,0,0-1.962.275C60.69,58.987,63.026,59.6,64,59.6Z"/><path d="M102.391,108.837c-1.5-2.4-7.373-10.662-19.864-16.49a27.313,27.313,0,0,1-5.514-3.122,1.029,1.029,0,0,0-.1-.075,9.711,9.711,0,0,1-3.733-7.531,24.892,24.892,0,0,0,6.939-4.73.976.976,0,0,0,.131-.126,29.461,29.461,0,0,0,8.015-14.072,4.814,4.814,0,0,0,.95.1,6.085,6.085,0,0,0,2.435-.542,9.615,9.615,0,0,0,5.152-6.03c1.08-3.9.487-6.934-1.763-9.019a4.788,4.788,0,0,0-1.047-.712c.01-.478.024-.991.044-1.557.038-1.106.078-2.342.068-3.548q.4.059.755.1a1.551,1.551,0,0,0,1.44-2.39,6.577,6.577,0,0,0-1.94-1.92c-3.63-2.18-12.44-4.05-22.41-4.73-2.59-.18-5.26-.28-7.94-.28s-5.35.1-7.94.28c-9.97.68-18.78,2.55-22.41,4.73a6.5,6.5,0,0,0-1.95,1.92,1.553,1.553,0,0,0,1.44,2.39c.238-.026.5-.058.764-.1-.009,1.206.03,2.442.068,3.549.02.566.035,1.079.044,1.556a4.876,4.876,0,0,0-1.047.713c-2.25,2.085-2.842,5.12-1.761,9.022a9.611,9.611,0,0,0,5.15,6.027,6.09,6.09,0,0,0,2.436.542,4.762,4.762,0,0,0,.93-.1,29.452,29.452,0,0,0,8.071,14.122l.029.029a24.918,24.918,0,0,0,6.985,4.774,9.71,9.71,0,0,1-3.727,7.526,1.072,1.072,0,0,0-.107.081,27.294,27.294,0,0,1-5.512,3.121c-12.491,5.828-18.362,14.1-19.864,16.49a6.113,6.113,0,0,0-1.087,4.856c.588,2.271,2.835,3.773,4.957,4.943,1.234.679,12.677,6.633,34.511,6.633l.01,0,.01,0c21.834,0,33.277-5.954,34.511-6.633,2.122-1.17,4.369-2.672,4.957-4.943A6.113,6.113,0,0,0,102.391,108.837Zm-12.9-54.381a2.693,2.693,0,0,1,2.854-1.021,1,1,0,0,0,.551-1.923,4.972,4.972,0,0,0-3.191.246c.093-1.319.17-2.624.231-3.85a4.264,4.264,0,0,1,3.749.758c1.68,1.558,2.071,3.854,1.2,7.015a7.643,7.643,0,0,1-4.026,4.735,3.789,3.789,0,0,1-2.141.328C89.017,59.049,89.278,56.817,89.487,54.456ZM37.17,60.416a7.638,7.638,0,0,1-4.025-4.732c-.877-3.164-.487-5.46,1.194-7.018a4.168,4.168,0,0,1,3.729-.761c.06,1.225.138,2.529.231,3.846a4.97,4.97,0,0,0-3.171-.239,1,1,0,0,0,.543,1.925,2.7,2.7,0,0,1,2.84.991c.209,2.373.471,4.619.781,6.321A3.793,3.793,0,0,1,37.17,60.416Zm10.6,13.5a27.945,27.945,0,0,1-6.32-12.571.939.939,0,0,0-.042-.168,63.846,63.846,0,0,1-.925-7.113.914.914,0,0,0-.017-.188c-.169-1.963-.313-4.123-.419-6.352,1.008-1.479,4.034-5.781,5.97-8.069a.974.974,0,0,0,.216-.568c.762-.13,1.551-.257,2.372-.378a105.435,105.435,0,0,1,30.79,0c.817.12,1.6.247,2.362.377a.979.979,0,0,0,.216.569c1.936,2.288,4.962,6.59,5.97,8.069a101.333,101.333,0,0,1-1.364,13.667A27.968,27.968,0,0,1,80.241,73.9c-1.371-6.584-8.306-12.336-10.777-13.2a17.674,17.674,0,0,0-5.431-.91c-.015,0-.031,0-.043,0a17.672,17.672,0,0,0-5.434.91C56.082,61.562,49.137,67.324,47.775,73.916Zm16.218,9.9h.014a24.481,24.481,0,0,0,7.21-1.424,12.2,12.2,0,0,0,1.009,3.955c-1.483,1.948-5.289,3.136-8.216,3.136s-6.752-1.188-8.236-3.136a12.2,12.2,0,0,0,1.009-3.955A24.481,24.481,0,0,0,63.993,83.815ZM58.7,64.928a1,1,0,0,1,1.382-.3A7.064,7.064,0,0,0,64,65.849a7.67,7.67,0,0,0,4.081-1.226,1,1,0,1,1,1.066,1.692A9.653,9.653,0,0,1,64,67.849a9.1,9.1,0,0,1-5-1.539A1,1,0,0,1,58.7,64.928ZM54.732,88.17c2.15,2.158,6.115,3.312,9.278,3.312s7.11-1.154,9.258-3.312A12.4,12.4,0,0,0,75.325,90.4,15.849,15.849,0,0,1,73.1,97.111a1.2,1.2,0,0,1-1.095.633c-.554-.043-1.956-1.54-2.885-2.53-1.748-1.866-3.4-3.628-5.114-3.628l-.01,0-.01,0c-1.715,0-3.366,1.762-5.114,3.628-.929.99-2.331,2.487-2.885,2.53a1.212,1.212,0,0,1-1.095-.632A15.859,15.859,0,0,1,52.675,90.4,12.4,12.4,0,0,0,54.732,88.17ZM30.445,116.885c-2.478-1.367-3.67-2.471-3.986-3.693a4.264,4.264,0,0,1,.846-3.292c1.427-2.278,7.019-10.144,19.013-15.741a37.357,37.357,0,0,0,4.464-2.346,19.973,19.973,0,0,0,2.4,6.325,3.155,3.155,0,0,0,2.719,1.61c.082,0,.164,0,.247-.01a5.445,5.445,0,0,0,2.988-1.9,9.238,9.238,0,0,0,1.622,1.755,112.942,112.942,0,0,0-3.665,23.469C40.274,122.023,31.5,117.463,30.445,116.885Zm71.1-3.693c-.316,1.222-1.508,2.326-3.985,3.692-1.051.579-9.83,5.139-26.648,6.174A113.06,113.06,0,0,0,67.252,99.6a9.32,9.32,0,0,0,1.614-1.77,5.44,5.44,0,0,0,2.987,1.9c.083.006.165.01.247.01a3.16,3.16,0,0,0,2.72-1.61,20.006,20.006,0,0,0,2.4-6.325,37.357,37.357,0,0,0,4.464,2.346c11.994,5.6,17.586,13.463,19.013,15.741A4.264,4.264,0,0,1,101.541,113.192Z"/></svg>