<svg id="Solid" xmlns="http://www.w3.org/2000/svg" viewBox="0 0 128 128"><title>avatar-02_7</title><path d="M72,49.094a3.522,3.522,0,0,1,1.21-1.281,5.59,5.59,0,0,1,1.387-.664,8.433,8.433,0,0,1,2.866-.368,7.626,7.626,0,0,1,2.827.682,3.175,3.175,0,0,1,2.043,2.114.646.646,0,0,1-.812.732l-.112-.032a20.737,20.737,0,0,1-1.943-.916,6.4,6.4,0,0,0-2.089-.395,6.5,6.5,0,0,0-2.134.254,3.2,3.2,0,0,0-1.5.835l-.115.141A.986.986,0,0,1,72,49.094Z"/><rect x="74.526" y="48.915" width="4.745" height="5.668" rx="2.372" ry="2.372"/><path d="M54.256,50.055a3.2,3.2,0,0,0-1.5-.835,6.5,6.5,0,0,0-2.134-.254,6.4,6.4,0,0,0-2.089.395,20.737,20.737,0,0,1-1.943.916l-.109.031a.647.647,0,0,1-.8-.442.662.662,0,0,1-.016-.289,3.175,3.175,0,0,1,2.043-2.114,7.626,7.626,0,0,1,2.827-.682,8.433,8.433,0,0,1,2.866.368,5.59,5.59,0,0,1,1.387.664A3.522,3.522,0,0,1,56,49.094a.985.985,0,0,1-1.624,1.1Z"/><rect x="48.729" y="48.915" width="4.745" height="5.668" rx="2.372" ry="2.372" transform="translate(102.203 103.498) rotate(180)"/><path d="M94.584,75a1,1,0,0,1-.976-1.222c1.084-4.755-.646-6.459-2.835-8.616-1.967-1.938-4.2-4.136-4.2-8.739a1,1,0,0,1,2,0c0,3.766,1.749,5.49,3.6,7.315,2.209,2.176,4.712,4.643,3.382,10.484A1,1,0,0,1,94.584,75Z"/><path d="M34.334,75a1,1,0,0,1-.915-.6c-2.355-5.33-.316-7.228,1.842-9.239C37.585,63,40.22,60.547,39.178,52.376a1,1,0,0,1,1.985-.252c1.171,9.188-2.129,12.261-4.538,14.505-2.035,1.894-3.156,2.938-1.377,6.967a1,1,0,0,1-.914,1.4Z"/><path d="M64.01,61.85c-.03,0-2.98-.046-2.98-1.69a1,1,0,0,1,1.848-.529,2.983,2.983,0,0,0,2.244,0,1,1,0,0,1,1.848.529C66.97,61.8,64.04,61.85,64.01,61.85Z"/><path d="M64.01,68.12a12.579,12.579,0,0,1-4.2-.758,1,1,0,1,1,.863-1.8,10.224,10.224,0,0,0,6.686,0,1,1,0,0,1,.864,1.8A12.631,12.631,0,0,1,64.01,68.12Z"/><path d="M70.17,46.08a1,1,0,0,1-.377-1.927l.2-.08a18.24,18.24,0,0,1,14.7-.337,1,1,0,1,1-.716,1.868,16.235,16.235,0,0,0-13.226.321l-.2.082A.994.994,0,0,1,70.17,46.08Z"/><path d="M57.83,46.08a.994.994,0,0,1-.376-.073l-.2-.082A16.231,16.231,0,0,0,44.028,45.6a1,1,0,0,1-.716-1.868,18.241,18.241,0,0,1,14.7.337l.2.08a1,1,0,0,1-.377,1.927Z"/><path d="M101.483,109.963c-2.688-4.219-6.807-9.258-16.971-14.645-.425-.226-.872-.438-1.319-.652a6.986,6.986,0,0,0-.652-2.131c-.666-1.08-4.878-4.263-6.247-4.839a2.918,2.918,0,0,0-2.483.172,12.841,12.841,0,0,1-1.6-5.395A32.116,32.116,0,0,0,79.883,78.5c4.234-3.282,6.624-7.9,7.892-15.3a6.99,6.99,0,0,0,1.309.122,8.584,8.584,0,0,0,3.737-.9,9.089,9.089,0,0,0,4.78-5.453c1.245-4.29.209-6.873-1.033-8.356,2.37-14.33-.28-26.925-7.5-35.5C83.034,5.947,74.131,2,64,2,56.568,2,47.375,7.544,44.423,13.729,35.64,17.542,28.479,30.6,31.43,48.613c-1.241,1.482-2.275,4.069-1.031,8.356a9.089,9.089,0,0,0,4.78,5.453,8.584,8.584,0,0,0,3.737.9,6.973,6.973,0,0,0,1.316-.124,39.681,39.681,0,0,0,1.285,5.4c-3.9,1.535-5.3,5.99-4.909,10,.491,5.089,3.872,10.677,10.137,10.921q.438.016.861.017.666,0,1.291-.042a17.988,17.988,0,0,0-3.446,3.055,6.992,6.992,0,0,0-.644,2.118c-.446.213-.894.425-1.315.65-10.168,5.389-14.287,10.428-16.975,14.646a5.852,5.852,0,0,0-1.077,4.691c.57,2.209,2.778,3.664,4.864,4.8C32.324,120.544,43.443,126,64,126s31.676-5.456,33.7-6.551c2.085-1.132,4.293-2.587,4.863-4.8A5.849,5.849,0,0,0,101.483,109.963ZM73.9,90.183a.913.913,0,0,0,.079-.054c.737-.554,1.2-.728,1.541-.587a25.9,25.9,0,0,1,5.309,4.029,7.088,7.088,0,0,1,.482,1.943c.857,5.163.384,11.285-.631,11.691-2.939-.8-8.693-8.66-11.168-13.1.436-.4.876-.807,1.311-1.213C71.947,91.845,73.008,90.854,73.9,90.183ZM60,95.478c.815.756,1.836,1.728,2.6,2.486a2,2,0,0,0,2.812,0c.763-.761,1.783-1.73,2.6-2.488,2.09,3.564,7.4,11.423,11.329,13.339-.291,2.109-.681,2.415-.708,2.437-3.144.654-26.108.654-29.229.008-.048-.029-.44-.336-.731-2.446C52.591,106.9,57.9,99.05,60,95.478ZM58.54,91.431c-.945-.883-1.845-1.719-2.677-2.4a14.4,14.4,0,0,0,1.885-5.868A22.913,22.913,0,0,0,64,84.42a22.507,22.507,0,0,0,6.252-1.259,14.379,14.379,0,0,0,1.885,5.871c-.832.68-1.732,1.516-2.677,2.4-.62.579-1.249,1.166-1.863,1.711h0c-.8.713-2.478,2.287-3.59,3.4-1.113-1.108-2.772-2.665-3.583-3.388l-.034-.031C59.778,92.586,59.155,92.005,58.54,91.431ZM95.68,56.412a7.061,7.061,0,0,1-3.735,4.211,6.1,6.1,0,0,1-3.869.591c.244-1.818.443-3.8.588-5.929A3.06,3.06,0,0,1,91.676,54.2a1,1,0,0,0,.494-1.937,5.334,5.334,0,0,0-3.359.353c.061-1.254.109-2.514.14-3.787,1.129-.369,3.8-.594,4.784-.019a4.911,4.911,0,0,1,1.048.8c.006.006.007.015.013.021C96.616,51.481,96.281,54.34,95.68,56.412ZM36.055,60.623a7.061,7.061,0,0,1-3.735-4.211c-.6-2.072-.936-4.931.884-6.781.023-.024.045-.049.065-.074a4.958,4.958,0,0,1,1.006-.753c.972-.568,3.645-.344,4.774.025.031,1.273.079,2.533.14,3.787a5.334,5.334,0,0,0-3.359-.353,1,1,0,1,0,.5,1.935,3.06,3.06,0,0,1,3,1.087c.145,2.126.343,4.11.588,5.93A6.091,6.091,0,0,1,36.055,60.623Zm5.253-5.785c-.141-2.23-.231-4.41-.278-6.669-.1-4.684,2.011-18.218,9.683-20.4a1,1,0,0,0,.494-.32c3.92-4.685,8.657-7.119,13.8-7.119a16.837,16.837,0,0,1,2,.119c7.059.844,13.177,5.974,15.351,10.372,4.2,8.486,4.7,13.352,4.616,17.346h0c-.047,2.258-.137,4.438-.278,6.665-.166,2.533-.4,4.871-.711,6.945C84.85,69.29,82.66,73.817,78.67,76.909a31.126,31.126,0,0,1-7.934,3.979A23.8,23.8,0,0,1,64,82.42a23.975,23.975,0,0,1-6.833-1.562,31.47,31.47,0,0,1-7.825-3.939A16.888,16.888,0,0,1,43.72,68.9a37.387,37.387,0,0,1-1.7-7.115C41.713,59.706,41.474,57.368,41.308,54.838ZM46.688,95.5a7.231,7.231,0,0,1,.472-1.918,25.718,25.718,0,0,1,5.314-4.042.636.636,0,0,1,.249-.049,2.336,2.336,0,0,1,1.214.577l0,0,.005,0c.026.02.048.033.075.053a.913.913,0,0,0,.079.054c.894.671,1.955,1.662,3.077,2.71.436.406.875.816,1.311,1.213-2.475,4.439-8.231,12.3-11.2,13.109C46.3,106.8,45.83,100.677,46.688,95.5ZM31.257,117.691c-1.607-.872-3.5-2.062-3.88-3.538a4.013,4.013,0,0,1,.826-3.116c1.358-2.129,3.906-6.127,10.738-10.7a99.641,99.641,0,0,0-3.186,19.284A34.761,34.761,0,0,1,31.257,117.691Zm69.366-3.538c-.38,1.476-2.273,2.666-3.879,3.538a34.9,34.9,0,0,1-4.5,1.935,99.59,99.59,0,0,0-3.187-19.286c6.832,4.569,9.381,8.568,10.739,10.7A4.01,4.01,0,0,1,100.623,114.153Z"/><circle cx="64.032" cy="105.493" r="2.363"/></svg>