<svg id="Solid" xmlns="http://www.w3.org/2000/svg" viewBox="0 0 128 128"><title>avatar-01_7</title><path d="M47.539,44.642c2.106-1.736,5.657-2.022,8.677-.866a1.776,1.776,0,0,1,.962,1.809h0c-.072.816-.646,1.373-1.322,1.273a15.631,15.631,0,0,0-6.312.12c-1.443.471-2.113.073-2.359-.471A1.478,1.478,0,0,1,47.539,44.642Z"/><rect x="49.718" y="48.503" width="4.757" height="6.717" rx="2.378" ry="2.378" transform="translate(104.193 103.723) rotate(180)"/><path d="M78.473,44.642c-2.106-1.736-5.657-2.022-8.677-.866a1.776,1.776,0,0,0-.963,1.809h0a1.239,1.239,0,0,0,1.322,1.273,15.636,15.636,0,0,1,6.313.12c1.443.471,2.113.073,2.358-.471A1.478,1.478,0,0,0,78.473,44.642Z"/><rect x="71.537" y="48.503" width="4.757" height="6.717" rx="2.378" ry="2.378"/><path d="M73.46,71.783c-1.515,0-4.021-.748-8.467-3.479a3.576,3.576,0,0,0-3.762,0c-6.733,4.136-9.016,3.724-10.148,3.053a3.835,3.835,0,0,1-1.332-4.272c.473-1.731,2.724-5.756,13.361-5.756S76,65.354,76.473,67.085a3.835,3.835,0,0,1-1.332,4.272A3.151,3.151,0,0,1,73.46,71.783ZM63.112,65.768a5.591,5.591,0,0,1,2.928.832c6.171,3.79,7.814,3.194,8.082,3.036a1.924,1.924,0,0,0,.423-2.023c-.276-1-1.913-4.284-11.433-4.284s-11.157,3.279-11.433,4.284a1.924,1.924,0,0,0,.423,2.023c.268.16,1.911.756,8.082-3.036A5.594,5.594,0,0,1,63.112,65.768Z"/><circle cx="63.042" cy="104.291" r="1.734"/><path d="M63.042,61.681c-.029,0-2.9-.072-2.9-1.67a1,1,0,0,1,1.841-.541,2.767,2.767,0,0,0,2.117,0,1,1,0,0,1,1.842.54C65.942,61.609,63.071,61.681,63.042,61.681Z"/><path d="M63.032,70.252c-1.318,0-3.055-.183-3.841-1.049a1,1,0,0,1,1.477-1.348,4.615,4.615,0,0,0,2.364.4,4.609,4.609,0,0,0,2.376-.4A1,1,0,1,1,66.883,69.2C66.1,70.069,64.355,70.252,63.032,70.252Z"/><path d="M113.36,40.731l0,0c-2.164-4.352-9.989-9.108-20.557-12.518-.238-7.68-4.168-16.113-9.738-20.737C77.909,3.2,71.36,2.321,63.112,2.321s-14.8.876-19.949,5.151c-5.57,4.624-9.5,13.057-9.738,20.737-10.57,3.41-18.4,8.168-20.559,12.52a2.383,2.383,0,0,0-.162,2.586c1.184,1.977,5.2,3.248,13.784,4.362a8.856,8.856,0,0,0,2.713,3.4c-2.168,2.415-1.972,5.944-1.026,8.457,1.276,3.409,4.813,6.362,8.539,6.362a6.908,6.908,0,0,0,1.26-.125A28.208,28.208,0,0,0,53.486,85.151a7.1,7.1,0,0,1-.953,3.092,6.956,6.956,0,0,1-2.62,2.372,27.067,27.067,0,0,1-3.612,1.61c-.891.348-1.811.708-2.705,1.125l-.006,0-.029.013c-1.9.884-3.783,1.875-5.589,2.946-.014.009-.022.023-.035.032-8.447,5.042-12.593,10.394-14.312,13.136a6.246,6.246,0,0,0-1.117,4.97c.6,2.326,2.907,3.863,5.082,5.058a41.149,41.149,0,0,0,7.9,3.131,95.415,95.415,0,0,0,27.551,3.683,95.751,95.751,0,0,0,27.468-3.652.337.337,0,0,0,.046-.025,42.034,42.034,0,0,0,7.939-3.137c2.171-1.2,4.471-2.734,5.074-5.059a6.247,6.247,0,0,0-1.11-4.968c-1.744-2.782-5.96-8.21-14.6-13.311-1.717-1.008-3.515-1.952-5.34-2.8l-.035-.015-.006,0c-.906-.426-1.842-.793-2.747-1.147a28.119,28.119,0,0,1-3.512-1.555,6.985,6.985,0,0,1-2.677-2.4,7.1,7.1,0,0,1-.954-3.094A28.256,28.256,0,0,0,88.106,65.779a6.877,6.877,0,0,0,1.266.12c3.724,0,7.259-2.954,8.536-6.366a8.481,8.481,0,0,0-.71-8.022,9.726,9.726,0,0,0,2.786-3.832c8.394-1.088,12.336-2.361,13.544-4.378A2.38,2.38,0,0,0,113.36,40.731Zm-83.312,18.1c-.774-2.054-.948-4.952.924-6.7a10.073,10.073,0,0,0,4.225.938c.33,0,.661-.018.992-.05.045.545.1,1.156.158,1.808a6.587,6.587,0,0,0-2.835-.6,1,1,0,0,0,0,2,4.032,4.032,0,0,1,3.12,1.232c.266,2.271.586,4.431.938,6.355C34.482,64.344,31.163,61.807,30.048,58.829ZM36.9,50.891a8.183,8.183,0,0,1-5.6-.814A6.943,6.943,0,0,1,28.1,46.4c-.912-2.518-.158-5.256,2.095-7.745,6.536-.711,14.211-1.2,22.343-1.419a8.711,8.711,0,0,1-7.576,2.219,5.942,5.942,0,0,1-1.885-.768,1,1,0,1,0-1.074,1.687,7.824,7.824,0,0,0,1.937.849,6.365,6.365,0,0,1-.555,5.005A9.883,9.883,0,0,1,36.9,50.891Zm10.125,43.2c.714-.279,1.44-.566,2.149-.879-.522,5.724,1.921,9.27,4.384,10.619a3.329,3.329,0,0,0,1.624.429A5.6,5.6,0,0,0,58.322,103v9.942c-9.9-.265-10.306-1.479-11.342-4.554a41.721,41.721,0,0,1-1.99-13.46C45.663,94.63,46.351,94.352,47.028,94.088ZM34.719,120.3a36.885,36.885,0,0,1-6.165-2.543c-1.7-.933-3.7-2.208-4.11-3.808a4.4,4.4,0,0,1,.875-3.4c1.472-2.348,4.849-6.726,11.484-11.119A79.315,79.315,0,0,0,34.719,120.3Zm66.045-9.756a4.4,4.4,0,0,1,.869,3.4c-.328,1.265-1.555,2.4-4.1,3.809a37.988,37.988,0,0,1-6.268,2.57A83.547,83.547,0,0,0,89.031,99.26C95.829,103.711,99.27,108.159,100.764,110.542Zm-40.442,2.432V101.491a4.539,4.539,0,0,1,2.72-1.279,4.434,4.434,0,0,1,2.72,1.283v11.479c-.867.01-1.772.017-2.76.017C62.042,112.991,61.164,112.984,60.322,112.974ZM76.974,93.236c.672.293,1.354.566,2.029.83.691.27,1.395.555,2.082.857a41.97,41.97,0,0,1-2.05,13.458c-1.038,3.071-1.448,4.282-11.273,4.556V103a5.6,5.6,0,0,0,3.133,1.261,3.291,3.291,0,0,0,1.617-.429C75,102.465,77.478,98.92,76.974,93.236ZM73,90.727a9.9,9.9,0,0,0,1.814,1.4c.86,5.154-.989,8.7-3.27,9.949-.893.5-1.863-.134-3.037-1.009l-1.138-.857c-1.446-1.117-2.588-2-4.331-2s-2.946.92-4.33,1.987c-.011.008-.015.021-.025.029-.29.222-.6.461-.939.709l-.174.129c-1.176.876-2.148,1.5-3.051,1.008-2.249-1.232-4.065-4.789-3.184-10a9.694,9.694,0,0,0,1.738-1.352c1.8,3.27,6.608,6.068,9.965,6.068S71.2,94,73,90.727Zm-18.547-1.86a9,9,0,0,0,.943-2.9c.079.03.159.067.237.1a21.285,21.285,0,0,0,7.405,1.564,21.238,21.238,0,0,0,7.392-1.564c.079-.029.161-.067.24-.1a9.023,9.023,0,0,0,.949,2.91c-.733,2.62-5.436,5.912-8.581,5.912S55.179,91.49,54.457,88.867ZM86.369,64.359c-.025.134-.053.264-.08.392l-.074.36A26.323,26.323,0,0,1,71.138,83.623c-.476.2-.942.4-1.41.573a19.577,19.577,0,0,1-6.686,1.435,19.609,19.609,0,0,1-6.7-1.436c-.463-.174-.937-.367-1.393-.566A26.3,26.3,0,0,1,39.866,65.1l-.163-.75,0-.021c0-.011,0-.023-.006-.033-.419-2.133-.8-4.67-1.107-7.346,0-.012-.01-.022-.012-.035-.182-1.6-.315-3.113-.41-4.29a11.942,11.942,0,0,0,6.975-5.429A8.3,8.3,0,0,0,46.1,41.6c.161.008.32.025.484.025a10.483,10.483,0,0,0,8.629-4.456c1.977-.044,4.079-.072,6.379-.084A6.314,6.314,0,0,0,64.63,40.1a17.828,17.828,0,0,0,8.1,1.8,16.7,16.7,0,0,0,4.76-.647,7.455,7.455,0,0,0,5.661,5.582,7.664,7.664,0,0,0,4.758,5.689A113.411,113.411,0,0,1,86.369,64.359Zm9.666-5.528c-1.116,2.983-4.435,5.522-7.525,4.98.39-2.128.692-4.346.921-6.33a3.985,3.985,0,0,1,3.131-1.26,1,1,0,0,0,0-2,6.484,6.484,0,0,0-2.853.626c.064-.672.117-1.279.161-1.806a11.393,11.393,0,0,0,1.708.132,12.371,12.371,0,0,0,3.885-.614C96.93,54.34,96.729,56.985,96.035,58.831Zm-.841-8.312a9.893,9.893,0,0,1-5.961.349,5.589,5.589,0,0,1-3.95-3.858,5.432,5.432,0,0,0,1.734-.435,1,1,0,1,0-.81-1.828,3.857,3.857,0,0,1-2.1.243,5.041,5.041,0,0,1-4.606-6.226,1,1,0,0,0-1.946-.465,7.182,7.182,0,0,0-.146.856,16.39,16.39,0,0,1-11.842-.817,5.957,5.957,0,0,1-1.661-1.252,315.9,315.9,0,0,1,32.031,1.561c2.337,2.549,3.175,5.233,2.4,7.779A7.684,7.684,0,0,1,95.194,50.519Z"/></svg>