<svg id="Solid" xmlns="http://www.w3.org/2000/svg" viewBox="0 0 128 128"><title>avatar-02_15</title><rect x="48.81" y="47.349" width="5.588" height="6.413" rx="2.794" ry="2.794" transform="translate(103.208 101.111) rotate(-180)"/><rect x="73.603" y="47.349" width="5.588" height="6.413" rx="2.794" ry="2.794"/><path d="M64,67.6A7.708,7.708,0,1,1,71.707,59.9,7.716,7.716,0,0,1,64,67.6Z"/><path d="M47.259,47.668a1,1,0,0,1-.8-1.6c2.076-2.79,7.187-4.069,9.758-3.122a1,1,0,1,1-.691,1.877c-1.83-.675-6,.474-7.463,2.439A1,1,0,0,1,47.259,47.668Z"/><path d="M64,72.427c-7.536,0-11.538-3.967-12.909-5.673A1,1,0,1,1,52.65,65.5c1.19,1.481,4.679,4.926,11.35,4.926S74.16,66.982,75.351,65.5a1,1,0,1,1,1.558,1.253C75.538,68.46,71.536,72.427,64,72.427Z"/><path d="M80.742,47.668a1,1,0,0,1-.8-.4c-1.461-1.961-5.631-3.113-7.467-2.447a1,1,0,0,1-.684-1.88c2.571-.935,7.682.35,9.754,3.133a1,1,0,0,1-.8,1.6Z"/><path d="M91.714,66.213a7.133,7.133,0,0,0,3.14-.77,11.5,11.5,0,0,0,5.56-6.675,11.182,11.182,0,0,0,.487-3.111,6.528,6.528,0,0,0,3.071-2.444,7.743,7.743,0,0,1,1.263-1.327A9.752,9.752,0,0,1,107,51.018c1.389-.58,2.962-1.237,3.655-2.781a6.134,6.134,0,0,0-.113-4.022,8.514,8.514,0,0,1-.373-2.417,7.1,7.1,0,0,1,.723-2.12,6.987,6.987,0,0,0,.9-4.027,6.645,6.645,0,0,0-2.046-3.212,7.25,7.25,0,0,1-1.527-2.007A6.819,6.819,0,0,1,108,28.08a6.969,6.969,0,0,0-.714-3.884,6.776,6.776,0,0,0-3.092-2.247,7.043,7.043,0,0,1-2.129-1.3,6.913,6.913,0,0,1-1.08-2.226,7.931,7.931,0,0,0-2.009-3.51,7.5,7.5,0,0,0-3.531-1.327,7.379,7.379,0,0,1-2.621-.831,7,7,0,0,1-1.631-1.975A7.746,7.746,0,0,0,88.482,7.9a7.478,7.478,0,0,0-3.822-.46,7.36,7.36,0,0,1-2.678-.161,7.145,7.145,0,0,1-2.074-1.486A7.62,7.62,0,0,0,76.522,3.7a12.49,12.49,0,0,0-3.888.029,16.418,16.418,0,0,1-2.553.152,6.749,6.749,0,0,1-2.338-.826,7.2,7.2,0,0,0-7.486,0,6.744,6.744,0,0,1-2.34.826,15.9,15.9,0,0,1-2.55-.152A12.564,12.564,0,0,0,51.482,3.7a7.611,7.611,0,0,0-3.39,2.09,7.136,7.136,0,0,1-2.076,1.487,7.373,7.373,0,0,1-2.676.16,7.468,7.468,0,0,0-3.823.461,7.73,7.73,0,0,0-2.71,2.885,6.993,6.993,0,0,1-1.634,1.977,7.389,7.389,0,0,1-2.618.829,7.481,7.481,0,0,0-3.535,1.331,7.916,7.916,0,0,0-2,3.506,6.916,6.916,0,0,1-1.079,2.225,7.055,7.055,0,0,1-2.13,1.3,6.778,6.778,0,0,0-3.091,2.243A6.99,6.99,0,0,0,20,28.08a6.815,6.815,0,0,1-.217,2.348,7.24,7.24,0,0,1-1.53,2.011A6.662,6.662,0,0,0,16.2,35.655a6.99,6.99,0,0,0,.906,4.023,7.1,7.1,0,0,1,.721,2.118,8.478,8.478,0,0,1-.372,2.419,6.134,6.134,0,0,0-.112,4.022c.692,1.544,2.266,2.2,3.654,2.781a9.752,9.752,0,0,1,1.763.868,7.783,7.783,0,0,1,1.264,1.327,6.539,6.539,0,0,0,3.07,2.44,11.2,11.2,0,0,0,.486,3.111,11.5,11.5,0,0,0,5.562,6.679,7.129,7.129,0,0,0,3.139.77,6.126,6.126,0,0,0,1.092-.1,26.637,26.637,0,0,0,4.288,8.718C28.154,78.281,22.378,84.977,19.235,88.639c-.337.394-.648.756-.939,1.08a4.071,4.071,0,0,0-.86,3.793c.124.452.218.931.312,1.408a7.93,7.93,0,0,0,1.4,3.723,7.289,7.289,0,0,0,3.428,1.911,7.111,7.111,0,0,1,2.311,1.081,4.809,4.809,0,0,1,.93,1.278,59.683,59.683,0,0,0-4.1,5.114,6.645,6.645,0,0,0-1.185,5.28c.638,2.465,3.1,4.106,5.421,5.387,1.358.748,13.968,7.314,38.052,7.314s36.695-6.566,38.053-7.315c2.322-1.28,4.782-2.921,5.421-5.386a6.649,6.649,0,0,0-1.189-5.284,59.62,59.62,0,0,0-4.1-5.11,4.783,4.783,0,0,1,.926-1.275,7.114,7.114,0,0,1,2.315-1.084,7.285,7.285,0,0,0,3.425-1.908,7.924,7.924,0,0,0,1.4-3.726c.095-.477.189-.956.314-1.413a4.065,4.065,0,0,0-.862-3.788c-.289-.322-.6-.683-.935-1.075-3.145-3.664-8.926-10.361-22.434-13.811a26.635,26.635,0,0,0,4.287-8.718A6.134,6.134,0,0,0,91.714,66.213Zm-7.907,8.611c-.009.012-.019.022-.027.034a31.192,31.192,0,0,1-10.861,8.323A21.674,21.674,0,0,1,64,85.258a21.681,21.681,0,0,1-8.919-2.077,31.18,31.18,0,0,1-10.86-8.323c-.009-.012-.018-.021-.026-.033a24.816,24.816,0,0,1-5.142-10.16,78.827,78.827,0,0,1-1.893-10.29c.227-.24.456-.478.677-.729a6.913,6.913,0,0,1,1.883-1.71,6.974,6.974,0,0,1,2.435-.425A7.276,7.276,0,0,0,46,50.519a6.941,6.941,0,0,0,2.066-3.2l.073-.178c.015-.028.028-.057.041-.086h0A6.651,6.651,0,0,1,49.338,45a6.7,6.7,0,0,1,2.081-1.165,7.505,7.505,0,0,0,3.365-2.251,7.049,7.049,0,0,0,.952-3.519,7.144,7.144,0,0,1,.581-2.7A6.452,6.452,0,0,1,58.082,33.7a7.81,7.81,0,0,0,2.7-2.881,7.235,7.235,0,0,0,.266-3.568,6.855,6.855,0,0,1,.106-2.808,1.808,1.808,0,0,1,.1-.227,3.162,3.162,0,0,1,5.5-.009,2.1,2.1,0,0,1,.112.257,6.866,6.866,0,0,1,.1,2.787,7.24,7.24,0,0,0,.268,3.569,7.793,7.793,0,0,0,2.693,2.88,6.457,6.457,0,0,1,1.766,1.669,7.183,7.183,0,0,1,.581,2.7,7.035,7.035,0,0,0,.954,3.523,7.515,7.515,0,0,0,3.362,2.247A6.7,6.7,0,0,1,78.661,45a6.652,6.652,0,0,1,1.156,2.048h0c.012.029.026.058.041.086l.073.178A6.945,6.945,0,0,0,82,50.521a7.279,7.279,0,0,0,3.847.99,6.956,6.956,0,0,1,2.438.427,6.889,6.889,0,0,1,1.879,1.708c.223.253.448.5.676.741a78.815,78.815,0,0,1-1.891,10.278A24.841,24.841,0,0,1,83.807,74.824ZM93.975,63.647a4.978,4.978,0,0,1-2.859.513,82.434,82.434,0,0,0,1.571-8.317,3.968,3.968,0,0,0,.5.215,5.17,5.17,0,0,0,1.623.236,15.293,15.293,0,0,0,2.513-.285c.547-.093,1.071-.176,1.566-.22a9.019,9.019,0,0,1-.386,2.382A9.406,9.406,0,0,1,93.975,63.647Zm-59.949,0a9.409,9.409,0,0,1-4.532-5.48,8.965,8.965,0,0,1-.384-2.378c.5.044,1.018.127,1.566.22a8.724,8.724,0,0,0,4.136.049,3.968,3.968,0,0,0,.5-.215,82.155,82.155,0,0,0,1.571,8.317A4.975,4.975,0,0,1,34.026,63.647Zm73.225,26.3c.347.4.666.775.965,1.108a2.044,2.044,0,0,1,.419,1.929c-.136.5-.241,1.023-.345,1.548a6.536,6.536,0,0,1-.964,2.821,5.861,5.861,0,0,1-2.546,1.309,8.613,8.613,0,0,0-2.994,1.477,8.034,8.034,0,0,0-1.7,2.477l0,.007,0,0-.138.283a5.956,5.956,0,0,1-1.61,2.373,5.957,5.957,0,0,1-2.762.559,8.543,8.543,0,0,0-3.355.652,8.463,8.463,0,0,0-2.513,2.275,6.065,6.065,0,0,1-2.116,1.891A6.014,6.014,0,0,1,84.8,110.6a8.428,8.428,0,0,0-3.456-.079,8.337,8.337,0,0,0-2.965,1.753,6.121,6.121,0,0,1-2.418,1.429,6.107,6.107,0,0,1-2.74-.566,8.321,8.321,0,0,0-3.394-.694,8.188,8.188,0,0,0-3.243,1.239,6.006,6.006,0,0,1-2.579,1,6.015,6.015,0,0,1-2.579-1,8.179,8.179,0,0,0-3.241-1.239,8.314,8.314,0,0,0-3.4.694,6.11,6.11,0,0,1-2.74.566,6.135,6.135,0,0,1-2.418-1.429,8.32,8.32,0,0,0-2.963-1.752,8.387,8.387,0,0,0-3.458.078,5.983,5.983,0,0,1-2.788.061,6.048,6.048,0,0,1-2.116-1.891,8.454,8.454,0,0,0-2.516-2.276,8.539,8.539,0,0,0-3.352-.651,5.966,5.966,0,0,1-2.76-.557,5.941,5.941,0,0,1-1.612-2.375l-.139-.282,0,0-.006-.011a7.985,7.985,0,0,0-1.7-2.475,8.6,8.6,0,0,0-2.989-1.474,5.861,5.861,0,0,1-2.55-1.313,6.565,6.565,0,0,1-.961-2.817c-.1-.525-.209-1.051-.343-1.543a2.045,2.045,0,0,1,.417-1.934c.3-.334.622-.708.969-1.113,3.279-3.822,8.752-10.174,22.283-13.393a31.715,31.715,0,0,0,2.423,2.524,26.5,26.5,0,0,0-11.984,7.633,1,1,0,1,0,1.551,1.263,24.919,24.919,0,0,1,12.247-7.322,33.52,33.52,0,0,0,4.915,3.307,30.029,30.029,0,0,0-8.114,10.678,1,1,0,1,0,1.853.752,28.492,28.492,0,0,1,8.225-10.432c.033.016.068.034.1.049A24.208,24.208,0,0,0,63,87.228v11.53a1,1,0,0,0,2,0V87.228A24.2,24.2,0,0,0,73.747,85c.034-.015.068-.033.1-.049a28.645,28.645,0,0,1,8.227,10.433,1,1,0,0,0,.925.622.981.981,0,0,0,.377-.074,1,1,0,0,0,.55-1.3,30.043,30.043,0,0,0-8.114-10.678,33.637,33.637,0,0,0,4.914-3.306A25.068,25.068,0,0,1,92.976,87.97a1,1,0,0,0,1.55-1.264,26.5,26.5,0,0,0-11.984-7.633,31.7,31.7,0,0,0,2.422-2.524C98.493,79.769,103.971,86.123,107.251,89.947Z"/></svg>