<svg id="Solid" xmlns="http://www.w3.org/2000/svg" viewBox="0 0 128 128"><title>avatar-02_18</title><rect x="49.602" y="51.75" width="4.137" height="5.238" rx="1.976" ry="1.976" transform="translate(103.341 108.739) rotate(180)"/><rect x="74.261" y="51.75" width="4.137" height="5.238" rx="1.976" ry="1.976"/><path d="M56.28,53.521a1,1,0,0,1-.926-.622c-.084-.173-.774-.619-2.284-.822-2.093-.282-4.327.094-4.976.84A1,1,0,0,1,46.586,51.6c1.314-1.511,4.563-1.877,7.1-1.457,1.326.22,3.013.745,3.524,2a1,1,0,0,1-.926,1.379Z"/><path d="M71.713,53.488a.945.945,0,0,1-.387-.082.974.974,0,0,1-.532-1.264c.511-1.251,2.2-1.776,3.524-2,2.533-.418,5.782-.054,7.1,1.457a1,1,0,0,1-1.508,1.314c-.649-.746-2.886-1.121-4.976-.84-1.511.2-2.2.65-2.285.822A1.045,1.045,0,0,1,71.713,53.488Z"/><path d="M70.3,50.01a1,1,0,0,1-.339-1.941c4.368-1.573,10.758-2.369,14.468-.4a1,1,0,0,1-.938,1.768c-3-1.59-8.861-.92-12.852.517A1.013,1.013,0,0,1,70.3,50.01Z"/><path d="M57.71,50.01a1,1,0,0,1-.338-.059c-4-1.437-9.863-2.107-12.852-.518a1,1,0,0,1-.94-1.766c3.7-1.967,10.094-1.169,14.468.4a1,1,0,0,1-.338,1.941Z"/><path d="M113.56,106.2c-3.237-5-7.855-9.559-14.109-13.925-.018-.015-.037-.027-.055-.04l0,0a95.443,95.443,0,0,0-9.544-5.823c-.849-.451-1.713-.858-2.463-1.2a.969.969,0,0,0-.294-.139l-.124-.058c-.9-.424-1.826-.858-2.724-1.316a20.662,20.662,0,0,1-2.761-1.653,31.107,31.107,0,0,0,7.012-12.6,9.671,9.671,0,0,0,1.351.109c4.741,0,7.623-3.793,8.792-7.732,1.243-4.2-.068-8.413-3.05-10.193q.194-1.1.325-2.26a2.141,2.141,0,0,0,1.946-2.18,5.043,5.043,0,0,0-1.449-3.111c2.7-27.8-12.787-34.362-27.813-38.1a4.6,4.6,0,0,0-9.106-.02C44.416,9.691,28.883,16.267,31.6,44.162A4.925,4.925,0,0,0,30.22,47.18a2.116,2.116,0,0,0,1.861,2.164q.132,1.15.33,2.277c-2.983,1.782-4.292,5.995-3.05,10.193,1.169,3.938,4.05,7.731,8.792,7.731a9.683,9.683,0,0,0,1.351-.109,31.116,31.116,0,0,0,7.012,12.6,21.086,21.086,0,0,1-2.768,1.657c-.834.434-1.692.831-2.539,1.224l-.4.187c-.863.4-1.781.838-2.661,1.305a95.18,95.18,0,0,0-9.538,5.82l-.032.023c-6.27,4.373-10.9,8.935-14.136,13.944a6.238,6.238,0,0,0-1.014,5.03c.834,3.327,4.542,5.708,7.256,7.207.481.269,1,.525,1.535.759l.054.024c7.109,3.209,22.171,6.545,39.842,6.774.625.01,1.251.01,1.886.01,18.365,0,34.522-3.524,41.749-6.793.554-.242,1.081-.5,1.564-.771,2.718-1.5,6.426-3.883,7.26-7.21A6.238,6.238,0,0,0,113.56,106.2Zm-52.09,6.559a2.574,2.574,0,0,1,2.56-2.526,2.675,2.675,0,0,1,.63.073,2.562,2.562,0,0,1,.1,4.938,2.447,2.447,0,0,0-1.728,2.349v2.86a.564.564,0,0,1-.57.57h-.42a.566.566,0,0,1-.57-.56Zm2.56-4.547c-4.006-.8-19.071-9.979-21.658-21.632.511-.238,1.019-.487,1.527-.737,8.917,11.963,19.356,15.326,19.8,15.465a1,1,0,0,0,.594,0c.448-.139,10.887-3.5,19.8-15.465.527.259,1.053.515,1.579.763C83.075,98.244,68.029,107.407,64.03,108.209ZM34.316,50.894c-.082-.5-.154-.995-.215-1.5a27.664,27.664,0,0,0,3.056-.51c-.068.7-.108,1.347-.128,1.971A7.578,7.578,0,0,0,34.316,50.894Zm56.653-.037c-.021-.625-.062-1.287-.129-1.989a30.789,30.789,0,0,0,3.062.518c-.062.5-.134,1.009-.217,1.508A7.573,7.573,0,0,0,90.969,50.857Zm-49.8,17.177a54.885,54.885,0,0,1-1.537-7.985c0-.018,0-.036-.005-.053-.3-2.425-.507-5.05-.6-7.8a26.222,26.222,0,0,1,.2-3.784c.592-.136,1.2-.28,1.85-.432,5.918-1.394,14.025-3.3,22.968-3.3,8.965,0,17.076,1.917,23,3.317.607.144,1.181.278,1.739.408a27.658,27.658,0,0,1,.2,3.79c-.1,2.751-.3,5.376-.6,7.8,0,.015,0,.031,0,.048a54.813,54.813,0,0,1-1.536,7.987,29.36,29.36,0,0,1-7.459,13.336.839.839,0,0,0-.094.085c-.355.364-.728.729-1.12,1.081A22.613,22.613,0,0,1,64,88.28a22.616,22.616,0,0,1-14.171-5.754c-.385-.345-.758-.71-1.113-1.074a1.029,1.029,0,0,0-.092-.083A29.35,29.35,0,0,1,41.164,68.034Zm6.768,15.442c.185.178.365.362.552.531A24.392,24.392,0,0,0,64,90.28a24.389,24.389,0,0,0,15.509-6.266c.192-.173.372-.358.559-.538a19.439,19.439,0,0,0,2.219,1.431C74.633,95.017,65.726,98.662,64,99.292c-1.727-.626-10.615-4.248-18.287-14.387A19.225,19.225,0,0,0,47.932,83.476ZM96.721,61.245c-.5,1.672-2.472,6.8-7.685,6.248a57.918,57.918,0,0,0,1.285-6.937,5.623,5.623,0,0,1,3.37-1.951,1,1,0,0,0,.905-1.082.977.977,0,0,0-1.083-.909,7.134,7.134,0,0,0-2.876,1.05c.141-1.53.246-3.119.314-4.756a5.287,5.287,0,0,1,3.134.18C96.639,54.189,97.772,57.7,96.721,61.245ZM64.04,4a2.645,2.645,0,0,1,2.286,1.433,11.341,11.341,0,0,0-4.562-.014A2.637,2.637,0,0,1,64.04,4Zm-3.4,3.723,1.246-.3a9.346,9.346,0,0,1,4.241,0c.433.1.876.206,1.313.316,17.985,4.384,28.839,11.777,27.117,34.566-5.21-4.184-16.8-9.148-30.519-9.148-13.849,0-25.422,5-30.592,9.212C31.725,19.516,42.611,12.108,60.642,7.723ZM31.279,61.246c-1.051-3.55.082-7.057,2.64-8.159a5.267,5.267,0,0,1,3.131-.179c.067,1.636.172,3.225.313,4.756a7.129,7.129,0,0,0-2.876-1.05,1,1,0,0,0-.174,1.992,5.728,5.728,0,0,1,3.366,1.951,58.029,58.029,0,0,0,1.285,6.937C33.752,68.049,31.775,62.918,31.279,61.246ZM15.366,110.74a4.268,4.268,0,0,1,.754-3.456,46.406,46.406,0,0,1,11.01-11.49c-3.833,10.976-4.992,17.989-5.337,20.959-.044-.024-.1-.044-.14-.068C17.907,114.615,15.851,112.67,15.366,110.74Zm46.777,13.25c-16.792-.218-31.455-3.382-38.436-6.339.228-2.317,1.334-10.475,6.3-23.955a93.562,93.562,0,0,1,9.079-5.522c.466-.247.948-.486,1.429-.719,2.587,10.345,14.187,19.059,20.6,21.862a4.562,4.562,0,0,0-1.651,3.423v7.72a2.589,2.589,0,0,0,2.66,2.56h.33a2.573,2.573,0,0,0,2.57-2.57v-2.86a.444.444,0,0,1,.294-.431,4.59,4.59,0,0,0,3.141-5.431,4.534,4.534,0,0,0-1.5-2.421C73.373,106.5,84.938,97.8,87.533,87.481c.454.218.918.448,1.374.69A93.92,93.92,0,0,1,97.99,93.7c5.019,13.61,6.092,21.711,6.307,23.954C96.97,120.759,81.561,124,64,124,63.375,124,62.761,124,62.143,123.99Zm50.491-13.25c-.485,1.93-2.541,3.875-6.291,5.947-.043.024-.092.047-.136.071-.341-2.886-1.5-9.964-5.336-20.963a46.423,46.423,0,0,1,11.01,11.489A4.271,4.271,0,0,1,112.634,110.74Z"/><path d="M64,66.9c3.7,0,5.4,1.158,7.646,2.433a1.251,1.251,0,0,1-.492,2.336c-2.94.2-5.629-.9-7.154-.9h0c-1.525,0-4.214,1.1-7.154.9a1.251,1.251,0,0,1-.492-2.336C58.6,68.057,60.3,66.9,64,66.9Z"/><path d="M64.01,66.1c-.037,0-3.75-.116-3.75-1.97a1,1,0,0,1,1.9-.429,4.5,4.5,0,0,0,3.7,0,1,1,0,0,1,1.9.429C67.77,65.984,64.047,66.1,64.01,66.1Z"/></svg>