<svg id="Solid" xmlns="http://www.w3.org/2000/svg" viewBox="0 0 128 128"><title>avatar-03_21</title><path d="M110.692,106.275A62.045,62.045,0,0,0,86.947,84.808a47.816,47.816,0,0,0,9.191-12.847l.023-.045q.689-1.372,1.353-2.876c.06-.137.121-.273.181-.411.388-.9.767-1.83,1.138-2.8.083-.218.167-.437.249-.657q.521-1.4,1.014-2.9c.034-.1.073-.2.106-.3.8-2.43,1.53-5.07,2.17-7.85.162-.7.319-1.45.466-2.243v0a46.9,46.9,0,0,0-.3-19.383c0-.01-.01-.02-.01-.04-.049-.2-.114-.4-.167-.6-.086-.334-.184-.669-.28-1-.088-.3-.169-.6-.265-.9-.224-.717-.468-1.436-.742-2.155a.078.078,0,0,1-.006-.023.564.564,0,0,1-.04-.12C93.572,11.6,79.732,2.005,64,2.005h0c-15.727,0-29.569,9.588-37.054,25.709-.284.738-.534,1.475-.766,2.211-.046.146-.085.3-.13.443q-.268.891-.492,1.775c-.022.092-.053.18-.075.272a.637.637,0,0,1-.02.07c-.068.281-.123.559-.184.838-.03.137-.063.275-.091.411A47.318,47.318,0,0,0,25.3,52.6c.109.54.218,1.057.326,1.522s.227.934.342,1.4c.064.261.126.525.192.783.054.214.111.42.166.63.139.529.278,1.054.423,1.569.054.193.11.38.165.571.132.457.264.913.4,1.359s.268.86.4,1.284c.028.086.054.176.082.262.007.021.015.04.021.061q.577,1.769,1.19,3.394l.046.122c3.52,9.3,7.869,15.2,11.991,19.255A62.219,62.219,0,0,0,17.3,106.275c-1.32,2.12-1.75,4-1.3,5.76.7,2.69,3.4,4.49,5.94,5.89a39.291,39.291,0,0,0,5.43,2.41c2.03.74,4.17,1.41,6.36,2A116.033,116.033,0,0,0,63,126V95.852c.332.013.663.037,1,.037s.669-.024,1-.037V126a116.545,116.545,0,0,0,29.28-3.66c2.19-.6,4.33-1.27,6.35-2a39.517,39.517,0,0,0,5.41-2.4c2.55-1.41,5.25-3.21,5.95-5.9C112.452,110.275,112.022,108.4,110.692,106.275ZM27.524,53.444c-.094-.41-.184-.847-.274-1.292-.038-.2-.078-.384-.116-.588-.082-.435-.158-.89-.232-1.353-.052-.329-.1-.672-.149-1.019-.028-.2-.052-.4-.078-.6q-.12-.966-.208-2.01c-.018-.213-.037-.424-.053-.64-.026-.379-.048-.766-.066-1.158-.017-.375-.028-.756-.035-1.14s-.014-.746-.013-1.128c0-.605.015-1.217.043-1.839q.012-.262.027-.528a41.082,41.082,0,0,1,.6-5.089c7.4,8.19,30.38,11.92,37.06,11.92,6.917,0,29.6-3.587,37.009-11.818.02.109.042.219.061.329.126.74.237,1.477.321,2.2.027.242.043.479.067.719q.074.753.12,1.493c.022.353.042.7.054,1.051.015.374.019.741.024,1.108q.014,1-.015,1.962c-.007.228-.012.456-.022.68-.019.438-.043.87-.073,1.292-.01.136-.022.267-.033.4q-.094,1.2-.236,2.294c-.018.145-.036.293-.055.436-.054.4-.11.788-.17,1.163l-.008.044c-.124.777-.259,1.5-.4,2.161-.023.111-.046.221-.069.329-.058.272-.116.537-.174.786-3.278,7.458-7.622,11.977-12.924,13.425-7.53,2.06-15.44-2.51-19.48-5.42a6.906,6.906,0,0,0-8.08,0c-4.03,2.91-11.94,7.49-19.47,5.42-5.3-1.45-9.648-5.978-12.928-13.455C27.545,53.537,27.534,53.488,27.524,53.444Zm72.948-20.937c.006.024.011.048.017.072-5.055,8.137-28.938,12.4-36.457,12.4s-31.43-4.29-36.5-12.47c.19-.77.41-1.53.65-2.26,7.21,8.55,30.14,11.63,35.82,11.63a83.6,83.6,0,0,0,19.22-3.07c5.79-1.6,13.03-4.34,16.59-8.56C100.055,31,100.276,31.75,100.472,32.507ZM40.562,72.365c-4.49-1.23-8.11-4.87-10.77-10.82a19,19,0,0,0,10.16,7.42,16.925,16.925,0,0,0,4.48.59c6.77,0,13.14-3.76,16.69-6.32a4.941,4.941,0,0,1,5.75,0c4.32,3.12,12.83,8.02,21.17,5.73a18.951,18.951,0,0,0,10.17-7.43c-2.66,5.95-6.28,9.6-10.78,10.83-7.37,2.02-15.55-2.76-19.77-5.8A6.568,6.568,0,0,0,64,65.105a6.57,6.57,0,0,0-3.67,1.46C56.112,69.605,47.942,74.4,40.562,72.365Zm-7.19,47.78c-1.49-.42-2.94-.87-4.35-1.36C32.56,109.55,39.575,97.068,47.31,89.967q.643.451,1.248.864C41.35,100.08,36.672,111.2,33.372,120.145Zm61.27,0c-3.32-8.959-8.009-20.1-15.2-29.317.4-.276.819-.562,1.247-.864,8.236,7.551,15.242,20.894,18.291,28.811C97.572,119.265,96.122,119.725,94.642,120.145Z"/></svg>