<svg id="Solid" xmlns="http://www.w3.org/2000/svg" viewBox="0 0 128 128"><title>avatar-02_12</title><path d="M57,48.872a5.687,5.687,0,0,0-2.776-2.355,8.222,8.222,0,0,0-3.458-.54,10.007,10.007,0,0,0-3.3.769,4.481,4.481,0,0,0-2.613,2.127.633.633,0,0,0,.724.863l.066-.015a23.752,23.752,0,0,0,2.577-1.047,9.254,9.254,0,0,1,1.989-.464A2.564,2.564,0,0,0,49.125,50.3v1.085a2.573,2.573,0,1,0,5.145,0V50.3a2.548,2.548,0,0,0-.632-1.671,4.1,4.1,0,0,1,1.693,1.321l.006.008A1,1,0,0,0,57,48.872Z"/><path d="M57.931,44.246a1,1,0,0,0,.756-1.852c-2.593-1.058-10.484-4.276-16.188.135a1,1,0,1,0,1.223,1.582C48.518,40.4,55.6,43.3,57.931,44.246Z"/><path d="M102.26,109.62a38.255,38.255,0,0,0-5.568-6.673c-.049-.048-.1-.1-.151-.144-.355-.344-.723-.692-1.113-1.046-.107-.1-.224-.2-.334-.3-.345-.309-.7-.618-1.068-.932-.164-.139-.341-.279-.51-.418-.338-.277-.675-.554-1.034-.833-.22-.171-.454-.342-.682-.514-.331-.249-.659-.5-1.007-.746-.274-.2-.564-.392-.849-.588-.326-.223-.647-.446-.987-.668s-.671-.425-1.011-.637c-.324-.2-.644-.4-.98-.6-.375-.223-.768-.442-1.159-.661-.327-.184-.649-.367-.987-.548-.42-.225-.857-.443-1.293-.662-.246-.123-.476-.251-.727-.372l-.7-.34c-.272-.125-.552-.25-.832-.375-.081-.037-.161-.075-.244-.112l-.186-.085c-1.02-.471-2.079-.952-3.038-1.518-.271-.158-.524-.321-.768-.486-.062-.042-.124-.086-.186-.13-.186-.132-.365-.266-.535-.4-.066-.053-.131-.106-.2-.16q-.251-.212-.478-.432c-.051-.05-.1-.1-.154-.15q-.243-.247-.46-.508l-.059-.07a15.476,15.476,0,0,0,3.615.529,4.48,4.48,0,0,0,2.71-.71,2.671,2.671,0,0,0,.99-2.53c-.18-1.8,1-3.24,2.97-5.61a49.281,49.281,0,0,0,9.89-17.93,8.894,8.894,0,0,0,2.89-11.63c2.52-14.19-.29-27.05-7.95-36.25A33.923,33.923,0,0,0,64,2C57.38,2,48.91,4.75,45.89,9.86c-12.32,3.48-18.6,20.03-15.06,39.7-1.96,1.99-2.48,4.99-1.38,8.38a8.456,8.456,0,0,0,3.41,4.32,49.281,49.281,0,0,0,9.89,17.93c1.97,2.37,3.15,3.81,2.97,5.61a2.671,2.671,0,0,0,.99,2.53,4.48,4.48,0,0,0,2.71.71,15.476,15.476,0,0,0,3.615-.529l-.057.067c-.149.179-.306.353-.474.521-.039.04-.08.079-.12.118-.171.166-.348.328-.537.485l-.114.093c-.2.164-.415.325-.64.481-.029.021-.058.042-.088.062-.255.174-.521.345-.8.512-.959.566-2.018,1.047-3.038,1.518l-.186.085q-.543.244-1.074.491l-.014.007-.7.329c-.347.168-.669.344-1.006.515-.3.154-.608.306-.9.463-.468.248-.917.5-1.364.756-.266.152-.537.3-.8.455-.455.269-.891.541-1.324.815-.227.143-.459.284-.68.428-.446.291-.872.583-1.294.877-.184.128-.375.255-.555.384-.44.314-.859.628-1.272.942-.142.108-.29.216-.429.324-.439.341-.855.679-1.262,1.016-.1.08-.2.16-.292.24-.439.37-.855.734-1.258,1.1l-.154.136q-.669.608-1.269,1.194h0a38.3,38.3,0,0,0-5.592,6.7,6.108,6.108,0,0,0-1.08,4.84,5.206,5.206,0,0,0,1.077,2.009A13.314,13.314,0,0,0,29.6,119.39a43.117,43.117,0,0,0,8.056,3.144,90.593,90.593,0,0,0,24.329,3.449Q62.979,126,64,126t2.011-.017c14.042-.239,23.485-2.941,28.42-4.828a32.9,32.9,0,0,0,3.966-1.766,14.414,14.414,0,0,0,3.585-2.59c.029-.031.064-.059.092-.091s.032-.043.051-.063a5.345,5.345,0,0,0,1.215-2.185A6.108,6.108,0,0,0,102.26,109.62ZM89.76,56.76a4.2,4.2,0,0,1,3.62-1.41,1,1,0,0,0,.27-1.98,6.809,6.809,0,0,0-3.49.57c.15-1.24.28-2.53.39-3.88l1.39.33a.984.984,0,0,0,.87-.22,1.037,1.037,0,0,0,.31-.57,5.406,5.406,0,0,1,1.27.38,4.634,4.634,0,0,1,1.79,1.46c1.07,1.45,1.24,3.54.47,5.88a6.7,6.7,0,0,1-2.89,3.47,7.489,7.489,0,0,1-5.11,1.17Q89.295,59.53,89.76,56.76ZM34.23,60.78a6.67,6.67,0,0,1-2.88-3.46c-.91-2.82-.48-5.24,1.21-6.66a4.427,4.427,0,0,1,1.05-.68,5.8,5.8,0,0,1,3.85-.22c.11,1.46.24,2.86.4,4.19a6.826,6.826,0,0,0-3.51-.58,1,1,0,0,0,.27,1.98,4.173,4.173,0,0,1,3.62,1.41c.3,1.86.66,3.59,1.08,5.21A7.522,7.522,0,0,1,34.23,60.78ZM50.31,76.22c-4.27-3.3-7.06-7.69-8.8-13.8a64.442,64.442,0,0,1-2.09-13.35c-.91-11.85,6.86-22.97,9.53-26.13,3.286,6.441,11.281,13.684,21.128,19.147-.264.1-.521.207-.766.308a1,1,0,1,0,.757,1.85c.485-.2,1.353-.549,2.4-.9,2.008,1.031,4.075,1.961,6.176,2.824a10.289,10.289,0,0,0-1.415-.194,8.222,8.222,0,0,0-3.458.54A5.687,5.687,0,0,0,71,48.872a.995.995,0,0,0,1.663,1.086l.006-.007a4.1,4.1,0,0,1,1.693-1.321A2.548,2.548,0,0,0,73.73,50.3v1.085a2.573,2.573,0,1,0,5.145,0V50.3a2.564,2.564,0,0,0-1.083-2.091,9.254,9.254,0,0,1,1.989.464,23.752,23.752,0,0,0,2.577,1.047l.066.015a.633.633,0,0,0,.724-.863,3.261,3.261,0,0,0-1.354-1.486c2.227.81,4.485,1.552,6.786,2.173A62.987,62.987,0,0,1,86.46,62.4c-1.78,6.16-4.56,10.55-8.76,13.81a52.4,52.4,0,0,1-6.4,4.04c-3.12,1.66-5.78,2.61-7.3,2.61s-4.18-.95-7.3-2.61A52.657,52.657,0,0,1,50.31,76.22ZM63.77,97.65c-1.09,2.57-5.65,6.21-7.31,7.48a1,1,0,0,1-1.21,0c-1.846-1.419-7.418-5.917-9.255-10,.254-.123.493-.251.753-.373.347-.162.7-.321,1.053-.481.92-.417,1.864-.85,2.785-1.347a20.138,20.138,0,0,0,13.187,4.714Zm-.125-2.013c-.463-.008-.925-.022-1.379-.058-.264-.021-.521-.06-.782-.091-.3-.035-.607-.067-.9-.116s-.592-.113-.886-.174c-.243-.051-.488-.1-.727-.16-.32-.08-.632-.173-.944-.268-.2-.06-.393-.12-.586-.186q-.5-.173-.986-.373-.228-.093-.451-.192c-.349-.155-.692-.318-1.027-.5-.1-.053-.2-.108-.3-.163-.368-.2-.731-.416-1.079-.646-.035-.023-.069-.049-.1-.072-.385-.259-.759-.53-1.116-.82a10.6,10.6,0,0,0,4.15-5.658l.015-.047c.1-.316.189-.643.268-.987.019-.082.033-.168.051-.251.062-.3.123-.591.169-.907.035-.235.058-.481.084-.724.018-.175.046-.337.06-.518C59.4,83.82,62.041,84.86,64,84.86s4.6-1.04,6.828-2.129c.014.181.042.343.06.518.026.243.049.489.084.724.047.317.107.614.17.91.017.082.031.166.05.247.079.344.169.671.268.987l.015.049a10.6,10.6,0,0,0,4.15,5.657c-.357.29-.731.561-1.116.82-.036.023-.07.049-.105.072-.348.23-.711.442-1.079.646-.1.055-.2.11-.3.163-.335.177-.678.34-1.027.5q-.224.1-.451.192-.485.2-.986.373c-.193.066-.39.126-.586.186-.312.095-.624.188-.944.268-.239.06-.484.109-.727.16-.294.061-.586.126-.886.174s-.6.081-.9.116c-.261.031-.518.07-.782.091-.454.036-.916.05-1.379.058-.119,0-.235.013-.355.013S63.764,95.638,63.645,95.637Zm9.1,9.493a1,1,0,0,1-1.21,0c-1.66-1.27-6.22-4.91-7.3-7.48h-.01l0-.008a20.138,20.138,0,0,0,13.187-4.714c.921.5,1.865.93,2.785,1.347.354.16.706.319,1.053.481.26.122.5.25.753.373C80.168,99.213,74.6,103.711,72.75,105.13Z"/><path d="M63.99,62.87c.024,0,2.35-.04,2.35-1.48a1,1,0,0,0-1.783-.621,1.647,1.647,0,0,1-1.133,0,1,1,0,0,0-1.784.62C61.64,62.6,63.337,62.87,63.99,62.87Z"/><path d="M59.818,67.152a12.558,12.558,0,0,0,4.192.758,12.423,12.423,0,0,0,4.2-.761,1,1,0,1,0-.873-1.8,10.146,10.146,0,0,1-6.651,0,1,1,0,0,0-.864,1.8Z"/></svg>