<svg id="Solid" xmlns="http://www.w3.org/2000/svg" viewBox="0 0 128 128"><title>avatar-01_10</title><rect x="47.584" y="43.969" width="5.07" height="6.055" rx="2.535" ry="2.535" transform="translate(100.238 93.992) rotate(180)"/><path d="M41.84,41.149A8.5,8.5,0,0,1,45.571,39.3a19.023,19.023,0,0,1,4.022-.527,21.338,21.338,0,0,1,4.037.229,12.387,12.387,0,0,1,3.955,1.174A.661.661,0,0,1,57.1,41.4l-.035-.01a19.3,19.3,0,0,0-3.638-.563c-1.248-.072-2.51-.089-3.766-.038s-2.505.174-3.737.326a17.734,17.734,0,0,0-3.582.771l-.044.016a.452.452,0,0,1-.461-.757Z"/><rect x="72.009" y="43.969" width="5.07" height="6.055" rx="2.535" ry="2.535"/><path d="M82.317,41.89a17.709,17.709,0,0,0-3.581-.771c-1.232-.152-2.481-.281-3.738-.326s-2.517-.034-3.765.038a19.3,19.3,0,0,0-3.638.563l-.035.01a.661.661,0,0,1-.483-1.224,12.4,12.4,0,0,1,3.955-1.174,21.353,21.353,0,0,1,4.038-.229,19.013,19.013,0,0,1,4.021.527,8.493,8.493,0,0,1,3.731,1.845.452.452,0,0,1-.46.757Z"/><path d="M62.333,57c-.029,0-2.95-.046-2.95-1.68a1,1,0,0,1,1.845-.536,3.818,3.818,0,0,0,1.1.216,3.767,3.767,0,0,0,1.084-.213,1,1,0,0,1,1.846.533C65.263,56.927,62.363,57,62.333,57Z"/><path d="M45.422,46.209a1,1,0,0,1-.824-1.564c1.165-1.7,3.842-2.207,5.958-2.118.828.036,3.6.281,4.519,1.912a1,1,0,0,1-1.743.981c-.184-.328-1.2-.822-2.863-.894-1.921-.094-3.66.428-4.221,1.248A1,1,0,0,1,45.422,46.209Z"/><path d="M79.245,46.209a1,1,0,0,1-.827-.435c-.561-.82-2.3-1.336-4.229-1.248-1.67.073-2.68.566-2.863.894a1,1,0,0,1-1.745-.981c.917-1.63,3.692-1.875,4.521-1.912,2.119-.1,4.8.415,5.967,2.118a1,1,0,0,1-.824,1.564Z"/><path d="M103.013,108.81l-.081-.126c2.971-13.355-4.417-67.7-9.721-79.608a4.459,4.459,0,0,0,.832-2.643,57.423,57.423,0,0,0-.813-9.76,3.475,3.475,0,0,0-2.477-2.664c-.646-.188-1.533-.4-2.679-.636C82.7,6.5,72.889,2.239,62.343,2.239S41.989,6.5,36.612,13.373c-1.142.238-2.032.448-2.678.636a3.478,3.478,0,0,0-2.479,2.669,57.45,57.45,0,0,0-.812,9.762,4.448,4.448,0,0,0,.832,2.636c-5.3,11.906-12.691,66.252-9.721,79.607l-.119.185a6.419,6.419,0,0,0-1.144,5.1c.616,2.387,2.988,3.976,5.23,5.217,1.308.72,13.443,7.034,36.622,7.034s35.315-6.314,36.624-7.035c2.24-1.24,4.612-2.829,5.229-5.216C104.6,112.408,104.224,110.74,103.013,108.81ZM62.343,4.239c8.981,0,17.362,3.237,22.588,8.578A148.644,148.644,0,0,0,62.343,11.2a148.576,148.576,0,0,0-22.587,1.618C44.982,7.476,53.362,4.239,62.343,4.239ZM33.178,30.174a2.984,2.984,0,0,0,.758.074c1.509-.08,3.514-.286,6.052-.547a213.685,213.685,0,0,1,22.355-1.4A213.706,213.706,0,0,1,84.7,29.7c2.538.261,4.543.467,6.061.547q.066,0,.132,0a2.878,2.878,0,0,0,.618-.074c4.851,11.393,11.68,61.009,9.777,76.25A51.3,51.3,0,0,0,87.932,95.069a368.933,368.933,0,0,0-.282-39.393A137.98,137.98,0,0,0,84.77,35.3a4.128,4.128,0,0,0-1.981-2.723,6.3,6.3,0,0,0-4.9-.474c-2.98.869-7.63,1.24-15.55,1.24s-12.57-.371-15.55-1.24a6.3,6.3,0,0,0-4.9.474A4.128,4.128,0,0,0,39.916,35.3a136.515,136.515,0,0,0-2.89,20.411,371.706,371.706,0,0,0-.272,39.363A51.283,51.283,0,0,0,23.4,106.428C21.5,91.189,28.326,41.56,33.178,30.174ZM62.333,57.88c-6.223,0-9.5,1.754-12.1,3.648-1.586,1.143-5.34.7-6.979-.469-2.383-1.722-3.774-3.376-4.153-4.957-.021-.125-.043-.249-.067-.372A134.693,134.693,0,0,1,41.87,35.723a2.146,2.146,0,0,1,1.048-1.43,4.35,4.35,0,0,1,3.315-.274c3.214.938,7.882,1.32,16.11,1.32s12.9-.382,16.111-1.32a4.334,4.334,0,0,1,3.314.274,2.15,2.15,0,0,1,1.049,1.43A134.4,134.4,0,0,1,85.646,55.7l-.064.379c-.335,1.547-1.732,3.222-4.15,4.974-1.642,1.173-5.389,1.621-6.973.474C71.839,59.633,68.559,57.88,62.333,57.88Zm5.382,6.642a18.537,18.537,0,0,1-10.754,0,1,1,0,0,1,.725-1.865,16.68,16.68,0,0,0,9.305,0,1,1,0,0,1,.724,1.865ZM52.542,81.165a14.217,14.217,0,0,1-.118,1.526,2.4,2.4,0,0,0-1.517.2,2.1,2.1,0,0,0-1.053,1.3,22.148,22.148,0,0,0-.409,4.094,21.861,21.861,0,0,1-4.984,2.77c-.495.221-.991.443-1.484.674-1.483.7-2.91,1.431-4.262,2.19-.41-11.861-.444-21.985-.1-30.674C40.557,70.146,43.494,74.859,47.8,78.1A36.365,36.365,0,0,0,52.542,81.165Zm19.72,1.526a14.485,14.485,0,0,1-.117-1.527A36.242,36.242,0,0,0,76.872,78.1c4.371-3.277,7.265-7.889,9.2-14.836.346,8.664.313,18.781-.1,30.652-1.354-.759-2.781-1.494-4.265-2.191-.491-.23-.987-.452-1.482-.673a21.9,21.9,0,0,1-4.984-2.77,22.158,22.158,0,0,0-.409-4.095,2.1,2.1,0,0,0-1.052-1.3A2.4,2.4,0,0,0,72.262,82.691Zm.984,5.668c-2.092,1.879-5.853,3.115-9.9,3.294v-4.74a37.6,37.6,0,0,0,8.423-1.981c.136-.043.269-.09.4-.136l.269-.093c.234-.081.387-.058.48.049A22.527,22.527,0,0,1,73.246,88.359Zm-11.9,35.852c-22.018-.177-33.414-6.093-34.655-6.777-2.648-1.465-3.922-2.651-4.261-3.966a4.616,4.616,0,0,1,.925-3.571l.3-.469c1.126-1.67,5.507-7.54,14.644-12.961,1.71-1.024,3.572-2.011,5.53-2.932.48-.225.965-.442,1.45-.658A25.355,25.355,0,0,0,50.4,90.068c2.5,2.085,6.531,3.407,10.947,3.583Zm0-32.558c-4.05-.179-7.81-1.415-9.9-3.294a19.953,19.953,0,0,1,.378-3.691.684.684,0,0,1,.449.04l.253.088c.131.046.264.093.378.129a34.846,34.846,0,0,0,8.444,2.009Zm.987-6.664A28.312,28.312,0,0,1,54.347,83.3c.062-.384.115-.778.147-1.186a19.354,19.354,0,0,0,15.7,0c.032.407.085.8.146,1.183A31.784,31.784,0,0,1,62.33,84.989Zm39.929,28.479c-.339,1.315-1.613,2.5-4.259,3.965-1.243.685-12.639,6.6-34.657,6.778V93.651c4.416-.176,8.448-1.5,10.947-3.583a25.336,25.336,0,0,0,5.12,2.809c.484.216.969.433,1.448.657,1.96.922,3.821,1.909,5.535,2.935,9.134,5.419,13.515,11.289,14.625,12.935l.338.527A4.576,4.576,0,0,1,102.259,113.468Z"/></svg>