<svg id="Solid" xmlns="http://www.w3.org/2000/svg" viewBox="0 0 128 128"><title>avatar-02_13</title><path d="M79.4,49.37v2.052a2.255,2.255,0,1,1-4.51,0V49.37a2.255,2.255,0,0,1,4.51,0Z"/><path d="M53.781,49.37v2.052a2.255,2.255,0,0,1-4.51,0V49.37a2.255,2.255,0,0,1,4.51,0Z"/><path d="M105.981,89.872a5.583,5.583,0,0,0-3.142-1.53V86.951a8.8,8.8,0,0,0-17.595,0v17.433a9.987,9.987,0,1,1-19.973,0V90.176a2.972,2.972,0,0,0,.3-.109,2.619,2.619,0,0,0,1.485-2.249v-.631c13.511-1.452,24.115-13.326,24.372-27.8h1.208a1.842,1.842,0,0,0,0-3.683h-.957a2.22,2.22,0,0,0-2.22,2.22v.837a.915.915,0,0,0-.018.091c0,16.363-13.069,26.491-25.177,26.491S39.092,75.21,39.092,58.847c0-.025-.013-.047-.015-.072v-.856a2.22,2.22,0,0,0-2.22-2.22H35.9a1.842,1.842,0,1,0,0,3.683h1.2c.257,14.481,10.863,26.355,24.376,27.806v.63a2.62,2.62,0,0,0,1.487,2.25,2.933,2.933,0,0,0,.3.108v14.208a11.987,11.987,0,1,0,23.973,0V86.951a6.8,6.8,0,0,1,13.6,0V88.41a5.756,5.756,0,1,0,5.142,1.462ZM64.269,87.338c.265,0,.528-.013.792-.021v.5a.647.647,0,0,1-.378.46,1.016,1.016,0,0,1-.821,0,.645.645,0,0,1-.381-.461v-.5C63.743,87.325,64,87.338,64.269,87.338Zm37.57,10.814a3.9,3.9,0,0,1-1-7.679V94.22a1,1,0,0,0,2,0V90.382a3.617,3.617,0,0,1,1.753.929,4.005,4.005,0,0,1-2.753,6.841Z"/><path d="M64.306,60.417c-.026,0-2.569-.042-2.569-1.55a1,1,0,0,1,1.8-.6,2.963,2.963,0,0,0,.768.148,2.913,2.913,0,0,0,.767-.146,1,1,0,0,1,1.8.6C66.876,60.375,64.331,60.417,64.306,60.417Z"/><path d="M64.306,67.957c-2.33,0-4.138-.892-4.836-2.387a1,1,0,0,1,1.812-.846c.356.76,1.514,1.233,3.024,1.233s2.669-.473,3.024-1.233a1,1,0,0,1,1.813.846C68.445,67.065,66.636,67.957,64.306,67.957Z"/><path d="M80.906,49.628a1,1,0,0,1-1-1c0-.644-.916-1.361-2.23-1.361s-2.22.717-2.22,1.361a1,1,0,0,1-2,0c0-1.885,1.854-3.361,4.22-3.361s4.23,1.476,4.23,3.361A1,1,0,0,1,80.906,49.628Z"/><path d="M83.527,43.3a1,1,0,0,1-.7-.285c-3.116-3.055-9.071-2.529-11.308-1.821a1,1,0,0,1-.6-1.907c2.706-.856,9.518-1.42,13.313,2.3a1,1,0,0,1-.7,1.714Z"/><path d="M45.086,43.3a1,1,0,0,1-.7-1.714c3.8-3.719,10.606-3.155,13.312-2.3a1,1,0,0,1-.6,1.907c-2.236-.708-8.191-1.234-11.309,1.821A1,1,0,0,1,45.086,43.3Z"/><path d="M54.206,49.628a1,1,0,0,1-1-1c0-.644-.911-1.361-2.219-1.361s-2.22.717-2.22,1.361a1,1,0,0,1-2,0c0-1.885,1.853-3.361,4.22-3.361s4.219,1.476,4.219,3.361A1,1,0,0,1,54.206,49.628Z"/><path d="M101.286,109.777c-2.04-3.25-5.9-7.81-13.04-12.44v7.05a12.987,12.987,0,0,1-25.93,1.07,121.892,121.892,0,0,1-10.94-11.87c2.86-1.66,5.64-4.22,6.28-10.46a22.905,22.905,0,0,0,6.65,1.55,22.72,22.72,0,0,0,6.64-1.55c.58,5.72,2.92,8.47,6.29,10.45a125.2,125.2,0,0,1-10.91,11.83c-.32.3-.62.57-.89.81-.33.28-.62.52-.87.69a1.883,1.883,0,0,1-.26.19,6.891,6.891,0,0,1-.86-.66,11.989,11.989,0,0,0,23.8-2.05v-7.68c-.64-.4-1.3-.8-2-1.2-.32-.19-.66-.38-1-.57-.28-.16-.57-.31-.86-.47-.78-.42-1.57-.8-2.35-1.18-.63-.3-1.24-.59-1.84-.91-3.04-1.57-5.8-3.55-6.3-10.04,5.72-2.53,12.38-8.36,15.03-15.95a7.332,7.332,0,0,0,1.57.18,8.63,8.63,0,0,0,3.55-.8,9.265,9.265,0,0,0,4.94-5.25,10.552,10.552,0,0,0-.62-8.79,68,68,0,0,0,.54-16.07c-2.37-20.99-15.25-34.02-33.6-34.02-9.42,0-17.52,3.36-23.43,9.73-5.54,5.94-9.06,14.34-10.18,24.29a67.631,67.631,0,0,0,.54,16.09c-1.42,2.22-1.68,5.59-.61,8.77a9.265,9.265,0,0,0,4.94,5.25,8.63,8.63,0,0,0,3.55.8,7.056,7.056,0,0,0,1.59-.19,27.7,27.7,0,0,0,9.47,12.61c-10.55,6.65-15.3,20.82-15.97,22.99a35.428,35.428,0,0,0-6.88,7.8,5.919,5.919,0,0,0-1.05,4.7c.57,2.2,2.74,3.65,4.79,4.78,1.18.65,12.18,6.38,33.24,6.38,21.03,0,32.06-5.73,33.24-6.38,2.05-1.13,4.22-2.58,4.79-4.78A5.919,5.919,0,0,0,101.286,109.777ZM90,52.887c.03-.51.07-.98.1-1.43a6.619,6.619,0,0,1,3.85-.13,3.6,3.6,0,0,1,1.57,1.21c1.26,1.67,1.49,4.62.57,7.34a7.242,7.242,0,0,1-3.86,4.07,6.3,6.3,0,0,1-3.73.52A64.345,64.345,0,0,0,90,52.887Zm-53.61,11.06a7.242,7.242,0,0,1-3.86-4.07c-.92-2.71-.69-5.65.56-7.32,0-.01,0-.01.01-.02a3.708,3.708,0,0,1,1.57-1.21,6.5,6.5,0,0,1,3.84.13c.04.48.07.98.11,1.53a64.225,64.225,0,0,0,1.5,11.48A6.3,6.3,0,0,1,36.386,63.947Zm5.9.92a58.241,58.241,0,0,1-1.68-12.01c-.03-.56-.07-1.07-.1-1.55,1.31-1.16,2.56-3.9,4.61-8.57,3.62-8.23,8.57-19.5,16.1-21.92,3-.97,6.13-.45,9.56,1.58a.958.958,0,0,0,.6.14c8.18-.75,9.59,4.75,11.21,13.81.98,5.43,1.99,11.04,5.52,14.84-.03.49-.07,1.01-.1,1.57a57.891,57.891,0,0,1-1.68,12.11c-2.24,7.53-8.86,13.33-14.41,15.72l-.46.19a23.245,23.245,0,0,1-7.15,1.9,23.265,23.265,0,0,1-7.17-1.91l-.41-.17a24.243,24.243,0,0,1-4.19-2.34A25.842,25.842,0,0,1,42.286,64.867Z"/></svg>