<svg id="Solid" xmlns="http://www.w3.org/2000/svg" viewBox="0 0 128 128"><title>avatar-02_8</title><rect x="73.246" y="49.346" width="5.376" height="5.963" rx="2.604" ry="2.604"/><rect x="48.566" y="49.346" width="5.376" height="5.963" rx="2.604" ry="2.604" transform="translate(102.508 104.655) rotate(-180)"/><path d="M63.6,61.315c-.03,0-2.99-.074-2.99-1.7a1,1,0,0,1,1.85-.526,3.892,3.892,0,0,0,1.14.227,3.844,3.844,0,0,0,1.13-.227,1,1,0,0,1,1.851.526C66.581,61.241,63.63,61.315,63.6,61.315Z"/><path d="M70.111,45.824a1,1,0,0,1-.556-1.832c3.556-2.371,8.363-2.387,11.673-1.611a1,1,0,0,1-.455,1.947c-2.9-.679-7.085-.688-10.108,1.328A1,1,0,0,1,70.111,45.824Z"/><path d="M57.08,45.824a.989.989,0,0,1-.553-.167,13.171,13.171,0,0,0-9.38-1.478,1,1,0,0,1-.354-1.969,15.2,15.2,0,0,1,10.841,1.781,1,1,0,0,1-.554,1.833Z"/><path d="M63.59,72.974a6.833,6.833,0,0,1-6.551-4.958,2.205,2.205,0,0,1,.378-1.945,2.3,2.3,0,0,1,1.824-.907h8.71a2.3,2.3,0,0,1,1.829.916,2.193,2.193,0,0,1,.36,1.945A6.831,6.831,0,0,1,63.59,72.974Zm-4.349-5.81a.3.3,0,0,0-.233.117.227.227,0,0,0-.044.2,4.809,4.809,0,0,0,9.254,0,.2.2,0,0,0-.038-.193.285.285,0,0,0-.229-.116Z"/><path d="M82.43,50a.623.623,0,0,1-.52.72.544.544,0,0,1-.31-.03l-.13-.04c-.84-.3-1.28-.72-2.01-.96a6.766,6.766,0,0,0-2.26-.34,7.353,7.353,0,0,0-2.3.32,3.774,3.774,0,0,0-1.66.93l-.11.14a.986.986,0,0,1-1.61-1.13,3.72,3.72,0,0,1,1.27-1.31,5.93,5.93,0,0,1,1.44-.69,9.275,9.275,0,0,1,2.99-.45,8.355,8.355,0,0,1,3,.6,5.716,5.716,0,0,1,1.38.82,3.936,3.936,0,0,1,.54.62A2.958,2.958,0,0,1,82.43,50Z"/><path d="M47.73,49.694c-.74.24-1.18.66-2.01.96l-.13.04a.623.623,0,0,1-.8-.37.6.6,0,0,1-.03-.32,2.958,2.958,0,0,1,.29-.8,3.936,3.936,0,0,1,.54-.62,5.716,5.716,0,0,1,1.38-.82,8.271,8.271,0,0,1,3-.6,9.316,9.316,0,0,1,2.99.45,5.93,5.93,0,0,1,1.44.69,3.72,3.72,0,0,1,1.27,1.31.991.991,0,0,1-1.62,1.13l-.11-.14a3.673,3.673,0,0,0-1.65-.93,7.416,7.416,0,0,0-2.31-.32A6.669,6.669,0,0,0,47.73,49.694Z"/><path d="M112.176,82.86c-4.512-3.1-10.694-2.39-17.239-1.638-5.606.645-11.378,1.3-15.852-.677.16-.114.327-.228.479-.341,4.45-3.454,7.351-8.526,9.09-15.894a7.358,7.358,0,0,0,1.37.137,8.057,8.057,0,0,0,1.915-.261,22.2,22.2,0,0,0,2.979,2.1,6.175,6.175,0,0,0,2.825.875,1.981,1.981,0,0,0,1.538-.6c.975-1.088.4-2.915-1.9-6.07a8.47,8.47,0,0,0,1.209-2.357c1.26-3.884.426-7.4-2.059-9.206,2.318-14.17-.177-26.087-7.248-34.485C83.22,7.24,74.1,3.275,63.59,3.275S43.935,7.255,37.847,14.482c-7.093,8.423-9.6,20.351-7.285,34.517-2.455,1.846-3.226,5.259-1.963,9.135a9.48,9.48,0,0,0,4.8,5.407,8.525,8.525,0,0,0,3.752.906,7.4,7.4,0,0,0,1.381-.138c1.74,7.374,4.639,12.447,9.095,15.906a40.1,40.1,0,0,0,7.216,4.094,12.7,12.7,0,0,1-1.417,5.147c-.942-1.691-1.471-2.192-1.978-2.358a1.212,1.212,0,0,0-.931.067,21.7,21.7,0,0,0-5.264,4.8,11.316,11.316,0,0,0-.894,3.64c-.529.244-.98.466-1.39.684-10.217,5.4-14.365,10.474-17.075,14.726a5.873,5.873,0,0,0-1.079,4.713c.574,2.219,2.8,3.679,4.894,4.814,2.034,1.1,13.22,6.591,33.877,6.591s31.854-5.49,33.886-6.59c2.1-1.136,4.321-2.6,4.9-4.815a5.88,5.88,0,0,0-1.08-4.714,36.39,36.39,0,0,0-2.853-3.928,17.6,17.6,0,0,0,5.03.772,14.688,14.688,0,0,0,5.781-1.155,14.24,14.24,0,0,0,8.614-11.673A13.021,13.021,0,0,0,112.176,82.86Zm-23.1-20.5c.048-.244.094-.493.141-.746q.393.426.8.831A5.315,5.315,0,0,1,89.078,62.362Zm7.61-4.844a6.262,6.262,0,0,1-.482,1.1,23.116,23.116,0,0,1-2.154-8.732,3.089,3.089,0,0,1,.395.122,3.261,3.261,0,0,1,.513.249C97.09,51.454,97.752,54.236,96.688,57.518Zm-65.842.823a6.3,6.3,0,0,1-.345-.826c-1.052-3.23-.421-5.992,1.646-7.208a.84.84,0,0,0,.085-.057c.171-.092.352-.176.538-.255a7.76,7.76,0,0,1,2.7-.324A12.5,12.5,0,0,1,31.615,56,2.377,2.377,0,0,0,30.846,58.341Zm3.439,3.4a7.707,7.707,0,0,1-2.826-2.376,3.528,3.528,0,0,0,3.6.59,19.035,19.035,0,0,0,2.5-.974q.246,1.716.571,3.368A6.2,6.2,0,0,1,34.285,61.745Zm3.544-5.16a15.717,15.717,0,0,1-3.365,1.464c-1.007.312-1.561.017-1.674-.174-.081-.14.11-.343.2-.429a14.49,14.49,0,0,0,4.692-8.463h0a22.63,22.63,0,0,0,.358-4.177c0-10.051,1.324-17.635,7.915-24.381a1,1,0,0,0-1.43-1.4C37.459,26.257,36.041,34.25,36.041,44.8a21.738,21.738,0,0,1-.2,2.886,10.777,10.777,0,0,0-3.409.31c-2.031-13.272.351-24.4,6.945-32.229,5.7-6.769,14.3-10.5,24.213-10.5S82.077,8.987,87.753,15.73c6.58,7.814,8.948,18.946,6.9,32.241a7.283,7.283,0,0,0-.74-.155c-.072-1.316-.122-2.662-.165-3.978-.229-7.106-.465-14.454-5.009-19.961A1,1,0,1,0,87.2,25.151c4.11,4.98,4.335,11.981,4.553,18.751.052,1.607.105,3.268.21,4.866.255,3.995.853,8.575,3.331,12.218.114.181.226.339.353.512,1.692,2.293,2.017,3.308,2.073,3.672a4.573,4.573,0,0,1-1.8-.611,20.581,20.581,0,0,1-3.088-2.212,27.33,27.33,0,0,1-3.465-3.612,37.656,37.656,0,0,1-7.337-15.321,1.513,1.513,0,0,0-.047-.241c-.363-1.961-.607-4.027-.842-6.025-.924-7.843-1.879-15.951-10.474-16.237a10.657,10.657,0,0,0-9.785-1.651c-5.78,1.906-10.259,8.541-11.975,13.9-.725,2.264-1.331,4.367-1.917,6.4-.334,1.159-.656,2.274-.979,3.348C43.894,50.019,42.047,54.085,37.829,56.585ZM48.843,78.624c-4.253-3.3-6.98-8.306-8.585-15.749-.339-1.586-.614-3.249-.837-4.938,4.806-3.154,6.709-8.419,8.506-14.454.325-1.079.65-2.2.986-3.369.582-2.02,1.183-4.109,1.9-6.345,1.616-5.046,5.81-11,10.7-12.61a8.839,8.839,0,0,1,8.246,1.557,1,1,0,0,0,.574.188c7.129.078,7.916,6.751,8.826,14.478.239,2.029.486,4.129.861,6.154.006.031.033.175.041.2a39.846,39.846,0,0,0,7.469,15.886c-.189,1.191-.383,2.262-.594,3.247-1.6,7.439-4.334,12.444-8.58,15.739-.516.384-1.106.788-1.751,1.194a45.241,45.241,0,0,1-5.7,2.959,22.625,22.625,0,0,1-7.308,2.09A22.63,22.63,0,0,1,56.3,82.767,39.019,39.019,0,0,1,48.843,78.624Zm-1.125,25.93a.556.556,0,0,1-.532-.169c-.92-.883-1.29-4.172-.9-8a11.9,11.9,0,0,1,.672-3.369,22.744,22.744,0,0,1,4-3.776,20.149,20.149,0,0,1,1.467,2.595l.008.017,0,0c.757,1.529,1.559,3.3,2.267,4.873.388.86.739,1.636,1.021,2.236C53.915,100.772,50.047,104.219,47.718,104.554Zm15.876,16.389a2.363,2.363,0,1,1,2.363-2.363A2.363,2.363,0,0,1,63.594,120.943Zm5.784-22.251-.019.039c-.412.814-1.017,1.905-1.715,3.167-1.318,2.378-2.958,5.338-4.047,7.827-1.1-2.495-2.74-5.462-4.06-7.847-.694-1.251-1.293-2.334-1.7-3.144a.317.317,0,0,0-.021-.041c-.293-.582-.754-1.6-1.287-2.784-.635-1.408-1.345-2.973-2.039-4.4a13.231,13.231,0,0,0,2.294-6.38,21.242,21.242,0,0,0,6.81,1.73,21.684,21.684,0,0,0,6.82-1.733,13.231,13.231,0,0,0,2.3,6.392c-.7,1.434-1.411,3-2.047,4.416C70.129,97.1,69.672,98.115,69.378,98.692Zm3.1-1.941c.711-1.577,1.517-3.364,2.284-4.9a20.461,20.461,0,0,1,1.467-2.61,22.89,22.89,0,0,1,4.007,3.786,12.462,12.462,0,0,1,.657,3.35c.4,3.825.031,7.118-.893,8.007a.562.562,0,0,1-.53.169c-2.326-.335-6.194-3.781-8-5.586C71.75,98.373,72.1,97.6,72.481,96.751Zm7.848,24.082c-3.951,0-7.154-1.862-7.154-4.159s3.2-4.158,7.154-4.158,7.154,1.861,7.154,4.158S84.28,120.833,80.329,120.833Zm35.546-26a12.241,12.241,0,0,1-7.407,10.032c-6.924,2.94-13.506-1.449-14.233-1.959l-.015-.008a55.382,55.382,0,0,0-10.006-6.609c-.457-.239-.926-.455-1.394-.674a11.627,11.627,0,0,0-.877-3.632,21.642,21.642,0,0,0-5.285-4.823c-1.091-.546-1.916.709-2.229,1.18q-.3.452-.67,1.122A12.731,12.731,0,0,1,72.343,84.3a47.358,47.358,0,0,0,4.8-2.5c5.14,2.869,11.684,2.127,18.022,1.4,6.164-.707,11.982-1.378,15.877,1.3A10.9,10.9,0,0,1,115.875,94.832Z"/></svg>