<svg id="Solid" xmlns="http://www.w3.org/2000/svg" viewBox="0 0 128 128"><title>avatar-03_9</title><rect x="49.209" y="45.728" width="5.008" height="6.542" rx="2.504" ry="2.504" transform="translate(103.427 97.997) rotate(-180)"/><path d="M56.319,40.524l-3-.377a23.185,23.185,0,0,0-3.072-.114,15.852,15.852,0,0,0-3,.343,6.2,6.2,0,0,0-2.557,1.094l-.032.026a.753.753,0,0,1-1-1.126,7.421,7.421,0,0,1,3.157-1.679,16.386,16.386,0,0,1,3.342-.546,25.107,25.107,0,0,1,3.337.033,9.853,9.853,0,0,1,3.311.709.86.86,0,0,1-.45,1.642Z"/><rect x="73.782" y="45.728" width="5.008" height="6.542" rx="2.504" ry="2.504"/><path d="M64.123,67.069c-.232,0-.453,0-.659-.008-4.588-.111-5.068-1.24-5.225-1.612a1,1,0,0,1,1.772-.916c1.077.718,7,.715,8.013-.008a1,1,0,0,1,1.747.967C69.13,66.824,66.2,67.069,64.123,67.069Zm3.847-2.446v0Z"/><path d="M46.64,47.5a1,1,0,0,1-.719-1.7,7.569,7.569,0,0,1,5.2-2.022,7.041,7.041,0,0,1,4.965,1.874,1,1,0,1,1-1.4,1.427,4.977,4.977,0,0,0-3.538-1.3A5.6,5.6,0,0,0,47.358,47.2.994.994,0,0,1,46.64,47.5Z"/><path d="M81.36,47.5a.994.994,0,0,1-.718-.3,5.6,5.6,0,0,0-3.793-1.413,4.956,4.956,0,0,0-3.538,1.3,1,1,0,1,1-1.4-1.427,6.936,6.936,0,0,1,4.965-1.874,7.569,7.569,0,0,1,5.2,2.022,1,1,0,0,1-.719,1.7Z"/><path d="M64.01,59.549c-.027,0-2.64-.043-2.64-1.58a1,1,0,0,1,1.82-.571,3.058,3.058,0,0,0,.82.151,2.972,2.972,0,0,0,.8-.151,1,1,0,0,1,1.821.571C66.63,59.506,64.036,59.549,64.01,59.549Z"/><path d="M102.257,109.628c-1.079-1.72-7.122-10.6-20.168-16.678l-.4-.184a26.143,26.143,0,0,1-4.918-2.7c.011-1.8.038-6-2.869-6.1-.211,0-.534.012-.844.029a16.575,16.575,0,0,1-.349-2.637c6.745-3.028,12.353-9.629,14.9-17.519a7.809,7.809,0,0,0,1.6.183,9.038,9.038,0,0,0,3.985-.966,9.486,9.486,0,0,0,4.883-5.481c1.383-4.246.485-8.034-2.261-9.882,1.242-7.984.358-21.735-3.877-28.316a2.611,2.611,0,0,0,.724-1.069,3.232,3.232,0,0,0-.291-2.565C88.031,6.951,74.141,3.551,69.984,2.719c-9.09-1.806-16.971-.2-21.775,4.267A3.43,3.43,0,0,0,46.56,4.437,3.257,3.257,0,0,0,43.4,4.264c-1.758.865-2.695,3.19-3.069,4.829-1.928.293-6.211,1.228-6.678,3.79a3.143,3.143,0,0,0,.752,3.018,4.094,4.094,0,0,0,2.734.977c-3.648,4.187-8.117,12.615-7.213,16.256a2.574,2.574,0,0,0,1.586,1.885A122,122,0,0,0,31.8,48.053C29.428,50,28.686,53.64,29.959,57.578a9.52,9.52,0,0,0,4.9,5.488,9.03,9.03,0,0,0,3.968.959,7.729,7.729,0,0,0,1.6-.185c2.543,7.861,8.113,14.44,14.8,17.474a14.674,14.674,0,0,1-.312,2.667c-.289-.012-.568-.016-.831-.011-2.9.091-2.87,4.3-2.841,6.059a25.055,25.055,0,0,1-4.935,2.737l-.405.186c-13.043,6.075-19.086,14.956-20.166,16.677a6.1,6.1,0,0,0-1.08,4.847c.589,2.262,2.83,3.756,4.946,4.919,1.231.677,12.654,6.614,34.392,6.614s33.161-5.937,34.392-6.614c2.116-1.163,4.357-2.657,4.946-4.919A6.1,6.1,0,0,0,102.257,109.628Zm-14-48.016c.509-2.13.87-3.961,1.11-5.6a5.227,5.227,0,0,1,3.672-1.8,1,1,0,0,0,0-2,7.452,7.452,0,0,0-3.357.959c.1-1.511.1-2.873.09-4.45v-.013a8.8,8.8,0,0,1,4.09.2c.134.058.269.117.406.19,2.323,1.2,3.073,4.291,1.91,7.864a7.581,7.581,0,0,1-3.865,4.3,6.689,6.689,0,0,1-4.136.66C88.2,61.821,88.228,61.716,88.253,61.612ZM35.745,61.27a7.608,7.608,0,0,1-3.884-4.309c-1.074-3.325-.475-6.322,1.528-7.636a4.765,4.765,0,0,1,.794-.416,8.937,8.937,0,0,1,4.084-.2c-.009,1.579-.013,2.944.09,4.458a7.435,7.435,0,0,0-3.347-.955,1,1,0,1,0,0,2,5.22,5.22,0,0,1,3.657,1.8c.234,1.6.59,3.383,1.12,5.6.025.105.058.206.084.311A6.675,6.675,0,0,1,35.745,61.27ZM64,120.81a1.77,1.77,0,1,1,1.77-1.77A1.769,1.769,0,0,1,64,120.81Zm.033-10.676a1.771,1.771,0,1,1,1.77-1.77A1.77,1.77,0,0,1,64.033,110.134Zm-1.8-12.446A1.77,1.77,0,1,1,64,99.458,1.77,1.77,0,0,1,62.23,97.688Zm2.9-11.72A4.789,4.789,0,0,0,64,88.073a4.8,4.8,0,0,0-1.14-2.11c-.98-.795-3.783-1.457-5.936-1.776a15.979,15.979,0,0,0,.275-2.095,20.182,20.182,0,0,0,13.549.032,18.445,18.445,0,0,0,.311,2.07C68.887,84.511,66.127,85.162,65.134,85.968Zm6.159-6.161h0a18.678,18.678,0,0,1-14.655-.053c-6.689-2.781-12.274-9.446-14.579-17.412-.123-.4-.227-.8-.323-1.2-.548-2.293-.908-4.11-1.131-5.716a42.38,42.38,0,0,1-.334-6.716l0-.69h0c.022-4.112,1.458-6.39,3.444-9.542a42.719,42.719,0,0,0,6.565-16.042,1.574,1.574,0,0,1,.981-1.171c3.6-1.3,5.216,2.014,7.444,7.636.444,1.121.9,2.28,1.389,3.324C63.342,39.238,70.5,43.3,81.367,44.315a4.113,4.113,0,0,0,3.08-.815,19.029,19.029,0,0,0,3.314,4.89l0,.338a42.566,42.566,0,0,1-.333,6.7c-.23,1.649-.6,3.519-1.122,5.715-.1.4-.2.8-.328,1.216C83.669,70.353,78.044,77.036,71.3,79.805ZM86.5,111.623H74.677a.645.645,0,0,1-.664-.626v-.973a.646.646,0,0,1,.664-.627H86.5a.645.645,0,0,1,.664.626V111A.646.646,0,0,1,86.5,111.623Z"/></svg>