<svg id="Solid" xmlns="http://www.w3.org/2000/svg" viewBox="0 0 128 128"><title>avatar-01_12</title><path d="M81.419,43.047c-2.8-1.725-7.69-1.65-10.443-.526a4.589,4.589,0,0,0-1.474.944c-.558.734-.291,2.021,1.613,1.6a20.813,20.813,0,0,1,8-.248c1.875.451,2.495.233,2.779-.309A1.142,1.142,0,0,0,81.419,43.047Z"/><rect x="72.723" y="45.366" width="4.71" height="5.735" rx="2.355" ry="2.355"/><path d="M44.837,43.047c2.795-1.725,7.689-1.65,10.442-.526a4.579,4.579,0,0,1,1.474.944c.558.734.292,2.021-1.612,1.6a20.813,20.813,0,0,0-8-.248c-1.875.451-2.5.233-2.779-.309A1.142,1.142,0,0,1,44.837,43.047Z"/><rect x="48.823" y="45.366" width="4.71" height="5.735" rx="2.355" ry="2.355" transform="translate(102.356 96.467) rotate(-180)"/><path d="M84.606,109.831a1.355,1.355,0,0,1-.2.02,1,1,0,0,1-.98-.8c-.06-.28-.12-.55-.19-.82-.11-.48-.25-.95-.4-1.4a9.7,9.7,0,0,1,.455-2.541c.99,1.9,1.865,3.191,2.095,4.361A1,1,0,0,1,84.606,109.831Z"/><path d="M41.626,109.831a1.355,1.355,0,0,0,.2.02,1,1,0,0,0,.98-.8c.06-.28.12-.55.19-.82.11-.48.25-.95.4-1.4a9.665,9.665,0,0,0-.456-2.541c-.99,1.9-1.864,3.191-2.094,4.361A1,1,0,0,0,41.626,109.831Z"/><path d="M84.606,109.831a1.355,1.355,0,0,1-.2.02,1,1,0,0,1-.98-.8c-.06-.28-.12-.55-.19-.82-.11-.48-.25-.95-.4-1.4a9.7,9.7,0,0,1,.455-2.541c.99,1.9,1.865,3.191,2.095,4.361A1,1,0,0,1,84.606,109.831Z"/><path d="M101.158,110.025c-1.07-1.707-7.065-10.525-20.045-16.583-.417-.195-.834-.38-1.248-.564-3.954-1.761-7.093-3.181-7.514-10.97A28.722,28.722,0,0,0,86.293,66.216a6.111,6.111,0,0,0,1.169.12c3.533,0,6.959-2.969,8.24-6.374,1.075-2.873.95-5.616-.286-7.516,2.523-4.73,2.685-12.8,2.69-14.429A35.643,35.643,0,0,0,87.827,12.459a35.156,35.156,0,0,0-49.391-.007,35.666,35.666,0,0,0-10.29,25.565c.013,2.293.256,9.866,2.69,14.418-1.243,1.908-1.368,4.655-.286,7.528,1.281,3.405,4.7,6.374,8.231,6.374a6.135,6.135,0,0,0,1.172-.121A28.725,28.725,0,0,0,53.9,81.907a21.006,21.006,0,0,1-.457,3.487c-1.352-2.275-3.124-2.833-4.454-2.5a2.5,2.5,0,0,0-1.971,2.831,3.855,3.855,0,0,0,1.72,2.55,3.477,3.477,0,0,1-.531-.112,3.03,3.03,0,0,1-1.836-1.736,1,1,0,0,0-1.813.846,4.991,4.991,0,0,0,3.032,2.792,5.837,5.837,0,0,0,1.8.269,8.144,8.144,0,0,0,1.551-.162,15.273,15.273,0,0,1-4.567,2.7c-.416.185-.835.371-1.255.567C32.139,99.5,26.144,108.318,25.074,110.025A6.054,6.054,0,0,0,24,114.843c.583,2.254,2.812,3.744,4.916,4.905,1.222.673,12.566,6.573,34.2,6.573s32.981-5.9,34.2-6.574c2.1-1.16,4.332-2.65,4.916-4.9A6.061,6.061,0,0,0,101.158,110.025ZM85.26,62.843a23.616,23.616,0,0,0-2.551-7.164,38.018,38.018,0,0,0,4.213-2.34A60.321,60.321,0,0,1,85.26,62.843Zm2.92-3.982a3.3,3.3,0,0,1,2.433-1.584,1,1,0,0,0,.185-1.991,4.082,4.082,0,0,0-2.133.529,35.311,35.311,0,0,0,.324-3.772,6.493,6.493,0,0,1,2.88.04,3.7,3.7,0,0,1,1.609,1.081c1.149,1.335,1.28,3.614.352,6.095-1.064,2.827-4.145,5.359-6.911,5.025.064-.218.143-.425.2-.647C87.493,62.252,87.865,60.579,88.18,58.861Zm-55.758.4c-.935-2.482-.8-4.764.362-6.117a3.493,3.493,0,0,1,1.582-1.057,6.5,6.5,0,0,1,2.891-.039,35.533,35.533,0,0,0,.325,3.771,4.171,4.171,0,0,0-2.13-.531.988.988,0,0,0-.89,1.063,1.015,1.015,0,0,0,1.054.93c.046-.013,1.225-.02,2.447,1.566.317,1.723.69,3.4,1.062,4.792.059.222.139.429.2.648C36.567,64.623,33.487,62.088,32.422,59.259Zm8.564,3.581c-.356-1.366-.708-2.976-1-4.621l-.005-.029c-.3-1.68-.536-3.365-.652-4.844a38.735,38.735,0,0,0,4.21,2.333A23.52,23.52,0,0,0,40.986,62.84Zm4.135-8.635a30.249,30.249,0,0,1-5.849-3.358c.534-7.07,10.505-17.181,23.851-17.181s23.306,10.1,23.851,17.168a30.5,30.5,0,0,1-5.852,3.371,44.709,44.709,0,0,0-17.977-4.223h-.038A44.867,44.867,0,0,0,45.121,54.205Zm3.854,31.129c-.034-.173.156-.415.5-.5a1.083,1.083,0,0,1,.263-.033c.75,0,1.679.744,2.422,2.456C50.951,87.205,49.278,86.852,48.975,85.334Zm3.981,34.827a1.981,1.981,0,0,1-2.09.99l-10.49-1.85a1.988,1.988,0,0,1-1.64-1.82c-.13-1.66-.31-4.28-.35-5.94-.13-5.75,0-9.31,2.76-8.97a1.974,1.974,0,0,1,1.44.99,7.267,7.267,0,0,1,.81,3.27v.07l-.04.13c1.25-3.75,3.81-7.15,7.22-7.57,3.81-.46,6.8,2.01,8.21,5.42C60.786,109.681,55.726,115.191,52.956,120.161Zm1.886-32.5a18.522,18.522,0,0,0,1-4.888,20.023,20.023,0,0,0,7.268,1.5h.023a20.031,20.031,0,0,0,7.268-1.5,20.585,20.585,0,0,0,.574,3.5C66.2,88.294,59.527,89.457,54.842,87.665Zm33,23.876c-.04,1.66-.22,4.28-.35,5.94a1.988,1.988,0,0,1-1.64,1.82l-10.49,1.85a1.981,1.981,0,0,1-2.09-.99c-2.77-4.97-7.83-10.48-5.83-15.28,1.41-3.41,4.4-5.88,8.21-5.42,3.41.42,5.97,3.82,7.22,7.57l-.04-.13v-.07a7.267,7.267,0,0,1,.81-3.27,1.974,1.974,0,0,1,1.44-.99C87.846,102.231,87.976,105.791,87.846,111.541Z"/><path d="M41.626,109.831a1.355,1.355,0,0,0,.2.02,1,1,0,0,0,.98-.8c.06-.28.12-.55.19-.82.11-.48.25-.95.4-1.4a9.665,9.665,0,0,0-.456-2.541c-.99,1.9-1.864,3.191-2.094,4.361A1,1,0,0,0,41.626,109.831Z"/></svg>