<svg id="Solid" xmlns="http://www.w3.org/2000/svg" viewBox="0 0 128 128"><title>avatar-02_19</title><path d="M117.43,35.56a5.355,5.355,0,1,0-7.6,4.858,62.45,62.45,0,0,1-.71,10.31,1.975,1.975,0,0,1-1.324,1.329c-.368-8.44-3.159-10.921-5.792-11.325C98.018,16.821,82.248,2,60.68,2S23.34,16.822,19.355,40.732c-2.841.434-5.845,3.246-5.845,13.228,0,7.634,2.573,12.727,6.625,13.311C22.3,76.036,26.417,82.348,32.4,86.058c-2.266,1.508-4.225,2.906-5.918,4.235-1.265.993-2.356,1.9-3.33,2.785l0,0-.015.014a60.548,60.548,0,0,0-11.3,13.767,6.787,6.787,0,0,0-1.107,5.244c.658,2.753,3.224,4.61,5.374,5.912.606.38,1.211.719,1.762,1.025C24.425,122.724,47.273,126,60.68,126s36.254-3.276,42.815-6.956c.555-.308,1.16-.647,1.753-1.019,2.163-1.31,4.729-3.167,5.387-5.92a6.787,6.787,0,0,0-1.107-5.244A60.539,60.539,0,0,0,98.227,93.1l-.017-.015,0,0c-1.083-.972-2.2-1.905-3.421-2.849h0l-.019-.016c-1.756-1.367-3.674-2.736-5.8-4.154,5.987-3.716,10.106-10.03,12.265-18.789,3.137-.455,5.417-3.619,6.258-8.7.088,0,.184.018.27.018a6.98,6.98,0,0,0,6.722-4.473c1.345-3.939,1.021-11.332.823-14.284A5.338,5.338,0,0,0,117.43,35.56ZM15.51,53.96c0-3.773.495-9.817,3.522-11.058a68.041,68.041,0,0,0-.6,9.018,66.641,66.641,0,0,0,1.235,13.167C16.807,63.948,15.51,58.936,15.51,53.96ZM86.985,87.149c1.924,1.259,3.666,2.471,5.272,3.67-7.7,3.605-19.379,5.926-30.577,6.058V91.739C71.827,91.632,81.362,89.9,86.985,87.149Zm-27.3,9.728c-11.362-.128-23.094-2.417-30.7-5.971,1.574-1.179,3.359-2.421,5.4-3.759,5.611,2.754,15.147,4.485,25.3,4.592ZM18.436,117.071c5.527-4.447,10-12.825,9.953-17.253a8.032,8.032,0,0,0-2.951-6.085c.55-.472,1.141-.959,1.777-1.467,7.826,3.924,20.37,6.477,32.465,6.611v25.116c-14.251-.156-35.277-3.574-40.845-6.7Zm43.244,6.922V98.877c11.921-.138,24.413-2.724,32.34-6.7q.983.775,1.894,1.56A8.037,8.037,0,0,0,92.97,99.82c-.043,4.426,4.426,12.8,9.953,17.251-.134.075-.273.155-.4.227C96.956,120.419,75.931,123.837,61.68,123.993ZM86.6,85.115C81.232,87.931,71.059,89.75,60.68,89.75s-20.552-1.819-25.9-4.635a.684.684,0,0,0-.082-.038C28.336,81.7,24.033,75.315,21.9,66.1A63.065,63.065,0,0,1,20.43,51.92,65.475,65.475,0,0,1,21.2,41.813C24.806,18.489,39.933,4,60.68,4s35.874,14.489,39.481,37.815a65.429,65.429,0,0,1,.769,10.105,63.017,63.017,0,0,1-1.475,14.185C97.322,75.344,93,81.74,86.6,85.115Zm15.1-20.039A66.7,66.7,0,0,0,102.93,51.92a68.044,68.044,0,0,0-.6-9.019c2.9,1.2,3.458,6.842,3.514,10.39.008.226.008.443.008.669a26.208,26.208,0,0,1-.211,3.425C105.118,61.523,103.681,64.267,101.7,65.076ZM113.749,38.46a3.345,3.345,0,0,1-2.615.324l-.012,0a3.355,3.355,0,1,1,4.308-3.221A3.332,3.332,0,0,1,113.749,38.46Z"/><path d="M60.68,19.42c-19.136,0-32.5,12.542-32.5,30.5,0,14.826,5.638,32.5,32.5,32.5s32.5-17.674,32.5-32.5C93.18,31.962,79.815,19.42,60.68,19.42Zm17.187,17.2a3.313,3.313,0,1,1,3.313-3.312A3.312,3.312,0,0,1,77.867,36.625Z"/></svg>