<svg id="Solid" xmlns="http://www.w3.org/2000/svg" viewBox="0 0 128 128"><title>avatar-02_17</title><path d="M73.055,47.108v1.027a2.427,2.427,0,0,0,4.839,0V47.108a2.148,2.148,0,0,0-.708-1.588,2.52,2.52,0,0,0-1.718-.653A2.328,2.328,0,0,0,73.055,47.108Z"/><path d="M54.945,47.108v1.027a2.427,2.427,0,0,1-4.839,0V47.108a2.148,2.148,0,0,1,.708-1.588,2.52,2.52,0,0,1,1.718-.653A2.328,2.328,0,0,1,54.945,47.108Z"/><path d="M78.711,42.117a1.033,1.033,0,0,1-.273-.038A14.231,14.231,0,0,0,70.678,42a1,1,0,1,1-.635-1.9,16.112,16.112,0,0,1,8.938.046,1,1,0,0,1-.27,1.963Z"/><path d="M64,55.976a5.013,5.013,0,0,1-2.557-.721,1.329,1.329,0,0,1-.493-1,1,1,0,0,1,1.87-.493,4.621,4.621,0,0,0,1.18.213,4.119,4.119,0,0,0,1.2-.231,1,1,0,0,1,1.86.511,1.271,1.271,0,0,1-.47.972A4.949,4.949,0,0,1,64,55.976Z"/><path d="M80.231,47.516a1,1,0,0,1-.831-.443A5.016,5.016,0,0,0,75.985,45.1a5.378,5.378,0,0,0-4.254,1.21,1,1,0,0,1-1.283-1.535,7.358,7.358,0,0,1,5.821-1.655,6.969,6.969,0,0,1,4.792,2.835,1,1,0,0,1-.83,1.557Z"/><path d="M45.76,43.906a1,1,0,0,1-.7-1.709c2.434-2.423,8.825-3.458,12.9-2.089a1,1,0,1,1-.637,1.9c-3.561-1.194-9.132-.1-10.856,1.611A1,1,0,0,1,45.76,43.906Z"/><path d="M47.769,47.516a1,1,0,0,1-.83-1.557,6.969,6.969,0,0,1,4.792-2.835,7.355,7.355,0,0,1,5.821,1.655,1,1,0,0,1-1.283,1.535,5.366,5.366,0,0,0-4.254-1.21A5.016,5.016,0,0,0,48.6,47.073,1,1,0,0,1,47.769,47.516Z"/><path d="M103.848,109c-1.121-1.789-7.4-11.032-21-17.376-.577-.267-1.152-.524-1.721-.778l-.632-.283a.979.979,0,0,0-.2-.092c-3.637-1.656-6.259-3.251-6.659-7.87a31.074,31.074,0,0,1,4.593-1.7c3.071-.944,6.247-1.919,8.5-4.576A24.448,24.448,0,0,0,90.6,69.8c.942-2.13,1.686-3.812,3.688-5.094,5.677-3.624,10.211-11.144,7.1-19.258a8.647,8.647,0,0,0,1.749-6.549,5.936,5.936,0,0,0-1.92-3.7c-1.368-1.458-3.658-3.9-7.651-13.753C89.847,12.266,80.957,4.893,70.919,2.666c-7.661-1.7-14.65-.153-19.74,4.353-14.323-2.263-18.473,12.386-20.716,20.3-.287,1.012-.55,1.941-.806,2.747a49.617,49.617,0,0,1-4.651,9.744c-.318.545-.595,1.022-.813,1.418a5.512,5.512,0,0,0,1.555,7.5c-1.35,7.145,3.158,12.916,7.963,15.98,2,1.283,2.747,2.965,3.689,5.095a24.446,24.446,0,0,0,3.869,6.521c2.255,2.656,5.431,3.631,8.5,4.575a31.045,31.045,0,0,1,4.594,1.7c-.4,4.647-3.053,6.226-6.717,7.9l-.88.393c-.539.239-1.083.48-1.62.732-13.593,6.343-19.874,15.586-20.994,17.374a6.309,6.309,0,0,0-1.13,5.012c.606,2.345,2.935,3.9,5.134,5.116,1.28.7,13.161,6.884,35.843,6.884s34.562-6.179,35.844-6.884c2.2-1.214,4.527-2.771,5.133-5.116A6.309,6.309,0,0,0,103.848,109ZM89.03,59.26l.029-.63c.018-.5.095-1.784.236-3.9A2.8,2.8,0,0,1,91.964,52.7a1,1,0,0,0,.232-1.987,4.331,4.331,0,0,0-2.687.7c.053-.825.107-1.643.16-2.443a26.472,26.472,0,0,0,5.719-.126,6.219,6.219,0,0,1,.337,5.661c-1.135,3.014-3.679,5.781-6.716,5.185C89.015,59.547,89.024,59.4,89.03,59.26ZM32.285,54.5a6.964,6.964,0,0,1-.376-3.87,12.06,12.06,0,0,0,6.4-1.854c.057.854.115,1.747.172,2.64a4.349,4.349,0,0,0-2.673-.707,1,1,0,0,0,.236,1.987,2.771,2.771,0,0,1,2.645,1.981c.124,1.87.219,3.4.248,3.964l.029.615c.006.141.015.287.021.43C35.959,60.276,33.419,57.515,32.285,54.5Zm18.088,6.322a4.59,4.59,0,0,1-5.307.05c-2.413-1.746-4.207-4.756-4.378-6.48a.929.929,0,0,0-.017-.129c-.139-2.217-.311-4.861-.453-7a12.622,12.622,0,0,0,1.564-1.83c1.236-1.787,2.018-4.86,2.923-8.418,1.331-5.23,2.839-11.157,5.93-12.68a4.519,4.519,0,0,1,3.911.168,1,1,0,0,0,1.269-.435c1.346-2.436,3.07-3.614,5.155-3.518,4.286.212,9.474,5.725,12.911,13.719a40.346,40.346,0,0,0,4.013,7.423c2.732,3.881,5.87,6.1,9.791,6.959-.125,1.893-.259,3.956-.372,5.738-.168,1.724-1.964,4.737-4.377,6.483a4.59,4.59,0,0,1-5.308-.046c-2.459-1.789-7.33-3.7-13.628-3.7a29.233,29.233,0,0,0-7.959,1.09A18.683,18.683,0,0,0,50.373,60.826Zm18.76,2.306c-1.019.855-3.354,1.034-5.133,1.034s-4.095-.178-5.126-1.028A1,1,0,1,1,60.145,61.6c.194.159,1.262.571,3.855.571s3.673-.419,3.848-.566a1,1,0,1,1,1.285,1.532ZM56.267,83.525a18.428,18.428,0,0,0,15.466,0c.664,4.645,3.484,6.708,6.768,8.3C74.474,97.273,67.124,97.9,64.03,97.9s-10.47-.623-14.487-6.086C52.8,90.212,55.606,88.153,56.267,83.525Zm46.773,29.982c-.331,1.28-1.575,2.435-4.162,3.864-1.233.679-12.7,6.635-34.878,6.635s-33.645-5.956-34.877-6.635c-2.588-1.429-3.832-2.584-4.163-3.864a4.461,4.461,0,0,1,.888-3.449c1.068-1.706,7.06-10.52,20.148-16.627.525-.247,1.055-.481,1.581-.715l.127-.056c4.5,6.5,12.847,7.236,16.326,7.236s11.8-.737,16.313-7.216c.552.246,1.109.495,1.664.753,13.085,6.1,19.077,14.919,20.146,16.626A4.461,4.461,0,0,1,103.04,113.507Z"/></svg>