<svg id="Solid" xmlns="http://www.w3.org/2000/svg" viewBox="0 0 128 128"><title>avatar-03_5</title><path d="M52.031,48.722a2.46,2.46,0,0,0-1.291-.85,6.021,6.021,0,0,0-2.01-.294,7.769,7.769,0,0,0-2.075.269,10.337,10.337,0,0,1-2.032.615l-.112.009a.653.653,0,0,1-.705-.595.68.68,0,0,1,.034-.268,3.182,3.182,0,0,1,2.175-1.729,8.594,8.594,0,0,1,2.7-.488,7.921,7.921,0,0,1,2.76.439,3.973,3.973,0,0,1,2.386,2.11.987.987,0,0,1-1.738.919Z"/><rect x="46.894" y="47.251" width="4.742" height="5.831" rx="2.371" ry="2.371" transform="translate(98.53 100.334) rotate(-180)"/><path d="M70.492,47.94a3.973,3.973,0,0,1,2.386-2.11,7.921,7.921,0,0,1,2.76-.439,8.594,8.594,0,0,1,2.7.488,3.182,3.182,0,0,1,2.175,1.729.651.651,0,0,1-.4.829.64.64,0,0,1-.265.034l-.115-.009a10.337,10.337,0,0,1-2.032-.615,7.769,7.769,0,0,0-2.075-.269,6.021,6.021,0,0,0-2.01.294,2.452,2.452,0,0,0-1.29.85l-.089.136a.987.987,0,0,1-1.738-.918Z"/><rect x="72.713" y="47.251" width="4.742" height="5.831" rx="2.371" ry="2.371"/><path d="M41.108,45.043a1,1,0,0,1-.355-1.935c3.066-1.165,11.053-2.186,14.757.082A1,1,0,1,1,54.465,44.9c-2.791-1.708-9.812-1.127-13,.082A.977.977,0,0,1,41.108,45.043Z"/><path d="M83.247,45.043a1,1,0,0,1-.353-.065c-3.2-1.209-10.221-1.786-13-.083a1,1,0,0,1-1.045-1.705c3.7-2.264,11.686-1.243,14.756-.083a1,1,0,0,1-.354,1.936Z"/><path d="M62.177,62.072c.029,0,2.971-.046,2.971-1.689a1,1,0,0,0-1.849-.53,3.881,3.881,0,0,1-1.122.219,3.819,3.819,0,0,1-1.131-.219,1,1,0,0,0-1.849.53C59.2,62.026,62.147,62.072,62.177,62.072Z"/><path d="M62.188,68.612a11.324,11.324,0,0,0,5.177-1.346,1,1,0,0,0-1.136-1.647,8.721,8.721,0,0,1-8.083,0,1,1,0,1,0-1.137,1.647A11.333,11.333,0,0,0,62.188,68.612Z"/><path d="M41.144,105.119c-.164.008-.32.013-.46.012-1.285-.006-1.634-.346-1.794-.5a1.386,1.386,0,0,1-.362-1.246A23.217,23.217,0,0,1,40.74,97.7,43.287,43.287,0,0,0,26.465,110.78a8.147,8.147,0,0,0-.507.927c-1.527,3.169.241,5.71,5.146,8.164a54.961,54.961,0,0,0,12.135,4.16c-1.45-2.954-4.177-9.23-4.683-13.273C38.37,109.257,39.156,107.131,41.144,105.119Z"/><path d="M116.788,95.024a8.58,8.58,0,0,0,.2-6.3,12.569,12.569,0,0,0-6.747-7.2c-3.871-1.787-9.2-1.342-14.844-.872-6.958.582-14.135,1.175-17.628-2.9A25.759,25.759,0,0,0,86.8,63.783a7.1,7.1,0,0,0,1.364.143,8.679,8.679,0,0,0,3.8-.928,9.656,9.656,0,0,0,4.944-5.466c1.368-4.2.056-8.514-2.972-10.169,1.222-15.076-2.108-27.763-9.429-35.776-5.573-6.1-13.3-9.324-22.33-9.324S45.426,5.486,39.852,11.586C32.521,19.607,29.185,32.31,30.412,47.4c-2.984,1.692-4.261,5.966-2.9,10.13A9.656,9.656,0,0,0,32.45,63a8.679,8.679,0,0,0,3.8.928,7.124,7.124,0,0,0,1.319-.131A26.258,26.258,0,0,0,47.23,78.263,54.158,54.158,0,0,0,54.8,82.942c0,.016.075.067.177.13a11.672,11.672,0,0,1-2.868,6.9c-2.985,1.227-6.737,4.4-8.428,6.019l-.206.2a14.663,14.663,0,0,0-3.951,7.414c-.067,1.236,5.152-.1,5.633-.216-4.313,2.405-5.794,5.582-5.588,7.242.61,4.878,3.45,11.04,4.891,13.577,1.733.384,13.82,1.507,17.621,1.528h.245c3.8-.021,15.887-1.144,17.62-1.528,1.441-2.537,4.282-8.7,4.891-13.577.207-1.66-1.274-4.837-5.588-7.242.482.12,5.7,1.452,5.634.216a14.68,14.68,0,0,0-3.951-7.414l-.206-.2C79.039,94.37,75.286,91.2,72.3,89.968a11.676,11.676,0,0,1-2.868-6.9c.065-.046.108-.085.106-.11a52.021,52.021,0,0,0,6.627-4c4.1,4.954,11.864,4.318,19.394,3.687,5.37-.447,10.446-.871,13.838.7a10.548,10.548,0,0,1,5.69,6.02,6.515,6.515,0,0,1-.274,5.174c0,.006,0,.014-.006.02a6.48,6.48,0,0,1-2.781,2.666,1,1,0,0,0,.941,1.765,9.107,9.107,0,0,0,2.431-1.872,7.19,7.19,0,0,1-.39,5.311,7.873,7.873,0,0,1-5.652,3.939,10.016,10.016,0,0,1-5.182-.339,1,1,0,0,0-.635,1.9,12.216,12.216,0,0,0,3.878.638c.256,0,.509-.022.763-.039-.024.058-.051.118-.078.177a6.131,6.131,0,0,1-2.323,2.712c-1.784,1.031-4.23.976-7.275-.167a1,1,0,0,0-.331-.052c-.075-.136-.143-.286-.224-.41A43.287,43.287,0,0,0,83.675,97.7a23.217,23.217,0,0,1,2.212,5.681,1.383,1.383,0,0,1-.363,1.246c-.16.157-.508.5-1.793.5-.141,0-.3,0-.461-.012,1.989,2.012,2.774,4.138,2.588,5.639-.506,4.043-3.233,10.319-4.682,13.273a55,55,0,0,0,12.135-4.16c3.94-1.972,5.851-4,5.66-6.364a13.252,13.252,0,0,0,3.84.636,7.775,7.775,0,0,0,3.993-1.016,7.462,7.462,0,0,0,2.659-2.706h0v0a16.15,16.15,0,0,0,.947-2.243l0-.016a9.708,9.708,0,0,0,6.371-4.82A9.523,9.523,0,0,0,116.788,95.024ZM92.611,48.944c2.468,1.022,3.52,4.513,2.4,7.968A7.731,7.731,0,0,1,91.085,61.2a6.25,6.25,0,0,1-3.806.641,46.763,46.763,0,0,0,.922-6.16,4.556,4.556,0,0,1,3.643-1.258,1,1,0,0,0,.269-1.982,7.123,7.123,0,0,0-3.744.623q.081-1.951.045-4.106a7.216,7.216,0,0,1,3.985-.088A.982.982,0,0,0,92.611,48.944ZM33.329,61.2a7.734,7.734,0,0,1-3.921-4.288c-1.129-3.47-.065-6.977,2.439-7.989a6.912,6.912,0,0,1,4.081.035q-.034,2.15.047,4.1a7.15,7.15,0,0,0-3.734-.618,1,1,0,0,0,.268,1.982,4.564,4.564,0,0,1,3.634,1.225,46.417,46.417,0,0,0,.939,6.2A6.284,6.284,0,0,1,33.329,61.2Zm4.364-22.135a20.211,20.211,0,0,1-.75,3.1,21.942,21.942,0,0,0-1.008,4.713,9.494,9.494,0,0,0-3.566-.139c-1.069-14.31,2.088-26.286,8.959-33.8,5.185-5.672,12.395-8.671,20.849-8.671s15.67,3,20.853,8.672c6.867,7.516,10.019,19.491,8.946,33.8a9.832,9.832,0,0,0-3.562.147,23.2,23.2,0,0,0-.938-4.773,22.333,22.333,0,0,1-.692-3.042,21.3,21.3,0,0,1,0-3.729c.119-2.062.231-4.008-.592-5.722-1.046-2.179-3.106-3.445-4.923-4.563a21.077,21.077,0,0,1-2.335-1.577,20.837,20.837,0,0,1-2.086-2.1c-1.458-1.607-2.965-3.27-5.171-3.968a11.5,11.5,0,0,0-5.571.146,16.528,16.528,0,0,1-3.814.424.851.851,0,0,0-.1,0,16.546,16.546,0,0,1-3.814-.424,11.525,11.525,0,0,0-5.571-.146c-2.206.7-3.713,2.361-5.171,3.968a20.837,20.837,0,0,1-2.086,2.1,21.077,21.077,0,0,1-2.335,1.577c-1.817,1.118-3.877,2.384-4.923,4.563-.823,1.714-.711,3.66-.592,5.722A21.3,21.3,0,0,1,37.693,39.066Zm34.354,84.226q-3.028.283-6.178.385l-.007-.031c-1.165.048-2.338.083-3.527.09h-.256c-1.188-.007-2.362-.042-3.527-.09l-.007.031q-3.145-.1-6.178-.385a111.66,111.66,0,0,1-1.047-20.543,37.016,37.016,0,0,0,10.919,2.121,25.448,25.448,0,0,0,4.446-.45l0-.019a44.941,44.941,0,0,0,6.412-1.652A111.546,111.546,0,0,1,72.047,123.292Zm-1-31.741a35.75,35.75,0,0,1,1.889,9.135,41.665,41.665,0,0,1-7.483,1.907v.009a21.718,21.718,0,0,1-3.214.268,35.495,35.495,0,0,1-10.761-2.184,35.793,35.793,0,0,1,1.889-9.135,13.4,13.4,0,0,0,3.514-7.638,14.63,14.63,0,0,0,5.29,1.415A14.868,14.868,0,0,0,67.532,83.9,13.408,13.408,0,0,0,71.047,91.551Zm4.859-14.883c-4.216,3.217-10.742,6.66-13.735,6.66a15.872,15.872,0,0,1-5.857-1.87l-.045-.022a50.178,50.178,0,0,1-7.826-4.763C43.322,72.7,37.5,65.893,37.937,48.355a.993.993,0,0,0,0-.109,15.308,15.308,0,0,1,.928-5.515,21.748,21.748,0,0,0,.818-3.424,22.859,22.859,0,0,0,.013-4.085c-.1-1.8-.2-3.493.4-4.742.792-1.648,2.432-2.656,4.168-3.724a23.05,23.05,0,0,0,2.559-1.737,22.672,22.672,0,0,0,2.3-2.3c1.337-1.476,2.6-2.87,4.292-3.406a4.9,4.9,0,0,1,1.467-.2,17.592,17.592,0,0,1,3.132.407,18.736,18.736,0,0,0,4.233.458,18.643,18.643,0,0,0,4.234-.458,10.023,10.023,0,0,1,4.6-.206c1.691.536,2.954,1.93,4.292,3.406a22.672,22.672,0,0,0,2.3,2.3,23.05,23.05,0,0,0,2.559,1.737c1.736,1.068,3.376,2.076,4.168,3.724.6,1.249.5,2.946.4,4.742a22.955,22.955,0,0,0,.014,4.085,23.92,23.92,0,0,0,.748,3.33,16.351,16.351,0,0,1,.863,5.609c0,.036,0,.073,0,.109C86.843,66.017,81.025,72.763,75.906,76.668Z"/></svg>