<svg id="Solid" xmlns="http://www.w3.org/2000/svg" viewBox="0 0 128 128"><title>avatar-03_20</title><rect x="49.562" y="45.579" width="4.056" height="5.096" rx="1.975" ry="1.975" transform="translate(103.18 96.254) rotate(-180)"/><path d="M57.048,43.629a2.865,2.865,0,0,1-1.223-.211l-1.173-.382c-.779-.265-1.554-.55-2.324-.865l-.054-.023a.754.754,0,0,1,.414-1.441c.824.142,1.644.313,2.459.505l1.218.3a2.932,2.932,0,0,1,1.169.474.912.912,0,0,1-.462,1.635Z"/><path d="M54.277,47.827a2.657,2.657,0,0,0-1.349-.845,6.469,6.469,0,0,0-2.081-.307,7.88,7.88,0,0,0-2.129.277,9.964,9.964,0,0,1-2.113.625l-.095.006a.653.653,0,0,1-.7-.606.673.673,0,0,1,.043-.284,3.354,3.354,0,0,1,2.229-1.711,8.739,8.739,0,0,1,2.752-.494,8.367,8.367,0,0,1,2.8.444,5.148,5.148,0,0,1,1.36.727,3.278,3.278,0,0,1,1.107,1.391.984.984,0,0,1-1.721.936Z"/><rect x="74.418" y="45.579" width="4.056" height="5.096" rx="1.975" ry="1.975"/><path d="M70.5,41.991A20.854,20.854,0,0,1,74,40.819c1.2-.312,2.42-.6,3.67-.8a17.261,17.261,0,0,1,3.853-.206,6.207,6.207,0,0,1,3.861,1.488.753.753,0,0,1-.993,1.131l-.038-.032a4.835,4.835,0,0,0-2.928-.85,16.5,16.5,0,0,0-3.436.332c-1.158.21-2.315.51-3.467.838a29.523,29.523,0,0,1-3.531.9.861.861,0,0,1-.5-1.634Z"/><path d="M71.931,47.05a3.278,3.278,0,0,1,1.107-1.391,5.163,5.163,0,0,1,1.36-.727,8.371,8.371,0,0,1,2.8-.444,8.739,8.739,0,0,1,2.752.494,3.354,3.354,0,0,1,2.229,1.711.655.655,0,0,1-.652.891l-.1-.007a9.964,9.964,0,0,1-2.113-.625,7.88,7.88,0,0,0-2.129-.277,6.469,6.469,0,0,0-2.081.307,2.649,2.649,0,0,0-1.348.845l-.108.158a.984.984,0,0,1-1.721-.935Z"/><path d="M63.717,67.226l.292,0c1.523,0,5.22-.21,5.863-2.208a1.008,1.008,0,0,0-.642-1.267.991.991,0,0,0-1.254.636c-.157.264-1.369.78-3.582.835-2.483.059-4.121-.493-4.321-.781a1,1,0,0,0-1.926.541C58.693,66.924,62.224,67.2,63.717,67.226Z"/><path d="M64.01,59.154c.031,0,3.17-.076,3.17-1.77a1,1,0,0,0-1.868-.5,4.191,4.191,0,0,1-1.3.268,4.32,4.32,0,0,1-1.323-.268,1,1,0,0,0-1.867.5C60.82,59.078,63.978,59.154,64.01,59.154Z"/><path d="M102.628,109.654c-2.4-3.846-7.515-9.39-14.862-13.885,2.031-1.274,4.417-3.19,4.9-5.384.521-2.416-1.152-5.854-2.743-8.063-.862-1.2-3.133-4.008-5.618-4.283-3.866-.418-8.479,2.934-11.155,5.252a17.183,17.183,0,0,1-.231-2.331c7.566-2.907,12.388-8.537,14.7-17.171a7.469,7.469,0,0,0,1.407.144,9.289,9.289,0,0,0,4.073-1,10.337,10.337,0,0,0,5.3-5.856,9.316,9.316,0,0,0-.953-8.531c.829-5.831,1.337-10.492.478-15.5a2.54,2.54,0,0,0,1.389-1.052c1.483-2.256-.089-6.911-2.054-10.515C93.9,15.316,87.267,8.167,79.491,8.006,65.934-3.407,51.04,3.769,45.238,7.407,35.4,13.573,30.984,20.165,28.955,31.73c-.675,3.843-.336,6.046,1.066,6.933a2.381,2.381,0,0,0,1.411.358,26.976,26.976,0,0,0-.636,9.265c-1.79,2.164-2.253,5.469-1.167,8.787a10.376,10.376,0,0,0,5.311,5.861,9.267,9.267,0,0,0,4.068,1,7.481,7.481,0,0,0,1.409-.143c2.313,8.627,7.121,14.254,14.662,17.161a17,17,0,0,1-.231,2.34c-2.672-2.316-7.277-5.663-11.158-5.251-2.482.275-4.753,3.086-5.615,4.283-1.591,2.209-3.264,5.647-2.742,8.068.484,2.19,2.87,4.105,4.9,5.379-7.347,4.495-12.459,10.039-14.861,13.883a6.142,6.142,0,0,0-1.1,4.879c.59,2.285,2.854,3.8,4.991,4.979,1.24.683,12.75,6.674,34.732,6.674s33.492-5.991,34.733-6.675c2.136-1.179,4.4-2.693,4.99-4.978A6.139,6.139,0,0,0,102.628,109.654ZM96.5,56.456a8.435,8.435,0,0,1-4.28,4.68,6.794,6.794,0,0,1-4.118.711,62.474,62.474,0,0,0,1.162-6.506,5.624,5.624,0,0,1,4.023-1.678,1,1,0,0,0,.071-2,8.206,8.206,0,0,0-3.832.939c.1-1.512.141-2.97.142-4.5a8.109,8.109,0,0,1,4.241.123,4.454,4.454,0,0,1,1.737,1.237C97.052,51.081,97.38,53.761,96.5,56.456ZM35.821,61.138a8.457,8.457,0,0,1-4.291-4.685c-.919-2.811-.528-5.557,1.021-7.166,0-.005.006-.013.011-.018a4.642,4.642,0,0,1,1.581-1.056,8.014,8.014,0,0,1,4.226-.116c0,1.429.027,2.9.139,4.508a8.144,8.144,0,0,0-3.825-.941,1,1,0,0,0-.96,1.033,1.025,1.025,0,0,0,1.03.966,5.567,5.567,0,0,1,4.02,1.685,64.362,64.362,0,0,0,1.162,6.5A6.791,6.791,0,0,1,35.821,61.138Zm6.282,1.2a56.045,56.045,0,0,1-1.733-14.9v0c0-1.907,1.043-5.215,2.37-8.084a5.37,5.37,0,0,0,.5,3.431,1.489,1.489,0,0,0,1.179.572c14.181-.394,24.789-5.319,31.53-14.64a3.99,3.99,0,0,1,6.917.832C85.9,36.928,87.648,43.45,87.67,47.439a57.735,57.735,0,0,1-.354,7.371,61.529,61.529,0,0,1-1.379,7.53c-2.128,8.878-6.7,14.28-14.37,17a31.728,31.728,0,0,1-4.666,1.24,15.242,15.242,0,0,1-5.775,0,30.947,30.947,0,0,1-4.691-1.25C48.784,76.61,44.23,71.211,42.1,62.34ZM60.858,97.721A90.6,90.6,0,0,0,55.927,115a1,1,0,0,1-.987.842,1.071,1.071,0,0,1-.158-.012,1,1,0,0,1-.83-1.145A90.919,90.919,0,0,1,59,96.974a1,1,0,1,1,1.855.747Zm-4.3-12.858a17.1,17.1,0,0,0,.505-3.246,33.913,33.913,0,0,0,3.7.929,17.257,17.257,0,0,0,6.523,0,34.405,34.405,0,0,0,3.667-.922,17.038,17.038,0,0,0,.5,3.239A34.243,34.243,0,0,0,64,95.2,34.238,34.238,0,0,0,56.553,84.863Zm16.665,30.964a1.071,1.071,0,0,1-.158.012,1,1,0,0,1-.987-.842,90.6,90.6,0,0,0-4.931-17.276A1,1,0,1,1,69,96.974a90.919,90.919,0,0,1,5.051,17.708A1,1,0,0,1,73.218,115.827Z"/></svg>