<svg id="Solid" xmlns="http://www.w3.org/2000/svg" viewBox="0 0 128 128"><title>avatar-01_11</title><path d="M43.9,52.959a4.03,4.03,0,0,0,1.542-.154c.239-.077.481-.136.719-.238l.36-.138.18-.072a2.32,2.32,0,0,1,.329-.1,2.445,2.445,0,0,1,2.167.56,2.526,2.526,0,0,0,.191.166l.141.118a5.658,5.658,0,0,0,1.261.789,9.121,9.121,0,0,0,3.031.767,10.3,10.3,0,0,0,3.134-.186l.056-.013a1,1,0,0,1,.607,1.9,9,9,0,0,1-3.962.59,9.478,9.478,0,0,1-3.876-1.036,6.738,6.738,0,0,1-1.7-1.217l-.324-.329a.367.367,0,0,0-.086-.081.4.4,0,0,0-.244-.063c-.926.28-2.925.433-3.813-.823a.28.28,0,0,1,.259-.439Z"/><path d="M43.841,45.885a12.592,12.592,0,0,1,6.522-2.22,21.518,21.518,0,0,1,3.453,0c.577.042,1.153.117,1.733.215a8.858,8.858,0,0,1,1.819.485,1,1,0,1,1-.76,1.852c-.019-.007-.038-.016-.056-.024l-.039-.019a11.607,11.607,0,0,0-2.9-.79,19.881,19.881,0,0,0-3.179-.256,11.433,11.433,0,0,0-6.051,1.511l-.014.009a.463.463,0,0,1-.525-.762Z"/><ellipse cx="51.998" cy="56.569" rx="2.611" ry="1.728"/><path d="M38.634,82.938a1,1,0,0,1-1-1V71.432a1,1,0,0,1,2,0V81.938A1,1,0,0,1,38.634,82.938Z"/><path d="M89.6,71.835A2.839,2.839,0,1,1,92.44,69,2.842,2.842,0,0,1,89.6,71.835Zm0-3.678A.839.839,0,1,0,90.44,69,.839.839,0,0,0,89.6,68.157Z"/><path d="M89.6,82.342a1,1,0,0,1-1-1V70.835a1,1,0,1,1,2,0V81.342A1,1,0,0,1,89.6,82.342Z"/><path d="M71.362,68.516a1,1,0,0,0-1.4.186,1.107,1.107,0,0,1-1.1.272l-1.849-.81a.978.978,0,0,0-.1-.037,2.989,2.989,0,0,0-2.347.227,3,3,0,0,0-2.351-.227c-.033.011-.065.023-.1.037l-1.851.81a1.11,1.11,0,0,1-1.1-.272,1,1,0,0,0-1.588,1.215,3,3,0,0,0,2.385,1.105,2.8,2.8,0,0,0,1.11-.216l1.8-.786a1.029,1.029,0,0,1,1,.276l0,0,0,0a1.034,1.034,0,0,0,.165.107,1,1,0,0,0,.165.106.861.861,0,0,0,.143.028,1,1,0,0,0,.233.043,30.3,30.3,0,0,0,.375-.075,1.015,1.015,0,0,0,.166-.11.93.93,0,0,0,.16-.107l0,0,0,0a1.014,1.014,0,0,1,.982-.27l1.792.786a2.808,2.808,0,0,0,1.111.216,3,3,0,0,0,2.385-1.105A1,1,0,0,0,71.362,68.516Z"/><path d="M65.724,74.18h-2.33a1,1,0,0,1,0-2h2.33a1,1,0,0,1,0,2Z"/><path d="M109.931,86.228c-8.54-12.593-11.978-19.589-11.16-30.323.6-7.883.316-18.266-6.836-29.22,3.78-1.611,6.292-2.95,7.445-3.98,2.276-2.035,2.373-3.717,2.052-4.77-.454-1.5-2.017-2.537-4.287-2.855a48.419,48.419,0,0,0-11.641.038,1.445,1.445,0,0,1-1.369-.634C81.845,11.057,72.965.151,54.921,3.708,33.536,7.919,31.139,23.973,30.915,28.8A1.487,1.487,0,0,1,30,30.109C20.921,33.973,16.878,37.8,17.986,41.467c.394,1.309,1.524,2.913,4.674,3.12q.633.042,1.37.041a45.031,45.031,0,0,0,4.826-.314,70.149,70.149,0,0,0-.369,15.446c.112,1.594.3,3.34.575,5.327.7,5.444-2.87,10.958-6.648,16.8-4.167,6.438-8.477,13.1-6.718,19.928,1.252,4.866,5.449,9.209,12.8,13.265-.168,2.8,2.235,4.548,4.674,5.889a33.382,33.382,0,0,0,4.78,2.058C42.177,124.508,51.251,127,64.56,127h.007c13.3,0,22.374-2.491,26.6-3.976a33.3,33.3,0,0,0,4.78-2.058c2.5-1.374,4.933-3.162,4.659-6.033,2.391-.913,10.481-4.49,13.01-11.883C115.335,98.025,114.1,92.366,109.931,86.228ZM71.107,117.272a70.263,70.263,0,0,0-5.683,5.491A44.777,44.777,0,0,1,65.581,116a1,1,0,0,0-1.975-.321,44.2,44.2,0,0,0-.193,6.761c-1.335-1.483-3.185-3.166-5.391-5.159-4.8-4.341-10.726-9.7-14.206-15.914C44.982,100.63,46.2,99.9,47.5,99.21c.816-.439,1.694-.838,2.544-1.224,3.945-1.793,8.382-3.819,9.209-11.132a15.51,15.51,0,0,0,10.5.042c.835,7.276,5.29,9.285,9.25,11.062.918.413,1.785.8,2.624,1.253,1.3.7,2.518,1.421,3.681,2.156C81.826,107.573,75.907,112.932,71.107,117.272Zm-.83-32.667a16.2,16.2,0,0,1-5.713,1.185,16.3,16.3,0,0,1-5.839-1.233,38.993,38.993,0,0,1-7.191-3.852,19.66,19.66,0,0,1-9.213-13.557,50.5,50.5,0,0,1-.939-7.411c-.117-1.863-.178-3.882-.188-6.168,0-.288,0-.567.01-.862a29.46,29.46,0,0,1,2.2-11.017C49.5,40.314,56.4,38.509,63.473,36.442c.234,1.293.387,2.765.545,4.311.725,7.113,1.716,16.854,12.141,24.144a20.83,20.83,0,0,0,10.37,3.379A19.606,19.606,0,0,1,77.585,80.7,38.668,38.668,0,0,1,70.277,84.605ZM39.261,57.21a4.047,4.047,0,0,0-2.521-.241,1,1,0,0,0,.389,1.962A1.864,1.864,0,0,1,39.4,60.075a55.355,55.355,0,0,0,.766,6.458,5.868,5.868,0,0,1-3.411-.951,7.524,7.524,0,0,1-3.4-4.668,10.555,10.555,0,0,1-.181-1.5c-.077-1.475.062-5,2.97-5.869a8.049,8.049,0,0,1,3.052-.043v.068C39.2,54.865,39.223,56.066,39.261,57.21Zm-21.628,44.1c-1.54-5.984,2.345-11.987,6.46-18.343C27.9,77.086,31.838,71,31.045,64.823c-.27-1.953-.453-3.655-.564-5.215a67.8,67.8,0,0,1,.433-15.552c2.959-.416,6.353-1.032,10.136-1.844a31.769,31.769,0,0,0-1.8,9.28,9.617,9.617,0,0,0-3.674.139c-2.965.885-4.611,3.834-4.4,7.891a12.7,12.7,0,0,0,.218,1.784A9.583,9.583,0,0,0,35.7,67.28a7.961,7.961,0,0,0,4.192,1.267,6.624,6.624,0,0,0,.691-.044,21.558,21.558,0,0,0,9.851,13.872,42.534,42.534,0,0,0,6.874,3.752c-.553,6.591-4.053,8.2-8.094,10.038-.88.4-1.789.813-2.663,1.283-1.281.687-2.492,1.406-3.654,2.135-.049-.1-.1-.206-.151-.311a1.557,1.557,0,0,0-1.562-.828,2.253,2.253,0,0,0-2.017,1.571,20.875,20.875,0,0,0-.651,2.587,36.339,36.339,0,0,0-8.9,9.337,8.873,8.873,0,0,0-.605,1.136C22.446,109.378,18.716,105.523,17.633,101.313Zm12.919,13.421A5.509,5.509,0,0,1,31.311,113,32.481,32.481,0,0,1,38,105.579a79.124,79.124,0,0,0-.914,14.986,26.226,26.226,0,0,1-2.95-1.352C31.214,117.605,30.209,116.351,30.552,114.734Zm64.429,4.48a26.263,26.263,0,0,1-2.942,1.348,79.363,79.363,0,0,0-.925-14.987A32.468,32.468,0,0,1,97.808,113a5.474,5.474,0,0,1,.7,1.533C98.989,116.267,98.032,117.535,94.981,119.214Zm16.745-16.821c-2.169,6.356-9.336,9.669-11.655,10.594a8.776,8.776,0,0,0-.569-1.048,36.338,36.338,0,0,0-8.9-9.335,22.314,22.314,0,0,0-.642-2.586,2.273,2.273,0,0,0-2.038-1.574,1.552,1.552,0,0,0-1.553.829c-.047.1-.1.207-.151.311-1.159-.729-2.37-1.447-3.653-2.135-.9-.485-1.842-.907-2.751-1.315-4.054-1.819-7.565-3.415-8.126-9.955a42.342,42.342,0,0,0,6.993-3.8c5.4-3.551,8.309-7.707,9.936-14.21,3-.481,6.675-2.464,6.955-4.284a1.538,1.538,0,0,0-1.041-1.691c-3.692-1.464-4.558-2.657-4.629-6.379a21.383,21.383,0,0,1,.162-2.218c.432-4.218,1.236-12.071-4.3-21.039a1,1,0,1,0-1.7,1.051c5.181,8.39,4.45,15.522,4.014,19.785a21.977,21.977,0,0,0-.173,2.459c.085,4.374,1.372,6.311,5.456,8.024a10.4,10.4,0,0,1-5.623,2.389,18.31,18.31,0,0,1-10.43-3c-9.675-6.767-10.576-15.607-11.3-22.709-.17-1.67-.338-3.253-.61-4.675,9.443-2.807,18.324-5.836,24.66-8.409,6.985,10.492,7.334,20.174,6.719,28.286-.858,11.262,2.854,18.85,11.5,31.6C112.065,92.937,113.226,98,111.726,102.393Z"/><path d="M64.564,65.12c-.026,0-2.67-.044-2.67-1.591a1,1,0,0,1,1.822-.57,3.129,3.129,0,0,0,.848.161,3.079,3.079,0,0,0,.839-.161,1,1,0,0,1,1.821.57C67.224,65.076,64.591,65.12,64.564,65.12Z"/><path d="M38.634,72.432a2.839,2.839,0,1,1,2.839-2.839A2.842,2.842,0,0,1,38.634,72.432Zm0-3.678a.839.839,0,1,0,.839.839A.839.839,0,0,0,38.634,68.754Z"/></svg>