<svg id="Solid" xmlns="http://www.w3.org/2000/svg" viewBox="0 0 128 128"><title>avatar-03_19</title><path d="M99.6,107.6c.01-2.69-.21-21.23-6.79-37.24a17.577,17.577,0,0,0,4.57-3.12c8.95-8.57,9.05-41.09,9.05-42.47a1,1,0,0,0-1-1h-4a1,1,0,0,0-1,1c0,12.97-2.23,33.39-7.19,38.15a12.121,12.121,0,0,1-2.68,1.89,47.684,47.684,0,0,0,6.42-21.04c.87-11.7-2.84-22.96-10.18-30.87a34.118,34.118,0,0,0-49.98,0c-7.34,7.91-11.05,19.17-10.18,30.87a47.546,47.546,0,0,0,6.61,21.35c-8.96,16.95-9.24,39.46-9.23,42.48-.45.6-.85,1.19-1.2,1.74a6.172,6.172,0,0,0-1.1,4.91c.59,2.3,2.87,3.83,5.03,5.02a31.5,31.5,0,0,0,4.43,1.97c4.68,1.74,14.67,4.64,29.63,4.76l.03-40.07v-.05a15.868,15.868,0,0,1-6.29-2.05,18.749,18.749,0,0,0,.26-2.08,21.909,21.909,0,0,0,7,1.76,21.909,21.909,0,0,0,7-1.76,16.641,16.641,0,0,0,.26,2.08,15.906,15.906,0,0,1-6.24,2.04.127.127,0,0,1,.01.06L62.811,126c14.96-.12,24.95-3.02,29.62-4.76a31.227,31.227,0,0,0,4.44-1.97c2.16-1.19,4.44-2.72,5.03-5.02a6.172,6.172,0,0,0-1.1-4.91C100.451,108.785,100.051,108.2,99.6,107.6Zm-68.79,11.35a27.039,27.039,0,0,1-3.1-1.43c-2.52-1.39-3.74-2.52-4.06-3.77a4.341,4.341,0,0,1,.87-3.35c.37-.59.8-1.22,1.3-1.87a47.625,47.625,0,0,1,13.23-11.62A106.874,106.874,0,0,0,30.811,118.945Zm9.85-75.57,1.57-.21c5.05-.69,12.69-1.74,18.11-.58a6.939,6.939,0,0,0,2.94,0c5.43-1.16,13.06-.11,18.11.58l1.57.21a3.886,3.886,0,0,1,3.1,2.29,22.356,22.356,0,0,1,1.71,5.89,2.966,2.966,0,0,1-.46,1.85c-1.49,2.28-5.73,5.28-7.76,6.56a4.983,4.983,0,0,1-5.88-.45,45.276,45.276,0,0,1-3.56-3.47q-.09-.105-.27-.33c-.78-.99-2.88-3.63-8.03-3.63s-7.25,2.64-8.03,3.63c-.12.15-.21.26-.28.34a45.037,45.037,0,0,1-3.55,3.46,4.995,4.995,0,0,1-5.88.45c-2.03-1.28-6.27-4.28-7.76-6.55a3.011,3.011,0,0,1-.46-1.86,22.356,22.356,0,0,1,1.71-5.89A3.886,3.886,0,0,1,40.661,43.375Zm-.88-3.93c1.68-4.06,7.36-14.62,21.13-14.62.29,0,.58,0,.87.01.01,0,.02-.01.03,0,.01-.01.02,0,.03,0,14.39-.45,20.28,10.47,21.99,14.61a188.7,188.7,0,0,0-22.02-1.39A189.011,189.011,0,0,0,39.781,39.445Zm36.71,36c-.46.33-.96.68-1.51,1.03l-.01.01a.3.3,0,0,0-.08.04c-.04.02-.07.03-.09.04l.01.01a43.913,43.913,0,0,1-5.45,2.78,36.061,36.061,0,0,1-4.35,1.57,12.44,12.44,0,0,1-3.2.58,23.385,23.385,0,0,1-7.55-2.15,43.88,43.88,0,0,1-5.4-2.75c-.02-.01-.03-.03-.05-.04a.9.9,0,0,1-.09-.05c-.54-.34-1.09-.7-1.58-1.06-3.67-2.77-6.02-6.94-7.47-13.31,2.2,1.65,4.77,3.1,7.07,3.1,4.32,0,8.14-4.28,9.78-6.12.06-.06.13-.15.22-.26a6.061,6.061,0,0,1,10.14,0c.09.11.16.2.22.27,1.64,1.83,5.46,6.11,9.78,6.11,2.29,0,4.86-1.44,7.06-3.09a37.552,37.552,0,0,1-1.43,4.82,50.468,50.468,0,0,1-13.05-.7,8.682,8.682,0,0,0-7.62-3.96c-4.61,0-8.37,3.01-8.37,6.72s3.76,6.72,8.37,6.72a8.86,8.86,0,0,0,7.29-3.43,58.363,58.363,0,0,0,9.54.82c.09,0,.18-.01.28-.01A16.3,16.3,0,0,1,76.491,75.445Zm-8.27-6.41a3.666,3.666,0,0,1-.44,1.72c-.96,1.79-3.35,3-5.94,3-3.51,0-6.37-2.12-6.37-4.72s2.86-4.72,6.37-4.72c2.76,0,5.2,1.31,6.07,3.27A3.632,3.632,0,0,1,68.221,69.035Zm12.76,2.05a54.628,54.628,0,0,1-10.95-.64,5.155,5.155,0,0,0,.19-1.41q0-.3-.03-.6a51.186,51.186,0,0,0,13.15.46,26.769,26.769,0,0,0,4.81-.96.185.185,0,0,1,.07-.02,15.685,15.685,0,0,0,6.4-3.56c6.18-5.93,7.7-28.96,7.8-38.59h2c-.1,9.88-1.74,33.63-8.42,40.03a15.913,15.913,0,0,1-4.87,3.15,26.66,26.66,0,0,1-7.75,1.95C82.651,70.985,81.891,71.045,80.981,71.085Zm18.99,42.66c-.32,1.25-1.54,2.38-4.06,3.77a27.039,27.039,0,0,1-3.1,1.43,106.874,106.874,0,0,0-8.24-22.04,47.8,47.8,0,0,1,13.23,11.61c.5.66.93,1.29,1.3,1.88A4.341,4.341,0,0,1,99.971,113.745Z"/></svg>