<svg id="Solid" xmlns="http://www.w3.org/2000/svg" viewBox="0 0 128 128"><title>avatar-02_2</title><path d="M60,69.545a.975.975,0,0,1-.92-.707,1.036,1.036,0,0,1,.692-1.267,59.3,59.3,0,0,1,8.355-.009,1,1,0,0,1-.5,1.936c-.732-.109-6.646-.108-7.338,0A.978.978,0,0,1,60,69.545Z"/><path d="M63.979,61.642c-.026,0-2.672-.043-2.672-1.593a1,1,0,0,1,1.822-.57,3.114,3.114,0,0,0,.85.163,3.171,3.171,0,0,0,.862-.163,1,1,0,0,1,1.822.57C66.663,61.6,64.006,61.642,63.979,61.642Zm-.672-1.593h0Z"/><path d="M77.175,58.024c-3,0-6.091-.079-6.946-.1a3.544,3.544,0,0,1-3.381-2.929,26.215,26.215,0,0,1-.515-4.79,3.585,3.585,0,0,1,3.362-3.633,107.056,107.056,0,0,1,12.654,0,3.581,3.581,0,0,1,3.343,3.63,24.868,24.868,0,0,1-.52,4.82,3.647,3.647,0,0,1-3.339,2.9C80.6,58,78.9,58.024,77.175,58.024Zm-.793-9.643c-2.434,0-4.918.068-6.545.183a1.588,1.588,0,0,0-1.5,1.661A24.2,24.2,0,0,0,68.8,54.56a1.562,1.562,0,0,0,1.483,1.362c3.86.107,8.885.163,11.423,0h0a1.7,1.7,0,0,0,1.526-1.39,23.164,23.164,0,0,0,.46-4.307,1.6,1.6,0,0,0-1.519-1.664C80.728,48.437,78.575,48.381,76.382,48.381Z"/><path d="M50.825,58.024c-1.729,0-3.429-.026-4.658-.1h0a3.647,3.647,0,0,1-3.339-2.9,24.868,24.868,0,0,1-.52-4.82,3.581,3.581,0,0,1,3.343-3.63,107.073,107.073,0,0,1,12.655,0A3.585,3.585,0,0,1,61.667,50.2,26.166,26.166,0,0,1,61.151,55a3.543,3.543,0,0,1-3.38,2.927C56.916,57.945,53.827,58.024,50.825,58.024Zm.793-9.643c-2.193,0-4.346.056-5.791.182a1.6,1.6,0,0,0-1.519,1.664,23.164,23.164,0,0,0,.46,4.307,1.7,1.7,0,0,0,1.526,1.39h0c2.538.161,7.564.1,11.423,0a1.56,1.56,0,0,0,1.482-1.36,24.149,24.149,0,0,0,.468-4.337,1.588,1.588,0,0,0-1.5-1.661C56.536,48.449,54.052,48.381,51.618,48.381Z"/><path d="M60.642,51.214a1,1,0,0,1-.265-1.964,13.454,13.454,0,0,1,7.194,0,1,1,0,0,1-.523,1.93,11.5,11.5,0,0,0-6.14,0A1.026,1.026,0,0,1,60.642,51.214Z"/><path d="M69.175,45.043a20.918,20.918,0,0,1,3.547-.9,23.607,23.607,0,0,1,7.308,0,17.789,17.789,0,0,1,3.594.913.8.8,0,0,1-.474,1.532l-.054-.013a26.1,26.1,0,0,0-3.315-.558,30.471,30.471,0,0,0-6.8.042c-1.133.1-2.247.33-3.375.531l-.035.006a.8.8,0,0,1-.4-1.554Z"/><path d="M58.389,46.591c-1.128-.2-2.242-.427-3.375-.531a30.471,30.471,0,0,0-6.8-.042,26.1,26.1,0,0,0-3.315.558l-.054.013a.8.8,0,0,1-.474-1.532,17.789,17.789,0,0,1,3.594-.913,23.607,23.607,0,0,1,7.308,0,20.953,20.953,0,0,1,3.548.9.8.8,0,0,1-.4,1.554Z"/><path d="M101.67,108.5c-.9-1.43-8.78-13.6-20.14-19.7C92.35,82.47,96.85,72.79,99.3,65.93c5.23-14.65,2.09-34.51-7.63-48.3C84.57,7.55,74.75,2,64.01,2h-.02C53.25,2,43.43,7.55,36.33,17.63c-9.72,13.79-12.86,33.65-7.63,48.3,2.45,6.86,6.95,16.54,17.77,22.87-11.36,6.09-19.24,18.27-20.14,19.7a6.916,6.916,0,0,0-1.01,5.5,9.233,9.233,0,0,0,4.79,5.49C31.32,120.15,42.56,126,64,126s32.68-5.85,33.89-6.51a9.233,9.233,0,0,0,4.79-5.49A6.916,6.916,0,0,0,101.67,108.5ZM60.79,91.04c-4.82,4.94-6.1,14.74-6.1,19.23a1,1,0,0,1-2,0c0-4.77,1.4-15.23,6.67-20.63a1.01,1.01,0,0,1,.68-.3,1.024,1.024,0,0,1,.74.29.832.832,0,0,1,.2.3h.01A1,1,0,0,1,60.79,91.04Zm1.06-4.11c-.71-.51-1.56-1.13-2.48-1.81.76.19,1.52.34,2.27.45a14.752,14.752,0,0,0,4.72,0c.75-.11,1.51-.26,2.27-.45-.92.68-1.77,1.3-2.48,1.81A3.662,3.662,0,0,1,61.85,86.93Zm12.46,24.34a.99.99,0,0,1-1-1c0-4.49-1.28-14.29-6.1-19.23a1,1,0,0,1-.2-1.11h.01a.832.832,0,0,1,.2-.3,1.024,1.024,0,0,1,.74-.29,1.01,1.01,0,0,1,.68.3c5.27,5.4,6.67,15.86,6.67,20.63A1,1,0,0,1,74.31,111.27ZM70.45,82.53A19.757,19.757,0,0,1,64,83.76a25.319,25.319,0,0,1-6.45-1.23c-2.633-.78-6.08-3.56-7.03-4.47a31.7,31.7,0,0,1-7.48-12.5c-.12-.33-.23-.67-.34-1.01-1.36-4.34-1.54-14.49-.69-19.19a28.865,28.865,0,0,1,1.63-5.76C46.958,30.742,54.4,22.94,64,22.94c9.53,0,17.537,8.231,20.535,17.138.435,1.294,1.4,4.932,1.455,5.262v.02c.85,4.7.67,14.85-.69,19.19-.11.34-.22.68-.34,1.01a31.7,31.7,0,0,1-7.48,12.5A27.429,27.429,0,0,1,70.45,82.53Z"/><path d="M64,23.94c-9.23,0-16.33,7.68-19.54,16.29a5.765,5.765,0,0,0,2.55.79q.39.03.78.03a9.833,9.833,0,0,0,8.25-4.51,10.619,10.619,0,0,0,5.64,5.26,9.256,9.256,0,0,0,3.38.65,7.289,7.289,0,0,0,4.66-1.57,7.132,7.132,0,0,0,2.3-3.59,12.685,12.685,0,0,0,8.4,3.78,5.715,5.715,0,0,0,2.46-.49,3,3,0,0,0,.64-.4C80.3,31.59,73.22,23.94,64,23.94Z"/></svg>