<svg id="Solid" xmlns="http://www.w3.org/2000/svg" viewBox="0 0 128 128"><title>avatar-03_8</title><path d="M53.829,47.766a2.172,2.172,0,0,0-1.2-.629,6.085,6.085,0,0,0-1.923-.126,8.384,8.384,0,0,0-1.964.362,7.76,7.76,0,0,1-1.921.612l-.126.009a.656.656,0,0,1-.7-.608.649.649,0,0,1,.027-.238,3,3,0,0,1,2.005-1.716,8.883,8.883,0,0,1,2.513-.6,7.941,7.941,0,0,1,2.639.207,4.464,4.464,0,0,1,1.344.605,2.961,2.961,0,0,1,1.116,1.3.981.981,0,0,1-1.674,1Z"/><rect x="48.535" y="46.743" width="5.225" height="6.425" rx="2.567" ry="2.567" transform="translate(102.295 99.911) rotate(-180)"/><path d="M72.337,46.945a2.961,2.961,0,0,1,1.116-1.3,4.464,4.464,0,0,1,1.344-.605,7.941,7.941,0,0,1,2.639-.207,8.883,8.883,0,0,1,2.513.6,3,3,0,0,1,2,1.716.659.659,0,0,1-.673.847l-.128-.01a7.76,7.76,0,0,1-1.921-.612,8.384,8.384,0,0,0-1.964-.362,6.085,6.085,0,0,0-1.923.126,2.172,2.172,0,0,0-1.2.629l-.135.179a.981.981,0,0,1-1.674-1Z"/><rect x="74.215" y="46.743" width="5.225" height="6.425" rx="2.567" ry="2.567"/><path d="M63.925,61.742c-.031,0-3.01-.073-3.01-1.71a1,1,0,0,1,1.855-.518,3.929,3.929,0,0,0,1.155.228,3.874,3.874,0,0,0,1.144-.228,1,1,0,0,1,1.856.518C66.925,61.669,63.955,61.742,63.925,61.742Z"/><path d="M63.934,68.392a11.437,11.437,0,0,1-5.265-1.372,1,1,0,0,1,1.152-1.635,9.837,9.837,0,0,0,4.113,1.007,9.725,9.725,0,0,0,4.12-1.01A1,1,0,0,1,69.2,67.023,11.521,11.521,0,0,1,63.934,68.392Z"/><path d="M44.244,44.612a1,1,0,0,1-.815-1.577c.772-1.092,2.656-1.573,4.1-1.783,3.267-.475,7.68-.088,9.8,1.574A1,1,0,0,1,56.087,44.4c-1.594-1.253-5.456-1.577-8.271-1.167-1.831.266-2.6.743-2.755.958A1,1,0,0,1,44.244,44.612Z"/><path d="M83.736,44.612a1,1,0,0,1-.815-.419c-.156-.217-.938-.7-2.788-.965-2.81-.4-6.656-.075-8.241,1.171a1,1,0,0,1-1.236-1.573c2.106-1.654,6.5-2.046,9.761-1.578,1.454.209,3.351.688,4.133,1.784a1,1,0,0,1-.814,1.58Z"/><path d="M104.477,83.328c-5.092-7.654-5.254-23.421-5.383-36.09-.043-4.165-.083-8.1-.312-11.131A36.281,36.281,0,0,0,69.1,2.472C59.68.747,51.7,3.443,48.567,9.351c-8.69.772-16.178,11.128-19.183,26.64-.831,4.285-.918,10.305-1.009,16.679-.163,11.305-.348,24.118-4.694,30.658-5.862,8.813-10.973,17.821-8.706,24,1.023,2.788,3.5,4.818,7.343,6.063.4,2.61,2.869,4.322,5.293,5.661,1.294.715,13.311,6.985,36.344,6.985s35.059-6.27,36.352-6.984c2.4-1.324,4.853-3.018,5.278-5.591,3.881-1.256,6.392-3.316,7.432-6.15C115.338,101,110,91.643,104.477,83.328ZM39.844,53.18h0v-.006a41.029,41.029,0,0,1,.438-7.242c1.4-9.235,4.189-20.012,13.48-21.4a.993.993,0,0,0,.39-.146c5.041-3.218,9.861-4.239,14.319-3.038,7.12,1.921,12.083,9.056,14.994,14.7A40.313,40.313,0,0,1,87.9,52.762v.012A38.7,38.7,0,0,1,86.55,64.668C84.377,72.617,80.391,77.584,74.005,80.3h0a37.281,37.281,0,0,1-8.382,2.3,10.024,10.024,0,0,1-3.342-.01,36.378,36.378,0,0,1-8.355-2.3l-.04-.018c-8.22-3.547-12.493-11.052-13.856-24.335C39.936,55.063,39.875,54.161,39.844,53.18ZM54.469,82.642a40.869,40.869,0,0,0,7.476,1.916,11.93,11.93,0,0,0,2.029.174,12.179,12.179,0,0,0,1.977-.163,41.779,41.779,0,0,0,7.486-1.912c.29,5.211,2.211,7.5,5.379,9.241-1.51,6.5-2.8,13.015-2.486,17.613a85.7,85.7,0,0,1-24.509.031c.324-4.6-.98-11.2-2.51-17.777C52.274,90.064,54.174,87.75,54.469,82.642Zm56.67,23.985c-.785,2.143-2.645,3.708-5.652,4.772a8.5,8.5,0,0,0-1.126-2.589,37.322,37.322,0,0,0-6.716-7.612c-.127-.859-.293-1.73-.509-2.6a83.976,83.976,0,0,1-1.828-28.65,1,1,0,0,0-.883-1.1,1.012,1.012,0,0,0-1.105.884A86,86,0,0,0,95.2,99.084a24.959,24.959,0,0,1,.528,2.753c.832,6.11-1.174,10.8-5.5,12.865-3.638,1.737-8.3,1.173-10.616-1.286a5.706,5.706,0,0,1-1.2-3.18c-.572-4.471.878-11.6,2.531-18.635.323-1.368.651-2.731.973-4.067.636-2.633,1.236-5.121,1.722-7.393a1,1,0,1,0-1.955-.418c-.481,2.247-1.079,4.722-1.71,7.342-.224.922-.448,1.867-.673,2.808-2.182-1.29-3.76-3.119-3.886-8.016C82.036,78.829,86.2,73.521,88.478,65.2A40.663,40.663,0,0,0,89.9,52.77c.149-1.359,2.423-23.959-7.059-34.129A1,1,0,1,0,81.373,20c5.167,5.542,6.581,15.21,6.833,22.583a42.376,42.376,0,0,0-2.963-7.453c-3.095-6.006-8.426-13.607-16.25-15.718-4.969-1.339-10.264-.274-15.738,3.17C43.239,24.229,40.136,35.2,38.843,42.328c0-6.324.773-13.672,3.286-17.207A1,1,0,0,0,40.5,23.963c-5.029,7.072-3.774,25.655-2.648,29.411.033.979.094,1.891.188,2.77,1.412,13.767,5.89,21.717,14.46,25.684-.124,4.776-1.659,6.64-3.672,7.9-.217-.912-.436-1.828-.651-2.723-.627-2.6-1.22-5.056-1.694-7.28a1,1,0,1,0-1.957.416c.48,2.252,1.075,4.72,1.706,7.333.319,1.316.642,2.659.959,4.008,1.671,7.114,3.137,14.31,2.552,18.767a5.559,5.559,0,0,1-1.2,3.168c-2.326,2.473-7.011,3.027-10.661,1.264-4.356-2.105-6.335-6.865-5.43-13.067a24.346,24.346,0,0,1,.5-2.53,86.2,86.2,0,0,0,1.883-29.35,1,1,0,0,0-1.989.218A84.123,84.123,0,0,1,31.015,98.6c-.2.811-.355,1.588-.478,2.364a37.49,37.49,0,0,0-6.99,7.848,8.613,8.613,0,0,0-1.109,2.525c-2.977-1.052-4.814-2.591-5.585-4.691-1.966-5.363,3.191-14.237,8.494-22.209,4.671-7.031,4.861-20.157,5.027-31.738.091-6.282.176-12.216.972-16.326,2.892-14.922,9.917-24.759,17.9-25.061a1,1,0,0,0,.868-.576C52.645,5.3,59.964,2.83,68.744,4.44A34.3,34.3,0,0,1,96.788,36.257c.224,2.969.264,6.871.306,11,.131,12.934.3,29.029,5.717,37.177C107.752,91.87,113.164,101.112,111.139,106.627Z"/><path d="M51.693,15.4a1,1,0,0,0,1.463,1.365c6.845-7.337,15.077-4.951,16.8-3.622a1,1,0,0,0,1.223-1.582C68.808,9.731,59.417,7.125,51.693,15.4Z"/></svg>