<svg id="Solid" xmlns="http://www.w3.org/2000/svg" viewBox="0 0 128 128"><title>avatar-01_5</title><path d="M62.413,57.507c-.025,0-2.57-.043-2.57-1.561a1,1,0,0,1,1.811-.584,2.894,2.894,0,0,0,.759.145,2.862,2.862,0,0,0,.758-.144,1,1,0,0,1,1.812.583C64.983,57.464,62.438,57.507,62.413,57.507Z"/><path d="M62.4,66.926c-1.414,0-3.274-.191-4.108-1.105a1,1,0,0,1,1.474-1.351,4.945,4.945,0,0,0,2.634.456,5,5,0,0,0,2.656-.458,1.03,1.03,0,0,1,1.411-.01.971.971,0,0,1,.061,1.363C65.7,66.735,63.826,66.926,62.4,66.926Z"/><path d="M78.394,47a1,1,0,0,1-.725-.311A4.5,4.5,0,0,0,71.7,46.5a1,1,0,1,1-1.279-1.537,6.466,6.466,0,0,1,8.694.349A1,1,0,0,1,78.394,47Z"/><path d="M68.823,40.637a1,1,0,0,1-.329-1.945c4.437-1.545,10.557-1.212,12.665.094a1,1,0,1,1-1.053,1.7c-1.321-.818-6.612-1.418-10.954.094A.994.994,0,0,1,68.823,40.637Z"/><path d="M46.433,47a1,1,0,0,1-.725-1.689,6.465,6.465,0,0,1,8.694-.349A1,1,0,0,1,53.123,46.5a4.494,4.494,0,0,0-5.966.19A1,1,0,0,1,46.433,47Z"/><path d="M56,40.637a1,1,0,0,1-.329-.056c-4.342-1.513-9.633-.912-10.954-.094a1,1,0,0,1-1.053-1.7c2.109-1.3,8.226-1.639,12.665-.094A1,1,0,0,1,56,40.637Z"/><path d="M100.633,109.987a31.976,31.976,0,0,0-2.84-3.781,46.623,46.623,0,0,0-4.55-4.579,12.063,12.063,0,0,0-4.15-5.661,13.772,13.772,0,0,0-5.41-2.529,4.418,4.418,0,0,0-2.85.08,3.235,3.235,0,0,0-.32-.22,5.075,5.075,0,0,0,.06-2.29.01.01,0,0,0-.01-.01c-.41-1.521-3.49-5.791-5.04-6.39-1.66-.651-3.01.32-3.92,1.28a13.718,13.718,0,0,1-.66-4v-.01c8.18-3.36,14.13-10.64,16.51-20.18a6.619,6.619,0,0,0,1.25.12,7.73,7.73,0,0,0,3.61-.93,10.756,10.756,0,0,0,5.15-6.45c1.24-4.39.18-8.2-2.72-9.95a73.534,73.534,0,0,0-.68-11.641,2.905,2.905,0,0,0,1.55-.6c.65-.5,1.37-1.541,1.15-3.6-.58-5.68-4.54-9.909-6.89-11.959a2.33,2.33,0,0,0,.31-.92,2.955,2.955,0,0,0-.88-2.26c-4.67-5.33-11.53-6.13-15.41-6.08a3.243,3.243,0,0,0,.76-2.151,2.7,2.7,0,0,0-1.87-2.229C67.973.906,54.663,2,46.473,8.637a3.531,3.531,0,0,0-1.71-2.69,3.2,3.2,0,0,0-3.07-.19c-1.65.8-2.58,2.959-2.97,4.519-2.2.2-6.62.911-7.01,3.531a3.257,3.257,0,0,0,.73,2.8,3.97,3.97,0,0,0,2.11,1.08c-2.91,2.779-7.28,7.87-7.28,11.3a3.223,3.223,0,0,0,1,2.46,3.694,3.694,0,0,0,1.86.839,74.824,74.824,0,0,0-.4,12.2,7.206,7.206,0,0,0-3.23,6.46,12.685,12.685,0,0,0,.52,3.49,10.776,10.776,0,0,0,5.14,6.45,7.8,7.8,0,0,0,3.62.93,6.619,6.619,0,0,0,1.25-.12c2.38,9.54,8.33,16.82,16.5,20.18.01,0,.01,0,.01.01a13.382,13.382,0,0,1-.67,4c-.9-.96-2.26-1.931-3.92-1.28-1.54.6-4.62,4.869-5.04,6.39v.01a5.183,5.183,0,0,0,.05,2.29v.01a51.551,51.551,0,0,0-17.28,12.9,31.044,31.044,0,0,0-2.83,3.781,6.1,6.1,0,0,0-1.08,4.849c.58,2.271,2.83,3.771,4.96,4.94,1.23.68,12.66,6.64,34.51,6.64a98.832,98.832,0,0,0,22.1-2.35c.07.551.49,1.681,2.77,1.681.1,0,.2,0,.31-.01,2.78-.11,8.22-1.961,8.26-4.921v-.009c0-.151-.01-.32-.01-.471.37-.18.73-.36,1.08-.56,2.12-1.169,4.37-2.669,4.96-4.94A6.1,6.1,0,0,0,100.633,109.987ZM87.953,59.406a44.676,44.676,0,0,0,.72-6.82c0-.009,0-.009.01-.009a3.032,3.032,0,0,1,3.1-.97,1,1,0,0,0,.56-1.92,5.3,5.3,0,0,0-3.57.31c.04-1.18.09-2.541.16-4.13,0-.01,0-.01.01-.01a7.29,7.29,0,0,1,4.35.119c2.45,1.141,3.31,4.17,2.25,7.92a8.7,8.7,0,0,1-4.16,5.221,5.685,5.685,0,0,1-3.49.63C87.913,59.627,87.933,59.517,87.953,59.406Zm-54.86-.289a8.722,8.722,0,0,1-4.15-5.221c-1.06-3.75-.2-6.779,2.25-7.93a7.363,7.363,0,0,1,4.35-.109.01.01,0,0,1,.01.01c.07,1.589.12,2.95.16,4.13a5.321,5.321,0,0,0-3.58-.31,1,1,0,0,0,.57,1.92,3.056,3.056,0,0,1,3.1.97v.009a45.974,45.974,0,0,0,.72,6.82c.03.12.05.221.07.341A5.733,5.733,0,0,1,33.093,59.117Zm39.03,29.289.2-.26c.75-.99,1.62-2.009,2.47-1.68.79.331,3.44,3.791,3.82,4.99a.862.862,0,0,0,.05.151,6.426,6.426,0,0,1-.25,2.08c-.52,2.56-1.66,5.529-3.08,6.409a1.287,1.287,0,0,1-1.07.17c-2.94-.79-6.21-4.54-7.47-6.1A65.583,65.583,0,0,0,72.123,88.406ZM38.733,60.267c-.08-.4-.16-.8-.24-1.22a41.6,41.6,0,0,1-.69-6.66,1.153,1.153,0,0,0-.02-.37l-.06-1.64c-.05-1.43-.11-3.11-.2-5.211-.02-.349-.02-.7-.02-1.07,0-8.789,4.54-22.049,8.94-22.829a27.206,27.206,0,0,1,6.29.079c2.29.19,5.13.44,9.51.44s7.22-.25,9.5-.44a27.477,27.477,0,0,1,6.25-.089c4.63.82,9.37,15.17,8.97,23.909-.1,2.1-.16,3.781-.21,5.211l-.05,1.64a.926.926,0,0,0-.02.37,44.023,44.023,0,0,1-.69,6.66c-.08.419-.16.82-.25,1.22-2.11,9.639-8.01,16.93-16.19,20.019a21.16,21.16,0,0,1-7.31,1.571,21.257,21.257,0,0,1-7.32-1.571C46.753,77.2,40.853,69.906,38.733,60.267Zm7.08,31.36a.559.559,0,0,0,.04-.151c.36-1.169,3.04-4.679,3.83-5.01.85-.329,1.72.69,2.48,1.68l.19.26a68.961,68.961,0,0,0,5.34,5.771c-1.54,1.909-4.76,5.359-7.47,6.089a1.315,1.315,0,0,1-1.08-.17c-1.41-.88-2.56-3.849-3.07-6.409A7.092,7.092,0,0,1,45.813,91.627Zm17.43,32.779v-.01c-.33.01-.66.01-1,.01s-.67,0-1-.01v.01c-20.68-.18-31.38-5.729-32.55-6.38-2.48-1.36-3.67-2.469-3.99-3.69a4.264,4.264,0,0,1,.85-3.289,26.842,26.842,0,0,1,2.39-3.221l.01-.01c10.37-1.09,17.33,1.52,23.49,3.83,3.53,1.32,6.63,2.481,9.8,2.69V94.877c-.09-.091-.18-.19-.27-.281-.39-.39-.81-.81-1.24-1.219-.01,0-.01-.01-.02-.01a78.62,78.62,0,0,1-5.4-5.75,13.876,13.876,0,0,0,1.19-5.01.01.01,0,0,1,.01-.011,21.9,21.9,0,0,0,6.73,1.261,22.006,22.006,0,0,0,6.73-1.261v.011a14.085,14.085,0,0,0,1.2,5.01,78.759,78.759,0,0,1-5.4,5.75c-.45.419-.87.839-1.26,1.229-.09.091-.18.18-.27.281v19.459c3.16-.209,6.25-1.36,9.78-2.69a70.009,70.009,0,0,1,9.87-3.089c.27,2.2.49,4.389.68,6.43s.34,3.95.47,5.57c.04.529.08,1.029.12,1.509A96.226,96.226,0,0,1,63.243,124.406Zm28.6-1.909c-2.24,1.149-4.85,1.43-5.53,1.169l-.01-.14c-.03-.25-.05-.51-.08-.77-.05-.7-.12-1.49-.19-2.36-.28-3.529-.66-8.37-1.29-13.19a78.967,78.967,0,0,0-2.2-11.37l3.51.56a10.5,10.5,0,0,1,5.39,6.11c1.58,4.991,2.14,13.14,2.22,17.22v.03c.02.39.02.731.02,1.041C93.673,121.146,93.183,121.8,91.843,122.5Zm7.93-8.161c-.32,1.25-1.56,2.38-4.16,3.791-.06-1.341-.16-3.371-.38-5.661a69.041,69.041,0,0,0-1.04-7.2c.74.74,1.43,1.49,2.08,2.24a27.657,27.657,0,0,1,2.66,3.541A4.251,4.251,0,0,1,99.773,114.336Z"/><rect x="71.743" y="46.042" width="4.784" height="6.756" rx="2.392" ry="2.392"/><rect x="48.299" y="46.042" width="4.784" height="6.756" rx="2.392" ry="2.392" transform="translate(101.382 98.84) rotate(180)"/></svg>