<svg id="Solid" xmlns="http://www.w3.org/2000/svg" viewBox="0 0 128 128"><title>avatar-02</title><path d="M63.987,61.366c-.03,0-3.029-.073-3.029-1.715a1,1,0,0,1,1.855-.518,3.98,3.98,0,0,0,1.174.233,3.905,3.905,0,0,0,1.16-.232A1,1,0,0,1,67,59.651C67,61.293,64.018,61.366,63.987,61.366Z"/><rect x="48.645" y="48.169" width="4.995" height="6.909" rx="2.498" ry="2.498" transform="translate(102.286 103.247) rotate(180)"/><path d="M56.829,44.021a10.166,10.166,0,0,1-1.678-.261c-.551-.071-1.083-.223-1.623-.31a17.688,17.688,0,0,0-3.237-.238,10.839,10.839,0,0,0-3.143.549,9.311,9.311,0,0,0-2.743,1.457l-.082.065a.685.685,0,0,1-.947-.982,8.243,8.243,0,0,1,3.143-2.187,12.526,12.526,0,0,1,3.656-.866,13.96,13.96,0,0,1,3.707.216,15.208,15.208,0,0,1,1.779.456,10.41,10.41,0,0,1,1.642.806.7.7,0,0,1-.409,1.3Z"/><rect x="74.354" y="48.169" width="4.995" height="6.909" rx="2.498" ry="2.498"/><path d="M70.692,42.726a10.41,10.41,0,0,1,1.642-.806,15.243,15.243,0,0,1,1.778-.456,13.962,13.962,0,0,1,3.707-.216,12.525,12.525,0,0,1,3.657.866A8.243,8.243,0,0,1,84.619,44.3a.686.686,0,0,1-.948.983l-.081-.066a9.311,9.311,0,0,0-2.743-1.457,10.851,10.851,0,0,0-3.143-.549,17.681,17.681,0,0,0-3.237.238c-.54.087-1.072.239-1.623.31a10.162,10.162,0,0,1-1.679.261l-.063,0a.7.7,0,0,1-.41-1.3Z"/><path d="M86.473,51.44a5.046,5.046,0,0,0-3.731-1.716,101.688,101.688,0,0,0-12.784.243,4.129,4.129,0,0,0-3.047,1.312,3.4,3.4,0,0,0-.7,1.9,10.873,10.873,0,0,0-4.455,0,3.4,3.4,0,0,0-.7-1.9,4.124,4.124,0,0,0-3.046-1.312,101.7,101.7,0,0,0-12.784-.243A5.044,5.044,0,0,0,41.5,51.44a4.292,4.292,0,0,0-.718,3.412c.652,3.992,3.159,5.787,5.362,5.8.361.016,3.774.16,6.877.16a37.984,37.984,0,0,0,4.217-.168c2.076-.27,3.8-2.455,4.37-5.4a10,10,0,0,1,4.754,0c.572,2.948,2.3,5.133,4.37,5.4a37.984,37.984,0,0,0,4.217.168c3.1,0,6.517-.144,6.877-.16,2.2-.012,4.711-1.807,5.362-5.8A4.291,4.291,0,0,0,86.473,51.44ZM56.982,58.66c-2.627.34-10.688,0-10.769-.008H46.17c-1.363,0-2.947-1.274-3.412-4.122a2.332,2.332,0,0,1,.323-1.861,3.361,3.361,0,0,1,2.327-.952c.89-.078,2.068-.111,3.369-.111,3.058,0,6.8.178,9.085.356a2.364,2.364,0,0,1,1.654.586,2.352,2.352,0,0,1,.241,1.72C59.444,56.831,58.1,58.514,56.982,58.66Zm28.235-4.131c-.465,2.848-2.049,4.122-3.412,4.122h-.044c-.081,0-8.141.348-10.769.008-1.118-.146-2.462-1.829-2.774-4.393a2.342,2.342,0,0,1,.241-1.72,2.362,2.362,0,0,1,1.654-.586c2.287-.178,6.026-.356,9.084-.356,1.3,0,2.48.033,3.37.111a3.361,3.361,0,0,1,2.327.952A2.34,2.34,0,0,1,85.217,54.529Z"/><path d="M63.99,70.91A8.545,8.545,0,0,1,58.966,69.4a1,1,0,1,1,1.247-1.562,7.211,7.211,0,0,0,7.563,0A1,1,0,1,1,69.023,69.4,8.558,8.558,0,0,1,63.99,70.91Z"/><path d="M71.21,70.5a1,1,0,0,1-1-1,3.353,3.353,0,0,0-1.273-2.458A1,1,0,1,1,70.1,65.419,5.365,5.365,0,0,1,72.21,69.5,1,1,0,0,1,71.21,70.5Z"/><path d="M46.56,49.17a1,1,0,0,1-.772-1.636,7.184,7.184,0,0,1,9.179-.891,1,1,0,1,1-1.154,1.634,5.208,5.208,0,0,0-6.481.529A1,1,0,0,1,46.56,49.17Z"/><path d="M81.431,49.17a1,1,0,0,1-.773-.364,5.218,5.218,0,0,0-6.483-.528,1,1,0,0,1-1.15-1.636,7.189,7.189,0,0,1,9.177.892,1,1,0,0,1-.771,1.636Z"/><path d="M104.187,108.848c-2.032-3.23-6.955-9.448-17.1-14.833-.014-.008-.022-.022-.037-.03-.975-.513-1.974-1.011-2.972-1.48-.766-.36-1.519-.667-2.228-.949,0-.016,0-.038,0-.053-.121-1.4-3.437-5.279-4.586-5.871a2.451,2.451,0,0,0-3.059.694A9.357,9.357,0,0,1,73.582,85a22.411,22.411,0,0,0,7.033-4.37A30.079,30.079,0,0,0,89.3,66.618a6.391,6.391,0,0,0,1.364.149,8.191,8.191,0,0,0,3.267-.726A10.932,10.932,0,0,0,99.7,59.989c1.794-4.983-.151-8.49-2.363-9.979a6.569,6.569,0,0,0-1.307-.665c.269-2.122.408-4.212.472-5.4a3.322,3.322,0,0,0,2.963-2.533c.86-3.195-.448-11.823-1.094-14.1a5.271,5.271,0,0,0-1.812-2.875C95.8,8.109,76.274,2,64,2A44.224,44.224,0,0,0,43.025,7.311c-7.263,4.137-11.253,10.05-11.587,17.117a5.2,5.2,0,0,0-1.81,2.888c-.607,2.134-2,10.768-1.1,14.1A3.349,3.349,0,0,0,31.5,43.946c.064,1.19.2,3.279.472,5.4a6.6,6.6,0,0,0-1.307.666c-2.218,1.492-4.167,5-2.362,9.979a10.93,10.93,0,0,0,5.763,6.053,8.174,8.174,0,0,0,3.261.724,6.382,6.382,0,0,0,1.363-.149,30.077,30.077,0,0,0,8.69,14.013A23.009,23.009,0,0,0,54.417,85a9.355,9.355,0,0,1-.618,1.323,2.448,2.448,0,0,0-3.057-.695c-1.151.593-4.467,4.476-4.591,5.9v.025c-.709.282-1.46.589-2.226.948-1,.469-2,.967-2.971,1.48a1.011,1.011,0,0,0-.113.07c-10.1,5.375-15,11.571-17.029,14.795a6.365,6.365,0,0,0-1.128,5.056c.613,2.363,2.959,3.929,5.174,5.15a41.887,41.887,0,0,0,7.341,2.978C40.94,123.843,50.6,126,64,126s23.06-2.157,28.8-3.967a41.93,41.93,0,0,0,7.339-2.977c2.214-1.221,4.56-2.787,5.173-5.15A6.368,6.368,0,0,0,104.187,108.848ZM76.341,87.408a16.79,16.79,0,0,1,3.511,4.239,3.913,3.913,0,0,1-.009.508c-.146,1.924-1.177,5.194-2.526,6.147a.986.986,0,0,1-.884.2,4.425,4.425,0,0,1-.535-.184c-2.186-.892-4.472-3.464-5.485-4.7.306-.293.605-.573.9-.846a23.2,23.2,0,0,0,3.724-4.089,10.588,10.588,0,0,0,.558-.926C76.041,87.252,76.22,87.347,76.341,87.408ZM64,87.4a25.777,25.777,0,0,0,7.717-1.681,10.878,10.878,0,0,0,1.245,2.4,25.584,25.584,0,0,1-3.024,3.192c-.5.469-1.024.963-1.568,1.5a10.737,10.737,0,0,0-1.481,2.4c-.616,1.176-2.054,3.922-2.828,3.922h-.008c-.874-.02-2.284-2.69-2.962-3.973a10.9,10.9,0,0,0-1.444-2.335.307.307,0,0,0-.026-.025c-.541-.533-1.062-1.024-1.559-1.49a25.592,25.592,0,0,1-3.024-3.192,10.892,10.892,0,0,0,1.243-2.39A25.965,25.965,0,0,0,64,87.4Zm-5.145,7.818c.157.284.319.592.468.873,1.236,2.34,2.636,4.992,4.683,5.039h.054c1.986,0,3.375-2.651,4.6-4.994.154-.3.323-.618.486-.916,1.229,1.46,3.571,3.951,5.968,4.934-.5,5.277-6.447,15.675-10.249,19.851a1.2,1.2,0,0,1-1.732,0c-3.8-4.18-9.754-14.593-10.25-19.866C55.294,99.137,57.63,96.672,58.855,95.218ZM92.171,49.072c.045-1.722.045-4.167.037-5.941.844.219,1.605.415,2.3.577-.058,1.1-.189,3.137-.442,5.2A6.416,6.416,0,0,0,92.171,49.072Zm5.648,10.239a9,9,0,0,1-4.687,4.9,5.633,5.633,0,0,1-3.289.469c.525-2.029.98-4.269,1.375-6.818a3.227,3.227,0,0,1,2.891-.645,1,1,0,0,0,.526-1.929,6.028,6.028,0,0,0-3.071.053c.174-1.347.335-2.719.475-4.126a4.274,4.274,0,0,1,2.668-.208,4.507,4.507,0,0,1,1.514.664C97.836,52.757,99.224,55.41,97.819,59.311ZM33.93,48.907c-.253-2.062-.384-4.1-.442-5.2.7-.161,1.458-.356,2.294-.574-.008,1.911-.006,4.276.04,5.94A6.44,6.44,0,0,0,33.93,48.907Zm.936,15.3a9,9,0,0,1-4.686-4.9c-1.411-3.9-.021-6.55,1.6-7.64A4.506,4.506,0,0,1,33.3,51a4.249,4.249,0,0,1,2.663.212c.14,1.405.3,2.777.475,4.125a6.04,6.04,0,0,0-3.081-.055,1,1,0,1,0,.53,1.928,3.259,3.259,0,0,1,2.9.648c.4,2.584.85,4.823,1.364,6.817A5.627,5.627,0,0,1,34.866,64.211Zm5.457.89a65.689,65.689,0,0,1-1.614-7.846c-.316-2.15-.59-4.421-.814-6.755-.1-.942-.133-3.8-.109-7.882A100.125,100.125,0,0,1,64,39.49a100.447,100.447,0,0,1,26.205,3.129c.023,4.016-.013,6.946-.1,7.885-.224,2.33-.5,4.6-.814,6.747A65.862,65.862,0,0,1,87.667,65.1c-2.029,7.291-4.909,10.574-8.462,14.109a21.4,21.4,0,0,1-7.231,4.278A25.191,25.191,0,0,1,64,85.4a25.4,25.4,0,0,1-7.975-1.9,22.042,22.042,0,0,1-7.24-4.288C45.232,75.676,42.353,72.393,40.323,65.1ZM51.66,87.407a.367.367,0,0,1,.17-.051c.121,0,.3.081.58.393.157.3.341.6.555.922a23.217,23.217,0,0,0,3.727,4.093c.291.273.591.555.9.849-1.3,1.591-3.857,4.3-6.012,4.882a.987.987,0,0,1-.9-.193c-1.349-.953-2.38-4.223-2.526-6.152-.016-.2-.016-.37-.018-.422A16.039,16.039,0,0,1,51.66,87.407Zm-27.04,26a4.518,4.518,0,0,1,.887-3.491c1.764-2.805,5.858-8,14.026-12.822A85.328,85.328,0,0,0,34.6,119.727a37.415,37.415,0,0,1-5.775-2.423C26.213,115.865,24.956,114.7,24.62,113.4Zm78.76,0c-.336,1.295-1.593,2.462-4.2,3.9a37.543,37.543,0,0,1-5.776,2.423A85.248,85.248,0,0,0,88.467,97.09c8.168,4.825,12.262,10.017,14.025,12.82A4.521,4.521,0,0,1,103.38,113.4Z"/></svg>