<svg id="Solid" xmlns="http://www.w3.org/2000/svg" viewBox="0 0 128 128"><title>avatar-02_23</title><path d="M86.239,49.022c-2.5-5.02-10.054-4.17-12.9-3.851l-.533.058a9.542,9.542,0,0,0-6.376,3.183,5.278,5.278,0,0,0-.64,1.116,6.486,6.486,0,0,0-3.586.006,5.26,5.26,0,0,0-.642-1.122,9.539,9.539,0,0,0-6.375-3.183l-.533-.058c-2.847-.319-10.4-1.169-12.9,3.851A11.366,11.366,0,0,0,42.36,59.1c1.76,3.111,4.676,3.769,7.356,3.769.516,0,1.023-.025,1.511-.06,5.9-.434,10.649-6.469,11.324-10.432a5.149,5.149,0,0,0,.062-.888,4.522,4.522,0,0,1,2.764-.005,5.108,5.108,0,0,0,.062.893c.675,3.963,5.423,10,11.325,10.432.488.035,1,.06,1.51.06,2.681,0,5.6-.658,7.357-3.769A11.372,11.372,0,0,0,86.239,49.022Z"/><path d="M64,60.65c.029,0,2.94-.073,2.94-1.69a1,1,0,0,0-1.848-.531,2.826,2.826,0,0,1-2.2,0,1,1,0,0,0-1.847.533C61.048,60.577,63.969,60.65,64,60.65Z"/><path d="M88.979,111.62H74.039a2.027,2.027,0,0,0-2.02,2.03v3.64a2,2,0,0,0,1.521,1.958l7.476,1.922a1.992,1.992,0,0,0,.49.059,2.107,2.107,0,0,0,.5-.06l7.466-1.919A2.012,2.012,0,0,0,91,117.29v-3.64A2.028,2.028,0,0,0,88.979,111.62Zm.011,5.689-.01,0-7.473,1.92-7.488-1.941.02-3.67,14.96.03Z"/><path d="M54,111.62H39.069a2.033,2.033,0,0,0-2.03,2.03v3.64a2.012,2.012,0,0,0,1.527,1.96l7.483,1.923a2,2,0,0,0,.48.056,2.2,2.2,0,0,0,.509-.061l7.458-1.917a2.01,2.01,0,0,0,1.533-1.961v-3.64A2.033,2.033,0,0,0,54,111.62Zm.01,5.691-7.481,1.92-7.47-1.92-.019-.021.03-3.67,14.96.03Z"/><path d="M60.2,70.323a33.147,33.147,0,0,1,7.582,0,.888.888,0,0,0,.115.007,1,1,0,0,0,.113-1.993,34.973,34.973,0,0,0-8.039,0,1,1,0,1,0,.229,1.986Z"/><path d="M102.025,109.708C100.952,108,94.94,99.171,81.981,93.133l-.391-.181a28.493,28.493,0,0,1-4.839-2.624A8.313,8.313,0,0,1,74.1,87.336a.95.95,0,0,0-.048-.089,9.264,9.264,0,0,1-.855-3.261A28.791,28.791,0,0,0,88.411,66.517a5.937,5.937,0,0,0,1.235.136,6.774,6.774,0,0,0,2.963-.71A9.742,9.742,0,0,0,97.491,59.9c1.088-3.842.444-7.535-1.5-9.652.008-.008.02-.013.029-.021a2.085,2.085,0,0,0,.625-1.579,5.311,5.311,0,0,0-1.383-3.164c2.35-25.9-8.982-34.579-26.812-39.371a4.437,4.437,0,0,0-8.849-.021C41.7,10.905,30.329,19.611,32.733,45.551a5.189,5.189,0,0,0-1.334,3.1,2.219,2.219,0,0,0,.631,1.569c-1.946,2.122-2.6,5.867-1.534,9.68a9.74,9.74,0,0,0,4.882,6.044,6.777,6.777,0,0,0,2.963.71,5.937,5.937,0,0,0,1.235-.136A28.777,28.777,0,0,0,54.8,83.976a9.133,9.133,0,0,1-.874,3.3,8.169,8.169,0,0,1-2.714,3.066,27.912,27.912,0,0,1-4.717,2.565L46,93.134a53.7,53.7,0,0,0-12.2,7.828,39.894,39.894,0,0,0-7.835,8.746c-1.209,1.927-1.521,3.7-.929,5.284.008.023.022.044.031.067l.015.031c.787,1.957,2.819,3.291,4.717,4.336,4.573,2.517,14.723,5.71,28.279,6.423,1.866.1,3.852.151,5.914.151,2.044,0,4.028-.051,5.892-.151,13.566-.713,23.718-3.906,28.29-6.423,2.1-1.158,4.332-2.645,4.917-4.9A6.064,6.064,0,0,0,102.025,109.708ZM95.566,59.361a7.7,7.7,0,0,1-3.831,4.784,4.566,4.566,0,0,1-2.771.443c.116-.451.243-.9.341-1.353.255-1.151.486-2.657.726-4.714a3.194,3.194,0,0,1,2.576-1.584,1,1,0,0,0,.178-1.993,4.576,4.576,0,0,0-2.477.633c.135-1.7.237-3.493.3-5.331a17.757,17.757,0,0,0,2.878.563C95.74,51.946,96.635,55.588,95.566,59.361ZM58.72,19.2a14.469,14.469,0,0,1,10.614,0v3.538a5.307,5.307,0,0,1-10.614,0Zm-24.2,27.319a.964.964,0,0,0,.069-.089C38.329,42.153,49.86,36.2,64.029,36.2c14,0,25.466,5.852,29.31,10.095a.984.984,0,0,0,.317.361,3.466,3.466,0,0,1,.993,1.994c0,.073-.008.115,0,.126a1.626,1.626,0,0,1-.776.065,21.335,21.335,0,0,1-3.936-.853c-.774-.219-1.614-.469-2.514-.737-5.96-1.773-14.124-4.2-23.389-4.2-9.24,0-17.392,2.421-23.344,4.189-.943.281-1.822.541-2.626.768a20.646,20.646,0,0,1-3.891.833l-.751-.044h0a.5.5,0,0,1-.016-.146A3.872,3.872,0,0,1,34.515,46.514Zm1.737,17.631a7.693,7.693,0,0,1-3.831-4.785c-1.034-3.688-.172-7.345,2.06-8.548a17.276,17.276,0,0,0,2.895-.549c.067,1.8.171,3.594.311,5.313a4.583,4.583,0,0,0-2.474-.632,1,1,0,0,0,.176,1.993,3.207,3.207,0,0,1,2.577,1.583,47.136,47.136,0,0,0,.715,4.713c.1.454.226.9.343,1.356A4.568,4.568,0,0,1,36.252,64.145ZM41.19,65c-.207-.72-.394-1.459-.555-2.2a47.32,47.32,0,0,1-.713-4.772c-.277-2.58-.469-5.442-.565-8.319.6-.175,1.227-.359,1.9-.558,5.834-1.733,13.826-4.106,22.775-4.106,8.974,0,16.976,2.38,22.819,4.118.627.186,1.215.36,1.783.525-.1,2.957-.286,5.828-.555,8.333-.241,2.1-.477,3.66-.725,4.781-.16.737-.347,1.476-.553,2.193A26.775,26.775,0,0,1,71.751,82.448c-.3.126-.591.243-.886.357A20.143,20.143,0,0,1,64,84.27a20.252,20.252,0,0,1-6.87-1.462c-.26-.1-.514-.2-.773-.31a1.147,1.147,0,0,0-.116-.059A26.768,26.768,0,0,1,41.19,65ZM72.033,87.608C70.6,89.515,66.937,90.64,64,90.64l-.01,0-.01,0c-2.947,0-6.613-1.122-8.031-3.021a10.905,10.905,0,0,0,.779-2.838A21.613,21.613,0,0,0,64,86.27a21.839,21.839,0,0,0,7.262-1.49A11.066,11.066,0,0,0,72.033,87.608ZM27.668,110.769a37.122,37.122,0,0,1,6.506-7.463,6.744,6.744,0,0,1,.344,5.265c-.594.657-3.989,4.237-7.762,4.957A4.814,4.814,0,0,1,27.668,110.769Zm29.489,13.013c-16.718-1.046-25.432-5.583-26.386-6.108a12.071,12.071,0,0,1-3.162-2.294c4.613-1.122,8.345-5.407,8.518-5.609a.961.961,0,0,0,.136-.2,8.692,8.692,0,0,0-.515-7.6,51.847,51.847,0,0,1,11.1-7.024l.483-.225c1.2-.56,2.425-1.138,3.576-1.811A19.539,19.539,0,0,0,53.288,99.2a3.127,3.127,0,0,0,2.72,1.608c.077,0,.155,0,.232-.009.946-.076,1.866-.8,2.949-1.885a9.076,9.076,0,0,0,1.582,1.716A111.351,111.351,0,0,0,57.157,123.782Zm6.832-31.06-.01,0c-1.719,0-3.369,1.771-5.116,3.646l-.231.247c-.659.7-2.03,2.147-2.545,2.189a1.158,1.158,0,0,1-1.081-.627,15.215,15.215,0,0,1-2.191-6.557,10.417,10.417,0,0,0,2.105-2.155C57,91.552,60.807,92.64,63.979,92.64l.01,0,.01,0c3.165,0,6.968-1.092,9.06-3.187a10.543,10.543,0,0,0,2.093,2.152,15.55,15.55,0,0,1-2.194,6.577A1.152,1.152,0,0,1,71.9,98.8c-.543-.044-2-1.6-2.553-2.188l-.271-.29C67.336,94.471,65.695,92.72,64,92.72Zm37.174,21.3c-.314,1.207-1.495,2.3-3.947,3.648-.953.525-9.668,5.062-26.4,6.108a111.972,111.972,0,0,0-3.608-23.132,8.977,8.977,0,0,0,1.579-1.731,5.35,5.35,0,0,0,2.957,1.878c.075.006.15.008.224.008a3.119,3.119,0,0,0,2.7-1.6,19.571,19.571,0,0,0,2.381-6.3c1.188.7,2.452,1.29,3.691,1.865l.389.18c12.448,5.8,18.173,14.2,19.194,15.825A4.222,4.222,0,0,1,101.163,114.026Z"/></svg>