<svg id="Solid" xmlns="http://www.w3.org/2000/svg" viewBox="0 0 128 128"><title>avatar-02_4</title><path d="M72,48.094a3.727,3.727,0,0,1,1.445-1.387,7.663,7.663,0,0,1,1.536-.659,13.914,13.914,0,0,1,3.089-.544,14.831,14.831,0,0,1,3.105.136,4.3,4.3,0,0,1,2.913,1.292.634.634,0,0,1-.105.891.644.644,0,0,1-.338.134l-.084.007a15.144,15.144,0,0,1-2.65-.272,15.975,15.975,0,0,0-2.688-.007,12.433,12.433,0,0,0-2.62.441l-.6.194c-.183.077-.378.148-.548.231a2.8,2.8,0,0,0-.712.5l-.18.19A.977.977,0,0,1,72,48.094Z"/><rect x="74.526" y="46.915" width="4.745" height="5.39" rx="2.372" ry="2.372"/><path d="M54.256,49.055a2.8,2.8,0,0,0-.712-.5c-.17-.083-.365-.154-.548-.231l-.6-.194a12.433,12.433,0,0,0-2.62-.441,15.975,15.975,0,0,0-2.688.007,15.144,15.144,0,0,1-2.65.272l-.084-.008a.634.634,0,0,1-.577-.686.625.625,0,0,1,.134-.338,4.3,4.3,0,0,1,2.913-1.292,14.831,14.831,0,0,1,3.105-.136,13.914,13.914,0,0,1,3.089.544,7.663,7.663,0,0,1,1.536.659A3.727,3.727,0,0,1,56,48.094a.976.976,0,0,1-1.559,1.151Z"/><rect x="48.729" y="46.915" width="4.745" height="5.39" rx="2.372" ry="2.372" transform="translate(102.203 99.22) rotate(180)"/><path d="M88.822,82.04a2.968,2.968,0,0,1-2.187-1.015c-1.871-2-2.6-7.069-1.858-12.923a1,1,0,1,1,1.985.252c-.76,5.98.158,10.051,1.332,11.3a.952.952,0,0,0,.782.381c.069,0,.317-.15.635-.765,2.1-4.07,1.962-17.038.634-19.172a1,1,0,0,1,1.7-1.057c1.8,2.9,1.759,16.662-.555,21.146A2.877,2.877,0,0,1,89,82.034Q88.911,82.04,88.822,82.04Z"/><path d="M39.178,82.04q-.088,0-.177-.006a2.877,2.877,0,0,1-2.289-1.844c-2.314-4.484-2.358-18.25-.555-21.146a1,1,0,0,1,1.7,1.057c-1.327,2.134-1.465,15.1.635,19.172.318.615.566.761.635.765a.944.944,0,0,0,.782-.381c1.174-1.252,2.092-5.323,1.332-11.3a1,1,0,1,1,1.985-.252c.743,5.854.013,10.926-1.858,12.923A2.968,2.968,0,0,1,39.178,82.04Z"/><path d="M64.01,60.85c-.031,0-2.98-.046-2.98-1.69a1,1,0,0,1,1.849-.529,2.978,2.978,0,0,0,2.242,0,1,1,0,0,1,1.849.529C66.97,60.8,64.039,60.85,64.01,60.85Z"/><path d="M64.01,67.12a12.574,12.574,0,0,1-4.2-.758,1,1,0,1,1,.863-1.8,10.224,10.224,0,0,0,6.686,0,1,1,0,1,1,.864,1.8A12.64,12.64,0,0,1,64.01,67.12Z"/><path d="M70.5,42.73a1,1,0,0,1-.38-1.924c2.791-1.146,9.189-2.368,14.471-.763a1,1,0,0,1-.582,1.914c-4.961-1.508-10.988-.18-13.129.7A.979.979,0,0,1,70.5,42.73Z"/><path d="M57.5,42.73a.979.979,0,0,1-.38-.075c-2.141-.878-8.169-2.207-13.129-.7a1,1,0,0,1-.582-1.914c5.282-1.6,11.678-.384,14.471.763a1,1,0,0,1-.38,1.924Z"/><path d="M101.483,109.963A36.716,36.716,0,0,0,89.615,98.308a.977.977,0,0,0-.409-.262c-1.439-.919-3.015-1.836-4.7-2.73-.9-.475-1.86-.912-2.787-1.333-4.559-2.072-8.861-4.048-9.474-11.2A39.558,39.558,0,0,0,79.883,78.5c4.041-3.14,6.574-7.645,8.143-14.507a7.273,7.273,0,0,0,1.486.155,9.1,9.1,0,0,0,3.96-.958,9.526,9.526,0,0,0,5.039-5.732c1.335-4.629.313-8.611-2.6-10.409,2.32-14.268-.086-26.135-7-34.343C83.105,5.8,74.256,2,64,2S44.9,5.8,39.082,12.705c-6.911,8.208-9.317,20.075-7,34.343-2.908,1.8-3.931,5.779-2.6,10.406a9.528,9.528,0,0,0,5.04,5.735,9.1,9.1,0,0,0,3.96.958,7.28,7.28,0,0,0,1.486-.155c1.569,6.862,4.1,11.367,8.158,14.52a40.548,40.548,0,0,0,7.66,4.281c-.618,7.136-4.928,9.112-9.5,11.184-.935.423-1.9.862-2.8,1.338-1.667.88-3.3,1.833-4.864,2.834-6.839,4.4-9.96,8.442-12.111,11.813a5.849,5.849,0,0,0-1.078,4.691c.57,2.209,2.779,3.664,4.863,4.8a39.112,39.112,0,0,0,6.639,2.712A88.3,88.3,0,0,0,64,126a88.009,88.009,0,0,0,27.129-3.858l.037-.013a.6.6,0,0,0,.06-.02,38.97,38.97,0,0,0,6.471-2.66c2.084-1.132,4.293-2.587,4.863-4.8A5.849,5.849,0,0,0,101.483,109.963Zm-4.9-53.058A7.5,7.5,0,0,1,92.6,61.392a6.55,6.55,0,0,1-4.166.639c.353-1.865.653-3.9.891-6.086a4.315,4.315,0,0,1,3.5-1.668.978.978,0,0,0,1.069-.921,1,1,0,0,0-.921-1.073,6.54,6.54,0,0,0-3.376.8q.193-2.352.316-4.869a7.3,7.3,0,0,1,4.5.29C96.876,49.634,97.734,52.933,96.588,56.905ZM35.4,61.392a7.5,7.5,0,0,1-3.992-4.49c-1.145-3.969-.287-7.268,2.184-8.4a7.3,7.3,0,0,1,4.5-.292c.081,1.662.188,3.289.318,4.87a6.545,6.545,0,0,0-3.376-.8,1,1,0,1,0,.153,1.994,4.308,4.308,0,0,1,3.492,1.67c.237,2.182.536,4.218.89,6.084A6.549,6.549,0,0,1,35.4,61.392Zm6.3,1.137c-.434-2.116-.793-4.5-1.064-7.082-.259-2.509-.452-5.178-.575-7.862l.015-.665c.145-6.068.528-22.188,8.641-26.968a7.906,7.906,0,0,1,3.981-.86,26.008,26.008,0,0,1,6.68,1.063,17.485,17.485,0,0,0,9.248,0c4.906-1.345,8.593-1.415,10.657-.2,8.115,4.781,8.5,20.9,8.643,26.969l.016.595c-.124,2.754-.317,5.423-.575,7.93-.272,2.584-.631,4.968-1.065,7.082-1.443,6.966-3.8,11.406-7.632,14.383A39,39,0,0,1,70.8,81.228h0A21.061,21.061,0,0,1,64,83.12a20.826,20.826,0,0,1-6.768-1.884,39.212,39.212,0,0,1-7.888-4.315C45.5,73.933,43.142,69.493,41.7,62.529Zm2.729,34.555c.849-.449,1.746-.855,2.7-1.286,4.556-2.067,9.681-4.4,10.6-12.209A19.728,19.728,0,0,0,64,85.12a19.913,19.913,0,0,0,6.312-1.545C71.229,91.4,76.345,93.737,80.894,95.8c.942.428,1.833.833,2.677,1.28,1.572.834,3.043,1.688,4.393,2.542a97.327,97.327,0,0,1,0,12.212c-.008.168-.015.318-.022.46-1.8.43-7.927,1.577-23.86,2.233-16.011-.656-22.148-1.8-23.949-2.232-.008-.188-.017-.391-.028-.623a97.413,97.413,0,0,1,.01-12.091C41.507,98.707,42.951,97.863,44.428,97.084ZM27.377,114.153a4.014,4.014,0,0,1,.826-3.115,33.379,33.379,0,0,1,9.8-10.054c-.212,3.809-.007,8.381.1,10.782.026.544.044.969.052,1.24a48.215,48.215,0,0,1-1.361,5.987c-.093.331-.176.634-.256.928a35.068,35.068,0,0,1-5.283-2.23C29.65,116.819,27.758,115.629,27.377,114.153Zm73.246,0c-.381,1.476-2.273,2.666-3.884,3.54a35.117,35.117,0,0,1-5.215,2.2c-.074-.272-.151-.55-.237-.854a48.958,48.958,0,0,1-1.375-6.034c.009-.243.026-.612.048-1.076.115-2.418.332-7.028.116-10.894a33.244,33.244,0,0,1,9.721,10A4.014,4.014,0,0,1,100.623,114.153Z"/><path d="M63.89,99.983a20.365,20.365,0,0,1-12.714-7.324,1,1,0,0,1,1.57-1.238c4.117,5.225,10.059,6.622,11.183,6.549,2.8-.182,9.43-3.3,11.252-6.44a1,1,0,0,1,1.73,1c-2.659,4.579-12.235,7.3-12.641,7.418A1.94,1.94,0,0,1,63.89,99.983Z"/><path d="M64,102.536a3.943,3.943,0,1,1,3.942-3.942A3.946,3.946,0,0,1,64,102.536Zm0-5.886a1.943,1.943,0,1,0,1.942,1.944A1.945,1.945,0,0,0,64,96.65Z"/></svg>