<svg id="Solid" xmlns="http://www.w3.org/2000/svg" viewBox="0 0 128 128"><title>avatar-01</title><path d="M46.677,49.881a1,1,0,0,1-.655-1.756,9.693,9.693,0,0,1,6.056-1.632c.014,0,.118,0,.131,0l.3.03a5.921,5.921,0,0,1,3.615,1.647,1,1,0,1,1-1.415,1.414,3.961,3.961,0,0,0-2.419-1.073l-.236-.024-.1,0a7.964,7.964,0,0,0-4.624,1.149A1,1,0,0,1,46.677,49.881Z"/><path d="M84.736,45.612a1,1,0,0,1-.386-.078c-3.862-1.617-8.406-.765-11.488.016a1,1,0,1,1-.491-1.938c3.359-.852,8.335-1.772,12.752.077a1,1,0,0,1-.387,1.923Z"/><path d="M44.577,45.6a1,1,0,0,1-.383-1.925c4.419-1.831,9.381-.914,12.728-.065a1,1,0,1,1-.491,1.938c-3.072-.778-7.6-1.627-11.472-.025A1,1,0,0,1,44.577,45.6Z"/><path d="M82.626,49.881a.989.989,0,0,1-.658-.248,8.094,8.094,0,0,0-4.609-1.144l-.1,0-.251.025a3.973,3.973,0,0,0-2.415,1.072,1,1,0,0,1-1.414-1.414,5.93,5.93,0,0,1,3.61-1.646L77.1,46.5a.872.872,0,0,1,.1-.006,9.805,9.805,0,0,1,6.08,1.639,1,1,0,0,1-.66,1.751Z"/><path d="M64.647,60.812c.856,0,3.34-.525,3.34-2.131a1,1,0,0,0-1.963-.272,3.234,3.234,0,0,1-1.377.4,3.275,3.275,0,0,1-1.368-.405,1,1,0,0,0-1.962.274C61.317,60.2,63.667,60.812,64.647,60.812Z"/><path d="M64.647,68.542c1.779,0,4.116-.179,5.146-1.029A1,1,0,0,0,68.52,65.97c-.193.159-1.264.572-3.873.572s-3.671-.413-3.864-.572a1,1,0,1,0-1.272,1.543C60.541,68.363,62.872,68.542,64.647,68.542Z"/><rect x="49.559" y="47.491" width="4.912" height="6.8" rx="2.456" ry="2.456" transform="translate(104.029 101.782) rotate(-180)"/><rect x="74.837" y="47.491" width="4.912" height="6.8" rx="2.456" ry="2.456"/><path d="M95.3,35.158c.195.06.412.137.639.222-.831-18.588-10.578-26-19.087-28.907a207.246,207.246,0,0,1-3.037,24.171A118.634,118.634,0,0,1,95.3,35.158Z"/><path d="M64.659,30.126c2.41,0,4.8.121,7.156.324a201.526,201.526,0,0,0,3.063-24.5c-1.17-2.139-7.291-3.325-10.228-3.337-2.929.012-9.05,1.2-10.219,3.337a201.207,201.207,0,0,0,3.062,24.5C59.849,30.247,62.246,30.126,64.659,30.126Z"/><path d="M94.1,99.923c-.635-2.086-4.564-13.69-15-20.128a29.254,29.254,0,0,0,10-15.888,6.282,6.282,0,0,0,1.251.125,8.208,8.208,0,0,0,3.332-.762,10.177,10.177,0,0,0,5.453-5.81c1.29-3.98.589-7.066-2.08-9.172a6.255,6.255,0,0,0-2.377-1.113c.139-1.088.32-2.71.35-3.948.131.016.257.035.392.05.082.008.163.011.244.011a2.537,2.537,0,0,0,2.2-1.274,2.482,2.482,0,0,0-.084-2.689,5.584,5.584,0,0,0-1.546-1.677,6.21,6.21,0,0,0-1.508-.578c-7.376-2.255-18.579-4.944-30.058-4.944S41.977,34.815,34.6,37.07a6.319,6.319,0,0,0-1.527.586,5.532,5.532,0,0,0-1.541,1.668,2.482,2.482,0,0,0-.082,2.689A2.544,2.544,0,0,0,33.9,43.276c.133-.015.256-.033.384-.05.027,1.244.207,2.87.346,3.958a6.133,6.133,0,0,0-2.376,1.1c-2.672,2.107-3.372,5.194-2.08,9.18a10.2,10.2,0,0,0,5.474,5.811,8.172,8.172,0,0,0,3.313.755,6.208,6.208,0,0,0,1.251-.126c2.649,10.438,9.628,16.737,15.535,19.237a9.529,9.529,0,0,1-.713,3.369,2.813,2.813,0,0,0-3.668-.63l-.123.062c-1.252.642-2.81,1.44-3.488,2.567-.393.629-.479,1.979-.261,4.013l-1.365.621c-12.494,5.836-18.355,14.1-19.853,16.494a6.108,6.108,0,0,0-1.093,4.858c.586,2.268,2.835,3.77,4.958,4.941,1.235.679,12.7,6.633,34.512,6.633s33.276-5.954,34.512-6.634c2.122-1.17,4.371-2.672,4.957-4.94a6.1,6.1,0,0,0-1.091-4.855A40.95,40.95,0,0,0,94.1,99.923ZM90.3,55.731c1.341-1.6,3.832-1.116,3.855-1.112a1,1,0,1,0,.419-1.955,7.118,7.118,0,0,0-4.062.443c.1-1.378.184-2.746.249-4.032a7.05,7.05,0,0,1,2.663-.1,4.869,4.869,0,0,1,2.381.884c2,1.578,2.452,3.8,1.42,6.982a8.235,8.235,0,0,1-4.37,4.605,5.568,5.568,0,0,1-3.324.5C89.835,60.27,90.092,58.069,90.3,55.731ZM36.467,61.45a8.26,8.26,0,0,1-4.389-4.607c-1.033-3.189-.583-5.408,1.425-6.992A4.913,4.913,0,0,1,35.9,48.97a6.8,6.8,0,0,1,2.655.107c.063,1.3.144,2.658.243,4.028a7.082,7.082,0,0,0-4.057-.441,1,1,0,0,0,.421,1.955c.026-.005,2.478-.505,3.842,1.1.172,1.907.431,4.327.772,6.226A5.556,5.556,0,0,1,36.467,61.45Zm5.437.978a63.843,63.843,0,0,1-.941-7.191c-.18-2.132-.323-4.309-.42-6.344A34.784,34.784,0,0,0,45.25,45.34a31.292,31.292,0,0,0,3.469-3.808c.344-.426.7-.855,1.054-1.279a103.794,103.794,0,0,1,29.758,0c.371.439.721.867,1.061,1.285a32.224,32.224,0,0,0,3.468,3.81A34.343,34.343,0,0,0,88.769,48.9,103.388,103.388,0,0,1,87.4,62.427,27.149,27.149,0,0,1,76.719,79.085a20.962,20.962,0,0,1-4.245,2.353c-.1.04-.187.072-.33.121a23.5,23.5,0,0,1-7.487,1.653,23.643,23.643,0,0,1-7.534-1.669c-.1-.033-.187-.065-.293-.109C51.126,79.135,44.209,72.935,41.9,62.428ZM72.879,88.216a13.16,13.16,0,0,1-3.98,3.312,4.719,4.719,0,0,0-2.811,4.13,43.427,43.427,0,0,1-1.4,10.224,43.917,43.917,0,0,1-1.405-10.223,4.718,4.718,0,0,0-2.814-4.132,13.482,13.482,0,0,1-4.04-3.377,10.638,10.638,0,0,0,1.275-4.276,24.386,24.386,0,0,0,6.951,1.338,24.338,24.338,0,0,0,6.936-1.333A10.7,10.7,0,0,0,72.879,88.216ZM52.431,100.525c-1.142-.687-2.347-3.855-2.863-7.525a10.5,10.5,0,0,1-.1-3.443,7.947,7.947,0,0,1,2.7-1.832l.125-.065a1.427,1.427,0,0,1,.631-.19.742.742,0,0,1,.588.326c.283.344.607.729.955,1.139a19.415,19.415,0,0,0,4.354,3.979c-1.011,2.474-3.334,7.015-5.859,7.7A.631.631,0,0,1,52.431,100.525Zm12.226,23.149c-4.472-4.452-10.613-13.047-11.614-21.06a2.723,2.723,0,0,0,.425-.068c3.506-.951,6.049-6.127,7.072-8.571a2.721,2.721,0,0,1,.747,1.769c.192,4.43.789,10.319,2.544,13.216.009.014.021.024.03.038s.034.041.051.063a.984.984,0,0,0,.225.208c.011.007.017.019.029.027l.019.008a1,1,0,0,0,.165.071c.027.01.053.025.08.032a1.018,1.018,0,0,0,.227.031c.009,0,.019,0,.028,0h0c.009,0,.018,0,.027,0a.979.979,0,0,0,.229-.031c.025-.007.048-.02.073-.029a.96.96,0,0,0,.171-.074l.018-.008c.011-.006.017-.018.027-.025a.98.98,0,0,0,.228-.209c.017-.021.035-.04.05-.062s.022-.024.03-.038c1.756-2.879,2.353-8.777,2.546-13.218a2.73,2.73,0,0,1,.748-1.77c1.024,2.442,3.571,7.621,7.069,8.572a2.567,2.567,0,0,0,.366.062C75.248,110.655,69.118,119.233,64.657,123.674ZM79.8,93.014c-.517,3.716-1.733,6.885-2.883,7.532a.6.6,0,0,1-.484.07c-2.526-.687-4.852-5.224-5.867-7.7a18.774,18.774,0,0,0,4.314-3.945l1-1.169c.238-.282.508-.507,1.217-.142l.124.064a8.123,8.123,0,0,1,2.691,1.8A10.165,10.165,0,0,1,79.8,93.014Z"/><path d="M55.491,30.645A207.023,207.023,0,0,1,52.454,6.472C43.949,9.378,34.2,16.786,33.372,35.38c.227-.084.444-.161.644-.222A118.637,118.637,0,0,1,55.491,30.645Z"/><path d="M77.207,47.491l-.3.03Z"/><path d="M52.407,47.521l-.3-.03Z"/></svg>