<svg id="Solid" xmlns="http://www.w3.org/2000/svg" viewBox="0 0 128 128"><title>avatar-01_1</title><path d="M46.02,44.321a1,1,0,0,1-.639-1.769c2.606-2.162,9.433-2.333,10.48-1.334a1,1,0,0,1-1.215,1.575c-.873-.253-6.008-.346-7.988,1.3A.994.994,0,0,1,46.02,44.321Zm8.459-1.656h0Z"/><path d="M76.207,52.541v1.552a2.494,2.494,0,0,1-4.987,0V51.948a2.541,2.541,0,0,1,.73-1.769,2.068,2.068,0,0,1,.171-.149A13.3,13.3,0,0,0,76.207,52.541Z"/><path d="M62.98,60.911c.022,0,2.21-.016,2.21-1.42a1,1,0,0,0-1.752-.659,2.048,2.048,0,0,1-.458.079,2.11,2.11,0,0,1-.46-.08,1,1,0,0,0-1.75.66C60.77,60.9,62.958,60.911,62.98,60.911Z"/><path d="M66.12,66.571a1,1,0,0,0-.924.617,5.269,5.269,0,0,1-4.5,0,1,1,0,0,0-1.922.386c0,1.962,4.138,2.121,4.18,2.121s4.17-.159,4.17-2.121A1,1,0,0,0,66.12,66.571Z"/><path d="M100.169,34.526c-4.907-2.973-5.733-5.983-6.878-10.149a39.474,39.474,0,0,0-3.779-9.745C86.273,8.856,78.748,4,70.787,2.54A25.978,25.978,0,0,0,49.314,7.916c-15.782.3-17.883,10.4-19.419,17.793A25.689,25.689,0,0,1,28.1,31.92a36.819,36.819,0,0,1-4.583,6.517c-3.377,4.1-6.566,7.977-6.369,16.438.21,8.745,6.733,12.769,11.049,15.432,1.744,1.075,3.39,2.091,3.723,2.909.228.565.4,1.127.591,1.723.926,2.957,1.976,6.308,9.94,11.119a38.237,38.237,0,0,0,11.023,4.494c-1.448,1.687-3.509,2.51-5.679,3.358a31.727,31.727,0,0,0-3.5,1.536l-.013.007-.018.008c-10.717,5.769-15.6,11.893-17.563,15.028a5.808,5.808,0,0,0-1.036,4.626c.56,2.164,2.691,3.586,4.7,4.692a44.517,44.517,0,0,0,10.573,3.785,92.217,92.217,0,0,0,22.01,2.479,92.061,92.061,0,0,0,22.091-2.5,45.1,45.1,0,0,0,10.481-3.765c2.01-1.105,4.141-2.528,4.7-4.692a5.808,5.808,0,0,0-1.028-4.624c-2.374-3.79-7.3-9.437-17.278-14.877h0a.969.969,0,0,0-.1-.072.98.98,0,0,0-.2-.118.862.862,0,0,0-.122-.038c-.014,0-.027-.009-.04-.012a33.664,33.664,0,0,0-3.336-1.455c-2.364-.922-4.448-1.751-5.89-3.591a49.371,49.371,0,0,0,6.633-2.095c8.771-3.464,10.978-8,12.589-11.307.895-1.838,1.6-3.29,3.174-4.106,8.744-4.538,13.92-12.086,14.2-20.709C109.06,44.751,105.664,37.849,100.169,34.526Zm-72.162,21.3a8.9,8.9,0,0,1-.567-3.034,12.968,12.968,0,0,0,3.244.4,17.7,17.7,0,0,0,4.211-.543c.231,2.185.624,5.383,1.193,8.481C32.776,61.747,29.2,59.024,28.007,55.822Zm55.8,65.981a90.788,90.788,0,0,1-20.856,2.268,90.944,90.944,0,0,1-20.777-2.248c-.005-3,.192-14.219,3.152-24.011a36.644,36.644,0,0,0,35.328-.019C83.585,107.491,83.809,118.534,83.806,121.8ZM77.387,95.781c.531.208,1.071.419,1.6.644a34.658,34.658,0,0,1-32.041-.018c.524-.221,1.053-.43,1.575-.634,2.831-1.106,5.758-2.249,7.515-5.389.012-.02.02-.044.031-.064s.023-.044.032-.067a13.145,13.145,0,0,0,1.418-4.922,19.845,19.845,0,0,0,5.419.87,19.762,19.762,0,0,0,5.435-.876,13.492,13.492,0,0,0,1.34,4.813c.016.031.037.055.054.086l.01.018C71.546,93.492,74.513,94.659,77.387,95.781ZM87.656,61.67c-.047.258-.095.517-.153.781a27.583,27.583,0,0,1-17.48,20.23c-.36.142-.721.265-1.084.383a19.014,19.014,0,0,1-6,1.137,19.1,19.1,0,0,1-5.968-1.123L56.756,83c-.293-.1-.592-.207-.9-.327A27.584,27.584,0,0,1,38.386,62.444l-.165-.787c-.683-3.455-1.134-7.238-1.376-9.589,4.345-1.52,7.887-4.274,9.142-7.157a46.937,46.937,0,0,0,2.273-7.472c1.024-4.169,2.013-8.1,4.417-10.307a38.636,38.636,0,0,0,4.07,2.384c3.969,2.1,7.719,4.093,7.416,8.027a15.38,15.38,0,0,0,4.38,12.076.893.893,0,0,0,.086.077,18.166,18.166,0,0,0,6.73,4.269,27.248,27.248,0,0,0,9.023,1.657q.97,0,1.917-.085a20.505,20.505,0,0,0,2.386-.4C88.387,57.58,88.051,59.736,87.656,61.67Zm10.227-5.849c-1.2,3.2-4.772,5.925-8.088,5.306.369-1.953.691-4.119.974-6.573a17.285,17.285,0,0,0,7.047-4.573A7.072,7.072,0,0,1,97.883,55.821Z"/><path d="M57.4,71.932a.909.909,0,1,0,.91.909A.909.909,0,0,0,57.4,71.932Z"/><path d="M48.07,50.781a1,1,0,0,1-.655-1.755c2.822-2.45,7.044-1.831,8.4-.677a1,1,0,0,1-1.295,1.525,5.5,5.5,0,0,0-5.8.663A1,1,0,0,1,48.07,50.781Z"/><rect x="49.679" y="49.452" width="4.993" height="7.133" rx="2.496" ry="2.496"/><path d="M87.2,54.466a1,1,0,1,0-1.976.312,7.958,7.958,0,0,1,.1,1.333,9.035,9.035,0,1,1-18.07,0,8.943,8.943,0,0,1,2.709-6.473,1,1,0,0,0-1.4-1.434A10.89,10.89,0,0,0,65.3,55.111H60.663a11.035,11.035,0,1,0,0,2H65.3a11.032,11.032,0,0,0,22.019-1A10.1,10.1,0,0,0,87.2,54.466ZM49.679,65.146a9.035,9.035,0,1,1,9.035-9.035A9.045,9.045,0,0,1,49.679,65.146Z"/></svg>