<svg id="Solid" xmlns="http://www.w3.org/2000/svg" viewBox="0 0 128 128"><title>bakery, shop, food, cafe, coffee, restaurant, building</title><path d="M125.292,124.514H119.98V70.091a13.76,13.76,0,0,1-15.12,2.83v23.47H48.26V72.921a13.9,13.9,0,0,1-5.46,1.13,13.683,13.683,0,0,1-9.55-3.85v54.313H10.312v-17.88h12.15a1,1,0,0,0,1-1V65.84a1,1,0,0,0-1-1H10.312V63.7a1.25,1.25,0,0,0-2.5,0v60.811H4.264a1.25,1.25,0,1,0,0,2.5H125.292a1.25,1.25,0,0,0,0-2.5ZM42.75,98.891h67.62a3.185,3.185,0,0,1,0,6.37H42.75a3.185,3.185,0,0,1,0-6.37ZM17.6,98.439H14.9a.676.676,0,0,1-.762-.693V94.283a.676.676,0,0,1,.762-.694h2.632a.7.7,0,1,1,0,1.386h-1.87v.416h1.317a.627.627,0,1,1,0,1.247H15.658v.415H17.6a.7.7,0,1,1,0,1.386Zm-.9-9.48a.7.7,0,1,1,0,1.385H15.658v.9a.676.676,0,0,1-.762.693.676.676,0,0,1-.762-.693V87.712a.675.675,0,0,1,.762-.693h2.632a.7.7,0,1,1,0,1.386h-1.87v.554ZM13.961,74.287a2.11,2.11,0,0,1,2.32-2.079c1.213,0,1.906.694,1.906,1.178,0,.382-.243.624-.762.624-.555,0-.624-.485-1.144-.485a.727.727,0,0,0-.761.762v.97a.727.727,0,0,0,.761.762c.589,0,.658-.485,1.213-.485.52,0,.762.243.762.624,0,.484-.694,1.177-1.975,1.177a2.109,2.109,0,0,1-2.32-2.078Zm-.105,8.67,1.109-2.909a1.155,1.155,0,0,1,1.213-.832,1.151,1.151,0,0,1,1.212.832L18.5,82.957a2.381,2.381,0,0,1,.174.624.714.714,0,0,1-.763.693.944.944,0,0,1-.831-.693l-.173-.416H15.45l-.173.416a.946.946,0,0,1-.832.693.712.712,0,0,1-.761-.693A2.4,2.4,0,0,1,13.856,82.957Z"/><polygon points="16.212 80.879 16.143 80.879 15.762 81.918 16.593 81.918 16.212 80.879"/><path d="M42.8,71.555a11.24,11.24,0,0,0,9.131-4.674,2.59,2.59,0,0,1,4.243,0,11.254,11.254,0,0,0,18.26,0,2.59,2.59,0,0,1,4.243,0,11.255,11.255,0,0,0,18.263,0,2.59,2.59,0,0,1,4.242,0A11.263,11.263,0,0,0,118.3,68.234,10.033,10.033,0,0,0,120.149,57.1l-4.382-9.857a5.958,5.958,0,0,0-5.446-3.537h-2.959V36.212a1.206,1.206,0,0,0-.059-.3c5.407-1.446,8.063-3.732,8.237-7.533.36-7.887-8.549-11.622-22.179-12.959a14.948,14.948,0,0,1,5.6,6.966,1.25,1.25,0,1,1-2.35.851c-1.688-4.657-6.241-7.465-7.355-8.14-3.532-.216-7.314-.3-11.287-.279-.806,0-1.605.02-2.4.04a26.809,26.809,0,0,1,8.8,10.624A1.25,1.25,0,0,1,82.1,26.52C78.845,19.35,74.3,16.825,72.121,15A88.494,88.494,0,0,0,57.057,17.01a17.587,17.587,0,0,1,8.114,7.777,1.25,1.25,0,0,1-1.088,1.866,1.286,1.286,0,0,1-1.09-.635c-3.618-5.907-7.535-7.324-9.35-8.1-8.2,2.479-13.338,6.406-12.882,11.641,0,2.908,1.923,4.948,5.236,6.357a1.221,1.221,0,0,0-.092.453v7.337h-3.12a5.927,5.927,0,0,0-5.434,3.537L32.969,57.1a10.035,10.035,0,0,0,1.846,11.133A11.218,11.218,0,0,0,42.8,71.555Zm5.608-34.786c7.023,2.041,18.188,2.194,30.524,1.769,11.414-.393,19.969-.881,25.933-2.061v7.23H48.405Z"/></svg>