<svg id="Solid" xmlns="http://www.w3.org/2000/svg" viewBox="0 0 128 128"><title>Binge eating, disease, hungry, mental health, disorder, mental illness, stress</title><path d="M74.116,45.043H67.352A1.731,1.731,0,0,1,65.623,43.4l-.732-14.827a1,1,0,0,1,1-1.049h9.688a1,1,0,0,1,1,1.049L75.844,43.4A1.729,1.729,0,0,1,74.116,45.043Z"/><path d="M101.929,33.459a1.821,1.821,0,0,0,1.595-2.724c-1.649-2.734-5.564-5.1-10.131-5.1S84.911,28,83.262,30.735a1.821,1.821,0,0,0,1.595,2.724Z"/><path d="M84.962,40.285h16.861a1.952,1.952,0,0,1,1.952,1.952v0a2.807,2.807,0,0,1-2.807,2.807H85.816a2.807,2.807,0,0,1-2.807-2.807v0A1.952,1.952,0,0,1,84.962,40.285Z"/><rect x="83.01" y="34.971" width="20.766" height="3.497" rx="1.749" ry="1.749"/><path d="M72.315,18.225l1.958-7.443a1.25,1.25,0,1,0-2.418-.637l-2.1,7.988a8.271,8.271,0,0,0-7.282,8.2,1.25,1.25,0,0,0,2.5,0,5.762,5.762,0,0,1,11.524,0,1.25,1.25,0,1,0,2.5,0A8.273,8.273,0,0,0,72.315,18.225Z"/><path d="M107.72,54.156c-.13-.87-.28-1.73-.47-2.57a31.193,31.193,0,1,0-53.66-29.9c-16,4.21-27.71,16.61-27.22,32.37.08,2.69.55,6.63.54,9.21-.02,9.17-7.95,12.93-8.1,15.85-.25,4.79,5.37,3.29,7.36,10.07,2.51,8.6-1.1,18.41,10.62,17.8,4.68-.19,12.28-2,15.54,1.03,2.08,1.93,3.75,10.35,4.4,14.08a2.157,2.157,0,0,0,2.13,1.79h35.2a2.162,2.162,0,0,0,2.08-2.76c-1.17-4.03-3.19-11.73-3.59-18.04-.25-3.93.94-9.35,3.34-12.47C105.47,78.186,109.72,67.406,107.72,54.156ZM83.07,3.186a28.7,28.7,0,0,1,0,57.39,1.223,1.223,0,0,0-.74.25c-4.11,3.04-8.75,6.26-11.04,7.59.25-2.18.97-5.93,1.56-8.58a1.262,1.262,0,0,0-.74-1.43A28.7,28.7,0,0,1,83.07,3.186Z"/></svg>