<svg id="Solid" xmlns="http://www.w3.org/2000/svg" viewBox="0 0 128 128"><title>building, haircut, construction, barbers, city, shop, store</title><rect x="90.061" y="80.74" width="15.979" height="12.279" rx="1" ry="1"/><path d="M18.28,57.151a6.252,6.252,0,0,0,6.25,6.25h.01V77.555h-5.9v-4h0a2.263,2.263,0,0,0,2.039-2.292A7.091,7.091,0,0,0,13.6,64.183H7.731A7.105,7.105,0,0,0,.648,71.329a2.245,2.245,0,0,0,2.04,2.229v29a2.265,2.265,0,0,0-2.04,2.292,7.091,7.091,0,0,0,7.083,7.083H13.6a7.1,7.1,0,0,0,7.083-7.146,2.246,2.246,0,0,0-2.039-2.229v-1h5.9v9.963h-.107a6.257,6.257,0,0,0-6.25,6.25V124.6H14.666a1.25,1.25,0,1,0,0,2.5H122.855a1.25,1.25,0,0,0,0-2.5H118.92V63.381a6.256,6.256,0,0,0,5.81-6.23V46.611H18.28ZM7.731,66.683H13.6a4.6,4.6,0,0,1,4.577,4.4H3.152A4.588,4.588,0,0,1,7.731,66.683ZM5.188,85.694V81.34l10.956-4.158v4.354Zm10.956,5.545v4.354L5.188,99.751V95.4ZM13.6,109.43H7.731a4.6,4.6,0,0,1-4.577-4.4H18.179A4.588,4.588,0,0,1,13.6,109.43ZM24.54,99.06h-5.9v-19h5.9ZM85.351,75.769a1,1,0,0,1,1-1h23.4a1,1,0,0,1,1,1V124.6h-25.4ZM62.03,63.4H77.04v48.122H62.03Zm-17.48,0H59.53v48.122H44.55Zm-17.51,0H42.05v48.122H27.04Z"/><path d="M127.23,37.371a3.243,3.243,0,0,0-2.89-1.75H18.71A3.263,3.263,0,0,0,16,40.7l2.28,3.41H124.73l2.26-3.38A3.213,3.213,0,0,0,127.23,37.371Z"/></svg>