<svg id="Solid" xmlns="http://www.w3.org/2000/svg" viewBox="0 0 128 128"><title>buildings, exterior, construction, hospital, healthcare, medical, place</title><path d="M88.42,32.411a2.253,2.253,0,0,0-2.25-2.25H42.44a2.253,2.253,0,0,0-2.25,2.25v.61H88.42Z"/><path d="M126,124.611h-3.92V66.281a7.463,7.463,0,0,0-2.83-5.85l-16.11-12.58a7.042,7.042,0,0,0-8.67,0l-.72.56v76.2h-2.5V38.671a3.1,3.1,0,0,0-2.83-3.12v-.03H39.81a3.112,3.112,0,0,0-3.06,3.15v85.94h-2.5v-76.2l-.72-.56a7.042,7.042,0,0,0-8.67,0L8.75,60.431a7.463,7.463,0,0,0-2.83,5.85v58.33H2a1.25,1.25,0,0,0,0,2.5H126a1.25,1.25,0,0,0,0-2.5ZM95.767,113.273v-2.165a1.976,1.976,0,0,1,1.976-1.976h2.165a1.976,1.976,0,0,1,1.975,1.976v2.165a1.975,1.975,0,0,1-1.975,1.975H97.743A1.976,1.976,0,0,1,95.767,113.273Zm12.936,0v-2.165a1.976,1.976,0,0,1,1.975-1.976h2.165a1.976,1.976,0,0,1,1.976,1.976v2.165a1.976,1.976,0,0,1-1.976,1.975h-2.165A1.975,1.975,0,0,1,108.7,113.273Zm6.118-13.123a1.976,1.976,0,0,1-1.976,1.976H110.68a1.976,1.976,0,0,1-1.976-1.976V97.985a1.976,1.976,0,0,1,1.976-1.975h2.165a1.976,1.976,0,0,1,1.976,1.975Zm0-13.122A1.975,1.975,0,0,1,112.841,89h-2.164a1.975,1.975,0,0,1-1.976-1.975V84.863a1.976,1.976,0,0,1,1.976-1.976h2.164a1.976,1.976,0,0,1,1.976,1.976ZM108.7,71.74a1.976,1.976,0,0,1,1.976-1.975h2.165a1.975,1.975,0,0,1,1.975,1.975v2.165a1.976,1.976,0,0,1-1.975,1.976h-2.165a1.976,1.976,0,0,1-1.976-1.976Zm-6.814,28.41a1.976,1.976,0,0,1-1.976,1.976H97.745a1.976,1.976,0,0,1-1.976-1.976V97.985a1.975,1.975,0,0,1,1.976-1.975h2.164a1.975,1.975,0,0,1,1.976,1.975Zm0-13.122A1.976,1.976,0,0,1,99.906,89H97.741a1.976,1.976,0,0,1-1.976-1.975V84.863a1.976,1.976,0,0,1,1.976-1.976h2.165a1.976,1.976,0,0,1,1.976,1.976ZM95.764,71.74a1.975,1.975,0,0,1,1.976-1.975H99.9a1.976,1.976,0,0,1,1.976,1.975v2.165A1.976,1.976,0,0,1,99.9,75.881H97.74a1.976,1.976,0,0,1-1.976-1.976ZM13.181,113.273v-2.165a1.976,1.976,0,0,1,1.976-1.976h2.165a1.976,1.976,0,0,1,1.975,1.976v2.165a1.975,1.975,0,0,1-1.975,1.975H15.157A1.976,1.976,0,0,1,13.181,113.273Zm12.936,0v-2.165a1.976,1.976,0,0,1,1.975-1.976h2.165a1.976,1.976,0,0,1,1.976,1.976v2.165a1.976,1.976,0,0,1-1.976,1.975H28.092A1.975,1.975,0,0,1,26.117,113.273Zm0-41.533A1.976,1.976,0,0,1,28.1,69.765H30.26a1.975,1.975,0,0,1,1.976,1.975v2.165a1.976,1.976,0,0,1-1.976,1.976H28.1a1.976,1.976,0,0,1-1.976-1.976Zm0,13.123a1.976,1.976,0,0,1,1.976-1.976h2.165a1.976,1.976,0,0,1,1.976,1.976v2.165A1.976,1.976,0,0,1,30.259,89H28.094a1.976,1.976,0,0,1-1.976-1.975Zm0,13.122a1.975,1.975,0,0,1,1.976-1.975h2.164a1.975,1.975,0,0,1,1.976,1.975v2.165a1.976,1.976,0,0,1-1.976,1.976H28.091a1.976,1.976,0,0,1-1.976-1.976ZM13.185,71.74a1.975,1.975,0,0,1,1.975-1.975h2.165A1.976,1.976,0,0,1,19.3,71.74v2.165a1.976,1.976,0,0,1-1.976,1.976H15.16a1.976,1.976,0,0,1-1.975-1.976Zm0,13.123a1.976,1.976,0,0,1,1.976-1.976h2.164A1.976,1.976,0,0,1,19.3,84.863v2.165A1.975,1.975,0,0,1,17.323,89H15.159a1.975,1.975,0,0,1-1.976-1.975Zm0,13.122a1.976,1.976,0,0,1,1.976-1.975H17.32A1.976,1.976,0,0,1,19.3,97.985v2.165a1.976,1.976,0,0,1-1.976,1.976H15.155a1.976,1.976,0,0,1-1.976-1.976ZM62.918,83.17h2.164a1.975,1.975,0,0,1,1.976,1.975V87.31a1.976,1.976,0,0,1-1.976,1.976H62.918a1.976,1.976,0,0,1-1.976-1.976V85.145A1.975,1.975,0,0,1,62.918,83.17Zm-1.976-8.8V72.209a1.976,1.976,0,0,1,1.976-1.976h2.164a1.976,1.976,0,0,1,1.976,1.976v2.165a1.975,1.975,0,0,1-1.976,1.975H62.918A1.975,1.975,0,0,1,60.942,74.374Zm1.976,21.732h2.164a1.976,1.976,0,0,1,1.976,1.976v2.165a1.975,1.975,0,0,1-1.976,1.975H62.918a1.975,1.975,0,0,1-1.976-1.975V98.082A1.976,1.976,0,0,1,62.918,96.106Zm2.364,28.505V111.044H77.938a1.976,1.976,0,0,1,1.975,1.976v11.591Zm8.595-52.4a1.976,1.976,0,0,1,1.976-1.976h2.165a1.976,1.976,0,0,1,1.976,1.976v2.165a1.976,1.976,0,0,1-1.976,1.975H75.853a1.976,1.976,0,0,1-1.976-1.975Zm0,12.936a1.976,1.976,0,0,1,1.976-1.975h2.165a1.976,1.976,0,0,1,1.976,1.975V87.31a1.976,1.976,0,0,1-1.976,1.976H75.853a1.976,1.976,0,0,1-1.976-1.976Zm0,12.937a1.976,1.976,0,0,1,1.976-1.976h2.165a1.976,1.976,0,0,1,1.976,1.976v2.165a1.976,1.976,0,0,1-1.976,1.975H75.853a1.976,1.976,0,0,1-1.976-1.975ZM57.013,55.033a2.558,2.558,0,0,1,2.555-2.555h.44a.552.552,0,0,0,.551-.551v-.44a2.559,2.559,0,0,1,2.556-2.556h1.768a2.559,2.559,0,0,1,2.555,2.556v.442a.551.551,0,0,0,.551.551h.443a2.559,2.559,0,0,1,2.555,2.556V56.8a2.559,2.559,0,0,1-2.555,2.556h-.443a.551.551,0,0,0-.551.551v.442a2.559,2.559,0,0,1-2.555,2.556H63.115a2.559,2.559,0,0,1-2.556-2.556v-.439a.552.552,0,0,0-.551-.552h-.44A2.558,2.558,0,0,1,57.013,56.8ZM48.006,72.209a1.976,1.976,0,0,1,1.976-1.976h2.165a1.976,1.976,0,0,1,1.976,1.976v2.165a1.976,1.976,0,0,1-1.976,1.975H49.982a1.976,1.976,0,0,1-1.976-1.975Zm0,12.936a1.976,1.976,0,0,1,1.976-1.975h2.165a1.976,1.976,0,0,1,1.976,1.975V87.31a1.976,1.976,0,0,1-1.976,1.976H49.982a1.976,1.976,0,0,1-1.976-1.976Zm0,12.937a1.976,1.976,0,0,1,1.976-1.976h2.165a1.976,1.976,0,0,1,1.976,1.976v2.165a1.976,1.976,0,0,1-1.976,1.975H49.982a1.976,1.976,0,0,1-1.976-1.975Zm.081,14.938a1.976,1.976,0,0,1,1.975-1.976h12.72v13.567H48.087Z"/></svg>