<svg id="Solid" xmlns="http://www.w3.org/2000/svg" viewBox="0 0 128 128"><title>building, urban, construction, skyscraper, window, city, place</title><path d="M103.51,21.371H66.82a4.242,4.242,0,0,0-4.17,3.49h45.04A4.253,4.253,0,0,0,103.51,21.371Z"/><path d="M86.42,8.151V1.741a1.25,1.25,0,1,0-2.5,0v6.48c-.03.02-8.46,6.84-13.17,10.65H99.7C94.97,15.051,86.47,8.181,86.42,8.151Z"/><path d="M117.4,124.611H112.89v-95a2.253,2.253,0,0,0-2.25-2.25H59.7a2.253,2.253,0,0,0-2.25,2.25v95H54.979V45.07a4.25,4.25,0,0,0-6.308-3.719L16.755,59.014a4.251,4.251,0,0,0-2.192,3.719v61.878H10.6a1.25,1.25,0,0,0,0,2.5H117.4a1.25,1.25,0,0,0,0-2.5Zm-83.875,0H23.1v-9.333a.752.752,0,0,1,.75-.75h9.667Zm12.916,0H36.021V114.528h9.666a.751.751,0,0,1,.75.75Zm-1.249-19.406H24.354a2.5,2.5,0,0,1,0-5H45.188a2.5,2.5,0,0,1,0,5Zm0-11.615H24.354a2.5,2.5,0,0,1,0-5H45.188a2.5,2.5,0,1,1,0,5Zm0-11.615H24.354a2.5,2.5,0,0,1,0-5H45.188a2.5,2.5,0,0,1,0,5Zm0-11.614H24.354a2.5,2.5,0,0,1,0-5H45.188a2.5,2.5,0,0,1,0,5ZM93.34,45.081a1,1,0,0,1,1-1h5.6a1,1,0,0,1,1,1v10.28a1,1,0,0,1-1,1h-5.6a1,1,0,0,1-1-1Zm0,22.45a1,1,0,0,1,1-1h5.6a1,1,0,0,1,1,1v10.28a1,1,0,0,1-1,1h-5.6a1,1,0,0,1-1-1Zm0,22.44a1,1,0,0,1,1-1h5.6a1,1,0,0,1,1,1v10.29a1,1,0,0,1-1,1h-5.6a1,1,0,0,1-1-1ZM69.52,45.081a1,1,0,0,1,1-1h5.6a1,1,0,0,1,1,1v10.28a1,1,0,0,1-1,1h-5.6a1,1,0,0,1-1-1Zm0,22.45a1,1,0,0,1,1-1h5.6a1,1,0,0,1,1,1v10.28a1,1,0,0,1-1,1h-5.6a1,1,0,0,1-1-1Zm0,22.44a1,1,0,0,1,1-1h5.6a1,1,0,0,1,1,1v10.29a1,1,0,0,1-1,1h-5.6a1,1,0,0,1-1-1Zm14.459,34.64H67.354v-17.25a1,1,0,0,1,1-1H83.979Zm19.125,0H86.479v-18.25H102.1a1,1,0,0,1,1,1Z"/></svg>