<svg id="Solid" xmlns="http://www.w3.org/2000/svg" viewBox="0 0 128 128"><title>buildings, exterior, construction, factory, pollution, place, smoke</title><path d="M22.2,51.027H43.252a.992.992,0,0,0,.944-.669c.35-1.042,1.2-3,2.81-3.67,2.811-1.163,5.256.006,9.147-2.765,2.224-1.584,2.661-5.79,11.386-4.433s16.27-2.47,17.6-9.6C87.231,18.655,68.665,13.338,60.02,14.123c-9.4.852-15.907,4.994-23.522,16.217-4.074,6-16.152,9.445-15.289,19.8A.988.988,0,0,0,22.2,51.027Z"/><path d="M125.061,124.556H120.84V75.881a3.617,3.617,0,0,0-4.65-3.47l-25.52,7.55,1,44.6H89.23L88.07,75.881a3.62,3.62,0,0,0-4.66-3.47l-27.67,8.5,5.9,43.645h-2.63L49.69,54.461a2.375,2.375,0,0,0-2.49-1.91H18.46a2.375,2.375,0,0,0-2.49,1.91l-9.323,70.1H2.306a1.25,1.25,0,1,0,0,2.5H125.061a1.25,1.25,0,0,0,0-2.5ZM106.115,96.368a1.92,1.92,0,0,1,1.92-1.92H111a1.92,1.92,0,0,1,1.92,1.92v2.966a1.92,1.92,0,0,1-1.92,1.92h-2.966a1.919,1.919,0,0,1-1.92-1.92Zm0,12.8a1.919,1.919,0,0,1,1.92-1.919H111a1.92,1.92,0,0,1,1.92,1.919v2.966a1.92,1.92,0,0,1-1.92,1.92h-2.966a1.919,1.919,0,0,1-1.92-1.92Zm-13.054-12.8a1.92,1.92,0,0,1,1.92-1.92h2.966a1.92,1.92,0,0,1,1.92,1.92v2.966a1.92,1.92,0,0,1-1.92,1.92H94.981a1.92,1.92,0,0,1-1.92-1.92Zm0,12.8a1.92,1.92,0,0,1,1.92-1.919h2.966a1.92,1.92,0,0,1,1.92,1.919v2.966a1.92,1.92,0,0,1-1.92,1.92H94.981a1.92,1.92,0,0,1-1.92-1.92Zm-18.528-12.8a1.92,1.92,0,0,1,1.92-1.92h2.966a1.92,1.92,0,0,1,1.92,1.92v2.966a1.919,1.919,0,0,1-1.92,1.92H76.453a1.92,1.92,0,0,1-1.92-1.92Zm0,12.8a1.92,1.92,0,0,1,1.92-1.919h2.966a1.919,1.919,0,0,1,1.92,1.919v2.966a1.919,1.919,0,0,1-1.92,1.92H76.453a1.92,1.92,0,0,1-1.92-1.92ZM61.48,96.368a1.92,1.92,0,0,1,1.92-1.92h2.966a1.92,1.92,0,0,1,1.92,1.92v2.966a1.92,1.92,0,0,1-1.92,1.92H63.4a1.919,1.919,0,0,1-1.92-1.92Zm0,12.8a1.919,1.919,0,0,1,1.92-1.919h2.966a1.92,1.92,0,0,1,1.92,1.919v2.966a1.92,1.92,0,0,1-1.92,1.92H63.4a1.919,1.919,0,0,1-1.92-1.92ZM18.42,55.051H47.24l1.7,12.79H16.71Zm-4.64,34.83h38.1l2.26,17.04H11.51Z"/></svg>