<svg id="Solid" xmlns="http://www.w3.org/2000/svg" viewBox="0 0 128 128"><title>calling, emergency, healthcare, medical, hospital, smartphone, hand</title><path d="M54.248,63.155a5.306,5.306,0,0,1,5.131-.291A4.24,4.24,0,0,1,61.8,66.317c.228,2.615,1.124,7.636,2.595,14.568a9.678,9.678,0,0,1,2.475-.745L78.738,26.784a3.937,3.937,0,0,0-2.988-4.7l-7.456-1.659a7.073,7.073,0,0,1-6.609,4.591c-.517,0-7.554-1.508-7.554-1.508a7.071,7.071,0,0,1-5.52-7.463l-7.122-1.585a3.941,3.941,0,0,0-4.7,2.989L23.575,76.828a3.938,3.938,0,0,0,2.989,4.7l25.631,5.7C50.506,79.22,48.918,66.478,54.248,63.155ZM65.809,44.843c1.08.709,1.411,3.865.545,4.653-.887.8-3.937.6-5.619.408a1.632,1.632,0,0,1-1.4-1.217l-.237-.909a1.639,1.639,0,0,1,1.1-1.991C62.051,45.2,65.071,44.37,65.809,44.843Zm-10.178-5.76c.929-1.479,2.514-3.81,3.29-3.9C60.074,35.034,62.138,37,62,38.041c-.145,1.069-2.353,2.7-3.6,3.548a1.491,1.491,0,0,1-1.679-.023l-.691-.482A1.487,1.487,0,0,1,55.631,39.083ZM45.264,54.763c-3.835-9.246,5.947-15.249,8.02-10.226a4.066,4.066,0,0,1,.193,2.4,2.066,2.066,0,0,1-2.716,1.134,1.055,1.055,0,0,0-1.3.33,4.688,4.688,0,0,0-.3,4.746,4.686,4.686,0,0,0,3.574,3.136,1.056,1.056,0,0,0,1.155-.689A2.065,2.065,0,0,1,56.6,54.477a4.08,4.08,0,0,1,1.565,1.834C60.258,61.328,49.1,64.009,45.264,54.763Z"/><path d="M54.565,21.555s4.608,1,6.143,1.336a4.723,4.723,0,0,0,3.692-.673,5.045,5.045,0,0,0,1.922-2.232l-9.546-2.125-6.193-1.378a5.09,5.09,0,0,0,3.982,5.072Z"/><path d="M77.782,86.043a7.816,7.816,0,0,0-2.521-.983,6.133,6.133,0,0,1,.129,1.5,1,1,0,0,1-1,.96h-.041a1,1,0,0,1-.959-1.039,3.835,3.835,0,0,0-.5-2.125A4.252,4.252,0,0,0,71.31,82.85a6.665,6.665,0,0,0-5.443-.421,5.572,5.572,0,0,0-1.043.481c.524,2.426.911,4.1.912,4.105a1,1,0,0,1-1.95.45s-.462-2-1.064-4.819c-1.157-5.374-2.6-12.539-2.919-16.152a2.273,2.273,0,0,0-1.316-1.84,3.293,3.293,0,0,0-3.181.2C51.1,67.475,52.84,78.49,53.991,85.778a59.25,59.25,0,0,1,.793,6.188,9.51,9.51,0,0,1-.58,4.039c-1.152,2.755-3.888,3.265-8.127,1.511l-.358-.15c-2.5-1.046-6.267-2.627-8.677-1.529a4.007,4.007,0,0,0-2.078,2.6,3.879,3.879,0,0,0-.212,1.661c.239,2.423,3.276,4.22,6.489,6.121a36.948,36.948,0,0,1,5.863,3.993C51.7,114.3,63.122,121,73.49,117.059c8.937-3.386,13.573-11.572,11.275-19.907C83.736,93.437,81.689,88.493,77.782,86.043Z"/><path d="M52.512,89.351,26.13,83.479a5.937,5.937,0,0,1-4.508-7.086L34.836,17.014a5.947,5.947,0,0,1,7.087-4.507l8.022,1.785h0l17.883,3.98h0l8.356,1.859a5.941,5.941,0,0,1,4.508,7.087L68.928,80.082a8.528,8.528,0,0,1,2.343.549l12.008-53.96a7.124,7.124,0,0,0-5.4-8.493l-36.66-8.159a7.127,7.127,0,0,0-8.493,5.4L19.034,76.94a7.118,7.118,0,0,0,5.4,8.493L52.77,91.739C52.733,91.083,52.641,90.277,52.512,89.351Z"/><path d="M107.007,43.093l-.294-.053a1.181,1.181,0,0,1-.953-1.372l.053-.294a2.606,2.606,0,0,0-2.1-3.026L101.77,38a2.606,2.606,0,0,0-3.026,2.1l-.052.29a1.181,1.181,0,0,1-1.371.953l-.287-.052A2.61,2.61,0,0,0,94,43.4l-.349,1.94a2.605,2.605,0,0,0,2.1,3.026l.291.052A1.181,1.181,0,0,1,97,49.788l-.052.291a2.607,2.607,0,0,0,2.1,3.026l1.94.349a2.606,2.606,0,0,0,3.026-2.1l.053-.294a1.18,1.18,0,0,1,1.371-.953l.294.053a2.606,2.606,0,0,0,3.026-2.1l.348-1.937A2.6,2.6,0,0,0,107.007,43.093Z"/><path d="M93.074,58.657h-.161a.635.635,0,0,1-.636-.635v-.161a1.4,1.4,0,0,0-1.4-1.4H89.812a1.4,1.4,0,0,0-1.4,1.4v.158a.635.635,0,0,1-.636.636h-.156a1.407,1.407,0,0,0-1.406,1.406v1.061a1.4,1.4,0,0,0,1.4,1.4h.158a.635.635,0,0,1,.636.635v.159a1.4,1.4,0,0,0,1.4,1.4h1.062a1.4,1.4,0,0,0,1.4-1.4v-.161a.636.636,0,0,1,.636-.636h.161a1.4,1.4,0,0,0,1.4-1.4V60.061A1.4,1.4,0,0,0,93.074,58.657Z"/></svg>