<svg id="Solid" xmlns="http://www.w3.org/2000/svg" viewBox="0 0 128 128"><title>church, building, construction, Christian, cross, Religion</title><path d="M64.032,38.529a3.392,3.392,0,1,0-3.391-3.391A3.391,3.391,0,0,0,64.032,38.529Z"/><circle cx="64" cy="67.828" r="4.783" transform="translate(-13.872 16.519) rotate(-13.283)"/><path d="M107.446,86.722,75.5,53.318V37.072a2.147,2.147,0,0,0,2.8.014,2.152,2.152,0,0,0,.5-2.772L65.916,12h0a2.159,2.159,0,0,0-.664-.7V6.688h2.171a1.25,1.25,0,0,0,0-2.5H65.252V1.629a1.25,1.25,0,1,0-2.5,0V4.188H60.641a1.25,1.25,0,1,0,0,2.5h2.111V11.34a2.155,2.155,0,0,0-.617.663L49.267,34.292a2.181,2.181,0,0,0,3.3,2.757V53.816L21.093,86.722a2.251,2.251,0,0,0,1.626,3.806h0l4.453,0v34.086h-3.4a1.25,1.25,0,0,0,0,2.5h80.456a1.25,1.25,0,0,0,0-2.5h-2.873V90.525l4.464,0h0a2.251,2.251,0,0,0,1.626-3.806ZM64,24.191,73.009,34.3c0,.019-.011.034-.011.053V50.7l-6.915-7.23a2.594,2.594,0,0,0-3.626,0L55.065,51.2V34.326c0-.02-.01-.037-.011-.057Zm-9.67,100.42V95.875h19.4v28.736Zm21.9,0V95.732a2.244,2.244,0,0,0,.595-3.895L65.366,83.079a2.256,2.256,0,0,0-2.732,0h0L51.173,91.837a2.254,2.254,0,0,0,.658,3.927v28.847H29.673V89.787l34.6-35.138L98.855,89.787v34.824Z"/><path d="M91.417,91.534H84.583a2.253,2.253,0,0,0-2.25,2.25v23.9a2.253,2.253,0,0,0,2.25,2.25h6.834a2.253,2.253,0,0,0,2.25-2.25v-23.9A2.253,2.253,0,0,0,91.417,91.534Zm-4.667,25.9H84.833V106.987H86.75Zm0-12.952H84.833V94.034H86.75Zm4.417,12.952H89.25V106.987h1.917Zm0-12.952H89.25V94.034h1.917Z"/><path d="M43.417,91.534H36.583a2.253,2.253,0,0,0-2.25,2.25v23.9a2.253,2.253,0,0,0,2.25,2.25h6.834a2.253,2.253,0,0,0,2.25-2.25v-23.9A2.253,2.253,0,0,0,43.417,91.534Zm-4.667,25.9H36.833V106.987H38.75Zm0-12.952H36.833V94.034H38.75Zm4.417,12.952H41.25V106.987h1.917Zm0-12.952H41.25V94.034h1.917Z"/></svg>