<svg id="Solid" xmlns="http://www.w3.org/2000/svg" viewBox="0 0 128 128"><title>cinema, movies, building, construction, recreation, theatre </title><path d="M5.92,83.334H122.08a2.991,2.991,0,0,0,2.5-4.651c-4.656-6.7-13.472-11.214-23.565-11.452C95.26,54.972,80.86,46.281,64,46.281s-31.26,8.691-37.02,20.95c-10.093.238-18.909,4.755-23.565,11.452A2.991,2.991,0,0,0,5.92,83.334Zm8.929-7.42a28.593,28.593,0,0,1,10.789-2.346l2.623-.062a2,2,0,0,0,1.763-1.149l1.115-2.374C36.257,59.093,49.462,51.777,64,51.777s27.743,7.316,32.861,18.206l1.115,2.374a2,2,0,0,0,1.763,1.149l2.623.062a28.6,28.6,0,0,1,10.788,2.346,1,1,0,0,1-.4,1.924h-97.5A1,1,0,0,1,14.849,75.914Z"/><path d="M126,124.611h-4.33v-14.26a1,1,0,0,0-1-1H95.083a1,1,0,0,0-1,1v14.26h-2.5v-14.26a1,1,0,0,0-1-1H66.25a1,1,0,0,0-1,1v14.26h-2.5v-14.26a1,1,0,0,0-1-1H37.417a1,1,0,0,0-1,1v14.26h-2.5v-14.26a1,1,0,0,0-1-1H7.33a1,1,0,0,0-1,1v14.26H2a1.25,1.25,0,0,0,0,2.5H126a1.25,1.25,0,0,0,0-2.5Z"/><path d="M40.827,71.76c.807,1.6,2.694,2.163,4.764,1.331,1.875-.745,2.6-2.058,2.375-2.766-.179-.549-.679-.778-1.5-.488-.872.316-.72,1.045-1.621,1.4a1.179,1.179,0,0,1-1.618-.58q-.291-.676-.581-1.353a1.182,1.182,0,0,1,.792-1.58c.858-.339,1.233.3,2.138-.025.851-.3,1.137-.78.956-1.33-.221-.7-1.756-1.326-3.836-.5-2.44.983-3.323,2.98-2.52,4.568Z"/><path d="M48.96,70.669A1.244,1.244,0,0,0,51.319,70l-1.368-5.293c-.156-.61-.748-.9-1.6-.656s-1.2.8-1.015,1.4Q48.149,68.058,48.96,70.669Z"/><path d="M52.723,69.656a1.237,1.237,0,0,0,2.393-.485q-.213-1.191-.424-2.381l.114-.02q1.182,1.02,2.28,2.09c.586.611,1,.927,1.649.858.752-.08,1.149-.541,1.1-1.16l-.45-5.449c-.049-.627-.581-1.011-1.453-.919S56.62,62.771,56.7,63.4l.315,2.4-.117.015q-1.148-1.067-2.382-2.083a2.063,2.063,0,0,0-1.9-.714c-.861.175-1.253.713-1.113,1.316Z"/><path d="M62.51,69.355q2.113-.063,4.227.053a1.065,1.065,0,0,0,1.273-.969c.052-.627-.365-1.086-1.158-1.131q-1.579-.087-3.163-.077l0-.631q1.086-.006,2.172.032a1.045,1.045,0,0,0,1.2-.892c.032-.523-.417-.974-1.13-1q-1.125-.04-2.251-.034,0-.315,0-.63,1.618-.011,3.236.075c.836.046,1.347-.332,1.4-.962s-.413-1.089-1.286-1.137q-2.361-.124-4.728-.054c-.873.026-1.347.478-1.311,1.107l.284,5.249A1.065,1.065,0,0,0,62.51,69.355Z"/><path d="M69.373,69.729a1.214,1.214,0,0,0,1.377-.891q.429-1.322.884-2.637l.116.017q.288,1.051.543,2.106a1.4,1.4,0,0,0,2.653.5q.626-.886,1.282-1.758l.114.027q-.06,1.391-.145,2.777a1.219,1.219,0,0,0,.96,1.338,1.05,1.05,0,0,0,1.4-.69,5.381,5.381,0,0,0,.163-.939q.247-2.229.43-4.472c.071-.744-.383-1.422-1.424-1.68a1.864,1.864,0,0,0-2.1.813q-.8,1.087-1.546,2.2l-.115-.022q-.29-1.306-.629-2.611a1.871,1.871,0,0,0-1.647-1.527,1.593,1.593,0,0,0-1.931,1.04q-.653,2.151-1.239,4.316a5.45,5.45,0,0,0-.193.933A1.044,1.044,0,0,0,69.373,69.729Z"/><path d="M79.613,71.958a1.531,1.531,0,0,0,1.6-.559c.16-.166.32-.332.481-.5q1.119.411,2.223.876.009.347.015.691a1.541,1.541,0,0,0,.8,1.5,1.143,1.143,0,0,0,1.564-.421,3.294,3.294,0,0,0,.157-.976q.129-2.389.1-4.814a2.465,2.465,0,0,0-4.046-1.595q-1.663,1.757-3.189,3.6a3.283,3.283,0,0,0-.547.822A1.132,1.132,0,0,0,79.613,71.958Zm4.412-3.881.113.045q.021.855.023,1.709-.657-.269-1.317-.52Q83.426,68.689,84.025,68.077Z"/><path d="M121.67,106.851v-.038a2.24,2.24,0,0,0,0-4.432V86.831a1,1,0,0,0-1-1H95.083a1,1,0,0,0-1,1v15.516h-2.5V86.831a1,1,0,0,0-1-1H66.25a1,1,0,0,0-1,1v15.516h-2.5V86.831a1,1,0,0,0-1-1H37.417a1,1,0,0,0-1,1v15.516h-2.5V86.831a1,1,0,0,0-1-1H7.33a1,1,0,0,0-1,1v15.533a2.239,2.239,0,0,0,0,4.466v.021Z"/></svg>