<svg id="Solid" xmlns="http://www.w3.org/2000/svg" viewBox="0 0 128 128"><title>computer, document, paper, medical, certificate, contract, hospital</title><path d="M114.356,19.614H98.206v3.48h14.94a1,1,0,0,1,1,1v51.19a1,1,0,0,1-1,1H14.806a1,1,0,0,1-1-1V24.094a1,1,0,0,1,1-1h15.05v-3.48h-16.2a3.188,3.188,0,0,0-3.18,3.18v69.53a3.182,3.182,0,0,0,3.18,3.18H49.123l-1.874,16.911H41.2a2.636,2.636,0,1,0,0,5.271H86.664a2.636,2.636,0,1,0,0-5.271h-5.9L78.89,95.5h35.466a3.182,3.182,0,0,0,3.18-3.18V22.794A3.188,3.188,0,0,0,114.356,19.614Z"/><path d="M96.208,12.768a1.347,1.347,0,0,0-1.347-1.346H33.207a1.347,1.347,0,0,0-1.346,1.346V74.282H96.208ZM57.328,29.682A2.588,2.588,0,0,1,59.913,27.1h.445a.558.558,0,0,0,.557-.558V26.1A2.588,2.588,0,0,1,63.5,23.51h1.788A2.587,2.587,0,0,1,67.873,26.1v.447a.558.558,0,0,0,.557.557h.448a2.589,2.589,0,0,1,2.585,2.586V31.47a2.588,2.588,0,0,1-2.585,2.585H68.43a.558.558,0,0,0-.557.557v.447a2.587,2.587,0,0,1-2.585,2.585H63.5a2.588,2.588,0,0,1-2.585-2.585v-.444a.558.558,0,0,0-.557-.558h-.445a2.588,2.588,0,0,1-2.585-2.585ZM74.861,67.937H39.8a1.232,1.232,0,0,1,0-2.464H74.861a1.232,1.232,0,0,1,0,2.464Zm0-8.922H39.8a1.232,1.232,0,0,1,0-2.464H74.861a1.232,1.232,0,0,1,0,2.464Zm0-8.922H39.8a1.232,1.232,0,1,1,0-2.464H74.861a1.232,1.232,0,1,1,0,2.464ZM88.45,64.384,85.564,67.27a2.455,2.455,0,0,1-3.468,0l-.912-.912a.949.949,0,0,1,1.343-1.342l.912.912a.556.556,0,0,0,.783,0l2.886-2.887a.949.949,0,0,1,1.342,1.343Zm0-8.377-2.886,2.886a2.455,2.455,0,0,1-3.468,0l-.912-.911a.949.949,0,0,1,1.343-1.342l.911.911a.557.557,0,0,0,.784,0l2.886-2.886a.949.949,0,0,1,1.342,1.342Zm0-8.377-2.886,2.887a2.458,2.458,0,0,1-3.468,0l-.912-.912a.95.95,0,0,1,1.343-1.343l.912.913a.556.556,0,0,0,.783,0l2.886-2.887A.949.949,0,0,1,88.45,47.63Z"/></svg>