<svg id="Solid" xmlns="http://www.w3.org/2000/svg" viewBox="0 0 128 128"><title>disease, Alzheimer, mental health, disorder, mental illness, forgot, loss</title><rect x="77.981" y="26.396" width="0.016" height="0.038"/><rect x="93.286" y="22.982" width="10.247" height="10.247"/><rect x="108.17" y="32.979" width="10.247" height="10.247"/><rect x="100.254" y="88.562" width="10.247" height="10.247"/><rect x="93.004" y="68.646" width="10.247" height="10.247"/><rect x="83.17" y="82.146" width="10.247" height="10.247"/><rect x="80.462" y="15.604" width="10.247" height="10.247"/><rect x="93.92" y="45.187" width="10.247" height="10.247"/><rect x="81.651" y="55.008" width="10.247" height="10.247"/><polygon points="80.971 77.687 80.971 67.434 70.714 67.442 70.714 77.687 80.971 77.687"/><path d="M93.339,116.754a107.438,107.438,0,0,1-3.847-18.577H77.959V87.934H67.714V77.689H57.467V67.442H67.714l0-10.34H77.97V46.9H88.213V36.654l-10.232-.011V26.434l-10.274-.006V16.181l10.259-.025V8.893A57.411,57.411,0,0,0,62.835,6.162C37.706,4.862,16.185,21,16.878,43.265c.091,2.938.605,7.265.593,10.091C17.448,63.4,8.759,67.524,8.592,70.72c-.275,5.248,5.89,3.609,8.064,11.033,2.76,9.425-1.2,20.173,11.648,19.509,5.125-.206,13.454-2.2,17.023,1.123,2.276,2.117,4.109,11.352,4.824,15.439a2.368,2.368,0,0,0,2.337,1.959H91.057A2.369,2.369,0,0,0,93.339,116.754ZM47.889,36.686H37.642V26.439H47.889Zm10.24-6.332H68.376V40.6H58.129Zm-7.667,24.08V44.187H60.709V54.434ZM63.377,100.6H53.13V90.353H63.377Z"/></svg>