<svg id="Solid" xmlns="http://www.w3.org/2000/svg" viewBox="0 0 128 128"><title>Dissociative, Multiple Personality, mental health, disorder, mental illness, schizophrenia, psycho</title><path d="M48.484,98.733c1.07,1,2.917,9.25,3.937,13.12H36.3a2.04,2.04,0,0,1-2.02-1.68c-.61-3.52-2.21-11.47-4.17-13.29-3.07-2.85-6.22-1.14-10.63-.96-11.05.57-7.64-8.68-10.02-16.79-1.87-6.39-7.18-4.98-6.94-9.5.14-2.75,7.62-6.3,7.64-14.94.01-2.43-.43-6.16-.51-8.69-.6-19.15,17.93-33.04,39.55-31.92.9.05,1.79.11,2.67.2a38.955,38.955,0,0,0-15.88,9.27,30.015,30.015,0,0,0-9.28,22.51c.04,1.14.14,2.46.25,3.85.13,1.71.27,3.47.26,4.78-.01,4.91-2.74,7.93-4.93,10.35-1.47,1.63-2.62,2.91-2.71,4.5-.16,3.2,1.79,4.49,3.36,5.52a7.341,7.341,0,0,1,3.65,4.56,33.469,33.469,0,0,1,1.01,6.44c.5,5.46,1.07,11.63,9.74,11.63.33,0,.67-.01,1.03-.03,1.07-.04,2.264-.133,3.53-.3C47.14,96.67,47.984,98.273,48.484,98.733Z"/><path d="M74.4,111.853H55.614a2.03,2.03,0,0,1-2.01-1.68c-.62-3.52-2.426-11.339-4.386-13.159-3.07-2.85-6-1.271-10.414-1.091-11.06.57-7.65-8.68-10.03-16.79-1.87-6.39-7.17-4.98-6.94-9.5.15-2.75,7.62-6.3,7.64-14.94.01-2.43-.43-6.16-.51-8.69-.59-19.15,17.93-33.04,39.55-31.92.28.01.55.03.82.05a39.067,39.067,0,0,0-15.16,9.52,30.307,30.307,0,0,0-8.86,22.43c.03,1.16.14,2.55.25,3.89.13,1.69.26,3.44.26,4.71-.01,4.63-2.64,7.53-4.74,9.86-1.51,1.66-2.8,3.1-2.9,4.96-.19,3.63,2.05,5.11,3.69,6.19a6.646,6.646,0,0,1,3.35,4.14,33.1,33.1,0,0,1,.98,6.29c.5,5.49,1.84,12.809,10.384,12.235,4.113-.277,7.952-.907,9.552-.907,2.12,0,3.469.323,4.454,1.262C71.224,99.353,73.671,108.139,74.4,111.853Z"/><path d="M111.147,111.856a2.039,2.039,0,0,0,1.964-2.606,88.006,88.006,0,0,1-3.39-17.01c-.235-3.7.885-8.818,3.151-11.757,9.039-11.726,13.045-21.886,11.153-34.39-3.066-20.264-17.377-31-37.165-32.014C65.235,12.96,46.715,26.85,47.311,46.008c.079,2.528.521,6.252.511,8.684-.02,8.642-7.5,12.192-7.642,14.943-.236,4.516,5.069,3.1,6.94,9.494,2.375,8.111-.9,17.634,10.156,17.062,4.41-.178,11.446-2.163,14.518.694,1.958,1.821,3.535,9.769,4.151,13.286a2.036,2.036,0,0,0,2.011,1.685Z"/></svg>