<svg id="Solid" xmlns="http://www.w3.org/2000/svg" viewBox="0 0 128 128"><title>dna, medical, chemical, hospital, science, genetics, biology</title><path d="M118.461,43.368a2.021,2.021,0,0,0-2.111,1.883,22.851,22.851,0,0,1-.724,4.624c-3.989-4.842-13.943-15.388-27.1-18.54a9.812,9.812,0,0,1,5.364-4.446,2,2,0,1,0-1.568-3.68c-5.45,2.321-9.208,6.086-9.832,16.91-.36,6.23,1.436,12.734,3.174,19.024l.116.421c-5.773-2.289-18.239-6.042-27.852-.6-6.238,3.534-10.1,10.2-11.487,19.811-.18,1.252-.378,2.456-.587,3.628C32.836,71.048,22.36,66.916,2.225,75.466a2,2,0,0,0,1.563,3.681,63.838,63.838,0,0,1,8.881-3.1,63.04,63.04,0,0,1,12.559,34.427,33.877,33.877,0,0,1-6.529.593,2,2,0,0,0,0,4c15.612,0,25.015-7.967,29.67-25.53,6.565,4.624,13.308,6.95,19.717,6.95,7.052,0,13.7-2.814,19.264-8.474,6.25-6.36,5.915-14.318,4.094-22.484,7.043,1.387,14.24.4,19.518-2.9,3.974-2.481,8.827-7.471,9.382-17.156A2,2,0,0,0,118.461,43.368ZM27.209,110.013a64.2,64.2,0,0,0-12.39-34.468,26.108,26.108,0,0,1,13.479.432c4.868,7.345,8.664,19.46,8.769,28A20.371,20.371,0,0,1,27.209,110.013Zm11.735-8.384a64.554,64.554,0,0,0-7.592-24.464c4.071,1.872,8.016,4.842,12.43,8.741.384.34.77.664,1.156.987C43.5,93.06,41.535,97.927,38.944,101.629ZM50.4,79.349a38.792,38.792,0,0,1,.875-4.367C52.56,76.658,54,78.469,55.51,80.363a142.364,142.364,0,0,1,8.749,11.7,35.14,35.14,0,0,1-14.9-6.766C49.753,83.405,50.1,81.429,50.4,79.349Zm16.321,13c-1.775-3.354-5.762-8.358-9.647-13.231C55.219,76.79,53.462,74.581,52,72.63c1.6-4.524,4.083-7.836,7.429-9.895,9.7,8.843,16.455,19.449,19.292,26.943A21.325,21.325,0,0,1,66.721,92.347ZM84.5,85.212A26.663,26.663,0,0,1,80.446,88.6c-2.958-7.575-9.625-18.037-19.126-26.856A23.4,23.4,0,0,1,74,60.466a47.7,47.7,0,0,1,14.16,17.993A13.649,13.649,0,0,1,84.5,85.212Zm4.075-10.485A51.941,51.941,0,0,0,78.164,61.3a50.106,50.106,0,0,1,6.986,2.328c.628.263,1.264.5,1.9.722A41.554,41.554,0,0,1,88.572,74.727Zm1.794-13.545c-.276-1.036-.562-2.072-.847-3.1-.861-3.118-1.73-6.29-2.326-9.4,10.345,5.018,15.5,9.864,17.692,12.383A25.893,25.893,0,0,1,90.366,61.182Zm18.478-1.94a16.982,16.982,0,0,1-1.973,1.045C104.714,57.633,99.1,52.012,86.8,46.268a30.273,30.273,0,0,1-.313-5.918,26.518,26.518,0,0,1,1.227-7.156c13.566,3.11,23.941,14.911,27.141,18.927A14.978,14.978,0,0,1,108.844,59.242Z"/><path d="M122.579,70.554a2.768,2.768,0,0,1-1.283-.319,3.076,3.076,0,0,1-1.487-1.78,2.217,2.217,0,0,1,.139-1.7c.363-.676,1.128-1.544,1.908-1.284,1.084.359,1.534.221,1.972.642s1.719,1.723.924,3.2A2.434,2.434,0,0,1,122.579,70.554Z"/><path d="M59.646,112.565c-.808,2.255-1.942,4.336-4.337,4.336a4.336,4.336,0,0,1-4.336-4.336c0-2.395,1.942-4.833,4.336-4.833S60.555,110.027,59.646,112.565Z"/><path d="M104.891,100.243c.6.661,1.093,1.4.675,2.191a1.622,1.622,0,0,1-2.191.675,1.792,1.792,0,0,1-.839-2.278C102.955,100.04,104.211,99.5,104.891,100.243Z"/><path d="M71.711,39.438c.92,1.006,1.665,2.131,1.028,3.336A2.469,2.469,0,0,1,69.4,43.8a2.724,2.724,0,0,1-1.277-3.468C68.762,39.128,70.676,38.305,71.711,39.438Z"/><path d="M14.714,39.561c.865.946,1.565,2,.966,3.136a2.32,2.32,0,0,1-3.135.966,2.562,2.562,0,0,1-1.2-3.26C11.943,39.27,13.741,38.5,14.714,39.561Z"/><path d="M75.537,14.018c-.764,1.223-1.669,2.3-2.907,1.978a2.5,2.5,0,0,1-1.577-3.143c.367-1.414,1.745-2.593,2.983-2.272A2.439,2.439,0,0,1,75.537,14.018Z"/><path d="M46.08,44.12c-.634,3.651,5.132,4.98,4.049,7.893-.818,2.2-7.908,4.088-8.362-2.64-.27-4.011-1.852-4.282-1.312-6.866C41.138,39.241,46.839,39.747,46.08,44.12Z"/><path d="M103.583,72.992c1.8,0,5.32,3.917.608,6.073-2.809,1.286-3.2,2.855-4.575,2.28C95.929,79.805,99.662,72.992,103.583,72.992Z"/></svg>