<svg id="Solid" xmlns="http://www.w3.org/2000/svg" viewBox="0 0 128 128"><title>Ferris wheel, amusement, recreation, construction, landmark, park</title><path d="M7.91,68.294v4.427a.892.892,0,0,0,.89.89h7.36a.894.894,0,0,0,.9-.89V68.294H7.91Z"/><path d="M23.04,96.467v4.424a.894.894,0,0,0,.89.9h7.36a.9.9,0,0,0,.9-.9V96.467H23.04Z"/><path d="M111.02,65.794h8.99a4.538,4.538,0,0,0-3.242-3.569v-.183a3.718,3.718,0,0,0-3.713-3.713H103.9c-.011,0-.02.006-.031.007a39.741,39.741,0,0,0-10.8-26.067c.007-.007.017-.009.025-.017l3.373-3.374a.9.9,0,0,0,.311.063h7.36a.9.9,0,0,0,.9-.9V23.619H95.88v2.365a1.208,1.208,0,0,0-.154.1l-4.4,4.4c-.007.007-.009.017-.017.025a39.732,39.732,0,0,0-26.067-10.8c0-.011.006-.02.006-.031V13.851h2.43a.9.9,0,0,0,.9-.9V8.527H59.42v4.424a.9.9,0,0,0,.9.9h2.43v5.832c0,.011.006.02.006.031a39.732,39.732,0,0,0-26.067,10.8c-.008-.008-.01-.018-.017-.025L32.12,25.933V23.619H22.96v4.422a.9.9,0,0,0,.9.9h7.36a.9.9,0,0,0,.31-.063L34.9,32.252c.008.008.018.01.025.017a39.741,39.741,0,0,0-10.8,26.067c-.011,0-.02-.007-.031-.007H14.945a3.718,3.718,0,0,0-3.713,3.713v.183A4.538,4.538,0,0,0,7.99,65.794h8.99a4.548,4.548,0,0,0-3.248-3.568v-.184a1.214,1.214,0,0,1,1.213-1.213H24.1c.011,0,.02-.006.031-.006a39.734,39.734,0,0,0,10.8,26.068c-.008.007-.018.009-.026.017L30.54,91.272a4.512,4.512,0,0,0-2.9-1.051h-.06a4.529,4.529,0,0,0-4.46,3.746h8.99a4.638,4.638,0,0,0-.155-.575l4.717-4.717c.007-.007.009-.018.017-.025a39.908,39.908,0,0,0,13.26,8.275L40.514,124.6H38.08a1.25,1.25,0,0,0,0,2.5h51.9a1.25,1.25,0,0,0,0-2.5H87.486L78.051,96.925a39.908,39.908,0,0,0,13.26-8.275c.008.007.01.018.017.025l4.717,4.718a4.576,4.576,0,0,0-.155.574h1.231c.006,0,.013,0,.02,0s.013,0,.02,0h7.719a4.529,4.529,0,0,0-4.46-3.746h-.06a4.512,4.512,0,0,0-2.9,1.051L93.1,86.908c-.008-.008-.018-.01-.026-.017a39.734,39.734,0,0,0,10.8-26.068c.011,0,.02.006.031.006h9.158a1.214,1.214,0,0,1,1.213,1.213v.184A4.548,4.548,0,0,0,111.02,65.794ZM65.25,27.869a31.612,31.612,0,0,1,20.289,8.4L69.485,52.326a9.05,9.05,0,0,0-4.235-1.755Zm-2.5,0v22.7a9.05,9.05,0,0,0-4.235,1.755L42.461,36.272A31.612,31.612,0,0,1,62.75,27.869ZM40.691,38.042,56.749,54.091a9.036,9.036,0,0,0-1.757,4.24H32.29A31.613,31.613,0,0,1,40.691,38.042Zm-8.4,22.789h22.7a9.039,9.039,0,0,0,1.754,4.234L40.692,81.119A31.619,31.619,0,0,1,32.29,60.831ZM42.462,82.889l16.05-16.058a9.039,9.039,0,0,0,4.238,1.757v22.7A31.617,31.617,0,0,1,42.462,82.889ZM84.844,124.6H43.156l9.159-26.868A39.8,39.8,0,0,0,62.75,99.445v6.11a4.535,4.535,0,0,0-3.25,3.564h9a4.535,4.535,0,0,0-3.25-3.564v-6.11a39.8,39.8,0,0,0,10.435-1.711ZM65.25,91.289v-22.7a9.039,9.039,0,0,0,4.238-1.757l16.05,16.058A31.617,31.617,0,0,1,65.25,91.289Zm22.058-10.17L71.254,65.065a9.039,9.039,0,0,0,1.754-4.234h22.7A31.619,31.619,0,0,1,87.308,81.119Zm-14.3-22.788a9.036,9.036,0,0,0-1.757-4.24L87.309,38.042a31.613,31.613,0,0,1,8.4,20.289Z"/><path d="M95.81,96.467v4.424a.9.9,0,0,0,.9.9h7.36a.894.894,0,0,0,.89-.9V96.467H95.81Z"/><path d="M100.49,17.371h-.06a4.54,4.54,0,0,0-4.47,3.748h9A4.54,4.54,0,0,0,100.49,17.371Z"/><path d="M64.03,2.271h-.06A4.547,4.547,0,0,0,59.5,6.028h9A4.547,4.547,0,0,0,64.03,2.271Z"/><path d="M27.57,17.371h-.06a4.54,4.54,0,0,0-4.47,3.748h9A4.54,4.54,0,0,0,27.57,17.371Z"/><path d="M110.941,68.294h0v4.427a.894.894,0,0,0,.9.89h7.36a.892.892,0,0,0,.89-.89V68.294Z"/><path d="M59.424,111.619h0v4.422a.9.9,0,0,0,.9.9h7.36a.9.9,0,0,0,.9-.9v-4.422H59.424Z"/></svg>