<svg id="Solid" xmlns="http://www.w3.org/2000/svg" viewBox="0 0 128 128"><title>first, Aid, emergency, healthcare, medical, hospital, recovery</title><path d="M72.6,33.088a10.854,10.854,0,0,1,10.671,9.1c2.744.036,5.078.088,7.074.158a17.809,17.809,0,0,0-35.489,0c2.092-.073,4.46-.123,7.074-.149A10.859,10.859,0,0,1,72.6,33.088Z"/><path d="M28.392,24.248a3.178,3.178,0,0,0,3.16,2.855c.111,0,.222-.006.335-.017l.545-.057c.022,0,.045,0,.068,0a.694.694,0,0,1,.681.625l.057.545a3.2,3.2,0,0,0,3.168,2.855,3.251,3.251,0,0,0,.326-.017l2.2-.228a3.2,3.2,0,0,0,2.852-3.5l-.058-.56A.68.68,0,0,1,42.328,26l.545-.056a3.187,3.187,0,0,0,2.837-3.5l-.227-2.194A3.178,3.178,0,0,0,42.322,17.4a3.14,3.14,0,0,0-.334.017l-.545.057c-.024,0-.049,0-.072,0a.684.684,0,0,1-.677-.625l-.057-.545a3.2,3.2,0,0,0-3.177-2.853,3.089,3.089,0,0,0-.332.017l-2.2.228A3.2,3.2,0,0,0,32.1,17.2l.056.545a.692.692,0,0,1-.605.763L31,18.559a3.178,3.178,0,0,0-2.838,3.495Z"/><path d="M22.086,40.253h-.42a.516.516,0,0,1-.516-.516v-.406a2.39,2.39,0,0,0-2.386-2.387H17.123a2.39,2.39,0,0,0-2.386,2.387v.406a.516.516,0,0,1-.516.516h-.406a2.39,2.39,0,0,0-2.387,2.386V44.28a2.39,2.39,0,0,0,2.387,2.386h.406a.516.516,0,0,1,.516.516v.406a2.39,2.39,0,0,0,2.386,2.387h1.641a2.39,2.39,0,0,0,2.386-2.387v-.406a.516.516,0,0,1,.516-.516h.42a2.378,2.378,0,0,0,2.373-2.386V42.639A2.378,2.378,0,0,0,22.086,40.253Z"/><path d="M114.122,62.486c-2.094-11.247-7.71-16.9-17.672-17.8-1.355-.119-3.06-.218-5.064-.294-2.409-.1-27.064-.214-28.561-.2-3.431.026-12.725.372-14.082.491-9.96.9-15.575,6.556-17.67,17.8-1.479,7.921-2.848,29.525-2.363,37.283.719,11.524,7.344,12.834,19.976,14.316,5.853.681,40.748.827,47.824,0,12.632-1.483,19.257-2.794,19.975-14.316C116.971,92.011,115.6,70.407,114.122,62.486ZM88.662,81.438a5.887,5.887,0,0,1-5.871,5.884H81.776A1.271,1.271,0,0,0,80.5,88.585V89.6a5.886,5.886,0,0,1-5.871,5.883H70.566A5.888,5.888,0,0,1,64.683,89.6v-1a1.27,1.27,0,0,0-1.263-1.275H62.4a5.884,5.884,0,0,1-5.87-5.871V77.376a5.875,5.875,0,0,1,5.87-5.871H63.42a1.271,1.271,0,0,0,1.263-1.276v-1a5.888,5.888,0,0,1,5.883-5.883h4.063A5.886,5.886,0,0,1,80.5,69.226v1.016a1.272,1.272,0,0,0,1.276,1.263h1.015a5.886,5.886,0,0,1,5.871,5.883Z"/></svg>