<svg id="Solid" xmlns="http://www.w3.org/2000/svg" viewBox="0 0 128 128"><title>food, healthcare, medical, hospital, water, glass, rice porridge</title><path d="M11.4,37.873a2.423,2.423,0,0,0,3.28-1.01c.627-1.185-.106-2.291-1.01-3.281a1.624,1.624,0,0,0-1.233-.53,2.782,2.782,0,0,0-2.293,1.411A2.679,2.679,0,0,0,11.4,37.873Z"/><path d="M56.712,38.412a3,3,0,0,0,4.064-1.252c.777-1.468-.131-2.838-1.251-4.065A2.009,2.009,0,0,0,58,32.439a3.449,3.449,0,0,0-2.842,1.747A3.322,3.322,0,0,0,56.712,38.412Z"/><path d="M25.822,44.367c2.116,0,3.119-1.84,3.832-3.833.8-2.243-1.716-4.271-3.832-4.271s-3.833,2.155-3.833,4.271A3.833,3.833,0,0,0,25.822,44.367Z"/><path d="M42.635,39.143a6.439,6.439,0,0,0,5.75-3.163,5.353,5.353,0,0,0,.542-2.09c.409-5.23-2.409-7.188-5.619-7.187a9.435,9.435,0,0,0-3.056.539c-1.568.544-3.235,2.817-3.738,4.4-.594,1.868.008,3.709,1.454,5.476A5.955,5.955,0,0,0,42.635,39.143Z"/><path d="M83.162,37.609c.064,3.016.2,9.361.4,16.787,2.955-2.83,13.861-3.64,20.707-3.64,6.941,0,18.064.832,20.83,3.76.207-7.782.344-14.317.4-16.913-3,2.553-12.443,3.711-21.175,3.711C97.877,41.314,86.614,40.49,83.162,37.609Z"/><path d="M104.323,39.314c11.844,0,19.321-2.041,20.165-3.515l.012-.019a.111.111,0,0,0,.022-.057c0-1.075-6.873-3.592-20.2-3.592s-20.2,2.517-20.2,3.592S91,39.314,104.323,39.314Z"/><path d="M83.655,57.617c.358,12.389.888,26.694,1.535,33.336a9.038,9.038,0,0,0,6.429,7.883,41.034,41.034,0,0,0,11.785,1.569h1.837a41.041,41.041,0,0,0,11.786-1.569,9.04,9.04,0,0,0,6.429-7.883c.674-6.726,1.194-21.131,1.562-33.461-2.895,2.854-13.87,3.67-20.746,3.67C97.5,61.162,86.739,60.37,83.655,57.617Z"/><path d="M47.048,64.054a6.946,6.946,0,0,1-2.3,1.938,10.437,10.437,0,0,0-1.425-.811,7.928,7.928,0,0,0-6.091-.08,1,1,0,0,0,.807,1.831,6.026,6.026,0,0,1,4.511.094c1.113.472,1.691,1.127,1.713,1.5a1.1,1.1,0,0,0,.648.929,1.056,1.056,0,0,0,1.1-.267c1.3-1.264,3.608-.832,4.85.111.3.226,1.1.929,1.405.929a1,1,0,0,0,.8-1.6A5.981,5.981,0,0,0,51.01,67.1a9.7,9.7,0,0,1,1.847-2.979c.806-1.126,16.491-17.472,18.437-19.9,1.254-1.579,1.784-2.876,1.489-3.65-.284-.746-1.137-.893-1.473-.99-4.275-1.237-6.094,1.238-9.811,6.972C60.507,48.079,48.85,62.522,47.048,64.054Z"/><path d="M79.222,61.966c-.17-3.72-4.86-6.57-13.94-8.46-.27.29-5.41,5.64-5.78,6.04.619.025,1.328,1.146,1.58,1.482a1,1,0,0,0,1.4.2,4.38,4.38,0,0,1,3.734-.328,2.755,2.755,0,0,1,1.757,1.969,1.056,1.056,0,0,0,1.668.513,2.981,2.981,0,0,1,2.889.092,4.026,4.026,0,0,1,1.923,1.713c-4.126,2.471-12.271,4.435-22.056,5.289-3.763.328-7.643.494-11.534.494-14.524,0-27.665-2.276-33.485-5.728.588-.754,2.16-2.292,3.651-2.067a7.323,7.323,0,0,0,4.727-.547c.528-.344,1.118-.175,2.007.515a1,1,0,0,0,1.225-1.581,4.578,4.578,0,0,0-1.94-.944A2.859,2.859,0,0,1,18.5,59.5a5.353,5.353,0,0,1,4.593.822.993.993,0,0,0,1.485-.328A4.692,4.692,0,0,1,27.8,57.425a3.424,3.424,0,0,1,2.863.691,2.5,2.5,0,0,1,.783,1.15,1,1,0,1,0,1.9-.632A4.533,4.533,0,0,0,32.7,57.4a5.044,5.044,0,0,1,5.854-.5,1.056,1.056,0,0,0,.675.127,1.106,1.106,0,0,0,.376-.227,5.256,5.256,0,0,1,3.182-1.109,3.986,3.986,0,0,1,2.945,1.252.9.9,0,0,0,.991.3,4.729,4.729,0,0,1,2.621.079.99.99,0,0,0,.341.061c.377,0,1.425-.225,1.626-.054.77-1.01,3.85-5.2,4.01-5.43a112.076,112.076,0,0,0-12.5-.76c-.63-.01-1.29-.01-1.96-.01-18.171,0-37.541,3.708-38.295,10.584a2.939,2.939,0,0,0-.052.473c.092,21.372,17.654,39.222,38.347,39.222S79.13,83.419,79.223,62.126C79.223,62.126,79.223,61.974,79.222,61.966Z"/></svg>