<svg id="Solid" xmlns="http://www.w3.org/2000/svg" viewBox="0 0 128 128"><title>food, cart, restaurant, fastfood, eat, urban, shop, store</title><path d="M34.791,103.108A10.294,10.294,0,1,0,45.084,113.4,10.293,10.293,0,0,0,34.791,103.108Zm0,13.585a3.291,3.291,0,1,1,3.291-3.291A3.291,3.291,0,0,1,34.791,116.693Z"/><circle cx="99.867" cy="117.14" r="6.579"/><path d="M106.77,46.761a10.986,10.986,0,0,1-8.55-4.04A10.874,10.874,0,0,1,96,44.768V80.3H32V44.768a10.874,10.874,0,0,1-2.22-2.047,10.986,10.986,0,0,1-8.55,4.04c-.3,0-.61-.01-.91-.04a10.2,10.2,0,0,1-3.72-1.03v58.8a13.753,13.753,0,0,0,5.63,11.33,12.79,12.79,0,1,1,25.35-2.42,12.689,12.689,0,0,1-.8,4.46H90.82q-.03-.36-.03-.72a9.078,9.078,0,0,1,17.43-3.56,14.292,14.292,0,0,0,3.18-9.09v-58.8a10.2,10.2,0,0,1-3.72,1.03C107.38,46.751,107.07,46.761,106.77,46.761ZM96.635,87.611H31.365a2.407,2.407,0,1,1,0-4.814h65.27a2.407,2.407,0,0,1,0,4.814Z"/><path d="M114.035,32.724,109.36,22.062a4.345,4.345,0,0,0-3.98-2.6H22.62a4.345,4.345,0,0,0-3.98,2.6L13.965,32.724c-2.221,5.065,1.048,11.06,6.561,11.508.231.018.466.028.7.028a8.565,8.565,0,0,0,7.658-4.724,1,1,0,0,1,1.806,0A8.479,8.479,0,0,0,38.3,44.26a8.565,8.565,0,0,0,7.664-4.736,1,1,0,0,1,1.8,0,8.568,8.568,0,0,0,15.327,0,1,1,0,0,1,1.8,0,8.568,8.568,0,0,0,15.327,0,1,1,0,0,1,1.8,0A8.565,8.565,0,0,0,89.7,44.26a8.479,8.479,0,0,0,7.611-4.72,1,1,0,0,1,1.806,0,8.565,8.565,0,0,0,7.658,4.724c.236,0,.471-.01.7-.028C112.987,43.784,116.256,37.789,114.035,32.724Z"/></svg>