<svg id="Solid" xmlns="http://www.w3.org/2000/svg" viewBox="0 0 128 128"><title>healthcare, medical, hospital, xray, scan, body, bones</title><path d="M29.131,61.9c-1.821,1.717-5.008,4.7-7.591,6.977V97.849a8.847,8.847,0,0,0,8.837,8.837h.02c.6-5.664,1.263-12.908,1.26-16.855C31.652,83.743,29.8,67.545,29.131,61.9Z"/><path d="M46.305,24.829a9.409,9.409,0,0,0,4.166-3.223H30.377a8.847,8.847,0,0,0-8.837,8.837V38.7c8.946-7.643,16.6-10.656,24.08-13.6Z"/><path d="M96.356,89.831c0,3.947.676,11.192,1.281,16.855h.146a8.847,8.847,0,0,0,8.837-8.837V69.006c-2.608-2.3-5.882-5.356-7.738-7.106C98.214,67.545,96.361,83.743,96.356,89.831Z"/><path d="M32.2,108.686c-.121,1.109-.234,2.124-.334,3a2,2,0,0,0,1.987,2.224h60.34a2,2,0,0,0,1.987-2.227c-.1-.876-.217-1.89-.339-3Z"/><path d="M70.726,12.2H57.286a2,2,0,0,0-1.977,1.734,23.149,23.149,0,0,1-1.447,5.676H74.15A23.183,23.183,0,0,1,72.7,13.93,2,2,0,0,0,70.726,12.2Z"/><path d="M108.62,43.35V68.1c.756.655,3.063,2.4,3.813,2.872a2,2,0,0,0,3.036-1.339l2.639-14.739a2.022,2.022,0,0,0-.421-1.625A109.35,109.35,0,0,0,108.62,43.35Z"/><path d="M97.783,21.606H77.541a9.414,9.414,0,0,0,4.166,3.223l.685.27c7.521,2.956,15.219,5.984,24.228,13.721V30.443A8.847,8.847,0,0,0,97.783,21.606Z"/><path d="M80.974,26.691a11.571,11.571,0,0,1-5.838-5.085H52.876a11.575,11.575,0,0,1-5.839,5.085l-.686.27c-7.663,3.012-15.514,6.1-24.811,14.4V66.195c3.538-3.189,7.6-7.056,7.657-7.112a1,1,0,0,1,1.682.6c.113.921,2.772,22.634,2.778,30.145,0,4.027-.653,11.2-1.246,16.857H95.622c-.6-5.662-1.269-12.83-1.266-16.857.006-7.511,2.664-29.224,2.777-30.145a1,1,0,0,1,1.683-.6c.06.057,4.232,4.03,7.8,7.244V41.491c-9.362-8.4-17.255-11.5-24.959-14.531ZM58.06,34.578a2,2,0,0,1,1.973,1.67,7.024,7.024,0,0,0,2,1.008V32.072a2,2,0,1,1,4,0v5.182a7.076,7.076,0,0,0,2-1.006,2,2,0,0,1,3.973.33c0,2.647-3.254,4.13-5.973,4.909V73.071a2,2,0,1,1-4,0V41.487c-2.72-.779-5.974-2.262-5.974-4.909A2,2,0,0,1,58.06,34.578ZM46.616,38.65a2,2,0,0,1,3.571,1.8c.229.521,2.333,2.283,9.382,2.649a2,2,0,0,1-.1,4q-.052,0-.1,0c-8.519-.443-11.576-2.772-12.639-4.649A3.883,3.883,0,0,1,46.616,38.65Zm-3.9,5.169a2,2,0,0,1,3.533,1.875c-.309.583-.139.863-.067.983.272.451,2.169,2.7,13.3,2.662h.007a2,2,0,0,1,.007,4h-.3c-9.194,0-14.571-1.5-16.437-4.6A4.9,4.9,0,0,1,42.714,43.819ZM41.625,51.4a2,2,0,0,1,3.533,1.874c-.355.67-.154,1-.068,1.145.293.485,2.323,2.889,14.12,2.861h.007a2,2,0,0,1,.007,4h-.317c-9.653,0-15.294-1.569-17.241-4.793A5.057,5.057,0,0,1,41.625,51.4ZM35.218,61.822a3.924,3.924,0,0,1-.443-4.047,2,2,0,0,1,3.655,1.613c.447,1.47,6.519,6.314,20.955,5.728a2,2,0,0,1,.161,4q-1.258.051-2.461.05C45.258,69.163,37.63,65.582,35.218,61.822ZM59.355,89.3c-6.777,5.757-11.635,7.335-14.923,7.335a8.085,8.085,0,0,1-4.071-1.006c-3.079-1.761-4.374-5.484-3.551-10.214a2,2,0,0,1,3.941.686c-.517,2.973.064,5.18,1.595,6.055,2.157,1.234,7.077.331,14.419-5.905a2,2,0,0,1,2.59,3.049Zm.491-7.3A25.512,25.512,0,0,1,48.6,84.828a17.667,17.667,0,0,1-5.749-.913,9.46,9.46,0,0,1-5.62-4.358,2,2,0,0,1,3.608-1.729,5.649,5.649,0,0,0,3.31,2.3c1.866.64,6.96,1.758,13.914-1.709A2,2,0,1,1,59.846,82Zm-.164-7.057a27.745,27.745,0,0,1-9.938,2c-4.638,0-8.333-1.521-9.711-4.4a2,2,0,0,1,3.607-1.729c1.028,2.145,7.072,3.333,14.585.394a2,2,0,0,1,1.457,3.726Zm4.911,18.678H63.257a1.845,1.845,0,0,1,0-3.69h1.336a1.845,1.845,0,1,1,0,3.69Zm.081-6.432H63.338a1.846,1.846,0,0,1,0-3.691h1.336a1.846,1.846,0,1,1,0,3.691Zm.081-6.432H63.419a1.846,1.846,0,0,1,0-3.691h1.336a1.846,1.846,0,1,1,0,3.691Zm2.514-1.44a2,2,0,0,1,2.683-.9C76.9,81.89,82,80.774,83.865,80.132a5.653,5.653,0,0,0,3.311-2.3,2,2,0,1,1,3.607,1.729,9.46,9.46,0,0,1-5.619,4.358,17.68,17.68,0,0,1-5.749.913A25.516,25.516,0,0,1,68.166,82,2,2,0,0,1,67.269,79.32ZM67.2,72.354a2,2,0,0,1,2.591-1.134c7.512,2.939,13.558,1.751,14.585-.394a2,2,0,0,1,3.608,1.729c-1.378,2.875-5.074,4.4-9.712,4.4a27.749,27.749,0,0,1-9.938-2A2,2,0,0,1,67.2,72.354ZM87.652,95.627a8.09,8.09,0,0,1-4.072,1.006c-3.288,0-8.144-1.577-14.923-7.335a2,2,0,0,1,2.59-3.049c7.34,6.236,12.261,7.14,14.419,5.905,1.531-.875,2.112-3.082,1.595-6.055a2,2,0,0,1,3.941-.686C92.025,90.143,90.731,93.866,87.652,95.627Zm2.9-38.729a2,2,0,0,1,2.689.877,3.923,3.923,0,0,1-.442,4.047c-2.413,3.759-10.041,7.341-21.868,7.341q-1.2,0-2.461-.05a2,2,0,0,1,.161-4c14.427.588,20.508-4.258,20.956-5.728A2,2,0,0,1,90.548,56.9Zm-4.16-5.5a5.062,5.062,0,0,1-.041,5.087c-1.948,3.224-7.59,4.793-17.241,4.793h-.318a2,2,0,0,1,.007-4c.1-.01.2,0,.3,0,11.508,0,13.533-2.38,13.824-2.861.085-.142.286-.475-.069-1.145A2,2,0,0,1,86.388,51.4ZM82.635,42.99a2,2,0,0,1,2.7.829,4.9,4.9,0,0,1-.042,4.926c-1.866,3.091-7.244,4.6-16.436,4.6h-.3a2,2,0,0,1,.007-4c.1-.006.2,0,.292,0,10.854,0,12.744-2.216,13.014-2.663.072-.12.242-.4-.067-.983A2,2,0,0,1,82.635,42.99Zm-1.346-.544C80.226,44.323,77.17,46.652,68.65,47.1q-.053,0-.105,0a2,2,0,0,1-.1-4c7.049-.366,9.153-2.128,9.383-2.649a2,2,0,0,1,3.57-1.8A3.88,3.88,0,0,1,81.289,42.446Z"/><path d="M9.9,54.891,12.544,69.63a2,2,0,0,0,3.036,1.339c.75-.475,3.142-2.288,3.96-3V43.209a108.688,108.688,0,0,0-9.214,10.056A2.023,2.023,0,0,0,9.9,54.891Z"/></svg>