<svg id="Solid" xmlns="http://www.w3.org/2000/svg" viewBox="0 0 128 128"><title>healthcare, medical, hospital, pen, board, clip, notes</title><path d="M92.505,37.781,89.562,18.15a5.865,5.865,0,0,0-4.717-4.888l4.9,32.677Z"/><path d="M30.48,26.075a3.58,3.58,0,0,0,2.67.665l37.385-5.6a3.6,3.6,0,0,0,3.024-4.09l-.392-2.613a.752.752,0,0,0-.741-.639.856.856,0,0,0-.112.008L29.3,20.25a.751.751,0,0,0-.631.854l.392,2.612A3.572,3.572,0,0,0,30.48,26.075Z"/><path d="M95.792,75.913a1.008,1.008,0,0,1-.283.427l-1.066.947L97.188,95.6a1,1,0,0,1-.84,1.138s-65.807,9.853-65.856,9.853a1,1,0,0,1-.988-.852L17.163,23.421a5.786,5.786,0,0,0-3.08,6.036L26.139,109.88A5.87,5.87,0,0,0,32.8,114.8l63.9-9.571a5.855,5.855,0,0,0,4.924-6.66L97.476,70.94Z"/><path d="M92.657,78.873l-4.9,4.351c-.52.461-2.058,1.081-2.729.747-1.127.169-3.733.47-3.733.47a1.283,1.283,0,0,1-1.458-1.078h0a1.347,1.347,0,0,1,1.078-1.458h0l2.261-.339L81.226,71.507A.99.99,0,0,1,81.26,71L88.341,50.08,82.818,13.239l-7.636,1.143.355,2.372a5.6,5.6,0,0,1-4.705,6.363s-37.947,5.664-38.226,5.664a5.6,5.6,0,0,1-5.522-4.769l-.356-2.371-7.637,1.143,12.243,81.673,63.728-9.546ZM49.78,37.691l.564-.085a.715.715,0,0,0,.6-.812l-.085-.564a3.315,3.315,0,0,1,2.786-3.766l2.267-.34a3.317,3.317,0,0,1,3.768,2.785l.085.567a.716.716,0,0,0,.812.6l.568-.085a3.316,3.316,0,0,1,3.768,2.785l.339,2.262a3.317,3.317,0,0,1-2.786,3.767l-.567.085a.715.715,0,0,0-.6.812l.085.567A3.317,3.317,0,0,1,58.6,50.037l-2.266.339a3.317,3.317,0,0,1-3.769-2.785l-.084-.563a.716.716,0,0,0-.813-.6l-.563.085a3.319,3.319,0,0,1-3.769-2.785l-.34-2.27A3.315,3.315,0,0,1,49.78,37.691ZM43.222,59.385h0l37.238-5.578h0a1.278,1.278,0,0,1,1.458,1.078,1.243,1.243,0,0,1-1.078,1.458h0L43.6,61.921h0a1.238,1.238,0,0,1-1.45-1.032A1.353,1.353,0,0,1,43.222,59.385ZM33.9,71.467a1.312,1.312,0,0,1,1.078-1.458h0l12.977-1.944,33.7-5.048A1.28,1.28,0,0,1,83.114,64.1h0a1.232,1.232,0,0,1-.107.679,1.263,1.263,0,0,1-.971.779h0L69.059,67.5l-33.7,5.049A1.273,1.273,0,0,1,33.9,71.467ZM76.411,83.876a1.307,1.307,0,0,1-.162.8,1.265,1.265,0,0,1-.916.663l-14.31,2.144L37.749,90.964a1.213,1.213,0,0,1-1.459-1,1.37,1.37,0,0,1,1.079-1.532h0L49.9,86.552,74.954,82.8a1.282,1.282,0,0,1,1.457,1.078Zm3.258-8.58h0L43.027,80.785l-6.519.976a1.235,1.235,0,0,1-1.4-1.038l-.014-.093a1.234,1.234,0,0,1,1.038-1.405l.047-.007h0L79.289,72.76l.046-.007a1.236,1.236,0,0,1,1.405,1.038l.014.094a1.235,1.235,0,0,1-1.039,1.4Z"/><path d="M113.609,27.116l-5.42,16.03a1.333,1.333,0,0,1-1.69.84s-1.16-.36-1.28-.35a.987.987,0,0,0-.88.67L93.979,74.9l-7.55,6.71a.758.758,0,0,1-.76.15.775.775,0,0,1-.51-.58l-1.92-9.92,17.54-51.8a4.037,4.037,0,0,1,5.11-2.53l3.22,1.09a7.169,7.169,0,0,1,4.5,9.1Z"/></svg>