<svg id="Solid" xmlns="http://www.w3.org/2000/svg" viewBox="0 0 128 128"><title>healthcare, medical, mental, heart, checking, echo, magnifying glass</title><path d="M21.866,80.5c.53.68,1.08,1.34,1.65,2H4.036a1,1,0,0,1,0-2Z"/><path d="M95.1,91.6a18.676,18.676,0,0,0,5.23-5.68,19.6,19.6,0,0,0,1.67-3.41,17.877,17.877,0,0,0,.69-2.1,20.312,20.312,0,0,0-19.68-25.48,20.325,20.325,0,0,0-20.24,19.09,19.679,19.679,0,0,0,.18,4.12v.01a20.087,20.087,0,0,0,1.88,6.08,20.344,20.344,0,0,0,19.74,11.26,19.069,19.069,0,0,0,4.03-.7A25.829,25.829,0,0,0,95.1,91.6ZM75.7,60.364a16.6,16.6,0,0,1,23.5,18.69v0L97.3,76.286a4.236,4.236,0,0,0-7.252.422L86.7,83.1a1.637,1.637,0,0,1-1.432.888,1.66,1.66,0,0,1-1.47-.824l-4.613-7.934a3.463,3.463,0,0,0-3.025-1.741h0a3.464,3.464,0,0,0-3.026,1.745.876.876,0,0,1-.84.458.9.9,0,0,1-.792-.537l-3.319-7.267,0-.007A16.472,16.472,0,0,1,75.7,60.364Zm7.37,31.47a16.608,16.608,0,0,1-14.9-9.24,16.423,16.423,0,0,1-1.232-11.23l2.221,4.865a3.5,3.5,0,0,0,6.211.3.9.9,0,0,1,.8-.459h0a.907.907,0,0,1,.8.458l4.613,7.935a4.18,4.18,0,0,0,3.657,2.108l.1,0A4.179,4.179,0,0,0,88.985,84.3l3.35-6.395a1.625,1.625,0,0,1,1.374-.886,1.647,1.647,0,0,1,1.465.72l2.983,4.374h0c-.07.13-.13.27-.2.4a16.574,16.574,0,0,1-14.89,9.32Z"/><path d="M95.326,93.864a21.648,21.648,0,0,1-4.98,2.46l8.07,16.34a2.748,2.748,0,0,0,1.59,1.4,2.829,2.829,0,0,0,2.12-.14,2.774,2.774,0,0,0,1.26-3.72Z"/><path d="M63.036,85.124a21.436,21.436,0,0,1-1.53-4.1h0l-.358.717a3.305,3.305,0,0,1-2.985,1.849c-.043,0-.085,0-.128,0a3.311,3.311,0,0,1-2.971-2.068l-10.582-25.7a1.321,1.321,0,0,0-1.154-.83,1.3,1.3,0,0,0-1.253.67L27.552,80.832a3.358,3.358,0,0,1-1.606,1.412h0c7.78,8.57,19.16,15.92,33.47,21.45a11.166,11.166,0,0,0,8.2,0,112.463,112.463,0,0,0,13.51-6.23A22.309,22.309,0,0,1,63.036,85.124Z"/><path d="M43.46,52.994a3.325,3.325,0,0,1,2.872,2.064l10.582,25.7a1.312,1.312,0,0,0,1.194.831,1.349,1.349,0,0,0,1.251-.742l1.518-3.037v-.015a22.316,22.316,0,1,1,44.49-2.56c0,.58-.02,1.17-.07,1.75a43,43,0,0,0,5.99-12.06,33.054,33.054,0,0,0-4.37-29.09c-4.68-6.75-14.71-11.07-24.39-10.48-4.81.29-13.57,2.07-18.12,10.72a1.047,1.047,0,0,1-1.77,0c-4.56-8.65-13.31-10.43-18.13-10.72-.58-.03-1.17-.05-1.76-.05-9.12,0-18.23,4.19-22.63,10.53a33.085,33.085,0,0,0-4.37,29.09,45.023,45.023,0,0,0,8.68,15.58h.229a1.347,1.347,0,0,0,1.164-.673L40.342,54.659A3.324,3.324,0,0,1,43.46,52.994Z"/><path d="M118.576,80.5l-13.42.01c-.52.68-1.07,1.34-1.65,2l15.07-.01a1,1,0,0,0,0-2Z"/><path d="M123.981,80.505h-1.27a1,1,0,0,0,0,2h1.27a1,1,0,0,0,0-2Z"/></svg>