<svg id="Solid" xmlns="http://www.w3.org/2000/svg" viewBox="0 0 128 128"><title>home, house, building, construction, estate, residence, urban</title><path d="M126.018,124.6H119.71V92.551H39.85V124.6H10.625V102.428L37,84.682v3.364a2,2,0,0,0,2,2h81.549a2,2,0,0,0,2-2v-8.9a4.414,4.414,0,0,0,2.655-5.009,6.634,6.634,0,0,0-4.241-4.842V60.971L80.81,33.4a1.848,1.848,0,0,0-1.04-.32,1.805,1.805,0,0,0-1.02.31L38.6,60.961v8.36a6.733,6.733,0,0,0-4.356,4.915,4.366,4.366,0,0,0,2.42,4.868L3.337,101.856a2.43,2.43,0,0,0-1.024,1.452,2.305,2.305,0,0,0,3.575,2.308l.8-.54V124.6H2.246a1.25,1.25,0,1,0,0,2.5H126.018a1.25,1.25,0,0,0,0-2.5ZM98.29,58.111a1.92,1.92,0,0,1,1.92-1.92h3.94a1.92,1.92,0,0,1,1.92,1.92v3.94a1.92,1.92,0,0,1-1.92,1.92h-3.94a1.92,1.92,0,0,1-1.92-1.92ZM97.072,71.77c1.23-.017,3.37,2.072,4.027-.455a3.181,3.181,0,0,1,3.587-2.682c1.367.323,1.757,2.684,3.389,1.94,1.92-.876,4.077-5.459,7.475-4.266,4.238,1.487-.1,5.534,2.581,5.167a3.8,3.8,0,0,1,4.244,2.112,3.293,3.293,0,0,1,.194,2.371,2.116,2.116,0,0,1-1.155.967H121.4a1.975,1.975,0,0,0-.855-.2H92.588C94.829,76.725,94.286,71.808,97.072,71.77ZM70.12,60.331a9.65,9.65,0,0,1,19.3,0v16.39H70.12Zm-16.65-2.22a1.92,1.92,0,0,1,1.92-1.92h3.94a1.92,1.92,0,0,1,1.92,1.92v3.94a1.92,1.92,0,0,1-1.92,1.92H55.39a1.92,1.92,0,0,1-1.92-1.92ZM38.6,72.061a3.854,3.854,0,0,1,.611-.316,8.447,8.447,0,0,1,2.2-.271c2.671.453-1.658-3.68,2.581-5.167,3.4-1.193,5.554,3.39,7.475,4.266,1.631.744,2.022-1.617,3.388-1.94a3.18,3.18,0,0,1,3.587,2.682c.658,2.527,2.8.438,4.027.455,2.786.038,2.621,4.955,4.862,4.955H39a1.98,1.98,0,0,0-.978.266H38C35.772,76.154,36.575,73.339,38.6,72.061ZM100.307,98.85a1,1,0,0,1,1-1h7.648a1,1,0,0,1,1,1v13.043a1,1,0,0,1-1,1h-7.648a1,1,0,0,1-1-1Zm-18.418,0a1,1,0,0,1,1-1h7.647a1,1,0,0,1,1,1v13.043a1,1,0,0,1-1,1H82.889a1,1,0,0,1-1-1Zm-32.452,9.044a9.651,9.651,0,1,1,19.3,0V124.6h-19.3Z"/><path d="M36.41,58.071H38.6l38.73-26.74a4.36,4.36,0,0,1,4.89,0l38.74,26.74h2.18a4.135,4.135,0,0,0,2.32-7.55L82.92,21.6a5.576,5.576,0,0,0-6.3,0L34.09,50.521a4.131,4.131,0,0,0,2.32,7.55Z"/></svg>