<svg id="Solid" xmlns="http://www.w3.org/2000/svg" viewBox="0 0 128 128"><title>home, building, construction, city, house, loan, estate</title><path d="M126.22,81.161,91.51,44.131a6.25,6.25,0,0,0-4.56-1.98H39.6a4.245,4.245,0,0,0-3.12,1.36L2.76,79.831a3.247,3.247,0,0,0,2.38,5.46H7.51l31.36-33.68a1,1,0,0,1,1.46.01l.23.25,30.86,33.37,53,.06a2.46,2.46,0,0,0,1.8-4.14Z"/><path d="M124,124.611h-2.75V87.8H71.33v36.81H68.878l-.048-37.95L39.59,54.5,7.51,88.961v35.65H4a1.25,1.25,0,1,0,0,2.5H124a1.25,1.25,0,0,0,0-2.5Zm-20.781-28.15a1.92,1.92,0,0,1,1.92-1.919h3.941A1.92,1.92,0,0,1,111,96.461v18.021a1.92,1.92,0,0,1-1.92,1.92h-3.941a1.92,1.92,0,0,1-1.92-1.92Zm-18.4,0a1.92,1.92,0,0,1,1.92-1.919h3.941a1.919,1.919,0,0,1,1.92,1.919v18.021a1.919,1.919,0,0,1-1.92,1.92H86.738a1.92,1.92,0,0,1-1.92-1.92Zm-29.567,0a1.92,1.92,0,0,1,1.92-1.919h3.941a1.92,1.92,0,0,1,1.92,1.919v18.021a1.92,1.92,0,0,1-1.92,1.92H57.171a1.92,1.92,0,0,1-1.92-1.92ZM39.6,68.069A7.232,7.232,0,1,1,32.365,75.3,7.232,7.232,0,0,1,39.6,68.069ZM15.168,96.461a1.919,1.919,0,0,1,1.92-1.919h3.94a1.919,1.919,0,0,1,1.92,1.919v18.021a1.919,1.919,0,0,1-1.92,1.92h-3.94a1.919,1.919,0,0,1-1.92-1.92Zm14.281,3.63a9.651,9.651,0,0,1,19.3,0v24.52h-19.3Z"/></svg>