<svg id="Solid" xmlns="http://www.w3.org/2000/svg" viewBox="0 0 128 128"><title>hospital, medical, healthcare, nurse, public relations, counter, megaphone</title><path d="M82.572,37.5c1.376.675,2.683,1.176,3.045,2.665a8.654,8.654,0,0,1,.123,1.687v5.493a2.643,2.643,0,0,0,1.368,2.315h0a2.643,2.643,0,0,0,3.919-2.315l-.017-3.527A2.41,2.41,0,0,1,94.1,41.494l6.919,2.025c-1.1-2.556-1.174-7.728-1.174-9.032,0-1.842.109-6.81,1.2-9.182-3.014.611-10.017,2.037-14.417,2.993a20.724,20.724,0,0,0,.238,6.561,1,1,0,0,1-.742,1.2,1.034,1.034,0,0,1-.232.027,1,1,0,0,1-.972-.769,18.292,18.292,0,0,1-.345-6.565c-.746.171-1.3.306-1.575.389-2.257.683-3.475,1.244-3.475,4.325C79.527,35.449,81.155,36.806,82.572,37.5Z"/><path d="M102.7,43.669c.8,0,1.943-4.11,1.943-9.181s-1.181-9.182-1.977-9.182-1.614,4.111-1.614,9.182S101.9,43.669,102.7,43.669Z"/><path d="M108.961,34.161a1.04,1.04,0,0,0,1.125.355c1.029-.316,2.861-.969,3.174-1.664.3-.679-.689-2.437-1.5-2.576-.55-.089-2.1,1.163-3.035,1.975a1.044,1.044,0,0,0-.135,1.44Z"/><path d="M109.867,38.017a.894.894,0,0,0-1.022.681l-.11.495a.9.9,0,0,0,.371.94c.761.5,2.173,1.357,2.8,1.193a2.228,2.228,0,0,0,.885-2.371C112.564,38.543,110.9,38.2,109.867,38.017Z"/><path d="M75.875,83.8H90.254l1.388-8.36a2.8,2.8,0,0,1,2.663-2.461h5.44a2.564,2.564,0,0,1,1.971.94,3.234,3.234,0,0,1,.693,2.593L101.2,83.8h11.569a2.065,2.065,0,0,0,2.121-1.556l3.81-22.007a1.946,1.946,0,0,0-2.121-2.085H79.685a2.063,2.063,0,0,0-2.121,1.556L73.753,81.719A1.947,1.947,0,0,0,75.875,83.8Z"/><path d="M123.006,88.8H98.341l2.1-12.612a1.216,1.216,0,0,0-.244-.972.6.6,0,0,0-.447-.236h-5.44c-.321,0-.617.338-.69.786L91.452,88.8H70.077c-.063-.542-.679-6.477-.96-7.943.51-.373.991-.723,1.406-1a1,1,0,0,0,.413-1.059C68.7,69.37,63.813,63.367,59.954,60.943a5.256,5.256,0,0,0-1.058-.472,7.994,7.994,0,0,0,4.04-1.29,5.858,5.858,0,0,0,2.62-4.99,5.208,5.208,0,0,0-2.86-4.51,2.926,2.926,0,0,0-3.27-.06,8.807,8.807,0,0,1-3.187.83,14.218,14.218,0,0,0,2.9-4.405,4.415,4.415,0,0,0,.523.046,5.683,5.683,0,0,0,5.017-3.652,5.158,5.158,0,0,0,.011-4,3.772,3.772,0,0,0-1.008-1.3,15.828,15.828,0,0,0,1.551-7.725c0-7.7-4.348-14.791-10.338-16.86a6.452,6.452,0,0,1-1.686-.908A13.068,13.068,0,0,0,45.649,9.3c-10.48,0-19.334,9.209-19.334,20.11a17.271,17.271,0,0,0,1.521,7.5,3.768,3.768,0,0,0-1.327,1.533,5.158,5.158,0,0,0,.011,4,5.882,5.882,0,0,0,2.562,2.992,4.894,4.894,0,0,0,2.426.673,4.318,4.318,0,0,0,.556-.05,15.233,15.233,0,0,0,8.277,8.061c-.237,2.616-.662,3.681-.8,3.832a40.2,40.2,0,0,0-8.154,2.995C27.529,63.37,22.641,69.37,20.4,78.8a1,1,0,0,0,.412,1.059c.416.281.9.631,1.407,1-.281,1.466-.9,7.4-.96,7.943H5.006a2,2,0,0,0-2,2v7.755a2,2,0,0,0,2,2h118a2,2,0,0,0,2-2V90.8A2,2,0,0,0,123.006,88.8Zm-93.325,0H23.276c.057-.509.548-5.233.755-6.631a19.883,19.883,0,0,0,5.928,3.21C30,85.817,29.681,88.8,29.681,88.8ZM33.61,44.554a14.087,14.087,0,0,1-.669-3.06,1,1,0,0,0-1.989.211,16.053,16.053,0,0,0,.45,2.381,2.93,2.93,0,0,1-1.33-.392,3.855,3.855,0,0,1-1.68-1.958,3.206,3.206,0,0,1-.071-2.449,1.914,1.914,0,0,1,1.154-1,3.994,3.994,0,0,1,1.891-.084A1.353,1.353,0,0,0,32.74,36.65a1.16,1.16,0,0,0,1.095.17,12.1,12.1,0,0,0,4.653-4.536,5.267,5.267,0,0,1,1.946.144,1,1,0,0,0,.594-1.91,6.829,6.829,0,0,0-1.33-.234c.551-.977,1.08-1.988,1.6-2.992,1.665-3.19,3.386-6.488,5.272-6.953a2.849,2.849,0,0,1,2.3.638,3.027,3.027,0,0,0,1.553.536c3.676.2,4.093,2.356,4.563,6.478.118,1.028.245,2.109.468,3.179a6.43,6.43,0,0,0-5.162-.653,1,1,0,0,0,.594,1.91c.814-.254,2.715-.359,3.623.529a1,1,0,0,0,1.414-.015c.005-.005.006-.011.01-.015a8.848,8.848,0,0,0,1.619,2.9,1.779,1.779,0,0,0,1.436.651.988.988,0,0,0-.337.937,1,1,0,0,0,1.175.788,4.02,4.02,0,0,1,1.891.084,1.914,1.914,0,0,1,1.154,1,3.206,3.206,0,0,1-.071,2.449A3.655,3.655,0,0,1,59.8,44.072a16.019,16.019,0,0,0,.447-2.367,1,1,0,0,0-1.99-.211,19.386,19.386,0,0,1-.7,3.146,13.65,13.65,0,0,1-11.952,8.7,13.779,13.779,0,0,1-4.171-.906A13.981,13.981,0,0,1,33.61,44.554ZM45.666,68.281a.938.938,0,0,1-.48-.13c-.26-.14-5.9-3.33-7.71-7.35,0,0,1.677-.581,2.753-.976.753-.275,1.641-1.128,2.055-5.017a12.428,12.428,0,0,0,3.313.53,12.636,12.636,0,0,0,3.455-.574c.412,3.926,1.3,4.785,2.059,5.061,1.057.388,2.906,1.02,2.755.976-1.81,4.02-7.45,7.21-7.71,7.35A.947.947,0,0,1,45.666,68.281Zm11.6,6.5a1.437,1.437,0,0,1-1.429,1.43H51.361a1.428,1.428,0,0,1-1.419-1.43V72.794a1.427,1.427,0,0,1,1.419-1.429h4.477a1.436,1.436,0,0,1,1.429,1.429ZM61.658,88.8s-.317-2.977-.276-3.421a19.924,19.924,0,0,0,5.927-3.21c.207,1.4.405,3.3.563,4.823.071.687.135,1.3.192,1.808Z"/><path d="M6.563,116.8a2,2,0,0,0,2,2H119.45a2,2,0,0,0,2-2V102.559H6.563Z"/><path d="M47.719,45.569a2.071,2.071,0,0,0-.088-1.269c-.073-.145-.183-.363-.435-.253a3.3,3.3,0,0,1-2.736.022.331.331,0,0,0-.382.235,2.421,2.421,0,0,0,.388,1.945C45.247,47.121,47.408,47.152,47.719,45.569Z"/><path d="M52.177,39.087a1.2,1.2,0,0,0,1.2-1.2V36.368a1.2,1.2,0,0,0-2.4,0v1.519A1.2,1.2,0,0,0,52.177,39.087Z"/><path d="M39.147,35.177a1.2,1.2,0,0,0-1.2,1.191v1.519a1.2,1.2,0,0,0,2.4,0V36.368A1.2,1.2,0,0,0,39.147,35.177Z"/></svg>