<svg id="Solid" xmlns="http://www.w3.org/2000/svg" viewBox="0 0 128 128"><title>lighthouse, hill, vision, building, construction, beacon, light</title><path d="M75.23,12.141l-8.97-5.12a4.023,4.023,0,0,0-1.01-.47V2.121a1.25,1.25,0,1,0-2.5,0v4.43a3.417,3.417,0,0,0-.95.44l-9.08,5.18c-2.1,1.35-3.44,6.94-2.98,8.5a1.425,1.425,0,0,0,1.21,1.08h26.1a1.425,1.425,0,0,0,1.21-1.08C78.72,19.111,77.38,13.521,75.23,12.141Z"/><path d="M51.11,50.711H76.89a5,5,0,0,0,5-5v-6.49a1.993,1.993,0,0,0-2-2H48.11a1.993,1.993,0,0,0-2,2v6.49A5,5,0,0,0,51.11,50.711Z"/><path d="M116.835,124.338H113.46c-5.379,0-10.056-2.416-15.471-5.214a91.041,91.041,0,0,0-13.25-5.893L81.718,77.312H46.282l-3.021,35.919a91.041,91.041,0,0,0-13.25,5.893c-5.415,2.8-10.092,5.214-15.471,5.214H11.165a1.25,1.25,0,1,0,0,2.5h105.67a1.25,1.25,0,1,0,0-2.5ZM60.864,99.54a3.083,3.083,0,0,1,3.083-3.083h.106a3.083,3.083,0,0,1,3.083,3.083v10.517c-1.019-.043-2.062-.067-3.136-.067s-2.117.024-3.136.067Z"/><path d="M81.507,74.812l-1.817-21.6H48.31l-1.817,21.6H60.864V64.246a3.083,3.083,0,0,1,3.083-3.083h.106a3.083,3.083,0,0,1,3.083,3.083V74.812Z"/><path d="M60.9,30.444a3.083,3.083,0,0,1,3.083-3.083h.106a3.083,3.083,0,0,1,3.084,3.083v4.277H78.138l-.878-10.47H50.74l-.878,10.47H60.9Z"/></svg>