<svg id="Solid" xmlns="http://www.w3.org/2000/svg" viewBox="0 0 128 128"><title>mental health, disorder, mental illness, depression, stress, trauma, PTSD</title><path d="M92.547,103.812c-.25-3.93.94-9.35,3.34-12.47,9.58-12.43,13.83-23.21,11.83-36.47-1.52-10.01-5.63-17.84-11.71-23.43a8.15,8.15,0,0,1-2.5,2.16c-3.82,2.19-9.82,2.25-14.16.26a15.456,15.456,0,0,1-5.6,4.474,1.892,1.892,0,0,1,.388,1.049,1.852,1.852,0,0,1-.51,1.382C71.186,43.37,63.779,52.1,63.7,52.192a.606.606,0,0,1-.06.064,1.011,1.011,0,0,1-1.6-1.176c.224-.531,3.266-7.728,4.458-10.01a.34.34,0,0,0-.082-.41l-1.237-1.107a16.948,16.948,0,0,1-10.686-5.7c-4.34,2-10.34,1.94-14.17-.25a7.894,7.894,0,0,1-2.97-2.87c-7.02,6.02-11.29,14.41-10.99,24.05.08,2.69.55,6.63.54,9.21-.02,9.17-7.95,12.93-8.1,15.85-.25,4.79,5.37,3.29,7.36,10.07,2.51,8.6-1.1,18.41,10.62,17.8,4.68-.19,12.28-2,15.54,1.02,2.08,1.94,3.75,10.36,4.4,14.09a2.157,2.157,0,0,0,2.13,1.79h35.2a2.162,2.162,0,0,0,2.08-2.76C94.967,117.822,92.947,110.122,92.547,103.812ZM47.164,45.079A1.251,1.251,0,0,1,46.086,43.2l1.632-2.8a1.25,1.25,0,0,1,2.159,1.262l-1.632,2.8A1.252,1.252,0,0,1,47.164,45.079Zm6.243,4.73-1.633,2.8a1.25,1.25,0,0,1-2.159-1.261l1.633-2.8a1.25,1.25,0,1,1,2.159,1.261Zm6.606-8.274-1.633,2.8a1.25,1.25,0,0,1-2.158-1.262l1.633-2.795a1.25,1.25,0,1,1,2.158,1.262Zm19.45,8.727-1.632,2.8A1.25,1.25,0,0,1,75.672,51.8L77.305,49a1.25,1.25,0,0,1,2.158,1.261Zm.971-8.727L78.8,44.33a1.25,1.25,0,0,1-2.159-1.262l1.632-2.795a1.251,1.251,0,0,1,2.16,1.262Zm10.457,0-1.633,2.8A1.25,1.25,0,0,1,87.1,43.068l1.633-2.795a1.25,1.25,0,0,1,2.159,1.262Z"/><path d="M54.855,31.015a14.714,14.714,0,0,0,7.271,5.292,1.893,1.893,0,0,1,.173-1.228l4.048-7.836a1.378,1.378,0,0,1,1.229-.748h5.607a1.384,1.384,0,0,1,1.16,2.138l-4.062,6.244a.354.354,0,0,0,.067.456l1.375,1.2a14.144,14.144,0,0,0,7.256-5.516C84.841,34.374,96.093,33.123,96.163,26c.064-6.5-7.025-7.2-7.025-7.2-.759-9.816-10.4-9.287-10.4-9.287S78.047,1.26,66.917,1.26,55.1,9.511,55.1,9.511,45.455,8.982,44.7,18.8c0,0-7.09.7-7.026,7.2C37.741,33.123,48.993,34.374,54.855,31.015Z"/></svg>