<svg id="Solid" xmlns="http://www.w3.org/2000/svg" viewBox="0 0 128 128"><title>mental health, disorder, mental illness, depression, sad, Psychiatric, anxiety</title><path d="M92.547,103.6c-.25-3.93.94-9.35,3.34-12.47,9.58-12.43,13.83-23.21,11.83-36.47s-8.56-22.67-18.21-28.18a5.866,5.866,0,0,0,1.16-3.51c.05-4.46-3.39-6.4-5.86-6.98a8.925,8.925,0,0,0-8.64-7.76c-.64-2.19-2.92-6.76-10.67-6.76s-10.03,4.57-10.67,6.76a8.935,8.935,0,0,0-8.64,7.76c-2.47.58-5.91,2.52-5.86,6.98a5.831,5.831,0,0,0,1.7,4.14c-9.74,6.03-16.02,15.83-15.66,27.46.08,2.69.55,6.63.54,9.21-.02,9.17-7.95,12.93-8.1,15.85-.25,4.79,5.37,3.29,7.36,10.07,2.51,8.6-1.1,18.41,10.62,17.8,4.68-.19,12.28-2,15.54,1.02,2.08,1.94,3.75,10.36,4.4,14.09a2.157,2.157,0,0,0,2.13,1.79h35.2a2.162,2.162,0,0,0,2.08-2.76C94.967,117.611,92.947,109.911,92.547,103.6Zm-49.72-80.66c-.04-4.02,4.14-4.58,4.61-4.63a1.26,1.26,0,0,0,1.13-1.15c.51-6.57,6.51-6.48,7.19-6.45a1.25,1.25,0,0,0,1.32-1.13c.02-.23.64-5.61,8.42-5.61s8.4,5.38,8.42,5.6a1.252,1.252,0,0,0,1.32,1.14c.27-.01,6.67-.28,7.19,6.45a1.26,1.26,0,0,0,1.13,1.15c.19.02,4.66.5,4.61,4.63a3.354,3.354,0,0,1-.92,2.35,4.454,4.454,0,0,1-1.13.89c-2.65,1.52-7.29,1.42-10.13-.21a1.258,1.258,0,0,0-1.65.37,9.954,9.954,0,0,1-8.42,4.54,11.473,11.473,0,0,1-9.26-4.54,1.271,1.271,0,0,0-1.65-.37c-2.84,1.63-7.48,1.73-10.13.21a4.034,4.034,0,0,1-.57-.38A3.474,3.474,0,0,1,42.827,22.941Zm4.33,12.85-1.63,2.79a1.253,1.253,0,0,1-1.08.62,1.2,1.2,0,0,1-.63-.17,1.245,1.245,0,0,1-.45-1.71L45,34.531a1.25,1.25,0,1,1,2.16,1.26Zm5.53,8.67-1.63,2.79a1.253,1.253,0,0,1-1.08.62,1.171,1.171,0,0,1-.63-.17,1.245,1.245,0,0,1-.45-1.71l1.63-2.79a1.25,1.25,0,1,1,2.16,1.26Zm8.45-6.75-1.64,2.8a1.263,1.263,0,0,1-1.08.62,1.324,1.324,0,0,1-.63-.17,1.253,1.253,0,0,1-.44-1.71l1.63-2.8a1.25,1.25,0,0,1,2.16,1.26Zm5.07,9.2-1.63,2.8a1.263,1.263,0,0,1-1.08.62,1.206,1.206,0,0,1-.63-.18,1.234,1.234,0,0,1-.45-1.7l1.63-2.8a1.25,1.25,0,1,1,2.16,1.26Zm7.22-9.2-1.63,2.8a1.263,1.263,0,0,1-1.08.62,1.3,1.3,0,0,1-.63-.17,1.247,1.247,0,0,1-.45-1.71l1.63-2.8a1.25,1.25,0,1,1,2.16,1.26Zm6.32,7.2-1.64,2.8a1.263,1.263,0,0,1-1.08.62,1.233,1.233,0,0,1-.63-.18,1.251,1.251,0,0,1-.45-1.7l1.64-2.8a1.245,1.245,0,0,1,1.71-.45A1.265,1.265,0,0,1,79.747,44.911Zm7.8-9.12-1.63,2.79a1.241,1.241,0,0,1-1.08.62,1.2,1.2,0,0,1-.63-.17,1.245,1.245,0,0,1-.45-1.71l1.63-2.79a1.25,1.25,0,1,1,2.16,1.26Z"/></svg>