<svg id="Solid" xmlns="http://www.w3.org/2000/svg" viewBox="0 0 128 128"><title>mental health, disorder, mental illness, Schizophrenia, sick, paranoia, psychosis</title><path d="M95.331,96.989c-.273-4.3,1.029-10.247,3.662-13.663,10.5-13.626,15.158-25.432,12.96-39.962C108.391,19.816,91.76,7.343,68.766,6.162,43.637,4.862,22.116,21,22.809,43.265c.091,2.938.605,7.265.593,10.091C23.379,63.4,14.69,67.524,14.523,70.72c-.275,5.248,5.89,3.609,8.064,11.033,2.76,9.425-1.2,20.173,11.648,19.509,5.125-.206,13.454-2.2,17.023,1.123,2.276,2.117,4.109,11.352,4.824,15.439a2.367,2.367,0,0,0,2.337,1.958H96.988a2.369,2.369,0,0,0,2.282-3.028C97.987,112.337,95.769,103.9,95.331,96.989ZM59.215,58.157c-21.913,0-29.259-9.5-28.623-18.609,1.046-15,11.56-24.84,31.524-26.066A45.644,45.644,0,0,1,99.275,28.671c5.7,6.645,9.943,24.265,1.329,32.086C86.175,73.857,75.709,58.157,59.215,58.157Z"/><path d="M93.641,30.842C88.972,25.976,78.39,18.886,63.182,19.72c-16.364.9-24.983,8.1-25.841,19.087-.521,6.673,5.5,13.627,23.463,13.627,13.52,0,23.986,13.264,35.813,3.671C103.678,50.379,98.31,35.708,93.641,30.842ZM89.854,49.7C82.089,56,70.992,46.85,62.116,46.85c-14.79,0-18.089-5.269-17.045-10.49,1.418-7.092,9.183-9.4,19.926-9.99,9.984-.547,17.191,3.345,23.135,7.758C92.55,37.408,94.489,45.938,89.854,49.7Z"/><path d="M64.436,31.827c-6.692-.056-12.1,2.571-12.1,5.34,0,3.987,4.209,3.675,10.516,4.272,8.53.807,18.2,5.541,21.522,3.132,1.986-1.438.874-4.791-.548-5.883C82.131,37.39,73.821,31.905,64.436,31.827Z"/></svg>