<svg id="Solid" xmlns="http://www.w3.org/2000/svg" viewBox="0 0 128 128"><title>mental health, disorder, mental illness, phobia, Panic Attack, Psychiatric, anxiety</title><path d="M107.65,71.266l-26-1.89,20.85,3.45,2.63.44c-2.08,5.62-5.45,11.17-10.01,17.1-2.44,3.15-3.64,8.64-3.39,12.62.41,6.39,2.46,14.18,3.64,18.26a2.188,2.188,0,0,1-2.11,2.8H81.74l-7.58-16.34,3.22,13.93H54.26a2.2,2.2,0,0,1-2.16-1.81c-.66-3.78-2.35-12.31-4.45-14.27-3.3-3.06-11-1.23-15.73-1.04-11.87.62-8.22-9.31-10.77-18.02-2-6.86-7.7-5.35-7.45-10.19.16-2.96,8.19-6.77,8.21-16.05.01-2.61-.47-6.61-.55-9.32a29.835,29.835,0,0,1,7.54-20.8l1.67,1.02,16.25,9.89L33.64,27.726l-1.46-1.47c6.26-7.17,15.86-12,26.76-13.23L56,18.811l8.5,9L61.735,44.34a.364.364,0,0,0,.6.329L86.375,24.936l-6.8-10.11c10.58,3.1,18.82,9.6,23.57,19.46L87.66,48.356l15.2-8.22,2.89-1.56a44.786,44.786,0,0,1,3.86,12.86A38.878,38.878,0,0,1,107.65,71.266Z"/><path d="M63.653,42.169a.428.428,0,0,1-.711-.432c1.159-3.718,4.024-12.7,5.548-15.618a.553.553,0,0,0-.133-.667l-6.023-5.383a3.064,3.064,0,0,1-.679-3.692L68.237,3.635a2.251,2.251,0,0,1,2-1.217h9.118A2.249,2.249,0,0,1,81.24,5.894l-6.6,10.155a.573.573,0,0,0,.108.742l5.094,4.434A3.062,3.062,0,0,1,80.9,23.379a3.016,3.016,0,0,1-.83,2.248C76.827,29.09,67.089,38.765,63.653,42.169Z"/></svg>