<svg id="Solid" xmlns="http://www.w3.org/2000/svg" viewBox="0 0 128 128"><title>mental health, disorder, mental illness, depression, marijuana, Drug, addict</title><path d="M64.962,3.9c-.025-.032-.053-.06-.079-.091l0,0a6.86,6.86,0,1,0-6.143,11.141,6.954,6.954,0,0,0,.838.051A6.864,6.864,0,0,0,64.962,3.9Zm-8.092.8a4.348,4.348,0,0,1,4.265-.616,13.029,13.029,0,0,0-5.769,5.229A4.369,4.369,0,0,1,56.87,4.7Zm5.384,6.866a4.307,4.307,0,0,1-5.238.087,9.831,9.831,0,0,1,6.32-5.672A4.357,4.357,0,0,1,62.254,11.568Z"/><path d="M94.368,16.8a3.522,3.522,0,0,1-2.862-1.3,3.58,3.58,0,0,1-.444-3.336,6.462,6.462,0,0,1,5.479-4.207,3.555,3.555,0,0,1,3.108,1.289c1.338,1.743.6,4.482-1.685,6.235a6.139,6.139,0,0,1-3.349,1.31C94.532,16.794,94.449,16.8,94.368,16.8Zm2.416-6.348c-.042,0-.08,0-.111,0a3.98,3.98,0,0,0-3.233,2.484,1.227,1.227,0,0,0,.049,1.041h0a1.227,1.227,0,0,0,.994.315,3.68,3.68,0,0,0,1.959-.8c1.2-.918,1.632-2.2,1.224-2.729A1.127,1.127,0,0,0,96.784,10.449Z"/><path d="M108.724,43.131a3.917,3.917,0,1,1,2.77-6.686h0a3.916,3.916,0,0,1-2.77,6.686Zm0-5.333a1.417,1.417,0,0,0-1,2.42,1.453,1.453,0,0,0,2.005,0,1.418,1.418,0,0,0,0-2.005h0A1.408,1.408,0,0,0,108.724,37.8Z"/><path d="M107.206,21.084a3.192,3.192,0,0,0-.55-2.74,3.055,3.055,0,0,0-2.41-1.24c-6.79-.16-13.08,5.12-17.69,10.48a26.583,26.583,0,0,0-2.3-1.35c1.1-8.1.92-17.99-4.66-23.83a3.1,3.1,0,0,0-4.47,0c-4.54,4.75-5.51,12.18-5.12,19.15a57.164,57.164,0,0,0-6.14-.64c-.98-.05-1.95-.07-2.92-.07-3.21-2.28-6.77-3.81-10.48-3.74a3.085,3.085,0,0,0-2.41,1.24,3.188,3.188,0,0,0-.54,2.74,15.217,15.217,0,0,0,.51,1.62c-15.42,4.48-26.58,16.67-26.1,32.06.08,2.69.55,6.63.54,9.21-.02,9.17-7.95,12.93-8.1,15.85-.25,4.79,5.37,3.29,7.36,10.07,2.51,8.6-1.1,18.41,10.62,17.8,4.68-.19,12.28-2,15.54,1.02,2.08,1.94,3.75,10.36,4.4,14.09a2.157,2.157,0,0,0,2.13,1.79h35.2a2.162,2.162,0,0,0,2.08-2.76c-1.17-4.03-3.19-11.73-3.59-18.04-.25-3.93.94-9.35,3.34-12.47,9.58-12.43,13.83-23.21,11.83-36.47-.21-1.39-.47-2.73-.78-4.03a12.076,12.076,0,0,0,2.35-.96,3.146,3.146,0,0,0,.96-4.72,12.757,12.757,0,0,0-6.96-4.21,35.358,35.358,0,0,0-3.12-4.92C100.736,32.144,105.666,27,107.206,21.084ZM44.043,39.394c-.931,1.612-3.427,1.914-5.575.674s-3.136-3.554-2.205-5.166,3.428-1.914,5.576-.674S44.974,37.781,44.043,39.394ZM72.431,85.583a3.7,3.7,0,0,1,1.309-5.072l3.327-1.963a1.5,1.5,0,0,0,.242.091,5.27,5.27,0,0,1,3.04,3.18,3.488,3.488,0,0,1,.29,2.684,1.551,1.551,0,0,0-.234.676l-2.9,1.712A3.705,3.705,0,0,1,72.431,85.583Zm12.547-3.1-1.07.632a8.671,8.671,0,0,0-.657-2.513,9.75,9.75,0,0,0-2.983-3.941l.947-.558a3.7,3.7,0,0,1,5.071,1.308h0A3.7,3.7,0,0,1,84.978,82.481Zm9.158-48.417a71.02,71.02,0,0,1-12,7.38,1.258,1.258,0,0,0-.65,1.56,1.241,1.241,0,0,0,1.49.79c.13-.03,10.64-2.71,17.34.28a9.091,9.091,0,0,1,3.54,2.63.662.662,0,0,1-.2.97,9.231,9.231,0,0,1-1.8.75c-7.5,2.39-18.99-2.23-19.12-2.28a1.248,1.248,0,0,0-1.07,2.25c.06.03,5.9,3.33,4.95,8.3a.666.666,0,0,1-.69.56c-2.67,0-5.5-4.12-6.71-5.88a4.122,4.122,0,0,0-.965-1.023c0,.005,0,.008,0,.013-.228,2.545-.11,9.485,3.123,11.007a1.25,1.25,0,0,1-1.065,2.262c-5.142-2.42-4.7-11.5-4.566-13.277a4.149,4.149,0,0,0-.959,1.018c-.24.34-.48.71-.73,1.08-1.5,2.25-3.2,4.8-5.27,4.8h-.01a.679.679,0,0,1-.68-.56c-.95-4.97,4.9-8.27,4.96-8.3a1.249,1.249,0,0,0-.61-2.34,1.153,1.153,0,0,0-.47.09c-.13.05-13.62,5.49-20.91,1.53a.628.628,0,0,1-.32-.45.589.589,0,0,1,.12-.52c5.46-6.83,20.72-2.95,20.87-2.91a1.252,1.252,0,0,0,.84-2.35c-.18-.09-17.83-8.3-22.11-19.38a13.769,13.769,0,0,1-.53-1.61.706.706,0,0,1,.12-.61.567.567,0,0,1,.47-.24,12.805,12.805,0,0,1,5.99,1.47c9.34,4.6,16.98,18.42,17.07,18.6a1.252,1.252,0,0,0,2.28-1.01,75.348,75.348,0,0,1-3.3-16.63c-.46-6.61.29-13.64,4.36-17.9a.631.631,0,0,1,.43-.18.6.6,0,0,1,.43.18c4.71,4.92,4.98,13.52,4.08,20.91a76.543,76.543,0,0,1-3.01,13.62,1.252,1.252,0,0,0,2.28,1.01A69.084,69.084,0,0,1,88.646,29c4.17-4.8,9.65-9.41,15.31-9.41.07,0,.16.01.23.01a.573.573,0,0,1,.48.24.74.74,0,0,1,.12.61C103.416,25.724,98.836,30.444,94.136,34.064Z"/></svg>