<svg id="Solid" xmlns="http://www.w3.org/2000/svg" viewBox="0 0 128 128"><title>mental health, disorder, mental illness, bipolar, stress, trauma, spend money</title><path d="M92.55,103.136c-.25-3.93.94-9.35,3.34-12.47,9.58-12.43,13.83-23.21,11.83-36.47-1.46-9.64-5.32-17.24-11.03-22.77a29.242,29.242,0,0,0-3.11-2.69v10.44a3.256,3.256,0,0,1-3.25,3.25H40.67a3.256,3.256,0,0,1-3.25-3.25v-9.17c-7.06,6.02-11.35,14.43-11.05,24.1.08,2.69.55,6.63.54,9.21-.02,9.17-7.95,12.93-8.1,15.85-.25,4.79,5.37,3.29,7.36,10.07,2.51,8.6-1.1,18.41,10.62,17.8,4.68-.19,12.28-2,15.54,1.02,2.08,1.94,3.75,10.36,4.4,14.09a2.157,2.157,0,0,0,2.13,1.79h35.2a2.162,2.162,0,0,0,2.08-2.76C94.97,117.146,92.95,109.446,92.55,103.136ZM68.791,76.059a2,2,0,0,1-2,2H64.159a2,2,0,0,1-2-2v-1.01a1,1,0,0,1,1-1h4.632a1,1,0,0,1,1,1Zm-6.65-6.974V65.867a1,1,0,0,1,1-1h4.632a1,1,0,0,1,1,1v3.218a1,1,0,0,1-1,1H63.141A1,1,0,0,1,62.141,69.085Zm8.98-15.376a1.544,1.544,0,0,1-1.395.868H68.8l-.033,5.088a1,1,0,0,1-1,.993H63.14a1,1,0,0,1-1-1l.005-5.08h-.923a1.552,1.552,0,0,1-1.228-2.5l3.943-5.1a1.944,1.944,0,0,1,3.076,0l3.943,5.1A1.541,1.541,0,0,1,71.121,53.709Z"/><path d="M53.17,8.486c1-1.01,1.57-1.57,2.58-2.58H95.26c1,1.01,1.57,1.57,2.58,2.58v16.89c-.92.92-1.48,1.47-2.33,2.33a30.209,30.209,0,0,1,2.57,2.28c.48.47.95.95,1.4,1.44h.85a1.25,1.25,0,0,0,1.25-1.25V3.686a1.25,1.25,0,0,0-1.25-1.25H50.67a1.25,1.25,0,0,0-1.25,1.25v5.75h3.75Z"/><path d="M40.67,40.426H90.33a1.25,1.25,0,0,0,1.25-1.25V12.686a1.25,1.25,0,0,0-1.25-1.25H80.75a7.586,7.586,0,0,0-10.5,0H40.67a1.25,1.25,0,0,0-1.25,1.25v26.49A1.25,1.25,0,0,0,40.67,40.426Zm2.5-22.94c1-1.01,1.57-1.57,2.58-2.58H85.26c1,1.01,1.57,1.57,2.58,2.58v16.89c-1.01,1.01-1.58,1.57-2.58,2.58H45.75c-1.01-1.01-1.58-1.57-2.58-2.58Z"/><path d="M65.5,33.526a7.595,7.595,0,1,0-7.6-7.6A7.6,7.6,0,0,0,65.5,33.526Z"/></svg>