<svg id="Solid" xmlns="http://www.w3.org/2000/svg" viewBox="0 0 128 128"><title>mental health, disorder, mental illness, phobia, fear, paranoia, social anxiety</title><path d="M99.3,36.56c-7.405-8.341-23.039-8.923-30.264.293a1.367,1.367,0,0,0,.13,1.857c8.057,8.061,22.8,8,30.136-.286A1.368,1.368,0,0,0,99.3,36.56ZM84.2,42.316A4.906,4.906,0,1,1,89.1,37.41,4.905,4.905,0,0,1,84.2,42.316Z"/><path d="M109.18,26.236a7.912,7.912,0,0,0-7.91-7.9h-1.261v-1.3a16.266,16.266,0,0,0-32.531,0v1.3H66.22a7.82,7.82,0,0,0-5.35,2.09c-19.58,1.95-35.06,15.61-34.5,33.68.08,2.69.55,6.63.54,9.21-.02,9.17-7.95,12.93-8.1,15.85-.25,4.79,5.37,3.29,7.36,10.07,2.51,8.6-1.1,18.41,10.62,17.8,4.68-.19,12.28-2,15.54,1.02,2.08,1.94,3.75,10.36,4.4,14.09a2.157,2.157,0,0,0,2.13,1.79h35.2a2.162,2.162,0,0,0,2.08-2.76c-1.17-4.03-3.19-11.73-3.59-18.04-.25-3.93.94-9.35,3.34-12.47,9.58-12.43,13.83-23.21,11.83-36.47a48.3,48.3,0,0,0-1.61-7.06,25.26,25.26,0,0,0,3.07-12.11Zm-39.2-9.2a13.766,13.766,0,0,1,27.531,0v1.3H93.7v-1.4a9.955,9.955,0,1,0-19.91,0v1.4H69.978Zm21.222-.1v1.4H76.29v-1.4a7.455,7.455,0,1,1,14.91,0Zm15.48,18.09a22.935,22.935,0,0,1-45.87,0v-8.79a5.412,5.412,0,0,1,5.41-5.4h35.05a5.412,5.412,0,0,1,5.41,5.4Z"/><path d="M34.129,23.862a1.25,1.25,0,0,1-.97-2.038A10.152,10.152,0,0,1,38.882,18a9.279,9.279,0,0,0,3-1.36,1.25,1.25,0,1,1,1.453,2.035,11.642,11.642,0,0,1-3.727,1.716A7.65,7.65,0,0,0,35.1,23.4,1.249,1.249,0,0,1,34.129,23.862Z"/><path d="M51.616,15.033c0,.824-1.05,1.492-1.875,1.492s-1.111-.668-1.111-1.492a1.5,1.5,0,1,1,2.986,0Z"/><path d="M19.651,48.826a1.25,1.25,0,0,1-1.245-1.154,9.138,9.138,0,0,1,1.821-6.241,7.026,7.026,0,0,0,1.467-4.012,1.251,1.251,0,0,1,1.25-1.23h.02a1.249,1.249,0,0,1,1.23,1.269,9.413,9.413,0,0,1-1.858,5.316A6.766,6.766,0,0,0,20.9,47.48a1.248,1.248,0,0,1-1.149,1.342C19.716,48.825,19.684,48.826,19.651,48.826Z"/><path d="M12.872,74.407a1.25,1.25,0,0,1-.889-2.129c2.445-2.474,3.158-4.033,4.193-7.77a1.25,1.25,0,0,1,2.41.667c-1.131,4.08-2.029,6.031-4.825,8.86A1.248,1.248,0,0,1,12.872,74.407Z"/><path d="M106.943,89.281a1.249,1.249,0,0,1-.928-2.086,18.188,18.188,0,0,0,2.375-3.789c1.035-1.993,2.012-3.875,3.768-4.442a1.25,1.25,0,0,1,.768,2.379c-.779.252-1.561,1.758-2.318,3.215a20.182,20.182,0,0,1-2.736,4.309A1.247,1.247,0,0,1,106.943,89.281Z"/><path d="M115.093,61.225a1.253,1.253,0,0,1-1.155-.768,10.127,10.127,0,0,1-.542-4.884,11.061,11.061,0,0,0-.4-4.615,1.25,1.25,0,0,1,2.371-.8,13.471,13.471,0,0,1,.528,5.568,7.8,7.8,0,0,0,.354,3.761,1.251,1.251,0,0,1-1.152,1.733Z"/><path d="M101.556,114.4a1.284,1.284,0,0,1-.267-.029,1.251,1.251,0,0,1-.956-1.488,7.807,7.807,0,0,0-.331-3.763,13.453,13.453,0,0,1-.487-5.572,1.25,1.25,0,1,1,2.474.354,11.057,11.057,0,0,0,.438,4.612,10.125,10.125,0,0,1,.349,4.9A1.252,1.252,0,0,1,101.556,114.4Z"/><path d="M20.716,104.417a1.25,1.25,0,0,1-1.245-1.156c-.264-3.467-.974-5.028-3.116-8.261a1.25,1.25,0,1,1,2.084-1.381c2.338,3.529,3.222,5.488,3.524,9.453a1.249,1.249,0,0,1-1.151,1.341C20.779,104.416,20.747,104.417,20.716,104.417Z"/><path d="M43.791,116.905a1.258,1.258,0,0,1-.393-.064c-3.3-1.092-5.014-1.037-8.823-.3a1.25,1.25,0,1,1-.472-2.455c4.153-.8,6.3-.863,10.081.385a1.251,1.251,0,0,1-.393,2.438Z"/><path d="M29.145,28.569a1.867,1.867,0,0,1-.881,2.229c-.714.411-1.3-.025-1.707-.74a1.5,1.5,0,1,1,2.588-1.489Z"/><path d="M20.181,56.085a1.866,1.866,0,0,1-.88,2.229c-.714.411-1.3-.025-1.707-.74a1.5,1.5,0,1,1,2.587-1.489Z"/><path d="M14.989,84.245a1.868,1.868,0,0,1-.88,2.229c-.715.411-1.3-.026-1.707-.74a1.584,1.584,0,0,1,.5-2.129A1.585,1.585,0,0,1,14.989,84.245Z"/><path d="M25.137,110.721a1.868,1.868,0,0,1-.88,2.229c-.715.411-1.3-.025-1.708-.74a1.5,1.5,0,1,1,2.588-1.489Z"/><path d="M51.27,120.626a1.867,1.867,0,0,1-.881,2.229c-.714.411-1.3-.025-1.707-.74a1.5,1.5,0,1,1,2.588-1.489Z"/><path d="M103.954,95.246a1.868,1.868,0,0,1-.88,2.229c-.715.411-1.3-.026-1.708-.74a1.5,1.5,0,1,1,2.588-1.489Z"/><path d="M115.509,69.346a1.866,1.866,0,0,1-.88,2.229c-.714.411-1.3-.025-1.707-.74a1.5,1.5,0,1,1,2.587-1.489Z"/><path d="M103.954,119.024a1.867,1.867,0,0,1-.88,2.228c-.715.411-1.3-.025-1.708-.739a1.5,1.5,0,1,1,2.588-1.489Z"/><path d="M113.028,42.115a1.866,1.866,0,0,1-.88,2.229c-.714.411-1.3-.025-1.707-.74a1.5,1.5,0,1,1,2.587-1.489Z"/></svg>