<svg id="Solid" xmlns="http://www.w3.org/2000/svg" viewBox="0 0 128 128"><title>modern, house, home, urban, city, building, construction</title><path d="M127.62,76.521a3.25,3.25,0,0,0-3.25-3.25h-3.93V42.281a2.006,2.006,0,0,0-2-2H55.97a2.006,2.006,0,0,0-2,2v42.81a2.006,2.006,0,0,0,2,2h7.46a13.838,13.838,0,0,1,13.59-11.32h47.35a.749.749,0,0,1,.75.75l0,12.324a.752.752,0,0,1-.75.75l-65.6,0V124.6h-2.5V90.591a1,1,0,0,0-1-1H53.46a2,2,0,0,1-1.99-2v-33.7H12.03a4,4,0,0,0-4,4V124.6h-6.1a1.25,1.25,0,0,0,0,2.5H121.65a1.25,1.25,0,0,0,0-2.5h-6.01V92.1h8.732a3.254,3.254,0,0,0,3.25-3.25Zm-34-3.25H78.28v-5.83a7.889,7.889,0,0,1,7.43-7.99,7.669,7.669,0,0,1,7.91,7.67ZM38.2,64.241a1,1,0,0,1,1-1h7.47a1,1,0,0,1,1,1v7.48a1,1,0,0,1-1,1H39.2a1,1,0,0,1-1-1Zm0,15.74a1,1,0,0,1,1-1h7.47a1,1,0,0,1,1,1v7.48a1,1,0,0,1-1,1H39.2a1,1,0,0,1-1-1Zm-20.03,23.59a7.41,7.41,0,1,1,14.82,0V124.6H18.17Zm76.45-2.49a1,1,0,0,1,1-1h6.5a1,1,0,0,1,1,1v6.49a1,1,0,0,1-1,1h-6.5a1,1,0,0,1-1-1Zm-24.83,0a1,1,0,0,1,1-1h6.49a1,1,0,0,1,1,1v6.49a1,1,0,0,1-1,1H70.79a.99.99,0,0,1-1-1Z"/></svg>