<svg id="Solid" xmlns="http://www.w3.org/2000/svg" viewBox="0 0 128 128"><title>museum, building, construction, recreation, holiday, gallery, castle</title><path d="M39.24,84.191a1,1,0,0,0-1-1H14.53a8.185,8.185,0,0,0-8.02,6.565A1,1,0,0,0,7.5,90.941H38.24a1,1,0,0,0,1-1Z"/><path d="M89.76,90.941H120.5a1,1,0,0,0,.989-1.185,8.185,8.185,0,0,0-8.02-6.565H89.76a1,1,0,0,0-1,1v5.75A1,1,0,0,0,89.76,90.941Z"/><path d="M64.026,53.557A22.264,22.264,0,0,0,42.017,72.178a.994.994,0,0,0,.992,1.138H84.947a.993.993,0,0,0,.991-1.138A22.263,22.263,0,0,0,64.026,53.557Z"/><path d="M125.849,124.67H121.66V93.441H88.76s-.006,25.293-.007,31.229H86.26V103.657h0a1.25,1.25,0,0,0,0-2.5H41.739a1.25,1.25,0,1,0,0,2.5h0V124.67h-2.5V93.441H6.34V124.67H2.151a1.25,1.25,0,1,0,0,2.5h123.7a1.25,1.25,0,0,0,0-2.5ZM109.14,103.131a3.17,3.17,0,0,1,6.34,0v4.73h-6.34Zm0,7.23h6.34v3.98a1,1,0,0,1-1,1h-4.34a1,1,0,0,1-1-1Zm-15.97-7.23a3.17,3.17,0,0,1,6.34,0v4.73H93.17Zm0,7.23h6.34v3.98a1,1,0,0,1-1,1H94.17a1,1,0,0,1-1-1Zm-64.676-7.227a3.168,3.168,0,0,1,6.336,0v4.722H28.494Zm0,7.222H34.83v3.981a1,1,0,0,1-1,1H29.494a1,1,0,0,1-1-1Zm-15.973-7.222a3.168,3.168,0,1,1,6.336,0v4.722H12.521Zm0,7.222h6.336v3.981a1,1,0,0,1-1,1H13.521a1,1,0,0,1-1-1Zm60.969.675a3.165,3.165,0,0,1,6.33,0v3.48H73.49Zm6.33,5.98v7.659H73.49v-7.659Zm-15.9-8.07h.21a4.716,4.716,0,0,1,4.72,4.72V124.67H59.2V113.661A4.722,4.722,0,0,1,63.92,108.941Zm-15.68,2.09a3.165,3.165,0,0,1,6.33,0v3.48H48.24Zm0,5.98h6.33v7.659H48.24Z"/><path d="M41.17,79.981h.57v18.68H59.2v-8.32a4.722,4.722,0,0,1,4.72-4.72h.21a4.716,4.716,0,0,1,4.72,4.72v8.32H86.26V79.981h.57a2.034,2.034,0,0,0,2.04-2.03v-.1a2.034,2.034,0,0,0-2.04-2.03H41.17a2.034,2.034,0,0,0-2.04,2.03v.1A2.034,2.034,0,0,0,41.17,79.981Zm32.37,9.04a3.115,3.115,0,0,1,6.23,0v4.29a1,1,0,0,1-1,1H74.54a1,1,0,0,1-1-1Zm-25.25,0a3.115,3.115,0,0,1,6.23,0v4.29a1,1,0,0,1-1,1H49.29a1,1,0,0,1-1-1Z"/></svg>