<svg id="Solid" xmlns="http://www.w3.org/2000/svg" viewBox="0 0 128 128"><title>oil, gas station, energy, building, construction, car care</title><path d="M23.06,106.041V94.321H10.39a2.253,2.253,0,0,0-2.25,2.25v7.22a2.253,2.253,0,0,0,2.25,2.25Z"/><path d="M126.53,58.981a3.376,3.376,0,0,0-2.61-1.23H4.08a3.355,3.355,0,0,0-3.3,4.03l2.49,12.48a2.32,2.32,0,0,0,2.26,1.85H25.56v48.365h-2.5V108.541H12.52v15.935H10.23a1.25,1.25,0,1,0,0,2.5h32a1.25,1.25,0,0,0,0-2.5H40.06V76.111H87.94v48.365H85.77a1.25,1.25,0,1,0,0,2.5h32a1.25,1.25,0,0,0,0-2.5h-2.29V108.541H104.94v15.935h-2.5V76.111h20.03a2.32,2.32,0,0,0,2.26-1.85l2.49-12.48A3.364,3.364,0,0,0,126.53,58.981ZM28.06,76.111h9.5v6.67h-9.5Zm62.38,6.67v-6.67h9.5v6.67Zm34.33-21.49-1.18,5.89H63.01l5.35-6.93h55.56a.833.833,0,0,1,.67.32A.848.848,0,0,1,124.77,61.291Z"/><path d="M117.61,94.321H104.94v11.72h12.67a2.253,2.253,0,0,0,2.25-2.25v-7.22A2.253,2.253,0,0,0,117.61,94.321Z"/></svg>