<svg id="Solid" xmlns="http://www.w3.org/2000/svg" viewBox="0 0 128 128"><title>Pathological, Liar, mental health, disorder, mental illness, overact, talk</title><path d="M108.418,93.2c-.24-3.781.9-9,3.218-12,9.227-11.972,13.318-22.344,11.386-35.11-3.13-20.688-17.74-31.646-37.942-32.684C63,12.256,44.1,26.437,44.7,46c.08,2.582.532,6.383.522,8.867-.021,8.822-7.655,12.447-7.8,15.255-.241,4.61,5.175,3.17,7.085,9.693,2.425,8.28-1.051,17.723,10.234,17.14,4.5-.181,11.82-1.929,14.956.987,2,1.859,3.609,9.973,4.238,13.564a2.079,2.079,0,0,0,2.053,1.72h33.885a2.082,2.082,0,0,0,2.006-2.66C110.752,106.68,108.8,99.269,108.418,93.2ZM84.305,74.605a24.669,24.669,0,1,1,24.669-24.668A24.669,24.669,0,0,1,84.305,74.605Z"/><path d="M97.312,52.085a.932.932,0,0,1-.341-1.26,5.266,5.266,0,0,0,.585-1.846c.215-1.711-1.24-4.461-4.851-6.1-6.554-3.492-2.671-9.338-5.421-10.225-2.208-.713-8.226,4.438-7.865,8.26A.968.968,0,0,1,78.7,41.97c-5.389,1.355-7.9,4.963-7.646,7.009a5.337,5.337,0,0,0,.577,1.848.932.932,0,0,1-.343,1.256,6.518,6.518,0,0,0-3.513,5.357c0,4.537,7.4,8.187,16.53,8.187s16.53-3.65,16.53-8.187A6.527,6.527,0,0,0,97.312,52.085Z"/><path d="M36.519,47.938a2.641,2.641,0,0,0-.668-1.605L30.27,40.107a3.142,3.142,0,0,0-2.462-1.2H15.954a3.14,3.14,0,0,0-2.462,1.2L7.911,46.332a2.645,2.645,0,0,0-.668,1.6l0,.011v.006a2.642,2.642,0,0,0,.818,2.085l11.813,11.2a3.122,3.122,0,0,0,4.017,0c.02-.017.04-.033.058-.051L35.7,50.038a2.64,2.64,0,0,0,.818-2.086v0Zm-8.711-6.514a.613.613,0,0,1,.487.243q.033.043.069.084l4.425,4.937H30.426L25,41.424Zm-1,5.264H16.95L21.881,41.9ZM15.4,41.751c.024-.027.047-.055.068-.084a.615.615,0,0,1,.488-.243h2.807l-5.425,5.264H10.972Zm-4.557,7.454H13.15l3.407,5.421Zm11.04,9.161-5.758-9.161H27.639ZM27.2,54.628l3.409-5.423h2.309Z"/><path d="M35.123,70.736c-.95,0-3.067-.581-8.8-2.864a19.117,19.117,0,1,1,7.933-4.016,26.362,26.362,0,0,1,2.227,5.392,1.4,1.4,0,0,1-.517,1.2A1.177,1.177,0,0,1,35.123,70.736Zm-8.708-5.442a1.253,1.253,0,0,1,.468.09c2.217.887,4.758,1.832,6.436,2.378-.477-1.082-1.141-2.463-1.762-3.673a1.258,1.258,0,0,1,.359-1.578,16.623,16.623,0,1,0-5.82,2.824A1.28,1.28,0,0,1,26.415,65.294Z"/></svg>