<svg id="Solid" xmlns="http://www.w3.org/2000/svg" viewBox="0 0 128 128"><title>shop house, building, contruction, real estate, office, residence</title><path d="M118.88,75.841V33.861H9.38v41.98H21.47V62.819H56.13V75.841H72.2V62.819h34.66V75.841ZM21.47,60.319V45.311a2.006,2.006,0,0,1,2-2H54.13a2,2,0,0,1,2,2V60.319Zm85.389,0H72.2V45.311a2,2,0,0,1,2-2h30.66a2.006,2.006,0,0,1,2,2V60.319Z"/><path d="M126.148,124.611H120.13V94.361a1.3,1.3,0,0,0-.028-.141,2,2,0,0,0,1.273-1.859v-12a2,2,0,0,0-2-2H8.75a2,2,0,0,0-2,2v12a1.993,1.993,0,0,0,1.4,1.9c0,.035-.021.066-.021.1v30.25H2.117a1.25,1.25,0,0,0,0,2.5H126.148a1.25,1.25,0,0,0,0-2.5Zm-8.518-30.25v30.25H93.081V94.361Zm-27.049,0v30.25H65.415V94.361Zm-27.666,0v30.25H37.748V94.361Zm-52.285,0H35.248v30.25H10.63Z"/><path d="M9.411,31.361H118.883l5.228-6.192a2,2,0,0,0-1.528-3.3H5.711a2,2,0,0,0-1.527,3.3Z"/></svg>