<svg id="Solid" xmlns="http://www.w3.org/2000/svg" viewBox="0 0 128 128"><title>Social Anxiety, fear, phobia, paranoia, mental health, disorder, mental illness</title><path d="M25.853,50.569a1.25,1.25,0,0,1-.884-2.134L55.791,17.613a1.25,1.25,0,0,1,1.768,1.768L26.737,50.2A1.246,1.246,0,0,1,25.853,50.569Z"/><path d="M74.541,34.871a1.25,1.25,0,0,1-.884-2.134l30.23-30.23a1.25,1.25,0,0,1,1.768,1.767L75.425,34.505A1.248,1.248,0,0,1,74.541,34.871Z"/><path d="M63.5,83.148a1.25,1.25,0,0,1-.883-2.134L91.081,52.607a1.25,1.25,0,0,1,1.765,1.77L64.378,82.783A1.249,1.249,0,0,1,63.5,83.148Z"/><circle cx="41.134" cy="34.081" r="4.906" transform="translate(-6.73 10.362) rotate(-13.282)"/><path d="M109.55,5.376a11.535,11.535,0,0,0-8.77-4.04H79.6a11.561,11.561,0,0,0-11.5,12.63l.68,7.31c-1.5-.2-3.03-.34-4.6-.42-1.02-.05-2.04-.07-3.05-.07a18.112,18.112,0,0,0-13.73-6.4c-4.21-.01-8.4-.01-12.61,0a18.263,18.263,0,0,0-18.11,18.24q-.015,1.17,0,2.31a18.3,18.3,0,0,0,6.02,13.55,29,29,0,0,0-.46,6.22c.08,2.69.55,6.63.54,9.21-.02,9.17-7.95,12.93-8.1,15.85-.25,4.79,5.37,3.29,7.36,10.07,2.51,8.6-1.1,18.41,10.62,17.8,4.68-.19,12.28-2,15.54,1.03,2.08,1.93,3.75,10.35,4.4,14.08a2.157,2.157,0,0,0,2.13,1.79h35.2a2.162,2.162,0,0,0,2.08-2.76c-1.17-4.03-3.19-11.73-3.59-18.04-.25-3.93.94-9.35,3.34-12.47,9.58-12.43,13.83-23.21,11.83-36.46a41.571,41.571,0,0,0-6.81-17.82l2.04-.02a11.473,11.473,0,0,0,11.41-9.77l1.96-12.54A11.507,11.507,0,0,0,109.55,5.376Zm-38.96,8.36a9.079,9.079,0,0,1,2.32-6.95,8.967,8.967,0,0,1,6.69-2.95h5.541c-.161,4.336-2.587,7.034-4.553,9.211-1.285,1.422-2.3,2.545-2.37,3.873-.141,2.715,1.47,3.777,2.892,4.714a7.016,7.016,0,0,1,3.46,4.325,31.067,31.067,0,0,1,.93,5.91,35.184,35.184,0,0,0,.545,4.117c-2.012,1.53-4.081,3.041-5.465,3.97.15-1.18.39-2.7.64-4.04a1.261,1.261,0,0,0-1.14-1.48,9.014,9.014,0,0,1-8.33-8.17l-.43-4.6ZM19.18,34.916c-.01-.75-.01-1.49,0-2.27A15.762,15.762,0,0,1,34.8,16.886q6.3-.015,12.59,0a15.617,15.617,0,0,1,10.41,4.05,15.813,15.813,0,0,1,5.21,11.71v2.29a15.785,15.785,0,0,1-13.79,15.65,1.276,1.276,0,0,0-.91.58,1.259,1.259,0,0,0-.12,1.07c.31.9.62,1.96.85,2.86-1.56-1.01-3.86-2.64-5.85-4.14a1.274,1.274,0,0,0-.75-.25H34.8a15.561,15.561,0,0,1-11.43-5.06A15.875,15.875,0,0,1,19.18,34.916Zm58.08,51.25s-8.33,6.17-8.44,5.38c-.19-1.2,1.06-6.84,1.06-6.84a19.322,19.322,0,1,1,7.38,1.46Zm32.46-71.89-1.96,12.54a8.989,8.989,0,0,1-8.95,7.65l-3.93.04-6.557.069c-.142-.911-.238-1.9-.334-2.935a33.481,33.481,0,0,0-1.02-6.384,9.447,9.447,0,0,0-4.483-5.709c-1.366-.9-1.834-1.274-1.77-2.5.023-.442.967-1.488,1.727-2.328,2.018-2.234,5.032-5.585,5.2-10.887H100.78a9.048,9.048,0,0,1,8.94,10.44Z"/><path d="M42,42.608a21.019,21.019,0,0,0,15.174-6.685,2.625,2.625,0,0,0,0-3.522,21.868,21.868,0,0,0-17-6.846,19.819,19.819,0,0,0-15.186,7.2,2.625,2.625,0,0,0,.231,3.511,22.616,22.616,0,0,0,16.026,6.354C41.494,42.619,41.746,42.616,42,42.608ZM26.953,34.3a17.336,17.336,0,0,1,13.294-6.243c5.922-.159,11.552,2.065,15.052,6.008a.127.127,0,0,1,0,.2,18.525,18.525,0,0,1-13.377,5.843A20.235,20.235,0,0,1,26.984,34.5C26.878,34.391,26.92,34.338,26.953,34.3Z"/><path d="M93.805,23.237H88.6a1.25,1.25,0,0,0,0,2.5h5.208a.915.915,0,0,1,.733.371.911.911,0,0,1-.733,1.449H89.866a1.25,1.25,0,0,0,0,2.5h3.939a3.41,3.41,0,0,0,0-6.82Z"/><path d="M79.637,54.678c-3.419-1.086-8.372.3-11.213,5.042a1.25,1.25,0,0,0,2.144,1.285c2.151-3.594,5.893-4.718,8.318-3.943,4.054,1.27,4.987,6.021,3.806,9.848a10.545,10.545,0,0,1-6.034,6.5,4.7,4.7,0,0,1-4.424-.528,1.25,1.25,0,0,0-1.43,2.05,6.991,6.991,0,0,0,4.052,1.3,7.988,7.988,0,0,0,2.616-.458,13.035,13.035,0,0,0,7.608-8.126C86.617,62.667,85.231,56.429,79.637,54.678Z"/><path d="M80.662,61.169a1.252,1.252,0,0,0-.707-1.621,5.982,5.982,0,0,0-4.692.427,6.925,6.925,0,0,0-1.421.922c-.014.008-.024.02-.037.028-.027.023-.06.043-.087.066a5.87,5.87,0,0,0-.658.6,10.706,10.706,0,0,0-1.448,1.76,1.25,1.25,0,0,0,2.07,1.4,8.541,8.541,0,0,1,1.148-1.4c.074-.078.148-.153.228-.226a1.953,1.953,0,0,1,.676-.035,2.72,2.72,0,0,1,1.576,1.07,1.25,1.25,0,1,0,2.106-1.348,5.241,5.241,0,0,0-.928-1.044,2.562,2.562,0,0,1,.554.1A1.253,1.253,0,0,0,80.662,61.169Z"/></svg>