<svg id="Solid" xmlns="http://www.w3.org/2000/svg" viewBox="0 0 128 128"><title>stethoscopes, healthcare, medical, hospital, heart, checking, doctor</title><path d="M112.311,86.192a.989.989,0,0,0-.254-.014V58.943c0-7.865-6.681-14.273-14.91-14.273S82.236,51.078,82.236,58.943L82.225,92.7c0,11.917-10.267,21.615-22.89,21.615s-22.89-9.7-22.89-21.627V71.338a3.939,3.939,0,0,0,2.391-3.483v-4.45c10.972-1.719,19.873-9.038,19.873-23.971V15.19c0-5.156-3.916-5.953-6.306-5.953H50.377a3.591,3.591,0,1,0,0,7.182h1.241V39.434c0,11.712-8.127,17.29-18.109,17.29s-18.1-5.578-18.1-17.29V16.419h1.241a3.591,3.591,0,1,0,0-7.182H14.626c-2.391,0-6.306.8-6.306,5.953V39.434c0,15.525,9.618,22.833,21.182,24.153v4.268a3.712,3.712,0,0,0,1.366,2.823,4.772,4.772,0,0,0,1.024.66V92.691c0,14.433,12.316,26.179,27.443,26.179S86.766,107.135,86.777,92.7l.012-33.76c0-5.361,4.644-9.72,10.358-9.72s10.357,4.359,10.357,9.72V86.167a.95.95,0,0,0-.249.013,9.933,9.933,0,1,0,5.056.012Z"/></svg>