<svg id="Solid" xmlns="http://www.w3.org/2000/svg" viewBox="0 0 128 128"><title>thermometer, fever, healthcare, medical, hospital, temperature, checking</title><path d="M103.543,31.828a31.485,31.485,0,0,1-10.9-7.2l-5.674,5.674,2.042,2.041A1,1,0,1,1,87.6,33.761L85.554,31.72,80.079,37.2l2.041,2.042a1,1,0,1,1-1.414,1.414l-2.041-2.042-5.483,5.483,2.041,2.042a1,1,0,1,1-1.414,1.414l-2.041-2.042-5.483,5.483,2.041,2.042a1,1,0,1,1-1.414,1.414l-2.037-2.037c-2.132,2.269-17.626,23.35-30.88,41.533l5.972,5.972C58.362,86.5,79.781,70.76,81.6,68.944L110.445,40.1c.062-2.185-.346-3.617-2.5-5.773A15.784,15.784,0,0,0,103.543,31.828Z"/><path d="M17.764,85.542a2.378,2.378,0,0,0-2.745-1.948l-.414.071a.514.514,0,0,1-.6-.42l-.07-.4A2.39,2.39,0,0,0,11.183,80.9l-1.617.28A2.389,2.389,0,0,0,7.62,83.935l.069.4a.515.515,0,0,1-.42.6l-.4.069a2.389,2.389,0,0,0-1.945,2.757L5.2,89.375A2.39,2.39,0,0,0,7.96,91.321l.4-.069a.515.515,0,0,1,.6.42l.069.4a2.39,2.39,0,0,0,2.758,1.945l1.617-.279a2.388,2.388,0,0,0,1.945-2.757l-.069-.4a.516.516,0,0,1,.42-.6l.414-.071a2.378,2.378,0,0,0,1.933-2.756Z"/><path d="M22.556,109.678a1.225,1.225,0,0,0,1.721,1.642c4.045-2.932,8.9-6.461,14.054-10.215L32.8,95.577C29.039,100.744,25.5,105.617,22.556,109.678Z"/><path d="M113.866,20.042a11.755,11.755,0,0,0-16.634,0L94.071,23.2a29.9,29.9,0,0,0,10.294,6.8,16.881,16.881,0,0,1,4.991,2.9,9.08,9.08,0,0,1,2.986,5.29l1.524-1.524a11.763,11.763,0,0,0,0-16.633Z"/><path d="M120.873,82.533a2.912,2.912,0,0,0-.325-.081l-.538-.105a.549.549,0,0,1-.07-.017.684.684,0,0,1-.465-.8l.1-.538a3.2,3.2,0,0,0-2.209-3.655c-.105-.032-.212-.058-.322-.08l-2.166-.421a3.2,3.2,0,0,0-3.732,2.517l-.105.537a.693.693,0,0,1-.8.554l-.538-.1a3.178,3.178,0,0,0-3.732,2.517l-.421,2.165a3.178,3.178,0,0,0,2.191,3.652c.106.032.215.059.326.081l.537.1a.636.636,0,0,1,.066.017.693.693,0,0,1,.47.8l-.105.538a3.2,3.2,0,0,0,2.2,3.654,3.262,3.262,0,0,0,.317.079l2.166.421a3.2,3.2,0,0,0,3.747-2.514l.107-.553a.679.679,0,0,1,.8-.538l.537.105a3.189,3.189,0,0,0,3.733-2.517l.421-2.166A3.177,3.177,0,0,0,120.873,82.533Z"/></svg>