<svg id="Solid" xmlns="http://www.w3.org/2000/svg" viewBox="0 0 128 128"><title>times, appointment, hands, check list, to do list, tablet, pointing</title><path d="M33.493,83.4a11.177,11.177,0,0,1-.768,2.521,14.566,14.566,0,0,1-1.178,2.112H92.5c-.782-1.513-1.538-3.081-2.171-4.633Z"/><path d="M77.051,53.068a.969.969,0,0,0-.394-.232.991.991,0,0,0-1.02.232l-2.151,2.151a.12.12,0,0,1-.17,0l-.68-.68a1,1,0,0,0-1.414,1.415l.68.679a2.122,2.122,0,0,0,3,0l2.151-2.151A1,1,0,0,0,77.051,53.068Z"/><path d="M44.835,68a.965.965,0,0,0-.393-.232A.991.991,0,0,0,43.421,68l-2.15,2.15a.12.12,0,0,1-.17,0l-.68-.68a1,1,0,0,0-1.414,1.414l.68.68a2.125,2.125,0,0,0,3,0l2.15-2.151A1,1,0,0,0,44.835,68Z"/><path d="M60.862,68a.972.972,0,0,0-.393-.232A.991.991,0,0,0,59.448,68L57.3,70.145a.12.12,0,0,1-.17,0l-.68-.68a1,1,0,0,0-1.414,1.414l.68.681a2.126,2.126,0,0,0,3,0l2.151-2.151A1,1,0,0,0,60.862,68Z"/><path d="M93.935,68a.975.975,0,0,0-.394-.232A.991.991,0,0,0,92.52,68l-2.15,2.151a.12.12,0,0,1-.17,0l-.68-.68a1,1,0,0,0-1.415,1.414l.681.681a2.125,2.125,0,0,0,3,0l1.832-1.832.32-.319A1,1,0,0,0,93.935,68Z"/><path d="M31.11,84.3A12.611,12.611,0,0,1,18.975,92.71h-.01a17.143,17.143,0,0,1-10.34-3.4c-3.21-2.587-4.86-7.52-4.62-12.48a21.609,21.609,0,0,1,8.83-16.14,18.217,18.217,0,0,1,4.99-2.49V74.76a8.448,8.448,0,0,1-1.13.74,1,1,0,0,0-.39,1.36,1.04,1.04,0,0,0,1.36.39,11.338,11.338,0,0,0,2.16-1.56,18.515,18.515,0,0,0,4.31-6.45c.72-1.67,1.94-5.22,2-5.36.72-1.73,2.15-3.17,3.72-2.75,1,.26,2.12,1.15,1.85,5.76a87.733,87.733,0,0,0,.02,8.78A28.808,28.808,0,0,1,31.11,84.3Z"/><path d="M103.918,15.772H26.73a6.907,6.907,0,0,0-6.908,6.907v50.1c2.026-2.561,3.653-7.885,4.315-9.273V23.818a3.412,3.412,0,0,1,3.412-3.413H103.1a3.413,3.413,0,0,1,3.412,3.413V79.984a3.391,3.391,0,0,1-.6,1.926,6.659,6.659,0,0,1,2.468-.035,5.291,5.291,0,0,1,1.975.782c.093-.023.2-.046.31-.07a6.92,6.92,0,0,0,.159-1.464V22.679A6.907,6.907,0,0,0,103.918,15.772Z"/><path d="M118.665,108.61c-6.67,5.65-16.94,3.67-21.44,1.84a29.292,29.292,0,0,0-5.5-1.45c-2.87-.57-5.58-1.1-6.36-2.77a2.753,2.753,0,0,1-.26-1.22,2.988,2.988,0,0,1,.81-2.35c1.45-1.4,5.292-1.173,7.08-1.08,3.789.2,5.78-.98,5.92-3.49a7.945,7.945,0,0,0-.66-3.28c-.43-1.1-5.06-9.83-5.74-11.41-.29-.67-.56-1.35-.8-2-1.03-2.85-1.45-5.46-.31-6.89a2.451,2.451,0,0,1,2.16-.93,1.658,1.658,0,0,1,1.32.92c.76,1.67,2.23,4.27,3.79,6.9.39.67,4.79,7.82,4.79,7.82a1,1,0,1,0,1.69-1.07s-.96-1.52-1.7-2.72a4.221,4.221,0,0,1,.53-.5,5.227,5.227,0,0,1,4.04-1.09,3.233,3.233,0,0,1,1.49.67,5.313,5.313,0,0,1,.88,1.37,1,1,0,0,0,.96.7.967.967,0,0,0,.29-.04,1,1,0,0,0,.66-1.25,4.816,4.816,0,0,0-.36-.87,5.731,5.731,0,0,1,1.78.1c3.53.79,6.34,3.92,8.08,6.41C125.685,96.49,124.4,103.76,118.665,108.61Z"/><path d="M45,53.068a.975.975,0,0,0-.394-.232.991.991,0,0,0-1.02.232l-2.151,2.151a.12.12,0,0,1-.17,0l-.68-.68a1,1,0,1,0-1.414,1.415l.68.679a2.122,2.122,0,0,0,3,0L45,54.482A1,1,0,0,0,45,53.068Z"/><path d="M103.1,22.4H27.545a1.423,1.423,0,0,0-1.41,1.42V60.41a5.378,5.378,0,0,1,1.5-.98,4.112,4.112,0,0,1,2.72-.24c3.32.87,3.53,4.63,3.35,7.82-.19,3.23.16,12.65.03,14.39h55.87c-.92-2.79-1.25-5.4-.28-7.33h-.91a2.535,2.535,0,0,1-2.53-2.54V68.35a2.535,2.535,0,0,1,2.53-2.54h2.67a2.343,2.343,0,0,1,2.328,1.9,17.13,17.13,0,0,1,.192,3.88,1.275,1.275,0,0,1,.2.01,3.577,3.577,0,0,1,2.9,2.07c.7,1.55,2.18,4.2,4.29,7.73h2.1a1.425,1.425,0,0,0,1.42-1.42V23.82A1.425,1.425,0,0,0,103.1,22.4Zm-44.35,9.65a2.742,2.742,0,0,1,2.73-2.74h.47a.585.585,0,0,0,.59-.59v-.47a2.736,2.736,0,0,1,2.74-2.73h1.89a2.727,2.727,0,0,1,2.73,2.73v.47a.591.591,0,0,0,.59.59h.47a2.744,2.744,0,0,1,2.74,2.74v1.89a2.742,2.742,0,0,1-2.74,2.73h-.47a.591.591,0,0,0-.59.59v.47a2.736,2.736,0,0,1-2.73,2.74h-1.89a2.744,2.744,0,0,1-2.74-2.74v-.47a.591.591,0,0,0-.59-.59h-.47a2.734,2.734,0,0,1-2.73-2.73ZM44.515,71.53a2.535,2.535,0,0,1-2.53,2.54h-2.67a2.535,2.535,0,0,1-2.53-2.54V68.35a2.535,2.535,0,0,1,2.53-2.54h2.67a2.463,2.463,0,0,1,2.46,1.95A32.809,32.809,0,0,1,44.515,71.53Zm.16-14.92a2.527,2.527,0,0,1-2.53,2.53h-2.66a2.535,2.535,0,0,1-2.54-2.53V53.42a2.535,2.535,0,0,1,2.54-2.53h2.66a2.447,2.447,0,0,1,2.46,1.95A33.034,33.034,0,0,1,44.675,56.61Zm15.87,14.92a2.544,2.544,0,0,1-2.54,2.54h-2.66a2.535,2.535,0,0,1-2.53-2.54V68.35a2.535,2.535,0,0,1,2.53-2.54h2.66a2.532,2.532,0,0,1,2.46,1.95c.059.623.076,1.477.08,1.97C60.549,70.18,60.545,71.53,60.545,71.53Zm.16-14.92a2.527,2.527,0,0,1-2.53,2.53h-2.67a2.527,2.527,0,0,1-2.53-2.53V53.42a2.527,2.527,0,0,1,2.53-2.53h2.67a2.527,2.527,0,0,1,2.53,2.53Zm15.86,14.92a2.535,2.535,0,0,1-2.53,2.54h-2.66a2.544,2.544,0,0,1-2.54-2.54V68.35a2.544,2.544,0,0,1,2.54-2.54h2.66a2.535,2.535,0,0,1,2.53,2.54Zm.17-16.73v1.81a2.535,2.535,0,0,1-2.54,2.53h-2.66a2.527,2.527,0,0,1-2.53-2.53V53.42a2.527,2.527,0,0,1,2.53-2.53h2.66a2.521,2.521,0,0,1,2.46,1.95A7.363,7.363,0,0,1,76.735,54.8Zm17.04,1.81a2.527,2.527,0,0,1-2.53,2.53h-2.66a2.535,2.535,0,0,1-2.54-2.53V53.42a2.535,2.535,0,0,1,2.54-2.53h2.66a2.527,2.527,0,0,1,2.53,2.53Zm4.58-10.37H32.125a1,1,0,0,1,0-2h66.23a1,1,0,0,1,0,2Z"/><path d="M105.986,81.785a3.424,3.424,0,0,0,.215-.395A3.278,3.278,0,0,1,105.986,81.785Z"/><path d="M106.281,81.191a3.514,3.514,0,0,0,.123-.4A3.321,3.321,0,0,1,106.281,81.191Z"/><path d="M106.449,80.6a3.41,3.41,0,0,0,.062-.619A3.41,3.41,0,0,1,106.449,80.6Z"/><path d="M106.4,80.794c.015-.064.033-.126.045-.191C106.437,80.668,106.419,80.731,106.4,80.794Z"/><path d="M106.2,81.39c.029-.065.054-.132.08-.2C106.255,81.258,106.23,81.325,106.2,81.39Z"/></svg>