<svg id="Solid" xmlns="http://www.w3.org/2000/svg" viewBox="0 0 128 128"><title>Treatment, healing, mental health, healthcare, medical, patient, Gauze</title><path d="M95.331,96.989c-.273-4.3,1.029-10.247,3.662-13.663,10.5-13.626,15.158-25.432,12.96-39.962C108.391,19.816,91.76,7.343,68.766,6.162,43.637,4.862,22.116,21,22.809,43.265c.091,2.938.605,7.265.593,10.091C23.379,63.4,14.69,67.524,14.523,70.72c-.275,5.248,5.89,3.609,8.064,11.033,2.76,9.425-1.2,20.173,11.648,19.509,5.125-.206,13.454-2.2,17.023,1.123,2.276,2.117,4.109,11.352,4.824,15.439a2.368,2.368,0,0,0,2.337,1.959H96.988a2.369,2.369,0,0,0,2.282-3.029C97.987,112.337,95.769,103.9,95.331,96.989ZM30.582,24.4c10.9-1.442,36.607.348,57.724,4.808C81,24.12,66.982,15.035,55.473,11.542A1.25,1.25,0,1,1,56.2,9.15c16.07,4.876,36.082,19.756,38.4,21.507a97.591,97.591,0,0,1,13.163,4.157,1.25,1.25,0,1,1-.95,2.312,95.892,95.892,0,0,0-13.067-4.107c-21.729-5.4-51.1-7.694-62.838-6.139a1.25,1.25,0,0,1-.328-2.478ZM49.371,46.319A149.371,149.371,0,0,0,25.81,45.268a1.25,1.25,0,1,1-.126-2.5,151.29,151.29,0,0,1,24.053,1.072c9.713,1.083,19.709,2.738,29.376,4.34,11.127,1.842,21.637,3.583,30.22,4.185a1.25,1.25,0,0,1-.086,2.5c-.03,0-.059,0-.089,0-8.7-.612-19.267-2.362-30.453-4.214-5.043-.835-10.174-1.68-15.3-2.455,5.365,2.092,9.7,4.271,13.949,6.409,7.765,3.909,15.1,7.6,28.01,10.368a1.25,1.25,0,1,1-.525,2.445c-13.223-2.835-20.7-6.6-28.609-10.581C69.068,53.233,61.665,49.508,49.371,46.319Z"/></svg>