<svg id="Solid" xmlns="http://www.w3.org/2000/svg" viewBox="0 0 128 128"><title>ultrasound, pregnancy, baby, medical, child, hospital, antenatal care</title><path d="M125.006,10.052a1,1,0,0,1-1-1V6.07a2.018,2.018,0,0,0-2.016-2.016h-2.982a1,1,0,1,1,0-2h2.982a4.02,4.02,0,0,1,4.016,4.016V9.052A1,1,0,0,1,125.006,10.052Z"/><path d="M3.006,10.052a1,1,0,0,1-1-1V6.07A4.021,4.021,0,0,1,6.023,2.054H9a1,1,0,0,1,0,2H6.023A2.019,2.019,0,0,0,4.006,6.07V9.052A1,1,0,0,1,3.006,10.052Z"/><path d="M121.99,126.054h-2.982a1,1,0,0,1,0-2h2.982a2.019,2.019,0,0,0,2.016-2.017v-2.981a1,1,0,0,1,2,0v2.981A4.021,4.021,0,0,1,121.99,126.054Z"/><path d="M9,126.054H6.023a4.022,4.022,0,0,1-4.017-4.017v-2.981a1,1,0,0,1,2,0v2.981a2.02,2.02,0,0,0,2.017,2.017H9a1,1,0,0,1,0,2Z"/><path d="M25.347,18.054H17.006a1,1,0,0,1,0-2h8.341a1,1,0,0,1,0,2Z"/><path d="M111.006,95.851h-3.941a1,1,0,0,1,0-2h3.941a1,1,0,0,1,0,2Z"/><path d="M111.006,104.392h-3.941a1,1,0,0,1,0-2h3.941a1,1,0,0,1,0,2Z"/><path d="M111.006,87.412h-3.941a1,1,0,0,1,0-2h3.941a1,1,0,0,1,0,2Z"/><path d="M31.947,24.653H17.006a1,1,0,0,1,0-2H31.947a1,1,0,0,1,0,2Z"/><path d="M31.947,31.253H17.006a1,1,0,0,1,0-2H31.947a1,1,0,1,1,0,2Z"/><path d="M111.006,79.312h-3.941a1,1,0,0,1,0-2h3.941a1,1,0,0,1,0,2Z"/><path d="M111.006,113.054h-3.941a1,1,0,0,1,0-2h3.941a1,1,0,0,1,0,2Z"/><path d="M109.036,113.054a1,1,0,0,1-1-1V78.312a1,1,0,0,1,2,0v33.742A1,1,0,0,1,109.036,113.054Z"/><path d="M72.761,83.71a1,1,0,0,1,1.158.811.98.98,0,0,1-.81,1.158,22.3,22.3,0,0,1-9.336-.407,28.858,28.858,0,0,1-10.083-5.5c-1.085-.843-6.762-5.011-13.394-5.42a35.079,35.079,0,0,0-5.748.362c-3.337.359-8.982.857-13.361-1.309a9.254,9.254,0,0,0-3.935-1.146,3.107,3.107,0,0,0-1.612.4c-1.4.84-1.671,2.908-1.7,4.067-.088,2.746,2.225,5.518,5.623,6.742a29.069,29.069,0,0,0,6.355,1.336c4.788.621,9.311,1.207,13.385,8.845,6.308,11.832,17.914,16.6,31.059,12.744,16.5-4.831,18.07-22.948,18.228-25,.124-1.595.408-7.66,2.858-10.066a28.288,28.288,0,0,1,6.5-4.232c6.123-3.278,13.064-6.993,15.145-18.576.955-5.293-1.018-11.649-5.147-16.588a23.687,23.687,0,0,0-18.446-8.664c-11.66,0-19.4,6.916-21.247,18.976-.316,2.061-.614,4-2.594,5.444-1.48,1.088-1.123,2.005-.309,3.665a4.57,4.57,0,0,1,.711,2.549,5.01,5.01,0,0,1-.163.728,2.31,2.31,0,0,0,.966.2c.68-.017,1.051.055,1.257.567a1.039,1.039,0,0,1-.6,1.317,2.043,2.043,0,0,1-.751.122,4.578,4.578,0,0,1-1.543-.325,13.294,13.294,0,0,0-.64,2.115c-.329,1.706-.185,3.883,3.87,5.572,3.319,1.392,4.907,3.01,4.721,4.812-.229,2.233-3.136,3.614-4.915,3.96-3.8.721-8.632-2.462-10.269-5.682a10.284,10.284,0,0,1-.966-3.461c-.173-1.224-.275-1.78-.883-2.142a.756.756,0,0,0-.875.058,2.008,2.008,0,0,1-1.685.874,2.166,2.166,0,0,1-1.8-.8,2.144,2.144,0,0,0-1.2-.832,2.805,2.805,0,0,0-2.921,1.469,5.233,5.233,0,0,0-.3,5,33.728,33.728,0,0,0,7.58,10.77,28,28,0,0,0,9.414,5.136A21.135,21.135,0,0,0,72.761,83.71Zm-.014-36.518a4.856,4.856,0,0,1-1.912.425,2.459,2.459,0,0,1-2.07-.942,1,1,0,0,1,1.6-1.194c.2.264,1.053.11,1.557-.113a1,1,0,0,1,.821,1.824Z"/><path d="M53.4,60.639c.01-.016.186-.01.248-.043a2.676,2.676,0,0,1,3.516-.631c1.458.869,1.653,2.248,1.841,3.582a8.374,8.374,0,0,0,.767,2.831c1.288,2.535,5.286,5.16,8.109,4.628,1.421-.277,3.214-1.32,3.3-2.2.062-.6-.826-1.64-3.5-2.763-4.029-1.679-5.733-4.3-5.063-7.8.036-.19.084-.374.13-.559a22.6,22.6,0,0,1-4.3-5.7c-.868-2-.64-3.508-1.954-4.387a1.709,1.709,0,0,0-1.954.377.935.935,0,0,1-1.348-.046,2.173,2.173,0,0,0-1.725-1.051c-2.091-.1-4.617,2.776-3.679,5.953a42.335,42.335,0,0,0,2.418,6.1,3.334,3.334,0,0,1,.88.115A4.058,4.058,0,0,1,53.4,60.639Z"/><path d="M40.419,72.361a24.4,24.4,0,0,1,8.632,2.3A32.979,32.979,0,0,1,45.4,67.854c-3.466-1.242-7.539-5.176-8.379-7.03-1.914-4.2-4.993-3.1-6.72-.913-1.331,1.7-1.463,5.587,0,7.776,1.964,2.912,3.331,2.7,4.438,5A31.829,31.829,0,0,1,40.419,72.361Z"/></svg>